<svg width="1368" height="885" viewBox="0 0 1368 885" fill="none" xmlns="http://www.w3.org/2000/svg">
<g clip-path="url(#clip0)">
<path d="M1281.89 478.541C1280.14 479.543 1274.69 480.544 1269.89 480.544C1265.09 480.544 1258.76 481.945 1255.92 483.747C1251.78 486.551 1246.76 486.951 1224.5 485.95C1204.21 485.149 1201.37 485.349 1212.06 486.551C1219.92 487.552 1230.61 488.553 1236.07 489.153C1243.27 489.554 1245.67 490.555 1245.01 492.758C1243.49 497.763 1243.7 509.376 1245.67 513.581C1246.76 515.784 1247.41 521.39 1247.2 526.195C1246.76 533.604 1247.63 535.606 1254.18 541.613C1262.25 549.021 1273.16 551.023 1282.33 546.418C1284.73 545.217 1291.49 544.015 1297.38 543.615C1303.49 543.415 1309.17 541.813 1311.35 539.811C1313.31 538.009 1315.28 536.607 1315.93 536.607C1318.55 536.607 1359.79 543.014 1363.28 543.815C1365.25 544.416 1366.99 544.015 1366.99 543.014C1366.99 542.013 1357.83 540.011 1346.92 538.81C1316.37 535.206 1316.8 535.406 1319.42 528.398C1321.17 523.793 1320.95 520.389 1318.11 513.982C1313.97 503.97 1313.53 497.163 1317.24 496.161C1319.42 495.36 1329.24 496.161 1358.92 499.365C1364.59 499.966 1366.99 499.365 1366.99 497.563C1366.99 495.16 1354.12 493.558 1324.44 492.157C1317.46 491.756 1314.19 490.155 1307.86 484.148C1301.75 478.141 1298.47 476.539 1292.58 476.539C1288.44 476.539 1283.64 477.54 1281.89 478.541ZM1299.35 483.547C1307.2 487.351 1313.31 497.363 1311.57 503.57C1310.91 506.173 1311.13 508.976 1312.44 509.577C1313.53 510.177 1314.62 514.983 1314.62 519.988C1314.62 531.601 1306.11 539.611 1292.36 541.413C1287.13 542.013 1279.27 543.014 1274.91 543.815C1267.49 545.017 1265.96 544.416 1258.76 537.808C1252 531.601 1250.9 529.599 1252 523.793C1252.65 519.988 1252.43 516.184 1251.34 515.383C1249.38 513.381 1248.5 508.375 1248.94 500.967C1249.38 493.959 1260.94 484.148 1268.14 484.748C1271.63 484.949 1276.65 484.148 1279.71 482.946C1287.35 479.943 1291.93 480.143 1299.35 483.547Z" fill="#444444"/>
<path d="M340.096 529.398C336.387 531 330.931 535.005 327.876 538.609L322.421 545.016L314.129 539.81C293.617 526.995 263.286 537.607 256.522 560.033C253.467 570.044 255.212 570.845 259.577 561.434C264.377 550.822 270.487 545.416 281.616 541.412C293.181 537.407 306.274 538.809 315.875 545.016L322.203 549.221L327.44 543.214C342.715 525.193 376.537 527.596 388.757 547.619L393.558 555.428L387.666 559.232C383.956 561.635 383.52 562.436 386.139 561.434C404.25 555.027 424.98 561.034 434.145 575.45C440.037 584.661 441.346 591.869 436.982 589.466C435.454 588.665 437.2 591.068 440.909 594.872C450.729 604.483 452.693 609.088 452.693 620.701C452.693 636.92 444.183 647.932 427.599 653.538C422.798 655.14 420.616 656.542 422.798 656.542C424.98 656.742 430.217 655.341 434.581 653.739C438.727 652.137 442.655 650.735 442.873 650.735C444.183 650.735 440.255 666.153 438.073 669.757C434.363 676.164 424.98 683.372 422.362 681.77C420.834 680.969 419.961 682.571 419.961 685.975C419.961 695.386 412.106 707.8 403.595 711.404C396.394 714.407 395.74 714.407 385.702 710.403C378.719 707.399 370.209 705.798 360.39 705.597C346.206 705.397 345.333 704.997 339.66 698.189C329.622 686.376 313.693 677.566 295.145 673.962C289.69 672.76 289.035 671.959 289.035 663.75C289.035 644.929 274.633 622.303 255.867 611.491C243.429 604.283 223.135 600.078 208.734 601.68L196.732 603.081L197.823 593.871C200.442 573.848 218.117 561.234 240.592 563.236C254.776 564.638 252.157 561.434 237.319 559.432C214.843 556.429 193.241 573.248 193.022 594.071C193.022 599.277 192.15 600.679 188.658 600.679C183.639 600.679 183.421 599.678 186.694 590.868C189.531 583.659 186.694 575.25 179.712 569.443C177.529 567.641 175.566 564.238 175.566 562.035C175.566 560.033 172.292 555.227 168.146 551.423C158.545 542.613 146.544 542.012 136.724 549.621C133.015 552.424 128.214 554.627 125.814 554.627C123.413 554.627 118.613 556.829 115.121 559.432C110.539 563.036 101.374 565.639 78.4619 569.844C61.6597 573.048 47.4761 576.051 46.8214 576.652C46.1668 577.252 44.2029 577.653 42.4572 577.653C40.7115 577.653 39.4023 578.854 39.8387 580.256C40.0569 581.857 39.4023 582.458 38.093 581.657C36.7838 581.057 36.5655 579.455 37.2202 578.253C38.3112 576.652 37.4384 576.451 35.0381 577.252C32.856 578.053 24.3458 579.655 16.0538 581.057C3.83398 582.859 0.997247 583.86 0.997247 586.863C0.997247 591.468 2.52472 591.468 22.3819 586.863C30.8921 584.661 38.093 583.459 38.093 583.86C38.093 584.46 41.148 583.459 44.6393 581.657C52.9313 577.653 52.9313 579.455 44.6393 586.663C38.093 592.269 37.6566 597.675 43.3301 601.079C47.0396 603.282 43.9847 604.683 25.0004 608.888C8.19819 612.492 -3.36696 616.497 2.52472 616.697C4.05219 616.697 14.0899 614.294 25.0004 611.491C35.9109 608.688 46.385 606.886 48.3489 607.486C54.2406 609.689 49.0035 611.891 27.1825 616.697C6.45251 621.302 -3.80338 624.506 3.17935 624.506C4.92503 624.506 16.7084 621.903 29.3646 618.499C42.0208 615.095 55.9863 611.491 60.5687 610.29C66.0239 608.888 69.9517 606.285 71.261 603.482C73.0067 600.278 76.7163 597.876 82.6079 596.474C97.0098 593.07 99.6283 592.269 98.7555 591.468C98.3191 591.068 93.082 592.069 86.9721 593.471L76.2798 596.074L71.0428 588.465C68.206 584.46 63.8418 580.055 61.2233 579.054C56.8591 577.052 56.8591 577.052 61.0051 577.052C63.4054 577.252 74.3159 575.05 85.2265 572.247L105.084 567.041L104.865 575.45C104.647 585.862 105.738 588.465 112.066 594.071C114.903 596.674 116.867 599.277 116.212 599.878C115.558 600.278 110.102 604.283 104.211 608.287C90.2453 617.898 80.4258 628.31 73.2249 641.124C67.5514 650.936 66.6786 651.736 52.0585 655.941C43.7665 658.544 33.2924 660.546 28.71 660.546C24.1275 660.747 16.0538 661.748 10.5985 662.949C1.87009 664.951 0.997247 665.752 0.997247 671.158C0.997247 675.964 1.65188 676.965 4.48861 675.964C35.0381 665.152 73.4431 671.959 96.5734 692.182C101.592 696.587 105.738 699.591 105.738 698.79C105.738 696.587 87.4086 680.369 79.1166 675.363C72.1338 670.958 71.4792 669.757 73.0067 664.951C79.1166 644.929 93.9549 626.908 111.848 617.298C121.013 612.292 121.668 612.292 127.559 615.295C137.379 620.701 148.071 619.7 156.581 612.692C164 606.686 172.074 605.284 180.366 608.287C183.639 609.489 182.33 611.091 173.383 618.299C167.492 623.104 161.382 628.911 160.073 631.313C158.545 633.916 160.945 632.515 165.746 627.909C178.839 615.696 195.204 609.889 214.843 609.889C226.409 609.889 234.046 611.291 241.465 614.094C263.068 623.104 280.525 643.928 283.58 665.152L285.107 674.362L274.633 675.764C250.848 678.967 232.082 691.581 221.608 711.404C215.28 723.417 209.388 749.447 214.625 742.839C215.934 741.238 217.026 738.034 217.026 735.631C217.026 726.821 224.445 712.405 233.391 703.195C260.668 675.363 308.674 675.363 337.041 703.395C342.933 709.001 342.715 709.602 334.205 712.405C330.277 713.807 324.167 717.611 320.457 721.215L314.129 727.422L321.767 722.416C325.913 719.613 332.677 716.41 336.823 715.008C347.515 711.804 368.245 712.205 378.501 716.009C385.92 718.812 387.011 719.813 385.92 724.018C384.175 730.626 386.357 738.234 390.939 739.636C394.431 740.837 394.431 740.837 390.939 737.233C387.011 733.429 386.139 727.222 388.975 723.818C392.248 719.613 404.686 712.805 408.832 712.805C417.124 712.805 428.908 728.223 425.853 735.431C425.198 736.833 420.616 740.637 415.597 743.841C406.65 749.447 406.214 749.647 400.104 746.443C396.613 744.441 393.776 743.841 393.776 744.842C393.776 747.845 402.723 751.249 408.178 750.248C412.76 749.447 413.415 750.248 414.724 758.257C416.033 766.867 415.379 775.676 412.324 783.886C411.669 786.088 412.542 785.287 414.506 782.284C417.561 777.278 418.87 776.878 424.98 777.879C434.145 779.681 454.875 788.291 454.875 790.293C454.657 791.094 452.911 796.9 450.511 802.907C448.11 808.914 446.365 817.123 446.365 820.928C446.583 827.735 446.583 827.735 448.547 819.126C453.129 797.701 470.804 778.68 493.716 770.871C517.719 762.462 547.832 768.669 565.944 785.688L575.109 794.298L561.362 796.1L547.614 797.701L565.071 798.903C586.238 800.304 599.548 805.51 611.986 816.923C629.007 832.541 635.99 855.166 630.971 877.592C629.443 884.399 629.661 885.2 632.935 884.6C636.644 883.999 638.39 880.595 641.445 867.981L642.972 861.974L647.118 866.98C650.828 871.184 650.828 870.584 646.464 862.975C642.318 855.567 641.445 850.761 641.445 835.945C641.445 820.327 642.318 816.523 647.336 807.913C662.611 781.083 695.125 767.868 726.765 775.076C736.148 777.278 738.548 779.481 734.184 781.883C731.347 783.485 723.274 797.902 723.274 801.305C723.274 802.707 726.329 799.303 729.82 793.497C741.167 775.476 761.024 765.665 783.718 767.267C807.721 768.869 825.396 780.882 834.779 801.906C837.179 807.512 838.707 809.715 838.271 806.511C837.179 799.704 843.726 796.7 863.147 795.499L877.548 794.498L879.076 804.109C880.167 812.718 888.459 832.14 890.205 830.538C890.641 830.138 888.895 824.532 886.495 817.924C871.657 777.479 910.062 733.429 956.541 737.433C963.305 738.034 971.597 739.436 975.088 740.837L981.635 743.04L975.088 746.644C971.597 748.646 966.796 752.45 964.396 754.853C960.468 759.258 960.686 759.058 967.887 754.252C984.69 742.639 1010.87 739.436 1031.82 746.243C1046.66 751.049 1064.12 766.066 1070.23 779.281C1075.9 791.294 1079.17 820.928 1074.16 814.12C1066.3 803.708 1063.68 802.106 1068.48 810.916C1075.03 822.93 1075.25 842.352 1068.92 854.966C1063.9 864.777 1052.33 875.99 1041.21 881.396L1034.22 884.8L1042.95 885C1054.74 885 1065.86 876.59 1073.94 861.574C1080.05 849.76 1081.79 835.744 1081.79 796.5C1081.79 756.855 1035.97 726.02 992.982 737.033C985.999 738.835 982.944 738.434 974.216 735.031C968.324 732.628 960.032 730.826 955.886 730.826C945.848 730.826 946.066 728.023 956.104 719.613C966.578 710.803 981.198 704.596 995.164 703.395L1006.29 702.193L1008.26 714.007L1010 725.82L1011.31 712.605C1012.18 704.796 1014.8 695.386 1018.08 689.579C1022.66 680.969 1024.62 679.368 1034.22 676.564C1050.81 671.759 1052.33 670.958 1053.86 664.751C1054.95 659.745 1056.48 658.945 1065.43 657.743C1085.28 655.341 1109.94 663.95 1121.29 677.165C1124.34 680.769 1126.96 682.772 1126.96 681.57C1126.96 676.765 1108.63 660.747 1097.5 655.541C1090.96 652.738 1085.5 649.534 1085.5 648.733C1085.5 647.932 1088.99 643.127 1093.14 638.121C1106.23 622.503 1134.16 613.293 1154.02 618.499C1158.82 619.7 1161.66 619.7 1160.57 618.699C1157.51 615.896 1136.13 612.492 1130.02 613.894C1123.25 615.495 1123.47 613.493 1131.11 602.481C1139.4 590.267 1151.84 581.257 1166.02 577.052C1176.06 574.249 1178.02 574.049 1178.9 576.652C1179.55 578.053 1182.39 581.457 1185.01 584.06C1187.84 586.663 1191.77 591.468 1193.52 594.672C1199.41 605.084 1215.56 605.084 1222.54 594.672L1226.03 589.666L1220.58 594.071C1213.81 599.678 1202.46 600.078 1197.88 595.072C1181.3 577.853 1179.99 571.446 1190.9 562.235C1207.26 548.019 1213.81 547.819 1226.25 561.635C1234.54 571.045 1236.5 582.058 1230.61 586.663C1227.99 588.665 1228.21 590.067 1233.23 595.873L1238.9 602.881L1233.45 608.287C1227.34 614.294 1220.79 622.904 1220.79 624.706C1220.79 625.507 1225.38 621.903 1231.27 616.697C1260.94 590.467 1304.37 602.681 1315.5 640.724L1318.77 651.736V642.726C1318.77 632.515 1314.62 620.301 1309.39 614.895C1305.02 610.49 1306.77 608.688 1321.17 603.282C1328.15 600.679 1336.23 599.678 1349.1 599.878C1366.34 599.878 1366.99 599.878 1366.99 595.273C1366.99 590.067 1366.99 590.067 1336.44 589.867C1320.52 589.666 1306.99 587.864 1278.84 581.857C1244.8 574.85 1241.31 573.648 1234.98 567.641C1231.27 564.037 1226.9 558.631 1225.38 555.828C1219.92 546.417 1204.43 545.016 1197.01 553.425C1195.48 555.227 1193.08 556.028 1191.77 555.227C1190.68 554.627 1190.24 555.027 1190.9 556.028C1192.64 558.431 1186.53 561.434 1181.52 560.834C1178.9 560.633 1178.9 560.834 1181.08 562.235C1183.04 563.437 1179.99 564.838 1171.04 566.44C1155.55 569.243 1139.84 578.253 1130.89 589.466C1127.18 594.071 1123.47 597.475 1122.16 597.075C1121.07 596.874 1120.63 597.475 1121.51 598.476C1122.16 599.678 1122.16 602.881 1121.29 605.885C1120.2 609.689 1116.93 612.492 1108.41 615.896C1097.5 620.501 1082.23 633.316 1076.99 642.126C1075.47 645.129 1071.54 646.531 1063.46 647.532C1053.86 648.733 1051.68 648.333 1047.97 644.929C1040.33 637.32 1019.17 641.325 1014.8 651.136C1013.06 654.94 1011.31 656.342 1010.44 654.94C1007.38 650.535 991.672 644.729 982.944 644.729C972.688 644.729 961.341 648.533 956.977 653.538C954.14 656.742 953.267 656.342 946.066 649.934C929.701 635.318 908.316 634.717 893.041 648.132C886.931 653.338 886.931 653.338 879.294 650.135C856.6 640.324 829.324 653.739 824.96 676.765C823.869 683.172 822.559 684.173 814.267 686.175C809.249 687.577 802.048 690.58 798.774 692.983C791.792 697.989 784.591 711.204 784.373 718.612C784.373 721.415 780.663 727.021 775.644 732.027C768.88 738.635 766.697 742.639 765.606 750.648C764.297 759.458 763.424 760.86 757.751 762.662C754.26 763.863 748.586 766.666 744.876 768.869C738.767 772.873 737.894 773.074 728.074 770.27C709.963 764.864 702.107 764.464 686.833 768.068C672.867 771.271 671.994 771.271 669.812 767.868C664.357 759.058 651.919 748.245 641.881 743.64C613.514 730.425 581.655 734.43 558.525 754.052C552.851 758.857 550.669 759.258 538.013 758.857C498.081 757.656 484.77 760.66 467.531 774.675L459.457 781.083L448.983 776.077C443.092 773.474 434.8 770.671 430.435 769.87C422.798 768.468 422.798 768.468 421.27 756.455C420.179 745.843 420.398 744.041 424.544 741.037C431.308 736.032 430.435 728.423 421.925 719.012L414.724 710.803L418.434 703.795C420.398 699.791 422.143 694.985 422.143 692.783C422.143 690.781 425.416 687.176 429.562 684.774C438.509 679.768 446.146 666.553 446.146 656.141C446.146 651.736 448.329 646.13 451.602 641.525C454.438 637.52 457.493 631.313 458.366 627.909C459.894 619.3 455.966 606.285 449.638 599.277C446.801 596.274 443.964 590.067 443.31 585.862C440.255 568.042 420.834 553.225 403.377 555.027C396.831 555.828 395.74 555.227 393.776 549.621C391.157 542.213 379.81 531.601 371.3 528.798C363.008 525.794 348.388 526.195 340.096 529.398ZM158.763 551.223C166.183 554.226 171.201 558.631 172.074 563.236C172.292 564.638 174.693 568.442 177.311 571.446C184.294 579.855 183.858 590.667 175.784 598.476C172.292 601.88 167.492 604.683 164.873 604.683C162.255 604.683 160.291 605.484 160.291 606.686C160.291 610.49 146.762 615.095 138.906 613.894C129.96 612.692 124.504 608.688 120.795 600.078C119.267 596.674 116.212 592.269 114.03 590.267C109.23 585.862 108.793 573.248 113.594 567.041C116.649 563.036 129.741 555.227 129.741 557.43C129.741 558.031 133.233 556.229 137.597 553.626C146.762 547.819 149.162 547.619 158.763 551.223ZM1272.95 585.862C1288 589.867 1301.97 593.671 1303.71 594.272C1306.77 595.273 1308.51 595.673 1313.31 596.274C1314.41 596.474 1312.66 598.476 1309.39 600.879C1303.71 604.883 1303.71 604.883 1297.82 601.079C1288 594.872 1277.53 592.67 1259.63 593.27C1246.32 593.471 1241.96 592.87 1239.12 590.467C1234.98 586.463 1236.72 578.654 1241.96 578.654C1243.71 578.654 1257.67 581.857 1272.95 585.862ZM934.283 646.931C939.52 649.334 945.412 653.338 947.376 655.941C950.431 660.346 951.303 660.546 954.358 658.144C971.161 644.528 993.854 645.93 1008.69 661.548C1016.98 670.157 1017.42 674.162 1010.87 676.765C1007.17 677.966 1006.95 678.567 1009.57 678.567C1012.84 678.767 1012.84 679.368 1009.57 686.376C1006.29 693.784 1005.86 693.984 994.509 694.184C976.616 694.585 962.65 699.791 948.903 711.204C942.357 716.81 935.592 723.818 933.847 726.821C932.101 730.025 928.391 732.828 924.682 733.429C907.443 736.632 885.404 757.256 879.294 775.877L876.021 785.888L866.201 786.088C860.746 786.288 851.8 787.49 846.344 788.891C837.179 791.294 836.088 791.094 834.125 788.09C826.924 776.277 804.448 760.86 794.192 760.86C792.446 760.86 790.919 760.059 790.919 758.857C790.919 757.856 786.336 757.456 780.008 758.257C769.752 759.258 769.098 759.058 769.098 755.053C769.098 749.847 776.081 736.632 780.881 733.028C782.627 731.627 785.464 731.226 786.773 732.027C788.737 733.028 788.955 732.027 788.082 728.623C783.936 714.407 798.12 694.785 815.577 690.38C824.742 688.178 825.614 687.377 826.924 680.369C829.106 669.557 836.525 660.346 847.654 655.14C858.564 650.135 866.856 649.534 877.548 653.138C883.222 655.14 884.531 656.342 883.44 659.745C882.785 662.148 883.877 661.347 886.495 657.543C891.732 650.135 907.007 642.726 917.263 642.726C921.409 642.726 929.046 644.729 934.283 646.931ZM1044.7 646.33C1046.66 648.333 1049.06 654.139 1049.72 659.345C1051.24 668.555 1051.03 668.756 1043.39 671.759C1028.99 677.165 1021.13 674.963 1018.95 664.951C1018.51 662.549 1017.42 659.745 1016.77 658.744C1014.15 654.94 1018.29 648.333 1025.06 645.73C1034.66 641.925 1040.55 642.126 1044.7 646.33ZM639.263 751.249C645.373 754.252 654.537 760.66 659.774 765.865L668.939 775.076L658.247 784.486C645.809 795.299 638.39 807.713 636.208 820.527L634.898 829.337L627.916 820.327C619.406 809.715 603.694 799.503 590.384 796.3C583.401 794.498 579.473 791.895 574.454 785.688C570.963 781.083 565.071 775.476 561.362 772.873L554.815 768.468L559.834 763.463C566.162 757.456 577.291 751.049 587.765 747.445C600.203 743.24 625.952 745.042 639.263 751.249Z" fill="#444444"/>
<path d="M1341.25 684.775C1336.23 686.778 1331.43 689.981 1330.77 691.783C1330.12 693.385 1327.28 694.787 1324.66 694.787C1322.26 694.787 1315.93 696.589 1310.91 698.591C1291.49 706.8 1287.57 729.226 1302.84 744.042C1306.99 748.047 1310.26 753.253 1310.26 755.655C1310.26 758.058 1312.22 762.663 1314.62 766.267C1323.57 779.883 1345.61 783.687 1359.36 773.876C1369.4 767.068 1369.18 763.865 1359.14 769.271C1349.54 774.477 1334.7 774.877 1326.63 770.072C1319.64 765.867 1312.44 755.455 1312.44 749.248C1312.44 746.645 1311.57 745.244 1310.26 745.844C1306.77 747.847 1299.35 734.431 1299.35 726.022C1299.35 721.617 1301.31 715.41 1303.93 711.405C1308.73 704.197 1319.64 697.79 1324.44 699.592C1325.97 699.993 1329.46 698.391 1332.08 695.788C1338.63 689.381 1350.19 685.977 1359.58 687.579C1365.25 688.58 1366.99 688.179 1366.99 686.177C1366.99 679.77 1354.78 679.169 1341.25 684.775Z" fill="#444444"/>
<path d="M1271.64 786.692C1267.93 788.895 1264.22 792.699 1263.35 795.302C1262.47 797.905 1259.64 802.11 1256.8 804.913C1248.94 812.722 1246.54 818.728 1247.85 825.736C1249.38 833.145 1256.15 839.752 1264.44 841.955C1267.49 842.755 1272.07 845.559 1274.91 847.961C1280.8 853.367 1290.84 855.57 1298.04 852.967C1304.37 850.764 1312.44 841.754 1312.44 836.548C1312.44 834.546 1313.97 832.344 1315.72 831.543C1320.52 829.941 1325.54 820.33 1325.54 812.922C1325.54 805.914 1315.5 794.902 1308.95 794.902C1306.77 794.902 1302.41 792.699 1299.35 789.896C1291.28 782.888 1280.58 781.687 1271.64 786.692ZM1293.46 789.295C1296.08 790.497 1299.57 792.699 1301.1 794.301C1302.62 795.702 1305.24 796.904 1306.99 796.904C1308.52 796.904 1312.44 799.707 1315.72 803.311C1320.74 808.717 1321.39 811.12 1320.52 817.727C1319.86 822.332 1317.46 827.338 1315.28 828.94C1313.1 830.542 1310.26 834.546 1309.17 837.95C1305.9 846.76 1293.24 852.166 1282.98 848.962C1278.84 847.761 1274.04 844.958 1272.51 842.755C1270.77 840.753 1269.02 839.552 1268.15 840.153C1265.53 842.755 1255.49 833.946 1253.31 827.138C1251.34 820.931 1251.56 818.528 1254.4 813.322C1256.36 809.718 1258.98 806.915 1260.07 806.915C1261.16 806.915 1262.69 804.913 1263.56 802.31C1267.49 790.096 1282.11 783.689 1293.46 789.295Z" fill="#444444"/>
</g>
<path d="M86.1031 434.625C87.8488 433.555 93.3039 432.484 98.1044 432.484C102.905 432.484 109.233 430.985 112.07 429.059C116.215 426.061 121.234 425.633 143.491 426.703C163.784 427.56 166.621 427.346 155.929 426.061C148.074 424.991 137.381 423.92 131.926 423.278C124.726 422.85 122.325 421.779 122.98 419.424C124.507 414.072 124.289 401.654 122.325 397.158C121.234 394.803 120.58 388.808 120.798 383.669C121.234 375.748 120.361 373.607 113.815 367.184C105.742 359.262 94.8313 357.121 85.6667 362.045C83.2664 363.33 76.5021 364.614 70.6105 365.043C64.5007 365.257 58.8274 366.97 56.6453 369.111C54.6815 371.037 52.7176 372.536 52.063 372.536C49.4445 372.536 8.20365 365.685 4.71236 364.829C2.74851 364.186 1.00286 364.614 1.00286 365.685C1.00286 366.755 10.1675 368.896 21.0778 370.181C51.6266 374.035 51.1902 373.821 48.5717 381.314C46.8261 386.239 47.0443 389.878 49.881 396.729C54.0269 407.434 54.4633 414.714 50.7538 415.784C48.5717 416.641 38.7525 415.784 9.07648 412.359C3.40313 411.716 1.00286 412.359 1.00286 414.286C1.00286 416.855 13.877 418.568 43.553 420.066C50.5356 420.495 53.8087 422.207 60.1366 428.63C66.2464 435.053 69.5195 436.766 75.411 436.766C79.5569 436.766 84.3575 435.696 86.1031 434.625ZM68.6466 429.273C60.7912 425.205 54.6815 414.5 56.4271 407.863C57.0817 405.079 56.8635 402.082 55.5543 401.44C54.4633 400.797 53.3722 395.659 53.3722 390.306C53.3722 377.889 61.8823 369.325 75.6292 367.398C80.8662 366.755 88.7216 365.685 93.0857 364.829C100.505 363.544 102.032 364.186 109.233 371.252C115.997 377.889 117.088 380.03 115.997 386.239C115.343 390.306 115.561 394.374 116.652 395.231C118.616 397.372 119.489 402.724 119.052 410.646C118.616 418.139 107.051 428.63 99.8501 427.988C96.3588 427.774 91.34 428.63 88.2852 429.915C80.648 433.126 76.0656 432.912 68.6466 429.273Z" fill="#444444"/>
<path d="M1027.88 380.241C1031.59 378.528 1037.04 374.246 1040.1 370.392L1045.55 363.541L1053.85 369.108C1074.36 382.81 1104.69 371.463 1111.45 347.484C1114.51 336.779 1112.76 335.922 1108.4 345.985C1103.6 357.332 1097.49 363.113 1086.36 367.395C1074.79 371.677 1061.7 370.178 1052.1 363.541L1045.77 359.045L1040.54 365.468C1025.26 384.737 991.439 382.168 979.22 360.758L974.419 352.408L980.311 348.34C984.02 345.771 984.457 344.914 981.838 345.985C963.727 352.836 942.998 346.413 933.833 330.998C927.941 321.149 926.632 313.442 930.996 316.011C932.524 316.867 930.778 314.298 927.068 310.23C917.249 299.954 915.285 295.029 915.285 282.611C915.285 265.269 923.795 253.494 940.379 247.499C945.18 245.786 947.362 244.288 945.18 244.288C942.998 244.074 937.761 245.572 933.396 247.285C929.251 248.998 925.323 250.497 925.105 250.497C923.795 250.497 927.723 234.011 929.905 230.157C933.615 223.306 942.998 215.598 945.616 217.311C947.143 218.167 948.016 216.455 948.016 212.815C948.016 202.752 955.872 189.478 964.382 185.624C971.582 182.413 972.237 182.413 982.275 186.695C989.257 189.906 997.767 191.619 1007.59 191.833C1021.77 192.047 1022.64 192.476 1028.32 199.755C1038.35 212.387 1054.28 221.807 1072.83 225.661C1078.29 226.946 1078.94 227.802 1078.94 236.58C1078.94 256.705 1093.34 280.899 1112.11 292.46C1124.54 300.168 1144.84 304.664 1159.24 302.951L1171.24 301.452L1170.15 311.301C1167.53 332.711 1149.86 346.199 1127.38 344.058C1113.2 342.559 1115.82 345.985 1130.65 348.126C1153.13 351.337 1174.73 333.353 1174.95 311.087C1174.95 305.52 1175.82 304.021 1179.31 304.021C1184.33 304.021 1184.55 305.092 1181.28 314.512C1178.44 322.22 1181.28 331.212 1188.26 337.421C1190.44 339.348 1192.41 342.988 1192.41 345.343C1192.41 347.484 1195.68 352.622 1199.83 356.69C1209.43 366.11 1221.43 366.753 1231.25 358.617C1234.96 355.619 1239.76 353.264 1242.16 353.264C1244.56 353.264 1249.36 350.909 1252.85 348.126C1257.43 344.272 1266.6 341.489 1289.51 336.993C1306.31 333.567 1320.49 330.356 1321.15 329.713C1321.8 329.071 1323.77 328.643 1325.51 328.643C1327.26 328.643 1328.57 327.358 1328.13 325.86C1327.91 324.147 1328.57 323.504 1329.88 324.361C1331.19 325.003 1331.4 326.716 1330.75 328.001C1329.66 329.713 1330.53 329.927 1332.93 329.071C1335.11 328.215 1343.62 326.502 1351.92 325.003C1364.13 323.076 1366.97 322.006 1366.97 318.794C1366.97 313.87 1365.44 313.87 1345.59 318.794C1337.08 321.149 1329.88 322.434 1329.88 322.006C1329.88 321.363 1326.82 322.434 1323.33 324.361C1315.04 328.643 1315.04 326.716 1323.33 319.008C1329.88 313.014 1330.31 307.233 1324.64 303.593C1320.93 301.238 1323.98 299.739 1342.97 295.243C1359.77 291.39 1371.34 287.108 1365.44 286.893C1363.92 286.893 1353.88 289.463 1342.97 292.46C1332.06 295.457 1321.58 297.384 1319.62 296.742C1313.73 294.387 1318.97 292.032 1340.79 286.893C1361.52 281.969 1371.77 278.544 1364.79 278.544C1363.04 278.544 1351.26 281.327 1338.6 284.967C1325.95 288.606 1311.98 292.46 1307.4 293.745C1301.95 295.243 1298.02 298.027 1296.71 301.024C1294.96 304.45 1291.25 307.019 1285.36 308.517C1270.96 312.157 1268.34 313.014 1269.22 313.87C1269.65 314.298 1274.89 313.228 1281 311.729L1291.69 308.946L1296.93 317.081C1299.76 321.363 1304.13 326.074 1306.75 327.144C1311.11 329.285 1311.11 329.285 1306.96 329.285C1304.56 329.071 1293.65 331.426 1282.74 334.424L1262.89 339.99L1263.11 330.998C1263.32 319.865 1262.23 317.081 1255.9 311.087C1253.07 308.303 1251.1 305.52 1251.76 304.878C1252.41 304.45 1257.87 300.168 1263.76 295.886C1277.73 285.609 1287.54 274.476 1294.75 260.773C1300.42 250.282 1301.29 249.426 1315.91 244.93C1324.2 242.147 1334.68 240.006 1339.26 240.006C1343.84 239.792 1351.92 238.721 1357.37 237.436C1366.1 235.295 1366.97 234.439 1366.97 228.658C1366.97 223.52 1366.32 222.449 1363.48 223.52C1332.93 235.081 1294.53 227.802 1271.4 206.178C1266.38 201.468 1262.23 198.256 1262.23 199.113C1262.23 201.468 1280.56 218.81 1288.85 224.162C1295.84 228.872 1296.49 230.157 1294.96 235.295C1288.85 256.705 1274.02 275.974 1256.12 286.251C1246.96 291.604 1246.3 291.604 1240.41 288.392C1230.59 282.611 1219.9 283.682 1211.39 291.175C1203.97 297.598 1195.9 299.097 1187.61 295.886C1184.33 294.601 1185.64 292.888 1194.59 285.181C1200.48 280.042 1206.59 273.833 1207.9 271.264C1209.43 268.481 1207.03 269.98 1202.23 274.904C1189.13 287.964 1172.77 294.173 1153.13 294.173C1141.56 294.173 1133.93 292.674 1126.51 289.677C1104.91 280.042 1087.45 257.776 1084.39 235.081L1082.87 225.233L1093.34 223.734C1117.13 220.308 1135.89 206.82 1146.37 185.624C1152.69 172.778 1158.58 144.945 1153.35 152.011C1152.04 153.723 1150.95 157.149 1150.95 159.718C1150.95 169.139 1143.53 184.554 1134.58 194.402C1107.31 224.162 1059.3 224.162 1030.93 194.188C1025.04 188.194 1025.26 187.551 1033.77 184.554C1037.7 183.055 1043.81 178.987 1047.52 175.133L1053.85 168.496L1046.21 173.849C1042.06 176.846 1035.3 180.272 1031.15 181.771C1020.46 185.196 999.731 184.768 989.475 180.7C982.056 177.703 980.965 176.632 982.056 172.136C983.802 165.071 981.62 156.935 977.038 155.436C973.546 154.152 973.546 154.152 977.038 158.005C980.965 162.073 981.838 168.71 979.001 172.35C975.728 176.846 963.291 184.126 959.145 184.126C950.853 184.126 939.07 167.64 942.125 159.932C942.779 158.434 947.362 154.366 952.38 150.94C961.327 144.945 961.763 144.731 967.873 148.157C971.364 150.298 974.201 150.94 974.201 149.87C974.201 146.658 965.255 143.019 959.799 144.089C955.217 144.945 954.562 144.089 953.253 135.525C951.944 126.319 952.599 116.898 955.653 108.12C956.308 105.765 955.435 106.622 953.471 109.833C950.417 115.186 949.107 115.614 942.998 114.543C933.833 112.616 913.103 103.41 913.103 101.269C913.322 100.413 915.067 94.2038 917.467 87.7808C919.868 81.3578 921.613 72.5798 921.613 68.5119C921.395 61.2325 921.395 61.2325 919.431 70.4388C914.849 93.3474 897.174 113.687 874.263 122.037C850.26 131.029 820.148 124.392 802.037 106.193L792.872 96.9871L806.619 95.0602L820.366 93.3474L802.909 92.0628C781.743 90.5641 768.433 84.9975 755.995 72.7939C738.975 56.0941 731.992 31.9008 737.011 7.92168C738.539 0.642299 738.32 -0.2141 735.047 0.428199C731.338 1.0705 729.592 4.71019 726.537 18.1985L725.01 24.6215L720.864 19.269C717.154 14.7729 717.154 15.4152 721.519 23.551C725.664 31.4726 726.537 36.611 726.537 52.4544C726.537 69.1542 725.664 73.2221 720.646 82.4283C705.371 111.118 672.859 125.248 641.219 117.541C631.836 115.186 629.436 112.83 633.8 110.261C636.636 108.548 644.71 93.1333 644.71 89.4936C644.71 87.9949 641.655 91.6346 638.164 97.8435C626.817 117.112 606.96 127.603 584.267 125.891C560.264 124.178 542.59 111.332 533.207 88.8513C530.807 82.8565 529.279 80.5014 529.716 83.927C530.807 91.2064 524.26 94.4179 504.84 95.7025L490.439 96.773L488.911 86.4962C487.82 77.2899 479.528 56.5223 477.783 58.2351C477.346 58.6633 479.092 64.6581 481.492 71.7234C496.33 114.971 457.926 162.073 411.448 157.791C404.684 157.149 396.392 155.65 392.901 154.152L386.354 151.797L392.901 147.943C396.392 145.802 401.192 141.734 403.593 139.165C407.52 134.455 407.302 134.669 400.101 139.807C383.3 152.225 357.115 155.65 336.167 148.371C321.329 143.233 303.873 127.175 297.763 113.045C292.09 100.199 288.816 68.5119 293.835 75.7913C301.691 86.9244 304.309 88.6372 299.508 79.2168C292.962 66.3709 292.744 45.6032 299.072 32.1149C304.091 21.6241 315.656 9.63448 326.784 3.85379L333.767 0.2141L325.039 0C313.255 0 302.127 8.99218 294.053 25.0496C287.944 37.6815 286.198 52.6685 286.198 94.632C286.198 137.024 332.021 169.995 375.008 158.22C381.99 156.293 385.045 156.721 393.773 160.361C399.665 162.93 407.957 164.857 412.103 164.857C422.14 164.857 421.922 167.854 411.885 176.846C401.411 186.267 386.791 192.904 372.826 194.188L361.697 195.473L359.733 182.841L357.988 170.209L356.678 184.34C355.806 192.69 353.187 202.752 349.914 208.961C345.332 218.167 343.368 219.88 333.767 222.878C317.183 228.016 315.656 228.872 314.128 235.51C313.037 240.862 311.51 241.718 302.563 243.003C282.707 245.572 258.049 236.366 246.703 222.235C243.648 218.382 241.029 216.241 241.029 217.525C241.029 222.664 259.359 239.792 270.487 245.358C277.033 248.356 282.488 251.781 282.488 252.637C282.488 253.494 278.997 258.632 274.851 263.985C261.759 280.685 233.829 290.533 213.972 284.967C209.171 283.682 206.335 283.682 207.426 284.752C210.481 287.75 231.865 291.39 237.974 289.891C244.739 288.178 244.521 290.319 236.883 302.095C228.592 315.155 216.154 324.789 201.971 329.285C191.933 332.283 189.969 332.497 189.096 329.713C188.442 328.215 185.605 324.575 182.987 321.792C180.15 319.008 176.222 313.87 174.476 310.444C168.585 299.311 152.438 299.311 145.455 310.444L141.964 315.797L147.419 311.087C154.183 305.092 165.53 304.664 170.112 310.016C186.696 328.429 188.005 335.28 177.095 345.129C160.73 360.33 154.183 360.544 141.746 345.771C133.454 335.708 131.49 323.933 137.381 319.008C140 316.867 139.782 315.369 134.763 309.16L129.09 301.666L134.545 295.886C140.655 289.463 147.201 280.256 147.201 278.329C147.201 277.473 142.618 281.327 136.727 286.893C107.051 314.94 63.628 301.88 52.4995 261.201L49.2264 249.426V259.06C49.2264 269.98 53.3723 283.04 58.6092 288.82C62.9733 293.531 61.2276 295.457 46.8261 301.238C39.8435 304.021 31.7699 305.092 18.8957 304.878C1.65748 304.878 1.00283 304.878 1.00283 309.802C1.00283 315.369 1.00283 315.369 31.5517 315.583C47.4807 315.797 61.0095 317.724 89.1581 324.147C123.198 331.64 126.689 332.925 133.017 339.348C136.727 343.202 141.091 348.982 142.618 351.98C148.074 362.042 163.566 363.541 170.985 354.549C172.513 352.622 174.913 351.766 176.222 352.622C177.313 353.264 177.75 352.836 177.095 351.766C175.349 349.196 181.459 345.985 186.478 346.627C189.096 346.841 189.096 346.627 186.914 345.129C184.95 343.844 188.005 342.345 196.952 340.632C212.444 337.635 228.155 328.001 237.102 316.011C240.811 311.087 244.521 307.447 245.83 307.875C246.921 308.089 247.357 307.447 246.484 306.377C245.83 305.092 245.83 301.666 246.703 298.455C247.794 294.387 251.067 291.39 259.577 287.75C270.487 282.826 285.762 269.123 290.998 259.703C292.526 256.491 296.454 254.993 304.527 253.922C314.128 252.637 316.31 253.066 320.02 256.705C327.657 264.841 348.823 260.559 353.187 250.068C354.933 246 356.678 244.502 357.551 246C360.606 250.711 376.317 256.919 385.045 256.919C395.301 256.919 406.648 252.852 411.012 247.499C413.848 244.074 414.721 244.502 421.922 251.353C438.287 266.982 459.672 267.624 474.946 253.28C481.056 247.713 481.056 247.713 488.693 251.139C511.386 261.63 538.662 247.285 543.026 222.664C544.117 215.812 545.426 214.742 553.718 212.601C558.737 211.102 565.938 207.891 569.211 205.321C576.193 199.969 583.394 185.838 583.612 177.917C583.612 174.919 587.322 168.925 592.341 163.572C599.105 156.507 601.287 152.225 602.378 143.661C603.687 134.24 604.56 132.742 610.234 130.815C613.725 129.53 619.398 126.533 623.108 124.178C629.218 119.896 630.09 119.682 639.91 122.679C658.021 128.46 665.876 128.888 681.15 125.034C695.116 121.609 695.988 121.609 698.171 125.248C703.626 134.669 716.063 146.23 726.101 151.154C754.468 165.285 786.326 161.003 809.456 140.021C815.129 134.883 817.311 134.455 829.967 134.883C869.899 136.167 883.209 132.956 900.447 117.969L908.521 111.118L918.995 116.47C924.886 119.253 933.178 122.251 937.542 123.107C945.18 124.606 945.18 124.606 946.707 137.452C947.798 148.799 947.58 150.726 943.434 153.938C936.67 159.29 937.542 167.426 946.052 177.489L953.253 186.267L949.544 193.76C947.58 198.042 945.834 203.18 945.834 205.536C945.834 207.677 942.561 211.53 938.415 214.1C929.469 219.452 921.832 233.583 921.832 244.716C921.832 249.426 919.649 255.421 916.376 260.345C913.54 264.627 910.485 271.264 909.612 274.904C908.085 284.11 912.012 298.027 918.34 305.52C921.177 308.732 924.014 315.369 924.668 319.865C927.723 338.92 947.143 354.763 964.6 352.836C971.146 351.98 972.237 352.622 974.201 358.617C976.819 366.538 988.166 377.886 996.676 380.883C1004.97 384.095 1019.59 383.666 1027.88 380.241ZM1209.21 356.904C1201.79 353.692 1196.77 348.982 1195.9 344.058C1195.68 342.559 1193.28 338.491 1190.66 335.28C1183.68 326.288 1184.11 314.726 1192.19 306.377C1195.68 302.737 1200.48 299.739 1203.1 299.739C1205.72 299.739 1207.68 298.883 1207.68 297.598C1207.68 293.531 1221.21 288.606 1229.07 289.891C1238.01 291.175 1243.47 295.457 1247.18 304.664C1248.7 308.303 1251.76 313.014 1253.94 315.155C1258.74 319.865 1259.18 333.353 1254.38 339.99C1251.32 344.272 1238.23 352.622 1238.23 350.267C1238.23 349.625 1234.74 351.552 1230.37 354.335C1221.21 360.544 1218.81 360.758 1209.21 356.904ZM95.0496 319.865C79.9934 315.583 66.0282 311.515 64.2825 310.873C61.2276 309.802 59.4821 309.374 54.6816 308.732C53.5905 308.517 55.3361 306.377 58.6092 303.807C64.2826 299.525 64.2826 299.525 70.1741 303.593C79.9934 310.23 90.4673 312.585 108.36 311.943C121.671 311.729 126.035 312.371 128.872 314.94C133.017 319.222 131.272 327.572 126.035 327.572C124.289 327.572 110.324 324.147 95.0496 319.865ZM433.705 254.564C428.468 251.995 422.577 247.713 420.613 244.93C417.558 240.22 416.685 240.006 413.63 242.575C396.828 257.134 374.135 255.635 359.297 238.935C351.005 229.729 350.569 225.447 357.115 222.664C360.824 221.379 361.043 220.737 358.424 220.737C355.151 220.523 355.151 219.88 358.424 212.387C361.697 204.465 362.134 204.251 373.48 204.037C391.373 203.609 405.338 198.042 419.085 185.838C425.631 179.844 432.396 172.35 434.142 169.139C435.887 165.713 439.597 162.716 443.306 162.073C460.544 158.648 482.583 136.596 488.693 116.684L491.966 105.979L501.785 105.765C507.24 105.551 516.187 104.266 521.642 102.768C530.807 100.199 531.898 100.413 533.861 103.624C541.062 116.256 563.538 132.742 573.793 132.742C575.539 132.742 577.066 133.598 577.066 134.883C577.066 135.953 581.649 136.381 587.977 135.525C598.232 134.455 598.887 134.669 598.887 138.951C598.887 144.517 591.904 158.648 587.104 162.502C585.358 164 582.521 164.428 581.212 163.572C579.248 162.502 579.03 163.572 579.903 167.212C584.049 182.413 569.865 203.395 552.409 208.105C543.244 210.46 542.372 211.316 541.062 218.81C538.88 230.371 531.461 240.22 520.333 245.786C509.422 251.139 501.131 251.781 490.439 247.927C484.765 245.786 483.456 244.502 484.547 240.862C485.202 238.293 484.111 239.149 481.492 243.217C476.255 251.139 460.981 259.06 450.725 259.06C446.579 259.06 438.942 256.919 433.705 254.564ZM323.293 255.207C321.329 253.066 318.929 246.857 318.274 241.29C316.747 231.442 316.965 231.228 324.602 228.016C339.004 222.235 346.859 224.59 349.041 235.295C349.478 237.865 350.569 240.862 351.223 241.933C353.842 246 349.696 253.066 342.931 255.849C333.33 259.917 327.439 259.703 323.293 255.207ZM728.719 143.019C722.61 139.807 713.445 132.956 708.208 127.389L699.043 117.541L709.735 107.478C722.173 95.9166 729.592 82.6424 731.774 68.9401L733.083 59.5197L740.066 69.1542C748.576 80.5014 764.287 91.4205 777.597 94.8461C784.58 96.773 788.508 99.5563 793.526 106.193C797.018 111.118 802.909 117.112 806.619 119.896L813.165 124.606L808.146 129.958C801.818 136.381 790.69 143.233 780.216 147.086C767.778 151.583 742.03 149.656 728.719 143.019Z" fill="#444444"/>
<path d="M26.7469 214.092C31.7657 211.951 36.5662 208.525 37.2208 206.598C37.8754 204.885 40.7121 203.387 43.3306 203.387C45.7308 203.387 52.0588 201.46 57.0776 199.319C76.4979 190.541 80.4256 166.562 65.1512 150.718C61.0053 146.436 57.7322 140.87 57.7322 138.3C57.7322 135.731 55.7683 130.807 53.368 126.953C44.4216 112.394 22.3828 108.326 8.63583 118.817C-1.40165 126.097 -1.18344 129.522 8.85403 123.742C18.4551 118.175 33.2931 117.747 41.3667 122.885C48.3493 127.381 55.5501 138.515 55.5501 145.152C55.5501 147.935 56.4229 149.434 57.7322 148.791C61.2235 146.65 68.6425 160.995 68.6425 169.987C68.6425 174.697 66.6786 181.334 64.0601 185.616C59.2596 193.324 48.3493 200.175 43.5488 198.248C42.0213 197.82 38.53 199.533 35.9116 202.316C29.3654 209.167 17.8005 212.807 8.41762 211.094C2.74427 210.024 0.998619 210.452 0.998619 212.593C0.998619 219.444 13.2182 220.086 26.7469 214.092Z" fill="#444444"/>
<path d="M96.3546 105.124C100.064 102.769 103.774 98.701 104.646 95.9177C105.519 93.1344 108.356 88.6383 111.193 85.6409C119.048 77.2911 121.448 70.8681 120.139 63.3746C118.612 55.4529 111.847 48.3877 103.555 46.0326C100.501 45.1762 95.9182 42.1788 93.0815 39.6096C87.19 33.8289 77.1525 31.4738 69.9517 34.2571C63.6238 36.6122 55.5502 46.2467 55.5502 51.8133C55.5502 53.9543 54.0227 56.3093 52.2771 57.1657C47.4765 58.8785 42.4578 69.1553 42.4578 77.077C42.4578 84.5704 52.4953 96.3459 59.0414 96.3459C61.2235 96.3459 65.5876 98.701 68.6425 101.698C76.7161 109.192 87.4082 110.476 96.3546 105.124ZM74.534 102.341C71.9156 101.056 68.4243 98.701 66.8969 96.9882C65.3694 95.4895 62.7509 94.2049 61.0053 94.2049C59.4779 94.2049 55.5502 91.2075 52.2771 87.3537C47.2583 81.5731 46.6037 79.0039 47.4765 71.9386C48.1312 67.0143 50.5314 61.6618 52.7135 59.949C54.8955 58.2362 57.7322 53.9543 58.8232 50.3146C62.0963 40.8942 74.7523 35.1135 85.0079 38.5391C89.1538 39.8237 93.9544 42.8211 95.4818 45.1762C97.2274 47.3172 98.9731 48.6018 99.8459 47.9595C102.464 45.1762 112.502 54.5965 114.684 61.8759C116.648 68.513 116.43 71.0822 113.593 76.6488C111.629 80.5026 109.011 83.4999 107.92 83.4999C106.828 83.4999 105.301 85.6409 104.428 88.4242C100.501 101.484 85.8807 108.335 74.534 102.341Z" fill="#444444"/>
<defs>
<clipPath id="clip0">
<rect width="1366" height="885" fill="white" transform="translate(1.00195)"/>
</clipPath>
</defs>
</svg>
