<svg width="3174" height="1329" viewBox="0 0 3174 1329" fill="none" xmlns="http://www.w3.org/2000/svg">
<g clip-path="url(#clip0)">
<path d="M765.886 3.47094C756.153 11.7086 737.532 22.6699 722.825 28.8482C717.218 31.2397 716.16 31.9705 716.689 33.0999C722.72 46.3864 723.143 47.9808 723.143 63.7917C723.143 77.1447 722.825 79.9348 720.709 85.7809C707.167 124.71 664.953 156.199 611.524 167.36C591.528 171.545 585.18 172.077 558.624 172.077C538.099 172.01 533.338 171.811 524.239 170.549C496.519 166.696 472.714 160.053 450.708 149.955C438.964 144.574 421.507 133.214 413.784 125.906C405.849 118.399 405.955 118.532 407.33 120.99C409.446 125.043 411.562 135.007 411.562 141.451C411.562 158.06 402.675 176.262 387.545 190.545C380.774 196.923 366.597 206.09 357.604 209.943C340.57 217.052 325.229 219.908 303.646 219.842C295.817 219.775 286.506 219.443 282.909 218.978C251.275 215.192 220.805 202.569 203.982 186.426C198.375 181.045 197.105 180.049 198.163 181.776C198.481 182.374 199.962 186.293 201.443 190.412C209.378 212.8 210.013 238.775 203.242 260.831C194.884 287.603 175.84 308.928 146.004 324.872C107.81 345.333 63.9032 356.294 13.5424 358.088L0 358.619V370.577V382.535L14.1772 382.137C48.4564 381.074 78.821 376.49 110.032 367.721C123.574 363.868 129.393 361.808 144.946 355.364C167.481 345.997 185.996 335.302 201.761 322.547C224.402 304.211 240.06 277.638 244.398 250.467C245.773 241.632 246.62 237.513 246.831 237.513C246.937 237.513 251.592 238.443 257.094 239.506C273.387 242.761 284.285 243.758 303.117 243.758C343.004 243.691 371.252 236.317 399.395 218.58C406.378 214.195 414.524 208.349 417.593 205.559C424.787 198.982 433.78 188.153 438.118 180.912L441.503 175.066L449.015 177.79C484.67 190.479 520.113 196.458 559.682 196.524C612.899 196.524 657.864 185.164 695.952 162.112C744.832 132.549 769.801 88.0396 760.596 46.6521L759.644 42.1347L771.176 35.1593C787.258 25.5265 803.551 12.9708 813.496 2.8066L815.93 0.348616H792.759H769.589L765.886 3.47094Z" fill="#444444"/>
<path d="M1165.49 1.80966C1168.24 7.65573 1179.78 22.4038 1186.76 29.2463C1203.69 45.5887 1227.07 60.0046 1253.73 70.3016C1312.77 93.1544 1390.53 97.0739 1447.87 80.1336C1470.3 73.4904 1487.02 65.8506 1507.86 52.7634L1522.36 43.6622L1526.91 48.0467C1532.51 53.4942 1552.51 66.2492 1561.08 69.903C1569.54 73.4904 1582.77 77.5428 1591.23 79.27C1605.2 82.0602 1609.43 82.3923 1627.2 82.3259C1645.4 82.3259 1653.34 81.5287 1670.58 77.9414C1678.2 76.4134 1694.7 71.431 1702.74 68.2422L1708.03 66.2492L1712.37 72.6268C1724.22 89.8992 1741.36 104.714 1762.52 116.007C1786.01 128.629 1809.18 136.07 1838.27 140.388C1848.96 141.982 1851.82 142.115 1873.72 142.182C1900.27 142.182 1909.8 141.318 1931.17 136.933C1973.8 128.164 2012 109.165 2033.9 85.8468L2038.45 81.0637L2043.63 80.8644C2100.24 79.0707 2165.51 60.071 2212.17 31.9036C2224.76 24.3303 2236.19 15.6941 2244.76 7.58929C2248.46 4.06837 2251.42 1.01247 2251.42 0.746741C2251.42 0.547443 2242.75 0.348145 2232.17 0.348145H2212.81L2205.93 5.72918C2197.15 12.7046 2180.54 22.603 2167.42 28.8477C2136.84 43.33 2100.13 54.0256 2066.27 58.2109C2056.43 59.4731 2050.51 59.7388 2035.38 59.8053H2016.65L2016.02 61.3997C2014.64 64.7213 2005.44 75.6827 1999.94 80.5987C1990.84 88.5706 1984.07 93.1544 1973.28 98.8012C1929.69 121.455 1873.61 127.965 1824.41 116.007C1793.2 108.434 1762.84 90.2978 1746.76 69.7702C1734.91 54.5571 1730.46 42.0678 1731.1 26.0575L1731.42 16.4248L1728.14 20.9422C1714.91 38.8126 1683.81 54.4907 1650.8 59.8717C1637.57 62.064 1617.89 62.3297 1607.1 60.536C1598.74 59.141 1586.79 55.6865 1580.33 52.8963C1556.74 42.7321 1538.75 23.2009 1536.53 5.46345L1535.9 0.348145H1531.88C1528.07 0.348145 1527.86 0.48101 1523.63 5.39702C1503.84 28.3827 1469.24 50.239 1435.92 60.7353C1426.29 63.7912 1409.36 67.1793 1397.09 68.5079C1381.85 70.1688 1353.6 70.0359 1337.1 68.1758C1291.92 63.1269 1248.97 47.0502 1222.94 25.3932C1215.43 19.0821 1206.23 9.38297 1202.73 4.20123L1200.3 0.348145H1182.53H1164.75L1165.49 1.80966Z" fill="#444444"/>
<path d="M2559.83 4.40185C2569.03 10.3144 2595.06 24.2652 2607.97 30.1777C2620.98 36.1566 2641.51 43.9292 2656.21 48.4466L2666.69 51.6354V68.7086C2666.69 82.1944 2667.11 87.1104 2668.59 92.3586C2676.32 118.932 2690.39 139.791 2714.19 159.788C2724.45 168.424 2746.67 182.242 2761.38 189.151C2800.1 207.22 2837.45 216.455 2888.87 220.706L2895.22 221.238L2895.53 224.559C2897.23 244.821 2908.23 269.335 2923.99 288.002C2961.45 332.512 3026.2 361.41 3105.97 369.183C3118.67 370.445 3125.86 370.711 3143.85 370.711C3156.12 370.711 3167.86 370.445 3170.08 370.179L3174 369.648V357.69V345.732L3166.38 346.264C3162.15 346.529 3150.83 346.729 3141.2 346.729C3100.26 346.529 3061.32 339.288 3027.57 325.603C2978.59 305.74 2943.88 270.664 2935.42 232.664C2933.73 225.024 2933.2 207.287 2934.47 200.378L2935.21 196.126L2928.65 196.591C2918.81 197.322 2895.85 197.123 2886.01 196.325C2840.83 192.472 2798.62 179.784 2765.51 159.92C2732.5 140.256 2711.97 114.016 2705.41 83.3902C2702.98 72.1631 2704.67 52.499 2708.9 41.2055C2709.75 39.0132 2710.17 37.0202 2709.75 36.8209C2709.33 36.6216 2705.94 35.758 2702.13 34.8944C2676.21 29.1812 2644.47 17.8212 2619.4 5.39834L2609.24 0.349468H2581.41H2553.59L2559.83 4.40185Z" fill="#444444"/>
<path d="M2670.29 862.645C2596.44 866.831 2522.38 894.599 2486.3 931.802C2472.76 945.753 2462.18 963.689 2457.42 980.895C2454.98 989.664 2454.45 992.056 2453.61 999.297C2453.19 1003.08 2452.55 1006.27 2452.34 1006.41C2452.13 1006.6 2448.11 1005.87 2443.45 1004.88C2413.4 998.168 2371.61 998.832 2343.68 1006.41C2307.29 1016.24 2277.56 1036.5 2261.79 1062.08L2257.46 1069.18L2253.12 1067.52C2250.68 1066.59 2242.64 1063.94 2235.03 1061.54C2177.15 1043.61 2109.34 1042.88 2054.11 1059.55C1988.51 1079.28 1942.7 1123.19 1937.2 1171.36C1936.25 1180.13 1936.99 1193.28 1938.89 1199.99C1939.53 1202.05 1939 1202.45 1928.42 1208.83C1883.03 1235.8 1851.08 1274.53 1838.28 1318.11C1836.79 1323.02 1835.63 1327.54 1835.63 1328.07C1835.63 1328.87 1838.59 1329 1854.89 1328.87L1874.14 1328.67L1875.41 1323.62C1876.05 1320.83 1878.16 1314.72 1880.07 1310C1896.68 1268.35 1933.92 1232.54 1980.47 1213.41L1982.9 1212.41L1979.41 1203.78C1975.82 1195.21 1975.82 1195.01 1975.82 1180.19C1975.92 1167.24 1976.24 1164.38 1978.25 1158.6C1992.43 1118.74 2033.79 1088.12 2089.02 1076.62C2122.98 1069.58 2160.12 1069.85 2196.41 1077.29C2232.8 1084.86 2266.55 1100.54 2286.34 1119.21C2290.04 1122.6 2292.69 1124.79 2292.26 1124.06C2287.61 1115.82 2286.44 1097.82 2289.83 1087.05C2295.23 1070.05 2307.39 1054.9 2324.96 1043.41C2343.68 1031.18 2363.47 1025.27 2389.49 1024.28C2430.23 1022.75 2473.08 1036.57 2496.03 1058.56C2499 1061.35 2501.01 1062.87 2500.69 1061.94C2493.81 1044.8 2491.59 1033.38 2491.59 1015.77C2491.59 1000.09 2493.18 990.329 2497.62 978.57C2509.26 947.679 2532.85 926.62 2576.23 908.351C2609.13 894.533 2653.99 885.897 2693.77 885.897C2763.81 885.897 2827.61 908.152 2869.72 947.347C2875.64 952.861 2886.01 965.882 2890.14 973.056L2893.1 978.172L2901.04 975.116C2954.68 954.455 3030.11 952.13 3091.48 969.27C3118.77 976.843 3146.07 990.262 3165.22 1005.54L3173.47 1012.12L3173.79 993.983L3174.11 975.913L3167.97 972.326C3146.18 959.703 3114.01 947.878 3085.66 942.099C3032.12 931.137 2979.22 930.938 2927.17 941.501C2919.02 943.095 2912.36 944.357 2912.15 944.225C2911.93 944.092 2908.23 940.504 2903.89 936.319C2892.78 925.291 2884.21 918.515 2870.78 909.812C2849.19 895.862 2828.78 886.495 2801.48 877.925C2760.43 865.17 2716.73 860.055 2670.29 862.645Z" fill="#444444"/>
<path d="M741.129 952.327C715.525 954.055 683.468 959.901 660.827 967.075C637.022 974.582 608.667 989.729 590.152 1004.81C582.429 1011.12 570.05 1022.81 566.136 1027.46L563.597 1030.52L556.614 1026.2C523.71 1006.07 480.226 996.571 439.07 1000.49C407.33 1003.48 377.389 1012.91 350.939 1028.06C344.062 1032.05 343.956 1032.11 342.686 1030.58C341.946 1029.72 338.243 1026.2 334.328 1022.75C313.909 1004.68 286.083 989.928 253.391 979.83C184.938 958.771 107.493 963.953 43.2722 993.914C31.4226 999.495 14.283 1009.59 5.9248 1016.04L0 1020.55L0.1058 1047.39L0.2116 1074.23L2.116 1070.25C17.7744 1037.43 58.4016 1010.19 110.032 997.834C122.305 994.911 138.81 992.386 152.352 991.456C233.077 985.809 316.977 1026.47 333.27 1079.08C334.434 1082.87 335.386 1086.92 335.386 1088.18C335.386 1089.38 335.915 1090.64 336.444 1090.84C337.079 1091.04 337.502 1090.57 337.502 1089.71C337.502 1086.92 341.734 1078.35 345.966 1072.77C361.307 1052.18 389.767 1035.5 423.094 1027.6C441.292 1023.28 462.663 1022.55 480.649 1025.6C525.826 1033.31 561.798 1060.55 565.924 1090.17L566.665 1095.49L568.569 1090.17C583.17 1049.19 619.036 1013.18 664.636 993.648C672.042 990.46 688.97 985.278 699.761 982.953C725.259 977.306 746.948 975.247 775.514 975.778C796.886 976.177 808.841 977.24 827.039 980.229C910.832 994.18 970.398 1039.49 979.814 1096.29C980.978 1103.73 980.66 1116.68 979.073 1123.79L978.438 1126.85L996.742 1126.51C1024.57 1126.11 1046.89 1128.31 1071.54 1134.09C1094.08 1139.34 1120.1 1148.9 1136.82 1157.94C1140.95 1160.19 1145.6 1162.72 1147.3 1163.65C1148.88 1164.51 1153.96 1167.97 1158.51 1171.22C1186.86 1191.88 1203.26 1216.53 1207.28 1244.63C1209.08 1257.19 1208.02 1265.69 1202.21 1285.82C1201.78 1287.41 1202.31 1287.68 1211.09 1289.74C1231.51 1294.65 1257.01 1303.22 1275.95 1311.73C1283.04 1314.92 1296.16 1321.36 1306.84 1327.01L1310.65 1329L1337.31 1328.87L1363.97 1328.67L1352.44 1321.36C1321.55 1301.56 1285.26 1284.76 1252.46 1274.99L1245.37 1272.86L1246.01 1260.91C1247.7 1228.09 1234.37 1197.66 1206.44 1171.02C1188.77 1154.22 1162.32 1138.07 1133.54 1126.65C1121.48 1121.86 1095.14 1113.82 1082.86 1111.1C1065.3 1107.25 1043.4 1104.13 1024.99 1102.8L1019.07 1102.4L1018.32 1097.28C1013.99 1064.47 997.271 1036.76 966.483 1011.12C958.336 1004.34 940.456 992.652 929.03 986.673C894.01 968.271 844.707 955.383 797.838 952.394C785.777 951.597 752.661 951.597 741.129 952.327Z" fill="#444444"/>
<path d="M381.783 2.00994C376.609 6.39151 366.709 12.2218 358.891 15.508C355.91 16.7801 355.347 17.1688 355.628 17.7695C358.834 24.8365 359.059 25.6845 359.059 34.0943C359.059 41.1967 358.891 42.6808 357.766 45.7903C350.566 66.4967 328.123 83.2457 299.718 89.182C289.088 91.4081 285.713 91.6908 271.595 91.6908C260.683 91.6554 258.152 91.5494 253.314 90.8781C238.577 88.8286 225.922 85.2951 214.222 79.9241C207.979 77.062 198.698 71.0197 194.592 67.1328C190.373 63.1399 190.43 63.2106 191.161 64.518C192.286 66.6734 193.411 71.9737 193.411 75.4012C193.411 84.235 188.686 93.9169 180.643 101.514C177.043 104.906 169.506 109.782 164.725 111.832C155.669 115.613 147.513 117.132 136.038 117.097C131.876 117.061 126.926 116.885 125.014 116.637C108.196 114.623 91.9967 107.91 83.0534 99.3232C80.0723 96.461 79.3973 95.931 79.9598 96.8497C80.1285 97.1677 80.916 99.2525 81.7035 101.443C85.922 113.351 86.2595 127.167 82.6597 138.899C78.2161 153.139 68.0916 164.481 52.2298 172.962C31.9245 183.845 8.58183 189.675 -18.1919 190.629L-25.3916 190.912V197.272V203.633L-17.8544 203.421C0.36971 202.855 16.5127 200.417 33.1057 195.753C40.3054 193.704 43.399 192.608 51.6673 189.181C63.648 184.198 73.4913 178.509 81.8722 171.725C93.9091 161.973 102.234 147.838 104.54 133.386C105.271 128.687 105.721 126.496 105.834 126.496C105.89 126.496 108.365 126.991 111.29 127.556C119.952 129.287 125.745 129.817 135.757 129.817C156.962 129.782 171.981 125.86 186.942 116.425C190.655 114.093 194.986 110.984 196.617 109.5C200.442 106.002 205.223 100.242 207.529 96.3904L209.329 93.2809L213.322 94.7296C232.278 101.479 251.121 104.659 272.157 104.694C300.45 104.694 324.355 98.6518 344.604 86.3905C370.59 70.6663 383.865 46.9917 378.971 24.9778L378.465 22.575L384.596 18.8648C393.145 13.7412 401.807 7.06288 407.095 1.65659L408.388 0.349182H396.07H383.752L381.783 2.00994Z" fill="#444444"/>
<path d="M2756.11 3.04442C2762.37 6.97902 2780.08 16.2629 2788.86 20.1975C2797.72 24.1763 2811.68 29.3487 2821.69 32.3549L2828.82 34.477V45.8387C2828.82 54.8131 2829.1 58.0846 2830.11 61.5771C2835.37 79.2606 2844.94 93.1422 2861.14 106.449C2868.12 112.196 2883.24 121.392 2893.25 125.989C2919.59 138.014 2945.01 144.159 2979.99 146.989L2984.31 147.342L2984.53 149.553C2985.68 163.037 2993.17 179.35 3003.89 191.772C3029.38 221.392 3073.43 240.623 3127.71 245.796C3136.35 246.636 3141.25 246.812 3153.48 246.812C3161.84 246.812 3169.83 246.636 3171.34 246.459L3174 246.105V238.148V230.19L3168.82 230.544C3165.94 230.72 3158.24 230.853 3151.68 230.853C3123.83 230.72 3097.33 225.902 3074.37 216.795C3041.04 203.576 3017.43 180.234 3011.67 154.946C3010.51 149.862 3010.16 138.059 3011.02 133.461L3011.52 130.631L3007.06 130.941C3000.36 131.427 2984.74 131.295 2978.05 130.764C2947.31 128.2 2918.59 119.756 2896.05 106.538C2873.59 93.4517 2859.63 75.9892 2855.16 55.6089C2853.51 48.1375 2854.66 35.0517 2857.54 27.5362C2858.11 26.0773 2858.4 24.751 2858.11 24.6184C2857.83 24.4858 2855.52 23.911 2852.93 23.3363C2835.29 19.5344 2813.7 11.9746 2796.64 3.70756L2789.73 0.34768H2770.79H2751.86L2756.11 3.04442Z" fill="#444444"/>
<path d="M316.756 1168.46C305.813 1169.2 292.112 1171.69 282.435 1174.75C272.261 1177.95 260.143 1184.4 252.229 1190.83C248.928 1193.52 243.638 1198.5 241.965 1200.49L240.879 1201.79L237.895 1199.95C223.832 1191.37 205.247 1187.32 187.657 1188.99C174.092 1190.26 161.295 1194.29 149.99 1200.74C147.051 1202.44 147.006 1202.47 146.463 1201.82C146.146 1201.45 144.564 1199.95 142.891 1198.48C134.164 1190.77 122.271 1184.49 108.299 1180.19C79.0421 1171.21 45.9421 1173.42 18.4944 1186.19C13.4299 1188.57 6.10451 1192.87 2.53224 1195.62L0 1197.54L0.0452186 1208.98L0.0904372 1220.42L0.904372 1218.72C7.59672 1204.73 24.9607 1193.12 47.0273 1187.86C52.2727 1186.61 59.3268 1185.54 65.1148 1185.14C99.6165 1182.73 135.475 1200.06 142.439 1222.49C142.936 1224.1 143.343 1225.83 143.343 1226.36C143.343 1226.87 143.569 1227.41 143.795 1227.5C144.066 1227.58 144.247 1227.38 144.247 1227.02C144.247 1225.83 146.056 1222.17 147.865 1219.8C154.421 1211.02 166.585 1203.91 180.829 1200.54C188.607 1198.7 197.741 1198.39 205.428 1199.69C224.736 1202.98 240.111 1214.59 241.874 1227.21L242.191 1229.48L243.005 1227.21C249.245 1209.74 264.574 1194.4 284.063 1186.07C287.228 1184.72 294.463 1182.51 299.076 1181.52C309.973 1179.11 319.243 1178.23 331.452 1178.46C340.586 1178.63 345.696 1179.08 353.474 1180.36C389.287 1186.3 414.745 1205.61 418.769 1229.82C419.267 1232.99 419.131 1238.51 418.453 1241.54L418.181 1242.84L426.004 1242.7C437.897 1242.53 447.438 1243.47 457.974 1245.93C467.605 1248.17 478.729 1252.24 485.874 1256.09C487.637 1257.06 489.627 1258.13 490.35 1258.53C491.029 1258.9 493.199 1260.37 495.144 1261.76C507.262 1270.56 514.271 1281.07 515.989 1293.04C516.758 1298.39 516.306 1302.02 513.819 1310.6C513.638 1311.28 513.864 1311.39 517.617 1312.27C526.344 1314.36 537.242 1318.01 545.336 1321.64C548.366 1323 553.973 1325.74 558.54 1328.15L560.168 1329L571.563 1328.94L582.958 1328.86L578.029 1325.74C564.825 1317.31 549.315 1310.14 535.298 1305.98L532.268 1305.08L532.539 1299.98C533.263 1285.99 527.565 1273.02 515.628 1261.67C508.076 1254.51 496.771 1247.63 484.472 1242.76C479.317 1240.72 468.058 1237.29 462.812 1236.13C455.306 1234.49 445.946 1233.16 438.078 1232.59L435.545 1232.42L435.229 1230.24C433.375 1216.26 426.23 1204.45 413.072 1193.52C409.59 1190.63 401.948 1185.65 397.064 1183.1C382.097 1175.26 361.025 1169.77 340.993 1168.49C335.838 1168.15 321.685 1168.15 316.756 1168.46Z" fill="#444444"/>
<path d="M2837.81 1016.96C2788.43 1019.76 2738.9 1038.33 2714.78 1063.2C2705.72 1072.53 2698.65 1084.53 2695.46 1096.03C2693.84 1101.9 2693.48 1103.5 2692.92 1108.34C2692.63 1110.87 2692.21 1113 2692.07 1113.09C2691.92 1113.22 2689.24 1112.74 2686.12 1112.07C2666.03 1107.58 2638.08 1108.03 2619.41 1113.09C2595.07 1119.67 2575.19 1133.22 2564.64 1150.32L2561.74 1155.07L2558.84 1153.96C2557.22 1153.34 2551.84 1151.56 2546.74 1149.96C2508.04 1137.97 2462.69 1137.48 2425.76 1148.63C2381.9 1161.82 2351.26 1191.19 2347.58 1223.4C2346.94 1229.26 2347.44 1238.06 2348.71 1242.54C2349.14 1243.92 2348.78 1244.19 2341.71 1248.45C2311.36 1266.49 2289.99 1292.39 2281.43 1321.53C2280.44 1324.81 2279.66 1327.84 2279.66 1328.19C2279.66 1328.72 2281.64 1328.81 2292.54 1328.72L2305.41 1328.59L2306.26 1325.21C2306.69 1323.35 2308.1 1319.26 2309.38 1316.11C2320.48 1288.25 2345.39 1264.31 2376.52 1251.52L2378.15 1250.85L2375.81 1245.07C2373.4 1239.34 2373.4 1239.21 2373.4 1229.3C2373.48 1220.64 2373.69 1218.73 2375.03 1214.87C2384.51 1188.21 2412.18 1167.73 2449.11 1160.05C2471.82 1155.34 2496.65 1155.52 2520.92 1160.49C2545.26 1165.56 2567.83 1176.04 2581.06 1188.52C2583.53 1190.79 2585.3 1192.25 2585.02 1191.77C2581.91 1186.26 2581.13 1174.22 2583.39 1167.02C2587 1155.65 2595.14 1145.52 2606.88 1137.84C2619.41 1129.66 2632.64 1125.71 2650.04 1125.04C2677.28 1124.02 2705.93 1133.26 2721.29 1147.96C2723.27 1149.83 2724.61 1150.85 2724.4 1150.23C2719.8 1138.77 2718.31 1131.13 2718.31 1119.35C2718.31 1108.87 2719.38 1102.34 2722.35 1094.48C2730.13 1073.82 2745.91 1059.74 2774.92 1047.52C2796.92 1038.28 2826.92 1032.51 2853.52 1032.51C2900.36 1032.51 2943.02 1047.39 2971.18 1073.6C2975.14 1077.29 2982.07 1085.99 2984.83 1090.79L2986.81 1094.21L2992.12 1092.17C3027.99 1078.35 3078.44 1076.8 3119.47 1088.26C3137.73 1093.32 3155.98 1102.3 3168.78 1112.51L3174.3 1116.91L3174.52 1104.78L3174.73 1092.7L3170.62 1090.3C3156.05 1081.86 3134.54 1073.95 3115.58 1070.09C3079.78 1062.76 3044.41 1062.63 3009.6 1069.69C3004.15 1070.76 2999.69 1071.6 2999.55 1071.51C2999.41 1071.42 2996.93 1069.02 2994.03 1066.22C2986.6 1058.85 2980.87 1054.32 2971.89 1048.5C2957.45 1039.17 2943.8 1032.91 2925.54 1027.18C2898.09 1018.65 2868.87 1015.23 2837.81 1016.96Z" fill="#444444"/>
</g>
<defs>
<clipPath id="clip0">
<rect width="3174" height="1328.65" fill="white" transform="translate(0 0.349609)"/>
</clipPath>
</defs>
</svg>
