<svg width="1920" height="1080" viewBox="0 0 1920 1080" fill="none" xmlns="http://www.w3.org/2000/svg">
<g clip-path="url(#clip0)">
<path d="M748.985 11.4831C733.956 29.5378 729.969 50.8751 737.33 72.8691C741.317 84.3584 741.011 85.015 732.423 91.9086C727.822 95.5195 720.461 104.711 716.167 111.605C711.873 118.827 706.659 124.735 704.512 124.735C702.365 124.735 695.004 119.155 688.257 112.589C668.627 92.5651 662.186 88.6259 646.544 88.6259C634.582 88.6259 629.982 90.5955 621.087 98.8022C614.646 105.039 609.126 113.902 607.285 121.781C605.445 129.003 600.538 140.164 596.551 146.729C592.257 153.295 588.883 162.814 588.883 168.067C588.883 189.404 605.445 206.802 625.074 206.802C630.595 206.802 634.889 208.772 636.116 211.726C637.036 214.681 642.864 219.276 648.998 221.902C658.199 226.17 662.8 226.17 675.988 222.887C684.576 220.918 694.697 217.963 698.378 216.322C702.672 214.681 708.499 214.681 713.1 216.65C725.062 221.574 741.931 213.039 744.078 201.222C745.611 192.687 746.838 192.03 757.88 193.015C764.32 193.671 774.135 192.687 779.042 190.717C787.937 187.434 789.471 188.091 799.592 198.924C805.726 205.489 815.234 212.711 820.755 215.337C843.145 225.185 879.336 217.963 893.752 200.565C897.126 196.954 902.953 193.671 906.94 193.671C910.927 193.671 919.209 191.374 925.343 188.747C931.17 186.121 942.212 183.823 949.573 183.823C966.749 183.823 975.336 180.213 986.991 167.41C1011.83 141.149 1004.47 96.8326 972.883 79.7627L959.387 72.5408L959.081 49.8903C958.467 31.5074 956.934 24.942 949.88 13.7809C942.518 1.63503 940.065 -0.006308 929.943 -0.006308H918.595L928.717 8.52865C951.413 27.8964 957.547 63.6776 942.825 91.5803L935.157 106.681L944.359 95.1913C949.573 88.9542 953.867 82.7171 953.867 81.404C953.867 75.8235 966.135 79.1061 975.03 86.9846C988.218 99.1305 994.966 120.14 990.979 136.881C985.151 160.516 966.749 177.258 947.426 177.258C941.905 177.258 941.598 176.273 944.665 172.334C949.88 165.44 953.56 145.744 950.493 140.82C948.653 137.538 947.733 139.507 947.733 146.729C947.733 169.708 913.995 192.358 890.685 184.48C882.097 181.854 880.563 181.854 883.017 185.137C885.471 188.091 884.55 191.045 879.336 196.298C853.88 221.902 807.26 211.07 788.857 175.617C785.483 169.051 785.483 169.051 785.177 176.273C785.177 184.48 777.509 186.778 759.413 183.495C720.461 176.273 706.046 122.437 735.797 93.8782C741.931 87.9694 742.237 87.9694 752.972 96.5043C765.241 106.681 767.388 103.398 756.039 91.9086C746.225 82.0606 741.317 62.3645 743.771 45.2946C746.225 30.1943 760.64 10.8265 774.442 4.58944L783.643 0.321959L771.068 -0.006308C760.027 -0.006308 756.653 1.63503 748.985 11.4831ZM670.774 101.428C675.988 105.039 681.202 110.62 682.122 114.231C683.349 117.842 686.723 121.453 690.097 122.437C693.164 123.422 698.685 129.003 702.365 134.912C708.499 145.416 708.806 145.744 706.659 136.881C705.739 131.957 706.046 128.018 707.886 128.018C709.42 128.018 711.566 135.24 712.18 144.431C713.713 161.83 725.368 181.854 736.103 185.465C744.691 188.419 743.771 198.596 734.263 206.474C725.062 214.024 714.327 215.337 704.819 209.757C700.218 207.13 698.991 207.13 700.525 209.757C701.752 211.726 700.832 213.696 698.685 213.696C696.538 214.024 691.324 214.681 687.03 215.337C653.292 220.589 654.825 220.918 645.011 212.054C639.797 207.459 633.356 203.52 630.595 203.52C613.113 203.52 595.017 185.137 595.017 167.41C595.017 156.577 603.605 141.805 612.806 136.553C618.634 132.942 619.554 131.629 615.873 131.301C605.445 131.301 619.86 104.383 633.356 98.1457C644.09 93.5499 660.653 94.863 670.774 101.428Z" fill="#444444"/>
<path d="M631.82 181.205C631.513 193.023 638.568 203.527 646.849 203.527L654.824 203.199L647.156 198.603C642.862 196.305 637.954 190.068 635.807 184.816C633.66 179.236 632.127 177.922 631.82 181.205Z" fill="#444444"/>
<path d="M818.913 6.89501C824.741 10.506 833.022 17.3996 837.009 22.3236C840.996 27.2476 843.143 29.5455 842.223 27.5759C841.303 25.278 845.903 18.3844 852.651 11.819C862.466 2.62753 863.693 0.00139167 859.092 0.00139167C855.718 0.00139167 850.197 4.59714 846.21 10.1777L839.769 20.354L829.955 10.1777C824.434 4.59714 817.38 0.00139167 814.313 0.00139167C809.712 0.00139167 810.939 1.971 818.913 6.89501Z" fill="#444444"/>
<path d="M1836.27 9.19021C1825.23 21.3361 1824.92 39.7191 1835.35 50.8802C1841.48 57.1173 1842.4 61.0565 1841.18 72.8741C1838.41 102.746 1863.57 122.442 1888.41 109.64C1894.85 106.029 1902.21 99.1355 1904.66 93.555C1907.73 86.9896 1911.11 84.0352 1914.79 84.6917C1923.07 86.3331 1920.92 79.7677 1912.33 77.4698C1908.04 76.1568 1901.9 70.5762 1898.53 64.6674C1895.16 59.0869 1892.4 55.4759 1892.4 57.1173C1892.4 58.7586 1895.16 64.9957 1898.84 70.9045C1903.74 79.4395 1904.36 83.3787 1901.6 88.3027C1892.4 107.014 1869.7 110.625 1855.28 95.5246C1843.32 82.7221 1843.32 66.9653 1854.98 51.865L1863.26 41.0322L1854.67 46.941C1846.39 52.8498 1845.47 52.8498 1839.95 47.2692C1828.29 35.7799 1833.2 16.4121 1851.3 4.2662C1856.82 0.655256 1856.82 0.326988 1850.68 0.326988C1847.31 -0.00127939 1840.87 4.2662 1836.27 9.19021Z" fill="#444444"/>
<path d="M1282.35 8.53439C1276.52 11.1605 1269.78 15.0997 1267.32 17.3976C1264.56 19.6955 1255.97 21.0086 1244.93 20.352C1225.3 19.039 1214.26 23.963 1204.14 38.4067C1190.34 58.4311 1196.47 93.2274 1216.71 105.702C1222.85 109.641 1226.84 114.893 1226.84 118.832C1226.84 135.902 1246.47 154.285 1265.17 154.285C1274.07 154.285 1288.18 147.392 1293.7 140.17C1297.07 135.902 1298.91 136.23 1309.03 141.811C1332.96 155.27 1361.17 142.139 1368.23 114.237C1369.76 107.343 1374.36 98.1514 1378.66 93.8839C1405.65 64.6681 1382.95 15.0997 1344.92 21.0086C1334.49 22.3216 1330.81 21.3368 1326.52 16.4128C1321.61 10.504 1303.82 3.28211 1295.85 3.28211C1294.31 3.61038 1288.18 5.57999 1282.35 8.53439ZM1319.16 18.0542C1324.06 21.0086 1331.12 27.9022 1334.49 33.811C1340.32 43.9873 1340.63 43.9873 1338.48 35.1241C1336.64 26.5891 1336.94 26.2608 1350.44 26.2608C1381.11 26.2608 1396.75 62.042 1377.12 88.6317C1371.91 95.5253 1370.68 96.1818 1367.92 91.9143C1365.78 88.3034 1364.86 90.6013 1364.86 101.106C1364.86 113.252 1363.01 117.519 1354.43 126.711C1346.15 135.574 1341.55 137.872 1331.42 137.872C1317.93 137.872 1303.51 132.291 1303.51 127.039C1303.51 125.069 1299.53 127.367 1294.93 132.291C1277.75 150.018 1255.36 149.361 1240.94 130.978C1231.44 119.161 1230.21 99.7928 1237.88 86.0055L1242.78 77.1423L1234.81 86.3338C1230.52 91.2578 1226.84 97.8231 1226.84 100.449C1226.84 107.671 1221.93 106.03 1213.65 95.197C1198.93 76.4858 1199.23 52.8505 1214.87 36.1089C1225.61 24.9478 1242.48 20.352 1255.36 25.6043C1263.03 28.887 1265.79 28.2304 1275.3 21.3368C1288.48 11.8171 1305.35 10.504 1319.16 18.0542Z" fill="#444444"/>
<path d="M59.1958 15.4256C49.6878 17.3952 33.7389 34.1368 33.4322 42.3435C32.2054 64.3375 33.1255 70.2463 39.8731 78.1247C44.7805 83.7052 45.3939 86.6596 42.9402 91.5837C41.4067 95.1946 39.8731 104.714 39.8731 112.593C39.8731 143.778 66.2501 165.116 95.0808 156.909C102.442 154.611 102.749 155.268 103.362 172.009C103.362 181.529 105.816 194.003 108.576 199.912C113.79 210.088 133.419 227.815 144.461 231.426C147.835 232.739 150.288 236.678 150.288 240.617C150.288 250.137 160.717 267.863 168.998 272.787C177.586 277.711 198.749 277.711 203.042 273.116C205.189 270.818 209.483 271.803 217.458 277.383C249.662 300.362 292.908 290.842 312.844 256.702C319.592 245.213 321.739 243.9 329.713 245.213C353.943 249.48 382.161 230.769 391.362 205.164C404.55 167.742 380.934 124.41 344.435 119.486L332.78 117.845L344.129 122.441C362.838 129.991 369.892 136.556 376.947 151.985C389.215 178.903 383.388 205.492 361.304 224.204C345.662 237.663 325.113 239.632 307.324 230.113C294.442 223.219 288.921 226.173 300.576 233.723C308.244 238.976 308.244 243.243 300.269 254.076C284.934 274.757 251.196 282.635 226.966 270.818C217.764 266.222 215.004 263.268 216.538 259.657C222.672 243.9 221.445 241.93 212.55 252.763C204.269 262.939 201.202 264.252 188.627 264.252C176.359 264.252 172.985 262.611 165.317 253.42C159.183 245.869 156.423 239.304 156.423 231.097C156.423 224.204 155.196 220.265 153.356 221.578C151.515 222.891 145.074 220.265 139.247 216.325C123.911 206.477 111.95 178.575 114.71 160.192C118.084 137.541 120.538 134.587 134.646 138.526C145.074 141.48 148.755 140.824 157.036 135.571C162.557 132.289 169.304 124.739 171.758 118.83C174.212 113.249 177.892 108.325 180.039 108.325C187.4 108.325 199.362 116.204 199.669 121.128C199.669 124.082 201.509 118.83 203.656 109.638C208.563 88.301 218.378 73.8572 232.793 65.9788C258.864 51.535 283.4 54.4894 303.95 74.5137C322.659 92.5685 329.407 126.052 318.365 148.374C316.832 151.985 316.832 154.283 318.365 154.283C323.272 154.283 329.1 134.915 329.407 117.189C329.713 73.2007 291.068 41.687 247.515 50.5502C231.873 53.8329 209.79 76.1551 203.349 94.8663C198.135 110.623 198.135 110.623 188.32 107.341C181.266 105.043 177.279 101.103 174.825 94.2098C173.292 88.6293 169.304 81.4074 166.544 78.1247C163.477 74.1855 161.33 65.9788 161.33 55.8025C160.717 25.9301 135.566 8.86024 111.03 21.9909C99.6814 27.8998 98.7613 27.8998 91.707 22.3192C83.7325 16.0821 69.6239 12.7994 59.1958 15.4256ZM87.7198 24.9453C93.5472 27.8998 98.1479 31.5107 98.1479 33.152C98.1479 34.4651 103.055 32.8238 109.189 28.8846C118.697 22.9757 121.458 22.6475 132.193 25.9301C147.528 30.8542 157.343 45.9545 155.196 61.0548C154.276 69.2615 155.503 73.2007 161.33 79.1095C166.851 84.69 168.691 89.9423 168.691 100.119C168.691 116.86 162.25 127.037 148.755 130.976C134.646 134.915 125.752 132.289 125.752 123.426C125.752 118.173 124.525 118.83 120.231 127.693C114.097 139.839 97.8412 151 86.4929 151C53.675 151 33.7389 108.325 54.5952 81.4074L62.8763 70.5745L54.5952 76.4834C46.6207 81.7356 46.0073 81.7356 42.6335 75.1703C34.0456 57.4438 41.4067 33.4803 58.5824 23.9605C68.3971 18.38 75.1447 18.7083 87.7198 24.9453Z" fill="#444444"/>
<path d="M1662.36 20.684C1620.34 33.1582 1595.81 75.833 1608.08 113.255C1612.37 125.73 1612.06 126.714 1605.62 131.967C1598.87 137.219 1597.65 137.547 1586.91 132.623C1571.27 125.73 1544.89 125.73 1525.26 132.623C1505.63 139.517 1483.86 162.167 1476.5 182.52C1465.15 214.362 1478.34 254.082 1506.55 273.778C1514.53 279.359 1520.97 284.611 1520.97 285.596C1521.28 286.581 1517.29 289.863 1512.08 292.818C1507.17 295.772 1499.19 303.979 1494.59 311.201C1486.62 323.018 1484.47 324.331 1468.52 326.301C1444.6 328.927 1425.58 339.103 1409.63 357.815C1355.65 422.483 1404.11 529.827 1483.25 520.964C1491.83 519.979 1503.49 516.696 1509.01 513.742L1518.52 508.49L1532.32 521.948C1582.31 571.189 1673.1 568.234 1717.57 516.368C1726.16 506.52 1732.91 497 1732.91 495.359C1732.91 493.389 1735.67 493.717 1739.35 496.015C1743.33 497.985 1754.38 498.97 1765.42 498.313C1781.06 497.328 1787.5 495.031 1797.93 486.824C1821.85 468.441 1833.81 428.064 1824.92 398.52C1819.09 379.809 1807.44 361.426 1797.32 355.189C1792.41 352.234 1785.97 343.699 1783.21 336.477C1780.14 329.255 1777.38 322.362 1776.77 321.377C1776.15 320.392 1779.53 317.766 1784.13 315.468C1806.21 304.635 1834.12 270.824 1834.12 254.739C1834.12 250.471 1840.25 242.265 1849.15 234.058C1871.54 213.377 1878.9 186.459 1869.09 161.511C1860.8 139.517 1843.94 124.745 1821.85 119.821C1816.02 118.508 1805.29 111.614 1798.24 104.721C1790.87 97.4986 1781.06 91.2615 1774.62 90.2767C1766.34 88.6354 1763.58 86.3375 1763.58 81.4135C1763.58 64.0153 1740.57 33.8147 1720.02 24.9515C1704.08 17.7296 1678.31 15.76 1662.36 20.684ZM1710.21 34.4713C1738.43 43.3345 1759.59 70.2524 1760.82 98.4834C1761.12 106.362 1761.74 107.675 1762.66 102.423C1763.27 98.4834 1764.5 95.2008 1765.42 95.2008C1771.25 95.2008 1788.11 105.705 1793.02 112.271C1796.7 117.195 1803.45 121.134 1810.81 122.447C1827.68 125.401 1845.16 138.86 1852.83 154.945C1862.03 173.985 1860.19 201.559 1848.23 217.973C1843.63 224.538 1838.72 229.79 1837.49 229.79C1835.96 229.79 1833.81 224.866 1832.89 218.958C1831.67 213.377 1828.6 205.499 1825.84 201.888L1820.93 195.322L1823.39 201.888C1827.68 214.69 1828.6 235.699 1825.23 247.189C1819.71 264.259 1796.4 290.52 1777.99 300.04C1763.58 307.59 1760.82 307.918 1747.32 304.635C1735.05 301.353 1731.68 298.727 1725.24 287.237C1698.55 237.997 1639.05 221.912 1593.66 251.128L1576.48 262.289L1572.19 255.067C1570.04 251.128 1566.98 243.249 1565.44 237.997L1562.99 228.149L1561.76 236.684C1561.46 241.608 1562.99 251.128 1565.44 257.693C1568.2 264.259 1569.43 271.152 1568.51 272.793C1565.75 278.046 1538.76 275.748 1525.88 269.511C1479.56 246.532 1470.67 185.146 1508.7 150.35C1531.09 129.997 1564.83 125.73 1590.29 139.845L1601.94 146.41L1609.92 138.532C1616.36 132.295 1620.34 130.982 1632.61 131.967C1644.88 132.623 1646.41 132.295 1641.81 128.684C1639.05 126.714 1632.31 124.745 1626.78 124.745C1615.74 124.745 1613.29 120.806 1613.29 100.781C1613.29 72.5503 1634.45 43.6628 1662.36 34.4713C1680.46 28.5625 1691.81 28.5625 1710.21 34.4713ZM1679.23 259.006C1712.97 276.076 1734.75 309.888 1739.04 352.234C1740.27 365.365 1741.8 372.259 1742.11 367.663C1743.33 356.502 1743.33 355.517 1741.19 333.851C1738.73 312.514 1740.88 311.201 1759.28 320.392C1771.25 326.301 1780.75 341.073 1784.74 359.784C1786.58 367.663 1787.5 369.632 1787.81 365.037C1788.42 352.891 1798.54 361.754 1808.36 382.435C1815.41 398.192 1816.33 403.444 1814.8 420.186C1811.73 456.952 1790.87 481.9 1760.51 485.183C1742.41 486.824 1722.17 477.961 1725.55 469.754C1726.77 466.8 1728.31 457.936 1728.61 449.73C1729.53 437.255 1729.23 436.599 1727.08 444.806C1719.41 475.991 1693.34 496.015 1665.43 491.748C1652.55 489.778 1657.15 494.702 1672.18 499.298C1682.3 502.252 1687.21 501.924 1697.94 497.328C1705 494.374 1712.66 489.778 1714.5 487.48C1720.94 478.945 1724.01 485.839 1718.49 496.344C1711.13 509.474 1694.26 523.59 1673.1 533.766C1631.08 554.447 1566.36 544.927 1535.69 513.742L1527.41 505.207L1538.15 491.091C1549.49 476.319 1559.92 453.012 1555.32 453.012C1553.79 453.012 1551.03 457.608 1548.88 462.86C1540.6 484.526 1504.1 508.818 1479.87 508.818C1465.15 508.818 1440.61 497.985 1428.65 486.496C1410.55 468.769 1401.66 446.775 1401.66 418.544C1401.97 382.435 1418.22 352.562 1445.52 338.447C1462.39 329.912 1483.25 327.942 1482.02 334.836C1478.64 350.921 1478.03 374.228 1480.79 379.48C1483.55 384.733 1484.17 382.763 1484.47 369.304C1484.78 319.736 1530.17 281.657 1574.64 293.803C1585.38 296.757 1588.45 296.757 1584.77 294.131C1568.51 283.626 1568.51 283.626 1574.64 276.076C1578.02 272.137 1588.75 264.915 1598.87 259.334C1624.64 245.547 1652.86 245.547 1679.23 259.006Z" fill="#444444"/>
<path d="M1350.13 212.062C1347.99 213.047 1343.39 219.612 1340.32 226.834C1336.95 233.728 1332.04 239.637 1329.28 239.637C1326.82 239.637 1321.3 243.248 1317.32 247.843C1299.83 266.226 1312.41 298.725 1336.33 298.725C1346.45 298.725 1348.29 299.71 1348.6 305.947C1349.52 318.421 1363.32 329.91 1377.43 329.91C1388.17 329.91 1391.54 327.941 1398.59 319.077C1402.89 313.497 1408.41 308.573 1410.56 308.573C1412.4 308.573 1417.61 304.962 1421.6 300.366C1429.88 291.503 1432.33 270.494 1425.58 263.272C1423.74 261.302 1422.21 252.767 1422.82 244.561C1423.13 232.415 1421.9 228.147 1415.46 221.582C1409.02 214.36 1405.03 213.047 1391.54 213.375C1382.95 213.703 1370.68 213.047 1364.86 212.062C1359.03 211.077 1352.28 211.077 1350.13 212.062ZM1371.6 217.971C1378.35 221.582 1382.03 221.91 1389.09 218.956C1397.06 215.673 1399.82 216.33 1406.87 222.238C1413.93 227.819 1415.46 231.43 1415.46 243.248C1415.77 251.126 1417.3 260.974 1419.45 264.913C1421.6 268.852 1423.13 274.761 1423.13 278.372C1423.13 286.251 1411.48 302.664 1407.79 300.366C1406.26 299.381 1402.89 302.664 1400.43 307.916C1395.22 319.077 1390.01 321.703 1375.59 321.703C1357.8 321.703 1347.37 300.366 1355.65 281.327C1358.41 274.761 1358.41 274.761 1355.04 280.013C1352.89 283.296 1349.52 288.548 1347.68 291.175C1345.23 294.786 1341.85 295.77 1336.02 294.129C1306.89 286.251 1310.26 242.919 1340.01 242.919C1347.37 242.919 1349.52 241.934 1347.07 239.965C1340.63 235.697 1344 222.238 1352.59 217.643C1362.1 212.39 1361.48 212.39 1371.6 217.971Z" fill="#444444"/>
<path d="M372.651 260.974C368.357 265.241 364.983 272.791 364.983 277.387C364.983 281.983 363.757 285.594 361.916 285.594C360.383 285.594 356.089 288.548 352.715 292.159C344.741 300.694 344.741 318.749 352.408 326.299C356.702 330.566 357.929 334.834 356.702 342.384C354.555 357.813 360.076 369.302 372.651 375.539C386.453 382.761 402.709 378.165 409.15 365.034C412.83 357.484 414.977 356.5 426.939 357.484C445.955 358.469 456.996 347.636 456.996 326.955C456.996 318.749 455.769 311.527 454.236 310.542C453.009 309.557 452.396 304.962 453.316 300.366C456.383 281.983 442.888 264.913 424.178 265.241C419.578 265.241 412.217 262.287 408.229 259.004C397.801 250.141 381.852 250.797 372.651 260.974ZM408.536 264.913C411.603 267.867 418.351 270.493 423.872 270.822C430.006 271.478 436.447 275.089 440.741 280.67C447.795 289.533 450.555 304.305 444.421 300.038C442.581 299.053 443.194 301.679 446.261 306.275C454.236 319.734 453.316 334.506 443.501 343.697C433.073 353.217 420.498 353.217 409.15 344.025L400.255 336.475L405.776 345.667C410.99 354.53 410.99 354.858 403.629 362.737C381.546 386.372 349.341 355.843 367.13 328.269C372.038 320.39 372.038 320.39 367.13 324.658C362.53 328.597 360.996 328.269 355.782 323.345C352.408 320.062 349.648 313.825 349.648 309.557C349.648 302.007 359.156 288.876 364.983 288.876C366.824 288.876 368.051 285.594 368.051 281.326C368.051 260.317 393.201 250.141 408.536 264.913Z" fill="#444444"/>
<path d="M0 347.634C0 349.604 3.06709 352.887 6.7476 354.856C10.4281 357.154 16.2556 361.75 19.3227 365.689C22.3898 369.628 23.9233 370.285 22.6965 367.659C17.1757 355.513 0 340.412 0 347.634Z" fill="#444444"/>
<path d="M45.6997 376.52C59.1949 383.742 67.476 398.514 67.476 416.568C67.476 428.714 65.6358 432.653 55.5144 443.486C45.6997 454.319 41.7125 456.289 30.9776 456.289C23.9233 456.289 14.1086 453.991 9.20128 451.365C0.306709 446.441 0 446.441 0 453.006C0 456.945 1.22684 459.243 2.76038 458.258C4.29393 457.274 9.50799 458.587 14.1086 461.213C31.5911 470.732 51.8339 466.137 67.1693 448.41C76.984 437.249 79.7444 409.346 72.3834 394.903C67.1693 383.742 50.3003 370.939 41.099 370.939C37.1118 370.939 38.6454 372.909 45.6997 376.52Z" fill="#444444"/>
<path d="M166.543 537.7C111.029 559.037 88.0256 610.904 111.335 661.785C119.923 681.153 115.629 686.405 99.6805 674.916C75.7572 657.518 42.6326 654.891 16.2556 668.022C3.68051 673.931 0 677.542 0 683.122C0 690.016 0.306709 690.016 5.52077 685.092C16.2556 674.588 38.0319 666.381 55.2077 666.381C75.1438 666.381 95.0799 675.244 109.802 690.344C115.936 696.581 119.31 698.551 117.776 694.94C116.856 691.986 117.47 687.062 119.617 684.107C123.297 679.84 124.524 680.168 131.578 687.062C141.7 696.91 153.968 705.773 157.649 705.773C159.182 705.773 154.888 701.505 148.447 696.253C122.99 676.229 113.482 658.174 113.482 629.615C113.789 597.445 130.965 571.183 162.556 555.098C184.946 543.937 223.898 542.952 245.674 553.457C274.811 567.901 297.508 599.743 297.508 627.317V639.463L280.026 640.776C270.211 641.761 257.329 644.715 251.502 647.998C245.674 650.952 243.527 652.265 246.901 650.952C250.275 649.967 263.77 648.326 276.958 647.341C299.042 646.028 302.415 646.685 320.511 656.205C359.463 676.885 379.706 724.484 368.051 768.144C362.53 788.168 361.304 789.153 347.195 781.603C340.447 777.992 329.406 774.053 322.658 772.739C306.096 770.113 280.026 778.648 267.45 791.122C260.089 798.016 254.262 800.97 246.594 800.97C233.099 800.97 220.831 807.864 210.709 820.338C206.722 825.591 202.428 829.201 201.508 828.217C197.827 824.277 174.211 831.499 161.942 840.363L148.754 849.882L141.7 842.66C137.712 838.721 131.885 830.186 128.511 823.949C123.911 814.101 122.99 813.445 122.684 819.682C122.684 823.949 122.377 827.232 121.764 827.232C112.256 827.232 88.3323 815.086 80.6645 806.879C62.262 786.527 57.0479 762.563 65.9425 739.256C69.9297 728.423 69.9297 727.767 65.9425 733.676C54.2875 749.432 53.0607 777.335 62.5687 797.688C65.3291 803.925 65.9425 808.192 63.7955 809.505C55.8211 814.758 13.4952 800.97 7.66773 791.122C4.29393 785.214 -0.306709 787.84 0.613419 795.062C1.22684 799.986 6.44089 805.566 15.3355 810.818C26.6837 817.712 33.4313 819.025 52.754 819.025C70.2364 819.025 77.5974 820.667 81.8914 824.606C89.8658 832.484 102.748 837.08 116.243 837.08C124.831 837.08 129.738 839.378 136.486 846.928C144.153 855.463 144.767 857.761 141.7 864.983C135.872 878.442 137.099 906.016 143.847 917.834C158.262 943.11 190.773 956.897 215.31 948.034C228.805 943.439 229.112 943.439 239.233 952.63C271.438 981.189 335.54 978.891 365.597 948.363C376.332 937.53 379.706 936.217 397.188 934.904C412.831 933.919 418.658 931.949 425.099 925.712C437.981 912.581 442.581 900.435 440.741 882.053C439.514 868.265 437.367 863.67 426.939 852.18C419.885 844.958 410.684 834.125 406.39 828.217C401.176 821.651 394.428 816.727 387.987 815.414C374.799 812.788 368.971 806.223 374.185 799.657C376.026 797.031 379.706 795.718 381.853 796.703C392.588 800.97 419.272 782.916 423.872 768.144C424.486 765.846 427.859 765.846 434.914 768.472C443.195 771.426 446.875 771.098 458.224 765.189C476.933 755.341 484.907 731.378 475.706 712.667C473.866 709.384 473.252 701.834 474.173 696.581C477.853 676.229 458.837 653.25 437.981 653.25C429.393 653.25 422.952 650.624 416.511 645.043C399.335 629.615 374.799 636.18 366.211 658.502L361.917 669.664L346.581 658.502C338.3 652.265 324.498 645.372 316.217 643.074C301.495 639.135 301.188 638.806 302.722 628.63C305.176 612.873 295.974 584.314 284.013 569.214C278.185 561.992 264.997 551.159 254.262 544.922C238.006 535.73 231.565 534.089 208.869 532.776C188.626 531.791 178.811 533.104 166.543 537.7ZM410.99 648.326C416.204 651.281 420.192 654.891 420.192 656.533C420.192 658.502 425.712 659.815 432.46 659.815C447.489 659.815 462.211 672.946 465.278 689.031C467.118 699.208 466.811 699.864 460.677 696.253C450.556 690.344 450.863 691.986 461.904 703.803C469.879 712.338 472.332 717.591 472.332 727.11C472.332 736.63 469.879 741.882 461.904 750.417C446.262 767.159 424.179 764.861 413.137 745.822C410.377 740.898 407.923 738.6 407.923 740.569C407.923 742.539 410.684 748.119 414.364 752.715C418.965 759.281 419.885 762.891 417.431 767.159C412.524 777.335 403.323 784.229 392.895 786.527L382.773 788.825L385.227 774.381C390.748 744.837 388.601 721.53 377.866 698.551C366.824 674.259 365.904 667.694 372.958 657.189C381.853 643.73 396.575 640.119 410.99 648.326ZM338.3 785.542C360.69 795.718 375.105 814.758 380.319 841.347L383.08 855.135L382.16 837.736C381.24 821.651 381.546 820.667 387.681 822.636C399.335 826.247 407.923 833.797 409.764 842.004C410.684 846.6 413.444 850.211 415.591 850.211C423.259 850.211 432.46 868.594 432.46 884.022C432.46 912.581 408.843 933.591 384 927.025C372.958 924.071 372.652 923.414 373.572 910.94L374.185 897.809L370.198 907.657C363.757 922.101 354.249 929.98 339.527 932.277C326.645 934.575 326.645 934.575 335.847 937.201C342.594 939.171 347.502 938.186 356.396 932.934C372.038 924.071 372.038 931.621 356.703 945.408C342.594 957.554 320.511 965.104 297.815 965.104C276.958 965.104 264.383 961.493 246.594 950.332L232.792 941.797L243.834 928.338C249.661 920.788 254.569 912.581 254.569 909.955C254.569 907.329 251.502 909.955 247.514 916.192C238.927 929.98 217.457 942.125 200.895 942.125C171.757 941.797 150.288 921.116 147.834 890.916C145.687 864.654 157.955 844.958 182.492 834.782C200.588 827.232 203.042 828.873 200.895 845.943C199.668 859.074 199.668 860.387 202.735 853.493C217.15 818.04 230.645 806.879 257.022 808.192C269.291 808.849 272.051 808.192 268.371 805.566C264.383 802.284 264.383 801.299 269.291 797.031C285.546 781.603 317.444 776.35 338.3 785.542Z" fill="#444444"/>
<path d="M1765.73 696.258C1759.28 699.869 1751.62 707.091 1748.86 712.343C1745.48 718.908 1739.96 722.848 1731.37 725.146C1701.32 733.352 1684.14 756.003 1681.38 789.814C1679.23 818.374 1689.66 842.665 1710.21 856.781C1718.19 862.033 1727.08 866.629 1729.84 866.629C1732.6 866.629 1739.65 872.538 1745.18 880.088C1755.91 894.532 1770.33 902.738 1784.43 902.738C1798.54 902.738 1819.4 888.951 1826.76 874.836C1832.28 864.659 1835.35 862.361 1844.86 861.377C1870.31 859.079 1889.94 833.802 1889.94 804.258C1889.64 795.395 1888.1 784.89 1885.96 780.623C1881.05 770.446 1867.55 755.018 1860.19 751.407C1855.59 748.781 1855.9 750.094 1861.73 755.674C1873.69 767.164 1877.37 773.401 1880.43 786.86C1883.81 803.93 1878.59 823.298 1866.94 836.1C1856.51 847.918 1838.11 853.826 1834.12 846.933C1832.59 844.307 1831.05 845.948 1829.83 852.513C1828.6 858.094 1823.08 867.285 1817.25 873.194C1808.66 882.057 1803.76 884.355 1790.57 885.34C1771.55 886.981 1758.06 879.76 1748.24 862.69C1741.19 850.215 1739.96 821.328 1745.79 809.839C1748.86 803.273 1748.86 802.945 1744.26 807.212C1738.43 812.136 1732.91 830.519 1732.91 844.307C1732.91 856.453 1728.92 855.796 1714.2 841.024C1690.58 817.717 1688.43 777.012 1708.98 750.094C1720.33 735.65 1733.52 728.756 1751.92 728.428C1759.28 728.1 1762.35 727.443 1758.98 726.459C1747.94 723.504 1747.94 720.55 1758.98 709.06C1767.57 700.197 1772.47 697.899 1785.97 696.586C1811.73 694.288 1831.36 709.389 1835.96 734.994C1838.11 746.483 1843.32 752.063 1843.32 742.872C1843.02 733.68 1832.59 711.358 1824.61 703.48C1808.97 688.051 1785.35 685.097 1765.73 696.258Z" fill="#444444"/>
<path d="M685.494 749.432C660.344 759.936 642.862 779.304 634.887 805.565C630.286 820.994 632.127 848.24 638.568 862.356C644.088 874.173 644.702 873.517 622.619 878.113C595.628 884.021 564.957 907.328 550.235 934.246C528.766 973.31 537.353 1025.83 570.785 1058.99C593.175 1080.98 585.814 1080 704.203 1080C806.031 1079.67 812.165 1079.34 817.072 1073.76C821.98 1067.85 823.513 1067.85 832.715 1072.12C857.251 1082.95 898.35 1071.46 910.005 1050.45C913.379 1044.22 918.593 1040.28 925.034 1038.96C946.197 1035.02 962.759 1009.75 958.772 988.739C956.932 980.532 957.545 979.876 966.133 979.876C973.494 979.876 975.641 981.517 977.175 988.739C979.322 1000.23 993.43 1011.06 1006.01 1011.06C1012.75 1011.06 1018.58 1008.11 1024.71 1001.54C1029.62 995.961 1036.37 990.708 1039.74 989.724C1048.33 986.769 1058.15 972.325 1058.15 962.149C1058.15 957.553 1056 949.675 1053.85 944.751C1051.09 939.17 1049.86 931.292 1051.09 924.398C1052.63 914.55 1051.4 911.268 1043.42 902.733C1033.92 892.556 1021.34 889.93 1012.45 895.839C1009.38 897.809 1005.7 897.48 1001.71 894.198C998.338 891.572 992.203 889.602 988.216 889.602C979.935 889.602 966.133 903.389 966.133 911.596C966.133 915.863 962.759 918.818 956.318 920.787C948.651 923.414 944.664 927.681 940.063 937.857C934.235 950.988 933.315 951.645 923.194 949.675C917.366 948.69 911.846 946.392 911.232 944.423C908.779 937.857 888.842 916.192 883.015 914.222C878.721 912.581 877.187 908.97 877.187 899.778C877.187 874.83 861.545 839.049 842.223 820.009C830.874 808.52 809.098 796.046 794.376 792.763C787.322 791.122 779.654 785.213 771.373 775.365C749.903 749.103 713.098 737.942 685.494 749.432ZM737.021 758.951C743.462 760.921 755.424 769.128 763.398 777.006L777.507 790.793L768.306 791.122C763.398 791.45 755.117 793.42 749.903 796.046L740.702 800.97L751.437 798.344C796.216 788.495 837.929 812.131 857.865 859.073C864.612 874.502 865.532 880.41 864.612 904.374C863.999 919.474 862.465 932.933 861.239 933.918C860.012 935.231 854.798 932.605 849.584 927.681C844.37 923.085 837.622 919.146 835.168 919.146C832.101 919.146 833.328 921.772 839.156 926.368C852.344 937.529 858.785 946.064 860.625 956.24C861.852 961.164 863.999 966.088 865.532 967.073C867.066 968.058 867.373 965.432 866.453 961.164C865.532 957.225 867.373 946.721 870.133 938.514C874.734 925.711 876.574 923.742 881.788 925.711C885.162 927.353 891.91 932.933 896.817 938.186L905.405 948.034L896.817 953.614C891.91 956.569 890.683 957.882 894.056 956.569C907.245 951.645 913.993 951.316 924.421 955.256C945.277 962.477 955.705 987.754 946.504 1008.43C942.21 1017.95 928.101 1030.76 921.967 1030.76C921.047 1030.76 920.127 1024.19 920.127 1015.99C920.127 1002.53 913.379 981.517 909.085 981.517C908.472 981.517 909.085 984.8 911.232 988.411C916.753 999.572 913.072 1027.8 904.791 1039.95C894.363 1054.72 873.2 1064.9 853.264 1064.57C835.475 1064.57 828.114 1059.97 833.328 1053.08C836.702 1048.48 843.756 1027.47 841.916 1027.47C841.302 1027.47 837.929 1033.05 834.248 1039.62C815.846 1073.76 774.747 1085.91 736.101 1069.16C717.392 1061.29 715.858 1056.69 729.66 1052.75C745.609 1048.48 742.542 1045.53 723.219 1046.51C699.909 1048.16 681.2 1042.57 661.877 1028.46C651.756 1020.91 647.769 1019.27 649.609 1023.21C656.05 1035.68 680.28 1053.74 691.015 1053.74C693.469 1053.74 697.762 1056.69 701.136 1060.63C708.191 1068.84 704.51 1072.12 684.574 1075.4C619.245 1085.91 560.97 1044.87 556.063 985.128C555.143 974.952 556.063 960.836 557.903 953.286C566.184 920.459 595.322 891.243 628.753 881.724C645.008 877.456 645.929 877.456 651.756 884.35C655.13 888.289 660.651 893.869 664.024 896.167C667.398 898.793 665.865 895.839 660.344 889.602C633.354 858.417 634.887 808.52 663.718 778.319C684.267 756.654 709.417 750.088 737.021 758.951ZM1001.4 899.122C1002.32 901.091 1009.69 901.42 1017.97 900.435C1030.85 898.793 1033.61 899.778 1039.44 906.344C1044.96 912.581 1046.18 916.848 1044.96 926.696C1044.04 933.918 1045.26 942.781 1047.72 948.362C1051.09 955.584 1051.4 959.851 1048.64 968.058C1044.96 978.891 1033.61 988.739 1033.61 980.86C1033.3 978.563 1031.46 981.517 1029.01 987.426C1021.65 1005.48 1001.1 1009.09 987.296 994.319C981.775 988.411 981.162 984.471 982.389 971.997C983.922 957.225 983.922 957.225 979.628 966.088C970.12 984.8 944.664 971.997 944.664 948.362C944.664 933.918 955.398 922.429 968.894 922.429C974.108 922.429 975.641 921.444 972.881 919.803C968.28 916.52 972.574 901.091 979.015 898.465C985.763 895.511 999.564 896.167 1001.4 899.122Z" fill="#444444"/>
<path d="M1306.27 838.395C1282.96 847.915 1270.08 857.106 1255.97 873.848C1241.87 890.59 1240.64 891.246 1224.69 891.574C1201.07 892.559 1185.12 897.812 1165.5 911.927C1124.09 941.799 1112.13 994.979 1136.66 1039.95C1146.17 1057.35 1143.41 1062.93 1128.38 1057.35C1108.75 1050.13 1082.68 1056.69 1069.19 1073.11C1063.36 1080 1063.36 1080 1069.5 1080C1072.87 1080 1078.08 1077.05 1081.15 1073.43C1091.58 1061.29 1120.41 1056.69 1134.52 1064.9C1141.57 1069.17 1143.11 1068.51 1153.84 1059.32C1177.46 1039.29 1217.94 1045.2 1233.28 1071.14C1238.19 1079.02 1239.41 1079.67 1238.19 1074.42C1235.42 1060.63 1262.72 1058.99 1280.2 1071.79C1294.62 1082.3 1300.45 1082.3 1291.25 1071.79C1281.43 1060.63 1265.79 1055.71 1247.08 1058.33C1232.05 1059.98 1230.82 1059.65 1218.86 1047.83C1206.59 1035.68 1205.98 1035.68 1186.66 1037.65C1175.92 1038.64 1164.88 1040.61 1162.43 1041.59C1155.99 1044.88 1142.19 1021.57 1138.2 1000.89C1132.37 972.985 1140.65 946.395 1161.51 925.386C1178.38 907.988 1197.39 898.796 1220.4 896.827C1240.03 895.185 1240.03 895.185 1237.88 903.064C1232.36 923.088 1230.21 934.578 1230.21 943.769C1230.52 950.991 1231.44 948.693 1234.5 935.562C1239.41 912.255 1241.56 907.331 1251.68 890.918C1262.72 873.52 1288.18 855.465 1311.18 848.243C1352.89 835.769 1404.11 851.854 1428.04 885.337C1435.71 895.842 1435.71 896.827 1430.49 900.766C1427.42 903.392 1419.76 904.705 1412.7 904.049L1400.13 902.736L1415.16 908.644C1433.25 915.866 1453.19 933.264 1458.71 946.723C1460.86 952.304 1462.7 954.93 1463 952.304C1463 941.799 1449.81 919.149 1439.39 912.255C1429.57 905.69 1428.96 904.705 1434.17 901.422C1437.55 899.453 1452.57 897.812 1467.6 897.812C1499.5 897.812 1508.4 901.751 1528.95 924.401C1557.78 955.915 1559.62 1007.45 1533.55 1041.26C1515.14 1064.9 1476.8 1077.37 1446.13 1069.5C1437.55 1067.2 1437.55 1067.2 1444.6 1070.48C1448.89 1072.45 1454.72 1075.4 1457.79 1077.05C1465.76 1081.64 1498.58 1077.05 1516.06 1069.17C1536 1060.3 1556.86 1035.03 1562.99 1012.71C1571.27 980.863 1566.36 951.647 1547.65 924.729C1539.07 912.255 1512.69 893.872 1499.19 891.246C1486.62 888.62 1484.17 883.368 1488.15 867.611C1493.67 845.289 1523.12 835.441 1540.91 850.541C1548.27 856.778 1549.19 856.778 1555.63 852.182C1559.31 849.228 1567.9 846.93 1574.34 846.93C1591.21 846.93 1604.7 862.359 1603.78 880.085C1603.17 889.277 1604.7 894.857 1609.3 900.109C1628.93 922.432 1615.74 955.258 1587.22 955.258C1580.17 955.258 1575.57 953.617 1574.34 950.006C1572.8 945.739 1572.19 945.739 1570.04 949.35C1565.75 956.243 1566.67 957.556 1579.25 961.167C1596.42 965.763 1605.62 962.809 1616.66 949.35C1624.95 939.173 1626.17 935.891 1624.64 923.416C1623.72 914.553 1620.34 905.69 1616.05 900.766C1610.53 894.529 1609.3 889.605 1609.92 878.115C1610.53 864.985 1609.61 862.03 1600.1 851.854C1587.22 838.067 1571.58 836.426 1555.94 846.93C1550.42 850.541 1545.81 852.182 1545.81 850.869C1545.81 845.289 1527.41 837.082 1515.14 837.082C1504.72 837.082 1500.42 839.052 1491.83 848.243C1486.01 854.48 1481.41 861.702 1481.41 864.657C1481.41 867.611 1480.18 869.909 1478.34 869.909C1476.8 869.909 1475.27 868.596 1475.27 866.954C1475.27 865.313 1468.83 860.717 1461.16 856.778C1449.81 850.541 1443.68 849.556 1428.65 851.198C1413.32 852.511 1407.8 851.526 1393.07 844.632C1372.22 834.128 1324.68 830.845 1306.27 838.395ZM1459.63 863.015C1469.14 868.267 1481.41 882.055 1481.41 887.307C1481.41 887.964 1475.58 888.62 1468.52 888.948C1461.47 889.277 1453.49 890.261 1450.73 891.246C1447.97 892.231 1440.61 885.994 1431.41 874.833L1416.69 856.778H1432.33C1441.84 856.778 1452.57 859.404 1459.63 863.015Z" fill="#444444"/>
<path d="M51.2189 942.455C35.8835 946.066 20.2413 959.196 14.1071 973.312C11.3467 979.221 6.7461 985.13 3.67901 985.786C0.305206 986.771 1.22533 987.427 6.13268 987.756C12.2669 988.084 15.334 985.13 19.9346 976.266C36.4969 943.44 83.7301 938.844 106.427 967.403C111.641 974.297 112.867 974.953 112.561 970.029C111.641 961.494 129.736 956.899 144.459 961.494C156.113 965.105 174.823 984.473 174.823 992.68C174.823 995.306 178.197 998.26 182.184 999.245C193.225 1002.2 208.867 1017.3 213.468 1029.77C218.375 1042.25 218.989 1059.65 214.695 1071.79C211.935 1079.34 212.241 1080.33 216.842 1079.34C223.283 1078.03 227.577 1059.65 225.123 1043.89C222.669 1027.48 210.094 1009.09 195.679 1001.54C188.011 997.604 180.65 990.054 176.663 982.503C164.088 958.868 137.098 948.364 115.014 959.196C108.574 962.479 106.12 961.823 100.292 956.242C86.4905 942.783 69.9282 938.187 51.2189 942.455Z" fill="#444444"/>
<path d="M168.999 1064.24C168.999 1067.2 167.772 1072.45 166.852 1075.73C165.318 1080.33 165.625 1080.66 168.385 1078.03C170.532 1075.73 171.759 1070.81 170.839 1066.54C170.226 1062.27 169.305 1061.29 168.999 1064.24Z" fill="#444444"/>
<path d="M20.2427 1070.15C22.3896 1079.34 23.9232 1081.64 25.7634 1079.67C26.3769 1079.02 25.15 1074.75 22.6963 1070.15L18.0957 1061.95L20.2427 1070.15Z" fill="#444444"/>
</g>
<defs>
<clipPath id="clip0">
<rect width="1920" height="1080" fill="white"/>
</clipPath>
</defs>
</svg>
