<svg width="1127" height="1920" viewBox="0 0 1127 1920" fill="none" xmlns="http://www.w3.org/2000/svg">
<path d="M337.673 1501.82C338.051 1502.53 340.373 1506.94 342.749 1511.61C346.313 1518.65 347.015 1520.38 346.637 1521.53C345.287 1525.37 340.697 1541.37 340.697 1542.21C340.697 1542.78 340.859 1543.04 341.075 1542.91C341.345 1542.72 345.341 1541.57 350.039 1540.22C354.737 1538.94 358.895 1537.79 359.327 1537.6C359.705 1537.41 363.593 1540.41 367.913 1544.32C372.233 1548.22 375.959 1551.42 376.229 1551.42C376.499 1551.42 376.985 1547.01 377.363 1541.63C378.389 1526.65 377.417 1528.7 386.651 1521.15C391.025 1517.57 394.643 1514.43 394.697 1514.24C394.697 1513.98 390.593 1511.74 385.517 1509.18L376.391 1504.51L374.501 1497.41C373.475 1493.5 372.233 1488.57 371.747 1486.46C371.207 1484.35 370.667 1482.37 370.451 1482.11C370.235 1481.85 367.157 1485.69 363.593 1490.62L357.167 1499.58L347.015 1499.39C340.373 1499.33 336.917 1499.52 336.917 1499.9C336.917 1500.29 337.241 1501.12 337.673 1501.82Z" fill="#444444"/>
<path d="M501.755 252.724C502.133 253.428 504.455 257.844 506.831 262.516C510.395 269.556 511.097 271.284 510.719 272.436C509.369 276.276 504.779 292.276 504.779 293.108C504.779 293.684 504.941 293.94 505.157 293.812C505.427 293.62 509.423 292.468 514.121 291.124C518.819 289.844 522.977 288.692 523.409 288.5C523.787 288.308 527.675 291.316 531.995 295.22C536.315 299.124 540.041 302.324 540.311 302.324C540.581 302.324 541.067 297.908 541.445 292.532C542.471 277.556 541.499 279.604 550.733 272.052C555.107 268.468 558.725 265.332 558.779 265.14C558.779 264.884 554.675 262.644 549.599 260.084L540.473 255.412L538.583 248.308C537.557 244.404 536.315 239.476 535.829 237.364C535.289 235.252 534.749 233.268 534.533 233.012C534.317 232.756 531.239 236.596 527.675 241.524L521.249 250.484L511.097 250.292C504.455 250.228 500.999 250.42 500.999 250.804C500.999 251.188 501.323 252.02 501.755 252.724Z" fill="#444444"/>
<path d="M694.775 550.59C694.937 550.142 694.883 549.566 694.721 549.374C694.559 549.118 694.397 549.502 694.451 550.206C694.451 550.91 694.613 551.102 694.775 550.59Z" fill="#444444"/>
<path d="M695.315 548.029C695.423 547.645 695.423 546.877 695.315 546.429C695.153 546.045 695.045 546.365 695.045 547.261C695.045 548.157 695.153 548.477 695.315 548.029Z" fill="#444444"/>
<path d="M696.558 541.822C697.908 536.51 702.606 516.158 706.008 500.862C709.302 485.758 709.464 485.183 721.398 432.703C726.474 410.367 732.792 382.527 735.438 370.943C738.084 359.295 745.32 327.359 751.584 299.903C757.794 272.447 765.084 240.319 767.784 228.543C773.076 205.183 780.69 171.519 784.038 156.863C793.488 115.455 797.538 97.4066 797.538 96.9586C797.538 95.6786 798.564 97.9826 799.428 101.183C800.994 107.199 806.988 121.087 810.552 127.103C814.818 134.207 822.864 143.807 828.642 148.671C834.528 153.599 843.546 158.975 850.728 161.727C857.37 164.287 868.332 167.039 872.058 167.103C875.946 167.167 875.946 167.103 875.028 175.743C872.436 200.191 871.302 236.415 872.544 257.599C876.378 324.095 894.36 376.383 926.598 414.783C941.61 432.702 955.65 444.543 975.9 456.383C994.8 467.519 1016.99 476.222 1036.33 480.126C1038.38 480.51 1040 481.086 1040 481.342C1040 481.662 1039.51 483.263 1038.86 484.991C1035.19 495.231 1033.57 513.983 1035.35 526.143C1037.68 541.695 1044.05 556.03 1052.63 564.99L1055.23 567.742L1053.12 570.751C1045.83 581.119 1039.78 595.39 1036.81 609.214C1034 622.078 1033.03 642.11 1034.49 655.422C1037.73 684.542 1047.99 710.974 1063.49 730.174C1080.44 751.166 1097.62 760.702 1122.73 763.262L1126.4 763.646V757.31V750.974L1121.97 750.462C1103.29 748.542 1088.06 740.542 1074.77 725.63C1048.42 696.062 1037.62 646.014 1048.91 605.694C1053.28 590.078 1061.22 576.575 1071.48 567.423L1073.53 565.63L1069.21 562.943C1066.84 561.471 1063.54 559.102 1061.92 557.566C1055.55 551.934 1050.1 541.951 1047.23 530.943C1045.83 525.503 1045.72 524.478 1045.72 513.342C1045.72 503.166 1045.88 500.798 1046.91 496.51C1048.15 491.134 1052.09 480.703 1052.8 480.767C1053.01 480.767 1054.31 482.558 1055.66 484.734C1062.14 495.166 1072.99 501.375 1086.44 502.271C1091.57 502.591 1100.96 501.694 1102.26 500.734C1102.53 500.542 1100.96 499.454 1098.75 498.302C1083.09 490.11 1072.34 477.759 1067 461.887C1064.46 454.143 1063.54 448.063 1063.49 438.335C1063.49 433.535 1063.6 429.439 1063.76 429.311C1063.92 429.119 1066.08 429.695 1068.62 430.527C1072.02 431.743 1074.5 432.126 1078.34 432.126C1085.3 432.126 1088.44 431.23 1094.86 427.518C1099.18 425.022 1101.34 423.295 1104.85 419.327C1107.34 416.575 1109.23 414.079 1109.06 413.887C1108.9 413.695 1106.09 413.823 1102.85 414.207C1088.17 415.871 1075.1 411.775 1065.49 402.559C1056.41 393.919 1050.15 379.967 1047.61 363.199L1046.69 356.863L1044.97 362.367C1040.65 376.703 1040.43 392.575 1044.53 404.543C1046.26 409.599 1050.04 416.255 1053.39 420.159L1056.09 423.23L1054.25 426.111C1051.82 429.823 1048.91 437.183 1047.72 442.303C1046.48 447.871 1046.53 459.071 1047.77 464.639C1048.26 466.879 1048.58 468.799 1048.48 468.927C1048.21 469.311 1035.68 466.814 1028.66 464.958C999.12 457.278 970.986 441.855 949.71 421.759C918.606 392.383 898.464 353.343 888.852 303.679C881.616 266.047 880.698 226.623 885.936 173.759L886.26 170.431L889.824 173.119C894.468 176.703 897.384 177.983 902.028 178.559C908.508 179.455 915.636 177.855 922.764 174.015C925.842 172.351 933.618 166.399 933.618 165.695C933.618 165.439 932.862 165.182 931.998 165.182C927.894 165.182 916.77 161.663 910.56 158.463C903 154.495 893.658 145.151 889.284 137.343C882.912 125.887 879.672 112.447 879.618 97.7265L879.564 90.6226L877.62 95.1025C873.3 105.087 870.924 116.351 870.87 127.103C870.87 136.767 872.112 143.615 875.568 153.279C876 154.431 875.784 154.495 871.734 154.111C855.696 152.639 839.226 143.935 827.724 130.815C815.574 116.991 808.23 98.6225 804.45 72.7025C803.37 65.2145 803.208 62.2705 803.208 43.2625C803.208 23.2945 803.802 12.8625 805.422 2.11053L805.746 0.062561H795.972C786.306 0.062561 786.198 0.0625201 785.928 1.47052C785.658 3.00652 775.938 61.1825 762.978 138.943C758.82 164.095 752.988 199.103 750.018 216.703C744.456 250.175 737.436 292.095 732.468 321.983C730.902 331.647 727.986 349.055 726.042 360.703C724.098 372.287 718.644 405.311 713.838 433.983C709.086 462.655 704.064 492.479 702.768 500.223C699.15 521.151 695.478 543.806 695.532 544.766C695.532 545.278 696.018 543.934 696.558 541.822Z" fill="#444444"/>
<path d="M474.866 542.055C473.374 536.74 468.184 516.377 464.426 501.073C460.787 485.961 460.608 485.384 447.424 432.876C441.816 410.528 434.836 382.672 431.913 371.082C428.99 359.428 420.996 327.474 414.076 300.003C407.215 272.532 399.162 240.387 396.179 228.604C390.333 205.232 381.921 171.549 378.222 156.885C367.782 115.455 363.308 97.3971 363.308 96.9488C363.308 95.6681 362.175 97.9734 361.22 101.175C359.49 107.194 352.868 121.09 348.931 127.109C344.218 134.217 335.329 143.822 328.946 148.689C322.443 153.62 312.481 158.999 304.547 161.752C297.209 164.313 285.099 167.067 280.982 167.131C276.687 167.195 276.687 167.131 277.701 175.776C280.565 200.237 281.817 236.481 280.445 257.676C276.21 324.209 256.344 376.525 220.729 414.946C204.145 432.876 188.634 444.722 166.263 456.569C145.383 467.711 120.864 476.419 99.5071 480.326C97.2401 480.71 95.4504 481.286 95.4504 481.542C95.4504 481.862 95.9873 483.463 96.7032 485.192C100.76 495.438 102.55 514.2 100.581 526.367C98.0157 541.927 90.9762 556.271 81.4908 565.236L78.6273 567.989L80.9539 570.999C89.0075 581.373 95.6891 595.652 98.9702 609.484C102.072 622.355 103.146 642.398 101.535 655.717C97.956 684.853 86.6213 711.299 69.4998 730.51C50.7677 751.513 31.7969 761.054 4.05664 763.616L0 764L0 757.661L0 751.321L4.89183 750.809C25.533 748.888 42.3561 740.883 57.0316 725.963C86.144 696.379 98.0753 646.304 85.6071 605.962C80.7749 590.337 72.0054 576.826 60.6707 567.669L58.4037 565.876L63.1763 563.187C65.8011 561.714 69.4402 559.345 71.2299 557.808C78.2694 552.173 84.2947 542.183 87.4565 531.169C89.0075 525.726 89.1268 524.702 89.1268 513.56C89.1268 503.378 88.9479 501.009 87.8144 496.718C86.4423 491.34 82.0874 480.902 81.3118 480.966C81.0732 480.966 79.6415 482.759 78.15 484.936C70.9913 495.374 59.0003 501.585 44.1458 502.482C38.4785 502.802 28.0982 501.905 26.6665 500.945C26.3682 500.753 28.0982 499.664 30.5441 498.511C47.8445 490.315 59.7162 477.956 65.6222 462.076C68.426 454.327 69.4402 448.244 69.4998 438.511C69.4998 433.708 69.3805 429.61 69.2016 429.482C69.0226 429.29 66.6363 429.866 63.8325 430.699C60.0741 431.915 57.3299 432.299 53.0943 432.299C45.3986 432.299 41.9385 431.403 34.8394 427.689C30.0669 425.192 27.6806 423.463 23.803 419.492C21.0588 416.739 18.9708 414.242 19.1497 414.049C19.3287 413.857 22.4309 413.985 26.0102 414.37C42.2368 416.035 56.6737 411.936 67.2926 402.715C77.3148 394.071 84.235 380.111 87.0389 363.334L88.053 356.994L89.962 362.501C94.7346 376.845 94.9732 392.726 90.4393 404.7C88.5303 409.759 84.3543 416.419 80.6556 420.325L77.6728 423.399L79.7011 426.28C82.3857 429.994 85.6071 437.358 86.9195 442.481C88.2916 448.052 88.232 459.258 86.8599 464.829C86.323 467.07 85.965 468.991 86.0844 469.119C86.3826 469.504 100.223 467.006 107.978 465.149C140.61 457.465 171.691 442.033 195.196 421.926C229.558 392.534 251.81 353.472 262.429 303.781C270.423 266.129 271.437 226.683 265.65 173.791L265.293 170.461L261.355 173.15C256.225 176.736 253.003 178.017 247.873 178.593C240.714 179.49 232.839 177.889 224.965 174.047C221.564 172.382 212.974 166.427 212.974 165.722C212.974 165.466 213.809 165.21 214.763 165.21C219.297 165.21 231.587 161.688 238.447 158.486C246.799 154.516 257.12 145.167 261.952 137.355C268.991 125.893 272.571 112.445 272.63 97.7172L272.69 90.6094L274.838 95.0918C279.61 105.081 282.235 116.351 282.295 127.109C282.295 136.779 280.923 143.63 277.105 153.299C276.627 154.452 276.866 154.516 281.34 154.132C299.058 152.659 317.253 143.95 329.96 130.823C343.383 116.992 351.496 98.6137 355.672 72.6796C356.865 65.1875 357.044 62.2419 357.044 43.2236C357.044 23.2447 356.388 12.807 354.598 2.04915L354.24 3.39597e-05H365.038C375.717 3.39597e-05 375.836 3.39597e-05 376.134 1.4088C376.433 2.94564 387.171 61.1533 401.488 138.956C406.082 164.121 412.525 199.148 415.806 216.758C421.951 250.248 429.706 292.191 435.194 322.095C436.924 331.765 440.146 349.182 442.293 360.836C444.441 372.427 450.466 405.469 455.776 434.156C461.026 462.844 466.574 492.684 468.005 500.432C472.002 521.372 476.059 544.04 475.999 545.001C475.999 545.513 475.462 544.168 474.866 542.055Z" fill="#444444"/>
<path d="M703.631 1491.9C706.223 1505.47 710.975 1529.79 714.107 1545.98C717.239 1562.17 720.371 1578.43 721.127 1582.14C722.639 1589.82 725.771 1606.14 736.463 1661.18C745.589 1708.41 761.303 1789.37 771.941 1844.22C776.207 1866.37 781.229 1892.41 783.119 1901.95L786.467 1919.42H796.133H805.799L805.421 1917.05C803.747 1905.15 803.261 1896.89 803.261 1877.18C803.207 1855.74 803.477 1851.45 805.745 1838.78C808.121 1825.34 812.981 1811.2 818.597 1801.34C822.269 1794.94 829.019 1786.56 834.419 1781.76C844.625 1772.8 859.043 1766.59 873.299 1764.99C875.567 1764.73 875.891 1764.86 875.621 1765.76C875.459 1766.33 874.649 1769.15 873.731 1771.97C871.571 1779.07 870.869 1784.06 870.869 1792.38C870.923 1803.13 873.299 1814.46 877.511 1824.06L879.347 1828.22L879.725 1818.94C880.805 1791.17 891.875 1770.88 911.477 1760.57C916.715 1757.89 925.031 1755.13 929.999 1754.49C931.727 1754.3 933.239 1753.92 933.347 1753.66C933.509 1753.41 932.105 1752 930.215 1750.53C915.743 1738.94 900.191 1737.34 889.553 1746.3C888.095 1747.52 886.745 1748.54 886.583 1748.54C886.421 1748.54 885.827 1744.45 885.341 1739.39C882.101 1706.17 881.723 1675.77 884.261 1648.57C891.659 1568.57 923.303 1510.08 977.357 1476.41C996.851 1464.32 1020.29 1455.29 1042.97 1451.33C1045.88 1450.81 1048.42 1450.43 1048.48 1450.56C1048.58 1450.69 1048.26 1452.61 1047.72 1454.85C1046.48 1460.41 1046.48 1471.68 1047.72 1477.18C1048.91 1482.49 1051.72 1489.47 1054.2 1493.25L1056.09 1496.25L1053.39 1499.33C1047.83 1505.79 1043.51 1515.65 1042.16 1524.93C1041.29 1530.62 1041.73 1543.81 1042.97 1549.18C1043.4 1551.29 1044.48 1555.2 1045.24 1557.82L1046.69 1562.62L1047.67 1556.09C1051.72 1528.89 1065 1511.1 1084.82 1506.24C1089.84 1505.02 1099.88 1504.7 1106.15 1505.53L1109.93 1506.05L1106.42 1501.82C1102.64 1497.21 1097.45 1492.86 1093.24 1490.69C1084.55 1486.21 1073.53 1486.01 1064.73 1490.3C1063.49 1490.88 1063 1486.46 1063.38 1477.89C1064.57 1453.44 1075.42 1434.94 1095.56 1422.91C1098.64 1421.12 1101.5 1419.58 1101.94 1419.58C1102.31 1419.58 1102.64 1419.33 1102.64 1419.01C1102.64 1417.09 1083.63 1416.7 1077.2 1418.49C1068.67 1420.86 1059.6 1427.84 1055.12 1435.52C1054.09 1437.25 1053.07 1438.72 1052.85 1438.78C1052.09 1438.78 1048.1 1428.16 1046.96 1423.04C1045.51 1416.57 1044.97 1402.43 1045.94 1395.39C1047.34 1385.02 1051.72 1374.01 1057.39 1366.72C1060.52 1362.69 1064.84 1358.97 1069.64 1356.22L1073.59 1353.85L1070.08 1350.59C1060.84 1341.89 1053.5 1329.34 1049.29 1315.2C1039.46 1282.11 1044.91 1240.51 1063.22 1209.53C1068.08 1201.21 1078.39 1189.05 1084.82 1184.06C1096.21 1175.17 1108.09 1170.3 1121.7 1168.96L1126.4 1168.51V1162.24C1126.4 1154.94 1127.26 1155.58 1118.78 1156.61C1089.79 1160.06 1066.03 1178.69 1049.88 1210.62C1038.27 1233.53 1032.33 1262.97 1034.06 1289.28C1035.52 1312.25 1041.62 1331.77 1052.2 1347.39L1055.12 1351.68L1051.82 1355.39C1040.65 1368 1034.6 1385.73 1034.6 1405.95C1034.6 1416.57 1036.22 1426.94 1039.13 1435.2C1039.62 1436.54 1040 1437.89 1040 1438.14C1040 1438.4 1038.22 1438.91 1036.11 1439.36C1030.44 1440.45 1013.59 1445.44 1007 1448C995.663 1452.35 985.511 1457.28 975.629 1463.17L969.311 1466.88L961.913 1457.47C957.809 1452.29 950.897 1443.58 946.577 1438.14C942.257 1432.7 936.803 1425.79 934.427 1422.78C927.029 1413.37 923.249 1408.57 918.443 1402.62C909.317 1391.23 897.113 1375.68 894.845 1372.54C893.549 1370.75 889.769 1366.01 886.421 1361.98C883.073 1357.95 875.675 1348.67 869.951 1341.31C864.227 1334.01 859.421 1328.06 859.313 1328.06C859.151 1328.06 861.473 1331.77 864.335 1336.25C867.251 1340.73 874.973 1352.7 881.507 1362.88C888.041 1372.99 896.411 1385.98 900.137 1391.74C903.863 1397.5 911.747 1409.73 917.687 1418.94C923.627 1428.16 932.699 1442.24 937.883 1450.17C943.013 1458.17 948.953 1467.39 951.059 1470.72C955.433 1477.57 955.649 1476.22 949.277 1481.66C925.895 1501.5 907.103 1527.68 894.521 1558.14C881.885 1588.61 875.513 1618.17 872.543 1659.9C871.031 1682.11 872.489 1725.76 875.621 1749.25L875.891 1751.61L873.029 1752C855.047 1754.62 841.979 1760 829.667 1769.92C823.403 1774.91 814.385 1785.66 810.065 1793.21C804.125 1803.58 798.779 1818.17 796.187 1831.29C795.647 1833.98 794.999 1836.03 794.783 1835.77C794.567 1835.45 791.435 1823.74 787.817 1809.66C784.253 1795.58 780.311 1780.48 779.177 1776.06C778.043 1771.65 773.507 1754.24 769.133 1737.34C764.813 1720.45 759.359 1699.26 757.037 1690.3C754.715 1681.34 750.935 1666.75 748.667 1657.98C735.221 1606.01 731.549 1591.74 726.257 1571.26C723.017 1558.78 716.213 1532.41 711.137 1512.7C699.905 1469.18 698.771 1465.09 698.771 1466.3C698.771 1466.81 700.985 1478.33 703.631 1491.9Z" fill="#444444"/>
<path d="M466.636 1491.72C463.775 1505.28 458.53 1529.59 455.074 1545.77C451.617 1561.95 448.16 1578.2 447.326 1581.91C445.657 1589.59 442.2 1605.9 430.399 1660.91C420.327 1708.11 402.983 1789.03 391.242 1843.84C386.534 1865.97 380.991 1892.01 378.905 1901.54L375.21 1919H364.541H353.873L354.29 1916.63C356.138 1904.74 356.674 1896.48 356.674 1876.78C356.734 1855.36 356.435 1851.07 353.932 1838.41C351.31 1824.97 345.946 1810.84 339.747 1800.99C335.695 1794.59 328.245 1786.21 322.285 1781.41C311.02 1772.46 295.107 1766.25 279.373 1764.66C276.869 1764.4 276.512 1764.53 276.81 1765.42C276.989 1766 277.883 1768.81 278.896 1771.63C281.28 1778.73 282.055 1783.72 282.055 1792.03C281.995 1802.78 279.373 1814.1 274.724 1823.69L272.697 1827.85L272.28 1818.58C271.088 1790.82 258.87 1770.54 237.235 1760.24C231.454 1757.56 222.276 1754.81 216.793 1754.17C214.885 1753.97 213.217 1753.59 213.097 1753.33C212.919 1753.08 214.468 1751.67 216.554 1750.2C232.527 1738.62 249.692 1737.02 261.433 1745.98C263.042 1747.19 264.532 1748.22 264.711 1748.22C264.89 1748.22 265.545 1744.12 266.082 1739.07C269.658 1705.87 270.075 1675.49 267.274 1648.31C259.109 1568.35 224.183 1509.89 164.523 1476.24C143.008 1464.15 117.141 1455.14 92.1094 1451.17C88.891 1450.66 86.0898 1450.27 86.0302 1450.4C85.911 1450.53 86.2686 1452.45 86.8646 1454.69C88.2354 1460.25 88.2354 1471.51 86.8646 1477.01C85.5534 1482.32 82.4542 1489.29 79.7126 1493.07L77.6266 1496.07L80.6066 1499.14C86.7454 1505.6 91.5134 1515.45 93.0034 1524.73C93.957 1530.42 93.4802 1543.6 92.1094 1548.97C91.6326 1551.08 90.4406 1554.98 89.6062 1557.61L87.997 1562.4L86.9242 1555.88C82.4542 1528.69 67.7926 1510.91 45.9194 1506.05C40.3766 1504.84 29.291 1504.52 22.3773 1505.35L18.2053 1505.86L22.0793 1501.64C26.2513 1497.03 31.973 1492.68 36.6218 1490.51C46.2174 1486.03 58.3758 1485.84 68.0906 1490.12C69.4614 1490.7 69.9978 1486.29 69.5806 1477.71C68.2694 1453.28 56.2898 1434.8 34.059 1422.77C30.6618 1420.98 27.503 1419.44 27.0262 1419.44C26.609 1419.44 26.2514 1419.19 26.2514 1418.87C26.2514 1416.95 47.2306 1416.57 54.323 1418.36C63.7398 1420.72 73.7526 1427.7 78.6994 1435.37C79.8318 1437.1 80.9642 1438.57 81.2026 1438.63C82.037 1438.63 86.4474 1428.02 87.699 1422.9C89.3082 1416.44 89.9042 1402.3 88.8314 1395.27C87.2818 1384.9 82.4542 1373.9 76.1962 1366.61C72.7394 1362.58 67.9714 1358.87 62.667 1356.12L58.3162 1353.75L62.1902 1350.49C72.3818 1341.79 80.4874 1329.26 85.1362 1315.12C95.9834 1282.05 89.9638 1240.47 69.7594 1209.52C64.3954 1201.2 53.0118 1189.05 45.9194 1184.06C33.3438 1175.17 20.2317 1170.31 5.21254 1168.96L0.0273365 1168.51L0.0273365 1162.25C0.0273365 1154.95 -0.926265 1155.59 8.43094 1156.62C40.4362 1160.07 66.6602 1178.68 84.4806 1210.6C97.2946 1233.5 103.851 1262.92 101.943 1289.21C100.334 1312.18 93.5994 1331.69 81.9178 1347.29L78.6994 1351.58L82.335 1355.29C94.6722 1367.89 101.347 1385.61 101.347 1405.82C101.347 1416.44 99.5594 1426.8 96.341 1435.05C95.8046 1436.39 95.3874 1437.74 95.3874 1437.99C95.3874 1438.25 97.3542 1438.76 99.6786 1439.21C105.937 1440.3 124.532 1445.29 131.803 1447.84C144.319 1452.19 155.524 1457.12 166.431 1463L173.404 1466.71L181.569 1457.31C186.099 1452.13 193.727 1443.43 198.495 1437.99C203.263 1432.56 209.283 1425.65 211.905 1422.64C220.071 1413.24 224.243 1408.44 229.547 1402.49C239.619 1391.11 253.089 1375.56 255.592 1372.43C257.023 1370.64 261.195 1365.91 264.89 1361.88C268.585 1357.85 276.75 1348.57 283.068 1341.22C289.385 1333.92 294.69 1327.98 294.809 1327.98C294.988 1327.98 292.425 1331.69 289.266 1336.16C286.048 1340.64 277.525 1352.6 270.313 1362.77C263.102 1372.88 253.864 1385.86 249.751 1391.62C245.639 1397.38 236.937 1409.59 230.381 1418.8C223.825 1428.02 213.813 1442.09 208.091 1450.02C202.429 1458.01 195.873 1467.22 193.549 1470.55C188.721 1477.39 188.483 1476.05 195.515 1481.49C221.322 1501.32 242.063 1527.48 255.95 1557.93C269.896 1588.37 276.929 1617.92 280.207 1659.63C281.876 1681.82 280.267 1725.45 276.81 1748.92L276.512 1751.29L279.671 1751.67C299.517 1754.29 313.941 1759.67 327.529 1769.58C334.443 1774.57 344.396 1785.32 349.164 1792.86C355.72 1803.23 361.621 1817.81 364.482 1830.92C365.078 1833.61 365.793 1835.66 366.031 1835.4C366.27 1835.08 369.726 1823.37 373.72 1809.3C377.653 1795.23 382.004 1780.13 383.256 1775.72C384.507 1771.31 389.514 1753.91 394.341 1737.02C399.109 1720.14 405.129 1698.97 407.692 1690.01C410.254 1681.06 414.426 1666.47 416.93 1657.71C431.77 1605.77 435.823 1591.51 441.664 1571.04C445.24 1558.56 452.749 1532.21 458.352 1512.51C470.748 1469.02 472 1464.92 472 1466.14C472 1466.65 469.556 1478.16 466.636 1491.72Z" fill="#444444"/>
<path d="M831.882 1403.26C834.096 1407.49 835.77 1411.39 835.662 1411.9C835.554 1412.41 834.366 1416.51 833.016 1420.99C831.72 1425.47 830.694 1429.25 830.802 1429.37C830.91 1429.5 834.528 1428.61 838.848 1427.45L846.678 1425.28L852.996 1431.04C856.506 1434.24 859.422 1436.67 859.53 1436.54C859.638 1436.48 860.07 1432.06 860.502 1426.88C860.988 1420.73 861.474 1417.21 861.906 1416.96C864.984 1414.91 874.218 1406.53 873.894 1406.14C873.624 1405.82 870.276 1404.03 866.442 1402.17L859.476 1398.72L857.262 1389.89C856.02 1385.02 854.832 1381.05 854.562 1380.99C854.292 1380.93 851.808 1383.87 849.108 1387.58L844.14 1394.3L835.986 1394.49C831.45 1394.56 827.778 1394.88 827.778 1395.13C827.832 1395.39 829.668 1399.04 831.882 1403.26Z" fill="#444444"/>
<path d="M1001.1 1053.27C1003.32 1057.5 1004.99 1061.4 1004.88 1061.91C1004.78 1062.43 1003.59 1066.52 1002.24 1071C1000.94 1075.48 999.917 1079.26 1000.02 1079.39C1000.13 1079.51 1003.75 1078.62 1008.07 1077.47L1015.9 1075.29L1022.22 1081.05C1025.73 1084.25 1028.64 1086.68 1028.75 1086.55C1028.86 1086.49 1029.29 1082.07 1029.72 1076.89C1030.21 1070.75 1030.7 1067.23 1031.13 1066.97C1034.21 1064.92 1043.44 1056.54 1043.12 1056.15C1042.85 1055.83 1039.5 1054.04 1035.66 1052.19L1028.7 1048.73L1026.48 1039.9C1025.24 1035.03 1024.05 1031.07 1023.78 1031C1023.51 1030.94 1021.03 1033.88 1018.33 1037.59L1013.36 1044.31L1005.21 1044.51C1000.67 1044.57 997.001 1044.89 997.001 1045.15C997.055 1045.4 998.891 1049.05 1001.1 1053.27Z" fill="#444444"/>
<path d="M619.105 88.2737C621.319 92.4977 622.993 96.4017 622.885 96.9137C622.777 97.4257 621.589 101.522 620.239 106.002C618.943 110.482 617.917 114.258 618.025 114.386C618.133 114.514 621.751 113.618 626.071 112.466L633.901 110.29L640.219 116.05C643.729 119.25 646.645 121.682 646.753 121.554C646.861 121.49 647.293 117.074 647.725 111.89C648.211 105.746 648.697 102.226 649.129 101.97C652.207 99.9217 661.441 91.5377 661.117 91.1537C660.847 90.8337 657.499 89.0417 653.665 87.1857L646.699 83.7297L644.485 74.8977C643.243 70.0337 642.055 66.0657 641.785 66.0017C641.515 65.9377 639.031 68.8817 636.331 72.5937L631.363 79.3137L623.209 79.5057C618.673 79.5697 615.001 79.8897 615.001 80.1457C615.055 80.4017 616.891 84.0497 619.105 88.2737Z" fill="#444444"/>
<path d="M325.462 1403.05C323.014 1407.23 321.163 1411.1 321.283 1411.6C321.402 1412.11 322.716 1416.16 324.208 1420.6C325.641 1425.03 326.776 1428.77 326.656 1428.9C326.537 1429.03 322.536 1428.14 317.76 1427L309.102 1424.84L302.116 1430.55C298.235 1433.71 295.011 1436.12 294.892 1436C294.772 1435.93 294.294 1431.56 293.817 1426.43C293.279 1420.35 292.742 1416.86 292.264 1416.61C288.861 1414.58 278.651 1406.28 279.009 1405.9C279.308 1405.58 283.01 1403.81 287.249 1401.97L294.951 1398.55L297.399 1389.81C298.773 1384.99 300.086 1381.06 300.385 1381C300.683 1380.94 303.43 1383.85 306.415 1387.53L311.908 1394.18L320.924 1394.37C325.94 1394.43 330 1394.75 330 1395C329.94 1395.26 327.91 1398.87 325.462 1403.05Z" fill="#444444"/>
<path d="M918.066 961.534C920.82 962.11 928.65 963.71 935.508 965.118C942.312 966.526 952.896 968.702 958.998 969.982C965.1 971.262 974.064 973.118 978.978 974.142C983.892 975.166 992.802 977.022 998.796 978.238C1019.91 982.654 1031.68 985.15 1040.81 987.006C1045.83 988.03 1053.39 989.63 1057.55 990.526C1069.1 992.894 1078.5 994.878 1098.86 999.102C1109.12 1001.21 1118.57 1003.2 1119.92 1003.58C1121.27 1003.9 1123.27 1004.35 1124.4 1004.54L1126.4 1004.93V986.11V967.358L1103.34 966.526C1090.6 966.142 1073.05 965.502 1064.3 965.182C1055.55 964.862 1043.62 964.414 1037.84 964.222C1032.06 964.03 1020.5 963.582 1012.19 963.262C1003.87 962.942 992.424 962.494 986.808 962.302C981.138 962.11 973.362 961.854 969.528 961.662C941.934 960.446 914.178 959.678 913.584 960.126C913.26 960.318 915.312 960.958 918.066 961.534Z" fill="#444444"/>
<path d="M230.014 961.539C226.974 962.116 218.329 963.719 210.757 965.129C203.245 966.539 191.559 968.719 184.822 970.001C178.085 971.283 168.188 973.142 162.763 974.167C157.337 975.193 147.5 977.052 140.882 978.27C117.571 982.693 104.574 985.193 94.4979 987.052C88.9532 988.077 80.6064 989.68 76.0156 990.577C63.2569 992.949 52.883 994.936 30.4062 999.167C19.0784 1001.28 8.64491 1003.27 7.15441 1003.65C5.66391 1003.97 3.45797 1004.42 2.20594 1004.62L0 1005L0 986.154L0 967.373L25.4578 966.539C39.5281 966.155 58.9047 965.514 68.5631 965.193C78.2216 964.873 91.3976 964.424 97.777 964.232C104.156 964.039 116.915 963.591 126.097 963.27C135.278 962.95 147.917 962.501 154.118 962.309C160.378 962.116 168.963 961.86 173.196 961.668C203.662 960.45 234.307 959.681 234.963 960.129C235.321 960.322 233.055 960.963 230.014 961.539Z" fill="#444444"/>
<path d="M955.055 564.095L963.047 563.711L968.393 571.007C971.309 575.039 973.847 578.239 974.063 578.175C974.225 578.111 975.359 574.143 976.601 569.343C977.843 564.543 979.031 560.383 979.301 560.063C979.571 559.807 982.865 558.015 986.645 556.223C990.479 554.367 993.557 552.639 993.557 552.383C993.557 552.127 990.641 549.503 987.131 546.623C979.787 540.607 980.381 542.015 979.733 529.151C979.517 525.375 979.139 522.303 978.869 522.303C978.653 522.303 975.737 524.735 972.443 527.743C969.149 530.751 966.071 533.183 965.639 533.183C965.153 533.183 961.643 532.287 957.809 531.199C953.921 530.175 950.627 529.407 950.465 529.599C950.249 529.855 952.841 539.711 955.055 546.943C955.163 547.327 953.489 551.103 951.383 555.263C949.277 559.487 947.387 563.263 947.279 563.711C947.117 564.287 949.007 564.351 955.055 564.095Z" fill="#444444"/>
<path d="M189.422 563.887L180.616 563.502L174.726 570.815C171.513 574.856 168.717 578.063 168.479 577.999C168.3 577.935 167.051 573.958 165.682 569.147C164.314 564.336 163.005 560.167 162.707 559.846C162.41 559.589 158.781 557.793 154.616 555.997C150.391 554.137 147 552.405 147 552.148C147 551.892 150.213 549.262 154.08 546.375C162.172 540.346 161.517 541.757 162.231 528.864C162.469 525.079 162.886 522 163.183 522C163.421 522 166.634 524.438 170.264 527.452C173.893 530.467 177.284 532.905 177.76 532.905C178.296 532.905 182.163 532.007 186.388 530.916C190.671 529.89 194.301 529.12 194.479 529.313C194.717 529.569 191.861 539.448 189.422 546.696C189.303 547.081 191.147 550.865 193.468 555.035C195.788 559.269 197.871 563.053 197.99 563.502C198.168 564.079 196.086 564.144 189.422 563.887Z" fill="#444444"/>
<path d="M492.422 1856.89L483.616 1856.5L477.726 1863.81C474.513 1867.86 471.717 1871.06 471.479 1871C471.3 1870.93 470.051 1866.96 468.682 1862.15C467.314 1857.34 466.005 1853.17 465.707 1852.85C465.41 1852.59 461.781 1850.79 457.616 1849C453.391 1847.14 450 1845.4 450 1845.15C450 1844.89 453.213 1842.26 457.08 1839.38C465.172 1833.35 464.517 1834.76 465.231 1821.86C465.469 1818.08 465.886 1815 466.183 1815C466.421 1815 469.634 1817.44 473.264 1820.45C476.893 1823.47 480.284 1825.9 480.76 1825.9C481.296 1825.9 485.163 1825.01 489.388 1823.92C493.671 1822.89 497.301 1822.12 497.479 1822.31C497.717 1822.57 494.861 1832.45 492.422 1839.7C492.303 1840.08 494.147 1843.87 496.468 1848.03C498.788 1852.27 500.871 1856.05 500.99 1856.5C501.168 1857.08 499.086 1857.14 492.422 1856.89Z" fill="#444444"/>
<path d="M601.422 1676.89L592.616 1676.5L586.726 1683.81C583.513 1687.86 580.717 1691.06 580.479 1691C580.3 1690.93 579.051 1686.96 577.682 1682.15C576.314 1677.34 575.005 1673.17 574.707 1672.85C574.41 1672.59 570.781 1670.79 566.616 1669C562.391 1667.14 559 1665.4 559 1665.15C559 1664.89 562.213 1662.26 566.08 1659.38C574.172 1653.35 573.517 1654.76 574.231 1641.86C574.469 1638.08 574.886 1635 575.183 1635C575.421 1635 578.634 1637.44 582.264 1640.45C585.893 1643.47 589.284 1645.9 589.76 1645.9C590.296 1645.9 594.163 1645.01 598.388 1643.92C602.671 1642.89 606.301 1642.12 606.479 1642.31C606.717 1642.57 603.861 1652.45 601.422 1659.7C601.303 1660.08 603.147 1663.87 605.468 1668.03C607.788 1672.27 609.871 1676.05 609.99 1676.5C610.168 1677.08 608.086 1677.14 601.422 1676.89Z" fill="#444444"/>
</svg>
