<svg width="1080" height="1920" viewBox="0 0 1080 1920" fill="none" xmlns="http://www.w3.org/2000/svg">
<g clip-path="url(#clip0)">
<path d="M700.532 251.82C703.938 288.731 726.537 325.748 756.814 343.781C768.168 350.549 782.766 355.838 796.768 358.217C803.905 359.433 805.851 359.698 811.745 360.121C814.826 360.332 817.422 360.65 817.53 360.756C817.692 360.861 817.097 362.871 816.286 365.198C810.826 380.216 811.366 401.104 817.53 415.064C825.531 433.256 842.021 448.115 862.837 455.995L868.622 458.163L867.27 460.331C866.513 461.547 864.35 465.566 862.404 469.373C847.806 498.299 847.212 532.196 860.782 559.8C876.839 592.587 912.577 615.484 951.774 618.234C958.911 618.71 969.616 618.34 975.076 617.388C976.752 617.071 977.077 617.335 982.267 622.623C1004.22 645.309 1035.74 661.279 1071.2 667.678C1075.21 668.418 1078.88 669 1079.31 669C1079.96 669 1080.07 667.519 1079.96 659.376L1079.8 649.751L1075.69 649.117C1073.42 648.799 1068.45 647.742 1064.61 646.79C1030.71 638.488 1001.57 619.873 985.998 596.606L985.187 595.389L978.158 597.134C971.184 598.932 971.022 598.932 958.965 598.932C948.422 598.88 946.097 598.721 941.394 597.716C908.954 590.63 884.03 569.954 874.677 542.35C868.946 525.375 869.162 506.813 875.218 488.675C881.381 470.484 894.14 453.615 909.333 443.726C912.09 441.875 913.874 440.553 913.28 440.765C906.575 443.092 891.924 443.673 883.165 441.981C869.324 439.284 856.997 433.203 847.644 424.424C837.696 415.064 832.884 405.176 832.073 392.167C830.83 371.808 842.075 350.391 859.971 338.916C862.242 337.435 863.485 336.43 862.728 336.589C848.779 340.026 839.48 341.137 825.153 341.137C812.393 341.137 804.446 340.343 794.876 338.122C769.736 332.305 752.597 320.513 737.729 298.832C726.483 282.386 719.455 259.964 719.455 240.081C719.455 205.073 737.567 173.186 769.465 152.139C773.953 149.178 784.55 143.995 790.389 141.933L794.552 140.452L792.065 136.486C775.25 109.676 773.358 71.9713 787.307 41.3002C793.471 27.6569 804.392 14.0135 816.827 4.44201L822.179 0.317275L807.419 0.158631L792.714 -1.23829e-05L789.794 3.0671C779.522 13.9606 769.898 30.0365 765.194 44.2087C756.273 70.9666 756.111 97.4072 764.708 123.425C766.005 127.497 767.032 130.828 766.924 130.934C766.816 131.04 763.897 132.89 760.491 135.059C751.516 140.611 746.001 144.894 738.918 151.61C727.565 162.398 719.941 172.604 712.967 186.248C702.586 206.765 698.423 228.605 700.532 251.82Z" fill="#444444"/>
<path d="M342.52 304.894C339.445 349.585 319.046 394.404 291.718 416.237C281.47 424.432 268.293 430.835 255.654 433.716C249.212 435.189 247.455 435.509 242.136 436.021C239.354 436.277 237.012 436.661 236.914 436.789C236.768 436.917 237.304 439.35 238.036 442.167C242.965 460.351 242.477 485.641 236.914 502.544C229.691 524.57 214.807 542.561 196.019 552.101L190.797 554.726L192.017 557.351C192.7 558.824 194.652 563.69 196.409 568.3C209.585 603.322 210.122 644.363 197.873 677.785C183.379 717.482 151.122 745.205 115.741 748.535C109.299 749.111 99.6362 748.663 94.7073 747.51C93.1945 747.126 92.9017 747.446 88.2168 753.849C68.4035 781.316 39.9524 800.652 7.93877 808.399C4.32748 809.296 1.009 810 0.618588 810C0.0329735 810 -0.0646289 808.207 0.0329735 798.347L0.179377 786.694L3.88827 785.926C5.93792 785.542 10.4276 784.261 13.8925 783.109C44.4909 773.057 70.7947 750.519 84.8495 722.348L85.5815 720.875L91.9256 722.988C98.221 725.165 98.3674 725.165 109.25 725.165C118.766 725.101 120.865 724.909 125.11 723.692C154.391 715.113 176.889 690.078 185.331 656.656C190.504 636.104 190.309 613.631 184.843 591.669C179.28 569.644 167.763 549.22 154.05 537.247C151.561 535.006 149.95 533.405 150.487 533.661C156.538 536.479 169.764 537.183 177.669 535.134C190.162 531.869 201.289 524.506 209.732 513.877C218.711 502.544 223.054 490.572 223.787 474.821C224.909 450.171 214.758 424.24 198.605 410.346C196.555 408.553 195.433 407.337 196.116 407.529C208.707 411.691 217.101 413.035 230.033 413.035C241.55 413.035 248.724 412.075 257.362 409.386C280.054 402.343 295.524 388.065 308.945 361.814C319.095 341.902 325.439 314.755 325.439 290.681C325.439 248.295 309.091 209.687 280.298 184.204C276.248 180.619 266.683 174.344 261.412 171.847L257.655 170.055L259.899 165.253C275.077 132.791 276.785 87.1402 264.194 50.0048C258.631 33.4859 248.773 16.9671 237.548 5.37826L232.717 0.384188L246.04 0.192108L259.314 2.85432e-05L261.949 3.71357C271.221 16.903 279.908 36.3671 284.154 53.5262C292.206 85.9237 292.352 117.937 284.593 149.438C283.422 154.368 282.494 158.402 282.592 158.53C282.69 158.658 285.325 160.899 288.399 163.524C296.5 170.247 301.478 175.433 307.871 183.564C318.119 196.626 325 208.983 331.296 225.502C340.665 250.344 344.423 276.787 342.52 304.894Z" fill="#444444"/>
<path d="M773.82 1471.68C775.224 1487.17 779.976 1506.56 785.808 1520.26C791.91 1534.66 804.222 1551.81 816.48 1563.01C821.61 1567.68 831.114 1575.17 834.894 1577.54L837.378 1579.07L833.868 1583.3C817.506 1603.2 809.784 1629.5 812.97 1654.4C815.4 1673.6 823.068 1691.71 835.38 1707.71C838.62 1711.87 838.674 1711.94 837.432 1712.7C836.73 1713.15 833.868 1715.39 831.06 1717.76C816.372 1730.11 804.384 1746.94 796.176 1766.72C779.058 1808.13 783.27 1854.98 807.624 1893.82C812.16 1900.99 820.368 1911.36 825.606 1916.42L829.278 1920L851.094 1919.94L872.91 1919.87L869.67 1918.72C842.994 1909.25 820.854 1884.67 810.81 1853.44C808.434 1846.02 806.382 1836.03 805.626 1827.84C801.036 1779.01 834.084 1728.26 876.852 1718.4C879.93 1717.7 883.224 1717.12 884.25 1717.12C885.222 1717.12 886.248 1716.8 886.41 1716.48C886.572 1716.1 886.194 1715.84 885.492 1715.84C883.224 1715.84 876.258 1713.28 871.722 1710.72C854.982 1701.44 841.428 1684.22 835.002 1664.06C831.492 1653.06 830.898 1640.13 833.382 1629.25C839.646 1601.92 861.786 1580.16 885.87 1577.66L890.19 1577.22L885.87 1576.06C852.552 1567.23 823.284 1545.54 807.408 1517.95C804.816 1513.47 800.604 1503.23 798.714 1496.7C794.124 1481.28 792.45 1468.16 792.882 1450.88C793.206 1437.95 794.07 1430.72 796.5 1419.71C807.84 1369.02 844.668 1332.99 890.838 1327.3C896.886 1326.59 907.416 1326.78 913.194 1327.74L915.678 1328.13L915.408 1317.06C915.084 1300.22 916.866 1286.72 921.564 1271.81C925.83 1258.18 933.606 1242.43 940.95 1232.32C942.786 1229.82 944.838 1227.01 945.594 1225.98C946.296 1225.02 949.104 1221.95 951.75 1219.2C968.544 1202.05 988.578 1192.13 1011.42 1189.7C1021.63 1188.61 1028.54 1189.25 1044.9 1192.77C1046.2 1193.02 1046.41 1192.7 1048.09 1187.39C1052.08 1175.04 1059.05 1159.62 1065.96 1148.16C1068.55 1143.87 1073.79 1135.94 1078.38 1129.47L1080 1127.17L1079.89 1111.04L1079.73 1094.91L1073.79 1101.89C1057.7 1120.58 1044.04 1142.53 1036.1 1162.37L1034.37 1166.66L1024.65 1166.27C997.974 1165.25 973.242 1173.31 951.588 1190.21C937.926 1200.9 924.804 1216.9 915.516 1234.3C911.628 1241.6 905.094 1257.54 902.88 1264.96C899.748 1275.58 897.21 1288.83 896.13 1299.97L895.806 1303.55L891.648 1304C864.972 1306.62 842.454 1316.74 821.61 1335.36C816.102 1340.29 806.598 1351.1 801.738 1358.02C786.78 1379.2 776.304 1409.02 773.874 1437.38C773.226 1444.67 773.226 1464.7 773.82 1471.68Z" fill="#444444"/>
<path d="M276.603 1585.29C275.335 1596.85 271.042 1611.33 265.773 1621.56C260.261 1632.31 249.138 1645.11 238.064 1653.47C233.43 1656.96 224.844 1662.55 221.429 1664.32L219.185 1665.47L222.356 1668.62C237.137 1683.48 244.114 1703.12 241.235 1721.71C239.04 1736.04 232.113 1749.56 220.99 1761.51C218.063 1764.61 218.014 1764.66 219.136 1765.24C219.77 1765.57 222.356 1767.24 224.893 1769.01C238.162 1778.23 248.992 1790.8 256.407 1805.56C271.871 1836.48 268.066 1871.45 246.065 1900.46C241.967 1905.81 234.552 1913.55 229.82 1917.32L226.503 1920L206.794 1919.95L187.085 1919.9L190.012 1919.04C214.112 1911.97 234.113 1893.62 243.187 1870.31C245.333 1864.76 247.187 1857.31 247.87 1851.19C252.016 1814.74 222.161 1776.85 183.524 1769.49C180.744 1768.96 177.768 1768.53 176.841 1768.53C175.963 1768.53 175.036 1768.29 174.889 1768.05C174.743 1767.77 175.085 1767.58 175.719 1767.58C177.768 1767.58 184.061 1765.67 188.159 1763.75C203.282 1756.83 215.526 1743.97 221.332 1728.92C224.502 1720.7 225.039 1711.05 222.795 1702.93C217.136 1682.53 197.135 1666.28 175.377 1664.42L171.475 1664.08L175.377 1663.22C205.477 1656.63 231.918 1640.43 246.26 1619.84C248.602 1616.49 252.407 1608.85 254.114 1603.97C258.261 1592.46 259.773 1582.66 259.383 1569.76C259.09 1560.11 258.31 1554.71 256.114 1546.49C245.87 1508.65 212.599 1481.75 170.889 1477.49C165.425 1476.97 155.913 1477.11 150.693 1477.83L148.449 1478.12L148.693 1469.85C148.985 1457.28 147.375 1447.2 143.131 1436.07C139.277 1425.89 132.253 1414.14 125.618 1406.59C123.959 1404.72 122.106 1402.62 121.423 1401.86C120.788 1401.14 118.252 1398.85 115.861 1396.79C100.69 1383.99 82.5908 1376.58 61.9553 1374.76C52.7352 1373.95 46.4908 1374.43 31.7094 1377.06C30.5386 1377.25 30.3434 1377.01 28.8312 1373.04C25.2212 1363.82 18.9281 1352.31 12.6838 1343.75C10.3421 1340.55 5.61012 1334.63 1.46351 1329.8L0 1328.08L0.0975673 1316.04L0.243918 1304L5.61012 1309.21C20.1477 1323.16 32.4899 1339.55 39.6611 1354.36L41.2222 1357.56L50.0033 1357.28C74.1024 1356.51 96.4453 1362.53 116.008 1375.15C128.35 1383.13 140.204 1395.07 148.595 1408.07C152.107 1413.52 158.01 1425.41 160.01 1430.96C162.84 1438.89 165.133 1448.78 166.108 1457.09L166.401 1459.77L170.157 1460.1C194.257 1462.06 214.599 1469.61 233.43 1483.52C238.406 1487.19 246.992 1495.27 251.382 1500.43C264.895 1516.25 274.359 1538.51 276.555 1559.68C277.14 1565.13 277.14 1580.08 276.603 1585.29Z" fill="#444444"/>
<path d="M949.507 1728.39C950.105 1735.01 952.131 1743.3 954.616 1749.15C957.217 1755.31 962.464 1762.64 967.689 1767.42C969.875 1769.42 973.926 1772.62 975.537 1773.63L976.595 1774.29L975.099 1776.09C968.126 1784.6 964.835 1795.84 966.193 1806.48C967.228 1814.69 970.496 1822.43 975.744 1829.27C977.125 1831.05 977.148 1831.07 976.618 1831.4C976.319 1831.59 975.099 1832.55 973.903 1833.56C967.643 1838.84 962.533 1846.04 959.035 1854.49C951.74 1872.19 953.535 1892.21 963.914 1908.81C965.847 1911.88 969.346 1916.31 971.578 1918.47L973.143 1920L982.441 1919.97L991.739 1919.95L990.358 1919.45C978.989 1915.4 969.553 1904.9 965.272 1891.55C964.259 1888.38 963.385 1884.11 963.063 1880.61C961.106 1859.74 975.191 1838.05 993.419 1833.84C994.731 1833.54 996.135 1833.29 996.572 1833.29C996.986 1833.29 997.424 1833.15 997.493 1833.02C997.562 1832.85 997.401 1832.74 997.101 1832.74C996.135 1832.74 993.166 1831.65 991.233 1830.55C984.098 1826.59 978.321 1819.23 975.583 1810.61C974.087 1805.91 973.834 1800.38 974.892 1795.73C977.562 1784.05 986.998 1774.75 997.262 1773.69L999.104 1773.5L997.262 1773C983.062 1769.23 970.588 1759.96 963.822 1748.17C962.717 1746.25 960.922 1741.87 960.117 1739.08C958.161 1732.49 957.447 1726.89 957.631 1719.5C957.769 1713.97 958.138 1710.88 959.173 1706.18C964.006 1684.51 979.702 1669.11 999.38 1666.68C1001.96 1666.38 1006.45 1666.46 1008.91 1666.87L1009.97 1667.04L1009.85 1662.3C1009.71 1655.11 1010.47 1649.34 1012.48 1642.96C1014.29 1637.14 1017.61 1630.41 1020.74 1626.09C1021.52 1625.02 1022.39 1623.82 1022.72 1623.38C1023.02 1622.97 1024.21 1621.66 1025.34 1620.48C1032.5 1613.15 1041.04 1608.91 1050.77 1607.87C1055.12 1607.41 1058.07 1607.68 1065.04 1609.18C1065.59 1609.29 1065.68 1609.16 1066.4 1606.89C1068.1 1601.61 1071.07 1595.01 1074.02 1590.12C1075.12 1588.29 1077.35 1584.89 1079.31 1582.13L1080 1581.15L1079.95 1574.25L1079.88 1567.36L1077.35 1570.34C1070.49 1578.33 1064.67 1587.71 1061.29 1596.19L1060.55 1598.02L1056.41 1597.86C1045.04 1597.42 1034.5 1600.87 1025.27 1608.09C1019.45 1612.66 1013.86 1619.5 1009.9 1626.94C1008.24 1630.05 1005.46 1636.86 1004.51 1640.04C1003.18 1644.58 1002.1 1650.24 1001.64 1655L1001.5 1656.53L999.725 1656.72C988.356 1657.85 978.759 1662.17 969.875 1670.13C967.528 1672.23 963.477 1676.86 961.406 1679.81C955.031 1688.86 950.566 1701.61 949.53 1713.73C949.254 1716.85 949.254 1725.41 949.507 1728.39Z" fill="#444444"/>
<path d="M117.831 1775.47C117.291 1780.46 115.462 1786.71 113.218 1791.13C110.869 1795.77 106.131 1801.3 101.414 1804.91C99.4394 1806.42 95.7819 1808.83 94.3272 1809.59L93.3712 1810.09L94.722 1811.45C101.019 1817.87 103.991 1826.35 102.764 1834.37C101.829 1840.56 98.8783 1846.4 94.1402 1851.56C92.8933 1852.9 92.8725 1852.92 93.3505 1853.17C93.6206 1853.31 94.722 1854.04 95.8027 1854.8C101.455 1858.78 106.069 1864.21 109.228 1870.58C115.815 1883.93 114.194 1899.04 104.822 1911.56C103.076 1913.87 99.9174 1917.21 97.9016 1918.84L96.4885 1920L88.0927 1919.98L79.697 1919.96L80.9439 1919.59C91.21 1916.53 99.7304 1908.61 103.596 1898.54C104.51 1896.15 105.3 1892.93 105.591 1890.29C107.357 1874.55 94.6389 1858.18 78.18 1855.01C76.9954 1854.78 75.7278 1854.59 75.3329 1854.59C74.9588 1854.59 74.564 1854.49 74.5017 1854.39C74.4393 1854.26 74.5848 1854.18 74.8549 1854.18C75.7278 1854.18 78.4086 1853.36 80.1542 1852.53C86.5965 1849.54 91.8126 1843.99 94.2856 1837.49C95.6364 1833.94 95.865 1829.77 94.9091 1826.26C92.4984 1817.45 83.978 1810.44 74.7095 1809.63L73.0469 1809.49L74.7095 1809.12C87.5316 1806.27 98.7952 1799.28 104.905 1790.38C105.902 1788.94 107.523 1785.64 108.251 1783.53C110.017 1778.56 110.661 1774.33 110.495 1768.76C110.371 1764.59 110.038 1762.26 109.103 1758.71C104.739 1742.37 90.5657 1730.75 72.7976 1728.92C70.47 1728.69 66.4177 1728.75 64.194 1729.06L63.2381 1729.19L63.342 1725.62C63.4667 1720.19 62.7809 1715.84 60.9729 1711.03C59.3312 1706.63 56.3386 1701.56 53.5123 1698.3C52.8058 1697.49 52.0161 1696.59 51.7251 1696.26C51.455 1695.95 50.3743 1694.96 49.356 1694.07C42.893 1688.54 35.1831 1685.34 26.3925 1684.56C22.4648 1684.21 19.8048 1684.41 13.508 1685.55C13.0092 1685.63 12.9261 1685.53 12.2819 1683.81C10.744 1679.83 8.06322 1674.86 5.40319 1671.17C4.40568 1669.78 2.38987 1667.23 0.623445 1665.14L0 1664.4L0.041563 1659.2L0.103907 1654L2.38987 1656.25C8.58276 1662.27 13.8405 1669.35 16.8954 1675.75L17.5604 1677.13L21.301 1677.01C31.5671 1676.68 41.085 1679.28 49.4184 1684.72C54.6761 1688.17 59.726 1693.33 63.3004 1698.94C64.7967 1701.29 67.3113 1706.43 68.1633 1708.82C69.3686 1712.25 70.3454 1716.52 70.761 1720.11L70.8857 1721.26L72.4858 1721.41C82.7519 1722.25 91.4178 1725.51 99.4394 1731.52C101.559 1733.11 105.217 1736.59 107.087 1738.82C112.844 1745.65 116.875 1755.27 117.81 1764.41C118.06 1766.76 118.06 1773.22 117.831 1775.47Z" fill="#444444"/>
<path d="M826.356 161.105C828.632 184.719 843.738 208.401 863.976 219.937C871.565 224.268 881.322 227.651 890.682 229.173C895.452 229.951 896.753 230.121 900.692 230.391C902.752 230.527 904.487 230.73 904.559 230.797C904.668 230.865 904.27 232.151 903.728 233.639C900.078 243.247 900.439 256.611 904.559 265.542C909.908 277.18 920.93 286.687 934.843 291.727L938.71 293.115L937.807 294.502C937.301 295.28 935.855 297.851 934.554 300.287C924.797 318.793 924.399 340.478 933.47 358.138C944.203 379.114 968.091 393.763 994.291 395.522C999.061 395.826 1006.22 395.59 1009.87 394.981C1010.99 394.778 1011.2 394.947 1014.67 398.33C1029.35 412.844 1050.41 423.061 1074.12 427.154C1076.8 427.628 1079.25 428 1079.54 428C1079.98 428 1080.05 427.053 1079.98 421.843L1079.87 415.685L1077.12 415.279C1075.6 415.076 1072.28 414.4 1069.71 413.791C1047.05 408.479 1027.57 396.571 1017.17 381.685L1016.62 380.907L1011.93 382.023C1007.26 383.174 1007.16 383.174 999.098 383.174C992.051 383.14 990.497 383.038 987.353 382.395C965.669 377.862 949.01 364.634 942.758 346.974C938.927 336.114 939.072 324.239 943.119 312.635C947.239 300.997 955.768 290.205 965.922 283.879C967.766 282.694 968.958 281.849 968.561 281.984C964.079 283.473 954.286 283.845 948.431 282.762C939.18 281.037 930.94 277.146 924.688 271.53C918.039 265.542 914.823 259.216 914.281 250.893C913.449 237.868 920.966 224.166 932.928 216.825C934.446 215.878 935.277 215.235 934.771 215.336C925.447 217.535 919.232 218.246 909.655 218.246C901.126 218.246 895.814 217.738 889.417 216.317C872.613 212.596 861.157 205.052 851.219 191.181C843.702 180.659 839.004 166.315 839.004 153.594C839.004 131.198 851.11 110.798 872.432 97.3327C875.432 95.4382 882.515 92.1227 886.418 90.8033L889.2 89.856L887.538 87.3186C876.299 70.1662 875.034 46.0444 884.358 26.4223C888.478 17.6938 895.778 8.96531 904.089 2.84184L907.667 0.202997L897.801 0.101503L887.972 8.91462e-06L886.02 1.96223C879.154 8.93148 872.721 19.2162 869.577 28.283C863.614 45.4016 863.506 62.3173 869.252 78.9623C870.119 81.5673 870.806 83.6987 870.734 83.7663C870.661 83.834 868.71 85.0181 866.433 86.4052C860.434 89.9575 856.748 92.6978 852.014 96.9944C844.425 103.896 839.329 110.425 834.667 119.154C827.729 132.28 824.946 146.253 826.356 161.105Z" fill="#444444"/>
<path d="M229.678 203.639C227.616 233.488 213.938 263.423 195.613 278.005C188.741 283.479 179.905 287.755 171.43 289.679C167.11 290.663 165.932 290.877 162.365 291.219C160.5 291.39 158.929 291.647 158.864 291.732C158.765 291.818 159.125 293.443 159.616 295.324C162.921 307.469 162.594 324.361 158.864 335.65C154.021 350.361 144.04 362.377 131.441 368.749L127.94 370.502L128.758 372.256C129.216 373.239 130.525 376.489 131.703 379.568C140.538 402.96 140.898 430.371 132.685 452.694C122.966 479.207 101.335 497.723 77.6103 499.947C73.2908 500.332 66.8115 500.033 63.5064 499.263C62.4919 499.006 62.2956 499.22 59.1541 503.496C45.8682 521.842 26.7902 534.757 5.32337 539.931C2.90181 540.53 0.676587 541 0.414797 541C0.0221105 541 -0.0433371 539.803 0.0221105 533.217L0.120282 525.434L2.60729 524.921C3.9817 524.664 6.99229 523.809 9.31568 523.039C29.8335 516.326 47.4717 501.273 56.8961 482.457L57.387 481.473L61.6411 482.885C65.8625 484.338 65.9607 484.338 73.2581 484.338C79.6392 484.296 81.0463 484.167 83.8933 483.355C103.528 477.625 118.613 460.904 124.275 438.582C127.743 424.855 127.612 409.845 123.947 395.177C120.217 380.466 112.494 366.825 103.299 358.828C101.63 357.331 100.55 356.262 100.91 356.433C104.967 358.315 113.836 358.785 119.137 357.417C127.514 355.236 134.975 350.318 140.636 343.219C146.658 335.65 149.57 327.653 150.061 317.133C150.814 300.67 144.007 283.35 133.175 274.071C131.801 272.873 131.048 272.061 131.507 272.189C139.949 274.969 145.578 275.867 154.25 275.867C161.972 275.867 166.783 275.225 172.575 273.429C187.792 268.725 198.165 259.189 207.164 241.656C213.971 228.357 218.225 210.225 218.225 194.146C218.225 165.837 207.262 140.05 187.955 123.03C185.239 120.636 178.825 116.445 175.291 114.777L172.771 113.58L174.277 110.372C184.454 88.6913 185.599 58.201 177.156 33.3982C173.426 22.3652 166.816 11.3323 159.289 3.59211L156.049 0.256561L164.983 0.128271L173.884 -1.94535e-05L175.651 2.48026C181.868 11.2895 187.693 24.2896 190.54 35.7502C195.94 57.3885 196.038 78.7702 190.835 99.8098C190.049 103.103 189.428 105.797 189.493 105.882C189.559 105.968 191.326 107.464 193.387 109.218C198.819 113.708 202.157 117.172 206.444 122.603C213.316 131.326 217.93 139.58 222.152 150.613C228.435 167.205 230.954 184.866 229.678 203.639Z" fill="#444444"/>
</g>
<defs>
<clipPath id="clip0">
<rect width="1920" height="1080" fill="white" transform="translate(0 1920) rotate(-90)"/>
</clipPath>
</defs>
</svg>
