<svg width="1920" height="1080" viewBox="0 0 1920 1080" fill="none" xmlns="http://www.w3.org/2000/svg">
<g clip-path="url(#clip0)">
<path d="M1800.38 583.981C1797.93 585.203 1790.26 586.424 1783.51 586.424C1776.76 586.424 1767.87 588.135 1763.88 590.334C1758.06 593.755 1751 594.243 1719.72 593.022C1691.19 592.044 1687.21 592.289 1702.23 593.755C1713.28 594.976 1728.3 596.198 1735.97 596.931C1746.09 597.42 1749.47 598.642 1748.55 601.329C1746.4 607.438 1746.71 621.61 1749.47 626.741C1751 629.429 1751.92 636.271 1751.61 642.135C1751 651.176 1752.23 653.619 1761.43 660.949C1772.78 669.99 1788.11 672.433 1800.99 666.814C1804.37 665.347 1813.88 663.881 1822.16 663.393C1830.75 663.148 1838.72 661.194 1841.79 658.75C1844.55 656.551 1847.31 654.841 1848.23 654.841C1851.91 654.841 1909.88 662.66 1914.78 663.637C1917.54 664.37 1920 663.881 1920 662.66C1920 661.438 1907.12 658.995 1891.78 657.528C1848.84 653.13 1849.45 653.375 1853.14 644.823C1855.59 639.203 1855.28 635.049 1851.3 627.23C1845.47 615.013 1844.85 606.705 1850.07 605.483C1853.14 604.506 1866.94 605.483 1908.65 609.393C1916.62 610.126 1920 609.393 1920 607.194C1920 604.261 1901.9 602.307 1860.19 600.596C1850.37 600.108 1845.77 598.153 1836.88 590.822C1828.29 583.492 1823.69 581.537 1815.41 581.537C1809.58 581.537 1802.84 582.759 1800.38 583.981ZM1824.92 590.089C1835.96 594.732 1844.55 606.949 1842.09 614.524C1841.17 617.7 1841.48 621.121 1843.32 621.854C1844.85 622.587 1846.39 628.451 1846.39 634.56C1846.39 648.732 1834.43 658.506 1815.1 660.705C1807.74 661.438 1796.7 662.66 1790.57 663.637C1780.14 665.103 1777.99 664.37 1767.87 656.307C1758.36 648.732 1756.83 646.289 1758.36 639.203C1759.28 634.56 1758.98 629.918 1757.44 628.94C1754.68 626.497 1753.45 620.388 1754.07 611.347C1754.68 602.795 1770.94 590.822 1781.06 591.556C1785.97 591.8 1793.02 590.822 1797.31 589.356C1808.05 585.691 1814.49 585.936 1824.92 590.089Z" fill="#444444"/>
<path d="M476.625 646.045C471.411 648 463.743 652.887 459.45 657.285L451.782 665.104L440.127 658.751C411.296 643.113 368.664 656.063 359.156 683.43C354.862 695.647 357.315 696.624 363.45 685.14C370.197 672.19 378.785 665.593 394.427 660.706C410.683 655.819 429.085 657.529 442.581 665.104L451.475 670.235L458.836 662.905C480.306 640.914 527.846 643.846 545.021 668.281L551.769 677.81L543.488 682.453C538.274 685.385 537.66 686.362 541.341 685.14C566.798 677.321 595.935 684.652 608.817 702.244C617.098 713.484 618.938 722.281 612.804 719.348C610.657 718.371 613.111 721.303 618.325 725.946C632.127 737.674 634.887 743.294 634.887 757.466C634.887 777.258 622.926 790.697 599.616 797.538C592.868 799.493 589.801 801.204 592.868 801.204C595.935 801.448 603.296 799.738 609.43 797.783C615.258 795.828 620.779 794.118 621.085 794.118C622.926 794.118 617.405 812.932 614.338 817.33C609.124 825.149 595.935 833.946 592.255 831.991C590.108 831.014 588.881 832.968 588.881 837.122C588.881 848.606 577.839 863.756 565.878 868.154C555.756 871.819 554.836 871.819 540.727 866.932C530.913 863.267 518.951 861.312 505.149 861.068C485.213 860.824 483.986 860.335 476.012 852.027C461.903 837.611 439.513 826.86 413.443 822.462C405.775 820.995 404.855 820.018 404.855 810C404.855 787.032 384.612 759.421 358.235 746.226C340.753 737.43 312.229 732.299 291.986 734.253L275.117 735.964L276.651 724.724C280.331 700.29 305.175 684.896 336.766 687.339C356.702 689.05 353.021 685.14 332.165 682.697C300.574 679.032 270.21 699.557 269.903 724.968C269.903 731.321 268.676 733.032 263.769 733.032C256.715 733.032 256.408 731.81 261.009 721.059C264.996 712.262 261.009 702 251.194 694.914C248.127 692.715 245.366 688.561 245.366 685.873C245.366 683.43 240.766 677.566 234.938 672.923C221.443 662.172 204.574 661.439 190.772 670.724C185.558 674.145 178.811 676.833 175.437 676.833C172.063 676.833 165.315 679.52 160.408 682.697C153.967 687.095 141.085 690.271 108.881 695.403C85.2642 699.312 65.3281 702.977 64.408 703.71C63.4879 704.443 60.7275 704.932 58.2738 704.932C55.8201 704.932 53.9799 706.398 54.5933 708.109C54.9 710.063 53.9799 710.796 52.1396 709.819C50.2994 709.086 49.9927 707.131 50.9128 705.665C52.4463 703.71 51.2195 703.466 47.8457 704.443C44.7786 705.421 32.8169 707.376 21.162 709.086C3.98626 711.285 -0.000961124 712.507 -0.000961124 716.172C-0.000961124 721.792 2.146 721.792 30.0565 716.172C42.0182 713.484 52.1396 712.018 52.1396 712.507C52.1396 713.24 56.4335 712.018 61.3409 709.819C72.9958 704.932 72.9958 707.131 61.3409 715.928C52.1396 722.769 51.5262 729.367 59.5006 733.52C64.7147 736.208 60.4208 737.919 33.7371 743.05C10.1204 747.448 -6.13515 752.335 2.146 752.579C4.29297 752.579 18.4016 749.647 33.7371 746.226C49.0725 742.805 63.7946 740.606 66.555 741.339C74.8361 744.027 67.4751 746.715 36.8042 752.579C7.66677 758.199 -6.74856 762.109 3.06613 762.109C5.51981 762.109 22.0821 758.932 39.8712 754.778C57.6604 750.624 77.2898 746.226 83.7307 744.76C91.3984 743.05 96.9192 739.873 98.7594 736.452C101.213 732.543 106.427 729.611 114.708 727.9C134.951 723.747 138.632 722.769 137.405 721.792C136.791 721.303 129.43 722.525 120.842 724.235L105.814 727.412L98.4527 718.127C94.4655 713.24 88.3313 707.864 84.6508 706.643C78.5166 704.199 78.5166 704.199 84.3441 704.199C87.7179 704.443 103.053 701.756 118.389 698.335L146.299 691.982L145.993 702.244C145.686 714.95 147.219 718.127 156.114 724.968C160.101 728.145 162.862 731.321 161.942 732.054C161.021 732.543 153.354 737.43 145.073 742.317C125.443 754.045 111.641 766.751 101.52 782.389C93.5454 794.362 92.3185 795.339 71.769 800.471C60.1141 803.647 45.392 806.091 38.9511 806.091C32.5102 806.335 21.162 807.557 13.4942 809.023C1.22588 811.466 -0.000961124 812.443 -0.000961124 819.041C-0.000961124 824.905 0.919167 826.127 4.90639 824.905C47.8457 811.71 101.827 820.018 134.338 844.697C141.392 850.072 147.219 853.738 147.219 852.76C147.219 850.072 121.456 830.281 109.801 824.172C99.9863 818.796 99.0661 817.33 101.213 811.466C109.801 787.032 130.657 765.041 155.807 753.312C168.689 747.204 169.609 747.204 177.89 750.869C191.692 757.466 206.721 756.244 218.683 747.692C229.111 740.362 240.459 738.652 252.114 742.317C256.715 743.783 254.874 745.738 242.299 754.534C234.018 760.398 225.43 767.484 223.59 770.416C221.443 773.593 224.817 771.882 231.565 766.262C249.967 751.357 272.97 744.271 300.574 744.271C316.83 744.271 327.565 745.982 337.993 749.403C368.357 760.398 392.894 785.81 397.188 811.71L399.334 822.95L384.612 824.661C351.181 828.57 324.804 843.964 310.082 868.154C301.188 882.814 292.906 914.579 300.267 906.516C302.108 904.561 303.641 900.652 303.641 897.719C303.641 886.968 314.069 869.376 326.644 858.136C364.983 824.172 432.459 824.172 472.331 858.38C480.612 865.222 480.306 865.955 468.344 869.376C462.823 871.086 454.235 875.729 449.021 880.127L440.127 887.701L450.862 881.593C456.689 878.172 466.197 874.262 472.025 872.552C487.053 868.643 516.191 869.131 530.606 873.774C541.034 877.195 542.568 878.416 541.034 883.548C538.581 891.611 541.648 900.896 548.088 902.606C552.996 904.072 552.996 904.072 548.088 899.674C542.568 895.032 541.341 887.457 545.328 883.303C549.929 878.172 567.411 869.864 573.239 869.864C584.894 869.864 601.456 888.679 597.162 897.475C596.242 899.186 589.801 903.828 582.747 907.738C570.172 914.579 569.558 914.824 560.97 910.914C556.063 908.471 552.076 907.738 552.076 908.959C552.076 912.624 564.651 916.778 572.319 915.557C578.759 914.579 579.68 915.557 581.52 925.33C583.36 935.837 582.44 946.588 578.146 956.606C577.226 959.294 578.453 958.317 581.213 954.652C585.507 948.543 587.347 948.054 595.935 949.276C608.817 951.475 637.954 961.982 637.954 964.425C637.648 965.403 635.194 972.489 631.82 979.819C628.446 987.149 625.993 997.167 625.993 1001.81C626.299 1010.12 626.299 1010.12 629.06 999.611C635.501 973.466 660.344 950.253 692.549 940.724C726.287 930.462 768.612 938.036 794.069 958.805L806.951 969.312L787.628 971.511L768.306 973.466L792.842 974.932C822.593 976.643 841.303 982.995 858.785 996.923C882.708 1015.98 892.523 1043.59 885.469 1070.96C883.322 1079.27 883.628 1080.24 888.229 1079.51C893.443 1078.78 895.897 1074.62 900.191 1059.23L902.338 1051.9L908.165 1058.01C913.379 1063.14 913.379 1062.41 907.245 1053.12C901.418 1044.08 900.191 1038.22 900.191 1020.14C900.191 1001.08 901.418 996.434 908.472 985.928C929.942 953.186 975.641 937.059 1020.11 945.855C1033.3 948.543 1036.68 951.231 1030.54 954.163C1026.55 956.118 1015.21 973.71 1015.21 977.864C1015.21 979.575 1019.5 975.421 1024.41 968.335C1040.36 946.344 1068.27 934.371 1100.17 936.326C1133.9 938.281 1158.75 952.941 1171.94 978.597C1175.31 985.439 1177.46 988.127 1176.84 984.217C1175.31 975.91 1184.51 972.244 1211.81 970.778L1232.05 969.557L1234.2 981.285C1235.73 991.792 1247.39 1015.49 1249.84 1013.54C1250.45 1013.05 1248 1006.21 1244.63 998.145C1223.77 948.787 1277.75 895.032 1343.08 899.919C1352.59 900.652 1364.24 902.362 1369.15 904.072L1378.35 906.76L1369.15 911.158C1364.24 913.602 1357.49 918.244 1354.12 921.176C1348.6 926.552 1348.91 926.308 1359.03 920.443C1382.64 906.271 1419.45 902.362 1448.89 910.67C1469.75 916.534 1494.29 934.86 1502.87 950.986C1510.85 965.647 1515.45 1001.81 1508.4 993.502C1497.35 980.796 1493.67 978.842 1500.42 989.593C1509.62 1004.25 1509.93 1027.95 1501.03 1043.35C1493.98 1055.32 1477.72 1069 1462.08 1075.6L1452.27 1079.76L1464.54 1080C1481.1 1080 1496.74 1069.74 1508.09 1051.41C1516.68 1037 1519.13 1019.89 1519.13 972C1519.13 923.62 1454.72 885.991 1394.3 899.43C1384.48 901.629 1380.19 901.14 1367.92 896.986C1359.64 894.054 1347.99 891.855 1342.16 891.855C1328.05 891.855 1328.36 888.434 1342.47 878.172C1357.19 867.421 1377.74 859.846 1397.37 858.38L1413.01 856.914L1415.77 871.33L1418.22 885.747L1420.06 869.62C1421.29 860.091 1424.97 848.606 1429.57 841.52C1436.01 831.014 1438.77 829.059 1452.27 825.638C1475.58 819.774 1477.72 818.796 1479.87 811.222C1481.4 805.113 1483.55 804.136 1496.13 802.67C1524.04 799.738 1558.7 810.244 1574.64 826.371C1578.94 830.769 1582.62 833.213 1582.62 831.747C1582.62 825.882 1556.86 806.335 1541.21 799.982C1532.01 796.561 1524.34 792.652 1524.34 791.674C1524.34 790.697 1529.25 784.833 1535.08 778.724C1553.48 759.665 1592.74 748.425 1620.65 754.778C1627.4 756.244 1631.39 756.244 1629.85 755.023C1625.56 751.602 1595.5 747.448 1586.91 749.158C1577.4 751.113 1577.71 748.67 1588.45 735.231C1600.1 720.326 1617.58 709.33 1637.52 704.199C1651.63 700.778 1654.39 700.534 1655.62 703.71C1656.54 705.421 1660.52 709.575 1664.2 712.751C1668.19 715.928 1673.71 721.792 1676.17 725.701C1684.45 738.407 1707.14 738.407 1716.96 725.701L1721.86 719.593L1714.2 724.968C1704.69 731.81 1688.74 732.299 1682.3 726.19C1658.99 705.176 1657.15 697.357 1672.48 686.118C1695.49 668.769 1704.69 668.525 1722.17 685.385C1733.83 696.869 1736.59 710.308 1728.31 715.928C1724.63 718.371 1724.93 720.081 1731.99 727.167L1739.96 735.719L1732.29 742.317C1723.71 749.647 1714.5 760.154 1714.5 762.353C1714.5 763.33 1720.94 758.932 1729.23 752.579C1770.94 720.57 1831.97 735.475 1847.62 781.9L1852.22 795.339V784.344C1852.22 771.882 1846.39 756.977 1839.03 750.38C1832.89 745.005 1835.35 742.805 1855.59 736.208C1865.4 733.032 1876.75 731.81 1894.85 732.054C1919.08 732.054 1920 732.054 1920 726.434C1920 720.081 1920 720.081 1877.06 719.837C1854.67 719.593 1835.65 717.394 1796.09 710.063C1748.24 701.511 1743.33 700.045 1734.44 692.715C1729.23 688.317 1723.09 681.719 1720.94 678.299C1713.28 666.814 1691.5 665.104 1681.07 675.367C1678.93 677.566 1675.55 678.543 1673.71 677.566C1672.18 676.833 1671.56 677.321 1672.48 678.543C1674.94 681.475 1666.35 685.14 1659.3 684.407C1655.62 684.163 1655.62 684.407 1658.68 686.118C1661.44 687.584 1657.15 689.294 1644.57 691.249C1622.8 694.67 1600.71 705.665 1588.14 719.348C1582.93 724.968 1577.71 729.122 1575.87 728.633C1574.34 728.389 1573.72 729.122 1574.95 730.344C1575.87 731.81 1575.87 735.719 1574.64 739.385C1573.11 744.027 1568.51 747.448 1556.55 751.602C1541.21 757.222 1519.74 772.86 1512.38 783.611C1510.24 787.276 1504.71 788.986 1493.37 790.208C1479.87 791.674 1476.8 791.186 1471.59 787.032C1460.86 777.747 1431.1 782.633 1424.97 794.606C1422.52 799.249 1420.06 800.959 1418.84 799.249C1414.54 793.873 1392.46 786.787 1380.19 786.787C1365.78 786.787 1349.83 791.43 1343.69 797.538C1339.71 801.448 1338.48 800.959 1328.36 793.14C1305.35 775.303 1275.3 774.57 1253.83 790.941C1245.24 797.294 1245.24 797.294 1234.5 793.385C1202.61 781.412 1164.27 797.783 1158.13 825.882C1156.6 833.701 1154.76 834.923 1143.1 837.367C1136.05 839.077 1125.93 842.742 1121.33 845.674C1111.51 851.783 1101.39 867.91 1101.09 876.95C1101.09 880.371 1095.87 887.213 1088.82 893.321C1079.31 901.385 1076.24 906.272 1074.71 916.045C1072.87 926.796 1071.64 928.507 1063.67 930.706C1058.76 932.172 1050.78 935.593 1045.57 938.281C1036.98 943.167 1035.76 943.412 1021.95 939.991C996.497 933.394 985.456 932.905 963.986 937.303C944.357 941.213 943.13 941.213 940.063 937.059C932.395 926.308 914.913 913.113 900.804 907.493C860.932 891.367 816.152 896.253 783.641 920.199C775.667 926.063 772.6 926.552 754.811 926.063C698.683 924.597 679.973 928.262 655.743 945.367L644.395 953.186L629.673 947.077C621.392 943.9 609.737 940.48 603.603 939.502C592.868 937.792 592.868 937.792 590.721 923.131C589.188 910.181 589.494 907.982 595.322 904.317C604.83 898.208 603.603 888.923 591.641 877.439L581.52 867.421L586.734 858.869C589.494 853.982 591.948 848.118 591.948 845.43C591.948 842.986 596.549 838.588 602.376 835.656C614.951 829.548 625.686 813.421 625.686 800.715C625.686 795.339 628.753 788.498 633.354 782.878C637.341 777.991 641.635 770.416 642.862 766.262C645.009 755.756 639.488 739.873 630.593 731.321C626.606 727.656 622.619 720.081 621.699 714.95C617.405 693.204 590.108 675.122 565.571 677.321C556.37 678.299 554.836 677.566 552.076 670.724C548.395 661.683 532.446 648.733 520.485 645.312C508.83 641.647 488.28 642.136 476.625 646.045ZM221.75 672.679C232.178 676.344 239.232 681.719 240.459 687.339C240.766 689.05 244.14 693.692 247.82 697.357C257.635 707.62 257.021 720.814 245.673 730.344C240.766 734.498 234.018 737.919 230.338 737.919C226.657 737.919 223.897 738.896 223.897 740.362C223.897 745.005 204.881 750.624 193.839 749.158C181.264 747.692 173.596 742.805 168.382 732.299C166.235 728.145 161.942 722.769 158.874 720.326C152.127 714.95 151.513 699.557 158.261 691.982C162.555 687.095 180.958 677.566 180.958 680.253C180.958 680.986 185.865 678.787 191.999 675.611C204.881 668.525 208.255 668.281 221.75 672.679ZM1787.81 714.95C1808.97 719.837 1828.6 724.48 1831.05 725.213C1835.35 726.434 1837.8 726.923 1844.55 727.656C1846.08 727.9 1843.63 730.344 1839.03 733.276C1831.05 738.163 1831.05 738.163 1822.77 733.52C1808.97 725.946 1794.25 723.258 1769.1 723.991C1750.39 724.235 1744.25 723.502 1740.27 720.57C1734.44 715.683 1736.89 706.154 1744.25 706.154C1746.71 706.154 1766.34 710.063 1787.81 714.95ZM1311.79 789.475C1319.16 792.407 1327.44 797.294 1330.2 800.471C1334.49 805.846 1335.72 806.091 1340.01 803.158C1363.63 786.543 1395.53 788.253 1416.38 807.312C1428.04 817.819 1428.65 822.706 1419.45 825.882C1414.24 827.348 1413.93 828.081 1417.61 828.081C1422.21 828.326 1422.21 829.059 1417.61 837.611C1413.01 846.652 1412.4 846.896 1396.45 847.14C1371.3 847.629 1351.67 853.982 1332.34 867.91C1323.14 874.751 1313.63 883.303 1311.18 886.968C1308.73 890.878 1303.51 894.299 1298.3 895.032C1274.07 898.941 1243.09 924.109 1234.5 946.833L1229.9 959.05L1216.1 959.294C1208.43 959.538 1195.86 961.005 1188.19 962.715C1175.31 965.647 1173.78 965.403 1171.02 961.738C1160.89 947.321 1129.3 928.507 1114.89 928.507C1112.43 928.507 1110.29 927.529 1110.29 926.063C1110.29 924.842 1103.85 924.353 1094.95 925.33C1080.54 926.552 1079.62 926.308 1079.62 921.421C1079.62 915.068 1089.43 898.941 1096.18 894.543C1098.63 892.833 1102.62 892.344 1104.46 893.321C1107.22 894.543 1107.53 893.321 1106.3 889.167C1100.47 871.819 1120.41 847.873 1144.94 842.498C1157.83 839.81 1159.05 838.833 1160.89 830.281C1163.96 817.086 1174.39 805.846 1190.03 799.493C1205.37 793.385 1217.02 792.652 1232.05 797.05C1240.02 799.493 1241.86 800.959 1240.33 805.113C1239.41 808.045 1240.94 807.068 1244.63 802.425C1251.99 793.385 1273.46 784.344 1287.87 784.344C1293.7 784.344 1304.43 786.787 1311.79 789.475ZM1466.99 788.742C1469.75 791.186 1473.12 798.271 1474.04 804.624C1476.19 815.864 1475.88 816.109 1465.15 819.774C1444.91 826.371 1433.86 823.683 1430.8 811.466C1430.18 808.534 1428.65 805.113 1427.73 803.891C1424.05 799.249 1429.88 791.186 1439.39 788.009C1452.88 783.367 1461.16 783.611 1466.99 788.742ZM897.124 916.778C905.712 920.443 918.593 928.262 925.954 934.615L938.836 945.855L923.807 957.339C906.325 970.534 895.897 985.683 892.83 1001.32L890.989 1012.07L881.175 1001.08C869.213 988.127 847.13 975.665 828.421 971.756C818.606 969.557 813.085 966.38 806.031 958.805C801.124 953.186 792.843 946.344 787.628 943.167L778.427 937.792L785.481 931.683C794.376 924.353 810.018 916.534 824.74 912.136C842.223 907.005 878.414 909.204 897.124 916.778Z" fill="#444444"/>
<path d="M1883.81 835.659C1876.75 838.102 1870 842.012 1869.08 844.211C1868.16 846.165 1864.18 847.876 1860.5 847.876C1857.12 847.876 1848.23 850.075 1841.17 852.518C1813.88 862.536 1808.36 889.903 1829.83 907.984C1835.65 912.871 1840.25 919.224 1840.25 922.156C1840.25 925.088 1843.01 930.708 1846.39 935.107C1858.96 951.722 1889.94 956.364 1909.26 944.392C1923.37 936.084 1923.06 932.174 1908.96 938.772C1895.46 945.125 1874.6 945.613 1863.26 939.749C1853.44 934.618 1843.32 921.912 1843.32 914.337C1843.32 911.161 1842.09 909.45 1840.25 910.184C1835.35 912.627 1824.92 896.256 1824.92 885.993C1824.92 880.618 1827.68 873.043 1831.36 868.156C1838.11 859.36 1853.44 851.541 1860.19 853.74C1862.34 854.229 1867.24 852.274 1870.92 849.098C1880.13 841.279 1896.38 837.125 1909.57 839.079C1917.54 840.301 1920 839.812 1920 837.369C1920 829.55 1902.82 828.817 1883.81 835.659Z" fill="#444444"/>
<path d="M1785.96 960.028C1780.75 962.716 1775.54 967.359 1774.31 970.535C1773.08 973.712 1769.1 978.843 1765.11 982.264C1754.07 991.793 1750.69 999.123 1752.53 1007.68C1754.68 1016.72 1764.19 1024.78 1775.84 1027.47C1780.14 1028.44 1786.58 1031.87 1790.56 1034.8C1798.85 1041.39 1812.95 1044.08 1823.08 1040.91C1831.97 1038.22 1843.32 1027.22 1843.32 1020.87C1843.32 1018.43 1845.47 1015.74 1847.92 1014.76C1854.67 1012.81 1861.72 1001.08 1861.72 992.037C1861.72 983.485 1847.61 970.046 1838.41 970.046C1835.34 970.046 1829.21 967.359 1824.92 963.938C1813.57 955.386 1798.54 953.92 1785.96 960.028ZM1816.64 963.205C1820.32 964.671 1825.22 967.359 1827.37 969.313C1829.52 971.024 1833.2 972.49 1835.65 972.49C1837.8 972.49 1843.32 975.911 1847.92 980.309C1854.97 986.906 1855.89 989.838 1854.67 997.902C1853.75 1003.52 1850.37 1009.63 1847.31 1011.58C1844.24 1013.54 1840.25 1018.43 1838.72 1022.58C1834.12 1033.33 1816.33 1039.93 1801.91 1036.02C1796.09 1034.55 1789.34 1031.13 1787.19 1028.44C1784.74 1026 1782.28 1024.54 1781.06 1025.27C1777.38 1028.44 1763.27 1017.69 1760.2 1009.39C1757.44 1001.81 1757.75 998.879 1761.73 992.526C1764.49 988.128 1768.18 984.707 1769.71 984.707C1771.24 984.707 1773.39 982.264 1774.62 979.087C1780.14 964.182 1800.69 956.363 1816.64 963.205Z" fill="#444444"/>
</g>
<path d="M119.615 530.388C122.069 529.082 129.736 527.776 136.484 527.776C143.231 527.776 152.125 525.947 156.113 523.595C161.94 519.937 168.994 519.415 200.278 520.721C228.801 521.766 232.788 521.505 217.76 519.937C206.719 518.631 191.69 517.325 184.023 516.541C173.901 516.018 170.528 514.712 171.448 511.838C173.595 505.306 173.288 490.152 170.528 484.665C168.994 481.791 168.074 474.476 168.381 468.205C168.994 458.538 167.767 455.925 158.566 448.087C147.218 438.42 131.883 435.807 119.002 441.816C115.628 443.384 106.12 444.952 97.8391 445.474C89.2514 445.736 81.2771 447.826 78.2101 450.438C75.4498 452.79 72.6895 454.619 71.7694 454.619C68.0889 454.619 10.1221 446.258 5.21488 445.213C2.45455 444.429 0.000930349 444.952 0.000930349 446.258C0.000930349 447.564 12.8824 450.177 28.2176 451.745C71.156 456.448 70.5426 456.187 66.8621 465.331C64.4085 471.34 64.7152 475.782 68.7023 484.143C74.5297 497.207 75.1431 506.09 69.9291 507.396C66.8621 508.441 53.0605 507.396 11.3489 503.216C3.37466 502.432 0.000930349 503.216 0.000930349 505.567C0.000930349 508.703 18.0964 510.793 59.808 512.622C69.6224 513.144 74.223 515.235 83.1174 523.073C91.705 530.911 96.3056 533.001 104.587 533.001C110.414 533.001 117.161 531.695 119.615 530.388ZM95.0788 523.857C84.0375 518.892 75.4498 505.829 77.9034 497.729C78.8235 494.333 78.5168 490.675 76.6766 489.891C75.1431 489.107 73.6096 482.836 73.6096 476.305C73.6096 461.151 85.571 450.7 104.893 448.348C112.254 447.564 123.295 446.258 129.429 445.213C139.857 443.645 142.004 444.429 152.125 453.051C161.633 461.151 163.167 463.763 161.633 471.34C160.713 476.305 161.02 481.269 162.553 482.314C165.314 484.927 166.54 491.459 165.927 501.126C165.314 510.27 149.058 523.073 138.937 522.289C134.03 522.028 126.976 523.073 122.682 524.64C111.947 528.56 105.507 528.298 95.0788 523.857Z" fill="#444444"/>
<path d="M1443.34 464.023C1448.56 461.933 1456.23 456.707 1460.52 452.004L1468.19 443.643L1479.84 450.437C1508.67 467.158 1551.3 453.311 1560.81 424.048C1565.1 410.984 1562.65 409.939 1556.52 422.219C1549.77 436.066 1541.18 443.121 1525.54 448.346C1509.28 453.572 1490.88 451.743 1477.39 443.643L1468.49 438.157L1461.13 445.995C1439.66 469.51 1392.12 466.374 1374.95 440.247L1368.2 430.057L1376.48 425.093C1381.7 421.958 1382.31 420.913 1378.63 422.219C1353.17 430.58 1324.04 422.741 1311.15 403.93C1302.87 391.911 1301.03 382.505 1307.17 385.641C1309.31 386.686 1306.86 383.55 1301.65 378.586C1287.85 366.045 1285.08 360.036 1285.08 344.882C1285.08 323.719 1297.05 309.349 1320.36 302.033C1327.1 299.943 1330.17 298.114 1327.1 298.114C1324.04 297.852 1316.68 299.681 1310.54 301.772C1304.71 303.862 1299.19 305.691 1298.89 305.691C1297.05 305.691 1302.57 285.573 1305.63 280.87C1310.85 272.509 1324.04 263.103 1327.72 265.193C1329.86 266.238 1331.09 264.148 1331.09 259.706C1331.09 247.427 1342.13 231.228 1354.09 226.525C1364.21 222.606 1365.13 222.606 1379.24 227.831C1389.06 231.75 1401.02 233.84 1414.82 234.102C1434.76 234.363 1435.98 234.885 1443.96 243.769C1458.07 259.184 1480.45 270.68 1506.52 275.383C1514.19 276.951 1515.11 277.996 1515.11 288.708C1515.11 313.268 1535.35 342.792 1561.73 356.9C1579.21 366.306 1607.74 371.793 1627.98 369.703L1644.85 367.874L1643.31 379.893C1639.63 406.02 1614.79 422.48 1583.2 419.867C1563.26 418.039 1566.94 422.219 1587.8 424.832C1619.39 428.751 1649.75 406.804 1650.06 379.631C1650.06 372.838 1651.29 371.009 1656.2 371.009C1663.25 371.009 1663.56 372.316 1658.96 383.812C1654.97 393.218 1658.96 404.191 1668.77 411.768C1671.84 414.119 1674.6 418.561 1674.6 421.435C1674.6 424.048 1679.2 430.318 1685.03 435.283C1698.52 446.779 1715.39 447.562 1729.19 437.634C1734.4 433.976 1741.15 431.102 1744.53 431.102C1747.9 431.102 1754.65 428.228 1759.55 424.832C1766 420.129 1778.88 416.732 1811.08 411.245C1834.7 407.065 1854.63 403.146 1855.55 402.362C1856.47 401.578 1859.23 401.056 1861.69 401.056C1864.14 401.056 1865.98 399.488 1865.37 397.659C1865.06 395.569 1865.98 394.785 1867.82 395.83C1869.66 396.614 1869.97 398.704 1869.05 400.272C1867.51 402.362 1868.74 402.623 1872.11 401.578C1875.18 400.533 1887.14 398.443 1898.8 396.614C1915.97 394.263 1919.96 392.956 1919.96 389.037C1919.96 383.028 1917.81 383.028 1889.9 389.037C1877.94 391.911 1867.82 393.479 1867.82 392.956C1867.82 392.172 1863.53 393.479 1858.62 395.83C1846.96 401.056 1846.96 398.704 1858.62 389.298C1867.82 381.983 1868.43 374.928 1860.46 370.487C1855.25 367.613 1859.54 365.784 1886.22 360.297C1909.84 355.594 1926.09 350.369 1917.81 350.107C1915.67 350.107 1901.56 353.243 1886.22 356.9C1870.89 360.558 1856.17 362.91 1853.41 362.126C1845.12 359.252 1852.49 356.378 1883.16 350.107C1912.29 344.098 1926.71 339.918 1916.89 339.918C1914.44 339.918 1897.88 343.314 1880.09 347.756C1862.3 352.197 1842.67 356.9 1836.23 358.468C1828.56 360.297 1823.04 363.694 1821.2 367.351C1818.75 371.532 1813.53 374.667 1805.25 376.496C1785.01 380.938 1781.33 381.983 1782.56 383.028C1783.17 383.55 1790.53 382.244 1799.12 380.415L1814.15 377.018L1821.51 386.947C1825.5 392.172 1831.63 397.92 1835.31 399.227C1841.44 401.84 1841.44 401.84 1835.62 401.84C1832.24 401.578 1816.91 404.452 1801.57 408.11L1773.66 414.903L1773.97 403.93C1774.28 390.343 1772.74 386.947 1763.85 379.631C1759.86 376.235 1757.1 372.838 1758.02 372.054C1758.94 371.532 1766.61 366.306 1774.89 361.081C1794.52 348.54 1808.32 334.953 1818.44 318.232C1826.42 305.429 1827.64 304.384 1848.19 298.898C1859.85 295.501 1874.57 292.888 1881.01 292.888C1887.45 292.627 1898.8 291.321 1906.47 289.753C1918.73 287.14 1919.96 286.095 1919.96 279.041C1919.96 272.77 1919.04 271.464 1915.05 272.77C1872.11 286.879 1818.13 277.996 1785.62 251.607C1778.57 245.859 1772.74 241.94 1772.74 242.985C1772.74 245.859 1798.51 267.022 1810.16 273.554C1819.97 279.302 1820.89 280.87 1818.75 287.14C1810.16 313.268 1789.3 336.782 1764.15 349.323C1751.27 355.855 1750.35 355.855 1742.07 351.936C1728.27 344.882 1713.24 346.188 1701.28 355.333C1690.85 363.171 1679.5 365 1667.85 361.081C1663.25 359.513 1665.09 357.423 1677.66 348.017C1685.95 341.746 1694.53 334.17 1696.37 331.034C1698.52 327.638 1695.15 329.467 1688.4 335.476C1670 351.414 1646.99 358.991 1619.39 358.991C1603.14 358.991 1592.4 357.162 1581.97 353.504C1551.61 341.746 1527.07 314.574 1522.78 286.879L1520.63 274.86L1535.35 273.031C1568.79 268.851 1595.16 252.391 1609.88 226.525C1618.78 210.848 1627.06 176.883 1619.7 185.505C1617.86 187.595 1616.32 191.775 1616.32 194.91C1616.32 206.407 1605.9 225.218 1593.32 237.237C1554.98 273.554 1487.51 273.554 1447.64 236.976C1439.36 229.66 1439.66 228.876 1451.62 225.218C1457.15 223.389 1465.73 218.425 1470.95 213.722L1479.84 205.623L1469.11 212.155C1463.28 215.812 1453.77 219.993 1447.94 221.822C1432.92 226.002 1403.78 225.48 1389.36 220.515C1378.94 216.857 1377.4 215.551 1378.94 210.064C1381.39 201.442 1378.32 191.514 1371.88 189.685C1366.97 188.117 1366.97 188.117 1371.88 192.82C1377.4 197.784 1378.63 205.884 1374.64 210.326C1370.04 215.812 1352.56 224.696 1346.73 224.696C1335.08 224.696 1318.52 204.578 1322.81 195.172C1323.73 193.343 1330.17 188.379 1337.22 184.198C1349.8 176.883 1350.41 176.621 1359 180.802C1363.91 183.414 1367.89 184.198 1367.89 182.892C1367.89 178.973 1355.32 174.531 1347.65 175.837C1341.21 176.883 1340.29 175.837 1338.45 165.386C1336.61 154.152 1337.53 142.656 1341.83 131.943C1342.75 129.069 1341.52 130.114 1338.76 134.034C1334.46 140.565 1332.62 141.088 1324.04 139.782C1311.15 137.43 1282.02 126.195 1282.02 123.583C1282.32 122.538 1284.78 114.961 1288.15 107.122C1291.53 99.2841 1293.98 88.5719 1293.98 83.6077C1293.67 74.7244 1293.67 74.7244 1290.91 85.9592C1284.47 113.916 1259.63 138.737 1227.42 148.926C1193.69 159.9 1151.36 151.8 1125.91 129.592L1113.02 118.357L1132.35 116.006L1151.67 113.916L1127.13 112.348C1097.38 110.519 1078.67 103.726 1061.19 88.8332C1037.27 68.4538 1027.45 38.9298 1034.51 9.66714C1036.66 0.783822 1036.35 -0.261274 1031.75 0.522548C1026.53 1.30637 1024.08 5.74803 1019.79 22.2083L1017.64 30.0465L1011.81 23.5147C1006.6 18.0279 1006.6 18.8117 1012.73 28.7401C1018.56 38.4073 1019.79 44.6779 1019.79 64.0121C1019.79 84.3915 1018.56 89.3557 1011.51 100.591C990.037 135.601 944.338 152.845 899.866 143.439C886.678 140.565 883.304 137.691 889.438 134.556C893.425 132.466 904.773 113.654 904.773 109.213C904.773 107.384 900.48 111.825 895.572 119.402C879.624 142.917 851.714 155.719 819.817 153.629C786.079 151.539 761.236 135.863 748.048 108.429C744.674 101.113 742.528 98.2391 743.141 102.419C744.674 111.303 735.473 115.222 708.177 116.79L687.934 118.096L685.788 105.555C684.254 94.3199 672.599 68.9764 670.146 71.0666C669.532 71.5891 671.986 78.9048 675.36 87.5268C696.215 140.304 642.236 197.784 576.908 192.559C567.4 191.775 555.746 189.946 550.838 188.117L541.637 185.243L550.838 180.54C555.746 177.928 562.493 172.963 565.867 169.828C571.387 164.08 571.081 164.341 560.96 170.612C537.343 185.766 500.539 189.946 471.096 181.063C450.24 174.792 425.704 155.197 417.116 137.953C409.142 122.276 404.541 83.6077 411.595 92.491C422.637 106.077 426.317 108.167 419.57 96.6714C410.368 80.995 410.062 55.6514 418.956 39.1911C426.01 26.3887 442.266 11.7573 457.907 4.70293L467.722 0.261274L455.454 0C438.892 0 423.25 10.9735 411.902 30.5691C403.314 45.9842 400.861 64.2734 400.861 115.483C400.861 167.215 465.268 207.452 525.689 193.082C535.503 190.73 539.797 191.253 552.065 195.694C560.346 198.83 572.001 201.181 577.828 201.181C591.937 201.181 591.63 204.839 577.522 215.812C562.8 227.308 542.251 235.408 522.622 236.976L506.98 238.543L504.22 223.128L501.766 207.713L499.926 224.957C498.699 235.147 495.018 247.427 490.418 255.003C483.977 266.238 481.217 268.328 467.722 271.986C444.412 278.257 442.266 279.302 440.119 287.401C438.585 293.933 436.438 294.978 423.863 296.546C395.953 299.681 361.296 288.447 345.347 271.202C341.054 266.5 337.373 263.887 337.373 265.454C337.373 271.725 363.136 292.627 378.778 299.42C387.979 303.078 395.647 307.258 395.647 308.303C395.647 309.349 390.739 315.619 384.912 322.151C366.51 342.53 327.252 354.549 299.342 347.756C292.595 346.188 288.607 346.188 290.141 347.495C294.435 351.152 324.492 355.594 333.079 353.765C342.587 351.675 342.28 354.288 331.546 368.658C319.891 384.595 302.409 396.353 282.473 401.84C268.365 405.497 265.605 405.759 264.378 402.362C263.458 400.533 259.471 396.092 255.79 392.695C251.803 389.298 246.282 383.028 243.829 378.847C235.548 365.261 212.852 365.261 203.037 378.847L198.13 385.379L205.798 379.631C215.305 372.316 231.254 371.793 237.695 378.325C261.004 400.794 262.844 409.155 247.509 421.174C224.506 439.724 215.305 439.986 197.823 421.958C186.169 409.678 183.408 395.308 191.689 389.298C195.37 386.686 195.063 384.857 188.009 377.28L180.035 368.135L187.702 361.081C196.29 353.243 205.491 342.008 205.491 339.656C205.491 338.611 199.05 343.314 190.769 350.107C149.058 384.334 88.0238 368.396 72.3819 318.754L67.7814 304.384V316.142C67.7814 329.467 73.6087 345.404 80.9696 352.459C87.1036 358.207 84.6499 360.558 64.4075 367.613C54.593 371.009 43.2451 372.316 25.1496 372.054C0.920081 372.054 -6.43977e-05 372.054 -6.43977e-05 378.064C-6.43977e-05 384.857 -6.43977e-05 384.857 42.9383 385.118C65.3276 385.379 84.3433 387.731 123.908 395.569C171.754 404.714 176.661 406.281 185.555 414.119C190.769 418.822 196.903 425.877 199.05 429.535C206.718 441.814 228.494 443.643 238.922 432.67C241.068 430.318 244.442 429.273 246.282 430.318C247.816 431.102 248.429 430.58 247.509 429.273C245.056 426.138 253.643 422.219 260.697 423.003C264.378 423.264 264.378 423.003 261.311 421.174C258.55 419.606 262.844 417.777 275.419 415.687C297.195 412.029 319.278 400.272 331.852 385.641C337.066 379.631 342.28 375.19 344.121 375.712C345.654 375.973 346.267 375.19 345.041 373.883C344.121 372.316 344.121 368.135 345.347 364.216C346.881 359.252 351.482 355.594 363.443 351.152C378.778 345.143 400.247 328.422 407.608 316.925C409.755 313.006 415.276 311.177 426.624 309.871C440.119 308.303 443.186 308.826 448.4 313.268C459.134 323.196 488.884 317.971 495.018 305.168C497.472 300.204 499.926 298.375 501.153 300.204C505.446 305.952 527.529 313.529 539.797 313.529C554.212 313.529 570.161 308.565 576.295 302.033C580.282 297.852 581.509 298.375 591.63 306.736C614.633 325.809 644.689 326.593 666.159 309.087C674.746 302.294 674.746 302.294 685.481 306.474C717.378 319.277 755.716 301.772 761.85 271.725C763.383 263.364 765.224 262.058 776.878 259.445C783.932 257.616 794.054 253.697 798.654 250.562C808.469 244.03 818.59 226.786 818.897 217.119C818.897 213.461 824.111 206.145 831.165 199.613C840.673 190.991 843.74 185.766 845.273 175.315C847.113 163.819 848.34 161.99 856.314 159.638C861.222 158.071 869.196 154.413 874.41 151.539C882.998 146.313 884.224 146.052 898.026 149.71C923.482 156.764 934.524 157.287 955.993 152.584C975.622 148.404 976.849 148.404 979.916 152.845C987.583 164.341 1005.07 178.45 1019.17 184.459C1059.04 201.704 1103.82 196.478 1136.33 170.873C1144.31 164.603 1147.38 164.08 1165.16 164.603C1221.29 166.17 1240 162.251 1264.23 143.962L1275.58 135.601L1290.3 142.133C1298.58 145.53 1310.23 149.187 1316.37 150.233C1327.1 152.062 1327.1 152.062 1329.25 167.738C1330.78 181.585 1330.48 183.937 1324.65 187.856C1315.14 194.388 1316.37 204.316 1328.33 216.596L1338.45 227.308L1333.24 236.453C1330.48 241.679 1328.02 247.949 1328.02 250.823C1328.02 253.436 1323.42 258.139 1317.6 261.274C1305.02 267.806 1294.29 285.05 1294.29 298.636C1294.29 304.384 1291.22 311.7 1286.62 317.709C1282.63 322.935 1278.34 331.034 1277.11 335.476C1274.96 346.711 1280.48 363.694 1289.38 372.838C1293.37 376.757 1297.35 384.857 1298.27 390.343C1302.57 413.597 1329.86 432.931 1354.4 430.58C1363.6 429.535 1365.13 430.318 1367.89 437.634C1371.58 447.301 1387.52 461.149 1399.49 464.807C1411.14 468.726 1431.69 468.203 1443.34 464.023ZM1698.21 435.544C1687.79 431.625 1680.73 425.877 1679.5 419.867C1679.2 418.039 1675.82 413.074 1672.14 409.155C1662.33 398.182 1662.94 384.073 1674.29 373.883C1679.2 369.442 1685.95 365.784 1689.63 365.784C1693.31 365.784 1696.07 364.739 1696.07 363.171C1696.07 358.207 1715.08 352.197 1726.12 353.765C1738.7 355.333 1746.37 360.558 1751.58 371.793C1753.73 376.235 1758.02 381.983 1761.09 384.595C1767.84 390.343 1768.45 406.804 1761.7 414.903C1757.41 420.129 1739.01 430.318 1739.01 427.444C1739.01 426.661 1734.1 429.012 1727.96 432.409C1715.08 439.986 1711.71 440.247 1698.21 435.544ZM132.189 390.343C111.026 385.118 91.3974 380.154 88.9438 379.37C84.6499 378.064 82.1964 377.541 75.449 376.757C73.9154 376.496 76.369 373.883 80.9696 370.748C88.9438 365.522 88.9438 365.522 97.2248 370.487C111.026 378.586 125.748 381.46 150.898 380.676C169.607 380.415 175.741 381.199 179.728 384.334C185.555 389.56 183.102 399.749 175.741 399.749C173.287 399.749 153.658 395.569 132.189 390.343ZM608.192 310.655C600.831 307.52 592.55 302.294 589.79 298.898C585.496 293.15 584.269 292.888 579.975 296.024C556.359 313.79 524.462 311.961 503.606 291.582C491.951 280.347 491.338 275.122 500.539 271.725C505.753 270.157 506.06 269.374 502.379 269.374C497.779 269.112 497.779 268.328 502.379 259.184C506.98 249.517 507.593 249.255 523.542 248.994C548.691 248.472 568.32 241.679 587.643 226.786C596.844 219.47 606.352 210.326 608.805 206.407C611.259 202.226 616.473 198.568 621.687 197.784C645.916 193.604 676.893 166.693 685.481 142.394L690.081 129.331L703.883 129.069C711.551 128.808 724.125 127.24 731.793 125.412C744.675 122.276 746.208 122.538 748.968 126.457C759.089 141.872 790.68 161.99 805.095 161.99C807.549 161.99 809.696 163.035 809.696 164.603C809.696 165.909 816.136 166.432 825.031 165.386C839.446 164.08 840.366 164.341 840.366 169.567C840.366 176.36 830.551 193.604 823.804 198.307C821.35 200.136 817.363 200.658 815.523 199.613C812.763 198.307 812.456 199.613 813.683 204.055C819.51 222.606 799.574 248.21 775.038 253.958C762.157 256.832 760.93 257.878 759.09 267.022C756.023 281.131 745.595 293.15 729.953 299.943C714.618 306.474 702.963 307.258 687.934 302.555C679.96 299.943 678.12 298.375 679.654 293.933C680.574 290.798 679.04 291.843 675.36 296.807C667.999 306.474 646.53 316.142 632.115 316.142C626.287 316.142 615.553 313.529 608.192 310.655ZM453 311.439C450.24 308.826 446.866 301.249 445.946 294.456C443.799 282.437 444.106 282.176 454.84 278.257C475.083 271.202 486.124 274.077 489.191 287.14C489.805 290.276 491.338 293.933 492.258 295.24C495.939 300.204 490.111 308.826 480.603 312.223C467.108 317.187 458.827 316.925 453 311.439ZM1022.85 174.531C1014.27 170.612 1001.38 162.251 994.024 155.458L981.142 143.439L996.171 131.16C1013.65 117.051 1024.08 100.852 1027.15 84.1303L1028.99 72.6342L1038.8 84.3915C1050.76 98.2391 1072.85 111.564 1091.56 115.744C1101.37 118.096 1106.89 121.492 1113.94 129.592C1118.85 135.601 1127.13 142.917 1132.35 146.313L1141.55 152.062L1134.49 158.593C1125.6 166.432 1109.96 174.792 1095.24 179.495C1077.75 184.982 1041.56 182.631 1022.85 174.531Z" fill="#444444"/>
<path d="M36.1935 261.27C43.2476 258.657 49.9951 254.476 50.9152 252.125C51.8353 250.035 55.8225 248.206 59.5029 248.206C62.8766 248.206 71.771 245.854 78.8252 243.242C106.122 232.529 111.642 203.267 90.1732 183.933C84.3458 178.707 79.7453 171.914 79.7453 168.779C79.7453 165.643 76.985 159.634 73.6112 154.931C61.0364 137.164 30.0594 132.2 10.7371 145.003C-3.37121 153.886 -3.06451 158.066 11.0438 151.012C24.5388 144.219 45.3946 143.696 56.7426 149.967C66.5571 155.454 76.6783 169.04 76.6783 177.139C76.6783 180.536 77.9051 182.365 79.7453 181.581C84.6526 178.968 95.0805 196.474 95.0805 207.447C95.0805 213.195 92.3201 221.295 88.6397 226.52C81.8922 235.926 66.5571 244.287 59.8096 241.935C57.6627 241.413 52.7554 243.503 49.075 246.9C39.8739 255.26 23.6187 259.702 10.4304 257.612C2.45615 256.305 0.00252214 256.828 0.00252214 259.441C0.00252214 267.801 17.1779 268.585 36.1935 261.27Z" fill="#444444"/>
<path d="M134.031 128.285C139.244 125.411 144.458 120.447 145.685 117.05C146.912 113.654 150.899 108.167 154.886 104.509C165.928 94.3194 169.301 86.4812 167.461 77.3366C165.314 67.6695 155.806 59.0474 144.152 56.1734C139.858 55.1283 133.417 51.4705 129.43 48.3352C121.149 41.2808 107.041 38.4068 96.9195 41.8034C88.0252 44.6774 76.6772 56.4347 76.6772 63.2278C76.6772 65.8406 74.5302 68.7146 72.0766 69.7597C65.3292 71.8499 58.275 84.391 58.275 94.0581C58.275 103.203 72.3833 117.573 81.5844 117.573C84.6514 117.573 90.7855 120.447 95.0793 124.105C106.427 133.249 121.456 134.817 134.031 128.285ZM103.36 124.888C99.6799 123.321 94.7726 120.447 92.6257 118.357C90.4788 116.528 86.7983 114.96 84.3447 114.96C82.1978 114.96 76.6772 111.302 72.0766 106.599C65.0225 99.5449 64.1023 96.4096 65.3292 87.7875C66.2493 81.7783 69.623 75.2464 72.69 73.1562C75.757 71.066 79.7442 65.8406 81.2777 61.3989C85.8782 49.9029 103.667 42.8485 118.082 47.0289C123.909 48.5965 130.657 52.2543 132.804 55.1283C135.257 57.7411 137.711 59.3087 138.938 58.5249C142.618 55.1283 156.727 66.6244 159.794 75.5077C162.554 83.6072 162.247 86.7425 158.26 93.5356C155.5 98.2385 151.819 101.896 150.286 101.896C148.752 101.896 146.605 104.509 145.379 107.906C139.858 123.843 119.309 132.204 103.36 124.888Z" fill="#444444"/>
<defs>
<clipPath id="clip0">
<rect width="1920" height="1080" fill="white"/>
</clipPath>
</defs>
</svg>
