<svg width="1920" height="1080" viewBox="0 0 1920 1080" fill="none" xmlns="http://www.w3.org/2000/svg">
<g clip-path="url(#clip0)">
<path d="M463.296 2.53812C457.408 9.23412 446.144 18.1441 437.248 23.1661C433.856 25.1101 433.216 25.7041 433.536 26.6221C437.184 37.4221 437.44 38.7181 437.44 51.5701C437.44 62.4241 437.248 64.6921 435.968 69.4441C427.776 101.088 402.24 126.684 369.92 135.756C357.824 139.158 353.984 139.59 337.92 139.59C325.504 139.536 322.624 139.374 317.12 138.348C300.352 135.216 285.952 129.816 272.64 121.608C265.536 117.234 254.976 108 250.304 102.06C245.504 95.9581 245.568 96.0661 246.4 98.0641C247.68 101.358 248.96 109.458 248.96 114.696C248.96 128.196 243.584 142.992 234.432 154.602C230.336 159.786 221.76 167.238 216.32 170.37C206.016 176.148 196.736 178.47 183.68 178.416C178.944 178.362 173.312 178.092 171.136 177.714C152 174.636 133.568 164.376 123.392 151.254C120 146.88 119.232 146.07 119.872 147.474C120.064 147.96 120.96 151.146 121.856 154.494C126.656 172.692 127.04 193.806 122.944 211.734C117.888 233.496 106.368 250.83 88.32 263.79C65.216 280.422 38.656 289.332 8.192 290.79L0 291.222V300.942V310.662L8.576 310.338C29.312 309.474 47.68 305.748 66.56 298.62C74.752 295.488 78.272 293.814 87.68 288.576C101.312 280.962 112.512 272.268 122.048 261.9C135.744 246.996 145.216 225.396 147.84 203.31C148.672 196.128 149.184 192.78 149.312 192.78C149.376 192.78 152.192 193.536 155.52 194.4C165.376 197.046 171.968 197.856 183.36 197.856C207.488 197.802 224.576 191.808 241.6 177.39C245.824 173.826 250.752 169.074 252.608 166.806C256.96 161.46 262.4 152.658 265.024 146.772L267.072 142.02L271.616 144.234C293.184 154.548 314.624 159.408 338.56 159.462C370.752 159.462 397.952 150.228 420.992 131.49C450.56 107.46 465.664 71.2801 460.096 37.6381L459.52 33.9661L466.496 28.2961C476.224 20.4661 486.08 10.2601 492.096 1.99811L493.568 0.00012207H479.552H465.536L463.296 2.53812Z" fill="#444444"/>
<path d="M705.024 1.18707C706.688 5.93907 713.664 17.9271 717.888 23.4891C728.128 36.7731 742.272 48.4911 758.4 56.8611C794.112 75.4371 841.152 78.6231 875.84 64.8531C889.408 59.4531 899.52 53.2431 912.128 42.6051L920.896 35.2071L923.648 38.7711C927.04 43.1991 939.136 53.5671 944.32 56.5371C949.44 59.4531 957.44 62.7471 962.56 64.1511C971.008 66.4191 973.568 66.6891 984.32 66.6351C995.328 66.6351 1000.13 65.9871 1010.56 63.0711C1015.17 61.8291 1025.15 57.7791 1030.02 55.1871L1033.22 53.5671L1035.84 58.7511C1043.01 72.7911 1053.38 84.8331 1066.18 94.0131C1080.38 104.273 1094.4 110.321 1112 113.831C1118.46 115.127 1120.19 115.235 1133.44 115.289C1149.5 115.289 1155.26 114.587 1168.19 111.023C1193.98 103.895 1217.09 88.4511 1230.34 69.4971L1233.09 65.6091L1236.22 65.4471C1270.46 63.9891 1309.95 48.5451 1338.18 25.6491C1345.79 19.4931 1352.7 12.4731 1357.89 5.88507C1360.13 3.02307 1361.92 0.539067 1361.92 0.323067C1361.92 0.161067 1356.67 -0.000932537 1350.27 -0.000932537H1338.56L1334.4 4.37307C1329.09 10.0431 1319.04 18.0891 1311.1 23.1651C1292.61 34.9371 1270.4 43.6311 1249.92 47.0331C1243.97 48.0591 1240.38 48.2751 1231.23 48.3291H1219.9L1219.52 49.6251C1218.69 52.3251 1213.12 61.2351 1209.79 65.2311C1204.29 71.7111 1200.19 75.4371 1193.66 80.0271C1167.3 98.4411 1133.38 103.733 1103.62 94.0131C1084.74 87.8571 1066.37 73.1151 1056.64 56.4291C1049.47 44.0631 1046.78 33.9111 1047.17 20.8971L1047.36 13.0671L1045.38 16.7391C1037.38 31.2651 1018.56 44.0091 998.592 48.3831C990.592 50.1651 978.688 50.3811 972.16 48.9231C967.104 47.7891 959.872 44.9811 955.968 42.7131C941.696 34.4511 930.816 18.5751 929.472 4.15707L929.088 -0.000932537H926.656C924.352 -0.000932537 924.224 0.107067 921.664 4.10307C909.696 22.7871 888.768 40.5531 868.608 49.0851C862.784 51.5691 852.544 54.3231 845.12 55.4031C835.904 56.7531 818.816 56.6451 808.832 55.1331C781.504 51.0291 755.52 37.9611 739.776 20.3571C735.232 15.2271 729.664 7.34307 727.552 3.13107L726.08 -0.000932537H715.328H704.576L705.024 1.18707Z" fill="#444444"/>
<path d="M1548.48 3.29479C1554.05 8.10079 1569.79 19.4408 1577.6 24.2468C1585.47 29.1068 1597.89 35.4248 1606.78 39.0968L1613.12 41.6888V55.5668C1613.12 66.5288 1613.38 70.5248 1614.27 74.7908C1618.94 96.3908 1627.46 113.347 1641.86 129.601C1648.06 136.621 1661.5 147.853 1670.4 153.469C1693.82 168.157 1716.42 175.663 1747.52 179.119L1751.36 179.551L1751.55 182.251C1752.58 198.721 1759.23 218.647 1768.77 233.821C1791.42 270.001 1830.59 293.491 1878.85 299.809C1886.53 300.835 1890.88 301.051 1901.76 301.051C1909.18 301.051 1916.29 300.835 1917.63 300.619L1920 300.187V290.467V280.747L1915.39 281.179C1912.83 281.395 1905.98 281.557 1900.16 281.557C1875.39 281.395 1851.84 275.509 1831.42 264.385C1801.79 248.239 1780.8 219.727 1775.68 188.839C1774.66 182.629 1774.34 168.211 1775.1 162.595L1775.55 159.139L1771.58 159.517C1765.63 160.111 1751.74 159.949 1745.79 159.301C1718.46 156.169 1692.93 145.855 1672.9 129.709C1652.93 113.725 1640.51 92.3948 1636.54 67.5008C1635.07 58.3748 1636.1 42.3908 1638.66 33.2108C1639.17 31.4288 1639.42 29.8088 1639.17 29.6468C1638.91 29.4848 1636.86 28.7828 1634.56 28.0808C1618.88 23.4368 1599.68 14.2028 1584.51 4.10479L1578.37 0.00079421H1561.54H1544.7L1548.48 3.29479Z" fill="#444444"/>
<path d="M1615.3 700.921C1570.62 704.323 1525.82 726.895 1504 757.135C1495.81 768.475 1489.41 783.055 1486.53 797.041C1485.06 804.169 1484.74 806.113 1484.22 811.999C1483.97 815.077 1483.58 817.669 1483.46 817.777C1483.33 817.939 1480.9 817.345 1478.08 816.535C1459.9 811.081 1434.62 811.621 1417.73 817.777C1395.71 825.769 1377.73 842.239 1368.19 863.029L1365.57 868.807L1362.94 867.457C1361.47 866.701 1356.61 864.541 1352 862.597C1316.99 848.017 1275.97 847.423 1242.56 860.977C1202.88 877.015 1175.17 912.709 1171.84 951.859C1171.26 958.987 1171.71 969.679 1172.86 975.133C1173.25 976.807 1172.93 977.131 1166.53 982.315C1139.07 1004.24 1119.74 1035.72 1112 1071.15C1111.1 1075.14 1110.4 1078.81 1110.4 1079.25C1110.4 1079.89 1112.19 1080 1122.05 1079.89L1133.7 1079.73L1134.46 1075.63C1134.85 1073.36 1136.13 1068.39 1137.28 1064.56C1147.33 1030.7 1169.86 1001.59 1198.02 986.041L1199.49 985.231L1197.38 978.211C1195.2 971.245 1195.2 971.083 1195.2 959.041C1195.26 948.511 1195.46 946.189 1196.67 941.491C1205.25 909.091 1230.27 884.197 1263.68 874.855C1284.22 869.131 1306.69 869.347 1328.64 875.395C1350.66 881.551 1371.07 894.295 1383.04 909.469C1385.28 912.223 1386.88 914.005 1386.62 913.411C1383.81 906.715 1383.1 892.081 1385.15 883.333C1388.42 869.509 1395.78 857.197 1406.4 847.855C1417.73 837.919 1429.7 833.113 1445.44 832.303C1470.08 831.061 1496 842.293 1509.89 860.167C1511.68 862.435 1512.9 863.677 1512.7 862.921C1508.54 848.989 1507.2 839.701 1507.2 825.391C1507.2 812.647 1508.16 804.709 1510.85 795.151C1517.89 770.041 1532.16 752.923 1558.4 738.073C1578.3 726.841 1605.44 719.821 1629.5 719.821C1671.87 719.821 1710.46 737.911 1735.94 769.771C1739.52 774.253 1745.79 784.837 1748.29 790.669L1750.08 794.827L1754.88 792.343C1787.33 775.549 1832.96 773.659 1870.08 787.591C1886.59 793.747 1903.1 804.655 1914.69 817.075L1919.68 822.421L1919.87 807.679L1920.06 792.991L1916.35 790.075C1903.17 779.815 1883.71 770.203 1866.56 765.505C1834.18 756.595 1802.18 756.433 1770.69 765.019C1765.76 766.315 1761.73 767.341 1761.6 767.233C1761.47 767.125 1759.23 764.209 1756.61 760.807C1749.89 751.843 1744.7 746.335 1736.58 739.261C1723.52 727.921 1711.17 720.307 1694.66 713.341C1669.82 702.973 1643.39 698.815 1615.3 700.921Z" fill="#444444"/>
<path d="M448.32 773.82C432.832 775.224 413.44 779.976 399.744 785.808C385.344 791.91 368.192 804.222 356.992 816.48C352.32 821.61 344.832 831.114 342.464 834.894L340.928 837.378L336.704 833.868C316.8 817.506 290.496 809.784 265.6 812.97C246.4 815.4 228.288 823.068 212.288 835.38C208.128 838.62 208.064 838.674 207.296 837.432C206.848 836.73 204.608 833.868 202.24 831.06C189.888 816.372 173.056 804.384 153.28 796.176C111.872 779.058 65.024 783.27 26.176 807.624C19.008 812.16 8.64 820.368 3.584 825.606L0 829.278L0.064 851.094L0.128 872.91L1.28 869.67C10.752 842.994 35.328 820.854 66.56 810.81C73.984 808.434 83.968 806.382 92.16 805.626C140.992 801.036 191.744 834.084 201.6 876.852C202.304 879.93 202.88 883.224 202.88 884.25C202.88 885.222 203.2 886.248 203.52 886.41C203.904 886.572 204.16 886.194 204.16 885.492C204.16 883.224 206.72 876.258 209.28 871.722C218.56 854.982 235.776 841.428 255.936 835.002C266.944 831.492 279.872 830.898 290.752 833.382C318.08 839.646 339.84 861.786 342.336 885.87L342.784 890.19L343.936 885.87C352.768 852.552 374.464 823.284 402.048 807.408C406.528 804.816 416.768 800.604 423.296 798.714C438.72 794.124 451.84 792.45 469.12 792.882C482.048 793.206 489.28 794.07 500.288 796.5C550.976 807.84 587.008 844.668 592.704 890.838C593.408 896.886 593.216 907.416 592.256 913.194L591.872 915.678L602.944 915.408C619.776 915.084 633.28 916.866 648.192 921.564C661.824 925.83 677.568 933.606 687.68 940.95C690.176 942.786 692.992 944.838 694.016 945.594C694.976 946.296 698.048 949.104 700.8 951.75C717.952 968.544 727.872 988.578 730.304 1011.42C731.392 1021.63 730.752 1028.54 727.232 1044.9C726.976 1046.2 727.296 1046.41 732.608 1048.09C744.96 1052.08 760.384 1059.05 771.84 1065.96C776.128 1068.55 784.064 1073.79 790.528 1078.38L792.832 1080L808.96 1079.89L825.088 1079.73L818.112 1073.79C799.424 1057.7 777.472 1044.04 757.632 1036.1L753.344 1034.37L753.728 1024.65C754.752 997.974 746.688 973.242 729.792 951.588C719.104 937.926 703.104 924.804 685.696 915.516C678.4 911.628 662.464 905.094 655.04 902.88C644.416 899.748 631.168 897.21 620.032 896.13L616.448 895.806L616 891.648C613.376 864.972 603.264 842.454 584.64 821.61C579.712 816.102 568.896 806.598 561.984 801.738C540.8 786.78 510.976 776.304 482.624 773.874C475.328 773.226 455.296 773.226 448.32 773.82Z" fill="#444444"/>
<path d="M230.946 1.3502C227.816 4.91178 221.827 9.65097 217.098 12.3222C215.294 13.3562 214.954 13.6721 215.124 14.1604C217.064 19.9049 217.2 20.5942 217.2 27.4301C217.2 33.2033 217.098 34.4097 216.417 36.9373C212.062 53.7686 198.486 67.383 181.304 72.2084C174.873 74.0179 172.831 74.2477 164.291 74.2477C157.69 74.2189 156.159 74.1328 153.233 73.587C144.318 71.9211 136.663 69.0489 129.586 64.6831C125.809 62.3566 120.195 57.4451 117.711 54.2856C115.159 51.04 115.193 51.0974 115.635 52.1601C116.316 53.9122 116.996 58.2206 116.996 61.0066C116.996 68.1872 114.138 76.0572 109.273 82.2325C107.095 84.9898 102.536 88.9535 99.6438 90.6194C94.1658 93.6927 89.2322 94.9278 82.2911 94.8991C79.7733 94.8703 76.7791 94.7267 75.6222 94.5257C65.4488 92.8885 55.6496 87.4312 50.2396 80.4517C48.4363 78.1252 48.028 77.6943 48.3683 78.4411C48.4704 78.6996 48.9467 80.3943 49.423 82.175C51.9749 91.8545 52.1791 103.085 50.0015 112.621C47.3135 124.196 41.189 133.416 31.594 140.309C19.311 149.156 5.19068 153.895 -11.0052 154.67L-15.3604 154.9V160.07V165.24L-10.801 165.068C0.22305 164.608 9.98819 162.626 20.0255 158.835C24.3807 157.169 26.2521 156.279 31.2538 153.493C38.5011 149.443 44.4554 144.819 49.5251 139.304C56.8064 131.377 61.8421 119.888 63.2372 108.14C63.6795 104.32 63.9517 102.539 64.0197 102.539C64.0538 102.539 65.5508 102.941 67.3201 103.401C72.56 104.808 76.0645 105.239 82.121 105.239C94.9484 105.21 104.033 102.022 113.084 94.3533C115.329 92.4577 117.949 89.9301 118.936 88.7238C121.25 85.8802 124.142 81.1985 125.537 78.0677L126.626 75.5402L129.041 76.7178C140.508 82.2038 151.906 84.7888 164.631 84.8175C181.746 84.8175 196.206 79.906 208.455 69.9393C224.175 57.1578 232.205 37.9138 229.245 20.0198L228.938 18.0666L232.647 15.0508C237.819 10.886 243.059 5.4575 246.257 1.06298L247.04 0.000246631H239.588H232.137L230.946 1.3502Z" fill="#444444"/>
<path d="M1667.21 2.19191C1671 5.39017 1681.71 12.9366 1687.02 16.1349C1692.38 19.369 1700.83 23.5735 1706.88 26.0171L1711.19 27.742V36.9774C1711.19 44.2723 1711.37 46.9315 1711.98 49.7704C1715.15 64.1446 1720.95 75.4283 1730.74 86.2449C1734.97 90.9165 1744.11 98.391 1750.17 102.128C1766.1 111.903 1781.48 116.898 1802.64 119.198L1805.25 119.485L1805.38 121.282C1806.08 132.242 1810.61 145.502 1817.1 155.6C1832.51 179.677 1859.16 195.309 1892 199.513C1897.22 200.196 1900.19 200.34 1907.59 200.34C1912.64 200.34 1917.47 200.196 1918.39 200.052L1920 199.765V193.297V186.828L1916.86 187.116C1915.12 187.259 1910.46 187.367 1906.5 187.367C1889.65 187.259 1873.62 183.342 1859.73 175.94C1839.57 165.195 1825.28 146.221 1821.8 125.666C1821.1 121.533 1820.89 111.939 1821.41 108.201L1821.71 105.902L1819.01 106.153C1814.96 106.548 1805.51 106.441 1801.46 106.009C1782.87 103.925 1765.49 97.0614 1751.86 86.3167C1738.28 75.6799 1729.83 61.4854 1727.13 44.9191C1726.13 38.846 1726.82 28.2092 1728.57 22.1001C1728.92 20.9143 1729.09 19.8362 1728.92 19.7284C1728.74 19.6206 1727.35 19.1534 1725.78 18.6863C1715.11 15.5958 1702.05 9.45087 1691.73 2.73095L1687.55 -0.000146545H1676.09H1664.64L1667.21 2.19191Z" fill="#444444"/>
<path d="M191.611 949.507C184.991 950.105 176.703 952.131 170.849 954.616C164.695 957.217 157.364 962.464 152.577 967.689C150.58 969.875 147.38 973.926 146.368 975.537L145.712 976.595L143.906 975.099C135.399 968.126 124.157 964.835 113.517 966.193C105.311 967.228 97.5696 970.496 90.7312 975.744C88.9532 977.125 88.9259 977.148 88.5977 976.618C88.4062 976.319 87.4488 975.099 86.4367 973.903C81.1575 967.643 73.9636 962.533 65.5114 959.035C47.8137 951.74 27.7911 953.535 11.1875 963.914C8.12396 965.847 3.69271 969.346 1.53179 971.578L0 973.143L0.0273534 982.441L0.0547068 991.739L0.547068 990.358C4.59537 978.989 15.0991 969.553 28.4475 965.272C31.6205 964.259 35.8877 963.385 39.3889 963.063C60.2595 961.106 81.9508 975.191 86.1632 993.419C86.4641 994.731 86.7103 996.135 86.7103 996.572C86.7103 996.986 86.847 997.424 86.9838 997.493C87.1479 997.562 87.2573 997.401 87.2573 997.101C87.2573 996.135 88.3515 993.166 89.4456 991.233C93.4118 984.098 100.77 978.321 109.386 975.583C114.091 974.087 119.616 973.834 124.266 974.892C135.946 977.562 145.247 986.998 146.313 997.262L146.505 999.104L146.997 997.262C150.772 983.062 160.045 970.588 171.834 963.822C173.749 962.717 178.125 960.922 180.915 960.117C187.508 958.161 193.115 957.447 200.5 957.631C206.026 957.769 209.117 958.138 213.822 959.173C235.485 964.006 250.885 979.702 253.32 999.38C253.621 1001.96 253.539 1006.45 253.128 1008.91L252.964 1009.97L257.696 1009.85C264.89 1009.71 270.662 1010.47 277.035 1012.48C282.861 1014.29 289.59 1017.61 293.912 1020.74C294.979 1021.52 296.183 1022.39 296.62 1022.72C297.031 1023.02 298.343 1024.21 299.52 1025.34C306.85 1032.5 311.09 1041.04 312.13 1050.77C312.595 1055.12 312.321 1058.07 310.817 1065.04C310.707 1065.59 310.844 1065.68 313.114 1066.4C318.394 1068.1 324.986 1071.07 329.882 1074.02C331.715 1075.12 335.106 1077.35 337.869 1079.31L338.854 1080L345.747 1079.95L352.64 1079.88L349.658 1077.35C341.671 1070.49 332.289 1064.67 323.81 1061.29L321.977 1060.55L322.141 1056.41C322.579 1045.04 319.132 1034.5 311.911 1025.27C307.343 1019.45 300.504 1013.86 293.064 1009.9C289.946 1008.24 283.135 1005.46 279.962 1004.51C275.421 1003.18 269.759 1002.1 265 1001.64L263.468 1001.5L263.276 999.725C262.155 988.356 257.833 978.759 249.873 969.875C247.767 967.528 243.144 963.477 240.19 961.406C231.136 955.031 218.39 950.566 206.272 949.53C203.154 949.254 194.592 949.254 191.611 949.507Z" fill="#444444"/>
<path d="M1716.63 826.356C1686.76 828.631 1656.8 843.725 1642.21 863.947C1636.73 871.53 1632.45 881.279 1630.52 890.632C1629.54 895.398 1629.33 896.698 1628.98 900.634C1628.81 902.693 1628.56 904.426 1628.47 904.498C1628.39 904.607 1626.76 904.209 1624.88 903.668C1612.72 900.021 1595.82 900.382 1584.52 904.498C1569.79 909.842 1557.77 920.856 1551.39 934.758L1549.64 938.622L1547.88 937.719C1546.9 937.214 1543.64 935.77 1540.56 934.47C1517.15 924.72 1489.72 924.323 1467.38 933.386C1440.84 944.111 1422.31 967.98 1420.09 994.159C1419.7 998.926 1420 1006.08 1420.77 1009.72C1421.03 1010.84 1420.81 1011.06 1416.53 1014.53C1398.17 1029.19 1385.25 1050.24 1380.07 1073.93C1379.47 1076.6 1379 1079.05 1379 1079.34C1379 1079.78 1380.2 1079.85 1386.79 1079.78L1394.58 1079.67L1395.09 1076.92C1395.35 1075.41 1396.2 1072.08 1396.98 1069.52C1403.69 1046.88 1418.76 1027.42 1437.59 1017.02L1438.58 1016.48L1437.16 1011.78C1435.71 1007.12 1435.71 1007.01 1435.71 998.962C1435.75 991.921 1435.88 990.368 1436.69 987.226C1442.43 965.56 1459.16 948.914 1481.5 942.667C1495.24 938.839 1510.26 938.983 1524.94 943.028C1539.66 947.144 1553.32 955.666 1561.32 965.813C1562.82 967.655 1563.89 968.846 1563.72 968.449C1561.83 963.971 1561.36 954.186 1562.73 948.336C1564.92 939.092 1569.84 930.859 1576.94 924.612C1584.52 917.967 1592.52 914.753 1603.05 914.212C1619.53 913.381 1636.86 920.892 1646.15 932.845C1647.34 934.361 1648.16 935.192 1648.03 934.686C1645.25 925.37 1644.35 919.159 1644.35 909.59C1644.35 901.068 1644.99 895.76 1646.79 889.368C1651.5 872.577 1661.04 861.13 1678.59 851.2C1691.9 843.689 1710.04 838.995 1726.14 838.995C1754.47 838.995 1780.28 851.091 1797.31 872.396C1799.71 875.394 1803.9 882.471 1805.57 886.371L1806.77 889.151L1809.98 887.49C1831.68 876.26 1862.19 874.996 1887.01 884.313C1898.06 888.429 1909.1 895.723 1916.84 904.029L1920.18 907.604L1920.31 897.746L1920.44 887.924L1917.96 885.974C1909.14 879.113 1896.13 872.685 1884.66 869.544C1863 863.586 1841.61 863.477 1820.55 869.219C1817.25 870.085 1814.56 870.771 1814.47 870.699C1814.39 870.627 1812.89 868.677 1811.13 866.402C1806.64 860.408 1803.17 856.725 1797.74 851.994C1789.01 844.411 1780.75 839.32 1769.7 834.661C1753.1 827.728 1735.42 824.948 1716.63 826.356Z" fill="#444444"/>
</g>
<defs>
<clipPath id="clip0">
<rect width="1920" height="1080" fill="white"/>
</clipPath>
</defs>
</svg>
