<svg width="1367" height="886" viewBox="0 0 1367 886" fill="none" xmlns="http://www.w3.org/2000/svg">
<path d="M251.931 4.73735C257.169 10.0056 261.542 14.3885 280.126 33.2037C287.003 40.1542 294.974 48.2116 297.889 51.1335C300.805 54.0554 305.952 59.2351 309.322 62.6439C323.533 76.9878 328.544 82.079 335.239 88.8082C344.668 98.2379 351.09 104.746 364.163 117.983C378.875 132.902 394.999 149.15 403.061 157.163L406.796 160.926L402.378 154.949C396.229 146.67 373.227 115.902 368.945 110.235C364.891 104.834 355.827 92.7926 345.715 79.2456C341.798 74.0216 330.001 58.2611 319.525 44.2714C299.393 17.4432 295.248 11.865 289.782 4.516L286.411 0.000345156H266.78H247.148L251.931 4.73735Z" fill="#444444"/>
<path d="M632.668 0.309328C632.668 0.486412 635.947 21.8251 639.91 47.7679C643.918 73.7551 647.38 96.2448 647.608 97.8385C647.836 99.4323 648.883 106.206 649.931 112.891C650.978 119.576 652.117 127.146 652.482 129.714C652.892 132.237 653.256 134.406 653.347 134.495C653.62 134.716 654.076 130.776 654.304 125.729C654.44 123.162 655.488 109.039 656.581 94.2969C657.674 79.5546 659.633 53.656 660.908 36.7444C662.138 19.8329 663.322 4.6479 663.459 2.96559L663.732 -0.000569665H648.2C639.637 -0.000569665 632.668 0.132244 632.668 0.309328Z" fill="#444444"/>
<path d="M924.5 1.41801C924.136 2.21489 919.445 12.5301 914.07 24.3504C908.65 36.1708 902.364 49.9834 900.041 55.1188C895.987 64.1059 894.165 68.1345 890.476 76.1476C889.519 78.2284 885.511 86.994 881.594 95.6269C877.631 104.26 870.844 119.223 866.472 128.83C857.954 147.513 857.407 148.796 858.045 148.088C858.273 147.823 860.414 144.369 862.782 140.341C870.298 127.723 874.944 120.02 879.681 112.229C884.691 103.95 885.784 102.135 896.078 85.0018C899.95 78.5383 903.594 72.4731 904.14 71.4991C904.732 70.5252 905.643 69.02 906.19 68.1788C906.737 67.3377 908.194 64.947 909.378 62.8663C910.608 60.7855 912.612 57.4209 913.842 55.3402C915.117 53.2595 917.486 49.2751 919.171 46.486C920.857 43.6969 923.271 39.7125 924.5 37.6318C933.109 23.4207 946.956 0.311236 946.956 0.178423C946.956 0.0898807 942.037 0.00133848 936.024 0.00133848H925.093L924.5 1.41801Z" fill="#444444"/>
<path d="M1125.27 4.07642C1120.49 8.99051 1086.47 43.2121 1077.68 52.022C1074.26 55.4309 1068.25 61.496 1064.24 65.5247C1060.23 69.5534 1053.9 75.9284 1050.12 79.6915C1043.88 85.978 1028.35 101.606 1011.63 118.429C1007.99 122.059 1001.75 128.345 997.738 132.374C990.724 139.413 987.08 143.088 972.231 158.051C959.842 170.491 951.825 178.549 943.991 186.385C939.709 190.635 933.059 197.32 929.233 201.216C925.361 205.111 918.301 212.195 913.519 216.932C908.736 221.669 901.13 229.328 896.62 233.932C887.01 243.716 882.409 248.32 875.896 254.828C873.254 257.44 871.341 259.476 871.66 259.388C872.161 259.211 877.217 254.872 883.184 249.427C887.602 245.442 903.498 231.63 906.869 228.885C908.508 227.557 911.287 225.122 913.018 223.528C918.575 218.481 921.945 215.471 928.049 210.247C931.328 207.414 940.438 199.489 948.318 192.583C962.939 179.877 966.264 176.955 983.162 162.257C988.446 157.697 993.639 153.137 994.777 152.119C995.916 151.101 1000.74 146.895 1005.48 142.778C1010.26 138.661 1018.05 131.887 1022.79 127.726C1027.57 123.564 1038.64 113.913 1047.39 106.298C1056.18 98.6395 1064.38 91.4676 1065.65 90.3608C1067.93 88.3686 1069.75 86.7306 1088.84 70.1732C1094.12 65.6132 1099.31 61.0533 1100.45 60.0351C1101.59 59.0169 1106.42 54.8111 1111.15 50.6939C1115.94 46.5767 1123.73 39.8032 1128.46 35.6417C1136.07 29.001 1167.82 1.37589 1169 0.35765C1169.23 0.180566 1160.39 0.00348154 1149.32 0.00348154H1129.28L1125.27 4.07642Z" fill="#444444"/>
<path d="M0.0903383 58.6578L0.226984 74.4626L101.117 123.604C156.595 150.653 201.825 172.567 201.551 172.346C201.324 172.08 197.224 169.424 192.442 166.369C182.558 160.039 163.928 148.13 144.388 135.557C137.009 130.775 127.763 124.887 123.891 122.408C120.02 119.929 108.86 112.757 99.0673 106.471C89.3199 100.184 77.204 92.3924 72.1936 89.2049C61.7175 82.5199 48.5995 74.1084 30.0613 62.1995C22.9101 57.6396 13.4816 51.5744 9.10894 48.7854C4.73629 45.9963 0.864663 43.5171 0.545823 43.2515C0.0903383 42.8973 -0.000758771 45.952 0.0903383 58.6578Z" fill="#444444"/>
<path d="M1205.8 91.9099C1205.94 96.5584 1205.89 100.543 1205.76 100.808C1205.58 101.074 1202.66 103.597 1199.29 106.431C1195.92 109.308 1193.1 111.788 1193 112.009C1192.91 112.186 1194.37 112.806 1196.19 113.337C1198.01 113.824 1201.79 114.975 1204.53 115.772L1209.58 117.277L1212.91 125.069C1214.78 129.319 1216.42 132.816 1216.55 132.816C1216.69 132.772 1218.97 129.717 1221.61 125.954C1224.48 121.881 1226.76 119.048 1227.3 118.96C1227.8 118.827 1231.77 118.473 1236.09 118.163C1240.37 117.853 1243.93 117.41 1243.93 117.189C1243.93 116.967 1241.7 113.913 1238.92 110.415C1236.18 106.918 1233.91 103.686 1233.91 103.243C1233.91 102.801 1234.73 99.0376 1235.73 94.9204C1236.73 90.8031 1237.55 87.3057 1237.55 87.1286C1237.55 86.9516 1233.82 88.1026 1229.22 89.6521L1220.88 92.4412L1214.73 88.8995C1211.36 86.9516 1207.94 84.9594 1207.08 84.4281L1205.53 83.4984L1205.8 91.9099Z" fill="#444444"/>
<path d="M1357.8 178.017C1353.66 179.744 1348.15 182.001 1345.5 183.064C1338.4 185.942 1332.75 188.244 1326.15 190.944C1320.59 193.202 1312.85 196.39 1277.86 210.645C1270.12 213.788 1257.82 218.835 1250.54 221.757C1243.29 224.723 1235.28 227.999 1232.77 228.973C1228.35 230.744 1225.89 232.028 1228.67 231.142C1229.45 230.877 1238.56 228.265 1248.94 225.343C1259.33 222.421 1270.94 219.145 1274.68 218.038C1278.46 216.976 1285.52 214.983 1290.39 213.611C1295.26 212.194 1302.78 210.114 1307.02 208.874C1311.3 207.679 1318.27 205.731 1322.5 204.491C1326.78 203.296 1338.26 200.064 1348.01 197.275L1365.77 192.272L1365.91 183.595C1365.96 178.77 1365.86 174.874 1365.68 174.918C1365.45 174.918 1361.95 176.335 1357.8 178.017Z" fill="#444444"/>
<path d="M297.202 238.359C296.701 238.669 293.559 240.573 290.234 242.521C285.223 245.442 283.993 246.018 283.174 245.708C280.441 244.601 269.053 240.838 268.461 240.838C268.051 240.838 267.869 240.971 267.96 241.148C268.097 241.37 268.917 244.646 269.873 248.497C270.784 252.349 271.604 255.758 271.741 256.112C271.877 256.422 269.737 259.609 266.958 263.151C264.18 266.693 261.902 269.747 261.902 269.969C261.902 270.19 265.045 270.588 268.871 270.898C279.53 271.74 278.072 270.943 283.447 278.513C285.998 282.099 288.229 285.065 288.366 285.109C288.548 285.109 290.142 281.745 291.964 277.583L295.289 270.101L300.345 268.552C303.124 267.711 306.631 266.693 308.134 266.294C309.637 265.851 311.049 265.409 311.231 265.232C311.414 265.055 308.681 262.531 305.173 259.609L298.797 254.341L298.933 246.018C298.979 240.573 298.842 237.739 298.569 237.739C298.296 237.739 297.703 238.005 297.202 238.359Z" fill="#444444"/>
<path d="M974.19 531.119C974.509 531.252 974.919 531.208 975.056 531.075C975.238 530.942 974.965 530.809 974.464 530.853C973.963 530.853 973.826 530.986 974.19 531.119Z" fill="#444444"/>
<path d="M976.014 531.562C976.287 531.651 976.834 531.651 977.153 531.562C977.426 531.43 977.199 531.341 976.561 531.341C975.923 531.341 975.695 531.43 976.014 531.562Z" fill="#444444"/>
<path d="M980.434 532.583C984.214 533.689 998.699 537.541 1009.58 540.33C1020.33 543.031 1020.74 543.163 1058.09 552.947C1073.99 557.109 1093.8 562.288 1102.05 564.458C1110.34 566.627 1133.07 572.559 1152.61 577.695C1172.15 582.786 1195.01 588.763 1203.39 590.976C1220.02 595.315 1243.98 601.557 1254.41 604.302C1283.88 612.049 1296.72 615.369 1297.04 615.369C1297.95 615.369 1296.31 616.211 1294.04 616.919C1289.75 618.203 1279.87 623.117 1275.59 626.039C1270.53 629.536 1263.7 636.133 1260.24 640.87C1256.73 645.695 1252.9 653.088 1250.95 658.977C1249.12 664.422 1247.17 673.409 1247.12 676.464C1247.07 679.651 1247.12 679.651 1240.97 678.899C1223.57 676.774 1197.79 675.844 1182.71 676.862C1135.39 680.005 1098.18 694.748 1070.85 721.177C1058.09 733.485 1049.67 744.995 1041.24 761.597C1033.32 777.092 1027.12 795.287 1024.34 811.136C1024.07 812.819 1023.66 814.147 1023.48 814.147C1023.25 814.147 1022.11 813.748 1020.88 813.217C1013.59 810.207 1000.25 808.878 991.593 810.339C980.525 812.243 970.322 817.467 963.945 824.506L961.986 826.631L959.846 824.905C952.467 818.928 942.31 813.97 932.471 811.535C923.316 809.233 909.059 808.436 899.585 809.631C878.86 812.287 860.049 820.699 846.384 833.405C831.444 847.306 824.658 861.384 822.836 881.97L822.562 884.98H827.072H831.581L831.945 881.35C833.312 866.032 839.006 853.548 849.618 842.657C870.662 821.053 906.281 812.199 934.976 821.451C946.09 825.037 955.701 831.545 962.214 839.957L963.49 841.639L965.403 838.097C966.45 836.149 968.136 833.449 969.229 832.121C973.237 826.897 980.343 822.425 988.177 820.079C992.049 818.928 992.777 818.839 1000.7 818.839C1007.94 818.839 1009.63 818.972 1012.68 819.813C1016.51 820.832 1023.93 824.063 1023.89 824.639C1023.89 824.816 1022.61 825.879 1021.06 826.985C1013.64 832.298 1009.22 841.196 1008.58 852.22C1008.35 856.426 1008.99 864.129 1009.68 865.191C1009.81 865.413 1010.59 864.129 1011.41 862.314C1017.24 849.475 1026.03 840.665 1037.32 836.282C1042.84 834.202 1047.16 833.449 1054.09 833.405C1057.5 833.405 1060.42 833.493 1060.51 833.626C1060.64 833.759 1060.23 835.53 1059.64 837.61C1058.78 840.399 1058.5 842.436 1058.5 845.579C1058.5 851.29 1059.14 853.858 1061.78 859.126C1063.56 862.668 1064.79 864.439 1067.61 867.316C1069.57 869.353 1071.35 870.902 1071.49 870.769C1071.62 870.637 1071.53 868.335 1071.26 865.678C1070.07 853.637 1072.99 842.923 1079.55 835.043C1085.7 827.605 1095.63 822.47 1107.56 820.389L1112.07 819.636L1108.15 818.22C1097.95 814.678 1086.65 814.501 1078.14 817.865C1074.54 819.282 1069.8 822.381 1067.02 825.126L1064.84 827.34L1062.79 825.834C1060.14 823.842 1054.91 821.451 1051.26 820.477C1047.3 819.459 1039.33 819.504 1035.37 820.522C1033.77 820.92 1032.4 821.186 1032.31 821.097C1032.04 820.876 1033.82 810.605 1035.14 804.85C1040.6 780.633 1051.58 757.568 1065.88 740.125C1086.79 714.625 1114.57 698.112 1149.92 690.232C1176.7 684.3 1204.76 683.547 1242.38 687.841L1244.75 688.107L1242.84 691.029C1240.29 694.836 1239.38 697.227 1238.97 701.034C1238.33 706.347 1239.47 712.19 1242.2 718.034C1243.39 720.558 1247.62 726.933 1248.12 726.933C1248.3 726.933 1248.49 726.313 1248.49 725.605C1248.49 722.24 1250.99 713.12 1253.27 708.029C1256.09 701.831 1262.74 694.172 1268.3 690.586C1276.45 685.362 1286.02 682.706 1296.49 682.662L1301.55 682.617L1298.36 681.024C1291.26 677.482 1283.24 675.534 1275.59 675.49C1268.71 675.49 1263.84 676.508 1256.96 679.341C1256.14 679.695 1256.09 679.518 1256.37 676.198C1257.41 663.049 1263.61 649.547 1272.95 640.117C1282.78 630.156 1295.86 624.135 1314.3 621.036C1319.63 620.151 1321.73 620.018 1335.26 620.018C1349.47 620.018 1356.89 620.505 1364.54 621.833L1366 622.099V614.086C1366 606.161 1366 606.073 1365 605.851C1363.91 605.63 1322.5 597.661 1267.16 587.036C1249.26 583.627 1224.35 578.846 1211.82 576.411C1188 571.851 1158.16 566.096 1136.89 562.023C1130.01 560.739 1117.63 558.348 1109.34 556.755C1101.09 555.161 1077.59 550.689 1057.18 546.749C1036.78 542.853 1015.55 538.736 1010.04 537.674C995.146 534.708 979.022 531.697 978.338 531.741C977.974 531.741 978.931 532.14 980.434 532.583Z" fill="#444444"/>
<path d="M304.264 538.381C294.608 540.506 277.299 544.402 265.776 546.97C254.252 549.538 242.682 552.105 240.041 552.725C234.575 553.965 222.96 556.532 183.788 565.298C150.173 572.78 92.5546 585.663 53.5195 594.384C37.7597 597.882 19.2215 601.999 12.4347 603.548L0 606.293V614.218V622.142L1.6853 621.832C10.1573 620.46 16.0331 620.062 30.062 620.062C45.3208 620.017 48.3725 620.239 57.3911 622.098C66.9563 624.046 77.0225 628.03 84.037 632.634C88.5919 635.645 94.5587 641.179 97.9749 645.606C104.352 653.973 108.77 665.794 109.909 677.481C110.091 679.34 110 679.606 109.362 679.385C108.952 679.252 106.948 678.588 104.944 677.835C99.8879 676.064 96.3351 675.489 90.4138 675.489C82.7617 675.533 74.6996 677.481 67.8673 680.934L64.9066 682.439L71.5112 682.749C91.2792 683.635 105.718 692.71 113.051 708.781C114.964 713.075 116.923 719.893 117.379 723.966C117.515 725.382 117.788 726.622 117.971 726.711C118.153 726.843 119.155 725.692 120.203 724.143C128.447 712.278 129.586 699.528 123.209 690.807C122.343 689.611 121.615 688.505 121.615 688.372C121.615 688.239 124.53 687.752 128.128 687.354C151.768 684.697 173.403 684.387 192.761 686.468C249.697 692.533 291.328 718.476 315.287 762.791C323.896 778.773 330.318 797.987 333.142 816.581C333.506 818.972 333.78 821.052 333.688 821.097C333.597 821.185 332.231 820.919 330.637 820.477C326.674 819.458 318.657 819.458 314.74 820.477C310.96 821.451 305.995 823.753 303.308 825.789L301.167 827.339L298.98 825.125C294.38 820.565 287.366 817.024 280.761 815.917C276.707 815.208 267.324 815.563 263.498 816.581C261.995 816.935 259.217 817.82 257.349 818.44L253.933 819.636L258.579 820.432C277.937 823.753 290.6 834.643 294.061 850.891C294.927 855.008 295.154 863.243 294.562 868.378L294.198 871.477L297.204 868.599C300.484 865.5 303.581 861.25 305.13 857.797C308.318 850.67 308.455 841.638 305.403 834.422C304.993 833.404 308.136 833.005 314.239 833.315C331.639 834.289 344.802 843.188 353.365 859.701C354.641 862.224 355.734 864.571 355.734 864.925C355.734 865.235 355.916 865.5 356.144 865.5C357.51 865.5 357.784 849.917 356.508 844.649C354.823 837.654 349.858 830.216 344.392 826.542C343.163 825.701 342.115 824.86 342.069 824.682C342.069 824.063 349.63 820.787 353.274 819.857C357.875 818.662 367.941 818.219 372.951 819.016C380.33 820.167 388.164 823.753 393.357 828.401C396.227 830.969 398.868 834.511 400.827 838.451L402.512 841.683L404.835 838.805C411.03 831.235 419.957 825.214 430.024 821.761C453.572 813.703 483.179 818.175 505.224 833.183C511.145 837.167 519.8 845.623 523.352 850.891C529.684 860.232 533.145 869.972 534.102 881.128L534.421 884.98H538.885C544.077 884.98 543.622 885.688 542.893 878.737C540.433 854.964 527.179 835.485 504.45 822.248C488.143 812.729 467.191 807.859 448.471 809.276C432.119 810.471 418.226 815.474 407.113 824.151L404.061 826.542L401.419 823.841C392.446 814.677 379.829 809.719 365.436 809.719C357.875 809.719 350.496 811.047 344.62 813.438C343.664 813.836 342.707 814.146 342.525 814.146C342.343 814.146 341.978 812.685 341.659 810.958C340.885 806.31 337.332 792.497 335.51 787.096C332.413 777.799 328.906 769.476 324.715 761.375L322.074 756.195L328.769 750.13C332.459 746.765 338.653 741.099 342.525 737.557C346.396 734.015 351.316 729.544 353.456 727.596C360.152 721.531 363.568 718.432 367.804 714.492C375.912 707.01 386.98 697.005 389.212 695.145C390.487 694.083 393.858 690.984 396.728 688.239C399.597 685.494 406.202 679.429 411.44 674.736C416.632 670.044 420.868 666.103 420.868 666.015C420.868 665.882 418.226 667.786 415.038 670.132C411.85 672.523 403.332 678.854 396.09 684.21C388.893 689.567 379.647 696.429 375.548 699.484C371.448 702.539 362.748 709.002 356.189 713.872C349.63 718.742 339.61 726.179 333.962 730.429C328.268 734.635 321.709 739.505 319.341 741.231C314.467 744.817 315.423 744.995 311.552 739.771C297.432 720.601 278.802 705.195 257.121 694.88C235.44 684.52 214.397 679.296 184.699 676.861C168.894 675.622 137.83 676.817 121.114 679.385L119.428 679.606L119.155 677.26C117.287 662.517 113.461 651.804 106.401 641.71C102.849 636.575 95.1964 629.181 89.8217 625.64C82.4428 620.77 72.0578 616.387 62.7203 614.262C60.8073 613.819 59.3497 613.288 59.5319 613.111C59.7597 612.934 68.095 610.366 78.1157 607.4C88.1364 604.478 98.8858 601.246 102.029 600.317C105.172 599.387 117.561 595.668 129.586 592.082C141.61 588.54 156.687 584.069 163.064 582.165C169.44 580.262 179.826 577.163 186.066 575.303C223.051 564.28 233.208 561.269 247.784 556.931C256.666 554.275 275.432 548.697 289.461 544.535C320.434 535.327 323.349 534.397 322.484 534.397C322.119 534.397 313.92 536.212 304.264 538.381Z" fill="#444444"/>
<path d="M367.349 643.527C364.343 645.342 361.564 646.714 361.2 646.626C360.835 646.537 357.92 645.563 354.732 644.457C351.543 643.394 348.856 642.553 348.765 642.641C348.674 642.73 349.312 645.696 350.131 649.238L351.68 655.657L347.581 660.837C345.303 663.714 343.572 666.105 343.664 666.194C343.709 666.282 346.852 666.636 350.541 666.991C354.914 667.389 357.419 667.787 357.601 668.142C359.059 670.665 365.026 678.235 365.299 677.97C365.527 677.748 366.802 675.004 368.123 671.86L370.583 666.149L376.868 664.334C380.33 663.316 383.154 662.342 383.2 662.121C383.245 661.899 381.15 659.863 378.508 657.649L373.726 653.576L373.589 646.891C373.543 643.173 373.316 640.162 373.134 640.162C372.951 640.206 370.355 641.712 367.349 643.527Z" fill="#444444"/>
<path d="M681.726 714.183C681.316 716.44 680.177 722.86 679.175 728.482C678.173 734.06 676.624 742.737 675.713 747.74C674.802 752.743 673.481 760.092 672.753 764.12C672.024 768.149 670.703 775.454 669.838 780.368C666.695 797.678 664.918 807.329 663.597 814.811C662.869 818.928 661.73 825.126 661.092 828.535C659.407 838.009 657.995 845.712 654.989 862.402C653.486 870.814 652.074 878.561 651.8 879.668C651.573 880.775 651.254 882.413 651.117 883.342L650.844 884.98H664.235H677.581L678.173 866.077C678.446 855.629 678.902 841.241 679.129 834.069C679.357 826.897 679.676 817.113 679.813 812.376C679.949 807.639 680.268 798.165 680.496 791.347C680.724 784.529 681.042 775.144 681.179 770.54C681.316 765.891 681.498 759.516 681.635 756.373C682.5 733.75 683.047 710.995 682.728 710.508C682.591 710.242 682.136 711.925 681.726 714.183Z" fill="#444444"/>
<path d="M964.58 744.509L964.853 751.061L959.661 755.444C956.791 757.835 954.514 759.915 954.559 760.092C954.605 760.225 957.429 761.155 960.845 762.173C964.261 763.191 967.222 764.165 967.449 764.387C967.632 764.608 968.907 767.309 970.182 770.408C971.503 773.551 972.733 776.074 972.915 776.074C973.098 776.074 974.965 773.684 977.015 770.806C981.296 764.785 980.294 765.272 989.449 764.741C992.137 764.564 994.323 764.254 994.323 764.032C994.323 763.855 992.592 761.465 990.451 758.764C988.311 756.064 986.58 753.54 986.58 753.186C986.58 752.788 987.218 749.91 987.992 746.767C988.721 743.579 989.267 740.879 989.131 740.746C988.948 740.569 981.934 742.694 976.787 744.509C976.514 744.598 973.826 743.225 970.866 741.499C967.859 739.772 965.172 738.222 964.853 738.134C964.443 738.001 964.398 739.551 964.58 744.509Z" fill="#444444"/>
</svg>
