<svg width="364" height="646" viewBox="0 0 364 646" fill="none" xmlns="http://www.w3.org/2000/svg">
<g clip-path="url(#clip0)">
<path d="M3.86347 393.999C9.93813 399.056 17.1173 400.398 24.5173 397.921C28.383 396.579 28.6039 396.683 30.9233 399.572C32.1382 401.12 35.2308 403.597 37.5502 405.041C39.9801 406.486 41.9681 408.24 41.9681 408.963C41.9681 409.685 40.0905 412.162 37.8816 414.432C31.1442 421.037 29.8188 423.204 29.8188 428.467C29.8188 432.491 30.4815 434.039 33.2427 437.032C35.3412 439.199 38.3233 441.056 40.9741 441.675C43.404 442.295 47.1592 443.946 49.3682 445.287C51.5771 446.732 54.7802 447.867 56.5473 447.867C63.7265 447.867 69.5802 442.295 69.5802 435.69C69.5802 433.833 70.2429 432.388 71.237 431.975C72.231 431.666 73.7773 429.705 74.6609 427.641C76.0967 424.545 76.0967 422.997 74.9922 418.56C74.3295 415.67 73.3355 412.265 72.7832 411.027C72.231 409.582 72.231 407.621 72.8937 406.073C74.5504 402.049 71.6787 396.373 67.7026 395.651C64.8309 395.135 64.6101 394.722 64.9414 391.007C65.1623 388.84 64.8309 385.537 64.1683 383.886C63.0638 380.894 63.2847 380.378 66.9295 376.972C69.1384 374.908 71.5683 371.709 72.4519 369.852C75.7653 362.319 73.3355 350.142 67.4817 345.291C66.2668 344.156 65.1623 342.196 65.1623 340.854C65.1623 339.513 64.3892 336.726 63.5056 334.662C62.622 332.702 61.8488 328.987 61.8488 326.51C61.8488 320.731 60.6339 317.842 56.3264 313.92C47.4906 305.561 32.58 308.038 26.8367 318.667L24.4069 323.208L16.7859 323.311C10.6008 323.517 8.39185 324.033 4.63661 326.407C0.550019 328.884 -0.0022227 329.709 -0.0022227 333.115V336.933L2.86943 333.527C9.38589 325.891 21.4248 323.827 30.8129 328.78L35.8935 331.36L32.0278 328.264C29.9293 326.51 27.8308 325.065 27.389 325.065C25.5113 325.065 26.6158 320.938 29.2666 317.945C33.3532 313.507 40.4219 311.237 46.0547 312.579C54.007 314.539 59.6399 320.731 59.6399 327.232C59.6399 329.09 59.3085 329.193 57.9832 328.161C55.6637 326.407 49.0368 325.168 47.3801 326.2C46.2756 326.82 46.9383 327.129 49.3682 327.129C57.0996 327.129 64.7205 338.481 62.0697 346.323C61.1862 349.213 61.1862 349.729 62.2906 348.903C63.2847 348.078 64.2787 348.387 66.0459 350.142C74.6609 358.707 71.0161 374.392 59.0876 380.584C56.8787 381.719 56.8787 381.719 59.3085 381.822C62.0697 381.822 62.8429 384.402 61.7384 390.491C59.3085 403.597 41.195 408.447 31.586 398.437C29.5979 396.373 29.5979 396.27 32.4696 392.658C35.8935 388.53 34.789 387.808 30.9233 391.626C27.6099 394.928 20.983 396.579 15.2396 395.754C10.159 394.928 3.64257 390.078 1.54405 385.434L0.108226 382.338L-0.0022227 386.569C-0.0022227 390.284 0.550019 391.42 3.86347 393.999ZM34.1263 420.314C35.3412 418.56 37.2189 416.806 38.4338 416.496C39.6487 416.083 40.8637 414.948 41.195 413.813C41.5263 412.781 43.404 410.923 45.392 409.685C48.9264 407.621 49.0368 407.518 46.0547 408.24C44.398 408.55 43.0726 408.447 43.0726 407.828C43.0726 407.312 45.5025 406.589 48.595 406.383C54.4488 405.867 61.1862 401.945 62.4011 398.334C63.3951 395.444 66.819 395.754 69.4698 398.953C72.0101 402.049 72.4519 405.66 70.5743 408.86C69.6907 410.407 69.6907 410.82 70.5743 410.304C71.237 409.891 71.8996 410.201 71.8996 410.923C72.0101 411.646 72.231 413.4 72.4519 414.845C74.2191 426.196 74.3295 425.68 71.3474 428.983C69.8011 430.737 68.4757 432.904 68.4757 433.833C68.4757 439.715 62.2906 445.803 56.3264 445.803C52.6816 445.803 47.7115 442.914 45.9443 439.818C44.7294 437.857 44.2876 437.548 44.1771 438.786C44.1771 442.295 35.1203 437.445 33.0218 432.904C31.4756 429.292 31.9173 423.72 34.1263 420.314Z" fill="#444444"/>
<path d="M60.97 433.419C64.9461 433.522 68.4805 431.148 68.4805 428.362L68.37 425.679L66.8237 428.259C66.0506 429.704 63.9521 431.355 62.1849 432.077C60.3073 432.799 59.8655 433.315 60.97 433.419Z" fill="#444444"/>
<path d="M2.3207 370.472C3.53563 368.511 5.85505 365.725 7.51178 364.383C9.1685 363.042 9.94164 362.319 9.27895 362.629C8.50581 362.938 6.1864 361.391 3.97743 359.12C0.884875 355.818 0.00128774 355.405 0.00128774 356.953C0.00128774 358.088 1.54756 359.946 3.42519 361.287L6.84909 363.454L3.42519 366.757C1.54756 368.614 0.00128774 370.988 0.00128774 372.02C0.00128774 373.568 0.663978 373.155 2.3207 370.472Z" fill="#444444"/>
<path d="M3.09255 28.1732C7.17914 31.8882 13.3642 31.9914 17.1195 28.4828C19.218 26.4189 20.5434 26.1093 24.5195 26.5221C34.5703 27.4508 41.1972 18.9888 36.8897 10.63C35.6748 8.46286 33.3554 5.98617 31.4778 5.1606C29.2688 4.12865 28.2748 2.9935 28.4957 1.75516C29.0479 -1.03112 26.8389 -0.308753 26.0658 2.58072C25.624 4.02545 23.7464 6.08936 21.7583 7.22451C19.8807 8.35966 18.6658 9.28842 19.218 9.28842C19.7702 9.28842 21.8688 8.35966 23.8568 7.12132C26.7285 5.47019 28.0539 5.2638 29.7106 6.19256C36.0062 9.28842 37.2211 16.9249 32.1405 21.7751C27.833 25.7997 22.5315 25.7997 17.4508 21.8783L13.806 19.092L15.7941 21.9815C17.7822 24.7677 17.7822 25.0773 15.9046 26.9348C12.0389 30.8563 5.52242 29.2051 1.43583 23.1166C0.220896 21.2591 0.110448 21.2591 0.110448 23.323C-5.62865e-07 24.4581 1.43583 26.6252 3.09255 28.1732Z" fill="#444444"/>
<path d="M2.8711 214.541C3.75469 216.502 5.08007 218.772 5.85321 219.598C6.62635 220.527 7.06814 223.416 6.84724 227.131C6.40545 233.736 8.06217 237.451 12.9219 240.856C19.6592 245.5 31.3668 243.436 35.5638 236.625C36.8892 234.561 38.6564 233.22 39.9817 233.22C45.7251 233.22 51.9102 226.615 51.9102 220.32C51.9102 217.328 49.5907 212.581 47.1609 210.723C45.7251 209.588 45.8355 208.969 47.7131 205.563C52.2415 197.514 47.8236 188.02 38.4355 185.647C36.116 185.131 33.0235 183.583 31.5877 182.138C21.7578 173.057 5.08007 180.693 7.06814 193.49C7.50993 196.998 7.17859 198.237 5.52186 199.681C3.53379 201.332 1.10393 207.318 1.10393 210.001C1.21438 210.517 1.87707 212.581 2.8711 214.541ZM6.07411 202.158C7.06814 200.507 9.38755 198.133 11.3756 196.998C14.7995 195.038 14.7995 194.934 11.8174 195.657C8.94576 196.276 8.83531 196.173 8.83531 191.632C8.83531 181.313 20.8742 176.05 29.8205 182.654C32.1399 184.408 32.3608 184.821 30.925 185.75C29.71 186.472 30.4832 186.782 34.0175 186.782C38.1041 186.782 39.5399 187.401 42.6325 190.291C45.6146 193.077 46.3877 194.625 46.3877 198.03C46.3877 202.571 44.5101 207.421 42.7429 207.421C42.0803 207.421 42.8534 208.762 44.5101 210.31C50.4743 216.089 50.2534 223.623 44.0683 228.473C40.0922 231.672 33.5757 232.085 28.9369 229.505L25.9548 227.854L29.0474 230.537C30.7041 231.981 32.913 233.22 33.7966 233.22C36.2265 233.22 35.6743 234.871 32.0295 237.657C25.7339 242.61 17.7816 242.507 12.1488 237.244C8.39352 233.632 6.84724 227.957 8.61442 223.623C9.7189 221.043 9.498 220.114 7.17859 216.915C3.97559 212.477 3.53379 206.802 6.07411 202.158Z" fill="#444444"/>
<path d="M5.1896 626.083C5.85229 629.282 11.4852 634.648 14.2464 634.751C21.6464 635.164 23.6345 634.854 26.2852 632.584C28.1629 630.933 29.1569 630.726 30.8136 631.552C32.0286 632.068 35.2316 632.584 37.8823 632.584C48.3749 632.584 55.554 623.709 52.7928 614.009C52.0197 611.532 52.2406 611.429 57.8735 611.223C61.0765 611.223 65.2735 610.397 67.2616 609.468C70.6855 607.714 76.6497 601.109 77.8646 597.394C78.3064 596.259 79.6318 595.434 80.9572 595.434C84.1602 595.434 90.1244 591.925 91.7811 589.139C93.4378 586.249 93.4378 579.129 91.8916 577.684C91.1184 576.962 91.4498 575.517 93.3274 572.834C101.059 561.999 97.8558 547.448 86.3691 540.74C82.5034 538.47 82.0616 537.748 82.5034 535.065C83.9393 526.912 77.6437 517.418 69.0287 514.323C56.4376 509.885 41.8585 517.831 40.2017 530.111L39.6495 534.033L41.1958 530.215C43.7361 523.92 45.945 521.546 51.1361 519.173C60.1929 515.045 69.1392 517.006 75.4347 524.436C79.9631 529.699 80.6258 536.613 77.4228 542.598C75.1034 546.932 76.0974 548.79 78.6378 544.868C80.4049 542.288 81.8408 542.288 85.4855 544.971C92.4438 550.131 95.0946 561.483 91.1184 569.635C89.5721 572.731 88.5781 573.66 87.3632 573.144C82.0616 571.08 81.399 571.492 85.0438 574.485C88.4677 577.271 88.9094 578.303 88.9094 582.534C88.9094 586.662 88.3572 587.797 85.2647 590.377C82.7243 592.441 80.5154 593.37 77.7542 593.37C75.4347 593.37 74.1094 593.783 74.5512 594.402C74.993 595.021 74.1094 597.188 72.784 599.149C69.4705 604.308 60.0824 608.333 53.8973 607.404C46.2764 606.269 45.2824 605.444 46.6077 600.697C47.6018 597.188 47.3809 595.95 45.6137 593.163C44.5092 591.306 41.9689 589.036 39.9808 588.21C38.1032 587.385 36.4465 586.146 36.4465 585.424C36.4465 582.947 39.0972 578.923 40.754 578.819C41.748 578.819 39.9808 578.2 36.8883 577.478C29.7091 575.827 24.8494 572.524 22.1986 567.674C17.3389 558.903 18.333 550.647 25.0703 543.733C31.145 537.438 42.4107 535.168 49.9212 538.883C51.1361 539.399 51.9093 539.399 51.9093 538.883C51.9093 537.232 45.3928 535.271 39.4286 535.168C24.6285 535.065 14.0255 548.067 17.0076 562.721C18.1121 567.984 25.6225 575.414 31.9181 577.581C37.2196 579.335 37.2196 579.335 36.1151 582.638C35.342 585.011 34.0166 586.353 31.6972 587.178C29.8196 587.694 27.3897 589.036 26.2852 589.964C24.9599 590.996 22.1986 591.719 18.7748 591.719C8.72395 591.925 2.98064 600.387 7.39857 608.643C9.38664 612.461 9.38664 612.77 7.50902 615.144C5.4105 617.827 4.30602 622.574 5.1896 626.083ZM8.39261 616.485C9.38664 614.525 10.6016 612.977 11.1538 612.977C11.5956 612.977 11.0434 611.326 9.71799 609.262C7.72992 606.063 7.61947 605.134 8.72395 601.522C10.3807 596.362 15.4613 593.06 20.5419 593.783C23.3031 594.092 24.6285 593.679 26.6166 591.719C28.4942 589.861 30.2614 589.242 33.6853 589.242C39.3181 589.242 42.742 591.409 44.0674 595.95C45.3928 600.697 44.5092 603.689 41.5271 603.689C39.7599 603.689 39.9808 604.102 42.9629 605.547C47.0495 607.611 50.8048 613.08 50.8048 616.898C50.8048 627.94 36.4465 634.648 27.3897 627.631L23.7449 624.844L25.733 627.631C27.5002 630.314 27.5002 630.52 25.2912 631.655C19.327 634.545 11.2643 632.068 8.06126 626.289C6.18364 622.987 6.29409 620.716 8.39261 616.485Z" fill="#444444"/>
<path d="M6.9598 86.6824C11.1568 100.82 25.5151 109.076 38.1062 104.948C42.3033 103.503 42.6346 103.606 44.4018 105.773C46.169 108.044 46.2794 108.457 44.6227 112.068C42.3033 117.331 42.3033 126.206 44.6227 132.81C46.9421 139.415 54.563 146.742 61.4108 149.218C72.1243 153.037 85.4886 148.599 92.1155 139.105C93.9931 136.422 95.7603 134.255 96.0916 134.255C96.4229 134.152 97.5274 135.494 98.5215 137.248C99.5155 138.899 102.277 141.582 104.707 143.13C108.683 145.813 109.124 146.535 109.787 151.902C110.671 159.951 114.095 166.349 120.39 171.715C142.149 189.877 178.265 173.572 175.283 146.948C174.952 144.059 173.847 140.137 172.853 138.28L171.086 135.081L175.614 130.437C192.182 113.616 191.188 83.0706 173.737 68.1073C170.423 65.2179 167.22 62.9476 166.668 62.9476C166.005 62.9476 166.116 62.0188 166.889 60.7805C167.552 59.439 167.883 55.7239 167.662 52.0089C167.331 46.746 166.558 44.5789 163.796 41.0703C157.611 33.0211 144.026 28.9965 134.086 31.9891C127.79 33.9498 121.605 37.8712 119.507 41.2767C118.513 42.9278 115.641 45.0949 113.211 46.0236C110.781 47.0556 108.462 47.9843 108.13 48.1907C107.799 48.3971 106.916 47.262 106.142 45.714C102.498 38.284 91.1214 28.8933 85.7095 28.8933C84.2736 28.8933 81.5124 26.8294 78.7512 23.8367C71.793 16.3035 62.7362 13.8268 54.3421 17.1291C46.9421 19.9153 41.9719 25.591 40.3152 33.0211C39.8734 34.9818 37.554 38.5936 35.2346 40.9671C32.8047 43.4438 30.7062 46.746 30.3748 48.9131C29.8226 51.6993 29.0495 52.6281 27.3927 52.6281C21.539 52.6281 11.3777 60.3677 8.39563 67.2818C5.96577 72.6479 5.30308 81.3163 6.9598 86.6824ZM11.5986 70.584C14.5807 61.0901 23.6375 53.9696 33.1361 53.5568C35.7868 53.4537 36.2286 53.2473 34.4614 52.9377C33.1361 52.7313 32.0316 52.3185 32.0316 52.0089C32.0316 50.0482 35.5659 44.3725 37.7749 42.7214C39.4316 41.483 40.757 39.2128 41.1988 36.7361C42.1928 31.0604 46.7212 25.1783 52.1332 22.5984C58.5392 19.5025 67.8168 20.1217 73.3392 24.1463C75.5482 25.6942 77.3154 27.3454 77.3154 27.7581C77.3154 28.2741 75.6587 28.9965 73.6706 29.3061C71.793 29.7188 69.1422 30.7508 67.9273 31.6795L65.7183 33.3307L67.9273 32.5051C72.2348 31.0604 79.3035 30.7508 83.1691 31.8859C88.9125 33.7434 97.7483 41.5862 100.951 47.7779C103.492 52.6281 103.602 53.5568 102.498 58.0974C101.393 62.2252 100.51 63.3604 96.6438 65.5274C80.0766 74.5054 74.6646 94.5252 84.4945 109.798L88.2498 115.577L85.8199 117.022C84.4945 117.744 81.8438 118.776 80.0766 119.292L76.7631 120.118L79.6348 120.53C81.2915 120.634 84.4945 120.118 86.7035 119.292C88.9125 118.363 91.2319 117.95 91.7841 118.26C93.5513 119.189 92.7781 128.27 90.6796 132.604C82.9482 148.187 62.2944 151.179 50.5869 138.383C43.7391 130.85 42.3033 119.498 47.0525 110.933L49.2615 107.012L46.6107 104.329C44.5122 102.162 44.0704 100.82 44.4018 96.6923C44.6227 92.5645 44.5122 92.0485 43.2973 93.5965C42.6346 94.5252 41.9719 96.7955 41.9719 98.653C41.9719 102.368 40.6465 103.194 33.9092 103.194C24.4106 103.194 14.6912 96.0731 11.5986 86.6824C9.61056 80.5939 9.61056 76.7757 11.5986 70.584ZM87.1453 81.0067C92.8886 69.6552 104.265 62.3284 118.513 60.8837C122.931 60.4709 125.25 59.9549 123.704 59.8517C119.948 59.439 119.617 59.439 112.328 60.1613C105.148 60.9869 104.707 60.2645 107.799 54.0728C109.787 50.0482 114.757 46.8492 121.053 45.5076C123.704 44.8885 124.366 44.5789 122.82 44.4757C118.734 44.2693 121.716 40.8639 128.674 37.5616C133.975 35.1882 135.743 34.8786 141.375 35.3946C153.746 36.4265 162.14 43.4438 163.244 53.66C163.796 59.7485 160.814 66.5594 158.053 65.4243C157.059 65.0115 154.077 64.4955 151.316 64.3923C147.119 64.0827 146.898 64.1859 149.659 64.9083C160.152 67.4882 166.889 76.2597 165.453 85.6505C164.79 89.9846 166.447 88.4367 167.993 83.3802C168.987 79.9747 168.877 78.3236 167.331 74.7118C166.337 72.3383 164.79 69.7584 164.017 69.1393C161.146 66.9722 163.465 65.9402 166.999 67.7977C171.417 70.2744 176.167 75.9501 179.591 83.0706C186.549 97.2083 183.346 118.982 172.853 129.302L169.982 132.088L165.232 128.476C160.262 124.658 152.42 121.149 152.42 122.697C152.42 123.213 153.967 124.142 155.734 124.864C163.023 127.651 171.196 139.931 171.196 148.083C171.196 153.037 167.552 161.292 163.686 165.317C157.722 171.405 150.322 174.398 140.823 174.398C128.674 174.295 118.623 168.825 113.874 159.641C111.002 153.965 110.339 146.948 112.659 147.361C118.071 148.496 125.913 148.702 127.68 147.774C129.447 146.845 128.784 146.639 124.256 146.535C107.578 146.432 94.7662 131.159 98.8528 116.196C99.8468 112.584 99.8468 111.552 98.9633 112.791C95.4289 118.26 95.4289 118.26 92.8886 116.196C91.5632 115.061 89.1334 111.449 87.2557 108.044C82.6169 99.3754 82.6169 89.8814 87.1453 81.0067Z" fill="#444444"/>
<path d="M71.351 191.739C71.6824 192.461 73.8913 194.009 76.3212 195.041C78.6406 196.176 80.6287 197.827 80.6287 198.756C80.6287 199.582 81.8436 201.439 83.3899 202.781C89.575 208.663 100.509 204.432 100.509 196.383C100.509 192.977 100.841 192.358 102.939 192.255C107.136 191.945 111.002 187.302 111.002 182.555C111.002 178.943 110.339 177.808 107.357 175.434C105.48 173.989 103.823 172.132 103.823 171.41C103.823 170.79 102.608 169.036 101.062 167.695C98.0795 164.908 91.0108 164.083 88.5809 166.353C87.9183 166.972 85.0466 167.488 82.2854 167.282C78.1988 167.179 76.763 167.591 74.554 169.758C72.1241 171.925 71.6824 173.267 71.7928 177.808C71.9033 180.697 71.6824 184.825 71.351 186.786C71.0197 188.746 71.0197 191.017 71.351 191.739ZM73.3391 184.515C74.554 182.245 74.6645 181.007 73.6704 178.633C72.5659 175.95 72.7868 175.021 74.7749 172.648C76.6525 170.274 77.8675 169.758 81.8436 169.758C84.4944 169.655 87.8078 169.139 89.1332 168.417C90.4586 167.695 92.4466 167.179 93.6616 167.179C96.3123 167.179 101.835 171.1 101.062 172.338C100.73 172.854 101.835 173.989 103.602 174.815C107.357 176.569 108.241 178.324 108.241 183.174C108.241 189.159 101.062 192.668 94.6556 189.881C92.4466 188.953 92.4466 188.953 94.2138 190.088C95.3183 190.81 97.0855 191.945 97.9691 192.564C99.184 193.39 99.5153 194.525 98.9631 196.486C96.3123 206.289 81.7332 205.154 81.7332 195.144C81.7332 192.668 81.4018 191.945 80.7391 192.771C79.3033 194.938 74.7749 193.803 73.2286 190.913C71.4615 187.714 71.4615 187.921 73.3391 184.515Z" fill="#444444"/>
<path d="M87.8062 520.618C89.242 522.063 91.7823 523.198 93.3286 523.198C94.8748 523.198 96.0898 523.611 96.0898 524.23C96.0898 524.746 97.0838 526.191 98.2987 527.326C101.17 530.009 107.245 530.009 109.785 527.429C111.221 525.985 112.657 525.572 115.197 525.985C120.388 526.707 124.254 524.849 126.353 520.618C128.782 515.975 127.236 510.505 122.818 508.338C120.278 507.1 119.947 506.378 120.278 502.353C120.609 495.955 116.965 492.24 110.006 492.24C107.245 492.24 104.815 492.653 104.484 493.169C104.153 493.581 102.606 493.788 101.06 493.478C94.8748 492.446 89.1315 496.987 89.242 503.282C89.242 504.83 88.2479 507.306 87.1435 508.648C84.1614 512.157 84.3823 517.523 87.8062 520.618ZM89.1315 508.545C90.1256 507.513 91.0092 505.242 91.1196 503.385C91.3405 501.321 92.5554 499.154 94.4331 497.709C97.4152 495.336 102.385 494.407 100.95 496.471C100.618 497.09 101.502 496.884 103.048 495.852C107.576 493.169 112.547 493.478 115.639 496.78C118.842 500.289 118.842 504.52 115.75 508.338L113.209 511.331L116.302 509.473C119.284 507.719 119.394 507.719 122.045 510.196C129.997 517.626 119.726 528.461 110.448 522.476C107.797 520.825 107.797 520.825 109.233 522.476C110.559 524.024 110.448 524.54 108.791 526.294C107.687 527.429 105.588 528.358 104.153 528.358C101.612 528.358 97.1943 525.159 97.1943 523.198C97.1943 522.579 96.0898 522.166 94.6539 522.166C87.5853 522.166 84.1614 513.704 89.1315 508.545Z" fill="#444444"/>
<path d="M116.965 646C117.628 646 118.732 644.968 119.395 643.73C120.168 642.491 121.714 640.531 123.04 639.499C124.365 638.467 124.586 637.951 123.702 638.364C119.616 640.221 114.535 646 116.965 646Z" fill="#444444"/>
<path d="M126.684 630.624C129.114 626.083 134.084 623.297 140.158 623.297C144.245 623.297 145.57 623.916 149.215 627.322C152.86 630.624 153.523 631.965 153.523 635.577C153.523 637.951 152.75 641.253 151.866 642.904C150.209 645.897 150.209 646 152.418 646C153.744 646 154.517 645.587 154.185 645.071C153.854 644.555 154.296 642.801 155.179 641.253C158.382 635.371 156.836 628.56 150.872 623.4C147.117 620.098 137.729 619.169 132.869 621.646C129.114 623.4 124.806 629.076 124.806 632.172C124.806 633.513 125.469 632.997 126.684 630.624Z" fill="#444444"/>
<path d="M180.914 589.965C188.093 608.643 205.544 616.383 222.664 608.54C229.18 605.651 230.947 607.096 227.082 612.462C221.228 620.511 220.344 631.656 224.762 640.531C226.75 644.762 227.965 646 229.843 646C232.162 646 232.162 645.897 230.506 644.142C226.971 640.531 224.21 633.204 224.21 627.425C224.21 620.717 227.192 614.01 232.273 609.056C234.371 606.992 235.034 605.857 233.819 606.373C232.825 606.683 231.168 606.476 230.174 605.754C228.738 604.516 228.849 604.103 231.168 601.729C234.482 598.324 237.464 594.196 237.464 592.958C237.464 592.442 236.028 593.887 234.261 596.054C227.523 604.619 221.449 607.818 211.84 607.818C201.016 607.715 192.18 601.936 186.768 591.307C183.013 583.773 182.681 570.668 186.216 563.341C191.076 553.537 201.789 545.901 211.067 545.901H215.153L215.595 551.783C215.926 555.085 216.92 559.419 218.025 561.38C219.019 563.341 219.461 564.063 219.019 562.928C218.688 561.793 218.135 557.252 217.804 552.815C217.362 545.385 217.583 544.25 220.786 538.161C227.744 525.056 243.759 518.245 258.449 522.166C265.186 524.024 265.518 524.436 262.977 529.183C261.762 531.454 260.437 535.169 259.995 537.439C259.112 543.011 261.983 551.783 266.18 556.014C268.5 558.491 269.494 560.451 269.494 563.031C269.494 567.572 271.813 571.7 276.01 575.105C277.777 576.447 278.992 577.891 278.661 578.201C277.336 579.439 279.765 587.385 282.748 591.513L285.951 595.95L283.521 598.324C282.195 599.665 279.324 601.626 277.225 602.761C273.912 604.309 273.691 604.619 275.789 604.722C277.225 604.722 278.33 604.825 278.33 605.032C278.33 608.231 274.243 616.28 271.482 618.86C264.634 625.051 256.571 626.806 248.73 623.813C245.085 622.472 244.864 622.472 246.852 623.813C252.153 627.735 261.542 628.147 268.389 624.948C270.488 624.019 271.924 623.813 272.365 624.535C274.133 627.219 269.494 641.459 266.18 643.42C264.192 644.555 265.076 646.103 267.506 645.794C269.162 645.587 271.04 643.833 272.807 640.84C275.127 637.022 275.568 634.752 275.568 628.25C275.568 622.368 276.121 619.892 277.446 618.447C280.097 615.764 281.643 611.43 281.643 606.889C281.643 604 282.416 602.349 284.957 600.078C287.828 597.498 288.601 597.292 291.031 598.324C295.56 600.285 304.837 599.872 308.813 597.602C317.318 592.751 321.957 581.813 318.975 573.557C317.428 569.017 317.428 568.913 320.521 565.508C330.13 554.673 329.357 533.105 319.085 522.992C315.44 519.38 314.998 518.245 314.557 512.363C314.225 507.1 313.563 505.139 311.464 502.972C307.046 498.638 302.96 497.09 296.775 497.709C292.136 498.122 290.589 498.844 286.724 502.353C284.294 504.726 280.649 507.822 278.661 509.267C276.452 511.021 274.795 513.291 274.354 515.458C273.47 519.896 271.261 521.857 269.052 520.102C268.168 519.483 267.727 518.245 268.058 517.522C269.494 513.911 263.419 504.933 258.449 503.385C257.676 503.178 257.676 502.043 258.559 499.67C259.553 496.883 259.443 495.645 257.455 491.827C254.141 485.532 246.079 482.849 239.783 485.945C238.679 486.564 236.138 486.77 234.371 486.461C227.523 485.222 219.792 491.62 219.792 498.638C219.792 501.527 218.908 503.694 217.031 505.861C211.84 511.64 214.049 519.896 221.559 522.785L225.314 524.23L221.559 529.39C219.461 532.176 217.141 536.82 216.368 539.606C215.043 544.559 214.932 544.663 211.508 544.147C206.207 543.321 196.598 546.417 191.517 550.442C189.087 552.402 185.443 556.84 183.344 560.451C180.252 565.921 179.699 568.088 179.258 575.724C178.926 582.535 179.368 585.837 180.914 589.965ZM218.135 507.719C219.129 505.965 220.344 504.623 220.897 504.623C221.559 504.623 222.001 502.765 222.001 500.495C222.001 495.439 226.419 490.485 231.831 489.453C235.255 488.834 235.476 488.937 234.261 491.001C232.273 494.407 232.825 494.304 236.801 490.588C239.673 487.905 241.44 487.08 244.643 487.08C247.846 487.08 249.613 487.905 252.485 490.588C258.118 495.851 257.344 503.281 250.938 506.996C249.282 507.925 248.509 508.751 249.171 508.751C249.834 508.751 251.712 507.822 253.258 506.584C255.467 505.036 256.682 504.726 258.118 505.552C261.542 507.203 263.861 510.299 264.634 513.807L265.407 517.213L260.547 516.387C250.607 514.53 242.765 515.252 235.034 518.864C226.861 522.579 224.652 522.888 221.117 520.515C216.589 517.522 215.374 512.569 218.135 507.719ZM264.303 532.176C267.727 524.643 274.133 519.793 283.079 518.038L287.718 517.11L281.864 517.419C276.452 517.729 276.121 517.626 276.783 515.562C277.998 511.64 280.539 508.751 283.3 508.132C284.846 507.822 286.061 506.893 286.061 506.171C286.061 503.591 292.246 500.495 297.437 500.495C307.046 500.495 314.115 508.441 311.906 516.8C310.912 520.515 310.691 520.618 306.494 520.309L302.076 520.102L305.389 521.444C310.249 523.611 312.9 526.81 313.673 531.763C314.446 536.097 314.446 536.097 315.33 533.002C315.993 530.731 315.661 529.08 313.894 526.088C310.912 520.825 313.452 520.825 318.091 525.984C322.178 530.731 324.718 538.161 324.718 545.798C324.718 552.815 323.503 557.046 319.748 563.031L316.876 567.675L312.348 563.96C309.807 561.999 307.046 560.348 306.163 560.348C305.279 560.348 306.163 561.38 308.261 562.722C312.9 565.611 316.987 572.835 316.987 578.407C316.876 588.211 309.918 595.435 299.757 596.26C290.921 596.982 284.294 592.855 280.87 584.599C278.33 578.511 278.882 577.685 284.625 578.407C289.043 578.82 289.485 578.82 287.166 577.788C275.237 572.938 271.482 568.397 271.924 559.523C272.145 555.395 271.924 554.466 271.04 555.704C269.936 557.046 269.604 557.046 268.168 555.395C262.977 549.926 261.21 539.193 264.303 532.176Z" fill="#444444"/>
<path d="M234.262 51.9073C235.477 54.0744 237.907 56.6543 239.674 57.583C241.883 58.7181 243.209 60.5757 243.982 63.4651C246.743 73.5782 254.364 79.3571 265.74 80.2859C275.349 81.0083 283.522 77.4996 288.272 70.5856C290.039 67.9025 291.585 64.9098 291.585 63.9811C291.585 63.0523 293.573 60.6789 296.113 58.8213C300.973 55.2095 303.734 50.3594 303.734 45.6124C303.734 40.8654 299.096 33.8482 294.346 31.3715C290.922 29.514 290.149 28.482 289.818 25.283C289.045 16.7178 280.54 10.1133 270.6 10.1133C267.618 10.2165 264.083 10.7325 262.648 11.4549C259.224 13.106 254.033 17.6466 252.818 20.1233C251.934 21.6712 252.376 21.568 254.254 19.6073C258.119 15.5827 260.218 14.3443 264.746 13.3124C270.489 12.1772 277.006 13.9316 281.313 17.853C285.289 21.3616 287.278 27.5533 284.958 28.8948C284.075 29.4108 284.627 29.9268 286.836 30.3395C288.713 30.7523 291.806 32.6098 293.794 34.5705C296.776 37.46 297.549 39.1111 297.881 43.5485C298.433 49.9466 296.003 54.4872 290.26 57.7894C286.063 60.1629 276.343 60.5757 272.477 58.615C270.269 57.583 270.158 57.583 271.594 59.1309C273.251 61.0916 279.436 62.9491 284.075 62.9491C288.161 62.9491 287.94 64.2907 282.97 69.244C275.128 77.19 261.433 77.9124 252.376 70.9983C247.516 67.1801 245.197 62.7428 245.086 56.5511C244.976 54.0744 244.755 53.0424 244.424 54.1776C243.43 57.8926 242.436 57.8926 238.57 54.1776C235.588 51.2881 234.815 49.637 234.373 45.0964C233.6 36.428 238.68 29.8236 247.295 28.2756C251.161 27.5533 253.039 25.799 249.946 25.799C246.853 25.9022 239.343 29.4108 236.692 32.0939C231.501 37.3568 230.507 45.3028 234.262 51.9073Z" fill="#444444"/>
<path d="M252.153 415.358C255.687 423.82 262.204 429.702 271.04 432.385C276.231 433.933 285.398 433.314 290.147 431.146C294.124 429.289 293.903 429.083 295.449 436.513C297.437 445.594 305.279 455.913 314.336 460.867C327.479 468.09 345.151 465.201 356.306 453.953C363.706 446.419 363.375 448.896 363.375 409.063C363.264 374.802 363.154 372.738 361.276 371.087C359.288 369.436 359.288 368.92 360.724 365.824C364.369 357.569 360.503 343.74 353.434 339.819C351.336 338.684 350.01 336.93 349.569 334.762C348.243 327.642 339.739 322.069 332.67 323.411C329.909 324.03 329.688 323.824 329.688 320.934C329.688 318.458 330.24 317.735 332.67 317.219C336.536 316.497 340.181 311.75 340.181 307.519C340.181 305.249 339.187 303.288 336.978 301.224C335.1 299.573 333.333 297.303 333.001 296.168C332.007 293.278 327.148 289.976 323.724 289.976C322.177 289.976 319.527 290.698 317.87 291.421C315.992 292.349 313.342 292.762 311.022 292.349C307.709 291.833 306.604 292.246 303.733 294.929C300.309 298.128 299.425 302.359 301.413 305.352C302.076 306.384 301.965 307.622 300.861 308.964C299.977 310.099 299.315 312.163 299.315 313.504C299.315 316.291 303.953 320.934 306.715 320.934C308.151 320.934 309.145 322.069 309.807 324.237C310.691 326.816 312.127 328.158 315.551 329.706C319.968 331.667 320.189 331.976 319.527 335.382C319.195 337.342 318.422 339.2 317.76 339.406C315.551 340.232 308.261 346.939 307.598 348.9C307.046 350.345 305.831 350.861 302.739 350.861C294.344 350.861 282.306 356.124 275.9 362.625C272.034 366.443 267.837 373.77 266.732 378.723C266.18 381.097 264.192 383.677 260.879 386.463C252.043 393.687 248.287 406.07 252.153 415.358ZM255.356 398.021C256.019 395.854 258.78 391.829 261.431 389.146L266.07 384.399L266.18 387.495C266.291 389.146 266.953 391.932 267.837 393.687L269.494 396.783L268.61 393.171C265.297 378.104 273.249 364.07 289.043 357.362C294.234 355.092 296.222 354.782 304.285 355.092C309.365 355.298 313.894 355.814 314.225 356.227C314.667 356.64 313.783 358.394 312.127 360.148C310.58 361.903 309.255 364.173 309.255 364.999C309.255 366.03 310.139 365.618 311.685 363.657C315.44 359.22 318.312 357.053 321.736 356.433C323.392 356.021 325.049 355.298 325.38 354.782C325.712 354.266 324.828 354.163 323.392 354.473C322.067 354.782 318.533 354.163 315.771 353.234C311.464 351.686 310.801 351.067 311.464 349.313C312.016 348.178 313.894 345.907 315.661 344.256L318.974 341.367L320.852 344.256C321.846 345.907 322.288 346.32 321.846 345.185C320.189 340.748 320.079 338.477 321.404 334.969C323.834 327.952 332.339 324.443 339.297 327.539C342.5 328.984 346.807 333.73 346.807 335.794C346.807 336.104 344.598 336.414 341.837 336.414C337.309 336.414 330.24 338.684 330.24 340.129C330.24 340.335 331.345 340.129 332.56 339.406C336.315 337.549 345.813 338.787 349.9 341.573C354.87 345.082 358.294 352.202 358.184 358.91C358.184 364.895 356.637 367.372 354.318 365.618C352.772 364.483 345.703 362.109 345.703 362.728C345.703 362.935 347.581 364.07 349.79 365.308C361.276 371.5 365.363 385.328 359.73 398.33C357.079 404.625 355.533 405.141 354.207 400.498C352.772 395.131 351.778 396.163 352.109 402.665C352.661 410.507 350.784 416.802 346.034 423.304C343.494 426.709 342.942 428.051 344.267 427.431C348.464 425.264 354.539 417.112 354.539 413.5C354.539 412.675 355.533 411.23 356.858 410.095C359.619 407.721 360.724 408.96 361.828 415.667C365.363 437.648 351.557 457.255 331.455 458.906C328.031 459.216 323.282 458.906 320.742 458.287C309.697 455.5 299.867 445.697 296.664 434.449C295.228 428.979 295.228 428.67 297.547 426.709C298.873 425.574 300.75 423.716 301.524 422.581C302.407 421.446 301.413 421.962 299.315 423.82C288.822 432.901 272.034 432.385 261.873 422.685C254.583 415.77 252.374 407.308 255.356 398.021ZM302.518 309.067C303.18 308.757 303.291 306.281 302.959 303.494C302.407 299.16 302.739 298.231 304.947 296.271C307.046 294.413 308.482 294 311.795 294.413C314.225 294.723 317.207 294.31 319.085 293.484C321.515 292.349 322.951 292.246 325.712 293.175C329.357 294.413 332.67 298.231 330.019 298.231C329.246 298.335 330.24 298.954 332.228 299.779C338.303 302.256 339.518 309.17 334.548 313.814C332.56 315.671 331.234 315.878 327.037 315.465C322.067 314.949 322.067 314.949 325.049 316.394C331.345 319.593 327.037 328.158 319.085 328.158C314.225 328.158 310.359 324.546 310.359 320.006C310.359 318.251 310.028 317.735 309.476 318.664C308.371 320.212 303.18 318.767 302.297 316.6C301.303 314.33 301.524 309.686 302.518 309.067Z" fill="#444444"/>
<path d="M282.085 206.491C285.288 214.334 288.381 218.668 294.013 223.415C299.646 228.162 299.867 228.575 299.978 233.941C300.309 241.887 302.076 247.253 306.825 253.858C316.876 267.789 334.769 271.814 349.9 263.558C355.754 260.359 357.632 261.288 355.754 266.344C353.324 272.949 355.533 281.72 361.056 286.261C363.375 288.222 363.375 288.222 363.375 286.158C363.375 285.023 362.381 283.268 361.166 282.236C357.079 278.728 355.533 269.027 358.294 264.28C359.73 261.907 359.509 261.391 356.417 257.779C349.679 249.833 351.667 236.211 360.393 231.052C363.044 229.4 363.265 228.988 361.497 229.4C356.859 230.329 356.306 221.145 360.614 215.263C364.148 210.413 364.148 208.452 360.614 211.548C356.859 214.85 355.202 220.113 356.085 226.408C356.638 231.464 356.527 231.877 352.551 235.902C348.464 240.03 348.464 240.236 349.127 246.737C349.459 250.349 350.121 254.064 350.453 254.89C351.557 257.057 343.715 261.7 336.757 263.042C327.369 265.003 318.423 262.216 311.354 255.199C305.5 249.523 302.408 243.125 301.745 235.386C301.193 228.781 301.193 228.781 303.843 229.504C310.581 231.361 314.446 232.084 317.539 232.084C319.969 231.98 319.196 231.671 314.778 230.639C306.936 228.988 305.279 228.265 299.757 224.86C293.903 221.145 287.828 212.58 285.398 204.84C281.201 190.806 286.613 173.572 297.879 165.523C301.413 162.943 301.745 162.943 303.07 164.697C303.954 165.729 304.396 168.309 304.175 170.683L303.733 174.914L305.721 169.857C308.151 163.769 314.005 157.061 318.533 155.203C320.411 154.481 321.294 153.862 320.411 153.759C316.876 153.759 309.255 158.196 306.936 161.705C304.727 165.007 304.396 165.213 303.291 163.459C302.628 162.324 302.076 157.267 302.076 152.211C302.076 141.478 303.402 138.486 311.022 131.572C321.626 121.871 338.966 121.252 350.342 130.024C358.294 136.216 362.491 149.115 359.841 159.434C359.068 162.324 359.068 162.324 360.172 159.95C360.835 158.506 361.829 156.545 362.381 155.513C363.927 152.83 362.381 141.788 359.73 135.906C356.748 129.198 348.244 122.181 340.733 120.117C330.02 117.331 320.19 118.982 311.133 125.277C306.936 128.166 300.751 137.041 299.867 141.582C298.984 145.813 297.216 146.638 291.915 145.297C284.404 143.439 281.091 133.532 286.172 127.547C288.27 125.07 288.27 124.761 286.724 122.594C285.73 121.355 284.957 118.466 284.957 116.299C284.957 110.623 290.148 106.083 296.112 106.392C299.205 106.599 301.082 106.083 302.849 104.535C310.36 97.9302 321.405 102.368 321.405 111.965C321.405 114.338 320.852 115.886 319.637 116.299C318.202 116.815 318.202 117.021 319.417 117.744C321.736 119.188 322.178 118.879 323.393 114.648C324.939 108.869 323.945 105.773 319.417 102.058C315.993 99.2718 314.888 98.859 310.691 99.3749C307.709 99.6845 304.727 100.82 303.07 102.264C300.972 104.122 299.315 104.535 295.449 104.328C291.031 104.122 290.037 104.431 286.613 107.631C281.975 111.965 281.422 117.228 284.957 122.491C286.172 124.348 286.724 125.896 286.282 125.896C284.404 125.896 281.643 132.088 281.643 136.216C281.643 139.724 282.306 141.169 285.398 144.058C287.497 146.019 289.927 147.567 290.921 147.567C291.915 147.567 292.688 147.98 292.688 148.599C292.688 149.115 292.246 149.631 291.694 149.631C291.142 149.631 289.596 151.798 288.27 154.378C286.172 158.196 285.84 160.26 286.393 165.316C286.834 170.476 286.503 172.334 284.184 177.287C280.649 184.304 279.545 200.3 282.085 206.491ZM290.369 154.894C292.136 151.695 296.775 147.567 298.542 147.567C298.763 147.567 298.984 149.528 299.094 151.901C299.205 154.275 299.536 156.958 299.867 157.886C300.199 158.815 298.1 161.292 294.345 164.388L288.27 169.341V164.078C288.27 160.879 289.154 157.267 290.369 154.894Z" fill="#444444"/>
<path d="M317.098 628.767C318.313 633.927 322.731 639.19 327.48 641.254C329.468 642.182 331.456 643.73 331.677 644.762C332.008 645.897 332.229 645.588 332.34 643.937C332.45 641.873 331.456 640.841 328.474 639.293C317.429 633.72 315.883 617.828 325.492 610.192C327.811 608.438 328.032 608.025 326.375 608.128C323.504 608.438 321.957 602.349 323.504 597.396C324.719 593.474 331.235 587.179 333.996 587.179C334.88 587.179 335.874 586.044 336.205 584.703C337.199 580.988 342.28 575.725 346.477 574.177C350.674 572.526 356.528 572.319 360.614 573.764C363.155 574.693 363.486 574.59 363.155 573.042C362.713 570.875 356.528 569.43 351.226 570.256C345.704 571.081 339.519 575.312 336.978 580.162C335.653 582.742 333.113 585.219 330.572 586.56C322.62 590.791 319.086 599.872 322.731 607.302C323.835 609.47 323.614 610.295 321.737 612.256C317.208 616.9 315.662 622.472 317.098 628.767Z" fill="#444444"/>
<path d="M358.074 589.141C359.068 589.141 360.835 589.553 361.939 589.863C363.486 590.379 363.596 590.276 362.712 589.347C361.939 588.625 360.283 588.212 358.847 588.521C357.411 588.728 357.08 589.037 358.074 589.141Z" fill="#444444"/>
<path d="M360.062 639.188C363.154 638.465 363.928 637.949 363.265 637.33C363.044 637.124 361.608 637.537 360.062 638.362L357.301 639.91L360.062 639.188Z" fill="#444444"/>
</g>
<defs>
<clipPath id="clip0">
<rect width="646" height="363.375" fill="white" transform="translate(0 646) rotate(-90)"/>
</clipPath>
</defs>
</svg>
