<svg width="363" height="646" viewBox="0 0 363 646" fill="none" xmlns="http://www.w3.org/2000/svg">
<g clip-path="url(#clip0)">
<path d="M196.283 40.2092C196.693 41.0339 197.104 43.6111 197.104 45.8791C197.104 48.147 197.679 51.1366 198.418 52.4767C199.568 54.4354 199.732 56.8064 199.321 67.3214C198.993 76.9086 199.075 78.2488 199.568 73.1975C199.978 69.4863 200.389 64.4349 200.635 61.8577C200.8 58.4558 201.21 57.3219 202.114 57.6311C204.167 58.3527 208.93 58.2496 210.655 57.3219C211.558 56.8064 213.858 56.4971 215.829 56.6002C218.867 56.8064 219.689 56.3941 222.152 53.3014C225.191 49.4871 226.012 44.3327 224.124 40.003C223.631 38.869 223.138 35.6733 222.974 32.8899C222.892 30.0035 222.235 27.3232 221.413 26.2923C220.674 25.3645 220.099 24.4367 220.099 24.1274C220.099 22.8904 222.727 3.40667 223.056 1.75726C223.302 0.829467 223.138 0.00476091 222.727 0.00476091C222.317 0.00476091 221.495 4.33447 221.003 9.48888C219.524 23.9212 219.607 23.7151 216.732 22.478C214.843 21.6533 213.447 21.7564 210.819 23.0965C206.713 25.0552 203.92 25.2614 203.51 23.5089C203.181 22.478 203.51 17.839 204.824 3.81903C205.07 1.13873 204.824 0.00476091 204.085 0.00476091C203.099 0.00476091 202.442 6.08697 201.867 20.107C201.703 23.4058 201.046 24.9521 198.582 27.9417C196.118 30.8282 195.461 32.3745 195.461 35.1579C195.461 37.1165 195.872 39.3845 196.283 40.2092ZM198.336 31.9621C199.896 28.251 204.002 25.3645 206.548 26.1892C207.616 26.4985 208.766 26.3954 209.012 25.7768C209.259 25.2614 211.23 24.746 213.283 24.746C218.046 24.746 221.331 28.7664 222.07 35.261C222.317 37.7351 222.727 41.4463 223.056 43.508C223.549 47.013 223.302 47.7346 220.592 51.1366C218.046 54.3323 217.225 54.8477 214.843 54.3323C213.283 54.023 211.722 54.1261 211.394 54.6416C210.573 55.5694 208.519 55.9817 205.481 55.7755C202.606 55.5694 198.582 50.1057 198.828 46.7038C198.911 45.0543 198.582 42.6833 198.089 41.2401C196.857 37.632 196.94 35.4671 198.336 31.9621Z" fill="#444444"/>
<path d="M217.143 485.139C217.8 486.891 219.443 489.468 220.921 490.912L223.549 493.489L221.414 497.406C216.157 507.097 220.51 521.426 229.708 524.622C233.815 526.065 234.143 525.24 230.283 523.178C225.931 520.91 223.713 518.024 222.071 512.766C220.428 507.303 221.003 501.117 223.549 496.582L225.274 493.592L222.81 491.118C215.418 483.902 216.404 467.923 224.617 462.15L227.819 459.882L229.38 462.665C230.365 464.418 230.694 464.624 230.283 463.387C227.655 454.831 230.119 445.037 236.032 440.708C239.81 437.924 242.767 437.306 241.781 439.368C241.452 440.089 242.438 439.264 243.998 437.512C247.94 432.873 249.829 431.945 254.593 431.945C261.245 431.945 265.762 435.966 268.062 443.8C268.719 446.068 269.293 447.099 269.293 446.068C269.376 445.037 268.801 442.563 268.144 440.501C267.487 438.543 266.912 436.687 266.912 436.584C266.912 435.966 273.236 437.821 274.714 438.852C277.342 440.605 280.298 445.037 279.641 446.274C279.313 446.996 279.97 447.408 281.366 447.408C285.226 447.408 290.318 451.12 291.796 455.14C293.028 458.542 293.028 458.851 291.386 463.593C290.154 466.892 289.497 470.913 289.414 475.552C289.332 482.252 289.168 482.665 286.376 485.345C281.53 490.087 277.917 497.612 276.438 506.375C275.946 508.952 275.617 509.261 272.25 509.261C264.53 509.261 255.25 516.065 250.815 524.931C247.858 530.807 246.134 540.394 246.791 547.198L247.366 552.868L243.588 552.352C235.375 551.115 230.201 542.765 231.022 532.147C231.597 525.446 230.283 526.683 229.462 533.693C228.23 544.311 235.129 554.517 243.67 554.62C245.805 554.62 246.38 555.033 246.38 556.682C246.38 559.053 245.969 559.156 242.356 557.61C239.399 556.27 235.95 557.61 233.568 560.909C232.829 561.94 231.433 562.867 230.53 562.867C229.708 562.867 227.737 564.414 226.177 566.372C222.563 570.908 222.317 576.578 225.438 581.217C226.588 582.97 227.491 585.238 227.491 586.372C227.491 587.506 228.394 589.773 229.462 591.423C230.94 593.588 232.008 597.917 233.733 608.742C235.047 616.68 236.279 623.38 236.525 623.69C236.771 623.999 236.936 624.927 236.936 625.751C236.936 626.576 237.428 627.195 238.003 626.988C238.66 626.885 238.907 627.195 238.578 627.813C238.332 628.432 237.675 628.535 237.182 628.225C236.525 627.71 236.443 628.122 236.771 629.256C237.1 630.287 237.757 634.308 238.332 638.225C239.071 643.998 239.481 645.338 240.713 645.338C242.602 645.338 242.602 644.616 240.713 635.235C239.81 631.215 239.317 627.813 239.481 627.813C239.728 627.813 239.317 626.37 238.578 624.72C236.936 620.803 237.675 620.803 240.631 624.72C242.931 627.813 245.148 628.019 246.544 625.339C247.448 623.586 248.023 625.03 249.747 633.998C251.226 641.936 252.868 647.4 252.95 644.616C252.95 643.895 251.965 639.153 250.815 633.998C249.665 628.844 248.926 623.896 249.172 622.968C250.076 620.185 250.979 622.659 252.95 632.967C254.839 642.761 256.153 647.606 256.153 644.307C256.153 643.483 255.086 637.916 253.689 631.937C252.293 625.957 250.815 619.36 250.322 617.195C249.747 614.618 248.68 612.762 247.53 612.144C246.216 611.319 245.23 609.566 244.655 606.783C243.259 599.979 242.931 598.742 242.602 599.155C242.438 599.361 242.849 601.835 243.424 604.721L244.491 609.773L241.37 612.247C239.728 613.587 237.921 615.649 237.51 616.886C236.689 618.947 236.689 618.947 236.689 616.989C236.771 615.855 235.868 610.7 234.718 605.546L232.583 596.165L236.032 596.268C240.303 596.371 241.37 595.856 243.67 592.866C244.738 591.526 245.805 590.598 246.052 590.907C246.216 591.217 247.858 593.794 249.501 596.577C253.443 603.175 257.714 607.814 262.97 611.216C266.994 613.896 267.322 614.308 269.047 621.215C270.115 625.133 270.936 630.081 270.936 632.246C271.018 634.411 271.429 638.225 271.921 640.802C272.743 644.926 273.071 645.338 275.289 645.338C277.26 645.338 277.67 645.029 277.26 643.689C272.825 629.256 275.617 611.113 283.912 600.185C285.719 597.814 286.951 595.856 286.622 595.856C285.719 595.856 279.067 604.515 277.013 608.432C275.207 611.731 274.714 612.041 272.743 611.319C264.53 608.432 257.139 601.422 253.197 592.969C251.143 588.639 251.143 588.33 252.375 585.547C254.593 580.908 254.182 575.857 251.308 571.836C248.844 568.331 248.269 564.517 249.501 560.599C249.994 559.053 250.651 559.672 253.607 563.898C255.578 566.682 257.96 569.568 258.945 570.187C260.013 570.908 259.438 569.774 257.549 567.506C252.54 561.321 250.158 553.589 250.158 544.311C250.158 538.848 250.733 535.24 251.883 531.735C255.578 521.529 264.119 513.282 272.825 511.839L276.603 511.117L277.178 516.065C278.492 527.302 283.666 536.168 291.796 541.116C296.724 544.105 307.4 546.889 304.69 544.415C304.033 543.796 302.719 543.281 301.733 543.281C298.12 543.281 292.207 539.776 288.429 535.549C277.013 522.663 277.013 499.983 288.511 486.582C290.811 483.799 291.057 483.902 292.207 487.922C292.782 489.778 294.342 492.664 295.82 494.417L298.366 497.406L296.313 493.798C295.163 491.84 293.849 488.644 293.274 486.685C291.96 481.634 292.125 471.84 293.685 466.995C294.835 463.49 295.245 462.975 296.97 463.49C299.68 464.315 302.801 463.284 303.376 461.119C303.869 459.47 303.869 459.47 302.39 461.119C300.83 462.975 298.284 463.387 296.888 462.047C295.163 460.501 292.371 454.625 292.371 452.666C292.371 448.749 298.695 443.182 301.651 444.625C302.226 444.934 303.787 447.099 305.101 449.47C307.4 453.697 307.482 453.903 306.168 456.789C305.347 458.439 305.101 459.779 305.511 459.779C306.743 459.779 308.139 455.552 307.729 452.975C307.4 450.81 307.729 450.501 311.014 449.883C314.545 449.264 318.159 449.573 321.526 451.017C322.429 451.326 322.101 450.913 320.869 449.986C318.816 448.542 318.652 447.924 319.062 445.037C319.801 440.708 323.333 430.914 324.154 430.914C324.483 431.017 326.864 431.842 329.328 432.976C331.792 434.11 335.159 434.935 336.719 434.935C339.512 434.832 339.512 434.832 335.98 433.904C327.193 431.739 319.391 423.389 316.188 412.565C312.738 401.225 315.284 386.999 322.265 378.442L325.797 374.113L326.536 380.607L327.193 387.102L327.686 378.855C328.26 368.855 330.396 362.567 335.077 356.691C341.483 348.65 350.763 345.351 359.961 347.722C362.754 348.444 363.082 348.34 362.836 346.794C362.589 345.042 361.193 344.217 356.019 342.774L353.555 342.052L355.609 340.093C357.333 338.341 357.087 338.341 353.966 340.403C350.927 342.361 348.956 342.774 342.879 342.774C336.473 342.774 334.913 342.361 331.381 339.99C320.376 332.774 314.956 317.414 317.912 302.466C318.816 298.033 319.719 296.899 320.705 298.961C321.362 300.301 327.275 304.116 328.671 304.116C329.246 304.116 327.85 302.672 325.468 301.023C318.077 295.662 314.052 286.281 314.71 275.56C315.367 264.22 320.294 255.87 328.917 251.437C331.217 250.303 332.12 249.582 330.806 249.788C328.014 250.303 326.782 247.211 326.289 238.036L325.879 231.232L329.821 230.51C333.352 229.995 341.319 226.078 340.662 225.253C340.497 225.047 338.198 225.871 335.488 227.005C318.898 234.015 300.83 215.872 302.473 193.914C302.719 190.718 303.294 186.801 303.869 185.152L304.772 182.059L306.25 185.152C307.072 186.801 308.632 189.069 309.618 190.203C311.424 192.059 311.342 191.955 309.371 188.554C304.608 180.616 303.294 168.245 306.086 158.349C308.057 151.339 314.217 143.092 319.637 140.205C324.565 137.525 336.719 135.978 333.927 138.349C329.657 142.061 329 143.298 332.613 141.03C337.541 137.937 345.507 137.834 350.681 140.824C354.705 143.195 359.304 148.658 361.522 153.916L362.918 157.215L363 153.091C363 147.524 359.551 142.267 353.391 138.453C348.546 135.566 342.797 134.741 326.7 134.741C310.439 134.741 297.791 156.39 302.308 176.698C303.048 179.997 302.883 181.44 301.487 185.564C300.502 188.347 299.762 192.265 299.762 194.223C299.762 198.965 298.613 198.862 295.163 194.12C291.55 189.172 289.004 182.265 288.511 175.667L288.018 170.41L292.864 169.482L297.709 168.657L292.289 168.039C289.086 167.627 285.226 166.39 282.844 164.843C279.313 162.678 278.656 161.751 277.506 157.215C275.535 149.38 275.207 148.658 272.661 147.937C270.607 147.421 270.279 146.7 269.786 142.473C268.801 133.092 272.332 121.443 277.752 116.082C279.231 114.639 280.052 113.402 279.559 113.402C277.588 113.402 271.018 122.062 268.883 127.319C267.733 130.412 266.419 132.989 266.09 132.989C265.762 132.989 263.791 131.339 261.738 129.381C255.332 123.195 251.554 110 253.689 100.619C254.182 98.3512 254.182 97.011 253.771 97.5265C252.622 98.9697 251.226 109.072 251.8 111.959C252.457 115.155 251.636 115.052 247.119 111.443C242.11 107.526 238.414 101.65 236.689 94.9493C235.539 90.2072 235.457 89.2794 236.525 88.867C237.1 88.5578 238.496 87.2176 239.564 85.9806C240.631 84.6404 242.602 82.7848 243.916 81.9601C248.187 79.1767 248.187 71.5482 243.916 68.2494L241.863 66.6L243.67 69.1772C245.969 72.3729 246.134 77.7335 244.081 79.8983C237.018 87.7331 234.39 88.3516 230.612 83.1972C224.781 75.4656 224.699 72.3729 230.365 66.4969C234.225 62.5795 238.742 61.6517 240.631 64.4351C241.452 65.6721 242.027 65.569 244.409 63.198L247.283 60.5177L249.501 63.0949C251.965 65.9814 255.496 69.0741 256.235 69.0741C256.564 69.0741 255.086 66.9092 252.95 64.1258C242.192 50.1058 247.201 29.5912 262.805 24.3337L267.322 22.7874H263.627C259.438 22.7874 254.429 24.7461 252.211 27.2202C250.404 29.282 249.665 28.4572 247.448 21.6534C246.38 18.3546 245.969 14.5403 246.052 8.45811C246.052 0.314123 246.052 0.00484563 244.163 0.00484563C242.027 0.00484563 242.027 0.00484563 241.945 14.4372C241.863 21.9627 241.124 28.3542 238.66 41.6526C235.786 57.7344 235.293 59.3838 232.829 62.3733C231.351 64.1258 229.133 66.1876 227.984 66.9092C224.124 69.4864 223.549 76.8057 226.998 80.3107C227.737 81.0323 228.066 82.1663 227.737 82.7848C227.491 83.3002 227.655 83.5064 228.066 83.1972C229.051 82.3725 230.283 85.2589 230.037 87.63C229.955 88.867 230.037 88.867 230.612 87.8362C231.105 86.9084 231.679 88.3516 232.336 92.5782C233.486 99.8975 237.182 107.32 241.781 111.546C243.67 113.299 245.066 115.051 244.902 115.67C244.82 116.185 245.066 116.392 245.477 115.979C245.969 115.67 247.283 115.67 248.515 116.082C250.076 116.598 251.226 118.144 252.622 122.165C254.511 127.319 259.767 134.535 263.38 137.009C264.612 137.731 265.187 139.587 265.598 143.401C266.091 147.937 265.926 148.968 264.53 150.72C261.409 154.328 263.052 164.328 267.076 166.39C268.636 167.214 269.211 168.039 268.636 168.451C266.83 169.895 264.448 177.317 264.448 181.44C264.448 186.286 266.008 191.646 268.062 193.708C269.376 195.048 269.211 195.46 266.583 198.862C260.588 206.594 260.342 216.697 265.844 223.913C267.979 226.799 267.979 226.799 266.665 230.407C262.641 241.129 268.144 254.015 277.588 256.076C280.216 256.592 280.627 257.21 281.448 261.128C282.023 263.499 283.255 266.901 284.24 268.447C286.294 271.746 291.714 275.148 294.753 275.251C295.902 275.251 298.202 277.003 300.255 279.374C302.965 282.57 304.608 283.601 307.893 284.116C311.507 284.735 312.081 285.147 312.821 287.828C313.313 289.477 314.463 292.157 315.367 293.91C317.009 296.796 317.091 297.209 315.941 301.848C313.724 310.404 313.56 314.115 315.038 321.331C316.352 327.929 316.352 328.341 314.956 329.372C311.342 331.949 306.907 337.825 305.019 342.568C299.598 355.969 301.241 371.02 309.289 381.947C311.26 384.628 311.424 385.658 311.26 391.638C310.767 410.503 311.999 416.791 317.748 424.935L320.376 428.749L318.323 433.698C317.255 436.481 316.106 440.398 315.777 442.46C315.202 446.068 315.202 446.068 310.275 446.79C305.922 447.305 305.183 447.202 303.951 445.244C301.898 442.048 298.777 442.46 294.917 446.481L291.55 449.883L288.675 448.13C287.033 447.202 285.062 446.378 284.158 446.378C283.337 446.378 281.859 444.831 280.873 442.873C278.82 438.646 273.4 435.038 269.129 435.038C267.322 435.038 265.023 434.007 263.134 432.461C261.491 431.12 258.945 429.677 257.549 429.265C254.018 428.543 248.68 430.399 245.805 433.388C244.573 434.729 242.027 436.069 240.303 436.378C232.993 437.821 226.916 446.996 227.655 455.243C227.984 458.336 227.737 458.851 225.438 459.779C222.399 461.016 218.046 466.377 216.897 470.397C215.665 474.314 215.829 481.221 217.143 485.139ZM226.095 570.805C227.327 567.3 229.133 564.929 231.022 564.517C231.597 564.414 233.158 563.28 234.39 562.043C237.839 558.744 242.274 558.95 245.477 562.764C246.873 564.414 248.023 566.682 248.023 567.919C248.023 569.156 248.351 570.084 248.844 570.084C250.404 570.084 252.293 576.475 251.8 580.186C251.308 584.413 249.665 586.99 246.134 588.743C244.738 589.464 242.931 590.907 242.11 591.938C240.303 594.206 235.129 594.412 232.583 592.144C230.94 590.701 227.737 584.516 228.641 584.516C228.887 584.516 228.148 582.867 227.08 580.805C224.699 576.475 224.617 575.341 226.095 570.805ZM240.303 44.436C241.945 37.3229 243.506 30.7252 243.752 29.9005C244.163 28.4572 244.327 27.6326 244.573 25.3646C244.655 24.8492 245.477 25.6739 246.462 27.2202C248.105 29.9005 248.105 29.9005 246.544 32.6839C243.998 37.3229 243.095 42.2711 243.341 50.7243C243.424 57.0127 243.177 59.0745 242.192 60.4147C240.549 62.3734 237.346 61.5486 237.346 59.0745C237.346 58.2498 238.66 51.6522 240.303 44.436ZM265.351 204.429C266.337 201.955 267.979 199.172 269.047 198.244C270.854 196.801 270.936 196.388 269.95 194.945C264.366 187.007 264.941 176.286 271.347 169.276C274.878 165.359 276.521 165.152 277.588 168.245C278.081 169.998 278.327 170.101 278.327 168.864C278.41 167.317 278.656 167.317 281.53 168.864C284.569 170.41 284.651 170.616 284.733 175.977C284.898 184.43 287.033 191.028 291.714 197.522C294.014 200.615 296.888 203.811 298.12 204.635C299.434 205.46 300.584 207.212 300.83 208.965C302.144 217.109 310.603 227.521 318.241 230.407L322.347 231.954L322.429 236.593C322.512 239.17 323.004 243.397 323.579 245.974C324.565 250.303 324.483 250.819 323.251 251.747C318.405 255.149 312.081 265.767 312.081 270.612C312.081 271.437 311.753 272.158 311.26 272.158C310.85 272.158 310.685 274.323 311.014 277.313C311.424 282.158 311.342 282.467 309.7 282.467C307.564 282.467 302.144 279.168 300.666 276.9C300.091 276.076 299.927 274.735 300.255 274.117C300.666 273.189 300.255 273.086 298.859 273.498C293.028 275.457 284.98 268.756 283.173 260.509C282.269 256.179 281.941 255.767 279.067 255.149C274.632 254.118 270.854 250.613 268.719 245.355C266.665 240.201 266.419 236.283 267.897 231.232C268.719 228.552 269.211 227.933 270.607 228.449C271.593 228.758 271.264 228.242 269.704 227.005C266.665 224.531 263.627 217.315 263.627 212.47C263.627 210.511 264.448 206.903 265.351 204.429ZM265.105 152.266C265.926 151.339 268.308 150.205 270.443 149.895C274.221 149.174 274.303 149.277 275.535 152.885C277.752 159.689 276.849 163.4 272.743 164.431C271.757 164.637 270.607 165.152 270.197 165.462C268.636 166.699 265.926 164.74 264.859 161.544C263.298 157.008 263.38 154.225 265.105 152.266ZM308.139 343.805C309.371 340.918 311.999 336.588 314.135 334.114L317.912 329.785L321.772 334.836C326.207 340.712 331.299 344.217 336.555 345.248L340.169 345.866L336.473 349.165C332.12 353.186 327.932 360.608 326.618 366.896C325.879 370.195 324.811 372.051 322.265 374.422C320.376 376.071 318.077 378.855 317.009 380.607L315.202 383.7L313.149 381.329C310.685 378.339 308.057 373.082 306.579 368.133C304.854 362.257 305.593 350.093 308.139 343.805Z" fill="#444444"/>
<path d="M280.873 12.1686C281.695 14.5396 283.009 16.8075 283.748 17.1168C284.405 17.4261 284.98 18.7662 284.98 20.0033C284.98 21.1373 285.719 24.1268 286.54 26.4978C289.907 35.6727 299.106 37.5283 305.183 30.3121C306.826 28.3534 308.961 26.8071 309.946 26.8071C310.932 26.8071 312.821 25.8793 314.299 24.7453C319.884 20.5187 321.444 10.1068 317.42 3.61224C314.628 -1.12982 313.314 -1.02673 315.531 3.71533C317.666 8.25122 317.83 15.2612 315.859 19.0755C314.135 22.3743 309.864 25.7762 307.318 25.7762C306.251 25.7762 305.676 26.1886 305.922 26.8071C306.743 28.4565 301.241 31.9615 297.792 31.9615C295.985 31.9615 293.439 31.0337 291.796 29.7967C288.84 27.5287 286.212 22.3743 286.951 20.1064C287.115 19.3848 286.458 17.7353 285.39 16.4983C282.762 13.4056 281.366 7.94195 282.023 3.50915C282.434 0.828857 282.27 0.00415051 281.448 0.00415051C278.82 0.00415051 278.574 5.7771 280.873 12.1686Z" fill="#444444"/>
<path d="M322.677 45.0532C323.58 46.8057 325.141 48.5582 326.208 48.9705C327.276 49.3829 329.001 50.723 330.15 52.0631C333.353 55.7743 335.817 56.9083 338.692 56.2898C341.73 55.5681 344.44 52.3724 345.344 48.4551C345.672 47.0118 346.822 44.847 347.808 43.5068C350.025 40.7235 350.928 35.9814 349.861 32.5795C348.957 29.5899 345.262 25.7757 343.126 25.7757C342.305 25.7757 341.402 25.0541 341.073 24.2294C340.416 21.9614 336.474 19.5904 333.436 19.5904C330.561 19.5904 326.044 24.3324 326.044 27.4251C326.044 28.456 325.141 30.5177 323.991 31.961C321.117 35.7752 320.624 40.8265 322.677 45.0532ZM323.745 34.7443C324.237 33.5073 325.141 31.8579 325.798 31.1363C326.373 30.4146 326.865 29.1776 326.865 28.3529C326.865 27.6313 328.015 25.7757 329.493 24.2294C331.711 21.8583 332.696 21.5491 335.407 21.9614C337.295 22.2707 339.349 23.4047 340.006 24.4355C340.663 25.4664 342.305 26.8066 343.701 27.322C347.315 28.8683 349.532 34.8474 348.218 39.6926C347.726 41.6513 346.576 43.9192 345.672 44.6408C344.851 45.4655 344.358 46.2902 344.605 46.7026C345.672 47.9396 342.059 52.6817 339.267 53.7126C336.721 54.6404 335.735 54.5373 333.6 53.1971C332.122 52.2693 330.972 51.0323 330.972 50.5168C330.972 50.0014 330.15 49.2798 329.083 48.8674C324.073 47.0118 321.445 40.1049 323.745 34.7443Z" fill="#444444"/>
</g>
<path d="M178.269 605.13C177.83 604.305 177.391 601.728 177.391 599.46C177.391 597.192 176.776 594.203 175.986 592.863C174.757 590.904 174.581 588.533 175.02 578.018C175.371 568.431 175.283 567.091 174.757 572.142C174.317 575.853 173.878 580.905 173.615 583.482C173.439 586.884 173 588.018 172.034 587.708C169.839 586.987 164.745 587.09 162.901 588.018C161.935 588.533 159.476 588.842 157.369 588.739C154.119 588.533 153.241 588.945 150.607 592.038C147.358 595.852 146.479 601.006 148.499 605.336C149.026 606.47 149.553 609.666 149.729 612.449C149.816 615.335 150.519 618.016 151.397 619.047C152.187 619.974 152.802 620.902 152.802 621.211C152.802 622.448 149.992 641.932 149.641 643.581C149.377 644.509 149.553 645.334 149.992 645.334C150.431 645.334 151.309 641.004 151.836 635.85C153.417 621.418 153.329 621.624 156.403 622.861C158.423 623.685 159.915 623.582 162.726 622.242C167.116 620.284 170.102 620.077 170.541 621.83C170.893 622.861 170.541 627.5 169.136 641.519C168.873 644.2 169.136 645.334 169.927 645.334C170.98 645.334 171.683 639.251 172.298 625.232C172.473 621.933 173.176 620.387 175.81 617.397C178.445 614.511 179.147 612.964 179.147 610.181C179.147 608.222 178.708 605.955 178.269 605.13ZM176.074 613.377C174.405 617.088 170.014 619.974 167.292 619.15C166.15 618.84 164.921 618.943 164.658 619.562C164.394 620.077 162.286 620.593 160.091 620.593C154.998 620.593 151.485 616.572 150.695 610.078C150.431 607.604 149.992 603.893 149.641 601.831C149.114 598.326 149.377 597.605 152.275 594.203C154.998 591.007 155.876 590.492 158.423 591.007C160.091 591.316 161.76 591.213 162.111 590.698C162.989 589.77 165.184 589.358 168.434 589.564C171.507 589.77 175.81 595.234 175.547 598.635C175.459 600.285 175.81 602.656 176.337 604.099C177.654 607.707 177.567 609.872 176.074 613.377Z" fill="#444444"/>
<path d="M155.963 160.209C155.261 158.457 153.504 155.88 151.924 154.437L149.113 151.859L151.397 147.942C157.017 138.252 152.363 123.923 142.527 120.727C138.136 119.284 137.785 120.109 141.912 122.171C146.567 124.439 148.938 127.325 150.694 132.582C152.451 138.046 151.836 144.231 149.113 148.767L147.269 151.756L149.904 154.23C157.807 161.447 156.754 177.425 147.972 183.198L144.547 185.466L142.878 182.682C141.825 180.93 141.473 180.724 141.912 181.961C144.723 190.517 142.088 200.31 135.765 204.64C131.726 207.423 128.564 208.041 129.618 205.98C129.969 205.258 128.916 206.083 127.247 207.835C123.032 212.474 121.012 213.402 115.919 213.402C108.805 213.402 103.975 209.382 101.517 201.547C100.814 199.279 100.199 198.248 100.199 199.279C100.112 200.31 100.726 202.784 101.429 204.846C102.131 206.804 102.746 208.66 102.746 208.763C102.746 209.382 95.9841 207.526 94.4034 206.495C91.5933 204.743 88.4318 200.31 89.1344 199.073C89.4856 198.351 88.7831 197.939 87.2902 197.939C83.1628 197.939 77.7182 194.228 76.1374 190.208C74.8202 186.806 74.8202 186.496 76.5765 181.754C77.8938 178.456 78.5963 174.435 78.6841 169.796C78.772 163.096 78.9476 162.684 81.9334 160.003C87.1146 155.261 90.9785 147.736 92.5592 138.974C93.0861 136.397 93.4374 136.087 97.0379 136.087C105.293 136.087 115.216 129.284 119.958 120.418C123.12 114.542 124.964 104.955 124.261 98.1516L123.647 92.4818L127.686 92.9973C136.468 94.2343 142 102.584 141.122 113.202C140.507 119.903 141.912 118.666 142.791 111.656C144.108 101.038 136.731 90.8324 127.598 90.7293C125.315 90.7293 124.7 90.317 124.7 88.6676C124.7 86.2966 125.139 86.1936 129.003 87.7398C132.165 89.08 135.853 87.7399 138.4 84.4411C139.19 83.4102 140.683 82.4825 141.649 82.4825C142.527 82.4825 144.635 80.9362 146.303 78.9775C150.167 74.4417 150.431 68.772 147.094 64.1331C145.864 62.3806 144.898 60.1127 144.898 58.9788C144.898 57.8448 143.932 55.5769 142.791 53.9276C141.21 51.7628 140.068 47.4331 138.224 36.6091C136.819 28.6714 135.502 21.9708 135.238 21.6616C134.975 21.3523 134.799 20.4245 134.799 19.5998C134.799 18.7752 134.272 18.1566 133.658 18.3628C132.955 18.4659 132.692 18.1566 133.043 17.5381C133.306 16.9196 134.009 16.8165 134.536 17.1258C135.238 17.6412 135.326 17.2289 134.975 16.0949C134.624 15.0641 133.921 11.0437 133.306 7.12641C132.516 1.35358 132.077 0.0134625 130.76 0.0134625C128.74 0.0134625 128.74 0.735066 130.76 10.1159C131.726 14.1363 132.253 17.5381 132.077 17.5381C131.813 17.5381 132.253 18.9813 133.043 20.6307C134.799 24.548 134.009 24.548 130.848 20.6307C128.389 17.5381 126.018 17.332 124.525 20.0122C123.559 21.7647 122.944 20.3215 121.1 11.3529C119.519 3.41531 117.763 -2.04826 117.675 0.735066C117.675 1.45667 118.729 6.19864 119.958 11.3529C121.188 16.5073 121.978 21.4554 121.715 22.3832C120.749 25.1665 119.783 22.6924 117.675 12.3838C115.655 2.59062 114.25 -2.25443 114.25 1.04432C114.25 1.86901 115.392 7.43567 116.885 13.4147C118.377 19.3937 119.958 25.9912 120.485 28.156C121.1 30.7332 122.241 32.5887 123.471 33.2072C124.876 34.0319 125.93 35.7844 126.544 38.5677C128.037 45.3714 128.389 46.6084 128.74 46.1961C128.916 45.9899 128.476 43.5159 127.862 40.6294L126.72 35.5782L130.057 33.1041C131.813 31.764 133.745 29.7023 134.185 28.4653C135.063 26.4035 135.063 26.4035 135.063 28.3622C134.975 29.4961 135.941 34.6504 137.17 39.8047L139.454 49.1856L135.765 49.0825C131.199 48.9794 130.057 49.4949 127.598 52.4844C126.457 53.8245 125.315 54.7523 125.052 54.443C124.876 54.1337 123.12 51.5566 121.363 48.7733C117.148 42.1757 112.582 37.5369 106.961 34.135C102.658 31.4548 102.307 31.0424 100.463 24.1356C99.3212 20.2184 98.443 15.2702 98.443 13.1054C98.3552 10.9406 97.9161 7.12641 97.3892 4.54926C96.511 0.425807 96.1597 0.0134625 93.7887 0.0134625C91.6811 0.0134625 91.242 0.322721 91.6811 1.66284C96.4232 16.0949 93.4374 34.2381 84.5679 45.1652C82.6359 47.5362 81.3186 49.4949 81.6699 49.4949C82.6359 49.4949 89.7491 40.8356 91.9445 36.9183C93.8765 33.6196 94.4034 33.3103 96.511 34.0319C105.293 36.9183 113.196 43.9282 117.411 52.3813C119.607 56.7109 119.607 57.0202 118.29 59.8035C115.919 64.4424 116.358 69.4936 119.431 73.514C122.066 77.0189 122.681 80.8331 121.363 84.7504C120.836 86.2966 120.134 85.6781 116.972 81.4516C114.865 78.6683 112.318 75.7818 111.264 75.1633C110.123 74.4417 110.737 75.5757 112.757 77.8436C118.114 84.0287 120.661 91.7602 120.661 101.038C120.661 106.502 120.046 110.11 118.817 113.614C114.865 123.82 105.732 132.067 96.4232 133.51L92.3836 134.232L91.7689 129.284C90.3638 118.047 84.8313 109.182 76.1374 104.234C70.8684 101.244 59.4522 98.4608 62.3502 100.935C63.0527 101.553 64.4578 102.069 65.5116 102.069C69.3755 102.069 75.6984 105.574 79.7379 109.8C91.9445 122.686 91.9445 145.365 79.6501 158.766C77.1912 161.55 76.9278 161.447 75.6984 157.426C75.0836 155.571 73.4151 152.684 71.8344 150.932L69.1121 147.942L71.3075 151.55C72.5369 153.509 73.942 156.705 74.5567 158.663C75.9618 163.714 75.7862 173.508 74.1176 178.353C72.8882 181.858 72.4491 182.373 70.605 181.858C67.707 181.033 64.3699 182.064 63.7552 184.229C63.2283 185.878 63.2283 185.878 64.809 184.229C66.4776 182.373 69.1999 181.961 70.6928 183.301C72.5369 184.847 75.5227 190.723 75.5227 192.682C75.5227 196.599 68.7608 202.166 65.5994 200.722C64.9847 200.413 63.3161 198.248 61.9111 195.877C59.4522 191.651 59.3644 191.445 60.7694 188.558C61.6476 186.909 61.9111 185.569 61.472 185.569C60.1547 185.569 58.6618 189.795 59.1009 192.372C59.4522 194.537 59.1009 194.846 55.5882 195.465C51.8121 196.083 47.9481 195.774 44.3476 194.331C43.3817 194.022 43.7329 194.434 45.0502 195.362C47.2456 196.805 47.4212 197.424 46.9822 200.31C46.1918 204.64 42.4157 214.433 41.5375 214.433C41.1862 214.33 38.6395 213.505 36.005 212.371C33.3705 211.237 29.77 210.412 28.1015 210.412C25.1157 210.516 25.1157 210.516 28.8918 211.443C38.2883 213.608 46.6309 221.958 50.0558 232.782C53.7441 244.122 51.0217 258.348 43.5573 266.904L39.7812 271.233L38.9908 264.739L38.2883 258.244L37.7614 266.491C37.1466 276.491 34.8634 282.779 29.8578 288.655C23.0081 296.696 13.0847 299.994 3.24923 297.623C0.263451 296.902 -0.0878171 297.005 0.175634 298.551C0.439086 300.304 1.93198 301.128 7.46445 302.572L10.099 303.293L7.90354 305.252C6.05938 307.004 6.32283 307.004 9.65988 304.943C12.9091 302.984 15.0167 302.572 21.5152 302.572C28.3649 302.572 30.0335 302.984 33.8096 305.355C45.5771 312.571 51.373 327.931 48.2116 342.878C47.2456 347.311 46.2796 348.445 45.2258 346.383C44.5233 345.043 38.2004 341.229 36.7076 341.229C36.0928 341.229 37.5857 342.672 40.1324 344.321C48.036 349.682 52.339 359.063 51.6365 369.784C50.9339 381.123 45.6649 389.473 36.4441 393.906C33.9852 395.04 33.0192 395.762 34.4243 395.555C37.4101 395.04 38.7273 398.133 39.2543 407.307L39.6933 414.111L35.4781 414.832C31.702 415.348 23.1837 419.265 23.8863 420.09C24.0619 420.296 26.5208 419.471 29.4187 418.337C47.1578 411.328 66.4776 429.471 64.7212 451.428C64.4578 454.624 63.843 458.541 63.2283 460.19L62.2623 463.283L60.6816 460.19C59.8035 458.541 58.1349 456.273 57.0811 455.139C55.1491 453.284 55.237 453.387 57.3446 456.789C62.438 464.726 63.843 477.097 60.8573 486.993C58.7497 494.003 52.1634 502.25 46.3674 505.136C41.0984 507.816 28.1015 509.363 31.0873 506.992C35.6538 503.28 36.3563 502.043 32.4923 504.311C27.2233 507.404 18.705 507.507 13.1726 504.517C8.86953 502.147 3.95177 496.683 1.58071 491.426L0.0878171 488.127L0 492.25C0 497.817 3.68832 503.074 10.2746 506.888C15.4558 509.775 21.603 510.6 38.8152 510.6C56.203 510.6 69.7268 488.951 64.8968 468.643C64.1065 465.345 64.2821 463.901 65.775 459.778C66.8288 456.995 67.6192 453.077 67.6192 451.119C67.6192 446.377 68.8486 446.48 72.5369 451.222C76.4009 456.17 79.1232 463.077 79.6501 469.674L80.177 474.932L74.9958 475.859L69.8146 476.684L75.6105 477.303C79.0354 477.715 83.1628 478.952 85.7095 480.498C89.4856 482.663 90.1882 483.591 91.4176 488.127C93.5252 495.961 93.8765 496.683 96.5988 497.405C98.7943 497.92 99.1455 498.642 99.6724 502.868C100.726 512.249 96.9501 523.898 91.1542 529.258C89.5735 530.701 88.6953 531.938 89.2222 531.938C91.3298 531.938 98.3552 523.279 100.638 518.022C101.868 514.929 103.273 512.352 103.624 512.352C103.975 512.352 106.083 514.001 108.279 515.96C115.128 522.145 119.168 535.34 116.885 544.721C116.358 546.989 116.358 548.329 116.797 547.814C118.026 546.37 119.519 536.268 118.904 533.382C118.202 530.186 119.08 530.289 123.91 533.897C129.267 537.814 133.219 543.69 135.063 550.391C136.292 555.133 136.38 556.061 135.238 556.473C134.624 556.782 133.131 558.122 131.989 559.359C130.848 560.699 128.74 562.555 127.335 563.38C122.768 566.163 122.768 573.791 127.335 577.09L129.53 578.74L127.598 576.162C125.139 572.967 124.964 567.606 127.159 565.441C134.711 557.607 137.522 556.988 141.561 562.143C147.796 569.874 147.884 572.967 141.825 578.843C137.697 582.76 132.867 583.688 130.848 580.904C129.969 579.667 129.355 579.77 126.808 582.141L123.734 584.822L121.363 582.244C118.729 579.358 114.953 576.266 114.162 576.266C113.811 576.266 115.392 578.43 117.675 581.214C129.179 595.233 123.822 615.747 107.137 621.005L102.307 622.551H106.259C110.737 622.551 116.094 620.593 118.465 618.118C120.397 616.057 121.188 616.881 123.559 623.685C124.7 626.984 125.139 630.798 125.052 636.88C125.052 645.024 125.052 645.333 127.071 645.333C129.355 645.333 129.355 645.333 129.442 630.901C129.53 623.376 130.321 616.985 132.955 603.686C136.029 587.605 136.556 585.956 139.19 582.966C140.771 581.214 143.142 579.152 144.371 578.43C148.499 575.853 149.113 568.534 145.425 565.029C144.635 564.307 144.284 563.174 144.635 562.555C144.898 562.04 144.723 561.833 144.284 562.143C143.23 562.967 141.912 560.081 142.176 557.71C142.264 556.473 142.176 556.473 141.561 557.504C141.034 558.432 140.42 556.988 139.717 552.762C138.488 545.443 134.536 538.021 129.618 533.794C127.598 532.042 126.105 530.289 126.281 529.671C126.369 529.155 126.105 528.949 125.666 529.361C125.139 529.671 123.734 529.67 122.417 529.258C120.749 528.743 119.519 527.196 118.026 523.176C116.006 518.022 110.386 510.806 106.522 508.332C105.205 507.61 104.59 505.755 104.151 501.94C103.624 497.405 103.8 496.374 105.293 494.621C108.63 491.013 106.873 481.014 102.57 478.952C100.902 478.127 100.287 477.303 100.902 476.89C102.834 475.447 105.381 468.025 105.381 463.901C105.381 459.056 103.712 453.696 101.517 451.634C100.112 450.294 100.287 449.882 103.097 446.48C109.508 438.748 109.771 428.646 103.888 421.43C101.604 418.544 101.604 418.544 103.009 414.936C107.313 404.215 101.429 391.329 91.3298 389.267C88.5197 388.752 88.0806 388.133 87.2024 384.216C86.5877 381.845 85.2704 378.443 84.2166 376.897C82.0212 373.598 76.2253 370.196 72.976 370.093C71.7466 370.093 69.2877 368.341 67.0923 365.97C64.1943 362.774 62.438 361.743 58.9253 361.228C55.0613 360.609 54.4466 360.197 53.6563 357.517C53.1294 355.867 51.8999 353.187 50.9339 351.434C49.1776 348.548 49.0898 348.136 50.3192 343.497C52.6903 334.941 52.8659 331.23 51.2852 324.014C49.8801 317.416 49.8801 317.004 51.373 315.973C55.237 313.396 59.9791 307.52 61.9989 302.778C67.7948 289.377 66.0385 274.326 57.4324 263.399C55.3248 260.719 55.1491 259.688 55.3248 253.709C55.8517 234.844 54.5344 228.556 48.3872 220.412L45.5771 216.598L47.7725 211.65C48.9141 208.866 50.1436 204.949 50.4948 202.887C51.1096 199.279 51.1096 199.279 56.3786 198.558C61.0329 198.042 61.8233 198.145 63.1405 200.104C65.3359 203.3 68.673 202.887 72.8004 198.867L76.4009 195.465L79.4745 197.217C81.2308 198.145 83.3384 198.97 84.3044 198.97C85.1826 198.97 86.7633 200.516 87.8171 202.475C90.0125 206.701 95.8085 210.309 100.375 210.309C102.307 210.309 104.766 211.34 106.786 212.887C108.542 214.227 111.264 215.67 112.757 216.082C116.533 216.804 122.241 214.948 125.315 211.959C126.632 210.619 129.355 209.279 131.199 208.969C139.015 207.526 145.513 198.351 144.723 190.104C144.371 187.012 144.635 186.496 147.094 185.569C150.343 184.332 154.997 178.971 156.227 174.951C157.544 171.034 157.368 164.127 155.963 160.209ZM146.391 74.5448C145.074 78.0497 143.142 80.4207 141.122 80.8331C140.507 80.9362 138.839 82.0701 137.522 83.3071C133.833 86.6059 129.091 86.3997 125.666 82.5855C124.173 80.9362 122.944 78.6683 122.944 77.4312C122.944 76.1942 122.593 75.2664 122.066 75.2664C120.397 75.2664 118.377 68.8751 118.904 65.164C119.431 60.9374 121.188 58.3603 124.964 56.6078C126.457 55.8862 128.389 54.443 129.267 53.4121C131.199 51.1442 136.731 50.9381 139.454 53.206C141.21 54.6492 144.635 60.8343 143.669 60.8343C143.405 60.8343 144.196 62.4837 145.337 64.5454C147.884 68.8751 147.972 70.009 146.391 74.5448ZM131.199 600.903C129.442 608.016 127.774 614.614 127.51 615.438C127.071 616.881 126.896 617.706 126.632 619.974C126.544 620.489 125.666 619.665 124.612 618.118C122.856 615.438 122.856 615.438 124.525 612.655C127.247 608.016 128.213 603.068 127.95 594.615C127.862 588.327 128.125 586.265 129.179 584.925C130.935 582.966 134.36 583.791 134.36 586.265C134.36 587.09 132.955 593.687 131.199 600.903ZM104.415 440.913C103.361 443.387 101.604 446.171 100.463 447.098C98.5308 448.542 98.443 448.954 99.4968 450.397C105.468 458.335 104.854 469.056 98.0039 476.066C94.2278 479.983 92.4714 480.189 91.3298 477.097C90.8029 475.344 90.5394 475.241 90.5394 476.478C90.4516 478.024 90.1882 478.024 87.1146 476.478C83.8653 474.932 83.7775 474.726 83.6897 469.365C83.5141 460.912 81.2308 454.314 76.2253 447.82C73.7664 444.727 70.6928 441.532 69.3755 440.707C67.9704 439.882 66.741 438.13 66.4776 436.377C65.0725 428.234 56.0273 417.822 47.8603 414.936L43.4695 413.389L43.3817 408.75C43.2938 406.173 42.7669 401.947 42.1522 399.37C41.0984 395.04 41.1862 394.524 42.5035 393.597C47.6847 390.195 54.4466 379.577 54.4466 374.732C54.4466 373.907 54.7979 373.186 55.3248 373.186C55.7639 373.186 55.9395 371.021 55.5882 368.031C55.1491 363.186 55.237 362.877 56.9933 362.877C59.2766 362.877 65.0725 366.176 66.6532 368.444C67.2679 369.268 67.4435 370.608 67.0923 371.227C66.6532 372.155 67.0923 372.258 68.5852 371.846C74.8202 369.887 83.4263 376.587 85.3582 384.834C86.3242 389.164 86.6755 389.576 89.7491 390.195C94.4912 391.226 98.5308 394.731 100.814 399.988C103.009 405.142 103.273 409.06 101.692 414.111C100.814 416.791 100.287 417.41 98.7943 416.894C97.7404 416.585 98.0917 417.1 99.7602 418.337C103.009 420.811 106.259 428.027 106.259 432.873C106.259 434.831 105.381 438.439 104.415 440.913ZM104.678 493.075C103.8 494.003 101.253 495.137 98.9699 495.446C94.9303 496.167 94.8425 496.064 93.5252 492.456C91.1542 485.653 92.1202 481.942 96.511 480.911C97.5648 480.705 98.7943 480.189 99.2333 479.88C100.902 478.643 103.8 480.601 104.941 483.797C106.61 488.333 106.522 491.116 104.678 493.075ZM58.6618 301.541C57.3446 304.427 54.5344 308.757 52.2512 311.231L48.2116 315.56L44.0842 310.509C39.3421 304.633 33.8974 301.128 28.2771 300.097L24.4132 299.479L28.3649 296.18C33.0192 292.16 37.4979 284.738 38.903 278.449C39.6933 275.151 40.835 273.295 43.5573 270.924C45.5771 269.275 48.036 266.491 49.1776 264.739L51.1096 261.646L53.305 264.017C55.9395 267.007 58.7497 272.264 60.3304 277.212C62.1745 283.088 61.3842 295.252 58.6618 301.541Z" fill="#444444"/>
<path d="M87.8149 633.171C86.9367 630.8 85.5317 628.532 84.7413 628.223C84.0388 627.913 83.4241 626.573 83.4241 625.336C83.4241 624.202 82.6337 621.213 81.7555 618.842C78.155 609.667 68.3195 607.812 61.8211 615.028C60.0647 616.986 57.7815 618.533 56.7277 618.533C55.6739 618.533 53.6541 619.46 52.0734 620.594C46.1018 624.821 44.4333 635.233 48.7363 641.727C51.7221 646.469 53.1272 646.366 50.7561 641.624C48.4729 637.088 48.2972 630.078 50.4048 626.264C52.249 622.965 56.8155 619.563 59.5378 619.563C60.6794 619.563 61.2942 619.151 61.0307 618.533C60.1525 616.883 66.0363 613.378 69.7246 613.378C71.6566 613.378 74.3789 614.306 76.1352 615.543C79.2967 617.811 82.1068 622.965 81.3165 625.233C81.1408 625.955 81.8434 627.604 82.985 628.841C85.7951 631.934 87.288 637.397 86.5855 641.83C86.1464 644.51 86.322 645.335 87.2002 645.335C90.0103 645.335 90.2738 639.562 87.8149 633.171Z" fill="#444444"/>
<path d="M43.1185 600.286C42.1525 598.534 40.484 596.782 39.3423 596.369C38.2007 595.957 36.3566 594.617 35.1271 593.277C31.7023 589.566 29.0678 588.432 25.9942 589.05C22.7449 589.772 19.847 592.967 18.881 596.885C18.5297 598.328 17.3003 600.493 16.2465 601.833C13.8754 604.616 12.9094 609.358 14.051 612.76C15.017 615.749 18.9688 619.564 21.252 619.564C22.1302 619.564 23.0962 620.285 23.4475 621.11C24.15 623.378 28.3652 625.749 31.6144 625.749C34.688 625.749 39.518 621.007 39.518 617.914C39.518 616.883 40.484 614.822 41.7134 613.378C44.787 609.564 45.3139 604.513 43.1185 600.286ZM41.9768 610.595C41.4499 611.832 40.484 613.481 39.7814 614.203C39.1667 614.925 38.6398 616.162 38.6398 616.986C38.6398 617.708 37.4104 619.564 35.8297 621.11C33.4586 623.481 32.4048 623.79 29.5068 623.378C27.487 623.069 25.2916 621.935 24.5891 620.904C23.8865 619.873 22.1302 618.533 20.6373 618.017C16.7734 616.471 14.4023 610.492 15.8074 605.647C16.3343 603.688 17.5637 601.42 18.5297 600.699C19.4079 599.874 19.9348 599.049 19.6713 598.637C18.5297 597.4 22.3937 592.658 25.3794 591.627C28.1018 590.699 29.1556 590.803 31.4388 592.143C33.0195 593.07 34.249 594.307 34.249 594.823C34.249 595.338 35.1271 596.06 36.2687 596.472C41.6256 598.328 44.4357 605.235 41.9768 610.595Z" fill="#444444"/>
<defs>
<clipPath id="clip0">
<rect width="645.333" height="363" fill="white" transform="translate(0 645.336) rotate(-90)"/>
</clipPath>
</defs>
</svg>
