<svg width="1366" height="885" viewBox="0 0 1366 885" fill="none" xmlns="http://www.w3.org/2000/svg">
<g clip-path="url(#clip0)">
<path d="M532.869 9.40977C522.177 24.2046 519.34 41.6894 524.577 59.7122C527.414 69.1271 527.195 69.6651 521.086 75.314C517.812 78.273 512.575 85.8049 509.52 91.4538C506.465 97.3718 502.756 102.214 501.228 102.214C499.701 102.214 494.464 97.6408 489.663 92.2608C475.698 75.852 471.115 72.6241 459.987 72.6241C451.476 72.6241 448.203 74.238 441.875 80.963C437.293 86.0739 433.365 93.3368 432.056 99.7927C430.746 105.711 427.255 114.857 424.418 120.237C421.363 125.616 418.963 133.417 418.963 137.721C418.963 155.206 430.746 169.463 444.712 169.463C448.64 169.463 451.695 171.077 452.567 173.498C453.222 175.919 457.368 179.685 461.732 181.837C468.279 185.334 471.552 185.334 480.935 182.644C487.045 181.03 494.246 178.609 496.864 177.264C499.919 175.919 504.065 175.919 507.338 177.533C515.848 181.568 527.85 174.574 529.378 164.89C530.469 157.896 531.341 157.358 539.197 158.165C543.779 158.703 550.762 157.896 554.254 156.282C560.582 153.592 561.673 154.13 568.874 163.007C573.238 168.387 580.002 174.305 583.93 176.457C599.86 184.527 625.608 178.609 635.864 164.352C638.265 161.393 642.411 158.703 645.247 158.703C648.084 158.703 653.976 156.82 658.34 154.668C662.486 152.516 670.342 150.633 675.579 150.633C687.799 150.633 693.908 147.674 702.2 137.183C719.876 115.664 714.638 79.349 692.163 65.3611L682.561 59.4432L682.343 40.8824C681.907 25.8186 680.816 20.4386 675.797 11.2927C670.56 1.33986 668.814 -0.00512276 661.613 -0.00512276H653.539L660.74 6.9888C676.888 22.8596 681.252 52.1803 670.778 75.045L665.323 87.4189L671.869 78.004C675.579 72.8931 678.634 67.7821 678.634 66.7061C678.634 62.1332 687.362 64.8231 693.69 71.2791C703.073 81.232 707.874 98.4478 705.037 112.167C700.891 131.534 687.799 145.253 674.051 145.253C670.123 145.253 669.905 144.446 672.087 141.218C675.797 135.569 678.415 119.43 676.233 115.395C674.924 112.705 674.269 114.319 674.269 120.237C674.269 139.066 650.266 157.627 633.682 151.171C627.572 149.019 626.481 149.019 628.227 151.709C629.973 154.13 629.318 156.551 625.608 160.855C607.497 181.837 574.329 172.96 561.236 143.908C558.836 138.528 558.836 138.528 558.618 144.446C558.618 151.171 553.163 153.054 540.288 150.364C512.575 144.446 502.319 100.331 523.486 76.928C527.85 72.0861 528.068 72.0861 535.706 79.08C544.434 87.4189 545.962 84.7289 537.888 75.314C530.905 67.2441 527.414 51.1043 529.159 37.1165C530.905 24.7426 541.161 8.87178 550.98 3.76083L557.527 0.263874L548.58 -0.00512276C540.724 -0.00512276 538.324 1.33986 532.869 9.40977ZM477.225 83.1149C480.935 86.0739 484.644 90.6469 485.299 93.6058C486.172 96.5648 488.572 99.5238 490.972 100.331C493.155 101.138 497.082 105.711 499.701 110.553C504.065 119.161 504.283 119.43 502.756 112.167C502.101 108.132 502.319 104.904 503.629 104.904C504.72 104.904 506.247 110.822 506.684 118.354C507.775 132.61 516.067 149.019 523.704 151.978C529.814 154.399 529.159 162.738 522.395 169.194C515.848 175.381 508.211 176.457 501.447 171.884C498.173 169.732 497.301 169.732 498.392 171.884C499.264 173.498 498.61 175.112 497.082 175.112C495.555 175.381 491.845 175.919 488.79 176.457C464.787 180.761 465.878 181.03 458.895 173.767C455.186 170.001 450.603 166.773 448.64 166.773C436.202 166.773 423.327 151.709 423.327 137.183C423.327 128.306 429.437 116.202 435.983 111.898C440.129 108.939 440.784 107.863 438.165 107.594C430.746 107.594 441.002 85.5359 450.603 80.425C458.241 76.659 470.024 77.735 477.225 83.1149Z" fill="#444444"/>
<path d="M449.515 148.489C449.296 158.173 454.315 166.781 460.207 166.781L465.881 166.512L460.425 162.746C457.37 160.863 453.879 155.752 452.351 151.448C450.824 146.875 449.733 145.799 449.515 148.489Z" fill="#444444"/>
<path d="M582.62 5.65254C586.766 8.61151 592.658 14.2604 595.494 18.2954C598.331 22.3304 599.859 24.2133 599.204 22.5994C598.549 20.7164 601.823 15.0674 606.623 9.6875C613.606 2.15558 614.479 0.00360701 611.206 0.00360701C608.805 0.00360701 604.877 3.76957 602.041 8.34251L597.458 16.6814L590.476 8.34251C586.548 3.76957 581.529 0.00360701 579.347 0.00360701C576.074 0.00360701 576.947 1.61759 582.62 5.65254Z" fill="#444444"/>
<path d="M1306.43 7.53266C1298.57 17.4855 1298.35 32.5494 1305.77 41.6953C1310.14 46.8062 1310.79 50.0342 1309.92 59.7181C1307.95 84.1968 1325.85 100.337 1343.52 89.8457C1348.11 86.8868 1353.34 81.2378 1355.09 76.6649C1357.27 71.2849 1359.67 68.864 1362.29 69.402C1368.18 70.7469 1366.65 65.367 1360.54 63.484C1357.49 62.408 1353.12 57.8351 1350.72 52.9931C1348.32 48.4202 1346.36 45.4612 1346.36 46.8062C1346.36 48.1512 1348.32 53.2621 1350.94 58.1041C1354.43 65.098 1354.87 68.326 1352.91 72.3609C1346.36 87.6938 1330.21 90.6527 1319.96 78.2789C1311.45 67.788 1311.45 54.8761 1319.74 42.5023L1325.63 33.6254L1319.52 38.4673C1313.63 43.3093 1312.97 43.3093 1309.05 38.7363C1300.75 29.3214 1304.25 13.4506 1317.12 3.49771C1321.05 0.53874 1321.05 0.269743 1316.68 0.269743C1314.28 0.000746413 1309.7 3.49771 1306.43 7.53266Z" fill="#444444"/>
<path d="M912.339 6.99115C908.193 9.14312 903.392 12.3711 901.647 14.2541C899.683 16.137 893.573 17.213 885.717 16.675C871.752 15.599 863.896 19.634 856.695 31.4699C846.876 47.8787 851.24 76.3924 865.642 86.6142C870.006 89.8422 872.843 94.1462 872.843 97.3741C872.843 111.362 886.808 126.426 900.119 126.426C906.447 126.426 916.485 120.777 920.413 114.859C922.813 111.362 924.122 111.631 931.323 116.204C948.344 127.233 968.419 116.473 973.438 93.6082C974.529 87.9592 977.802 80.4273 980.857 76.9303C1000.06 52.9896 983.912 12.3711 956.854 17.213C949.435 18.289 946.816 17.482 943.761 13.4471C940.27 8.60513 927.614 2.6872 921.94 2.6872C920.849 2.95619 916.485 4.57017 912.339 6.99115ZM938.524 14.7921C942.016 17.213 947.034 22.862 949.435 27.7039C953.581 36.0428 953.799 36.0428 952.272 28.7799C950.962 21.786 951.18 21.517 960.782 21.517C982.603 21.517 993.732 50.8376 979.766 72.6264C976.056 78.2753 975.184 78.8133 973.22 75.3164C971.692 72.3574 971.038 74.2404 971.038 82.8483C971.038 92.8012 969.728 96.2981 963.618 103.83C957.727 111.093 954.454 112.976 947.253 112.976C937.651 112.976 927.396 108.403 927.396 104.099C927.396 102.485 924.559 104.368 921.286 108.403C909.066 122.929 893.136 122.391 882.881 107.327C876.116 97.6431 875.243 81.7723 880.698 70.4744L884.19 63.2115L878.516 70.7434C875.461 74.7784 872.843 80.1583 872.843 82.3103C872.843 88.2282 869.351 86.8832 863.46 78.0063C852.986 62.6735 853.204 43.3057 864.333 29.5869C871.97 20.441 883.972 16.675 893.136 20.979C898.592 23.669 900.556 23.131 907.32 17.482C916.703 9.68112 928.705 8.60513 938.524 14.7921Z" fill="#444444"/>
<path d="M42.117 12.6394C35.3525 14.2534 24.0055 27.9723 23.7873 34.6972C22.9145 52.72 23.5691 57.5619 28.3698 64.0179C31.8611 68.5908 32.2976 71.0118 30.5519 75.0467C29.4608 78.0057 28.3698 85.8066 28.3698 92.2625C28.3698 117.817 47.1359 135.302 67.6477 128.577C72.8848 126.694 73.103 127.232 73.5394 140.951C73.5394 148.752 75.2851 158.974 77.249 163.816C80.9586 172.155 94.9241 186.68 102.78 189.639C105.18 190.715 106.926 193.943 106.926 197.171C106.926 204.972 114.345 219.498 120.237 223.533C126.346 227.568 141.403 227.568 144.458 223.802C145.985 221.919 149.04 222.726 154.714 227.299C177.626 246.129 208.394 238.328 222.577 210.352C227.378 200.937 228.906 199.861 234.579 200.937C251.818 204.434 271.893 189.101 278.439 168.12C287.822 137.454 271.02 101.946 245.053 97.9115L236.761 96.5665L244.835 100.332C258.146 106.519 263.165 111.899 268.183 124.542C276.912 146.6 272.766 168.389 257.055 183.721C245.926 194.75 231.306 196.364 218.65 188.563C209.485 182.914 205.557 185.335 213.849 191.522C219.304 195.826 219.304 199.323 213.631 208.2C202.72 225.147 178.717 231.603 161.478 221.919C154.932 218.153 152.968 215.732 154.059 212.773C158.423 199.861 157.551 198.247 151.222 207.124C145.331 215.463 143.149 216.539 134.202 216.539C125.474 216.539 123.073 215.194 117.618 207.662C113.254 201.475 111.29 196.095 111.29 189.37C111.29 183.721 110.417 180.494 109.108 181.57C107.799 182.646 103.216 180.494 99.0701 177.266C88.1595 169.196 79.6493 146.331 81.6132 131.267C84.0135 112.706 85.7592 110.285 95.7969 113.513C103.216 115.934 105.835 115.396 111.726 111.092C115.654 108.402 120.455 102.215 122.2 97.3735C123.946 92.8005 126.565 88.7656 128.092 88.7656C133.329 88.7656 141.839 95.2215 142.058 99.2565C142.058 101.677 143.367 97.3735 144.894 89.8416C148.386 72.3568 155.368 60.5209 165.624 54.065C184.172 42.2291 201.629 44.6501 216.249 61.0589C229.56 75.8537 234.361 103.291 226.505 121.583C225.414 124.542 225.414 126.425 226.505 126.425C229.997 126.425 234.143 110.554 234.361 96.0285C234.579 59.9829 207.084 34.1592 176.098 41.4221C164.97 44.1121 149.259 62.4039 144.676 77.7367C140.967 90.6486 140.967 90.6486 133.984 87.9586C128.965 86.0756 126.128 82.8476 124.383 77.1987C123.291 72.6258 120.455 66.7078 118.491 64.0179C116.309 60.7899 114.781 54.065 114.781 45.7261C114.345 21.2473 96.4515 7.25949 78.9947 18.0194C70.9209 22.8613 70.2662 22.8613 65.2474 18.2884C59.5739 13.1774 49.5362 10.4875 42.117 12.6394ZM62.4106 20.4403C66.5567 22.8613 69.8298 25.8203 69.8298 27.1653C69.8298 28.2413 73.3212 26.8963 77.6854 23.6683C84.4499 18.8264 86.4138 18.5574 94.0512 21.2473C104.962 25.2823 111.945 37.6562 110.417 50.03C109.762 56.7549 110.635 59.9829 114.781 64.8248C118.709 69.3978 120.018 73.7017 120.018 82.0406C120.018 95.7595 115.436 104.098 105.835 107.326C95.7969 110.554 89.4688 108.402 89.4688 101.139C89.4688 96.8355 88.5959 97.3735 85.541 104.636C81.1768 114.589 69.6116 123.735 61.5378 123.735C38.1892 123.735 24.0055 88.7656 38.8439 66.7078L44.7356 57.8309L38.8439 62.6729C33.1704 66.9768 32.734 66.9768 30.3337 61.5969C24.2238 47.071 29.4608 27.4343 41.6806 19.6334C48.6634 15.0604 53.464 15.3294 62.4106 20.4403Z" fill="#444444"/>
<path d="M1182.7 16.9506C1152.81 27.1725 1135.35 62.1421 1144.08 92.8077C1147.14 103.03 1146.92 103.837 1142.34 108.141C1137.53 112.444 1136.66 112.713 1129.02 108.679C1117.9 103.03 1099.13 103.03 1085.16 108.679C1071.2 114.327 1055.71 132.888 1050.47 149.566C1042.4 175.659 1051.78 208.207 1071.85 224.347C1077.53 228.92 1082.11 233.224 1082.11 234.031C1082.33 234.838 1079.49 237.528 1075.78 239.949C1072.29 242.37 1066.62 249.095 1063.34 255.013C1057.67 264.697 1056.14 265.773 1044.8 267.387C1027.77 269.539 1014.25 277.878 1002.9 293.21C964.494 346.203 998.971 434.165 1055.27 426.902C1061.38 426.095 1069.67 423.405 1073.6 420.984L1080.36 416.68L1090.18 427.709C1125.75 468.058 1190.34 465.637 1221.98 423.136C1228.09 415.066 1232.89 407.265 1232.89 405.92C1232.89 404.306 1234.86 404.575 1237.48 406.458C1240.31 408.072 1248.17 408.879 1256.02 408.341C1267.15 407.534 1271.73 405.651 1279.15 398.926C1296.17 383.862 1304.68 350.776 1298.36 326.566C1294.21 311.233 1285.92 296.169 1278.72 291.058C1275.23 288.637 1270.64 281.644 1268.68 275.726C1266.5 269.808 1264.53 264.159 1264.1 263.352C1263.66 262.545 1266.06 260.393 1269.33 258.51C1285.05 249.633 1304.9 221.926 1304.9 208.745C1304.9 205.248 1309.27 198.523 1315.59 191.799C1331.52 174.852 1336.76 152.794 1329.78 132.35C1323.89 114.327 1311.89 102.223 1296.17 98.1876C1292.03 97.1117 1284.39 91.4627 1279.37 85.8138C1274.13 79.8959 1267.15 74.7849 1262.57 73.9779C1256.68 72.6329 1254.71 70.75 1254.71 66.715C1254.71 52.4582 1238.35 27.7104 1223.73 20.4475C1212.38 14.5296 1194.05 12.9156 1182.7 16.9506ZM1216.75 28.2484C1236.82 35.5114 1251.88 57.5691 1252.75 80.7028C1252.97 87.1588 1253.4 88.2348 1254.06 83.9308C1254.5 80.7028 1255.37 78.0129 1256.02 78.0129C1260.17 78.0129 1272.17 86.6208 1275.66 92.0007C1278.28 96.0357 1283.08 99.2636 1288.32 100.34C1300.32 102.761 1312.76 113.789 1318.21 126.97C1324.76 142.572 1323.45 165.168 1314.94 178.618C1311.67 183.998 1308.18 188.302 1307.3 188.302C1306.21 188.302 1304.68 184.267 1304.03 179.425C1303.16 174.852 1300.97 168.396 1299.01 165.437L1295.52 160.057L1297.27 165.437C1300.32 175.928 1300.97 193.144 1298.57 202.558C1294.65 216.546 1278.06 238.066 1264.97 245.867C1254.71 252.054 1252.75 252.323 1243.15 249.633C1234.42 246.943 1232.02 244.791 1227.44 235.376C1208.45 195.027 1166.12 181.846 1133.83 205.786L1121.61 214.932L1118.55 209.014C1117.02 205.786 1114.84 199.33 1113.75 195.027L1112 186.957L1111.13 193.951C1110.91 197.986 1112 205.786 1113.75 211.166C1115.71 216.546 1116.59 222.195 1115.93 223.54C1113.97 227.844 1094.77 225.961 1085.6 220.85C1052.65 202.02 1046.32 151.718 1073.38 123.204C1089.31 106.527 1113.31 103.03 1131.42 114.596L1139.72 119.976L1145.39 113.52C1149.97 108.41 1152.81 107.334 1161.54 108.141C1170.27 108.679 1171.36 108.41 1168.08 105.451C1166.12 103.837 1161.32 102.223 1157.39 102.223C1149.54 102.223 1147.79 98.9946 1147.79 82.5858C1147.79 59.4521 1162.85 35.7804 1182.7 28.2484C1195.58 23.4065 1203.65 23.4065 1216.75 28.2484ZM1194.71 212.242C1218.71 226.23 1234.2 253.937 1237.26 288.637C1238.13 299.397 1239.22 305.046 1239.44 301.28C1240.31 292.134 1240.31 291.327 1238.78 273.574C1237.04 256.089 1238.57 255.013 1251.66 262.545C1260.17 267.387 1266.93 279.492 1269.77 294.824C1271.08 301.28 1271.73 302.894 1271.95 299.128C1272.39 289.175 1279.59 296.438 1286.57 313.385C1291.59 326.297 1292.25 330.601 1291.16 344.32C1288.97 374.447 1274.13 394.891 1252.53 397.581C1239.66 398.926 1225.26 391.663 1227.66 384.938C1228.53 382.517 1229.62 375.254 1229.84 368.53C1230.49 358.308 1230.27 357.77 1228.75 364.495C1223.29 390.049 1204.74 406.458 1184.89 402.961C1175.72 401.347 1178.99 405.382 1189.69 409.148C1196.89 411.569 1200.38 411.3 1208.02 407.534C1213.04 405.113 1218.49 401.347 1219.8 399.464C1224.38 392.47 1226.56 398.119 1222.64 406.727C1217.4 417.487 1205.4 429.054 1190.34 437.393C1160.45 454.34 1114.4 446.539 1092.58 420.984L1086.69 413.99L1094.33 402.423C1102.4 390.318 1109.82 371.22 1106.55 371.22C1105.46 371.22 1103.49 374.985 1101.97 379.289C1096.07 397.043 1070.11 416.949 1052.87 416.949C1042.4 416.949 1024.94 408.072 1016.43 398.657C1003.55 384.131 997.225 366.109 997.225 342.975C997.444 313.385 1009.01 288.906 1028.43 277.34C1040.43 270.346 1055.27 268.732 1054.4 274.381C1052 287.561 1051.56 306.66 1053.52 310.964C1055.49 315.268 1055.92 313.654 1056.14 302.625C1056.36 262.007 1088.66 230.803 1120.3 240.756C1127.93 243.177 1130.12 243.177 1127.5 241.025C1115.93 232.417 1115.93 232.417 1120.3 226.23C1122.7 223.002 1130.33 217.084 1137.53 212.511C1155.86 201.213 1175.94 201.213 1194.71 212.242Z" fill="#444444"/>
<path d="M960.561 173.774C959.033 174.581 955.76 179.961 953.578 185.879C951.178 191.528 947.686 196.37 945.722 196.37C943.977 196.37 940.049 199.329 937.212 203.095C924.774 218.158 933.721 244.789 950.741 244.789C957.942 244.789 959.251 245.596 959.47 250.707C960.124 260.929 969.944 270.344 979.981 270.344C987.619 270.344 990.019 268.73 995.038 261.467C998.093 256.894 1002.02 252.859 1003.55 252.859C1004.86 252.859 1008.57 249.9 1011.4 246.134C1017.3 238.871 1019.04 221.655 1014.24 215.737C1012.93 214.123 1011.84 207.129 1012.28 200.405C1012.49 190.452 1011.62 186.955 1007.04 181.575C1002.46 175.657 999.62 174.581 990.019 174.85C983.909 175.119 975.181 174.581 971.035 173.774C966.889 172.967 962.088 172.967 960.561 173.774ZM975.835 178.616C980.636 181.575 983.255 181.844 988.273 179.423C993.947 176.733 995.911 177.271 1000.93 182.113C1005.95 186.686 1007.04 189.645 1007.04 199.329C1007.26 205.784 1008.35 213.854 1009.88 217.082C1011.4 220.31 1012.49 225.152 1012.49 228.111C1012.49 234.567 1004.2 248.017 1001.58 246.134C1000.49 245.327 998.093 248.017 996.347 252.321C992.638 261.467 988.928 263.619 978.672 263.619C966.016 263.619 958.597 246.134 964.488 230.532C966.452 225.152 966.452 225.152 964.052 229.456C962.525 232.146 960.124 236.45 958.815 238.602C957.069 241.561 954.669 242.368 950.523 241.023C929.793 234.567 932.193 199.06 953.36 199.06C958.597 199.06 960.124 198.253 958.379 196.639C953.796 193.142 956.196 182.113 962.306 178.347C969.071 174.043 968.634 174.043 975.835 178.616Z" fill="#444444"/>
<path d="M265.127 213.853C262.072 217.35 259.671 223.537 259.671 227.303C259.671 231.069 258.799 234.028 257.489 234.028C256.398 234.028 253.343 236.449 250.943 239.408C245.269 246.402 245.269 261.196 250.725 267.383C253.78 270.88 254.653 274.377 253.78 280.564C252.252 293.207 256.18 302.622 265.127 307.733C274.946 313.651 286.511 309.885 291.094 299.125C293.712 292.938 295.24 292.131 303.75 292.938C317.279 293.745 325.135 284.868 325.135 267.921C325.135 261.196 324.262 255.278 323.171 254.471C322.298 253.665 321.862 249.899 322.516 246.133C324.698 231.069 315.097 217.081 301.786 217.35C298.513 217.35 293.276 214.929 290.439 212.239C283.02 204.976 271.673 205.514 265.127 213.853ZM290.657 217.081C292.839 219.502 297.64 221.654 301.568 221.923C305.932 222.461 310.515 225.42 313.57 229.993C318.588 237.256 320.552 249.361 316.188 245.864C314.879 245.057 315.315 247.209 317.497 250.975C323.171 262.003 322.516 274.108 315.533 281.64C308.114 289.441 299.168 289.441 291.094 281.909L284.766 275.722L288.693 283.254C292.403 290.517 292.403 290.786 287.166 297.242C271.455 316.61 248.543 291.593 261.199 268.997C264.69 262.541 264.69 262.541 261.199 266.038C257.926 269.266 256.835 268.997 253.125 264.962C250.725 262.272 248.761 257.161 248.761 253.665C248.761 247.478 255.525 236.718 259.671 236.718C260.981 236.718 261.854 234.028 261.854 230.531C261.854 213.315 279.747 204.976 290.657 217.081Z" fill="#444444"/>
<path d="M0 284.866C0 286.48 2.18211 289.17 4.80064 290.784C7.41917 292.667 11.5652 296.433 13.7473 299.661C15.9294 302.889 17.0204 303.427 16.1476 301.275C12.2198 291.322 0 278.949 0 284.866Z" fill="#444444"/>
<path d="M32.5134 308.539C42.1147 314.457 48.0064 326.562 48.0064 341.357C48.0064 351.31 46.6971 354.538 39.4962 363.415C32.5134 372.292 29.6767 373.906 22.0393 373.906C17.0204 373.906 10.0377 372.023 6.54633 369.871C0.218211 365.836 0 365.836 0 371.216C0 374.444 0.872843 376.327 1.9639 375.52C3.05495 374.713 6.76454 375.789 10.0377 377.941C22.4757 385.742 36.8776 381.976 47.7882 367.45C54.7709 358.304 56.7348 335.439 51.4978 323.603C47.7882 314.457 35.7866 303.966 29.2403 303.966C26.4035 303.966 27.4946 305.58 32.5134 308.539Z" fill="#444444"/>
<path d="M118.488 440.617C78.9923 458.102 62.6265 500.603 79.2105 542.298C85.3204 558.169 82.2655 562.472 70.9185 553.058C53.8981 538.801 30.3313 536.649 11.5652 547.409C2.61853 552.251 0 555.21 0 559.782C0 565.431 0.218211 565.431 3.9278 561.396C11.5652 552.789 27.0581 546.064 39.278 546.064C53.4617 546.064 67.6454 553.327 78.1195 565.7C82.4837 570.811 84.884 572.425 83.793 569.466C83.1383 567.045 83.5748 563.01 85.1022 560.589C87.7208 557.093 88.5936 557.362 93.6125 563.01C100.813 571.08 109.542 578.343 112.16 578.343C113.251 578.343 110.196 574.846 105.614 570.542C87.5026 554.134 80.738 539.339 80.738 515.936C80.9562 489.574 93.176 468.055 115.652 454.874C131.581 445.728 159.294 444.921 174.787 453.529C195.517 465.365 211.665 491.457 211.665 514.053V524.006L199.227 525.082C192.244 525.889 183.079 528.31 178.933 531C174.787 533.421 173.259 534.497 175.66 533.421C178.06 532.614 187.661 531.269 197.044 530.462C212.756 529.386 215.156 529.924 228.03 537.725C255.743 554.672 270.145 593.676 261.853 629.453C257.925 645.861 257.052 646.668 247.015 640.482C242.214 637.523 234.358 634.295 229.558 633.219C217.774 631.067 199.227 638.061 190.28 648.282C185.043 653.931 180.897 656.352 175.442 656.352C165.84 656.352 157.112 662.001 149.911 672.223C147.074 676.527 144.019 679.486 143.365 678.679C140.746 675.451 123.944 681.369 115.215 688.632L105.832 696.433L100.813 690.515C97.9767 687.287 93.8307 680.293 91.4304 675.182C88.1572 667.112 87.5026 666.574 87.2843 671.685C87.2843 675.182 87.0661 677.872 86.6297 677.872C79.8652 677.872 62.8447 667.919 57.3895 661.194C44.2968 644.517 40.5872 624.88 46.9153 605.781C49.7521 596.904 49.7521 596.366 46.9153 601.208C38.6233 614.12 37.7505 636.985 44.515 653.662C46.4789 658.773 46.9153 662.27 45.3879 663.346C39.7144 667.65 9.60128 656.352 5.45527 648.282C3.05495 643.441 -0.218211 645.592 0.436422 651.51C0.872843 655.545 4.58243 660.118 10.9105 664.422C18.9843 670.071 23.785 671.147 37.5323 671.147C49.9703 671.147 55.2073 672.492 58.2623 675.72C63.9358 682.176 73.1006 685.942 82.7019 685.942C88.8118 685.942 92.3032 687.825 97.1038 694.012C102.559 701.006 102.996 702.889 100.813 708.807C96.6674 719.836 97.5403 742.431 102.341 752.115C112.597 772.828 135.727 784.126 153.184 776.863C162.785 773.097 163.004 773.097 170.204 780.629C193.117 804.032 238.723 802.149 260.107 777.132C267.745 768.255 270.145 767.179 282.583 766.103C293.712 765.296 297.858 763.682 302.44 758.571C311.605 747.811 314.878 737.858 313.569 722.795C312.696 711.497 311.169 707.731 303.75 698.316C298.731 692.398 292.184 683.521 289.129 678.679C285.42 673.299 280.619 669.264 276.037 668.188C266.654 666.036 262.508 660.656 266.217 655.276C267.527 653.124 270.145 652.048 271.673 652.855C279.31 656.352 298.294 641.558 301.567 629.453C302.004 627.57 304.404 627.57 309.423 629.722C315.315 632.143 317.933 631.874 326.007 627.032C339.318 618.962 344.991 599.325 338.445 583.992C337.136 581.302 336.699 575.115 337.354 570.811C339.973 554.134 326.443 535.304 311.605 535.304C305.495 535.304 300.913 533.152 296.33 528.579C284.111 515.936 266.654 521.316 260.544 539.608L257.489 548.754L246.578 539.608C240.687 534.497 230.867 528.848 224.975 526.965C214.501 523.737 214.283 523.468 215.374 515.129C217.12 502.217 210.573 478.814 202.063 466.441C197.917 460.523 188.534 451.646 180.897 446.535C169.332 439.003 164.749 437.658 148.602 436.582C134.2 435.775 127.217 436.851 118.488 440.617ZM292.403 531.269C296.112 533.69 298.949 536.649 298.949 537.994C298.949 539.608 302.877 540.684 307.677 540.684C318.37 540.684 328.844 551.444 331.026 564.624C332.335 572.963 332.117 573.501 327.753 570.542C320.552 565.7 320.77 567.045 328.626 576.729C334.299 583.723 336.045 588.027 336.045 595.828C336.045 603.629 334.299 607.933 328.626 614.927C317.497 628.646 301.786 626.763 293.93 611.161C291.966 607.126 290.22 605.243 290.22 606.857C290.22 608.471 292.184 613.044 294.803 616.81C298.076 622.19 298.731 625.149 296.985 628.646C293.494 636.985 286.947 642.634 279.528 644.517L272.327 646.399L274.073 634.564C278.001 610.354 276.473 591.255 268.836 572.425C260.98 552.52 260.326 547.14 265.344 538.532C271.673 527.503 282.147 524.544 292.403 531.269ZM240.687 643.71C256.616 652.048 266.872 667.65 270.581 689.439L272.545 700.737L271.891 686.48C271.236 673.299 271.454 672.492 275.819 674.106C284.111 677.065 290.22 683.252 291.53 689.977C292.184 693.743 294.148 696.702 295.676 696.702C301.131 696.702 307.677 711.766 307.677 724.409C307.677 747.811 290.875 765.027 273.2 759.647C265.344 757.226 265.126 756.688 265.781 746.466L266.217 735.706L263.381 743.776C258.798 755.612 252.034 762.068 241.559 763.951C232.395 765.834 232.395 765.834 238.941 767.986C243.742 769.6 247.233 768.793 253.561 764.489C264.69 757.226 264.69 763.413 253.779 774.711C243.742 784.664 228.03 790.851 211.883 790.851C197.044 790.851 188.098 787.892 175.442 778.746L165.622 771.752L173.478 760.723C177.624 754.536 181.115 747.811 181.115 745.659C181.115 743.507 178.933 745.659 176.096 750.77C169.986 762.068 154.712 772.021 142.928 772.021C122.198 771.752 106.923 754.805 105.178 730.058C103.65 708.538 112.379 692.398 129.835 684.059C142.71 677.872 144.456 679.217 142.928 693.205C142.055 703.965 142.055 705.041 144.237 699.392C154.493 670.34 164.095 661.194 182.861 662.27C191.589 662.808 193.553 662.27 190.935 660.118C188.098 657.428 188.098 656.621 191.589 653.124C203.154 640.482 225.848 636.178 240.687 643.71Z" fill="#444444"/>
<path d="M1256.24 570.547C1251.66 573.506 1246.2 579.424 1244.24 583.728C1241.84 589.108 1237.91 592.336 1231.8 594.219C1210.42 600.944 1198.2 619.504 1196.23 647.211C1194.71 670.614 1202.13 690.52 1216.75 702.087C1222.42 706.39 1228.75 710.156 1230.71 710.156C1232.68 710.156 1237.69 714.998 1241.62 721.185C1249.26 733.021 1259.51 739.746 1269.55 739.746C1279.59 739.746 1294.43 728.448 1299.67 716.881C1303.59 708.542 1305.78 706.659 1312.54 705.852C1330.65 703.969 1344.62 683.257 1344.62 659.047C1344.4 651.784 1343.31 643.176 1341.78 639.679C1338.29 631.34 1328.69 618.697 1323.45 615.738C1320.18 613.586 1320.4 614.662 1324.54 619.235C1333.05 628.65 1335.67 633.761 1337.85 644.79C1340.25 658.778 1336.54 674.649 1328.25 685.14C1320.83 694.824 1307.74 699.666 1304.9 694.017C1303.81 691.865 1302.72 693.21 1301.85 698.59C1300.98 703.162 1297.05 710.694 1292.9 715.536C1286.79 722.799 1283.3 724.682 1273.92 725.489C1260.39 726.834 1250.79 720.916 1243.8 706.928C1238.78 696.707 1237.91 673.035 1242.06 663.62C1244.24 658.24 1244.24 657.971 1240.97 661.468C1236.82 665.503 1232.89 680.567 1232.89 691.865C1232.89 701.818 1230.06 701.28 1219.58 689.175C1202.78 670.076 1201.25 636.72 1215.87 614.662C1223.95 602.827 1233.33 597.178 1246.42 596.909C1251.66 596.64 1253.84 596.102 1251.44 595.295C1243.59 592.874 1243.59 590.453 1251.44 581.038C1257.55 573.775 1261.04 571.892 1270.64 570.816C1288.97 568.933 1302.94 581.307 1306.21 602.289C1307.74 611.704 1311.45 616.276 1311.45 608.745C1311.23 601.213 1303.81 582.921 1298.14 576.465C1287.01 563.822 1270.21 561.401 1256.24 570.547Z" fill="#444444"/>
<path d="M487.705 614.118C469.811 622.726 457.373 638.597 451.7 660.117C448.427 672.76 449.736 695.086 454.318 706.653C458.246 716.337 458.683 715.799 442.971 719.565C423.769 724.407 401.948 743.506 391.474 765.564C376.199 797.574 382.309 840.614 406.094 867.783C422.023 885.805 416.786 884.998 501.015 884.998C573.461 884.729 577.826 884.46 581.317 879.888C584.808 875.046 585.9 875.046 592.446 878.543C609.903 887.419 639.143 878.005 647.435 860.789C649.835 855.678 653.545 852.45 658.127 851.374C673.184 848.146 684.967 827.433 682.131 810.217C680.821 803.492 681.258 802.954 687.368 802.954C692.605 802.954 694.132 804.299 695.223 810.217C696.751 819.632 706.788 828.509 715.735 828.509C720.536 828.509 724.682 826.088 729.046 820.708C732.537 816.135 737.338 811.831 739.738 811.024C745.848 808.603 752.831 796.767 752.831 788.428C752.831 784.663 751.303 778.207 749.776 774.172C747.812 769.599 746.939 763.143 747.812 757.494C748.903 749.424 748.03 746.734 742.357 739.74C735.592 731.401 726.646 729.249 720.317 734.091C718.135 735.705 715.517 735.436 712.68 732.746C710.28 730.594 705.916 728.98 703.079 728.98C697.187 728.98 687.368 740.278 687.368 747.003C687.368 750.5 684.967 752.921 680.385 754.535C674.93 756.687 672.093 760.184 668.82 768.523C664.674 779.283 664.019 779.821 656.818 778.207C652.672 777.4 648.744 775.517 648.308 773.903C646.562 768.523 632.378 750.769 628.232 749.155C625.177 747.81 624.086 744.851 624.086 737.319C624.086 716.875 612.958 687.555 599.21 671.953C591.137 662.538 575.644 652.316 565.169 649.626C560.151 648.281 554.695 643.439 548.804 635.369C533.529 613.849 507.344 604.703 487.705 614.118ZM524.364 621.919C528.946 623.533 537.457 630.258 543.13 636.714L553.168 648.012L546.622 648.281C543.13 648.55 537.238 650.164 533.529 652.316L526.983 656.351L534.62 654.199C566.479 646.129 596.155 665.497 610.339 703.963C615.14 716.606 615.794 721.448 615.14 741.085C614.703 753.459 613.612 764.488 612.739 765.295C611.867 766.371 608.157 764.219 604.447 760.184C600.738 756.418 595.937 753.19 594.192 753.19C592.009 753.19 592.882 755.342 597.028 759.108C606.411 768.254 610.994 775.248 612.303 783.587C613.176 787.621 614.703 791.656 615.794 792.463C616.885 793.27 617.104 791.118 616.449 787.621C615.794 784.394 617.104 775.786 619.068 769.061C622.341 758.57 623.65 756.956 627.36 758.57C629.76 759.915 634.561 764.488 638.052 768.792L644.162 776.862L638.052 781.435C634.561 783.856 633.688 784.931 636.088 783.856C645.471 779.821 650.272 779.552 657.691 782.78C672.529 788.697 679.948 809.41 673.402 826.357C670.347 834.158 660.309 844.649 655.945 844.649C655.291 844.649 654.636 839.269 654.636 832.544C654.636 821.515 649.835 804.299 646.78 804.299C646.344 804.299 646.78 806.989 648.308 809.948C652.236 819.094 649.617 842.228 643.725 852.181C636.306 864.286 621.25 872.625 607.066 872.356C594.41 872.356 589.173 868.59 592.882 862.941C595.283 859.175 600.301 841.959 598.992 841.959C598.556 841.959 596.155 846.532 593.537 851.912C580.444 879.888 551.204 889.84 523.709 876.122C510.399 869.666 509.307 865.9 519.127 862.672C530.474 859.175 528.292 856.754 514.545 857.561C497.96 858.906 484.65 854.333 470.902 842.766C463.701 836.579 460.865 835.234 462.174 838.462C466.756 848.684 483.995 863.479 491.632 863.479C493.378 863.479 496.433 865.9 498.833 869.128C503.852 875.853 501.234 878.543 487.05 881.232C440.571 889.84 399.111 856.216 395.62 807.258C394.965 798.919 395.62 787.352 396.929 781.166C402.821 754.266 423.551 730.325 447.336 722.524C458.901 719.027 459.555 719.027 463.701 724.676C466.102 727.904 470.029 732.477 472.43 734.36C474.83 736.512 473.739 734.091 469.811 728.98C450.609 703.425 451.7 662.538 472.212 637.79C486.832 620.036 504.725 614.656 524.364 621.919ZM712.462 736.781C713.116 738.395 718.354 738.664 724.245 737.857C733.41 736.512 735.374 737.319 739.52 742.699C743.448 747.81 744.321 751.307 743.448 759.377C742.793 765.295 743.666 772.558 745.412 777.131C747.812 783.049 748.03 786.545 746.066 793.27C743.448 802.147 735.374 810.217 735.374 803.761C735.156 801.878 733.847 804.299 732.101 809.141C726.864 823.936 712.244 826.895 702.424 814.79C698.496 809.948 698.06 806.72 698.933 796.498C700.024 784.394 700.024 784.394 696.969 791.656C690.204 806.989 672.093 796.498 672.093 777.131C672.093 765.295 679.73 755.88 689.331 755.88C693.041 755.88 694.132 755.073 692.168 753.728C688.895 751.038 691.95 738.395 696.532 736.243C701.333 733.822 711.153 734.36 712.462 736.781Z" fill="#444444"/>
<path d="M929.363 687.018C912.779 694.819 903.614 702.351 893.577 716.07C883.539 729.789 882.666 730.327 871.319 730.596C854.517 731.403 843.17 735.707 829.204 747.274C799.746 771.752 791.236 815.33 808.693 852.182C815.457 866.439 813.493 871.012 802.801 866.439C788.835 860.521 770.288 865.901 760.686 879.351C756.54 885 756.54 885 760.904 885C763.305 885 767.014 882.579 769.196 879.62C776.616 869.667 797.127 865.901 807.165 872.626C812.184 876.123 813.275 875.585 820.912 868.053C837.715 851.644 866.519 856.486 877.429 877.737C880.92 884.193 881.793 884.731 880.92 880.427C878.957 869.129 898.377 867.784 910.815 878.275C921.071 886.883 925.217 886.883 918.671 878.275C911.688 869.129 900.559 865.094 887.249 867.246C876.556 868.591 875.683 868.322 867.173 858.638C858.445 848.685 858.008 848.685 844.261 850.299C836.624 851.106 828.768 852.72 827.022 853.527C822.44 856.217 812.62 837.119 809.784 820.172C805.638 797.307 811.529 775.518 826.368 758.302C838.369 744.046 851.898 736.514 868.264 734.9C882.23 733.555 882.23 733.555 880.702 740.011C876.774 756.419 875.247 765.834 875.247 773.366C875.465 779.284 876.12 777.401 878.302 766.641C881.793 747.543 883.321 743.508 890.522 730.058C898.377 715.801 916.489 701.006 932.855 695.088C962.531 684.866 998.973 698.047 1015.99 725.485C1021.45 734.093 1021.45 734.9 1017.74 738.128C1015.56 740.28 1010.1 741.356 1005.08 740.818L996.136 739.742L1006.83 744.584C1019.7 750.501 1033.89 764.758 1037.81 775.787C1039.34 780.36 1040.65 782.512 1040.87 780.36C1040.87 771.752 1031.49 753.191 1024.07 747.543C1017.08 742.163 1016.65 741.356 1020.36 738.666C1022.76 737.052 1033.45 735.707 1044.14 735.707C1066.84 735.707 1073.16 738.935 1087.78 757.495C1108.3 783.319 1109.61 825.552 1091.06 853.258C1077.96 872.626 1050.69 882.848 1028.87 876.392C1022.76 874.509 1022.76 874.509 1027.78 877.199C1030.83 878.813 1034.98 881.234 1037.16 882.579C1042.83 886.345 1066.18 882.579 1078.62 876.123C1092.8 868.86 1107.64 848.147 1112.01 829.856C1117.9 803.763 1114.41 779.822 1101.1 757.764C1094.99 747.543 1076.22 732.479 1066.62 730.327C1057.67 728.175 1055.93 723.871 1058.76 710.959C1062.69 692.667 1083.64 684.597 1096.29 696.971C1101.53 702.082 1102.19 702.082 1106.77 698.316C1109.39 695.895 1115.5 694.012 1120.08 694.012C1132.08 694.012 1141.68 706.655 1141.03 721.181C1140.59 728.713 1141.68 733.286 1144.96 737.59C1158.92 755.881 1149.54 782.781 1129.24 782.781C1124.23 782.781 1120.95 781.436 1120.08 778.477C1118.99 774.98 1118.55 774.98 1117.02 777.939C1113.97 783.588 1114.62 784.664 1123.57 787.623C1135.79 791.389 1142.34 788.968 1150.19 777.939C1156.08 769.6 1156.96 766.91 1155.87 756.688C1155.21 749.425 1152.81 742.163 1149.76 738.128C1145.83 733.017 1144.96 728.982 1145.39 719.567C1145.83 708.807 1145.17 706.386 1138.41 698.047C1129.24 686.749 1118.12 685.404 1106.99 694.012C1103.06 696.971 1099.79 698.316 1099.79 697.24C1099.79 692.667 1086.69 685.942 1077.96 685.942C1070.55 685.942 1067.49 687.556 1061.38 695.088C1057.23 700.199 1053.96 706.117 1053.96 708.538C1053.96 710.959 1053.09 712.842 1051.78 712.842C1050.69 712.842 1049.6 711.766 1049.6 710.421C1049.6 709.076 1045.02 705.31 1039.56 702.082C1031.49 696.971 1027.12 696.164 1016.43 697.509C1005.52 698.585 1001.59 697.778 991.117 692.129C976.279 683.521 942.456 680.831 929.363 687.018ZM1038.47 707.193C1045.23 711.497 1053.96 722.795 1053.96 727.099C1053.96 727.637 1049.82 728.175 1044.8 728.444C1039.78 728.713 1034.1 729.52 1032.14 730.327C1030.18 731.134 1024.94 726.023 1018.39 716.877L1007.92 702.082H1019.05C1025.81 702.082 1033.45 704.234 1038.47 707.193Z" fill="#444444"/>
<path d="M36.4401 772.29C25.5296 775.249 14.4008 786.009 10.0366 797.576C8.07271 802.418 4.79955 807.26 2.61744 807.798C0.217125 808.605 0.871757 809.143 4.36313 809.412C8.72735 809.681 10.9095 807.26 14.1826 799.997C25.966 773.097 59.5705 769.331 75.7181 792.734C79.4276 798.383 80.3005 798.921 80.0823 794.886C79.4276 787.892 92.3021 784.126 102.776 787.892C111.068 790.851 124.379 806.722 124.379 813.447C124.379 815.599 126.779 818.02 129.616 818.827C137.472 821.248 148.6 833.622 151.874 843.844C155.365 854.065 155.801 868.322 152.746 878.275C150.783 884.462 151.001 885.269 154.274 884.462C158.856 883.386 161.911 868.322 160.166 855.41C158.42 841.961 149.473 826.897 139.217 820.71C133.762 817.482 128.525 811.295 125.688 805.108C116.742 785.74 97.5391 777.132 81.828 786.009C77.2455 788.699 75.4999 788.161 71.3538 783.588C61.5344 772.559 49.751 768.793 36.4401 772.29Z" fill="#444444"/>
<path d="M120.233 872.089C120.233 874.51 119.361 878.813 118.706 881.503C117.615 885.269 117.833 885.538 119.797 883.386C121.325 881.503 122.197 877.468 121.543 873.972C121.106 870.475 120.452 869.668 120.233 872.089Z" fill="#444444"/>
<path d="M14.4044 876.93C15.9319 884.462 17.023 886.345 18.3322 884.731C18.7687 884.193 17.8958 880.696 16.1501 876.93L12.877 870.205L14.4044 876.93Z" fill="#444444"/>
</g>
<defs>
<clipPath id="clip0">
<rect width="1366" height="885" fill="white"/>
</clipPath>
</defs>
</svg>
