<svg width="364" height="646" viewBox="0 0 364 646" fill="none" xmlns="http://www.w3.org/2000/svg">
<path d="M109.075 505.668C109.197 505.905 109.947 507.389 110.714 508.959C111.865 511.325 112.092 511.905 111.97 512.292C111.534 513.583 110.051 518.959 110.051 519.239C110.051 519.433 110.104 519.519 110.173 519.476C110.261 519.411 111.551 519.024 113.069 518.572C114.587 518.142 115.93 517.755 116.069 517.691C116.191 517.626 117.447 518.637 118.843 519.949C120.238 521.261 121.442 522.336 121.529 522.336C121.616 522.336 121.773 520.852 121.895 519.045C122.226 514.013 121.912 514.701 124.895 512.163C126.308 510.959 127.477 509.905 127.494 509.841C127.494 509.755 126.168 509.002 124.529 508.142L121.581 506.572L120.971 504.184C120.639 502.873 120.238 501.217 120.081 500.507C119.907 499.797 119.732 499.13 119.662 499.044C119.593 498.958 118.598 500.249 117.447 501.905L115.371 504.916L112.092 504.851C109.947 504.83 108.83 504.894 108.83 505.023C108.83 505.152 108.935 505.432 109.075 505.668Z" fill="#444444"/>
<path d="M162.073 85.9223C162.195 86.1589 162.945 87.6428 163.712 89.2128C164.863 91.5785 165.09 92.1592 164.968 92.5463C164.532 93.8367 163.049 99.2133 163.049 99.4929C163.049 99.6865 163.102 99.7725 163.172 99.7295C163.259 99.665 164.55 99.2778 166.067 98.8262C167.585 98.3961 168.928 98.009 169.067 97.9444C169.189 97.8799 170.445 98.8907 171.841 100.203C173.236 101.515 174.44 102.59 174.527 102.59C174.614 102.59 174.771 101.106 174.893 99.2994C175.224 94.2668 174.911 94.955 177.893 92.4173C179.306 91.2129 180.475 90.1591 180.492 90.0946C180.492 90.0086 179.167 89.2558 177.527 88.3956L174.579 86.8256L173.969 84.4384C173.637 83.1265 173.236 81.4705 173.079 80.7608C172.905 80.0511 172.73 79.3844 172.66 79.2983C172.591 79.2123 171.596 80.5027 170.445 82.1587L168.369 85.1696L165.09 85.1051C162.945 85.0836 161.828 85.1481 161.828 85.2771C161.828 85.4062 161.933 85.6858 162.073 85.9223Z" fill="#444444"/>
<path d="M224.422 186.016C224.474 185.866 224.456 185.672 224.404 185.607C224.352 185.521 224.299 185.65 224.317 185.887C224.317 186.124 224.369 186.188 224.422 186.016Z" fill="#444444"/>
<path d="M224.595 185.159C224.63 185.03 224.63 184.772 224.595 184.621C224.543 184.492 224.508 184.6 224.508 184.901C224.508 185.202 224.543 185.31 224.595 185.159Z" fill="#444444"/>
<path d="M224.997 183.068C225.434 181.283 226.951 174.444 228.05 169.304C229.114 164.228 229.166 164.035 233.021 146.399C234.661 138.894 236.702 129.538 237.556 125.646C238.411 121.731 240.748 111 242.772 101.773C244.778 92.5472 247.132 81.7509 248.004 77.7937C249.714 69.9439 252.173 58.6315 253.255 53.7065C256.307 39.7918 257.615 33.727 257.615 33.5764C257.615 33.1463 257.947 33.9205 258.226 34.9959C258.732 37.0175 260.668 41.6844 261.819 43.706C263.197 46.0932 265.796 49.3192 267.662 50.9537C269.564 52.6096 272.477 54.4162 274.797 55.341C276.942 56.2012 280.483 57.126 281.686 57.1475C282.942 57.169 282.942 57.1475 282.646 60.0509C281.809 68.2664 281.442 80.439 281.843 87.5577C283.082 109.903 288.89 127.474 299.304 140.378C304.153 146.399 308.688 150.378 315.229 154.357C321.334 158.099 328.503 161.024 334.747 162.336C335.41 162.465 335.933 162.658 335.933 162.744C335.933 162.852 335.776 163.39 335.567 163.97C334.381 167.411 333.858 173.713 334.433 177.799C335.183 183.025 337.242 187.842 340.015 190.853L340.852 191.778L340.172 192.789C337.817 196.273 335.864 201.069 334.904 205.714C333.997 210.037 333.683 216.769 334.154 221.242C335.201 231.027 338.515 239.91 343.521 246.361C348.998 253.416 354.545 256.62 362.656 257.48L363.842 257.609V255.48V253.351L362.411 253.179C356.376 252.534 351.457 249.846 347.167 244.835C338.654 234.899 335.166 218.08 338.811 204.531C340.224 199.284 342.788 194.746 346.103 191.671L346.765 191.068L345.37 190.165C344.602 189.67 343.538 188.875 343.015 188.359C340.957 186.466 339.195 183.111 338.271 179.412C337.817 177.584 337.782 177.24 337.782 173.498C337.782 170.078 337.835 169.282 338.166 167.841C338.567 166.035 339.841 162.529 340.067 162.551C340.137 162.551 340.556 163.153 340.992 163.884C343.085 167.39 346.591 169.476 350.934 169.777C352.591 169.884 355.626 169.583 356.045 169.261C356.132 169.196 355.626 168.831 354.911 168.444C349.853 165.691 346.382 161.54 344.655 156.206C343.835 153.604 343.538 151.561 343.521 148.292C343.521 146.679 343.556 145.303 343.608 145.26C343.661 145.195 344.358 145.389 345.178 145.668C346.277 146.077 347.079 146.206 348.318 146.206C350.568 146.206 351.58 145.905 353.655 144.657C355.051 143.819 355.748 143.238 356.882 141.905C357.685 140.98 358.295 140.141 358.243 140.076C358.19 140.012 357.283 140.055 356.237 140.184C351.492 140.743 347.271 139.367 344.166 136.27C341.236 133.366 339.213 128.678 338.393 123.043L338.096 120.914L337.538 122.764C336.143 127.581 336.073 132.915 337.399 136.937C337.957 138.636 339.178 140.872 340.259 142.184L341.131 143.216L340.538 144.184C339.753 145.432 338.811 147.905 338.428 149.625C338.027 151.496 338.044 155.26 338.445 157.131C338.602 157.884 338.707 158.529 338.672 158.572C338.585 158.701 334.538 157.862 332.27 157.239C322.729 154.658 313.642 149.475 306.769 142.722C296.722 132.85 290.216 119.731 287.111 103.042C284.774 90.3965 284.477 77.1485 286.169 59.3842L286.274 58.2659L287.425 59.1691C288.925 60.3735 289.867 60.8036 291.367 60.9972C293.46 61.2983 295.763 60.7606 298.065 59.4702C299.059 58.911 301.571 56.9109 301.571 56.6744C301.571 56.5883 301.327 56.5023 301.048 56.5023C299.722 56.5023 296.129 55.3195 294.123 54.2441C291.681 52.9107 288.664 49.7708 287.251 47.147C285.192 43.2973 284.146 38.781 284.128 33.8345L284.111 31.4473L283.483 32.9527C282.088 36.3077 281.32 40.0929 281.303 43.706C281.303 46.9534 281.704 49.2546 282.82 52.5021C282.96 52.8892 282.89 52.9107 281.582 52.7817C276.401 52.2871 271.081 49.3622 267.366 44.9533C263.441 40.3079 261.069 34.1356 259.848 25.4255C259.499 22.9092 259.447 21.9199 259.447 15.5325C259.447 8.82245 259.639 5.31691 260.162 1.70382L260.267 1.01562H257.11C253.987 1.01562 253.952 1.01561 253.865 1.48875C253.778 2.0049 250.638 21.5543 246.452 47.6847C245.109 56.1367 243.225 67.9007 242.266 73.815C240.469 85.0629 238.202 99.1497 236.597 109.193C236.091 112.441 235.149 118.29 234.521 122.205C233.893 126.097 232.132 137.195 230.579 146.83C229.044 156.464 227.422 166.486 227.003 169.089C225.835 176.121 224.649 183.735 224.666 184.057C224.666 184.229 224.823 183.778 224.997 183.068Z" fill="#444444"/>
<path d="M153.388 183.148C152.907 181.362 151.23 174.52 150.016 169.377C148.841 164.298 148.783 164.105 144.524 146.46C142.713 138.95 140.458 129.59 139.514 125.695C138.57 121.779 135.988 111.041 133.752 101.81C131.536 92.5784 128.935 81.7762 127.971 77.8169C126.083 69.9627 123.366 58.6442 122.171 53.7165C118.799 39.7942 117.354 33.7261 117.354 33.5755C117.354 33.1451 116.987 33.9198 116.679 34.9957C116.12 37.0184 113.981 41.6878 112.71 43.7105C111.187 46.0991 108.316 49.3268 106.254 50.9622C104.154 52.6191 100.936 54.4266 98.3728 55.3519C96.0026 56.2126 92.0908 57.1379 90.7612 57.1594C89.3737 57.1809 89.3737 57.1594 89.7013 60.0644C90.6263 68.2843 91.0309 80.4636 90.5877 87.5861C89.2196 109.944 82.8027 127.524 71.2986 140.435C65.9415 146.46 60.9314 150.441 53.7052 154.422C46.9607 158.166 39.0408 161.092 32.1422 162.405C31.4099 162.534 30.8318 162.728 30.8318 162.814C30.8318 162.921 31.0052 163.459 31.2365 164.04C32.5468 167.483 33.1249 173.788 32.489 177.876C31.6604 183.105 29.3866 187.925 26.3227 190.938L25.3977 191.863L26.1492 192.875C28.7507 196.361 30.9089 201.159 31.9687 205.807C32.9708 210.132 33.3176 216.867 32.7973 221.343C31.6412 231.134 27.9799 240.021 22.4494 246.476C16.3987 253.534 10.2708 256.741 1.31035 257.601L0 257.73L0 255.6L0 253.47L1.58013 253.298C8.24751 252.652 13.6816 249.962 18.422 244.949C27.8257 235.007 31.6797 218.18 27.6523 204.624C26.0914 199.373 23.2588 194.833 19.5975 191.756L18.8652 191.153L20.4068 190.249C21.2547 189.755 22.4301 188.958 23.0082 188.442C25.2821 186.548 27.2283 183.191 28.2497 179.49C28.7507 177.661 28.7892 177.317 28.7892 173.573C28.7892 170.151 28.7314 169.355 28.3653 167.914C27.9221 166.106 26.5154 162.599 26.2649 162.62C26.1878 162.62 25.7253 163.223 25.2435 163.954C22.9312 167.462 19.0579 169.549 14.2597 169.85C12.4291 169.958 9.07612 169.657 8.61364 169.334C8.51729 169.269 9.07612 168.903 9.86618 168.516C15.4544 165.762 19.2892 161.609 21.1969 156.272C22.1026 153.668 22.4301 151.624 22.4494 148.354C22.4494 146.74 22.4109 145.362 22.3531 145.319C22.2953 145.255 21.5245 145.449 20.6188 145.728C19.4048 146.137 18.5184 146.266 17.1502 146.266C14.6644 146.266 13.5467 145.965 11.2536 144.717C9.71202 143.878 8.94123 143.297 7.68868 141.963C6.80227 141.037 6.12782 140.198 6.18563 140.134C6.24344 140.069 7.24548 140.112 8.40167 140.241C13.6431 140.801 18.3064 139.423 21.7364 136.325C24.9738 133.42 27.2091 128.729 28.1148 123.091L28.4424 120.961L29.059 122.811C30.6006 127.631 30.6777 132.968 29.2131 136.992C28.5965 138.692 27.2476 140.93 26.0529 142.242L25.0894 143.275L25.7446 144.244C26.6117 145.492 27.6523 147.966 28.0762 149.688C28.5194 151.56 28.5002 155.325 28.057 157.197C27.8835 157.951 27.7679 158.596 27.8064 158.639C27.9028 158.768 32.3734 157.929 34.8785 157.305C45.4191 154.723 55.4587 149.537 63.0511 142.78C74.1505 132.903 81.3382 119.777 84.7682 103.079C87.3504 90.4265 87.678 77.1713 85.8088 59.3973L85.6932 58.2784L84.4214 59.1821C82.7642 60.3871 81.7236 60.8175 80.0664 61.0112C77.754 61.3124 75.2104 60.7745 72.6667 59.4834C71.5684 58.9239 68.7935 56.9227 68.7935 56.686C68.7935 56.5999 69.0633 56.5139 69.3716 56.5139C70.8361 56.5139 74.8057 55.3304 77.0217 54.2545C79.7195 52.9203 83.0532 49.7787 84.6141 47.1534C86.8879 43.3017 88.0441 38.7829 88.0634 33.8337L88.0826 31.4452L88.7764 32.9514C90.318 36.3083 91.1658 40.0955 91.1851 43.7105C91.1851 46.9598 90.7419 49.2622 89.5086 52.5115C89.3545 52.8988 89.4315 52.9203 90.8768 52.7912C96.5999 52.2963 102.477 49.3698 106.582 44.9586C110.917 40.3107 113.538 34.1349 114.887 25.4201C115.272 22.9024 115.33 21.9126 115.33 15.5217C115.33 8.80803 115.118 5.30057 114.54 1.68551L114.425 0.996928H117.912C121.362 0.996928 121.4 0.996928 121.497 1.47033C121.593 1.98676 125.062 21.5468 129.686 47.6914C131.17 56.1481 133.251 67.9185 134.311 73.836C136.296 85.09 138.801 99.1844 140.574 109.233C141.133 112.483 142.173 118.336 142.867 122.252C143.561 126.147 145.507 137.25 147.222 146.89C148.918 156.53 150.71 166.558 151.172 169.162C152.463 176.198 153.774 183.815 153.754 184.138C153.754 184.31 153.581 183.859 153.388 183.148Z" fill="#444444"/>
<path d="M227.282 502.333C228.12 506.892 229.655 515.065 230.666 520.506C231.678 525.947 232.69 531.41 232.934 532.657C233.422 535.238 234.434 540.722 237.888 559.217C240.835 575.089 245.911 602.295 249.347 620.726C250.725 628.167 252.348 636.92 252.958 640.125L254.04 645.996H257.162H260.284L260.162 645.2C259.621 641.2 259.464 638.426 259.464 631.802C259.447 624.597 259.534 623.156 260.267 618.898C261.034 614.382 262.604 609.629 264.418 606.317C265.604 604.166 267.784 601.349 269.529 599.736C272.825 596.725 277.483 594.639 282.087 594.101C282.82 594.015 282.925 594.058 282.837 594.359C282.785 594.553 282.524 595.499 282.227 596.445C281.529 598.832 281.303 600.51 281.303 603.306C281.32 606.919 282.087 610.725 283.448 613.951L284.041 615.349L284.163 612.231C284.512 602.897 288.088 596.08 294.419 592.617C296.111 591.714 298.798 590.789 300.402 590.574C300.96 590.509 301.449 590.38 301.484 590.294C301.536 590.208 301.083 589.735 300.472 589.241C295.797 585.348 290.774 584.81 287.338 587.821C286.867 588.23 286.431 588.574 286.378 588.574C286.326 588.574 286.134 587.197 285.977 585.498C284.931 574.337 284.809 564.121 285.628 554.981C288.018 528.098 298.239 508.441 315.7 497.128C321.996 493.064 329.567 490.031 336.893 488.698C337.834 488.526 338.654 488.397 338.672 488.44C338.707 488.483 338.602 489.128 338.428 489.881C338.026 491.752 338.026 495.537 338.428 497.386C338.811 499.171 339.718 501.516 340.521 502.784L341.131 503.795L340.259 504.828C338.462 507 337.067 510.312 336.631 513.43C336.352 515.344 336.491 519.775 336.893 521.581C337.032 522.291 337.381 523.603 337.625 524.485L338.096 526.097L338.41 523.904C339.718 514.764 344.009 508.785 350.411 507.15C352.033 506.742 355.277 506.634 357.301 506.914L358.522 507.086L357.388 505.666C356.167 504.118 354.492 502.655 353.132 501.924C350.323 500.419 346.765 500.354 343.922 501.795C343.521 501.989 343.364 500.505 343.486 497.623C343.87 489.407 347.376 483.192 353.882 479.149C354.876 478.547 355.801 478.031 355.94 478.031C356.062 478.031 356.167 477.944 356.167 477.837C356.167 477.192 350.027 477.063 347.951 477.665C345.195 478.461 342.265 480.805 340.817 483.386C340.486 483.966 340.154 484.461 340.085 484.482C339.84 484.482 338.55 480.912 338.183 479.192C337.712 477.02 337.538 472.267 337.852 469.901C338.305 466.417 339.718 462.718 341.55 460.266C342.561 458.911 343.957 457.664 345.509 456.739L346.783 455.943L345.649 454.847C342.666 451.922 340.294 447.706 338.933 442.953C335.759 431.835 337.521 417.855 343.434 407.446C345.003 404.65 348.335 400.564 350.411 398.887C354.091 395.897 357.929 394.263 362.324 393.811L363.842 393.661V391.553C363.842 389.101 364.121 389.316 361.382 389.66C352.015 390.822 344.341 397.08 339.125 407.812C335.375 415.511 333.456 425.404 334.015 434.243C334.485 441.964 336.456 448.524 339.875 453.771L340.817 455.212L339.753 456.46C336.143 460.696 334.189 466.654 334.189 473.45C334.189 477.02 334.712 480.504 335.654 483.278C335.811 483.73 335.933 484.181 335.933 484.267C335.933 484.353 335.358 484.525 334.677 484.676C332.846 485.042 327.404 486.719 325.276 487.579C321.613 489.042 318.333 490.698 315.141 492.676L313.101 493.924L310.711 490.762C309.385 489.02 307.153 486.095 305.757 484.267C304.362 482.439 302.6 480.117 301.833 479.106C299.443 475.944 298.222 474.331 296.67 472.331C293.722 468.503 289.78 463.277 289.047 462.223C288.628 461.621 287.407 460.03 286.326 458.675C285.245 457.32 282.855 454.201 281.006 451.728C279.157 449.276 277.605 447.276 277.57 447.276C277.517 447.276 278.267 448.524 279.192 450.029C280.134 451.535 282.628 455.556 284.739 458.976C286.849 462.374 289.553 466.74 290.756 468.675C291.96 470.611 294.507 474.719 296.425 477.815C298.344 480.912 301.274 485.644 302.949 488.311C304.606 490.999 306.525 494.096 307.205 495.214C308.618 497.515 308.688 497.064 306.629 498.892C299.077 505.559 293.007 514.355 288.942 524.592C284.861 534.829 282.803 544.765 281.843 558.787C281.355 566.25 281.826 580.917 282.837 588.81L282.925 589.606L282 589.735C276.192 590.617 271.971 592.423 267.994 595.757C265.97 597.434 263.057 601.048 261.662 603.585C259.743 607.069 258.016 611.973 257.179 616.382C257.005 617.285 256.795 617.973 256.726 617.887C256.656 617.78 255.644 613.844 254.476 609.112C253.324 604.381 252.051 599.306 251.685 597.822C251.318 596.338 249.853 590.488 248.44 584.81C247.045 579.132 245.283 572.014 244.533 569.003C243.783 565.992 242.562 561.089 241.83 558.142C237.486 540.679 236.3 535.883 234.591 529.001C233.544 524.807 231.346 515.946 229.707 509.322C226.079 494.698 225.712 493.322 225.712 493.73C225.712 493.902 226.428 497.773 227.282 502.333Z" fill="#444444"/>
<path d="M150.73 502.274C149.806 506.831 148.112 514.998 146.995 520.436C145.879 525.875 144.762 531.334 144.492 532.581C143.953 535.16 142.837 540.641 139.025 559.126C135.771 574.989 130.169 602.179 126.377 620.6C124.856 628.037 123.065 636.785 122.392 639.988L121.198 645.855H117.752H114.306L114.441 645.06C115.037 641.062 115.211 638.289 115.211 631.669C115.23 624.469 115.134 623.029 114.325 618.773C113.478 614.259 111.745 609.509 109.743 606.199C108.434 604.049 106.028 601.233 104.102 599.621C100.464 596.612 95.3237 594.527 90.2413 593.99C89.4327 593.904 89.3172 593.947 89.4134 594.248C89.4712 594.441 89.76 595.387 90.0873 596.333C90.8573 598.719 91.1076 600.395 91.1076 603.189C91.0883 606.8 90.2413 610.605 88.7396 613.829L88.0851 615.226L87.9503 612.109C87.5653 602.781 83.6187 595.967 76.6304 592.507C74.763 591.604 71.7982 590.68 70.027 590.465C69.411 590.4 68.8719 590.271 68.8334 590.185C68.7757 590.099 69.2762 589.626 69.95 589.132C75.1095 585.242 80.6539 584.704 84.4465 587.713C84.9663 588.122 85.4476 588.466 85.5054 588.466C85.5631 588.466 85.7749 587.09 85.9482 585.392C87.1032 574.237 87.238 564.027 86.3332 554.892C83.6957 528.024 72.4142 508.378 53.1434 497.072C46.1935 493.01 37.8383 489.979 29.7526 488.646C28.713 488.474 27.8082 488.346 27.7889 488.389C27.7504 488.432 27.866 489.076 28.0585 489.829C28.5013 491.699 28.5013 495.482 28.0585 497.33C27.6349 499.114 26.6338 501.457 25.7483 502.725L25.0745 503.735L26.037 504.767C28.02 506.938 29.5601 510.248 30.0414 513.365C30.3494 515.278 30.1954 519.706 29.7526 521.511C29.5986 522.22 29.2136 523.532 28.944 524.413L28.4243 526.025L28.0777 523.833C26.6338 514.697 21.8979 508.722 14.8326 507.089C13.0422 506.68 9.46139 506.573 7.2282 506.852L5.88058 507.024L7.13194 505.605C8.47955 504.058 10.3277 502.596 11.8293 501.865C14.9289 500.361 18.8562 500.296 21.9942 501.736C22.437 501.93 22.6103 500.447 22.4755 497.567C22.052 489.356 18.1824 483.144 11.0015 479.103C9.90417 478.501 8.88384 477.985 8.72982 477.985C8.59506 477.985 8.47955 477.899 8.47955 477.792C8.47955 477.147 15.2561 477.018 17.5471 477.62C20.5888 478.415 23.8231 480.758 25.421 483.337C25.7868 483.918 26.1526 484.412 26.2296 484.434C26.4991 484.434 27.9237 480.866 28.328 479.146C28.8478 476.975 29.0403 472.225 28.6938 469.86C28.1932 466.378 26.6338 462.681 24.6124 460.231C23.4958 458.877 21.9557 457.63 20.2423 456.706L18.8369 455.911L20.0883 454.814C23.3803 451.891 25.9985 447.678 27.5002 442.928C31.004 431.816 29.0596 417.844 22.5332 407.441C20.8006 404.647 17.1235 400.563 14.8326 398.886C10.7705 395.899 6.53514 394.265 1.68372 393.814L0.00883007 393.663L0.00883007 391.557C0.00883007 389.107 -0.299196 389.321 2.72331 389.665C13.0614 390.826 21.5322 397.081 27.2884 407.807C31.4275 415.502 33.5452 425.389 32.9291 434.223C32.4093 441.939 30.2339 448.495 26.4606 453.74L25.421 455.18L26.5953 456.427C30.5804 460.661 32.7366 466.615 32.7366 473.407C32.7366 476.975 32.1591 480.457 31.1195 483.23C30.9462 483.681 30.8115 484.133 30.8115 484.219C30.8115 484.305 31.4468 484.477 32.1976 484.627C34.219 484.992 40.2255 486.669 42.5742 487.529C46.6171 488.99 50.2364 490.645 53.7594 492.623L56.0119 493.87L58.6493 490.71C60.1125 488.969 62.5767 486.046 64.1168 484.219C65.6569 482.392 67.6013 480.07 68.4484 479.06C71.0859 475.9 72.4335 474.288 74.1469 472.289C77.4004 468.463 81.7513 463.24 82.5599 462.187C83.0219 461.585 84.3695 459.995 85.5631 458.64C86.7567 457.286 89.3942 454.17 91.4349 451.698C93.4755 449.247 95.1889 447.249 95.2274 447.249C95.2852 447.249 94.4574 448.495 93.437 450C92.3974 451.504 89.6445 455.524 87.315 458.941C84.9856 462.337 82.0016 466.701 80.6732 468.635C79.3448 470.57 76.5341 474.675 74.4164 477.77C72.2987 480.866 69.0645 485.594 67.2163 488.26C65.3874 490.946 63.2697 494.042 62.5189 495.159C60.9595 497.459 60.8825 497.008 63.1542 498.835C71.4902 505.498 78.1897 514.289 82.6754 524.52C87.1803 534.752 89.4519 544.682 90.5108 558.696C91.0498 566.155 90.53 580.814 89.4134 588.702L89.3172 589.498L90.3375 589.626C96.7483 590.508 101.407 592.313 105.797 595.645C108.03 597.321 111.245 600.932 112.785 603.469C114.903 606.951 116.809 611.852 117.733 616.258C117.925 617.161 118.156 617.848 118.233 617.762C118.31 617.655 119.427 613.722 120.717 608.993C121.987 604.264 123.393 599.191 123.797 597.708C124.201 596.225 125.818 590.379 127.378 584.704C128.918 579.03 130.862 571.915 131.69 568.906C132.518 565.897 133.865 560.996 134.674 558.051C139.468 540.598 140.777 535.805 142.663 528.927C143.819 524.735 146.244 515.88 148.054 509.259C152.058 494.643 152.463 493.268 152.463 493.676C152.463 493.848 151.673 497.717 150.73 502.274Z" fill="#444444"/>
<path d="M268.708 472.545C269.423 473.965 269.964 475.277 269.929 475.449C269.894 475.621 269.51 476.997 269.074 478.503C268.656 480.008 268.324 481.277 268.359 481.32C268.394 481.363 269.563 481.062 270.958 480.675L273.487 479.944L275.528 481.879C276.662 482.955 277.604 483.772 277.639 483.729C277.674 483.707 277.813 482.223 277.953 480.481C278.11 478.417 278.267 477.234 278.406 477.148C279.401 476.46 282.383 473.642 282.279 473.513C282.191 473.406 281.11 472.804 279.871 472.18L277.621 471.019L276.906 468.051C276.505 466.416 276.121 465.083 276.034 465.061C275.947 465.04 275.144 466.029 274.272 467.276L272.668 469.535L270.034 469.599C268.569 469.621 267.382 469.728 267.382 469.814C267.4 469.9 267.993 471.126 268.708 472.545Z" fill="#444444"/>
<path d="M323.37 354.94C324.085 356.359 324.626 357.671 324.591 357.843C324.556 358.015 324.173 359.392 323.737 360.897C323.318 362.403 322.986 363.672 323.021 363.715C323.056 363.758 324.225 363.457 325.62 363.069L328.15 362.338L330.19 364.274C331.324 365.349 332.266 366.166 332.301 366.123C332.336 366.102 332.475 364.618 332.615 362.876C332.772 360.811 332.929 359.628 333.068 359.542C334.063 358.854 337.045 356.037 336.941 355.908C336.853 355.8 335.772 355.198 334.534 354.574L332.283 353.413L331.568 350.445C331.167 348.811 330.783 347.477 330.696 347.456C330.609 347.434 329.807 348.424 328.934 349.671L327.33 351.929L324.696 351.994C323.231 352.015 322.045 352.123 322.045 352.209C322.062 352.295 322.655 353.521 323.37 354.94Z" fill="#444444"/>
<path d="M199.978 30.6588C200.693 32.0782 201.234 33.3901 201.199 33.5621C201.164 33.7342 200.78 35.1106 200.344 36.616C199.925 38.1215 199.594 39.3904 199.629 39.4334C199.664 39.4764 200.832 39.1753 202.228 38.7882L204.757 38.057L206.798 39.9926C207.932 41.0679 208.873 41.8851 208.908 41.8421C208.943 41.8206 209.083 40.3367 209.222 38.5946C209.379 36.53 209.536 35.3472 209.676 35.2611C210.67 34.5729 213.653 31.7556 213.548 31.6265C213.461 31.519 212.379 30.9168 211.141 30.2931L208.891 29.1318L208.176 26.1639C207.775 24.5294 207.391 23.196 207.304 23.1745C207.216 23.153 206.414 24.1423 205.542 25.3897L203.937 27.6478L201.303 27.7124C199.838 27.7339 198.652 27.8414 198.652 27.9274C198.669 28.0135 199.262 29.2393 199.978 30.6588Z" fill="#444444"/>
<path d="M105.129 472.474C104.338 473.879 103.74 475.178 103.779 475.348C103.818 475.519 104.242 476.881 104.724 478.372C105.187 479.862 105.553 481.118 105.515 481.161C105.476 481.203 104.184 480.905 102.641 480.522L99.8445 479.798L97.588 481.714C96.3343 482.779 95.2929 483.588 95.2543 483.545C95.2157 483.524 95.0614 482.055 94.9071 480.33C94.7336 478.287 94.56 477.116 94.4057 477.03C93.3063 476.349 90.0083 473.56 90.1241 473.432C90.2205 473.326 91.4163 472.73 92.7856 472.112L95.2736 470.963L96.0643 468.024C96.5079 466.406 96.9322 465.086 97.0287 465.065C97.1251 465.044 98.0123 466.023 98.9766 467.258L100.751 469.494L103.663 469.557C105.283 469.579 106.595 469.685 106.595 469.77C106.576 469.855 105.92 471.069 105.129 472.474Z" fill="#444444"/>
<path d="M296.548 324.11C297.437 324.304 299.966 324.841 302.182 325.314C304.379 325.787 307.798 326.519 309.769 326.949C311.74 327.379 314.636 328.003 316.223 328.347C317.81 328.691 320.688 329.315 322.625 329.723C329.445 331.207 333.247 332.046 336.195 332.67C337.817 333.014 340.259 333.551 341.602 333.852C345.335 334.648 348.37 335.315 354.946 336.734C358.26 337.444 361.313 338.111 361.749 338.24C362.185 338.347 362.83 338.498 363.196 338.562L363.842 338.691V332.368V326.067L356.394 325.787C352.277 325.658 346.608 325.443 343.783 325.336C340.957 325.228 337.102 325.078 335.236 325.013C333.369 324.949 329.637 324.798 326.95 324.691C324.264 324.583 320.566 324.433 318.752 324.368C316.921 324.304 314.409 324.218 313.171 324.153C304.257 323.744 295.292 323.486 295.1 323.637C294.995 323.701 295.658 323.916 296.548 324.11Z" fill="#444444"/>
<path d="M74.2978 324.11C73.3157 324.304 70.5232 324.843 68.0775 325.317C65.6509 325.791 61.8763 326.523 59.7002 326.954C57.524 327.385 54.3272 328.009 52.5747 328.354C50.8222 328.699 47.6446 329.323 45.5069 329.732C37.977 331.219 33.7787 332.059 30.5241 332.684C28.7331 333.028 26.037 333.567 24.5541 333.868C20.4329 334.665 17.082 335.333 9.82164 336.755C6.1626 337.465 2.79243 338.133 2.31097 338.262C1.82952 338.37 1.11697 338.521 0.712551 338.586L0 338.715L0 332.382L0 326.071L8.22322 325.791C12.7681 325.661 19.027 325.446 22.1468 325.338C25.2667 325.231 29.5227 325.08 31.5833 325.015C33.6439 324.951 37.7652 324.8 40.7309 324.692C43.6967 324.584 47.7794 324.434 49.7822 324.369C51.8044 324.304 54.5775 324.218 55.9448 324.154C65.7857 323.744 75.6844 323.486 75.8963 323.637C76.0118 323.701 75.28 323.917 74.2978 324.11Z" fill="#444444"/>
<path d="M308.497 190.553L311.078 190.424L312.805 192.876C313.747 194.231 314.567 195.306 314.637 195.285C314.689 195.263 315.055 193.93 315.457 192.317C315.858 190.704 316.241 189.306 316.329 189.199C316.416 189.112 317.48 188.51 318.701 187.908C319.939 187.284 320.934 186.704 320.934 186.618C320.934 186.532 319.992 185.65 318.858 184.682C316.486 182.661 316.678 183.134 316.468 178.811C316.398 177.542 316.276 176.51 316.189 176.51C316.119 176.51 315.177 177.327 314.113 178.338C313.049 179.349 312.055 180.166 311.916 180.166C311.759 180.166 310.625 179.865 309.387 179.499C308.131 179.155 307.067 178.897 307.014 178.961C306.945 179.047 307.782 182.359 308.497 184.79C308.532 184.919 307.991 186.188 307.311 187.586C306.631 189.005 306.02 190.274 305.985 190.424C305.933 190.618 306.543 190.639 308.497 190.553Z" fill="#444444"/>
<path d="M61.1853 190.484L58.3409 190.355L56.4383 192.812C55.4005 194.17 54.4972 195.248 54.4203 195.226C54.3627 195.205 53.9591 193.868 53.5171 192.252C53.075 190.635 52.6522 189.234 52.5561 189.126C52.46 189.04 51.2877 188.436 49.9424 187.833C48.5779 187.208 47.4824 186.626 47.4824 186.539C47.4824 186.453 48.5202 185.569 49.7694 184.599C52.3832 182.573 52.1718 183.047 52.4024 178.715C52.4793 177.443 52.6138 176.408 52.7099 176.408C52.7868 176.408 53.8246 177.227 54.9969 178.241C56.1692 179.254 57.2647 180.073 57.4184 180.073C57.5914 180.073 58.8406 179.771 60.2051 179.405C61.5889 179.06 62.7612 178.801 62.8189 178.866C62.8957 178.952 61.9732 182.271 61.1853 184.707C61.1468 184.837 61.7426 186.108 62.4922 187.509C63.2417 188.932 63.9143 190.204 63.9528 190.355C64.0104 190.549 63.3378 190.57 61.1853 190.484Z" fill="#444444"/>
<path d="M159.06 624.988L156.216 624.859L154.313 627.316C153.275 628.674 152.372 629.752 152.295 629.73C152.238 629.709 151.834 628.372 151.392 626.756C150.95 625.139 150.527 623.738 150.431 623.63C150.335 623.544 149.163 622.94 147.817 622.337C146.453 621.712 145.357 621.13 145.357 621.043C145.357 620.957 146.395 620.073 147.644 619.103C150.258 617.077 150.047 617.551 150.277 613.219C150.354 611.947 150.489 610.912 150.585 610.912C150.662 610.912 151.7 611.731 152.872 612.745C154.044 613.758 155.14 614.577 155.293 614.577C155.466 614.577 156.716 614.275 158.08 613.908C159.464 613.564 160.636 613.305 160.694 613.37C160.771 613.456 159.848 616.775 159.06 619.211C159.022 619.34 159.618 620.612 160.367 622.013C161.117 623.436 161.789 624.708 161.828 624.859C161.885 625.053 161.213 625.074 159.06 624.988Z" fill="#444444"/>
<path d="M194.267 564.496L191.423 564.366L189.52 566.824C188.483 568.182 187.579 569.26 187.502 569.238C187.445 569.216 187.041 567.88 186.599 566.263C186.157 564.647 185.734 563.246 185.638 563.138C185.542 563.052 184.37 562.448 183.024 561.844C181.66 561.219 180.564 560.637 180.564 560.551C180.564 560.465 181.602 559.581 182.851 558.611C185.465 556.585 185.254 557.059 185.484 552.727C185.561 551.455 185.696 550.42 185.792 550.42C185.869 550.42 186.907 551.239 188.079 552.252C189.251 553.265 190.347 554.085 190.5 554.085C190.673 554.085 191.923 553.783 193.287 553.416C194.671 553.071 195.843 552.813 195.901 552.877C195.978 552.964 195.055 556.283 194.267 558.719C194.229 558.848 194.825 560.12 195.574 561.521C196.324 562.944 196.996 564.216 197.035 564.366C197.092 564.56 196.42 564.582 194.267 564.496Z" fill="#444444"/>
</svg>
