<svg width="1920" height="1080" viewBox="0 0 1920 1080" fill="none" xmlns="http://www.w3.org/2000/svg">
<path d="M354.624 6.31809C361.984 12.7441 368.128 18.0901 394.24 41.0401C403.904 49.5181 415.104 59.3461 419.2 62.9101C423.296 66.4741 430.528 72.7921 435.264 76.9501C455.232 94.4461 462.272 100.656 471.68 108.864C484.928 120.366 493.952 128.304 512.32 144.45C532.992 162.648 555.648 182.466 566.976 192.24L572.224 196.83L566.016 189.54C557.376 179.442 525.056 141.912 519.04 135C513.344 128.412 500.608 113.724 486.4 97.2001C480.896 90.8281 464.32 71.6041 449.6 54.5401C421.312 21.8161 415.488 15.0121 407.808 6.04809L403.072 0.540087H375.488H347.904L354.624 6.31809Z" fill="#444444"/>
<path d="M889.602 0.916721C889.602 1.13272 894.21 27.1607 899.778 58.8047C905.41 90.5027 910.274 117.935 910.594 119.879C910.914 121.823 912.386 130.085 913.858 138.239C915.33 146.393 916.93 155.627 917.442 158.759C918.018 161.837 918.53 164.483 918.658 164.591C919.042 164.861 919.682 160.055 920.002 153.899C920.194 150.767 921.666 133.541 923.202 115.559C924.738 97.5767 927.49 65.9867 929.282 45.3587C931.01 24.7307 932.674 6.20872 932.866 4.15672L933.25 0.538721H911.426C899.394 0.538721 889.602 0.700721 889.602 0.916721Z" fill="#444444"/>
<path d="M1299.65 2.2662C1299.14 3.2382 1292.54 15.8202 1284.99 30.2382C1277.38 44.6562 1268.54 61.5042 1265.28 67.7682C1259.58 78.7302 1257.02 83.6442 1251.84 93.4182C1250.5 95.9562 1244.86 106.648 1239.36 117.178C1233.79 127.708 1224.26 145.96 1218.11 157.678C1206.14 180.466 1205.38 182.032 1206.27 181.168C1206.59 180.844 1209.6 176.632 1212.93 171.718C1223.49 156.328 1230.02 146.932 1236.67 137.428C1243.71 127.33 1245.25 125.116 1259.71 104.218C1265.15 96.3342 1270.27 88.9362 1271.04 87.7482C1271.87 86.5602 1273.15 84.7242 1273.92 83.6982C1274.69 82.6722 1276.74 79.7562 1278.4 77.2182C1280.13 74.6802 1282.94 70.5762 1284.67 68.0382C1286.46 65.5002 1289.79 60.6402 1292.16 57.2382C1294.53 53.8362 1297.92 48.9762 1299.65 46.4382C1311.74 29.1042 1331.2 0.916203 1331.2 0.754203C1331.2 0.646203 1324.29 0.538203 1315.84 0.538203H1300.48L1299.65 2.2662Z" fill="#444444"/>
<path d="M1581.76 5.50632C1575.04 11.5003 1527.23 53.2423 1514.88 63.9883C1510.08 68.1463 1501.63 75.5443 1496 80.4583C1490.37 85.3723 1481.47 93.1483 1476.16 97.7383C1467.39 105.406 1445.57 124.468 1422.08 144.988C1416.96 149.416 1408.19 157.084 1402.56 161.998C1392.7 170.584 1387.58 175.066 1366.72 193.318C1349.31 208.492 1338.05 218.32 1327.04 227.878C1321.02 233.062 1311.68 241.216 1306.3 245.968C1300.86 250.72 1290.94 259.36 1284.22 265.138C1277.5 270.916 1266.82 280.258 1260.48 285.874C1246.98 297.808 1240.51 303.424 1231.36 311.362C1227.65 314.548 1224.96 317.032 1225.41 316.924C1226.11 316.708 1233.22 311.416 1241.6 304.774C1247.81 299.914 1270.14 283.066 1274.88 279.718C1277.18 278.098 1281.09 275.128 1283.52 273.184C1291.33 267.028 1296.06 263.356 1304.64 256.984C1309.25 253.528 1322.05 243.862 1333.12 235.438C1353.66 219.94 1358.34 216.376 1382.08 198.448C1389.5 192.886 1396.8 187.324 1398.4 186.082C1400 184.84 1406.78 179.71 1413.44 174.688C1420.16 169.666 1431.1 161.404 1437.76 156.328C1444.48 151.252 1460.03 139.48 1472.32 130.192C1484.67 120.85 1496.19 112.102 1497.98 110.752C1501.18 108.322 1503.74 106.324 1530.56 86.1283C1537.98 80.5663 1545.28 75.0043 1546.88 73.7623C1548.48 72.5203 1555.26 67.3903 1561.92 62.3683C1568.64 57.3463 1579.58 49.0843 1586.24 44.0083C1596.93 35.9083 1641.54 2.21232 1643.2 0.970325C1643.52 0.754325 1631.1 0.538325 1615.55 0.538325H1587.39L1581.76 5.50632Z" fill="#444444"/>
<path d="M0.769213 72.0877L0.961213 91.3657L142.721 151.306C220.673 184.3 284.225 211.03 283.841 210.76C283.521 210.436 277.761 207.196 271.041 203.47C257.153 195.748 230.977 181.222 203.521 165.886C193.153 160.054 180.161 152.872 174.721 149.848C169.281 146.824 153.601 138.076 139.841 130.408C126.145 122.74 109.121 113.236 102.081 109.348C87.3612 101.194 68.9292 90.9337 42.8812 76.4077C32.8332 70.8457 19.5852 63.4477 13.4412 60.0457C7.29721 56.6437 1.85721 53.6197 1.40921 53.2957C0.769213 52.8637 0.641213 56.5897 0.769213 72.0877Z" fill="#444444"/>
<path d="M1694.91 112.643C1695.1 118.313 1695.04 123.173 1694.85 123.497C1694.59 123.821 1690.5 126.899 1685.76 130.355C1681.02 133.865 1677.06 136.889 1676.93 137.159C1676.8 137.375 1678.85 138.131 1681.41 138.779C1683.97 139.373 1689.28 140.777 1693.12 141.749L1700.22 143.585L1704.9 153.089C1707.52 158.273 1709.82 162.539 1710.02 162.539C1710.21 162.485 1713.41 158.759 1717.12 154.169C1721.15 149.201 1724.35 145.745 1725.12 145.637C1725.82 145.475 1731.39 145.043 1737.47 144.665C1743.49 144.287 1748.48 143.747 1748.48 143.477C1748.48 143.207 1745.34 139.481 1741.44 135.215C1737.6 130.949 1734.4 127.007 1734.4 126.467C1734.4 125.927 1735.55 121.337 1736.96 116.315C1738.37 111.293 1739.52 107.027 1739.52 106.811C1739.52 106.595 1734.27 107.999 1727.81 109.889L1716.1 113.291L1707.46 108.971C1702.72 106.595 1697.92 104.165 1696.7 103.517L1694.53 102.383L1694.91 112.643Z" fill="#444444"/>
<path d="M1908.48 217.674C1902.66 219.78 1894.91 222.534 1891.2 223.83C1881.22 227.34 1873.28 230.148 1864 233.442C1856.19 236.196 1845.31 240.084 1796.16 257.472C1785.28 261.306 1768 267.462 1757.76 271.026C1747.58 274.644 1736.32 278.64 1732.8 279.828C1726.59 281.988 1723.14 283.554 1727.04 282.474C1728.13 282.15 1740.93 278.964 1755.52 275.4C1770.11 271.836 1786.43 267.84 1791.68 266.49C1796.99 265.194 1806.91 262.764 1813.76 261.09C1820.61 259.362 1831.17 256.824 1837.12 255.312C1843.14 253.854 1852.93 251.478 1858.88 249.966C1864.9 248.508 1881.02 244.566 1894.72 241.164L1919.68 235.062L1919.87 224.478C1919.94 218.592 1919.81 213.84 1919.55 213.894C1919.23 213.894 1914.3 215.622 1908.48 217.674Z" fill="#444444"/>
<path d="M418.241 291.275C417.537 291.653 413.121 293.975 408.449 296.351C401.409 299.915 399.681 300.617 398.529 300.239C394.689 298.889 378.689 294.299 377.857 294.299C377.281 294.299 377.025 294.461 377.153 294.677C377.345 294.947 378.497 298.943 379.841 303.641C381.121 308.339 382.273 312.497 382.465 312.929C382.657 313.307 379.649 317.195 375.745 321.515C371.841 325.835 368.641 329.561 368.641 329.831C368.641 330.101 373.057 330.587 378.433 330.965C393.409 331.991 391.361 331.019 398.913 340.253C402.497 344.627 405.633 348.245 405.825 348.299C406.081 348.299 408.321 344.195 410.881 339.119L415.553 329.993L422.657 328.103C426.561 327.077 431.489 325.835 433.601 325.349C435.713 324.809 437.697 324.269 437.953 324.053C438.209 323.837 434.369 320.759 429.441 317.195L420.481 310.769L420.673 300.617C420.737 293.975 420.545 290.519 420.161 290.519C419.777 290.519 418.945 290.843 418.241 291.275Z" fill="#444444"/>
<path d="M1369.47 648.377C1369.92 648.539 1370.5 648.485 1370.69 648.323C1370.94 648.161 1370.56 647.999 1369.86 648.053C1369.15 648.053 1368.96 648.215 1369.47 648.377Z" fill="#444444"/>
<path d="M1372.03 648.917C1372.42 649.025 1373.19 649.025 1373.63 648.917C1374.02 648.755 1373.7 648.647 1372.8 648.647C1371.91 648.647 1371.59 648.755 1372.03 648.917Z" fill="#444444"/>
<path d="M1378.24 650.16C1383.55 651.51 1403.9 656.208 1419.2 659.61C1434.3 662.904 1434.88 663.066 1487.36 675C1509.7 680.076 1537.54 686.394 1549.12 689.04C1560.77 691.686 1592.7 698.922 1620.16 705.186C1647.62 711.396 1679.74 718.686 1691.52 721.386C1714.88 726.678 1748.54 734.292 1763.2 737.64C1804.61 747.09 1822.66 751.14 1823.1 751.14C1824.38 751.14 1822.08 752.166 1818.88 753.03C1812.86 754.596 1798.98 760.59 1792.96 764.154C1785.86 768.42 1776.26 776.466 1771.39 782.244C1766.46 788.13 1761.09 797.148 1758.34 804.33C1755.78 810.972 1753.02 821.934 1752.96 825.66C1752.9 829.548 1752.96 829.548 1744.32 828.63C1719.87 826.038 1683.65 824.904 1662.46 826.146C1595.97 829.98 1543.68 847.962 1505.28 880.2C1487.36 895.212 1475.52 909.252 1463.68 929.502C1452.54 948.402 1443.84 970.596 1439.94 989.928C1439.55 991.98 1438.98 993.6 1438.72 993.6C1438.4 993.6 1436.8 993.114 1435.07 992.466C1424.83 988.794 1406.08 987.174 1393.92 988.956C1378.37 991.278 1364.03 997.65 1355.07 1006.24L1352.32 1008.83L1349.31 1006.72C1338.94 999.432 1324.67 993.384 1310.85 990.414C1297.98 987.606 1277.95 986.634 1264.64 988.092C1235.52 991.332 1209.09 1001.59 1189.89 1017.09C1168.9 1034.05 1159.36 1051.22 1156.8 1076.33L1156.42 1080H1162.75H1169.09L1169.6 1075.57C1171.52 1056.89 1179.52 1041.66 1194.43 1028.38C1224 1002.02 1274.05 991.224 1314.37 1002.51C1329.98 1006.88 1343.49 1014.82 1352.64 1025.08L1354.43 1027.13L1357.12 1022.81C1358.59 1020.44 1360.96 1017.14 1362.5 1015.52C1368.13 1009.15 1378.11 1003.7 1389.12 1000.84C1394.56 999.432 1395.58 999.324 1406.72 999.324C1416.9 999.324 1419.26 999.486 1423.55 1000.51C1428.93 1001.75 1439.36 1005.7 1439.3 1006.4C1439.3 1006.61 1437.5 1007.91 1435.33 1009.26C1424.9 1015.74 1418.69 1026.59 1417.79 1040.04C1417.47 1045.17 1418.37 1054.57 1419.33 1055.86C1419.52 1056.13 1420.61 1054.57 1421.76 1052.35C1429.95 1036.69 1442.3 1025.95 1458.18 1020.6C1465.92 1018.06 1472 1017.14 1481.73 1017.09C1486.53 1017.09 1490.62 1017.2 1490.75 1017.36C1490.94 1017.52 1490.37 1019.68 1489.54 1022.22C1488.32 1025.62 1487.94 1028.11 1487.94 1031.94C1487.94 1038.91 1488.83 1042.04 1492.54 1048.46C1495.04 1052.78 1496.77 1054.94 1500.74 1058.45C1503.49 1060.94 1505.98 1062.83 1506.18 1062.67C1506.37 1062.5 1506.24 1059.7 1505.86 1056.46C1504.19 1041.77 1508.29 1028.7 1517.5 1019.09C1526.14 1010.02 1540.1 1003.75 1556.86 1001.21L1563.2 1000.3L1557.7 998.568C1543.36 994.248 1527.49 994.032 1515.52 998.136C1510.46 999.864 1503.81 1003.64 1499.9 1006.99L1496.83 1009.69L1493.95 1007.86C1490.24 1005.43 1482.88 1002.51 1477.76 1001.32C1472.19 1000.08 1460.99 1000.13 1455.42 1001.38C1453.18 1001.86 1451.26 1002.19 1451.14 1002.08C1450.75 1001.81 1453.25 989.28 1455.1 982.26C1462.78 952.722 1478.21 924.588 1498.3 903.312C1527.68 872.208 1566.72 852.066 1616.38 842.454C1654.02 835.218 1693.44 834.3 1746.3 839.538L1749.63 839.862L1746.94 843.426C1743.36 848.07 1742.08 850.986 1741.5 855.63C1740.61 862.11 1742.21 869.238 1746.05 876.366C1747.71 879.444 1753.66 887.22 1754.37 887.22C1754.62 887.22 1754.88 886.464 1754.88 885.6C1754.88 881.496 1758.4 870.372 1761.6 864.162C1765.57 856.602 1774.91 847.26 1782.72 842.886C1794.18 836.514 1807.62 833.274 1822.34 833.22L1829.44 833.166L1824.96 831.222C1814.98 826.902 1803.71 824.526 1792.96 824.472C1783.3 824.472 1776.45 825.714 1766.78 829.17C1765.63 829.602 1765.57 829.386 1765.95 825.336C1767.42 809.298 1776.13 792.828 1789.25 781.326C1803.07 769.176 1821.44 761.832 1847.36 758.052C1854.85 756.972 1857.79 756.81 1876.8 756.81C1896.77 756.81 1907.2 757.404 1917.95 759.024L1920 759.348V749.574C1920 739.908 1920 739.8 1918.59 739.53C1917.06 739.26 1858.88 729.54 1781.12 716.58C1755.97 712.422 1720.96 706.59 1703.36 703.62C1669.89 698.058 1627.97 691.038 1598.08 686.07C1588.42 684.504 1571.01 681.588 1559.36 679.644C1547.78 677.7 1514.75 672.246 1486.08 667.44C1457.41 662.688 1427.58 657.666 1419.84 656.37C1398.91 652.752 1376.26 649.08 1375.3 649.134C1374.78 649.134 1376.13 649.62 1378.24 650.16Z" fill="#444444"/>
<path d="M428.161 657.233C414.593 659.825 390.273 664.577 374.081 667.709C357.889 670.841 341.633 673.973 337.921 674.729C330.241 676.241 313.921 679.373 258.881 690.065C211.649 699.191 130.689 714.905 75.8406 725.543C53.6966 729.809 27.6486 734.831 18.1126 736.721L0.640625 740.069V749.735V759.401L3.00862 759.023C14.9126 757.349 23.1686 756.863 42.8806 756.863C64.3206 756.809 68.6086 757.079 81.2806 759.347C94.7206 761.723 108.865 766.583 118.721 772.199C125.121 775.871 133.505 782.621 138.305 788.021C147.265 798.227 153.473 812.645 155.073 826.901C155.329 829.169 155.201 829.493 154.305 829.223C153.729 829.061 150.913 828.251 148.097 827.333C140.993 825.173 136.001 824.471 127.681 824.471C116.929 824.525 105.601 826.901 96.0006 831.113L91.8406 832.949L101.121 833.327C128.897 834.407 149.185 845.477 159.489 865.079C162.177 870.317 164.929 878.633 165.569 883.601C165.761 885.329 166.145 886.841 166.401 886.949C166.657 887.111 168.065 885.707 169.537 883.817C181.121 869.345 182.721 853.793 173.761 843.155C172.545 841.697 171.521 840.347 171.521 840.185C171.521 840.023 175.617 839.429 180.673 838.943C213.889 835.703 244.289 835.325 271.489 837.863C351.489 845.261 409.985 876.905 443.649 930.959C455.745 950.453 464.769 973.889 468.737 996.569C469.249 999.485 469.633 1002.02 469.505 1002.08C469.377 1002.18 467.457 1001.86 465.217 1001.32C459.649 1000.08 448.385 1000.08 442.881 1001.32C437.569 1002.51 430.593 1005.32 426.817 1007.8L423.809 1009.69L420.737 1006.99C414.273 1001.43 404.417 997.109 395.137 995.759C389.441 994.895 376.257 995.327 370.881 996.569C368.769 997.001 364.865 998.081 362.241 998.837L357.441 1000.29L363.969 1001.27C391.169 1005.32 408.961 1018.6 413.825 1038.42C415.041 1043.44 415.361 1053.48 414.529 1059.75L414.017 1063.53L418.241 1060.02C422.849 1056.24 427.201 1051.05 429.377 1046.84C433.857 1038.15 434.049 1027.13 429.761 1018.33C429.185 1017.09 433.601 1016.6 442.177 1016.98C466.625 1018.17 485.121 1029.02 497.153 1049.16C498.945 1052.24 500.481 1055.1 500.481 1055.54C500.481 1055.91 500.737 1056.24 501.057 1056.24C502.977 1056.24 503.361 1037.23 501.569 1030.8C499.201 1022.27 492.225 1013.2 484.545 1008.72C482.817 1007.69 481.345 1006.67 481.281 1006.45C481.281 1005.69 491.905 1001.7 497.025 1000.56C503.489 999.107 517.633 998.567 524.673 999.539C535.041 1000.94 546.049 1005.32 553.345 1010.99C557.377 1014.12 561.089 1018.44 563.841 1023.24L566.209 1027.19L569.473 1023.68C578.177 1014.44 590.721 1007.1 604.865 1002.89C637.953 993.059 679.553 998.513 710.529 1016.82C718.849 1021.68 731.009 1031.99 736.001 1038.42C744.897 1049.81 749.761 1061.69 751.105 1075.3L751.553 1080H757.825C765.121 1080 764.481 1080.86 763.457 1072.38C760.001 1043.39 741.377 1019.63 709.441 1003.48C686.529 991.871 657.089 985.931 630.785 987.659C607.809 989.117 588.289 995.219 572.673 1005.8L568.385 1008.72L564.673 1005.42C552.065 994.247 534.337 988.199 514.113 988.199C503.489 988.199 493.121 989.819 484.865 992.735C483.521 993.221 482.177 993.599 481.921 993.599C481.665 993.599 481.153 991.817 480.705 989.711C479.617 984.041 474.625 967.193 472.065 960.605C467.713 949.265 462.785 939.113 456.897 929.231L453.185 922.913L462.593 915.515C467.777 911.411 476.481 904.499 481.921 900.179C487.361 895.859 494.273 890.405 497.281 888.029C506.689 880.631 511.489 876.851 517.441 872.045C528.833 862.919 544.385 850.715 547.521 848.447C549.313 847.151 554.049 843.371 558.081 840.023C562.113 836.675 571.393 829.277 578.753 823.553C586.049 817.829 592.001 813.023 592.001 812.915C592.001 812.753 588.289 815.075 583.809 817.937C579.329 820.853 567.361 828.575 557.185 835.109C547.073 841.643 534.081 850.013 528.321 853.739C522.561 857.465 510.337 865.349 501.121 871.289C491.905 877.229 477.825 886.301 469.889 891.485C461.889 896.615 452.673 902.555 449.345 904.661C442.497 909.035 443.841 909.251 438.401 902.879C418.561 879.497 392.385 860.705 361.921 848.123C331.457 835.487 301.889 829.115 260.161 826.145C237.953 824.633 194.305 826.091 170.817 829.223L168.449 829.493L168.065 826.631C165.441 808.649 160.065 795.581 150.145 783.269C145.153 777.005 134.401 767.987 126.849 763.667C116.481 757.727 101.889 752.381 88.7686 749.789C86.0806 749.249 84.0326 748.601 84.2886 748.385C84.6086 748.169 96.3206 745.037 110.401 741.419C124.481 737.855 139.585 733.913 144.001 732.779C148.417 731.645 165.825 727.109 182.721 722.735C199.617 718.415 220.801 712.961 229.761 710.639C238.721 708.317 253.313 704.537 262.081 702.269C314.049 688.823 328.321 685.151 348.801 679.859C361.281 676.619 387.649 669.815 407.361 664.739C450.881 653.507 454.977 652.373 453.761 652.373C453.249 652.373 441.729 654.587 428.161 657.233Z" fill="#444444"/>
<path d="M516.8 785.484C512.576 787.698 508.672 789.372 508.16 789.264C507.648 789.156 503.552 787.968 499.072 786.618C494.592 785.322 490.816 784.296 490.688 784.404C490.56 784.512 491.456 788.13 492.608 792.45L494.784 800.28L489.024 806.598C485.824 810.108 483.392 813.024 483.52 813.132C483.584 813.24 488 813.672 493.184 814.104C499.328 814.59 502.848 815.076 503.104 815.508C505.152 818.586 513.536 827.82 513.92 827.496C514.24 827.226 516.032 823.878 517.888 820.044L521.344 813.078L530.176 810.864C535.04 809.622 539.008 808.434 539.072 808.164C539.136 807.894 536.192 805.41 532.48 802.71L525.76 797.742L525.568 789.588C525.504 785.052 525.184 781.38 524.928 781.38C524.672 781.434 521.024 783.27 516.8 785.484Z" fill="#444444"/>
<path d="M958.529 871.668C957.953 874.422 956.353 882.252 954.945 889.11C953.537 895.914 951.361 906.498 950.081 912.6C948.801 918.702 946.945 927.666 945.921 932.58C944.897 937.494 943.041 946.404 941.825 952.398C937.409 973.512 934.913 985.284 933.057 994.41C932.033 999.432 930.433 1006.99 929.537 1011.15C927.169 1022.71 925.185 1032.1 920.961 1052.46C918.849 1062.72 916.865 1072.17 916.481 1073.52C916.161 1074.87 915.713 1076.87 915.521 1078L915.137 1080H933.953H952.705L953.537 1056.94C953.921 1044.2 954.561 1026.65 954.881 1017.9C955.201 1009.15 955.649 997.218 955.841 991.44C956.033 985.662 956.481 974.106 956.801 965.79C957.121 957.474 957.569 946.026 957.761 940.41C957.953 934.74 958.209 926.964 958.401 923.13C959.617 895.536 960.385 867.78 959.937 867.186C959.745 866.862 959.105 868.914 958.529 871.668Z" fill="#444444"/>
<path d="M1355.97 908.656L1356.35 916.648L1349.06 921.994C1345.02 924.91 1341.82 927.448 1341.89 927.664C1341.95 927.826 1345.92 928.96 1350.72 930.202C1355.52 931.444 1359.68 932.632 1360 932.902C1360.26 933.172 1362.05 936.466 1363.84 940.246C1365.7 944.08 1367.42 947.158 1367.68 947.158C1367.94 947.158 1370.56 944.242 1373.44 940.732C1379.46 933.388 1378.05 933.982 1390.91 933.334C1394.69 933.118 1397.76 932.74 1397.76 932.47C1397.76 932.254 1395.33 929.338 1392.32 926.044C1389.31 922.75 1386.88 919.672 1386.88 919.24C1386.88 918.754 1387.78 915.244 1388.86 911.41C1389.89 907.522 1390.66 904.228 1390.46 904.066C1390.21 903.85 1380.35 906.442 1373.12 908.656C1372.74 908.764 1368.96 907.09 1364.8 904.984C1360.58 902.878 1356.8 900.988 1356.35 900.88C1355.78 900.718 1355.71 902.608 1355.97 908.656Z" fill="#444444"/>
</svg>
