<svg width="529" height="529" viewBox="0 0 529 529" fill="none" xmlns="http://www.w3.org/2000/svg">
<g clip-path="url(#clip0)">
<path d="M80.3676 273.496C38.1345 293.92 135.031 385.457 147.022 400.398C172.242 431.789 197.452 463.168 222.672 494.547C232.141 506.335 245.213 530.306 263.757 528.944C281.906 527.604 291.409 511.064 301.407 498.6C328.125 465.352 354.843 432.093 381.572 398.856C399.846 376.112 418.12 353.38 436.393 330.625C441.944 323.712 457.786 310.584 458.9 300.901C464.192 255.132 402.537 268.339 369.368 269.555C353.684 255.358 390.974 83.5543 394.171 60.777C395.703 49.8556 405.836 16.8776 393.034 7.98284C375.436 -4.2446 347.266 1.20483 327.472 1.20483C286.252 1.20483 245.021 1.20483 203.802 1.20483C183.276 1.20483 155.387 -4.25586 137.497 9.26638C124.605 19.0168 132.531 44.4175 134.276 56.8363C140.356 100.207 146.459 143.554 152.539 186.925C156.367 214.239 160.206 241.543 164.034 268.846C163.978 268.351 92.0546 267.844 80.3676 273.496ZM112.141 322.609C110.621 320.728 109.101 318.837 107.592 316.945C78.6224 280.893 104.89 283.528 134.614 285.679C134.153 286.242 133.578 286.748 133.218 287.322C126.339 298.514 119.504 309.717 112.76 320.987C112.479 321.471 112.366 322.068 112.141 322.609ZM206.887 437.857C206.515 438.353 206.346 438.949 206.054 439.49C204.365 437.396 202.676 435.301 200.998 433.196C201.268 432.813 201.629 432.599 201.865 432.149C207.934 420.901 214.07 409.676 220.319 398.518C264.657 331.47 308.771 264.275 353.211 197.26C352.738 200.672 352.242 204.061 351.769 207.495C348.786 213.778 345.937 220.128 342.818 226.332C302.038 295.361 259.906 363.558 213.485 428.974C211.3 431.935 209.093 434.885 206.887 437.857ZM399.159 313.736C395.083 325.356 390.951 336.953 386.819 348.538C384.736 354.404 380.379 363.434 377.046 368.681C369.379 380.74 361.407 392.821 353.289 404.834C347.953 411.466 342.627 418.109 337.301 424.74C352.231 396.086 367.341 367.51 382.946 339.126C387.754 330.411 392.584 321.663 397.414 312.937C400.398 307.51 401.197 307.87 399.159 313.736ZM386.425 285.093C385.727 285.87 384.961 286.624 384.477 287.469C342.402 359.629 301.272 432.352 260.897 505.525C260.829 505.649 260.807 505.784 260.739 505.908C258.836 504.579 256.81 502.642 254.614 499.918C242.454 484.785 230.294 469.653 218.146 454.521C218.596 454.082 219.103 453.8 219.508 453.249C225.385 445.232 231.206 437.193 236.96 429.098C275.264 377.047 312.182 323.915 344.046 268.182C344.924 275.151 348.482 281.04 357.849 285.116C359.448 285.814 361.238 285.96 363.062 285.769C363.107 285.769 363.13 285.78 363.175 285.78C366.429 285.78 375.616 285.251 386.425 285.093ZM369.311 82.4847C336.401 146.774 302.995 210.794 268.035 273.901C256.495 294.517 244.965 315.02 233.064 334.994C222.706 352.445 212.55 369.998 202.518 387.641C197.992 395.208 193.455 402.785 188.861 410.317C187.926 411.736 186.969 413.155 186.023 414.573C180.405 407.581 174.787 400.589 169.169 393.598C169.518 393.181 169.945 392.945 170.261 392.438C237.849 283.055 304.537 173.087 371.946 63.5805C371.079 69.8857 370.189 76.1908 369.311 82.4847ZM173.515 348.156C196.99 307.364 220.792 266.797 245.359 226.793C273.237 181.374 302.691 136.9 330.895 91.7509C334.194 86.4817 334.216 86.4704 330.963 91.7735C278.484 177.23 226.343 262.89 173.807 348.336C170.531 353.628 170.407 353.549 173.515 348.156ZM373.207 20.8633C373.59 21.0998 374.04 21.3137 374.378 21.5614C367.206 33.0907 360.022 44.6089 352.873 56.1495C349.596 61.4413 349.574 61.43 352.772 56.0932C359.752 44.44 366.564 32.6967 373.207 20.8633ZM283.753 59.5723C290.553 46.2302 297.23 32.8318 303.794 19.3884C304.233 18.4876 304.312 17.6882 304.47 16.8438C308.546 16.5961 313.578 16.2583 319.208 15.9768C318.42 16.7087 317.564 17.4293 316.945 18.2174C306.328 32.2576 295.699 46.3203 285.284 60.5068C281.569 65.5059 280.927 65.1118 283.753 59.5723ZM230.711 18.7128C231.038 18.2061 231.06 17.767 231.285 17.2829C247.96 17.2829 264.635 17.2829 281.332 17.2829C280.814 17.981 280.195 18.634 279.835 19.3884C248.422 84.1735 213.935 147.495 178.412 210.321C174.449 182.151 170.497 153.992 166.545 125.832C187.296 89.6455 208.44 53.7851 230.711 18.7128ZM158.101 65.6747C157.774 63.3328 157.448 61.0022 157.121 58.6715C156.311 52.9181 155.027 47.3448 154.059 42.2332C159.002 34.3855 163.956 26.5267 168.955 18.7241C169.259 18.2399 169.349 17.8233 169.585 17.3617C170.092 17.3505 170.52 17.2942 171.038 17.2942C175.902 17.2942 180.777 17.2942 185.641 17.2942C185.168 17.9022 184.582 18.4651 184.233 19.0844C175.564 34.622 166.849 50.1596 158.101 65.6747ZM158.247 286.512C175.226 285.938 188.365 281.299 185.888 263.667C185.01 257.384 184.121 251.113 183.242 244.819C232.467 167.176 285.003 91.6158 340.33 18.2287C341.062 17.2604 341.4 16.3822 341.704 15.504C345.622 15.5715 349.416 15.7404 353.03 16.0444C352.164 17.0239 351.319 18.0373 350.7 19.1181C303.997 103.652 247.51 183.04 198.06 265.919C179.595 296.859 161.467 328.058 143.543 359.37C143.272 359.854 143.182 360.451 142.968 360.969C137.598 354.281 132.216 347.593 126.845 340.905C127.149 340.511 127.532 340.285 127.802 339.813C137.834 322.372 147.855 304.909 157.898 287.48C158.112 287.131 158.101 286.85 158.247 286.512Z" fill="#444444"/>
</g>
<defs>
<clipPath id="clip0">
<rect width="529" height="529" fill="white"/>
</clipPath>
</defs>
</svg>
