<svg width="22" height="22" viewBox="0 0 22 22" fill="none" xmlns="http://www.w3.org/2000/svg">
<g clip-path="url(#clip0)">
<path d="M6.08202 0.142035C5.89209 -0.0414331 5.58939 -0.0361438 5.40592 0.153779C5.22698 0.339085 5.22698 0.632822 5.40592 0.818082L15.5863 10.9994L5.40498 21.1798C5.21506 21.3633 5.20982 21.6659 5.39324 21.8559C5.57671 22.0458 5.87936 22.0511 6.06933 21.8676C6.07332 21.8638 6.07722 21.8599 6.08107 21.8559L16.6 11.337C16.7866 11.1503 16.7866 10.8476 16.6 10.6609L6.08202 0.142035Z" fill="#F44336"/>
<path d="M5.7434 21.9946C5.47934 21.9951 5.2649 21.7814 5.26441 21.5173C5.26418 21.39 5.31474 21.2679 5.40489 21.1779L15.5862 10.9976L5.40489 0.817226C5.21792 0.630262 5.21792 0.327157 5.40489 0.140193C5.59185 -0.0467716 5.89495 -0.0467716 6.08192 0.140193L16.6008 10.6591C16.7875 10.8458 16.7875 11.1484 16.6008 11.3352L6.08192 21.854C5.99227 21.944 5.87044 21.9946 5.7434 21.9946Z" fill="#444444"/>
</g>
<defs>
<clipPath id="clip0">
<rect width="22" height="22" fill="white"/>
</clipPath>
</defs>
</svg>
