<svg width="22" height="22" viewBox="0 0 22 22" fill="none" xmlns="http://www.w3.org/2000/svg">
<path d="M17.875 17.875C17.875 18.634 17.2597 19.25 16.5 19.25H2.75C1.99032 19.25 1.375 18.634 1.375 17.875V4.125C1.375 3.36532 1.99032 2.75 2.75 2.75H16.5C17.2597 2.75 17.875 3.36532 17.875 4.125V6.1875H19.25V4.125C19.25 2.60632 18.0187 1.375 16.5 1.375H2.75C1.23132 1.375 0 2.60632 0 4.125V17.875C0 19.3937 1.23132 20.625 2.75 20.625H16.5C18.0187 20.625 19.25 19.3937 19.25 17.875V15.8125H17.875V17.875ZM21.3125 10.3125H6.47213L10.0767 6.70795C10.3455 6.43985 10.3455 6.00395 10.0767 5.73585C9.80787 5.46704 9.37268 5.46704 9.10459 5.73585L4.3615 10.4795C4.21782 10.6226 4.15663 10.8123 4.16623 11C4.1566 11.1877 4.21782 11.3775 4.36082 11.5205L9.10387 16.2635C9.37196 16.5323 9.80787 16.5323 10.076 16.2635C10.3448 15.9954 10.3448 15.5595 10.076 15.2914L6.47213 11.6875H21.3125C21.692 11.6875 22 11.3795 22 11C22 10.6205 21.692 10.3125 21.3125 10.3125Z" fill="#444444"/>
</svg>
