<svg width="529" height="529" viewBox="0 0 529 529" fill="none" xmlns="http://www.w3.org/2000/svg">
<g clip-path="url(#clip0)">
<path d="M255.504 80.3677C235.08 38.1347 143.543 135.031 128.602 147.022C97.2113 172.242 65.832 197.452 34.4528 222.672C22.6644 232.141 -1.30629 245.213 0.0560653 263.757C1.3959 281.907 17.9356 291.409 30.3995 301.407C63.6478 328.125 96.9073 354.843 130.144 381.573C152.888 399.846 175.62 418.12 198.375 436.393C205.288 441.944 218.416 457.786 228.099 458.9C273.867 464.192 260.66 402.537 259.444 369.368C273.642 353.684 445.446 390.974 468.223 394.172C479.144 395.703 512.122 405.836 521.017 393.034C533.244 375.436 527.795 347.266 527.795 327.472C527.795 286.253 527.795 245.022 527.795 203.802C527.795 183.276 533.256 155.387 519.733 137.497C509.983 124.605 484.582 132.531 472.164 134.277C428.793 140.356 385.446 146.459 342.075 152.539C314.761 156.367 287.457 160.206 260.154 164.035C260.649 163.978 261.156 92.0547 255.504 80.3677ZM206.391 112.141C208.272 110.621 210.163 109.101 212.055 107.592C248.106 78.6226 245.472 104.89 243.321 134.614C242.758 134.153 242.252 133.578 241.677 133.218C230.486 126.339 219.283 119.505 208.013 112.76C207.528 112.479 206.932 112.366 206.391 112.141ZM91.1426 206.887C90.6472 206.515 90.0505 206.346 89.51 206.054C91.6042 204.365 93.6985 202.676 95.8039 200.998C96.1867 201.269 96.4006 201.629 96.851 201.865C108.099 207.934 119.324 214.07 130.482 220.319C197.53 264.658 264.725 308.771 331.739 353.211C328.328 352.738 324.939 352.242 321.505 351.77C315.222 348.786 308.872 345.937 302.668 342.819C233.638 302.038 165.442 259.906 100.026 213.485C97.0649 211.3 94.115 209.094 91.1426 206.887ZM215.264 399.159C203.644 395.084 192.047 390.951 180.461 386.819C174.595 384.736 165.566 380.379 160.319 377.046C148.26 369.379 136.179 361.407 124.166 353.29C117.534 347.953 110.891 342.627 104.26 337.302C132.914 352.231 161.49 367.341 189.874 382.946C198.589 387.754 207.337 392.584 216.063 397.414C221.49 400.398 221.13 401.197 215.264 399.159ZM243.907 386.425C243.13 385.727 242.376 384.962 241.531 384.477C169.371 342.402 96.6484 301.272 23.4751 260.897C23.3513 260.829 23.2162 260.807 23.0923 260.739C24.4209 258.837 26.3574 256.81 29.0822 254.614C44.2145 242.454 59.3468 230.295 74.4791 218.146C74.9182 218.596 75.1996 219.103 75.7513 219.508C83.7679 225.386 91.8069 231.207 99.9022 236.96C151.953 275.264 205.085 312.182 260.818 344.046C253.849 344.924 247.96 348.482 243.884 357.85C243.186 359.448 243.04 361.239 243.231 363.062C243.231 363.108 243.22 363.13 243.22 363.175C243.22 366.429 243.749 375.616 243.907 386.425ZM446.515 369.311C382.225 336.401 318.206 302.995 255.098 268.035C234.483 256.495 213.98 244.965 194.006 233.064C176.555 222.706 159.002 212.55 141.358 202.518C133.792 197.992 126.215 193.455 118.682 188.861C117.264 187.926 115.845 186.969 114.427 186.024C121.418 180.405 128.41 174.787 135.402 169.169C135.819 169.518 136.055 169.946 136.562 170.261C245.945 237.849 355.913 304.537 465.419 371.946C459.114 371.079 452.809 370.19 446.515 369.311ZM180.844 173.515C221.636 196.99 262.203 220.792 302.207 245.359C347.626 273.237 392.1 302.691 437.249 330.895C442.518 334.194 442.529 334.217 437.226 330.963C351.769 278.484 266.11 226.343 180.664 173.807C175.372 170.531 175.451 170.407 180.844 173.515ZM508.137 373.207C507.9 373.59 507.686 374.04 507.439 374.378C495.909 367.206 484.391 360.023 472.85 352.873C467.559 349.597 467.57 349.574 472.907 352.772C484.56 359.752 496.303 366.564 508.137 373.207ZM469.428 283.753C482.77 290.554 496.168 297.23 509.612 303.794C510.512 304.233 511.312 304.312 512.156 304.47C512.404 308.546 512.742 313.579 513.023 319.208C512.291 318.42 511.571 317.564 510.782 316.945C496.742 306.328 482.68 295.699 468.493 285.284C463.494 281.569 463.888 280.927 469.428 283.753ZM510.287 230.711C510.794 231.038 511.233 231.06 511.717 231.285C511.717 247.96 511.717 264.635 511.717 281.332C511.019 280.814 510.366 280.195 509.612 279.835C444.826 248.422 381.505 213.935 318.679 178.412C346.849 174.449 375.008 170.497 403.167 166.545C439.354 187.296 475.215 208.441 510.287 230.711ZM463.325 158.101C465.667 157.774 467.998 157.448 470.328 157.121C476.082 156.311 481.655 155.027 486.767 154.059C494.614 159.002 502.473 163.956 510.276 168.955C510.76 169.259 511.177 169.349 511.638 169.585C511.649 170.092 511.706 170.52 511.706 171.038C511.706 175.902 511.706 180.777 511.706 185.641C511.098 185.168 510.535 184.582 509.916 184.233C494.378 175.564 478.84 166.849 463.325 158.101ZM242.488 158.247C243.062 175.226 247.701 188.366 265.333 185.889C271.616 185.01 277.887 184.121 284.181 183.243C361.824 232.468 437.384 285.003 510.771 340.33C511.739 341.062 512.618 341.4 513.496 341.704C513.428 345.622 513.259 349.416 512.955 353.031C511.976 352.164 510.963 351.319 509.882 350.7C425.348 303.997 345.96 247.51 263.081 198.06C232.141 179.595 200.942 161.467 169.63 143.543C169.146 143.273 168.549 143.183 168.031 142.969C174.719 137.598 181.407 132.216 188.095 126.846C188.489 127.15 188.714 127.532 189.187 127.803C206.628 137.834 224.091 147.855 241.52 157.898C241.869 158.112 242.15 158.101 242.488 158.247Z" fill="#444444"/>
</g>
<defs>
<clipPath id="clip0">
<rect width="529" height="529" fill="white" transform="translate(529) rotate(90)"/>
</clipPath>
</defs>
</svg>
