<svg width="188" height="149" viewBox="0 0 188 149" fill="none" xmlns="http://www.w3.org/2000/svg">
<path d="M134.927 55.4285C138.699 59.4614 183.466 45.9656 183.466 45.9656C183.466 45.9656 141.653 63.3695 140.791 71.5699C139.929 79.7703 178.058 104.505 178.058 104.505C178.058 104.505 138.945 80.4544 133.809 85.657C128.674 90.8594 147.185 121.307 147.185 121.307C147.185 121.307 125.924 92.9856 118.308 96.324C110.691 99.6624 118.182 148.029 118.182 148.029C118.182 148.029 103.751 102.397 97.6142 102.193C91.4772 101.988 85.0672 136.304 85.0672 136.304C85.0672 136.304 83.9892 107.128 78.4949 104.591C73.0006 102.054 34.3388 145.618 34.3388 145.618C34.3388 145.618 63.1686 100.434 60.2841 95.1094C57.3996 89.7845 5.91113 101.03 5.91113 101.03C5.91113 101.03 57.7262 82.9795 58.5393 76.9161C59.3522 70.8527 15.9501 43.7143 15.9501 43.7143C15.9501 43.7143 68.4575 63.4626 72.346 58.1493C76.2344 52.836 60.8333 28.6758 60.8333 28.6758C60.8333 28.6758 83.765 49.8508 89.6995 46.1747C95.6339 42.4987 89.4936 2.05819 89.4936 2.05819C89.4936 2.05819 105.143 47.1052 113.253 47.3055C121.363 47.5056 152.147 0.00390625 152.147 0.00390625C152.147 0.00390625 131.154 51.3956 134.926 55.4285H134.927Z" fill="black"/>
<path d="M133.575 55.4245C137.348 59.4574 182.115 45.9616 182.115 45.9616C182.115 45.9616 140.302 63.3655 139.44 71.566C138.578 79.7664 176.707 104.501 176.707 104.501C176.707 104.501 137.593 80.4504 132.458 85.653C127.322 90.8555 145.834 121.303 145.834 121.303C145.834 121.303 124.573 92.9816 116.956 96.32C109.34 99.6584 116.831 148.025 116.831 148.025C116.831 148.025 102.4 102.393 96.2631 102.189C90.1262 101.984 83.7162 136.3 83.7162 136.3C83.7162 136.3 82.6382 107.124 77.1438 104.587C71.6494 102.05 32.9876 145.614 32.9876 145.614C32.9876 145.614 61.8176 100.43 58.9331 95.1054C56.0485 89.7806 4.56006 101.026 4.56006 101.026C4.56006 101.026 56.3752 82.9755 57.1882 76.9121C58.0012 70.8488 14.599 43.7104 14.599 43.7104C14.599 43.7104 67.1065 63.4586 70.9949 58.1453C74.8834 52.832 59.4822 28.6718 59.4822 28.6718C59.4822 28.6718 82.4139 49.8468 88.3484 46.1707C94.2828 42.4947 88.1425 2.05419 88.1425 2.05419C88.1425 2.05419 103.792 47.1013 111.902 47.3015C120.012 47.5017 150.796 0 150.796 0C150.796 0 129.803 51.3916 133.575 55.4245H133.575Z" fill="#D62E2E"/>
<path fill-rule="evenodd" clip-rule="evenodd" d="M120.64 36.0889C120.144 36.098 119.65 36.1142 119.162 36.1481C117.664 36.2512 116.209 36.4781 114.811 36.7932C113.413 37.1083 112.073 37.5115 110.802 37.9706C109.37 38.4877 108.022 39.074 106.769 39.6991C105.515 40.3242 104.353 40.9877 103.29 41.6644C102.321 42.2812 101.434 42.9077 100.626 43.5239C100.253 43.1322 99.8535 42.7448 99.423 42.3683C98.3806 41.4567 97.1648 40.6055 95.7812 39.9108C94.4872 39.2606 93.0454 38.7439 91.5113 38.4393C89.9773 38.1347 88.3504 38.0418 86.7089 38.2445C86.6453 38.2536 86.5811 38.2609 86.5175 38.2697C85.4212 38.4219 84.3634 38.7073 83.3663 39.0945C82.3691 39.4817 81.4341 39.9717 80.5796 40.5374C79.6039 41.1827 78.7309 41.9264 77.9776 42.7295C77.2244 43.5325 76.591 44.3941 76.0795 45.2776C75.9435 45.5128 75.817 45.7496 75.6982 45.9865C75.3481 45.6349 74.9727 45.2819 74.5694 44.9333C73.5026 44.0108 72.2429 43.1127 70.7916 42.3381C70.066 41.9508 69.2921 41.5955 68.4753 41.2849C67.6584 40.9743 66.7978 40.7083 65.8985 40.5038C64.8586 40.2675 63.7695 40.112 62.6482 40.052C61.527 39.9919 60.373 40.0284 59.2098 40.1763C58.1342 40.313 57.0496 40.5474 55.9813 40.8885C54.913 41.2296 53.8615 41.6767 52.8553 42.2407C52.7769 42.2842 52.7007 42.33 52.6234 42.3751C51.6651 42.9342 50.7765 43.5864 49.9728 44.3101C49.1691 45.0339 48.4489 45.8287 47.8227 46.6702C47.1243 47.6083 46.5434 48.6077 46.0893 49.635C45.6352 50.6622 45.309 51.7172 45.1117 52.7694C44.9479 53.6444 44.8729 54.5139 44.8731 55.3612C44.8731 56.2086 44.948 57.0329 45.0848 57.8221C45.2399 58.7197 45.4752 59.5717 45.7684 60.3653C46.0617 61.1588 46.4122 61.8941 46.8031 62.564C47.2895 63.3972 47.8349 64.1281 48.3939 64.7612C48.7567 65.172 49.1251 65.5409 49.4908 65.8732C49.1772 66.0643 48.7361 66.3568 48.2074 66.7818C47.6637 67.219 47.03 67.7949 46.3782 68.5389C45.7264 69.2829 45.056 70.1953 44.4666 71.2886C44.1893 71.803 43.9311 72.3564 43.7007 72.9465C43.4702 73.5367 43.2677 74.164 43.1043 74.8228C42.9409 75.4817 42.8163 76.1716 42.7398 76.8873C42.6633 77.6029 42.6356 78.3434 42.6658 79.0995C42.7163 80.3504 42.9271 81.6426 43.3159 82.921C43.7045 84.1993 44.271 85.4637 45.0208 86.6483C45.039 86.677 45.0582 86.7066 45.0765 86.7356C45.8453 87.9315 46.7674 88.9897 47.7793 89.8885C48.7911 90.7871 49.8915 91.5251 51.0211 92.0956C52.2518 92.7177 53.5202 93.1404 54.7468 93.3807C55.8937 93.6052 57.0034 93.6704 58.0358 93.6108C58.0122 93.805 57.9896 94.0034 57.9706 94.2054C57.9062 94.8892 57.8699 95.6163 57.8731 96.3823C57.8822 97.7801 58.0165 99.3091 58.3585 100.914C58.5296 101.717 58.7503 102.539 59.0321 103.368C59.3139 104.198 59.6555 105.035 60.0652 105.868C60.6816 107.121 61.4477 108.361 62.3631 109.552C63.2785 110.742 64.3441 111.883 65.5446 112.933C66.6277 113.881 67.821 114.757 69.1107 115.535C70.4003 116.313 71.7868 116.991 73.2495 117.544C75.1758 118.272 77.2283 118.784 79.3487 119.067C80.2454 119.187 81.1416 119.265 82.0313 119.303C83.5808 119.368 85.1124 119.313 86.6069 119.157C88.1015 119 89.5578 118.74 90.9625 118.396C92.5508 118.007 94.0792 117.509 95.5112 116.902C96.9434 116.296 98.2795 115.581 99.4974 114.771C100.207 114.298 100.876 113.793 101.498 113.261C102.12 112.729 102.697 112.171 103.223 111.596C103.828 110.935 104.366 110.25 104.839 109.553C104.984 109.717 105.135 109.884 105.296 110.054C106.007 110.806 106.874 111.617 107.916 112.421C108.868 113.155 109.966 113.883 111.214 114.541C112.461 115.198 113.858 115.786 115.389 116.23C116.878 116.663 118.493 116.962 120.19 117.07C121.888 117.179 123.669 117.098 125.468 116.771C127.062 116.482 128.669 115.998 130.227 115.312C131.784 114.625 133.292 113.733 134.681 112.637C134.702 112.621 134.724 112.605 134.745 112.589C136.118 111.496 137.323 110.238 138.333 108.883C139.343 107.528 140.159 106.075 140.767 104.583C141.457 102.888 141.877 101.149 142.06 99.4547C142.244 97.7604 142.19 96.1118 141.948 94.575C141.918 94.3854 141.884 94.1982 141.849 94.0123C142.878 93.5531 143.915 93.0133 144.941 92.3846C145.995 91.7387 147.038 91.0001 148.047 90.1656C149.056 89.3312 150.03 88.3997 150.945 87.3739C151.779 86.438 152.561 85.4228 153.271 84.3318C153.981 83.241 154.618 82.076 155.159 80.8464C155.782 79.4309 156.277 77.9267 156.602 76.3665C156.813 75.3549 156.947 74.3371 157.005 73.3228C157.07 72.1734 157.036 71.0335 156.913 69.9179C156.79 68.8024 156.579 67.711 156.293 66.6575C156.007 65.604 155.646 64.5884 155.221 63.6205C154.797 62.6526 154.309 61.7328 153.77 60.8691C153.124 59.8332 152.406 58.8783 151.643 58.0068C150.881 57.1354 150.074 56.347 149.243 55.6401C148.412 54.9331 147.558 54.3073 146.702 53.7587C145.845 53.2102 144.987 52.738 144.142 52.336C143.243 51.9086 142.361 51.5607 141.511 51.276C140.661 50.9914 139.844 50.7706 139.072 50.6008C138.941 50.5721 138.812 50.5442 138.684 50.5182C138.667 50.1018 138.63 49.6726 138.566 49.2349C138.476 48.6138 138.337 47.977 138.141 47.3317C137.946 46.6865 137.697 46.0327 137.387 45.3832C137.078 44.7336 136.709 44.0881 136.28 43.4582C135.852 42.8283 135.363 42.2145 134.816 41.6324C133.896 40.6533 132.815 39.7617 131.599 38.9968C130.383 38.2318 129.033 37.5942 127.594 37.1205C125.874 36.5539 124.031 36.2213 122.137 36.121C121.636 36.0949 121.136 36.0845 120.64 36.0889L120.64 36.0889ZM120.649 36.6265C121.134 36.6265 121.622 36.6356 122.112 36.6587C123.963 36.7563 125.76 37.0756 127.434 37.6229C128.833 38.0804 130.148 38.6946 131.332 39.4303C132.517 40.166 133.57 41.0234 134.468 41.965C135.002 42.5247 135.48 43.1159 135.901 43.722C136.322 44.3282 136.687 44.9506 136.995 45.5765C137.302 46.2024 137.553 46.8317 137.751 47.4545C137.949 48.0773 138.094 48.6929 138.191 49.2938C138.254 49.6857 138.295 50.0702 138.32 50.4461C137.826 50.3542 137.354 50.2833 136.906 50.2278C136.234 50.1442 135.615 50.0973 135.06 50.0732C134.504 50.0489 134.01 50.0479 133.581 50.0581C133.153 50.0686 132.792 50.0902 132.5 50.1138C132.208 50.1374 131.987 50.1617 131.838 50.1825C131.689 50.2034 131.612 50.22 131.613 50.2295C131.613 50.2386 131.691 50.2416 131.841 50.2401C131.991 50.2401 132.213 50.231 132.505 50.225C132.796 50.2159 133.156 50.2144 133.581 50.225C134.007 50.2341 134.498 50.2502 135.048 50.2903C135.598 50.3303 136.208 50.394 136.87 50.4918C137.334 50.5606 137.824 50.6446 138.337 50.7522L138.698 50.8314C138.8 50.8548 138.903 50.8783 139.007 50.9036C139.766 51.0853 140.569 51.316 141.402 51.6091C142.236 51.9022 143.099 52.2578 143.977 52.6892C144.803 53.0948 145.642 53.5678 146.477 54.1152C147.312 54.6626 148.144 55.2846 148.953 55.9848C149.762 56.685 150.548 57.463 151.289 58.3214C152.03 59.1796 152.726 60.1175 153.352 61.1332C153.874 61.9798 154.346 62.8806 154.756 63.8275C155.167 64.7745 155.517 65.7684 155.793 66.7974C156.345 68.8552 156.604 71.0576 156.475 73.2947C156.418 74.2818 156.284 75.2747 156.078 76.2611C155.761 77.7823 155.281 79.2506 154.674 80.6352C154.147 81.8381 153.527 82.9785 152.835 84.0484C152.143 85.1183 151.379 86.1178 150.565 87.0383C149.673 88.0478 148.721 88.9652 147.735 89.7898C146.749 90.6144 145.73 91.3449 144.698 91.9869C143.723 92.5935 142.739 93.1193 141.76 93.5709C141.495 92.3635 141.115 91.2376 140.665 90.2114C140.092 88.9045 139.409 87.7577 138.696 86.773C137.917 85.6949 137.103 84.8095 136.338 84.0954C135.573 83.3813 134.858 82.836 134.255 82.4258C133.652 82.0155 133.161 81.7386 132.824 81.5624C132.486 81.3861 132.302 81.3095 132.295 81.3239C132.286 81.3375 132.455 81.4426 132.775 81.6446C133.095 81.8467 133.568 82.1476 134.148 82.5769C134.728 83.0063 135.416 83.5658 136.151 84.2886C136.887 85.0114 137.671 85.8995 138.417 86.9712C139.1 87.9504 139.753 89.0852 140.297 90.371C140.736 91.4075 141.102 92.5421 141.349 93.7573L141.433 94.1991C141.459 94.3474 141.483 94.4971 141.505 94.6477C141.728 96.1481 141.767 97.7535 141.577 99.403C141.388 101.052 140.971 102.746 140.292 104.392C139.696 105.841 138.897 107.252 137.911 108.569C136.924 109.886 135.749 111.108 134.413 112.171C134.393 112.187 134.373 112.203 134.352 112.22C133.001 113.286 131.533 114.155 130.015 114.828C128.498 115.501 126.931 115.977 125.378 116.266C123.623 116.592 121.885 116.682 120.224 116.587C118.563 116.491 116.979 116.21 115.516 115.801C114.012 115.38 112.636 114.819 111.402 114.188C110.168 113.558 109.077 112.859 108.126 112.152C107.086 111.379 106.213 110.597 105.491 109.871C105.313 109.692 105.146 109.517 104.985 109.345C105.279 108.899 105.547 108.448 105.787 107.995C106.212 107.192 106.549 106.387 106.818 105.601C107.087 104.816 107.285 104.049 107.429 103.315C107.574 102.581 107.664 101.881 107.715 101.222C107.766 100.564 107.778 99.9466 107.764 99.3795C107.746 98.6367 107.686 97.9766 107.611 97.4075C107.536 96.8384 107.445 96.3611 107.361 95.9764C107.276 95.5916 107.198 95.3005 107.141 95.1063C107.083 94.912 107.045 94.8129 107.035 94.8156C107.024 94.8156 107.044 94.9229 107.078 95.1214C107.116 95.3199 107.174 95.6138 107.238 95.9999C107.302 96.3859 107.372 96.8635 107.428 97.4293C107.483 97.9952 107.524 98.6492 107.523 99.3829C107.523 99.9429 107.497 100.549 107.434 101.197C107.372 101.844 107.271 102.533 107.117 103.251C106.963 103.97 106.757 104.718 106.484 105.484C106.21 106.249 105.868 107.031 105.444 107.81C105.22 108.222 104.973 108.632 104.703 109.038L104.565 109.24C104.082 109.944 103.53 110.637 102.907 111.304C102.388 111.861 101.82 112.401 101.208 112.917C100.595 113.432 99.9376 113.923 99.2406 114.381C98.044 115.167 96.7305 115.858 95.3218 116.446C93.9129 117.034 92.4102 117.519 90.8452 117.897C89.4612 118.231 88.0253 118.482 86.5551 118.633C85.0849 118.784 83.5791 118.836 82.0567 118.771C81.1827 118.733 80.3031 118.656 79.4229 118.539C77.3415 118.261 75.3277 117.761 73.4396 117.051C72.0065 116.512 70.647 115.85 69.3814 115.092C68.1156 114.334 66.9443 113.479 65.8791 112.556C64.699 111.532 63.6502 110.421 62.7463 109.262C61.8425 108.102 61.0832 106.893 60.4703 105.672C60.0627 104.86 59.7212 104.043 59.4372 103.233C59.1532 102.423 58.9269 101.62 58.7502 100.834C58.3968 99.2617 58.2409 97.7595 58.2143 96.3829C58.1992 95.6285 58.2249 94.91 58.2761 94.2346C58.2926 94.0162 58.3127 93.8039 58.3354 93.5945C58.959 93.5431 59.5501 93.4452 60.1024 93.3173C60.6786 93.184 61.2125 93.0165 61.7015 92.8319C62.1905 92.6473 62.6352 92.4452 63.0335 92.2389C63.4319 92.0327 63.7846 91.8229 64.0935 91.6208C64.4024 91.4188 64.6677 91.2255 64.8914 91.0497C65.1151 90.874 65.2969 90.716 65.4407 90.5844C65.5845 90.4529 65.6902 90.3475 65.7581 90.2737C65.8259 90.1997 65.8557 90.1569 65.8487 90.1494C65.8397 90.1403 65.7983 90.1693 65.7178 90.2285C65.6368 90.2868 65.5196 90.3767 65.3651 90.4922C65.056 90.7232 64.5974 91.0588 63.9725 91.4261C63.3477 91.7935 62.554 92.1929 61.5907 92.5247C61.1091 92.6906 60.5857 92.8401 60.0234 92.9564C59.5074 93.0632 58.958 93.1415 58.3823 93.1815L58.0951 93.1979C57.0744 93.2449 55.9766 93.1674 54.8431 92.9292C53.6605 92.681 52.4395 92.2589 51.2551 91.6492C50.1681 91.0892 49.1097 90.3695 48.1359 89.4974C47.162 88.6255 46.2733 87.602 45.5323 86.4487C45.5149 86.4209 45.4957 86.3921 45.4783 86.3643C44.7551 85.2222 44.2057 84.0029 43.8255 82.7697C43.4453 81.5363 43.2351 80.2891 43.1771 79.0809C43.1422 78.3505 43.162 77.6346 43.2293 76.9409C43.2964 76.2471 43.4086 75.5764 43.5586 74.9352C43.7086 74.2941 43.8952 73.6814 44.1096 73.1043C44.324 72.5272 44.5671 71.9842 44.8268 71.4783C45.3788 70.403 46.0099 69.4964 46.6258 68.7487C47.2417 68.001 47.842 67.4113 48.356 66.9548C48.8679 66.5 49.2942 66.1769 49.5855 65.957C49.7529 66.1064 49.9196 66.2496 50.0844 66.3837C50.7045 66.888 51.3 67.2855 51.8364 67.5998C52.3728 67.9141 52.8504 68.1448 53.244 68.3154C53.6377 68.4859 53.948 68.5972 54.1595 68.6647C54.371 68.7327 54.4826 68.7576 54.4871 68.7457C54.4961 68.7336 54.3877 68.683 54.1863 68.5928C53.9851 68.5022 53.6872 68.3698 53.3079 68.1795C52.9285 67.9893 52.4672 67.7421 51.9507 67.4136C51.434 67.0851 50.8608 66.6757 50.2658 66.1656C50.1202 66.0406 49.975 65.9082 49.8274 65.7708L49.7665 65.7151C49.3951 65.3656 49.0204 64.9761 48.6529 64.5427C48.1196 63.9136 47.6009 63.193 47.1412 62.3757C46.7715 61.7188 46.4414 60.9997 46.1669 60.2257C45.8923 59.4517 45.6748 58.6229 45.5336 57.7514C45.4096 56.9851 45.3436 56.1855 45.3505 55.3662C45.3596 54.5467 45.4368 53.7074 45.6008 52.865C45.7973 51.8523 46.1194 50.8361 46.5633 49.8465C47.0072 48.8569 47.5722 47.8942 48.2498 46.9892C48.858 46.1773 49.5559 45.4102 50.3343 44.7115C51.1127 44.0128 51.9718 43.382 52.8976 42.8419C52.9725 42.7984 53.0474 42.7548 53.1227 42.7126C54.0953 42.1667 55.1125 41.7332 56.148 41.4008C57.1834 41.0683 58.2375 40.8372 59.2823 40.7003C60.4127 40.5522 61.5346 40.5116 62.6267 40.5642C63.7189 40.6173 64.7794 40.763 65.7947 40.9858C67.5496 41.3706 69.1604 41.9923 70.5887 42.7344C72.0171 43.4766 73.2641 44.3388 74.3262 45.2271C74.7607 45.5907 75.164 45.9586 75.5389 46.3257L75.8783 46.665C76.349 47.1475 76.77 47.6262 77.1449 48.0878C77.892 49.0076 78.4579 49.8624 78.8851 50.5805C79.3122 51.2986 79.6025 51.8808 79.7971 52.2771C79.8944 52.4752 79.9674 52.6259 80.0188 52.7273C80.0702 52.8285 80.0989 52.8802 80.1078 52.8767C80.1169 52.8767 80.1078 52.8158 80.0695 52.707C80.0346 52.5986 79.9782 52.438 79.8965 52.2317C79.7328 51.8189 79.4702 51.2182 79.0667 50.4763C78.6632 49.7345 78.1174 48.8527 77.3819 47.9013C76.9898 47.394 76.5431 46.8657 76.0381 46.334C76.1759 46.0605 76.3239 45.7883 76.4849 45.5177C76.9884 44.6704 77.6103 43.8444 78.3444 43.0753C79.0785 42.3062 79.9246 41.5937 80.8691 40.9757C81.6967 40.4344 82.6002 39.9657 83.5617 39.5949C84.5232 39.2241 85.5423 38.9512 86.5953 38.8054C86.6562 38.7964 86.7189 38.7897 86.7801 38.7819C88.3589 38.5846 89.9291 38.6704 91.4145 38.9599C92.9 39.2494 94.2995 39.7425 95.5618 40.3624C96.91 41.025 98.1017 41.8404 99.1297 42.7158C99.5415 43.0666 99.927 43.4273 100.287 43.7925L100.544 44.0579C100.98 44.5186 101.377 44.9843 101.735 45.4471C102.496 46.4305 103.086 47.3984 103.542 48.2808C103.998 49.1633 104.32 49.9602 104.555 50.6224C104.79 51.2846 104.938 51.8123 105.037 52.1711C105.087 52.3505 105.125 52.4891 105.153 52.581C105.181 52.673 105.199 52.7189 105.209 52.7171C105.218 52.7171 105.218 52.6648 105.209 52.5694C105.2 52.4734 105.181 52.3323 105.149 52.1477C105.085 51.7785 104.969 51.2363 104.763 50.5553C104.557 49.8743 104.259 49.0526 103.822 48.1415C103.384 47.2304 102.806 46.23 102.048 45.2103C101.7 44.7425 101.315 44.2697 100.889 43.8027C101.69 43.2145 102.567 42.6162 103.519 42.0272C104.58 41.3717 105.735 40.7265 106.98 40.1207C108.224 39.5149 109.558 38.9488 110.974 38.4477C112.231 38.0033 113.554 37.6119 114.93 37.3072C116.306 37.0023 117.735 36.7838 119.203 36.6857C119.682 36.6535 120.164 36.6343 120.65 36.6299L120.649 36.6265Z" fill="black"/>
<path d="M80.1747 118.632C73.7192 117.93 68.2778 115.278 64.0623 110.779C60.1648 106.62 58.2193 101.627 58.2378 95.8314C58.2469 94.3819 58.2979 93.6567 58.4092 93.5878C58.4997 93.5321 58.9045 93.4433 59.3085 93.3908C60.1508 93.2815 61.4523 92.8983 62.4548 92.4644C63.256 92.1177 65.0508 90.9826 65.2131 90.7201C65.2739 90.6215 65.0186 90.7506 64.6453 91.0076C63.7335 91.6349 61.8331 92.5107 60.689 92.8309C59.2301 93.2391 55.5493 93.2011 54.0564 92.7622C48.8344 91.2274 44.9749 87.2476 43.5971 81.977C43.2272 80.5619 43.0882 77.6183 43.3213 76.1356C43.8997 72.4575 45.8155 69.0233 48.5495 66.7646L49.5368 65.9489L50.6297 66.7338C51.6344 67.4551 53.2089 68.3482 53.476 68.3482C53.5377 68.3482 53.0712 68.0563 52.4399 67.6996C48.8319 65.6607 46.2629 61.9949 45.5395 57.8535C45.2336 56.1013 45.3366 53.5206 45.7734 51.9937C46.4925 49.48 48.2345 46.6036 50.0328 44.9599C52.3451 42.8467 54.8984 41.5508 58.1067 40.8623C59.5962 40.5427 63.3987 40.4937 64.9211 40.7747C70.5994 41.8225 75.8414 45.4593 78.7658 50.3796C79.1058 50.9517 79.4073 51.4197 79.4357 51.4197C79.4644 51.4197 79.3156 51.0808 79.1059 50.6666C78.6089 49.6848 77.5283 48.1015 76.699 47.14C76.3362 46.7193 76.0393 46.3259 76.0393 46.2656C76.0393 46.2055 76.3059 45.7427 76.6318 45.2373C78.8089 41.8608 82.172 39.6132 86.1803 38.8558C87.766 38.5562 90.362 38.6501 92.0548 39.0684C97.5511 40.4266 102.079 44.4476 104.303 49.9463C104.948 51.5399 105.05 51.5536 104.513 49.9741C103.861 48.0572 102.761 46.1041 101.464 44.5622C101.112 44.1442 100.848 43.78 100.877 43.753C101.413 43.2553 105.073 41.0791 106.812 40.2252C110.232 38.5452 112.965 37.6226 116.424 36.9808C118.643 36.569 123.35 36.6059 125.39 37.0514C130.587 38.1858 134.995 41.4233 137.005 45.5829C137.611 46.8376 138.301 49.1697 138.301 49.9679V50.453L137.692 50.3641C137.356 50.3153 136.372 50.2456 135.504 50.2095L133.926 50.1442L135.344 50.2812C146.29 51.3384 154.852 59.0973 156.31 69.2808C157.379 76.7505 154.108 84.4787 147.568 89.9362C145.588 91.588 141.807 93.8269 141.681 93.4214C141.65 93.3211 141.484 92.7547 141.313 92.1629C140.241 88.4584 137.426 84.5837 134.342 82.5647C133.727 82.1622 133.7 82.1549 134.133 82.5072C136.849 84.7193 138.553 86.7819 139.916 89.509C140.486 90.6479 141.2 92.7882 141.473 94.1715C141.747 95.565 141.711 99.1431 141.407 100.676C140.614 104.679 138.69 108.177 135.734 110.99C132.858 113.727 129.501 115.445 125.461 116.246C120.087 117.312 114.054 116.094 109.288 112.98C108.22 112.282 105.93 110.426 105.325 109.767L104.987 109.399L105.861 107.631C107.299 104.724 107.932 101.514 107.653 98.547L107.518 97.1124L107.504 99.1926C107.468 104.58 105.77 108.575 101.989 112.176C100.34 113.746 98.896 114.73 96.6258 115.829C91.6109 118.258 85.8158 119.246 80.1746 118.632L80.1747 118.632ZM107.409 96.4309C107.369 96.3323 107.337 96.4127 107.337 96.6102C107.337 96.8075 107.369 96.8882 107.409 96.7895C107.449 96.6909 107.449 96.5295 107.409 96.4309V96.4309Z" fill="#F0F0F0"/>
<path fill-rule="evenodd" clip-rule="evenodd" d="M21.821 11.8433C21.5676 11.9383 21.3153 12.0462 21.0674 12.1647C20.8889 12.2501 20.714 12.3408 20.5429 12.4365C19.8033 12.8504 19.1397 13.3552 18.5678 13.9147C17.9958 14.4742 17.5168 15.0878 17.1311 15.7192C16.6809 16.4581 16.362 17.2149 16.1456 17.9416C15.9291 18.6684 15.8141 19.3644 15.7631 19.9977C15.7117 20.631 15.7256 21.2026 15.7721 21.6911C15.8156 22.1795 15.8902 22.5853 15.9637 22.9018C16.0264 23.1704 16.087 23.3745 16.136 23.5105C16.1511 23.5505 16.1638 23.5836 16.176 23.6118C16.1142 23.6449 16.0505 23.6806 15.9854 23.7204C15.7277 23.8776 15.4508 24.086 15.181 24.3575C14.9023 24.6388 14.6341 24.9845 14.4078 25.3928C14.1816 25.8009 13.9969 26.271 13.8794 26.7818C13.7838 27.1976 13.7313 27.6391 13.7249 28.0935C13.7158 28.548 13.757 29.0157 13.8427 29.4831C13.8427 29.4995 13.8518 29.5161 13.8518 29.5326C13.9652 30.1437 14.1517 30.7278 14.3988 31.2558C14.6461 31.7836 14.9529 32.2552 15.2973 32.6548C15.7295 33.1538 16.2147 33.5285 16.6774 33.7993C17.1401 34.0701 17.5802 34.238 17.9511 34.3393C18.3221 34.4406 18.6246 34.4761 18.8306 34.4841C18.9037 34.4841 18.9593 34.4841 19.008 34.4841C19.0237 34.5563 19.0402 34.6304 19.0594 34.7067C19.1265 34.9687 19.2186 35.2521 19.3451 35.5474C19.4717 35.8428 19.6323 36.1495 19.8318 36.4578C20.0312 36.7662 20.2698 37.0768 20.5509 37.3723C20.8321 37.6677 21.1556 37.9481 21.5211 38.1997C21.966 38.5053 22.4721 38.7639 23.0213 38.9533C23.5704 39.1426 24.1626 39.2631 24.7747 39.294C25.0865 39.3098 25.3971 39.3031 25.7007 39.2714C26.5058 39.1913 27.2593 38.9535 27.9159 38.6206C28.5723 38.2878 29.1314 37.8595 29.5764 37.3987C30.0341 36.9241 30.3693 36.4201 30.6098 35.9482C30.8503 35.4765 30.9967 35.0381 31.0844 34.6722C31.172 34.3063 31.2023 34.0118 31.2087 33.8118C31.2087 33.7944 31.2087 33.7822 31.2087 33.7665C31.3119 33.78 31.4164 33.7917 31.5228 33.8021C31.9385 33.843 32.3726 33.8569 32.8219 33.8439C33.2712 33.8304 33.7348 33.7917 34.2057 33.7322C34.9593 33.6379 35.7507 33.4919 36.538 33.2357C36.6762 33.1903 36.8125 33.1438 36.9475 33.0927C37.4121 32.9173 37.8562 32.7001 38.2637 32.4469C38.6712 32.1937 39.0424 31.9046 39.3675 31.5824C39.8221 31.1303 40.1743 30.6199 40.4302 30.1041C40.6862 29.5883 40.8456 29.0657 40.9263 28.5737C41.0156 28.0262 41.0082 27.5202 40.9533 27.084C40.8985 26.6478 40.7968 26.2806 40.6899 25.9908C40.5829 25.701 40.4724 25.4886 40.3868 25.3501C40.3868 25.3411 40.3777 25.3411 40.3777 25.3395C40.4395 25.3074 40.501 25.2759 40.5622 25.2411C41.0177 24.981 41.4648 24.6572 41.8835 24.2722C42.3021 23.8872 42.6924 23.4404 43.0341 22.937C43.3388 22.4888 43.6042 21.9959 43.8156 21.4662C44.027 20.9364 44.1854 20.3702 44.2703 19.78C44.407 18.8235 44.3504 17.8135 44.0964 16.8323C44.058 16.6859 44.0164 16.5405 43.97 16.3974C43.7903 15.8384 43.5498 15.3076 43.2579 14.8169C42.9661 14.326 42.6239 13.8757 42.2415 13.4771C41.8263 13.0451 41.3667 12.6753 40.886 12.3689C40.4055 12.0624 39.9038 11.8193 39.3986 11.6345C38.8218 11.4229 38.2399 11.2876 37.6759 11.2201C37.1117 11.153 36.566 11.153 36.0522 11.2065C35.6038 11.2544 35.181 11.3416 34.7912 11.455C34.4013 11.5685 34.043 11.7079 33.7186 11.8601C33.0696 12.1643 32.5583 12.5177 32.1704 12.8405C31.7824 13.1635 31.5155 13.4546 31.3489 13.6618C31.3489 13.6618 31.3489 13.6618 31.3489 13.6709C31.3281 13.6517 31.3089 13.6318 31.2871 13.6126C30.8581 13.2227 30.3314 12.8204 29.6985 12.4596C29.1011 12.119 28.4108 11.8165 27.6419 11.5996C26.8731 11.3827 26.0256 11.2512 25.1352 11.2493C24.4734 11.2493 23.7896 11.3189 23.1049 11.4705C22.6769 11.565 22.2493 11.69 21.827 11.8483L21.821 11.8433ZM22.2663 12.3103C22.5845 12.2 22.9051 12.1084 23.2261 12.0352C23.8682 11.8887 24.5108 11.8143 25.1326 11.8069C25.969 11.7963 26.7686 11.9055 27.501 12.0926C28.2332 12.2796 28.8969 12.5456 29.4774 12.8479C30.0923 13.1679 30.6163 13.5286 31.0503 13.8791C31.0816 13.9043 31.1112 13.9295 31.1416 13.9548C31.128 13.9826 31.1224 14.0018 31.128 14.0061C31.137 14.0152 31.1523 13.9971 31.1768 13.9835C31.5515 14.2967 31.8573 14.5989 32.1017 14.8602C32.3735 15.1507 32.5704 15.3918 32.7076 15.5543C32.8449 15.7167 32.9225 15.8007 32.9414 15.7887C32.9605 15.7766 32.9196 15.6698 32.8149 15.4811C32.7104 15.2924 32.5413 15.0224 32.2915 14.6991C32.0733 14.4167 31.794 14.0921 31.4405 13.7551C31.6345 13.5805 31.9203 13.3251 32.3182 13.0431C32.7161 12.7611 33.228 12.4525 33.8595 12.1923C34.1752 12.062 34.5216 11.9447 34.8941 11.8515C35.2666 11.7583 35.6653 11.6897 36.0867 11.6587C36.5692 11.6221 37.0798 11.636 37.6054 11.7126C38.1311 11.7883 38.6728 11.9262 39.2068 12.1327C39.6744 12.3137 40.1379 12.5472 40.58 12.8371C41.0221 13.127 41.4422 13.4734 41.8202 13.8745C42.169 14.2438 42.4819 14.6613 42.7491 15.116C43.0162 15.5706 43.2381 16.0626 43.4041 16.5797C43.4467 16.712 43.4842 16.8461 43.5189 16.9816C43.7535 17.8888 43.8086 18.8202 43.6879 19.6999C43.6139 20.2427 43.4753 20.7675 43.2847 21.2601C43.0939 21.7528 42.8517 22.2137 42.5749 22.6351C42.2639 23.108 41.9072 23.5325 41.5247 23.8996C41.1419 24.2668 40.7337 24.5771 40.3152 24.8308C39.8014 25.1428 39.2732 25.369 38.7629 25.5289C38.2528 25.6888 37.7605 25.7827 37.3056 25.8312C36.8043 25.8843 36.3473 25.8834 35.95 25.8564C35.5528 25.8294 35.2151 25.7745 34.9411 25.7219C34.6673 25.6689 34.4579 25.6165 34.3146 25.5834C34.1712 25.5504 34.093 25.5381 34.0869 25.5538C34.0779 25.5695 34.1471 25.613 34.2812 25.6769C34.416 25.7413 34.6198 25.8245 34.8938 25.9085C35.1677 25.992 35.5112 26.0761 35.9207 26.1324C36.3302 26.1891 36.8061 26.2169 37.3338 26.1864C37.8128 26.1586 38.3366 26.0817 38.8825 25.932C39.3316 25.8087 39.796 25.6351 40.2586 25.4C40.2586 25.4 40.2586 25.4 40.2586 25.4091C40.3046 25.5612 40.3749 25.7818 40.4412 26.0689C40.5074 26.356 40.5689 26.7102 40.5884 27.1211C40.6076 27.532 40.5884 27.999 40.4776 28.4955C40.3813 28.9421 40.2153 29.4115 39.9664 29.8727C39.7175 30.3339 39.3855 30.7867 38.9684 31.1853C38.6704 31.4711 38.3284 31.7309 37.9516 31.9581C37.575 32.1854 37.1629 32.381 36.7301 32.5451C36.6041 32.593 36.4765 32.6366 36.3467 32.6788C35.6073 32.9198 34.852 33.0653 34.1216 33.1686C33.665 33.2322 33.2214 33.2789 32.7925 33.3021C32.3636 33.3257 31.9493 33.3257 31.5561 33.3021C30.8374 33.2552 30.1843 33.1219 29.6169 32.9565C29.0495 32.7912 28.5688 32.5934 28.1807 32.4115C27.7927 32.2295 27.4967 32.0637 27.292 31.9527C27.0872 31.8415 26.9712 31.7858 26.9548 31.8076C26.9383 31.8294 27.0209 31.9279 27.2009 32.0827C27.3807 32.2375 27.6587 32.4473 28.039 32.675C28.4194 32.9027 28.9042 33.1466 29.4875 33.3547C29.9537 33.521 30.4836 33.664 31.0659 33.7536C31.0568 33.7693 31.0568 33.7807 31.0523 33.7981C30.9992 33.9861 30.9264 34.2614 30.8031 34.5989C30.6799 34.9363 30.5065 35.3354 30.2513 35.7614C29.996 36.1873 29.6586 36.6383 29.2196 37.0564C28.7933 37.463 28.2679 37.8381 27.6608 38.1288C27.0536 38.4197 26.3658 38.6266 25.6368 38.6944C25.3618 38.7205 25.0801 38.7257 24.7971 38.7118C24.2414 38.684 23.7013 38.5784 23.199 38.4119C22.6968 38.2454 22.2329 38.0187 21.8215 37.7502C21.4829 37.5295 21.1783 37.2798 20.9101 37.0173C20.642 36.7549 20.4099 36.4801 20.211 36.2035C20.0121 35.927 19.847 35.6498 19.7108 35.3821C19.5747 35.1143 19.4671 34.8558 19.3826 34.6152C19.2034 34.1057 19.1213 33.6781 19.0681 33.3834C19.0411 33.236 19.0221 33.1214 19.0046 33.0436C18.9872 32.9661 18.9724 32.9235 18.9567 32.9237C18.9402 32.9237 18.9236 32.9662 18.9097 33.046C18.8961 33.1261 18.8854 33.2437 18.8835 33.3979C18.8835 33.5522 18.8926 33.7417 18.9131 33.963C18.9267 34.0878 18.9471 34.2248 18.974 34.3682C18.9375 34.3562 18.8975 34.3439 18.8506 34.3299C18.6596 34.2706 18.3809 34.1871 18.0446 34.0492C17.7081 33.9113 17.3134 33.7167 16.9036 33.4369C16.4938 33.1569 16.0687 32.7919 15.6959 32.3254C15.3959 31.952 15.1296 31.5144 14.9131 31.0263C14.6967 30.5381 14.5307 29.9992 14.4238 29.4334C14.4238 29.4183 14.4147 29.402 14.4147 29.3874C14.3373 28.954 14.2969 28.524 14.2968 28.1075C14.2968 27.6912 14.3368 27.2899 14.4137 26.911C14.5083 26.4465 14.6579 26.0159 14.8438 25.6369C15.0298 25.258 15.2505 24.9306 15.4844 24.6584C15.7099 24.395 15.9463 24.1824 16.1677 24.0113C16.3891 23.8403 16.5965 23.7106 16.7699 23.6103C16.9431 23.5101 17.0833 23.4386 17.1778 23.3856C17.2724 23.3326 17.3214 23.2965 17.3153 23.2763C17.3062 23.2563 17.2482 23.252 17.1382 23.2672C17.0281 23.2837 16.8684 23.322 16.67 23.3936C16.5418 23.4397 16.3957 23.5033 16.2398 23.5831C16.2398 23.557 16.2308 23.5292 16.2308 23.4961C16.2157 23.3538 16.1882 23.1447 16.1576 22.8758C16.1228 22.5592 16.0871 22.1582 16.0776 21.6823C16.0686 21.2063 16.0867 20.6547 16.163 20.0485C16.2395 19.4424 16.375 18.7813 16.6016 18.096C16.8283 17.4106 17.1464 16.7015 17.5844 16.0154C17.9585 15.4278 18.4193 14.858 18.9622 14.3375C19.5051 13.817 20.1306 13.3462 20.8242 12.96C20.9846 12.8707 21.1483 12.7858 21.3157 12.7058C21.6254 12.5576 21.9412 12.4292 22.2596 12.3189L22.2663 12.3103Z" fill="#444444"/>
<path d="M26.259 38.613C25.0246 38.8571 23.678 38.6773 22.4901 38.1109C20.8311 37.3192 19.6632 35.855 19.198 33.984C19.1027 33.6006 19.0103 33.2122 18.9927 33.1209C18.9379 32.8382 18.8981 33.419 18.9404 33.8798C18.9605 34.0986 18.9675 34.2974 18.9561 34.3217C18.9222 34.3939 18.1979 34.1316 17.611 33.8347C16.6534 33.3501 15.9523 32.7429 15.3914 31.9123C15.14 31.5403 15.0565 31.3567 14.7658 30.5375C14.401 29.5093 14.3248 29.1384 14.3017 28.2802C14.2478 26.2868 15.1064 24.6 16.6491 23.6661C17.3134 23.2641 17.3119 23.2655 17.0018 23.3265C16.8498 23.3561 16.6177 23.4334 16.486 23.4975C16.3543 23.5619 16.2389 23.593 16.2297 23.5672C16.2206 23.541 16.1818 23.212 16.1443 22.836C15.718 18.576 17.3069 15.105 20.622 13.0539C21.2796 12.6471 22.9303 12.0471 23.7366 11.9219C26.271 11.5283 28.6871 12.1253 30.784 13.6634C31.3024 14.0436 32.033 14.7384 32.526 15.3198C32.7147 15.5424 32.8687 15.6963 32.868 15.6617C32.868 15.4813 32.2504 14.6596 31.4752 13.7988C31.3734 13.6858 32.5907 12.7889 33.3802 12.3953C35.3949 11.3907 37.6836 11.3783 39.7249 12.3613C41.1843 13.0638 42.1901 14.0301 42.9527 15.4626C44.0094 17.4475 44.0247 19.9144 42.9927 21.923C42.606 22.6754 42.223 23.2023 41.643 23.7796C40.7525 24.666 40.1809 25.0251 39.0027 25.4388C38.0986 25.7562 37.5478 25.8613 36.6628 25.8855C36.2029 25.8976 35.1725 25.7934 34.7122 25.6875C34.1825 25.5656 34.1581 25.5636 34.3207 25.657C34.6087 25.8222 35.4872 26.0565 36.058 26.1205C37.2745 26.2567 38.2192 26.1404 39.4391 25.7045L40.2941 25.3989L40.3917 25.7819C41.0742 28.4592 40.0571 30.8199 37.6512 32.1433C36.4282 32.8161 34.0773 33.3253 32.1871 33.3268C30.7016 33.3268 29.1506 32.9303 27.7026 32.1771C27.3247 31.9807 27.0248 31.8476 27.0361 31.8815C27.0822 32.0209 27.9406 32.5944 28.5761 32.9107C29.2424 33.2423 30.0932 33.5398 30.6904 33.65C30.8556 33.6805 31.0113 33.7222 31.0365 33.7421C31.107 33.7987 30.7768 34.7563 30.4913 35.323C29.6218 37.0491 28.0704 38.2555 26.2593 38.6138L26.259 38.613Z" fill="#F0F0F0"/>
<path d="M30.8804 39.1366L31.9051 38.0332L65.7179 58.9199L30.8804 39.1366Z" fill="black"/>
<path d="M38.9985 37.3634L66.4271 58.132L40.5749 36.457L38.9985 37.3634Z" fill="black"/>
<path d="M43.0566 28.8897L44.1207 26.998L67.6085 57.2642L43.0566 28.8897Z" fill="black"/>
<path fill-rule="evenodd" clip-rule="evenodd" d="M181.277 140.283C181.31 140.223 181.343 140.161 181.373 140.101C181.649 139.556 181.858 139 182.005 138.448C182.152 137.896 182.238 137.349 182.269 136.823C182.306 136.178 182.26 135.566 182.168 135.005C182.074 134.444 181.928 133.934 181.759 133.482C181.573 132.984 181.36 132.555 181.149 132.197C180.937 131.839 180.727 131.55 180.546 131.326C180.546 131.317 180.537 131.317 180.535 131.312C180.857 131.421 181.2 131.506 181.561 131.558C181.956 131.613 182.371 131.63 182.795 131.599C183.219 131.567 183.653 131.486 184.08 131.348C184.495 131.215 184.901 131.028 185.287 130.791C185.673 130.554 186.038 130.268 186.367 129.936C186.866 129.433 187.262 128.849 187.533 128.23C187.711 127.824 187.834 127.407 187.909 126.992C187.984 126.576 188.01 126.162 187.996 125.763C187.983 125.363 187.927 124.979 187.838 124.616C187.749 124.252 187.628 123.909 187.481 123.596C187.328 123.269 187.15 122.975 186.959 122.712C186.767 122.449 186.563 122.217 186.357 122.015C186.152 121.814 185.946 121.641 185.746 121.496C185.546 121.35 185.353 121.231 185.174 121.134C184.817 120.939 184.517 120.831 184.31 120.773C184.206 120.743 184.125 120.727 184.07 120.719C184.07 120.719 184.07 120.719 184.061 120.719C184.084 120.705 184.109 120.69 184.137 120.671C184.271 120.582 184.463 120.439 184.693 120.233C184.922 120.027 185.191 119.757 185.469 119.412C185.748 119.066 186.036 118.646 186.299 118.146C186.539 117.688 186.758 117.164 186.92 116.578C187.082 115.992 187.189 115.345 187.2 114.655C187.209 114.147 187.164 113.618 187.061 113.082C186.958 112.545 186.793 112.001 186.564 111.468C186.358 110.988 186.099 110.516 185.784 110.068C185.469 109.621 185.099 109.198 184.674 108.818C184.149 108.35 183.543 107.954 182.883 107.648C182.491 107.466 182.087 107.319 181.679 107.208C181.109 107.052 180.528 106.966 179.957 106.944C179.386 106.924 178.823 106.968 178.284 107.073C177.69 107.19 177.129 107.38 176.612 107.62C176.095 107.861 175.621 108.152 175.198 108.474C174.699 108.855 174.27 109.279 173.911 109.72C173.552 110.161 173.265 110.617 173.043 111.066C172.736 111.684 172.548 112.282 172.437 112.814C172.393 113.027 172.362 113.23 172.339 113.421C172.311 113.362 172.28 113.301 172.245 113.235C172.125 113.014 171.962 112.751 171.741 112.464C171.519 112.177 171.24 111.868 170.892 111.562C170.575 111.284 170.202 111.01 169.77 110.766C169.337 110.523 168.843 110.31 168.297 110.162C167.853 110.043 167.375 109.967 166.877 109.946C166.378 109.926 165.858 109.961 165.334 110.06C164.866 110.149 164.396 110.289 163.935 110.485C163.475 110.681 163.025 110.933 162.604 111.244C161.955 111.725 161.381 112.343 160.932 113.059C160.839 113.208 160.753 113.361 160.672 113.515C160.432 113.972 160.246 114.45 160.116 114.934C159.987 115.418 159.914 115.909 159.898 116.393C159.879 116.92 159.927 117.434 160.027 117.924C160.128 118.415 160.281 118.879 160.471 119.31C160.69 119.805 160.959 120.256 161.259 120.654C161.559 121.052 161.89 121.396 162.234 121.687C162.43 121.853 162.629 122 162.824 122.136C162.624 122.094 162.374 122.05 162.072 122.018C161.639 121.972 161.103 121.951 160.482 122C159.861 122.049 159.155 122.17 158.404 122.414C157.709 122.64 156.977 122.973 156.259 123.437C155.542 123.901 154.838 124.497 154.217 125.231C153.702 125.839 153.246 126.54 152.884 127.317C152.523 128.094 152.255 128.947 152.118 129.845C151.968 130.826 151.975 131.857 152.153 132.879C152.275 133.576 152.475 134.25 152.741 134.884C153.037 135.585 153.414 136.233 153.849 136.817C154.283 137.401 154.773 137.921 155.294 138.374C155.885 138.888 156.515 139.316 157.156 139.659C157.797 140.003 158.449 140.261 159.087 140.444C159.639 140.602 160.178 140.704 160.694 140.764C161.21 140.823 161.702 140.839 162.162 140.826C163.082 140.798 163.872 140.652 164.502 140.479C165.132 140.305 165.604 140.106 165.916 139.956C166.072 139.88 166.189 139.816 166.265 139.769C166.265 139.769 166.265 139.769 166.274 139.76C166.481 140.233 166.754 140.736 167.114 141.237C167.411 141.651 167.766 142.062 168.184 142.45C168.602 142.838 169.083 143.202 169.619 143.52C170.08 143.794 170.583 144.035 171.122 144.226C171.661 144.417 172.236 144.558 172.835 144.634C173.383 144.703 173.948 144.716 174.519 144.671C175.09 144.626 175.667 144.522 176.234 144.357C176.518 144.274 176.798 144.176 177.076 144.063C177.876 143.737 178.613 143.294 179.252 142.765C179.711 142.384 180.118 141.959 180.471 141.509C180.781 141.115 181.049 140.702 181.276 140.279L181.277 140.283ZM180.911 139.863C180.673 140.316 180.388 140.76 180.053 141.179C179.718 141.597 179.333 141.991 178.902 142.343C178.305 142.833 177.617 143.244 176.869 143.549C176.609 143.655 176.345 143.748 176.079 143.826C175.549 143.981 175.01 144.081 174.476 144.127C173.942 144.172 173.414 144.163 172.902 144.103C172.342 144.038 171.803 143.911 171.294 143.739C170.785 143.567 170.306 143.35 169.866 143.1C169.355 142.809 168.895 142.475 168.49 142.118C168.085 141.762 167.734 141.382 167.439 140.999C166.989 140.414 166.664 139.823 166.425 139.282C166.187 138.741 166.035 138.249 165.934 137.842C165.833 137.434 165.782 137.11 165.745 136.889C165.707 136.669 165.686 136.552 165.666 136.553C165.646 136.553 165.629 136.672 165.629 136.899C165.629 137.125 165.646 137.461 165.716 137.887C165.786 138.312 165.908 138.828 166.127 139.403C166.165 139.501 166.206 139.602 166.25 139.704H166.241C166.156 139.73 166.032 139.773 165.87 139.828C165.546 139.936 165.068 140.092 164.445 140.224C163.822 140.356 163.051 140.463 162.162 140.457C161.718 140.457 161.244 140.424 160.75 140.353C160.257 140.281 159.743 140.172 159.22 140.009C158.616 139.82 158 139.561 157.396 139.224C156.792 138.887 156.199 138.471 155.644 137.977C155.155 137.542 154.695 137.046 154.289 136.491C153.883 135.937 153.53 135.324 153.257 134.665C153.008 134.069 152.823 133.435 152.708 132.779C152.539 131.817 152.53 130.847 152.667 129.924C152.792 129.079 153.037 128.272 153.371 127.535C153.706 126.798 154.128 126.13 154.605 125.548C155.182 124.845 155.84 124.266 156.514 123.809C157.187 123.351 157.876 123.012 158.534 122.774C159.245 122.517 159.92 122.375 160.518 122.299C161.115 122.224 161.637 122.213 162.062 122.226C162.488 122.238 162.819 122.274 163.044 122.296C163.054 122.296 163.061 122.296 163.071 122.296C163.21 122.387 163.346 122.474 163.478 122.556C164.349 123.096 165.077 123.477 165.587 123.72C165.841 123.842 166.041 123.93 166.18 123.983C166.318 124.036 166.394 124.056 166.402 124.04C166.411 124.025 166.349 123.974 166.226 123.893C166.103 123.811 165.918 123.698 165.68 123.55C165.202 123.256 164.509 122.83 163.675 122.255C163.487 122.126 163.294 121.99 163.098 121.843C162.903 121.696 162.708 121.539 162.516 121.365C162.205 121.082 161.906 120.751 161.636 120.373C161.367 119.995 161.126 119.57 160.933 119.107C160.764 118.704 160.631 118.269 160.546 117.815C160.459 117.362 160.421 116.889 160.443 116.407C160.462 115.964 160.532 115.514 160.653 115.07C160.775 114.626 160.948 114.186 161.169 113.766C161.244 113.625 161.325 113.485 161.411 113.348C161.824 112.69 162.346 112.121 162.936 111.678C163.318 111.391 163.73 111.155 164.152 110.97C164.575 110.785 165.007 110.649 165.438 110.56C165.922 110.46 166.404 110.418 166.867 110.426C167.33 110.435 167.776 110.493 168.192 110.593C168.703 110.715 169.168 110.897 169.584 111.11C170 111.323 170.365 111.568 170.679 111.816C171.024 112.089 171.309 112.368 171.541 112.627C171.774 112.886 171.954 113.126 172.094 113.325C172.188 113.459 172.257 113.567 172.318 113.661C172.302 113.85 172.294 114.027 172.293 114.187C172.293 114.567 172.321 114.86 172.353 115.056C172.384 115.253 172.417 115.354 172.435 115.352C172.454 115.352 172.458 115.246 172.462 115.05C172.462 114.854 172.471 114.564 172.505 114.197C172.514 114.117 172.522 114.033 172.533 113.946C172.533 113.946 172.542 113.933 172.533 113.921C172.572 113.613 172.634 113.263 172.736 112.879C172.87 112.374 173.074 111.812 173.387 111.238C173.613 110.822 173.898 110.4 174.247 109.995C174.597 109.589 175.011 109.2 175.487 108.852C175.89 108.558 176.338 108.295 176.824 108.078C177.31 107.861 177.834 107.693 178.385 107.592C178.884 107.499 179.405 107.462 179.935 107.486C180.465 107.509 181.005 107.593 181.534 107.738C181.913 107.843 182.286 107.98 182.649 108.149C183.261 108.432 183.821 108.796 184.307 109.225C184.7 109.573 185.047 109.963 185.343 110.377C185.639 110.79 185.885 111.227 186.084 111.672C186.304 112.167 186.466 112.674 186.572 113.174C186.678 113.675 186.728 114.17 186.731 114.646C186.74 115.293 186.653 115.906 186.517 116.466C186.381 117.026 186.193 117.534 185.983 117.981C185.753 118.471 185.496 118.89 185.249 119.239C185.001 119.589 184.762 119.869 184.558 120.091C184.355 120.313 184.188 120.475 184.076 120.588C183.964 120.7 183.908 120.763 183.918 120.776C183.927 120.785 183.953 120.776 184.001 120.747C184.039 120.777 184.125 120.822 184.258 120.891C184.444 120.988 184.716 121.129 185.038 121.347C185.359 121.566 185.73 121.862 186.092 122.261C186.273 122.461 186.453 122.687 186.619 122.939C186.785 123.191 186.938 123.47 187.066 123.775C187.19 124.067 187.292 124.383 187.364 124.717C187.435 125.052 187.476 125.406 187.481 125.771C187.49 126.136 187.455 126.511 187.381 126.887C187.307 127.263 187.191 127.639 187.028 128.003C186.779 128.557 186.419 129.083 185.967 129.538C185.669 129.838 185.339 130.098 184.992 130.315C184.645 130.531 184.28 130.704 183.907 130.829C183.524 130.957 183.134 131.036 182.749 131.071C182.364 131.107 181.984 131.1 181.621 131.058C181.258 131.016 180.911 130.938 180.588 130.834C180.264 130.73 179.963 130.6 179.689 130.451C179.18 130.174 178.764 129.837 178.433 129.504C178.102 129.171 177.855 128.841 177.672 128.56C177.488 128.278 177.366 128.043 177.281 127.883C177.196 127.724 177.147 127.64 177.127 127.647C177.107 127.656 177.116 127.752 177.164 127.93C177.214 128.108 177.304 128.367 177.464 128.68C177.624 128.993 177.853 129.359 178.182 129.736C178.51 130.112 178.937 130.498 179.476 130.822C179.711 130.962 179.966 131.089 180.239 131.199C180.287 131.269 180.338 131.343 180.393 131.428C180.547 131.665 180.727 131.961 180.909 132.32C181.091 132.68 181.276 133.102 181.432 133.588C181.574 134.029 181.694 134.523 181.766 135.06C181.838 135.597 181.861 136.177 181.81 136.785C181.769 137.28 181.678 137.794 181.529 138.312C181.381 138.829 181.174 139.349 180.908 139.857L180.911 139.863Z" fill="black"/>
<path d="M153.911 126.52C154.749 125.167 155.932 124.058 157.329 123.316C158.497 122.695 159.881 122.308 161.185 122.237C161.624 122.213 162.398 122.228 162.81 122.268L163.063 122.292L163.705 122.686C164.362 123.088 165.892 123.884 166.205 123.986C166.346 124.032 166.358 124.031 166.296 123.973C166.258 123.937 165.891 123.698 165.482 123.443C164.131 122.599 163.091 121.884 162.645 121.493C160.993 120.045 160.179 117.847 160.509 115.726C160.629 114.954 160.876 114.274 161.303 113.542C161.774 112.733 162.279 112.169 163.017 111.629C164.126 110.819 165.518 110.394 166.946 110.432C167.405 110.444 168.111 110.555 168.529 110.681C169.862 111.082 171.144 112.016 172.015 113.223L172.326 113.653L172.311 113.932C172.283 114.436 172.36 115.289 172.43 115.268C172.442 115.268 172.459 115.058 172.466 114.81C172.538 112.309 173.592 110.239 175.501 108.849C177.732 107.223 180.597 107.038 183.064 108.359C184.622 109.193 185.795 110.638 186.375 112.435C187.136 114.798 186.667 117.38 185.099 119.46C184.896 119.73 184.654 120.008 184.322 120.352C184.167 120.513 184.023 120.664 184.001 120.687C183.967 120.722 184.037 120.771 184.489 121.021C185.852 121.776 186.754 122.814 187.217 124.161C187.719 125.621 187.495 127.437 186.659 128.69C185.313 130.706 182.988 131.544 180.634 130.862C180.148 130.721 179.208 130.206 178.811 129.862C178.246 129.374 177.8 128.818 177.381 128.08C177.263 127.872 177.158 127.705 177.147 127.708C177.104 127.721 177.238 128.17 177.364 128.437C177.707 129.163 178.14 129.744 178.717 130.255C178.968 130.477 179.132 130.588 179.662 130.891L180.304 131.258L180.585 131.733C181.923 133.993 182.197 136.431 181.381 138.814C181.176 139.413 180.555 140.547 180.147 141.066C179.137 142.353 177.843 143.256 176.275 143.768C174.889 144.22 173.298 144.277 171.9 143.925C171.194 143.747 170.932 143.639 170.045 143.163C169.368 142.8 169.134 142.659 168.912 142.48C167.938 141.697 167.235 140.859 166.687 139.825C166.26 139.02 165.953 138.101 165.769 137.082C165.72 136.808 165.67 136.586 165.66 136.589C165.615 136.602 165.65 137.336 165.716 137.78C165.785 138.242 166.046 139.209 166.19 139.54L166.26 139.701L165.892 139.831C165.689 139.902 165.262 140.028 164.943 140.109C162.708 140.68 160.462 140.554 158.47 139.744C155.57 138.566 153.426 136.092 152.789 133.191C152.281 130.877 152.679 128.511 153.912 126.519L153.911 126.52Z" fill="#F0F0F0"/>
<path d="M163.31 107.552L162.516 108.732L127.906 94.2129L163.31 107.552Z" fill="black"/>
<path d="M155.997 110.399L127.36 95.0527L154.66 111.476L155.997 110.399Z" fill="black"/>
<path d="M153.455 118.898L152.74 120.819L126.385 96.0332L153.455 118.898Z" fill="black"/>
<path fill-rule="evenodd" clip-rule="evenodd" d="M176.683 17.9313C176.578 17.7722 176.468 17.6188 176.353 17.4742C175.94 16.9568 175.468 16.5402 174.995 16.2174C174.522 15.8945 174.046 15.6662 173.613 15.5123C173.297 15.4003 173.004 15.3275 172.745 15.2796C172.486 15.2317 172.259 15.209 172.075 15.2012C171.946 15.1921 171.84 15.2012 171.753 15.2012C171.753 15.1542 171.744 15.1063 171.743 15.0589C171.708 14.6905 171.638 14.3085 171.529 13.9196C171.42 13.5309 171.271 13.136 171.077 12.7484C170.882 12.3608 170.642 11.979 170.354 11.6193C170.049 11.2387 169.692 10.8855 169.29 10.5711C168.887 10.2566 168.44 9.98054 167.957 9.76066C167.407 9.50961 166.832 9.34006 166.258 9.25137C165.375 9.11587 164.504 9.17478 163.719 9.36738C162.934 9.55992 162.233 9.88469 161.651 10.2768C161.35 10.4805 161.081 10.702 160.842 10.9287C160.74 11.0262 160.645 11.125 160.554 11.224C160.491 11.1786 160.408 11.1244 160.302 11.0632C160.166 10.9848 159.993 10.8961 159.782 10.8063C159.572 10.7166 159.324 10.6254 159.039 10.5487C158.741 10.4686 158.402 10.4053 158.03 10.3728C157.657 10.3397 157.249 10.338 156.817 10.3833C156.385 10.4303 155.929 10.5252 155.466 10.6804C155.003 10.8357 154.534 11.0531 154.082 11.3421C153.417 11.7681 152.796 12.3488 152.294 13.061C151.792 13.773 151.409 14.616 151.224 15.5322C151.206 15.623 151.189 15.7134 151.174 15.8053C151.039 16.6713 151.087 17.5394 151.275 18.3418C151.462 19.1442 151.792 19.8806 152.212 20.5097C152.501 20.9423 152.831 21.3234 153.181 21.651C153.531 21.9786 153.9 22.2535 154.27 22.4801C154.64 22.7066 155.011 22.8834 155.368 23.0201C155.726 23.1568 156.069 23.253 156.39 23.3171C156.428 23.3261 156.468 23.3328 156.506 23.3397C156.475 23.3964 156.441 23.4618 156.404 23.541C156.272 23.8246 156.107 24.2543 155.981 24.817C155.915 25.1143 155.859 25.4489 155.829 25.8154C155.799 26.1818 155.794 26.5791 155.82 27.0012C155.85 27.4234 155.916 27.8696 156.028 28.3271C156.14 28.7845 156.297 29.2534 156.509 29.7186C156.846 30.4574 157.321 31.1833 157.923 31.8305C158.511 32.462 159.182 32.9764 159.877 33.3617C160.443 33.6748 161.022 33.8996 161.582 34.0523C162.143 34.2051 162.685 34.2856 163.185 34.3153C163.711 34.3466 164.189 34.3244 164.607 34.2693C165.025 34.2161 165.38 34.1339 165.666 34.0498C165.951 33.9654 166.167 33.8803 166.31 33.8126C166.331 33.802 166.348 33.7934 166.366 33.7839C166.476 34.072 166.616 34.3706 166.796 34.6706C166.985 34.9854 167.217 35.3006 167.501 35.5969C167.947 36.0601 168.519 36.4649 169.188 36.7526C169.857 37.0401 170.624 37.2111 171.424 37.2047C171.982 37.1956 172.551 37.1122 173.108 36.9431C173.665 36.774 174.21 36.5241 174.719 36.1973C174.961 36.0415 175.192 35.8704 175.408 35.6876C175.993 35.1917 176.474 34.6127 176.855 34.0007C177.235 33.3886 177.514 32.743 177.703 32.1059C177.936 31.3207 178.037 30.5516 178.053 29.8379C178.07 29.1241 178.001 28.4662 177.894 27.8861C177.801 27.3759 177.677 26.9245 177.546 26.5367C177.416 26.1489 177.28 25.8239 177.157 25.5655C177.034 25.3071 176.925 25.1141 176.844 24.9873C176.78 24.8855 176.734 24.8278 176.71 24.8126C176.88 24.5565 177.043 24.2668 177.187 23.9438C177.391 23.4892 177.554 22.9684 177.646 22.402C177.737 21.8355 177.756 21.223 177.674 20.5961C177.628 20.2411 177.55 19.8831 177.439 19.5291C177.257 18.946 176.994 18.4067 176.679 17.9296L176.683 17.9313ZM176.228 18.2265C176.509 18.6682 176.744 19.1641 176.91 19.6973C177.012 20.0212 177.084 20.3478 177.129 20.6713C177.209 21.243 177.204 21.806 177.138 22.3297C177.069 22.8534 176.938 23.3382 176.771 23.7688C176.599 24.2145 176.388 24.6035 176.177 24.9314C175.966 25.2593 175.755 25.5265 175.571 25.74C175.388 25.9536 175.234 26.1131 175.13 26.2258C175.027 26.3385 174.974 26.4047 174.989 26.4237C175.002 26.4429 175.082 26.4132 175.216 26.3322C175.35 26.2512 175.538 26.1192 175.758 25.9246C175.978 25.7299 176.23 25.4718 176.481 25.1435C176.554 25.048 176.627 24.9473 176.699 24.8397C176.699 24.8746 176.721 24.9399 176.754 25.0367C176.803 25.1772 176.88 25.3808 176.971 25.6461C177.062 25.9114 177.169 26.238 177.268 26.623C177.368 27.008 177.461 27.4513 177.527 27.947C177.602 28.5104 177.643 29.1435 177.606 29.8224C177.568 30.5013 177.454 31.2253 177.22 31.9569C177.031 32.5499 176.761 33.1491 176.401 33.7144C176.042 34.2797 175.594 34.8117 175.055 35.2636C174.856 35.4302 174.645 35.5851 174.423 35.7277C173.957 36.0269 173.458 36.2592 172.95 36.4172C172.443 36.5754 171.929 36.659 171.424 36.6682C170.701 36.6818 170 36.5406 169.385 36.2934C168.77 36.0463 168.241 35.6937 167.823 35.2854C167.555 35.0249 167.33 34.7444 167.142 34.4599C166.954 34.1755 166.804 33.8881 166.683 33.6111C166.513 33.2215 166.402 32.8513 166.327 32.5223C166.252 32.1933 166.214 31.9043 166.19 31.6678C166.167 31.4313 166.158 31.2466 166.149 31.1209C166.14 30.9953 166.132 30.9287 166.115 30.9271C166.099 30.9271 166.076 30.9898 166.053 31.1154C166.029 31.2413 166.007 31.4298 166 31.6751C165.991 31.9204 166 32.2229 166.055 32.5726C166.104 32.9058 166.191 33.2822 166.335 33.6831C166.316 33.6831 166.298 33.6922 166.275 33.6922C166.123 33.72 165.903 33.7671 165.618 33.8132C165.334 33.8593 164.986 33.9055 164.584 33.9256C164.181 33.9455 163.723 33.9407 163.226 33.8865C162.755 33.8342 162.249 33.7372 161.727 33.5774C161.205 33.4175 160.668 33.1949 160.147 32.8946C159.506 32.5252 158.886 32.0396 158.337 31.4507C157.776 30.8472 157.329 30.1763 157.003 29.4932C156.797 29.063 156.639 28.6273 156.522 28.2012C156.404 27.7751 156.329 27.3582 156.284 26.961C156.239 26.5639 156.224 26.1867 156.232 25.8373C156.241 25.4878 156.27 25.1652 156.31 24.8761C156.386 24.3285 156.495 23.8985 156.573 23.6026C156.598 23.5059 156.619 23.4302 156.635 23.3626C156.912 23.407 157.169 23.4288 157.398 23.4366C157.693 23.4472 157.946 23.4366 158.149 23.4123C158.353 23.3915 158.508 23.3627 158.612 23.3366C158.715 23.3105 158.767 23.2878 158.765 23.2723C158.765 23.2566 158.708 23.2505 158.603 23.2461C158.498 23.2461 158.342 23.2461 158.143 23.2356C157.944 23.2265 157.7 23.2129 157.418 23.1782C157.136 23.1433 156.816 23.0872 156.468 22.9949C156.168 22.9157 155.848 22.809 155.517 22.664C155.187 22.519 154.846 22.3372 154.507 22.1124C154.168 21.8876 153.833 21.6187 153.516 21.3054C153.199 20.992 152.901 20.6336 152.643 20.2299C152.268 19.6438 151.977 18.9606 151.811 18.2205C151.645 17.4804 151.606 16.683 151.729 15.8921C151.743 15.8085 151.756 15.7246 151.773 15.6417C151.94 14.8059 152.288 14.0308 152.742 13.3708C153.197 12.7107 153.757 12.1663 154.36 11.762C154.769 11.4869 155.197 11.2747 155.623 11.1172C156.048 10.9597 156.471 10.8568 156.873 10.7961C157.276 10.7353 157.659 10.717 158.012 10.7282C158.364 10.7387 158.686 10.7795 158.974 10.8348C159.251 10.888 159.496 10.9532 159.706 11.0184C159.917 11.0836 160.094 11.1486 160.238 11.2034C160.34 11.2425 160.418 11.2739 160.486 11.3002C160.391 11.4059 160.302 11.5111 160.219 11.6164C159.86 12.0757 159.612 12.5207 159.445 12.8982C159.277 13.2758 159.188 13.586 159.141 13.8C159.094 14.0139 159.088 14.1329 159.111 14.139C159.134 14.1481 159.183 14.0386 159.27 13.8427C159.357 13.6468 159.483 13.3601 159.678 13.0147C159.873 12.6693 160.139 12.2655 160.503 11.852C160.866 11.4385 161.329 11.0163 161.902 10.6592C162.454 10.3147 163.111 10.0321 163.839 9.86953C164.568 9.70692 165.368 9.66451 166.173 9.79549C166.696 9.87993 167.223 10.0373 167.728 10.2678C168.17 10.4696 168.582 10.7204 168.953 11.0062C169.324 11.292 169.655 11.6136 169.939 11.9582C170.207 12.2835 170.433 12.6292 170.62 12.983C170.807 13.3367 170.954 13.6992 171.066 14.0569C171.177 14.4145 171.254 14.7666 171.299 15.1084C171.345 15.4503 171.36 15.781 171.352 16.0924C171.338 16.6005 171.265 17.0595 171.168 17.456C171.072 17.8525 170.952 18.1874 170.843 18.4566C170.734 18.7257 170.636 18.9304 170.571 19.0715C170.506 19.2126 170.476 19.2906 170.492 19.3017C170.508 19.3123 170.572 19.2556 170.671 19.1318C170.769 19.0078 170.902 18.8153 171.046 18.5515C171.19 18.2876 171.345 17.9514 171.476 17.5429C171.608 17.1345 171.715 16.654 171.756 16.113C171.774 15.8677 171.777 15.6107 171.765 15.3448C171.845 15.3631 171.937 15.3822 172.051 15.4084C172.225 15.4475 172.436 15.4985 172.677 15.5717C172.917 15.6448 173.186 15.7396 173.473 15.8673C173.868 16.0427 174.297 16.2816 174.722 16.6007C175.147 16.9198 175.568 17.3193 175.936 17.8017C176.038 17.9363 176.138 18.0777 176.231 18.225L176.228 18.2265Z" fill="black"/>
<path d="M157.254 29.9743C156.423 28.5299 156.068 26.7085 156.288 25.0111C156.342 24.5942 156.511 23.7381 156.581 23.5271L156.637 23.3588L156.958 23.3901C157.446 23.438 157.804 23.4354 158.219 23.3795C158.734 23.3108 158.838 23.2706 158.53 23.2588C156.916 23.197 155.98 22.9629 154.892 22.3481C153.851 21.7601 152.973 20.8803 152.44 19.8918C151.331 17.8343 151.395 15.4826 152.612 13.5636C153.632 11.9564 155.232 10.971 157.17 10.7567C157.868 10.6792 158.849 10.7567 159.478 10.9439C159.873 11.0602 160.487 11.2796 160.48 11.3023C160.48 11.3128 160.38 11.4372 160.264 11.5785C159.981 11.9243 159.572 12.6126 159.408 13.0185C159.248 13.4122 159.101 13.9253 159.111 14.0483C159.12 14.1327 159.122 14.1309 159.191 13.984C159.231 13.9004 159.313 13.7227 159.373 13.5892C159.552 13.1901 160.007 12.4516 160.288 12.1056C160.721 11.5715 160.933 11.3651 161.462 10.9616C162.946 9.82959 165.017 9.43074 166.809 9.93161C169.251 10.6142 170.997 12.6567 171.308 15.1962C171.456 16.4019 171.248 17.5865 170.662 18.8784C170.563 19.0977 170.499 19.2724 170.521 19.2667C170.595 19.2475 170.929 18.7501 171.106 18.3948C171.522 17.5572 171.747 16.6414 171.755 15.7488C171.755 15.5524 171.755 15.3823 171.764 15.3705C171.773 15.2957 172.904 15.6178 173.427 15.8439C174.713 16.4001 175.846 17.4338 176.462 18.6114C177.58 20.7476 177.416 23.1456 176.013 25.1776C175.836 25.4346 175.5 25.838 175.147 26.2185C174.914 26.4699 175.02 26.4465 175.419 26.1584C175.822 25.8672 176.121 25.5763 176.457 25.148C176.577 24.9959 176.683 24.8732 176.693 24.8754C176.732 24.8845 177.137 26.1036 177.265 26.6016C177.676 28.1869 177.732 29.7094 177.434 31.1238C177.233 32.0742 176.962 32.7779 176.5 33.5493C175.59 35.0675 174.285 36.0723 172.679 36.4909C171.438 36.8143 170.075 36.6708 168.972 36.1005C167.367 35.2707 166.414 33.739 166.19 31.6321C166.152 31.2798 166.118 30.9848 166.112 30.9768C166.087 30.9377 166.043 31.2042 166.022 31.5217C165.986 32.0749 166.089 32.8655 166.273 33.4498C166.31 33.5663 166.33 33.6683 166.317 33.6765C166.264 33.7112 165.564 33.8307 165.14 33.8778C163.28 34.0847 161.499 33.7107 159.994 32.7973C158.839 32.0958 157.951 31.18 157.256 29.9729L157.254 29.9743Z" fill="#F0F0F0"/>
<path d="M151.123 23.4531L152.116 24.4717L130.819 55.3775L151.123 23.4531Z" fill="black"/>
<path d="M152.412 31.1934L131.529 56.0832L153.193 32.7229L152.412 31.1934Z" fill="black"/>
<path d="M160.213 35.4219L161.947 36.5147L132.292 57.2393L160.213 35.4219Z" fill="black"/>
<path fill-rule="evenodd" clip-rule="evenodd" d="M0.404978 117.653C0.566537 118.172 0.772634 118.665 1.01009 119.127C1.2815 119.655 1.59462 120.142 1.93785 120.581C2.28116 121.02 2.65308 121.412 3.0401 121.755C3.43929 122.107 3.85407 122.405 4.26571 122.657C4.67735 122.909 5.08558 123.114 5.48077 123.279C6.27106 123.61 7.00025 123.782 7.6033 123.867C8.14482 123.944 8.58545 123.953 8.90369 123.939C8.59032 124.291 8.29509 124.684 8.03194 125.117C7.52281 125.954 7.12997 126.941 6.95509 128.022C6.81883 128.868 6.81794 129.763 6.97081 130.661C7.12331 131.558 7.42987 132.456 7.89618 133.288C7.96672 133.415 8.04165 133.539 8.11893 133.66C8.67637 134.537 9.3926 135.278 10.1862 135.858C10.9797 136.437 11.8501 136.853 12.7288 137.105C13.7066 137.384 14.6833 137.458 15.5872 137.385C16.1071 137.343 16.6024 137.251 17.0657 137.125C17.0657 137.134 17.0657 137.137 17.0657 137.145C17.0483 137.334 17.0379 137.617 17.0566 137.984C17.0793 138.351 17.1358 138.803 17.2655 139.319C17.3951 139.835 17.5972 140.416 17.9149 141.021C18.2203 141.603 18.6328 142.204 19.1667 142.776C19.7007 143.347 20.3579 143.89 21.1329 144.339C21.7555 144.699 22.4507 145 23.2039 145.215C23.9573 145.43 24.7676 145.56 25.6086 145.581C26.3506 145.599 27.1132 145.532 27.8777 145.377C28.6423 145.223 29.4082 144.981 30.153 144.654C31.5386 144.045 32.8579 143.146 33.9837 141.996C34.2327 141.742 34.4727 141.475 34.702 141.197C35.5961 140.116 36.2928 138.909 36.7726 137.661C37.2524 136.414 37.5156 135.129 37.5629 133.875C37.5925 133.075 37.5316 132.291 37.3988 131.545C37.2662 130.798 37.0615 130.087 36.8012 129.425C36.4998 128.657 36.1219 127.955 35.6972 127.33C35.2726 126.705 34.8017 126.159 34.3087 125.694C33.9132 125.32 33.5058 125 33.1022 124.725C32.8233 124.535 32.5467 124.37 32.2749 124.222C32.3036 124.195 32.3333 124.169 32.3671 124.134C32.5388 123.961 32.7783 123.693 33.0455 123.317C33.3127 122.941 33.6074 122.457 33.8778 121.863C34.1483 121.269 34.3936 120.562 34.546 119.757C34.6906 118.993 34.7498 118.143 34.6777 117.244C34.6055 116.346 34.4033 115.399 34.0327 114.468C33.8069 113.902 33.5196 113.344 33.1722 112.808C32.8248 112.272 32.4173 111.759 31.9533 111.286C31.5804 110.906 31.1798 110.563 30.7611 110.258C29.9765 109.686 29.1292 109.254 28.2775 108.956C27.6286 108.729 26.9772 108.579 26.3437 108.497C26.3194 108.252 26.2688 107.906 26.1707 107.47C26.0682 107.014 25.9133 106.462 25.6791 105.843C25.445 105.224 25.1318 104.537 24.7095 103.824C24.257 103.059 23.6766 102.262 22.9479 101.506C22.2191 100.749 21.3416 100.035 20.3128 99.4586C19.3152 98.9002 18.1735 98.4812 16.9603 98.2853C16.0329 98.1356 15.1048 98.1231 14.2162 98.2435C13.079 98.4003 12.0254 98.7748 11.1121 99.2723C10.1986 99.7698 9.42502 100.391 8.80508 101.05C8.14058 101.756 7.65283 102.502 7.30213 103.196C6.95134 103.89 6.73555 104.533 6.60298 105.068C6.47035 105.603 6.4188 106.031 6.40129 106.323C6.40129 106.323 6.40129 106.332 6.40129 106.334C6.07209 106.434 5.73556 106.558 5.39687 106.706C4.85386 106.945 4.30411 107.25 3.77207 107.629C3.24014 108.009 2.72612 108.462 2.25903 108.992C1.70098 109.626 1.2145 110.367 0.837949 111.189C0.461476 112.011 0.194313 112.914 0.0729662 113.856C0.000759321 114.421 -0.0173899 114.987 0.0164476 115.541C0.0564786 116.193 0.167508 116.826 0.337995 117.427C0.358841 117.502 0.382411 117.578 0.40507 117.652L0.404978 117.653ZM1.017 117.464C0.996155 117.394 0.976071 117.326 0.956887 117.256C0.803591 116.695 0.702842 116.107 0.668808 115.504C0.6392 114.992 0.658243 114.467 0.725465 113.942C0.838307 113.067 1.08479 112.226 1.42913 111.458C1.77349 110.691 2.21611 109.997 2.72593 109.399C3.15177 108.9 3.62349 108.467 4.11381 108.1C4.60414 107.734 5.11355 107.433 5.61824 107.192C6.12293 106.95 6.62378 106.769 7.10349 106.637C7.58319 106.505 8.04139 106.422 8.46731 106.374C8.962 106.319 9.41283 106.311 9.80619 106.323C10.1995 106.336 10.5362 106.369 10.8104 106.404C11.0845 106.439 11.2957 106.472 11.4404 106.491C11.5851 106.51 11.6623 106.515 11.6677 106.5C11.6767 106.482 11.6059 106.443 11.4686 106.388C11.3314 106.333 11.1244 106.263 10.8498 106.194C10.5752 106.124 10.2334 106.056 9.82804 106.011C9.42267 105.965 8.95323 105.944 8.43269 105.973C7.98378 105.998 7.49738 106.063 6.98589 106.181C6.85159 106.212 6.71595 106.246 6.5785 106.285C6.64557 106.009 6.73799 105.626 6.89747 105.156C7.06893 104.651 7.31574 104.05 7.68393 103.405C8.05214 102.759 8.54296 102.072 9.18988 101.427C9.7932 100.826 10.535 100.26 11.3986 99.8101C12.2622 99.3604 13.2466 99.0263 14.3012 98.8909C15.1253 98.7833 15.9902 98.7986 16.8561 98.9397C17.9889 99.1237 19.0605 99.5105 20.0035 100.024C20.9779 100.554 21.8201 101.217 22.53 101.923C23.2397 102.628 23.8166 103.375 24.2799 104.094C24.7119 104.765 25.0474 105.414 25.3085 106.001C25.5698 106.588 25.7573 107.111 25.8984 107.547C26.0264 107.941 26.1106 108.251 26.1774 108.482C26.036 108.466 25.8943 108.452 25.7551 108.443C25.039 108.396 24.3578 108.434 23.7294 108.533C23.1011 108.63 22.5267 108.782 22.0156 108.963C21.4612 109.158 20.98 109.387 20.5761 109.613C20.1721 109.84 19.8458 110.065 19.5896 110.262C19.3334 110.46 19.1483 110.628 19.0299 110.749C18.9115 110.871 18.858 110.946 18.8719 110.962C18.8855 110.978 18.9667 110.937 19.1088 110.848C19.2509 110.76 19.4541 110.624 19.7246 110.463C19.9951 110.301 20.3329 110.113 20.7376 109.924C21.1422 109.735 21.6143 109.546 22.1525 109.386C22.649 109.239 23.2012 109.117 23.7991 109.048C24.3969 108.978 25.0405 108.96 25.7105 109.021C26.4739 109.091 27.2724 109.262 28.0656 109.553C28.8589 109.844 29.6476 110.254 30.3753 110.79C30.7639 111.076 31.1353 111.397 31.4831 111.751C32.3484 112.633 33.0086 113.661 33.4431 114.713C33.8 115.577 34.0068 116.459 34.0947 117.302C34.1828 118.145 34.1513 118.948 34.0417 119.676C33.9266 120.442 33.7275 121.125 33.5023 121.709C33.277 122.292 33.0272 122.778 32.8041 123.166C32.5809 123.553 32.3833 123.844 32.2513 124.044C32.2208 124.091 32.1939 124.132 32.1703 124.169C32.0841 124.124 31.9987 124.079 31.9139 124.037C31.1435 123.657 30.4341 123.432 29.8484 123.295C29.2627 123.158 28.7975 123.107 28.4826 123.09C28.1677 123.072 28.0021 123.09 28.0004 123.109C28.0004 123.131 28.1627 123.162 28.468 123.221C28.7733 123.28 29.2212 123.369 29.7819 123.54C30.3427 123.712 31.0156 123.967 31.7425 124.364C32.106 124.562 32.4832 124.796 32.861 125.073C33.2388 125.349 33.6188 125.665 33.9851 126.031C34.4419 126.487 34.8774 127.019 35.2675 127.622C35.6577 128.224 36.0012 128.899 36.2753 129.632C36.5114 130.265 36.6966 130.942 36.8129 131.651C36.929 132.36 36.9765 133.1 36.9411 133.854C36.8872 135.038 36.6294 136.252 36.1679 137.432C35.7065 138.611 35.0423 139.755 34.1945 140.782C33.9771 141.045 33.749 141.298 33.5134 141.539C32.4477 142.63 31.2026 143.489 29.8952 144.073C29.1932 144.387 28.4718 144.621 27.7529 144.775C27.034 144.928 26.3173 145 25.6209 144.991C24.8304 144.981 24.0662 144.87 23.3533 144.681C22.6404 144.491 21.9783 144.223 21.385 143.896C20.6465 143.49 20.0126 142.993 19.4906 142.467C18.9686 141.941 18.5585 141.387 18.2463 140.846C17.9209 140.282 17.7002 139.734 17.5474 139.244C17.3947 138.755 17.3105 138.322 17.2572 137.968C17.2042 137.614 17.1823 137.336 17.1655 137.149C17.1655 137.129 17.1655 137.123 17.1564 137.105C17.4641 137.017 17.7571 136.913 18.0336 136.796C18.7995 136.473 19.4339 136.061 19.9427 135.644C20.4515 135.228 20.8357 134.806 21.1189 134.443C21.4022 134.079 21.5855 133.772 21.6973 133.557C21.809 133.342 21.8502 133.219 21.8296 133.208C21.8087 133.196 21.7293 133.294 21.5823 133.481C21.4353 133.668 21.2196 133.945 20.9152 134.271C20.6108 134.597 20.215 134.973 19.7085 135.342C19.202 135.712 18.5847 136.073 17.855 136.349C17.172 136.607 16.3902 136.789 15.5456 136.835C14.701 136.881 13.7937 136.793 12.8962 136.521C12.0897 136.277 11.2909 135.883 10.5631 135.342C9.83536 134.801 9.17919 134.114 8.66987 133.31C8.59933 133.199 8.53062 133.087 8.4656 132.971C8.0376 132.208 7.75379 131.382 7.60773 130.556C7.46165 129.729 7.45393 128.901 7.56937 128.121C7.71635 127.124 8.06396 126.204 8.52 125.413C8.97604 124.623 9.5402 123.962 10.1359 123.444C10.4517 123.169 10.7749 122.934 11.0971 122.732C11.4191 122.53 11.7402 122.362 12.0478 122.223C12.663 121.944 13.2282 121.78 13.6984 121.675C14.1686 121.57 14.5451 121.525 14.8009 121.494C15.0567 121.463 15.1931 121.445 15.1937 121.42C15.1937 121.396 15.0586 121.364 14.7965 121.35C14.5343 121.335 14.1435 121.335 13.6491 121.402C13.1547 121.468 12.5555 121.602 11.8945 121.861C11.5641 121.99 11.2187 122.15 10.8688 122.349C10.519 122.548 10.1638 122.784 9.81628 123.065C9.55401 123.278 9.29653 123.517 9.04932 123.779C9.03361 123.779 9.02322 123.779 9.00751 123.77C8.6917 123.737 8.23009 123.684 7.65627 123.556C7.08238 123.428 6.39482 123.223 5.65788 122.874C4.92104 122.524 4.13467 122.031 3.40627 121.348C3.05268 121.017 2.71234 120.641 2.40028 120.223C2.08822 119.805 1.80427 119.347 1.55854 118.849C1.34353 118.414 1.15792 117.95 1.01239 117.465L1.017 117.464Z" fill="black"/>
<path d="M33.9374 116.29C34.1882 117.437 34.2202 118.498 34.04 119.691C33.8628 120.865 33.5663 121.702 32.8732 122.983C32.5337 123.611 32.2255 124.134 32.1883 124.145C32.1509 124.155 31.9265 124.07 31.6892 123.953C30.8366 123.534 29.3541 123.146 28.4623 123.109C28.2725 123.1 28.1206 123.109 28.1249 123.119C28.1249 123.133 28.3195 123.179 28.5479 123.22C30.2147 123.519 32.0185 124.348 33.2945 125.401C34.9337 126.754 36.0244 128.5 36.5923 130.681C37.4317 133.905 36.776 137.193 34.7127 140.105C32.6657 142.994 29.3746 144.848 26.0514 144.983C24.2414 145.057 22.3416 144.549 20.9021 143.605C19.5826 142.739 18.633 141.677 17.9709 140.325C17.6428 139.655 17.2528 138.261 17.1835 137.51L17.1452 137.099L17.7266 136.883C19.0174 136.403 20.0783 135.65 20.984 134.572C21.3143 134.178 21.8521 133.333 21.7925 133.3C21.7751 133.291 21.5815 133.502 21.362 133.768C20.6092 134.682 19.7292 135.418 18.7679 135.938C18.0371 136.333 16.8437 136.707 16.0107 136.801C12.8074 137.163 9.65104 135.441 8.26413 132.574C7.24509 130.468 7.23795 128.027 8.24495 125.955C9.01557 124.369 10.0926 123.246 11.6413 122.413C12.4865 121.958 13.8695 121.562 15.0337 121.441L15.191 121.425L15.0134 121.384C14.7315 121.321 13.8723 121.375 13.1817 121.504C11.8426 121.75 10.3431 122.534 9.33512 123.515L9.04142 123.801L8.26002 123.665C6.87607 123.425 5.76036 123.012 4.69876 122.346C1.75329 120.5 0.182144 116.967 0.78782 113.551C1.35919 110.329 3.5133 107.844 6.64722 106.79C8.1619 106.281 9.23576 106.203 11.2941 106.452C11.433 106.468 11.5428 106.469 11.5381 106.452C11.5181 106.385 10.6054 106.138 10.0997 106.064C9.20494 105.932 7.76408 105.984 7.13804 106.171C7.0317 106.202 6.85718 106.236 6.75011 106.246L6.55548 106.265L6.66727 105.866C7.42815 103.152 9.03036 101.089 11.3795 99.7988C11.9706 99.4741 13.8177 98.907 14.4935 98.8427C15.6638 98.7312 17.0894 98.8966 18.3222 99.2863C19.1422 99.5456 20.7451 100.401 21.4404 100.95C23.0006 102.183 24.2211 103.72 25.1384 105.606C25.4154 106.175 26.2387 108.369 26.2015 108.438C26.1894 108.46 25.8612 108.468 25.4722 108.455C23.6089 108.393 21.6415 108.931 20.1011 109.924C19.6445 110.219 18.9117 110.828 18.9738 110.861C18.9912 110.87 19.2505 110.731 19.5494 110.55C21.5061 109.366 23.3896 108.878 25.5192 109.004C27.797 109.139 30.167 110.274 31.6881 111.96C32.8648 113.264 33.5748 114.63 33.937 116.287L33.9374 116.29Z" fill="#F0F0F0"/>
<path d="M37.5441 122.559L36.7798 121.063L71.6174 93.6152L37.5441 122.559Z" fill="black"/>
<path d="M38.7919 113.371L71.0617 92.5703L38.4453 111.372L38.7919 113.371Z" fill="black"/>
<path d="M31.4647 105.872L29.8892 104.032L70.6057 90.998L31.4647 105.872Z" fill="black"/>
<path d="M84.103 77.482C84.103 77.974 84.001 78.43 83.797 78.85C83.593 79.27 83.317 79.654 82.969 80.002C82.621 80.338 82.213 80.638 81.745 80.902C81.289 81.154 80.803 81.37 80.287 81.55C79.783 81.718 79.261 81.85 78.721 81.946C78.193 82.03 77.683 82.072 77.191 82.072C76.747 82.072 76.333 82.036 75.949 81.964C76.525 79.864 76.981 77.752 77.317 75.628C77.665 73.492 77.995 71.344 78.307 69.184C78.931 69.052 79.579 68.938 80.251 68.842C80.923 68.734 81.619 68.68 82.339 68.68C82.639 68.68 82.957 68.716 83.293 68.788C83.629 68.86 83.935 68.992 84.211 69.184C84.487 69.376 84.715 69.628 84.895 69.94C85.087 70.252 85.183 70.648 85.183 71.128C85.183 71.584 85.105 72.01 84.949 72.406C84.805 72.802 84.613 73.162 84.373 73.486C84.145 73.81 83.881 74.092 83.581 74.332C83.281 74.56 82.975 74.734 82.663 74.854C82.819 74.938 82.981 75.058 83.149 75.214C83.317 75.37 83.473 75.556 83.617 75.772C83.761 75.976 83.875 76.222 83.959 76.51C84.055 76.798 84.103 77.122 84.103 77.482ZM79.981 75.61C79.933 75.898 79.885 76.156 79.837 76.384C79.801 76.6 79.765 76.81 79.729 77.014C79.693 77.218 79.651 77.434 79.603 77.662C79.567 77.878 79.525 78.136 79.477 78.436C79.705 78.412 79.963 78.37 80.251 78.31C80.539 78.25 80.815 78.16 81.079 78.04C81.343 77.908 81.565 77.74 81.745 77.536C81.925 77.32 82.015 77.062 82.015 76.762C82.015 76.546 81.955 76.366 81.835 76.222C81.727 76.078 81.583 75.958 81.403 75.862C81.235 75.766 81.049 75.7 80.845 75.664C80.641 75.616 80.449 75.592 80.269 75.592C80.209 75.592 80.155 75.592 80.107 75.592C80.071 75.592 80.029 75.598 79.981 75.61ZM80.791 71.254C80.767 71.386 80.737 71.542 80.701 71.722C80.677 71.902 80.647 72.094 80.611 72.298C80.575 72.49 80.533 72.682 80.485 72.874C80.449 73.066 80.419 73.234 80.395 73.378C80.659 73.33 80.923 73.264 81.187 73.18C81.451 73.096 81.685 73.006 81.889 72.91C82.105 72.802 82.273 72.688 82.393 72.568C82.525 72.448 82.591 72.316 82.591 72.172C82.591 71.992 82.537 71.848 82.429 71.74C82.321 71.62 82.177 71.524 81.997 71.452C81.829 71.38 81.649 71.332 81.457 71.308C81.277 71.272 81.115 71.254 80.971 71.254H80.791ZM90.8302 81.64C90.5302 81.688 90.2002 81.742 89.8402 81.802C89.4802 81.862 89.1562 81.916 88.8682 81.964C88.9162 81.568 88.9642 81.178 89.0122 80.794C89.0482 80.458 89.0782 80.122 89.1022 79.786C89.1382 79.45 89.1682 79.162 89.1922 78.922H87.6262L86.9062 81.514C86.6422 81.55 86.3302 81.592 85.9702 81.64C85.6102 81.676 85.2742 81.712 84.9622 81.748C84.5782 81.796 84.2002 81.844 83.8282 81.892C84.3082 80.296 84.7822 78.724 85.2502 77.176C85.4422 76.528 85.6402 75.85 85.8442 75.142C86.0602 74.434 86.2702 73.732 86.4742 73.036C86.6902 72.328 86.8942 71.65 87.0862 71.002C87.2782 70.354 87.4462 69.76 87.5902 69.22C88.4062 69.16 89.2342 69.088 90.0742 69.004C90.9262 68.92 91.7542 68.806 92.5582 68.662C92.5222 69.046 92.4802 69.526 92.4322 70.102C92.3962 70.666 92.3602 71.284 92.3242 71.956C92.2882 72.628 92.2522 73.33 92.2162 74.062C92.1802 74.794 92.1442 75.514 92.1082 76.222C92.0482 77.878 91.9822 79.636 91.9102 81.496C91.5502 81.556 91.1902 81.604 90.8302 81.64ZM88.0582 77.122C88.1062 77.122 88.1902 77.122 88.3102 77.122C88.4422 77.11 88.5742 77.104 88.7062 77.104C88.8502 77.092 88.9822 77.086 89.1022 77.086C89.2222 77.074 89.3062 77.062 89.3542 77.05C89.3542 76.978 89.3602 76.858 89.3722 76.69C89.3962 76.51 89.4142 76.312 89.4262 76.096C89.4502 75.868 89.4742 75.622 89.4982 75.358C89.5222 75.094 89.5462 74.836 89.5702 74.584C89.6182 73.972 89.6782 73.312 89.7502 72.604L89.8582 71.038L89.5882 71.056L89.1742 72.604L88.0582 77.122ZM92.6234 82.09C92.9834 80.362 93.3254 78.688 93.6494 77.068C93.7694 76.372 93.8954 75.652 94.0274 74.908C94.1714 74.164 94.3034 73.432 94.4234 72.712C94.5434 71.98 94.6514 71.284 94.7474 70.624C94.8434 69.952 94.9154 69.346 94.9634 68.806C95.1194 68.818 95.2514 68.824 95.3594 68.824C95.4674 68.824 95.5934 68.824 95.7374 68.824C95.9054 68.824 96.1094 68.824 96.3494 68.824C96.5894 68.812 96.8294 68.8 97.0694 68.788C97.3094 68.776 97.5674 68.764 97.8434 68.752C98.0114 69.592 98.1614 70.402 98.2934 71.182C98.4254 71.866 98.5574 72.568 98.6894 73.288C98.8334 74.008 98.9594 74.62 99.0674 75.124C99.1154 74.884 99.1694 74.608 99.2294 74.296C99.2894 73.972 99.3554 73.636 99.4274 73.288C99.4994 72.94 99.5654 72.592 99.6254 72.244C99.6974 71.884 99.7694 71.53 99.8414 71.182C100.009 70.402 100.183 69.598 100.363 68.77L102.559 68.5C102.151 70.336 101.791 72.076 101.479 73.72C101.335 74.428 101.191 75.148 101.047 75.88C100.915 76.6 100.789 77.296 100.669 77.968C100.549 78.628 100.447 79.246 100.363 79.822C100.279 80.386 100.213 80.86 100.165 81.244C100.129 81.244 99.9854 81.274 99.7334 81.334C99.4934 81.382 99.2114 81.442 98.8874 81.514C98.5754 81.586 98.2574 81.658 97.9334 81.73C97.6214 81.802 97.3874 81.868 97.2314 81.928C97.1594 80.968 97.0814 80.056 96.9974 79.192C96.9614 78.82 96.9194 78.442 96.8714 78.058C96.8354 77.662 96.7934 77.284 96.7454 76.924C96.6974 76.564 96.6494 76.228 96.6014 75.916C96.5534 75.604 96.5054 75.334 96.4574 75.106C96.4214 75.334 96.3734 75.598 96.3134 75.898C96.2534 76.198 96.1934 76.516 96.1334 76.852C96.0734 77.188 96.0134 77.542 95.9534 77.914C95.8934 78.274 95.8274 78.622 95.7554 78.958C95.5994 79.762 95.4314 80.602 95.2514 81.478L92.6234 82.09ZM111.004 75.142C110.92 76.366 110.68 77.434 110.284 78.346C109.888 79.246 109.408 80.002 108.844 80.614C108.292 81.226 107.692 81.682 107.044 81.982C106.408 82.282 105.802 82.432 105.226 82.432C104.782 82.432 104.356 82.336 103.948 82.144C103.552 81.952 103.204 81.664 102.904 81.28C102.616 80.884 102.388 80.392 102.22 79.804C102.052 79.216 101.968 78.526 101.968 77.734C101.968 76.186 102.19 74.836 102.634 73.684C103.078 72.532 103.636 71.572 104.308 70.804C104.992 70.036 105.718 69.466 106.486 69.094C107.266 68.722 107.992 68.536 108.664 68.536C109.144 68.536 109.558 68.62 109.906 68.788C110.266 68.956 110.56 69.184 110.788 69.472C111.016 69.748 111.178 70.078 111.274 70.462C111.382 70.834 111.436 71.23 111.436 71.65L108.97 72.118C108.862 71.638 108.718 71.296 108.538 71.092C108.358 70.888 108.154 70.786 107.926 70.786C107.626 70.786 107.296 71.002 106.936 71.434C106.576 71.854 106.24 72.4 105.928 73.072C105.616 73.744 105.352 74.482 105.136 75.286C104.92 76.09 104.8 76.882 104.776 77.662C104.776 78.406 104.884 78.94 105.1 79.264C105.328 79.576 105.616 79.732 105.964 79.732C106.204 79.732 106.45 79.672 106.702 79.552C106.966 79.432 107.2 79.264 107.404 79.048C107.608 78.82 107.776 78.562 107.908 78.274C108.052 77.974 108.13 77.65 108.142 77.302L106.216 77.59L106.558 75.808C107.122 75.736 107.674 75.664 108.214 75.592C108.67 75.532 109.15 75.46 109.654 75.376C110.17 75.292 110.62 75.214 111.004 75.142ZM114.37 77.734C114.022 77.734 113.674 77.746 113.326 77.77C112.978 77.794 112.63 77.818 112.282 77.842C112.654 76.366 113.014 74.896 113.362 73.432C113.722 71.968 114.094 70.498 114.478 69.022C114.706 68.986 114.964 68.95 115.252 68.914C115.552 68.878 115.852 68.836 116.152 68.788C116.452 68.74 116.74 68.698 117.016 68.662C117.304 68.626 117.544 68.59 117.736 68.554C117.088 70.066 116.494 71.59 115.954 73.126C115.426 74.65 114.898 76.186 114.37 77.734ZM114.55 80.56C114.55 80.788 114.496 81.016 114.388 81.244C114.292 81.472 114.148 81.676 113.956 81.856C113.764 82.024 113.524 82.156 113.236 82.252C112.948 82.36 112.618 82.414 112.246 82.414C111.994 82.414 111.766 82.366 111.562 82.27C111.358 82.174 111.19 82.048 111.058 81.892C110.938 81.724 110.842 81.538 110.77 81.334C110.698 81.13 110.662 80.926 110.662 80.722C110.662 80.494 110.698 80.278 110.77 80.074C110.842 79.858 110.95 79.672 111.094 79.516C111.25 79.348 111.436 79.21 111.652 79.102C111.88 78.994 112.15 78.94 112.462 78.94C113.158 78.94 113.68 79.108 114.028 79.444C114.376 79.768 114.55 80.14 114.55 80.56ZM119.639 77.734C119.291 77.734 118.943 77.746 118.595 77.77C118.247 77.794 117.899 77.818 117.551 77.842C117.923 76.366 118.283 74.896 118.631 73.432C118.991 71.968 119.363 70.498 119.747 69.022C119.975 68.986 120.233 68.95 120.521 68.914C120.821 68.878 121.121 68.836 121.421 68.788C121.721 68.74 122.009 68.698 122.285 68.662C122.573 68.626 122.813 68.59 123.005 68.554C122.357 70.066 121.763 71.59 121.223 73.126C120.695 74.65 120.167 76.186 119.639 77.734ZM119.819 80.56C119.819 80.788 119.765 81.016 119.657 81.244C119.561 81.472 119.417 81.676 119.225 81.856C119.033 82.024 118.793 82.156 118.505 82.252C118.217 82.36 117.887 82.414 117.515 82.414C117.263 82.414 117.035 82.366 116.831 82.27C116.627 82.174 116.459 82.048 116.327 81.892C116.207 81.724 116.111 81.538 116.039 81.334C115.967 81.13 115.931 80.926 115.931 80.722C115.931 80.494 115.967 80.278 116.039 80.074C116.111 79.858 116.219 79.672 116.363 79.516C116.519 79.348 116.705 79.21 116.921 79.102C117.149 78.994 117.419 78.94 117.731 78.94C118.427 78.94 118.949 79.108 119.297 79.444C119.645 79.768 119.819 80.14 119.819 80.56ZM124.907 77.734C124.559 77.734 124.211 77.746 123.863 77.77C123.515 77.794 123.167 77.818 122.819 77.842C123.191 76.366 123.551 74.896 123.899 73.432C124.259 71.968 124.631 70.498 125.015 69.022C125.243 68.986 125.501 68.95 125.789 68.914C126.089 68.878 126.389 68.836 126.689 68.788C126.989 68.74 127.277 68.698 127.553 68.662C127.841 68.626 128.081 68.59 128.273 68.554C127.625 70.066 127.031 71.59 126.491 73.126C125.963 74.65 125.435 76.186 124.907 77.734ZM125.087 80.56C125.087 80.788 125.033 81.016 124.925 81.244C124.829 81.472 124.685 81.676 124.493 81.856C124.301 82.024 124.061 82.156 123.773 82.252C123.485 82.36 123.155 82.414 122.783 82.414C122.531 82.414 122.303 82.366 122.099 82.27C121.895 82.174 121.727 82.048 121.595 81.892C121.475 81.724 121.379 81.538 121.307 81.334C121.235 81.13 121.199 80.926 121.199 80.722C121.199 80.494 121.235 80.278 121.307 80.074C121.379 79.858 121.487 79.672 121.631 79.516C121.787 79.348 121.973 79.21 122.189 79.102C122.417 78.994 122.687 78.94 122.999 78.94C123.695 78.94 124.217 79.108 124.565 79.444C124.913 79.768 125.087 80.14 125.087 80.56Z" fill="#444444"/>
</svg>
