<svg width="188" height="149" viewBox="0 0 188 149" fill="none" xmlns="http://www.w3.org/2000/svg">
<path d="M134.927 55.4285C138.699 59.4614 183.466 45.9656 183.466 45.9656C183.466 45.9656 141.653 63.3695 140.791 71.5699C139.929 79.7703 178.058 104.505 178.058 104.505C178.058 104.505 138.945 80.4544 133.809 85.657C128.674 90.8594 147.185 121.307 147.185 121.307C147.185 121.307 125.924 92.9856 118.308 96.324C110.691 99.6624 118.182 148.029 118.182 148.029C118.182 148.029 103.751 102.397 97.6142 102.193C91.4772 101.988 85.0672 136.304 85.0672 136.304C85.0672 136.304 83.9892 107.128 78.4949 104.591C73.0006 102.054 34.3388 145.618 34.3388 145.618C34.3388 145.618 63.1686 100.434 60.2841 95.1094C57.3996 89.7845 5.91113 101.03 5.91113 101.03C5.91113 101.03 57.7262 82.9795 58.5393 76.9161C59.3522 70.8527 15.9501 43.7143 15.9501 43.7143C15.9501 43.7143 68.4575 63.4626 72.346 58.1493C76.2344 52.836 60.8333 28.6758 60.8333 28.6758C60.8333 28.6758 83.765 49.8508 89.6995 46.1747C95.6339 42.4987 89.4936 2.05819 89.4936 2.05819C89.4936 2.05819 105.143 47.1052 113.253 47.3055C121.363 47.5056 152.147 0.00390625 152.147 0.00390625C152.147 0.00390625 131.154 51.3956 134.926 55.4285H134.927Z" fill="black"/>
<path d="M133.575 55.4245C137.348 59.4574 182.115 45.9616 182.115 45.9616C182.115 45.9616 140.301 63.3655 139.439 71.566C138.577 79.7664 176.707 104.501 176.707 104.501C176.707 104.501 137.593 80.4504 132.457 85.653C127.322 90.8555 145.834 121.303 145.834 121.303C145.834 121.303 124.573 92.9816 116.956 96.32C109.339 99.6584 116.83 148.025 116.83 148.025C116.83 148.025 102.4 102.393 96.2627 102.189C90.1257 101.984 83.7157 136.3 83.7157 136.3C83.7157 136.3 82.6377 107.124 77.1433 104.587C71.6489 102.05 32.9871 145.614 32.9871 145.614C32.9871 145.614 61.8171 100.43 58.9326 95.1054C56.048 89.7806 4.55957 101.026 4.55957 101.026C4.55957 101.026 56.3747 82.9755 57.1877 76.9121C58.0007 70.8488 14.5985 43.7104 14.5985 43.7104C14.5985 43.7104 67.106 63.4586 70.9944 58.1453C74.8829 52.832 59.4817 28.6718 59.4817 28.6718C59.4817 28.6718 82.4134 49.8468 88.3479 46.1707C94.2823 42.4947 88.1421 2.05419 88.1421 2.05419C88.1421 2.05419 103.791 47.1013 111.902 47.3015C120.012 47.5017 150.795 0 150.795 0C150.795 0 129.802 51.3916 133.575 55.4245H133.575Z" fill="#FF0000"/>
<path fill-rule="evenodd" clip-rule="evenodd" d="M120.64 36.0894C120.144 36.0985 119.651 36.1146 119.162 36.1486C117.664 36.2517 116.21 36.4785 114.812 36.7936C113.414 37.1088 112.073 37.512 110.802 37.9711C109.371 38.4882 108.023 39.0745 106.769 39.6996C105.515 40.3247 104.354 40.9882 103.29 41.6649C102.321 42.2816 101.434 42.9082 100.626 43.5244C100.254 43.1327 99.854 42.7453 99.4235 42.3688C98.3811 41.4572 97.1653 40.606 95.7817 39.9113C94.4877 39.261 93.0459 38.7444 91.5118 38.4398C89.9778 38.1352 88.3509 38.0423 86.7094 38.245C86.6458 38.254 86.5816 38.2614 86.518 38.2702C85.4217 38.4224 84.3639 38.7078 83.3667 39.095C82.3696 39.4822 81.4346 39.9722 80.58 40.5379C79.6044 41.1832 78.7314 41.9269 77.9781 42.73C77.2249 43.533 76.5914 44.3946 76.08 45.2781C75.944 45.5133 75.8175 45.7501 75.6987 45.987C75.3486 45.6354 74.9732 45.2824 74.5699 44.9338C73.5031 44.0113 72.2434 43.1132 70.7921 42.3385C70.0665 41.9513 69.2926 41.596 68.4758 41.2854C67.6589 40.9748 66.7982 40.7088 65.899 40.5043C64.8591 40.268 63.77 40.1125 62.6487 40.0525C61.5274 39.9923 60.3735 40.0289 59.2103 40.1768C58.1346 40.3135 57.0501 40.5479 55.9818 40.889C54.9135 41.2301 53.862 41.6772 52.8558 42.2412C52.7774 42.2847 52.7012 42.3304 52.6239 42.3756C51.6656 42.9347 50.777 43.5869 49.9733 44.3106C49.1696 45.0344 48.4494 45.8292 47.8232 46.6707C47.1248 47.6088 46.5439 48.6082 46.0898 49.6355C45.6356 50.6627 45.3095 51.7177 45.1122 52.7699C44.9484 53.6448 44.8734 54.5144 44.8736 55.3617C44.8736 56.209 44.9485 57.0334 45.0852 57.8226C45.2404 58.7202 45.4757 59.5722 45.7689 60.3657C46.0622 61.1593 46.4127 61.8946 46.8036 62.5645C47.29 63.3976 47.8354 64.1286 48.3944 64.7617C48.7572 65.1725 49.1256 65.5414 49.4913 65.8737C49.1777 66.0648 48.7366 66.3573 48.2079 66.7823C47.6641 67.2195 47.0305 67.7954 46.3787 68.5394C45.7269 69.2834 45.0564 70.1958 44.467 71.2891C44.1898 71.8035 43.9316 72.3568 43.7011 72.947C43.4707 73.5372 43.2682 74.1645 43.1047 74.8233C42.9414 75.4821 42.8167 76.1721 42.7403 76.8878C42.6637 77.6034 42.6361 78.3439 42.6663 79.0999C42.7167 80.3509 42.9276 81.6431 43.3163 82.9214C43.705 84.1998 44.2714 85.4642 45.0213 86.6487C45.0395 86.6774 45.0587 86.707 45.077 86.7361C45.8458 87.932 46.7679 88.9902 47.7797 89.889C48.7916 90.7876 49.892 91.5256 51.0216 92.0961C52.2522 92.7182 53.5207 93.1409 54.7473 93.3812C55.8942 93.6057 57.0038 93.6709 58.0363 93.6113C58.0127 93.8055 57.9901 94.0039 57.9711 94.2059C57.9067 94.8896 57.8704 95.6167 57.8736 96.3828C57.8827 97.7806 58.0169 99.3096 58.359 100.915C58.5301 101.717 58.7508 102.54 59.0326 103.369C59.3144 104.198 59.656 105.035 60.0657 105.868C60.682 107.121 61.4481 108.362 62.3636 109.552C63.279 110.742 64.3446 111.883 65.5451 112.933C66.6282 113.881 67.8215 114.758 69.1112 115.535C70.4008 116.313 71.7873 116.991 73.25 117.544C75.1763 118.272 77.2288 118.785 79.3492 119.068C80.2459 119.188 81.142 119.266 82.0318 119.303C83.5813 119.368 85.1129 119.314 86.6074 119.157C88.102 119 89.5582 118.741 90.963 118.396C92.5513 118.007 94.0796 117.509 95.5117 116.903C96.9439 116.296 98.28 115.582 99.4979 114.771C100.208 114.299 100.876 113.793 101.498 113.261C102.121 112.729 102.697 112.172 103.223 111.596C103.828 110.935 104.366 110.25 104.839 109.554C104.985 109.717 105.136 109.884 105.296 110.054C106.007 110.807 106.875 111.618 107.917 112.421C108.868 113.155 109.967 113.883 111.214 114.541C112.462 115.199 113.859 115.786 115.39 116.231C116.879 116.663 118.493 116.962 120.191 117.071C121.888 117.179 123.669 117.098 125.468 116.772C127.063 116.482 128.669 115.999 130.227 115.312C131.785 114.625 133.293 113.734 134.682 112.638C134.703 112.621 134.725 112.606 134.746 112.589C136.118 111.497 137.323 110.239 138.333 108.884C139.344 107.529 140.159 106.075 140.767 104.583C141.458 102.889 141.878 101.149 142.061 99.4551C142.244 97.7609 142.191 96.1123 141.948 94.5754C141.919 94.3859 141.885 94.1987 141.849 94.0128C142.878 93.5536 143.915 93.0137 144.942 92.3851C145.996 91.7392 147.039 91.0005 148.047 90.1661C149.056 89.3317 150.031 88.4002 150.945 87.3744C151.779 86.4385 152.562 85.4233 153.272 84.3323C153.981 83.2414 154.618 82.0765 155.16 80.8469C155.783 79.4314 156.278 77.9272 156.602 76.367C156.813 75.3553 156.948 74.3376 157.006 73.3232C157.071 72.1739 157.036 71.0339 156.913 69.9183C156.791 68.8029 156.579 67.7115 156.293 66.658C156.007 65.6045 155.646 64.5889 155.222 63.621C154.797 62.6531 154.309 61.7333 153.77 60.8696C153.124 59.8337 152.407 58.8788 151.644 58.0073C150.881 57.1359 150.074 56.3475 149.243 55.6406C148.413 54.9336 147.558 54.3078 146.702 53.7592C145.846 53.2107 144.987 52.7384 144.142 52.3365C143.244 51.9091 142.361 51.5612 141.512 51.2765C140.662 50.9919 139.845 50.7711 139.073 50.6013C138.942 50.5726 138.813 50.5447 138.685 50.5187C138.668 50.1023 138.631 49.6731 138.567 49.2354C138.477 48.6143 138.337 47.9775 138.142 47.3322C137.947 46.687 137.697 46.0332 137.388 45.3837C137.078 44.7341 136.709 44.0886 136.281 43.4587C135.852 42.8288 135.363 42.215 134.816 41.6328C133.896 40.6538 132.815 39.7622 131.599 38.9973C130.384 38.2323 129.033 37.5947 127.595 37.121C125.874 36.5544 124.032 36.2218 122.137 36.1215C121.636 36.0954 121.137 36.085 120.641 36.0893L120.64 36.0894ZM120.649 36.627C121.135 36.627 121.623 36.6361 122.113 36.6592C123.963 36.7568 125.76 37.0761 127.434 37.6234C128.833 38.0809 130.148 38.6951 131.333 39.4308C132.517 40.1664 133.571 41.0239 134.469 41.9655C135.002 42.5251 135.48 43.1164 135.902 43.7225C136.323 44.3287 136.687 44.9511 136.995 45.577C137.303 46.2029 137.553 46.8322 137.751 47.455C137.949 48.0778 138.094 48.6934 138.191 49.2943C138.255 49.6862 138.296 50.0707 138.32 50.4466C137.827 50.3547 137.354 50.2838 136.906 50.2283C136.234 50.1447 135.616 50.0978 135.06 50.0737C134.504 50.0494 134.01 50.0484 133.582 50.0586C133.154 50.0691 132.792 50.0907 132.5 50.1143C132.208 50.1379 131.987 50.1622 131.838 50.183C131.69 50.2039 131.612 50.2205 131.613 50.23C131.613 50.2391 131.692 50.2421 131.842 50.2406C131.992 50.2406 132.214 50.2315 132.505 50.2255C132.797 50.2164 133.157 50.2149 133.582 50.2255C134.007 50.2345 134.498 50.2507 135.048 50.2907C135.598 50.3308 136.208 50.3945 136.871 50.4923C137.335 50.5611 137.825 50.6451 138.337 50.7527L138.698 50.8319C138.801 50.8553 138.903 50.8788 139.007 50.9041C139.767 51.0858 140.57 51.3165 141.403 51.6096C142.236 51.9027 143.1 52.2583 143.978 52.6896C144.804 53.0953 145.642 53.5683 146.477 54.1157C147.313 54.6631 148.144 55.2851 148.953 55.9853C149.762 56.6855 150.549 57.4635 151.29 58.3219C152.031 59.1801 152.727 60.118 153.353 61.1337C153.874 61.9803 154.346 62.8811 154.757 63.828C155.168 64.775 155.517 65.7689 155.793 66.7979C156.346 68.8557 156.605 71.0581 156.475 73.2952C156.419 74.2823 156.284 75.2752 156.079 76.2616C155.762 77.7828 155.281 79.2511 154.675 80.6356C154.147 81.8386 153.527 82.979 152.835 84.0489C152.143 85.1188 151.38 86.1182 150.566 87.0388C149.674 88.0483 148.721 88.9657 147.736 89.7903C146.75 90.6149 145.73 91.3453 144.698 91.9874C143.724 92.594 142.74 93.1198 141.761 93.5714C141.496 92.364 141.115 91.2381 140.665 90.2119C140.093 88.905 139.409 87.7582 138.697 86.7734C137.917 85.6954 137.103 84.81 136.338 84.0959C135.573 83.3818 134.858 82.8364 134.256 82.4263C133.653 82.016 133.162 81.7391 132.824 81.5629C132.487 81.3866 132.303 81.31 132.295 81.3244C132.286 81.338 132.455 81.4431 132.776 81.6451C133.096 81.8471 133.568 82.1481 134.148 82.5774C134.728 83.0068 135.416 83.5663 136.152 84.2891C136.888 85.0119 137.671 85.8999 138.418 86.9716C139.1 87.9509 139.754 89.0857 140.298 90.3715C140.736 91.4079 141.102 92.5426 141.349 93.7578L141.434 94.1996C141.46 94.3479 141.483 94.4976 141.506 94.6481C141.729 96.1485 141.768 97.754 141.578 99.4035C141.388 101.053 140.971 102.747 140.293 104.392C139.696 105.841 138.897 107.253 137.911 108.57C136.925 109.887 135.749 111.108 134.414 112.171C134.394 112.188 134.374 112.203 134.353 112.22C133.001 113.287 131.533 114.156 130.016 114.829C128.498 115.501 126.932 115.978 125.378 116.267C123.624 116.593 121.886 116.683 120.225 116.587C118.563 116.492 116.979 116.211 115.516 115.801C114.012 115.38 112.637 114.819 111.403 114.189C110.168 113.558 109.077 112.859 108.127 112.153C107.086 111.379 106.213 110.597 105.491 109.872C105.313 109.693 105.146 109.517 104.986 109.346C105.28 108.899 105.547 108.448 105.787 107.995C106.212 107.192 106.55 106.387 106.818 105.602C107.087 104.816 107.286 104.05 107.43 103.316C107.574 102.582 107.665 101.881 107.715 101.223C107.767 100.564 107.778 99.9471 107.764 99.38C107.747 98.6371 107.687 97.9771 107.611 97.408C107.536 96.8389 107.445 96.3616 107.361 95.9769C107.277 95.5921 107.199 95.301 107.141 95.1067C107.084 94.9125 107.046 94.8134 107.035 94.8161C107.025 94.8161 107.044 94.9233 107.079 95.1219C107.116 95.3204 107.174 95.6143 107.238 96.0004C107.303 96.3864 107.373 96.864 107.428 97.4298C107.484 97.9957 107.524 98.6497 107.524 99.3834C107.524 99.9434 107.498 100.55 107.435 101.198C107.372 101.845 107.271 102.533 107.117 103.252C106.964 103.97 106.758 104.719 106.484 105.484C106.211 106.25 105.869 107.032 105.444 107.811C105.221 108.222 104.974 108.633 104.704 109.039L104.566 109.24C104.083 109.945 103.53 110.637 102.908 111.305C102.388 111.862 101.821 112.402 101.208 112.917C100.596 113.432 99.9381 113.924 99.2411 114.382C98.0445 115.168 96.731 115.859 95.3223 116.446C93.9134 117.034 92.4107 117.519 90.8457 117.898C89.4617 118.232 88.0258 118.482 86.5556 118.633C85.0854 118.784 83.5796 118.836 82.0572 118.771C81.1832 118.734 80.3036 118.657 79.4234 118.539C77.342 118.261 75.3282 117.761 73.4401 117.051C72.007 116.512 70.6475 115.85 69.3819 115.092C68.1161 114.335 66.9448 113.48 65.8796 112.556C64.6995 111.533 63.6507 110.422 62.7468 109.262C61.843 108.102 61.0837 106.894 60.4708 105.672C60.0632 104.861 59.7217 104.044 59.4377 103.233C59.1537 102.423 58.9274 101.621 58.7507 100.835C58.3973 99.2622 58.2414 97.76 58.2148 96.3834C58.1997 95.629 58.2254 94.9105 58.2766 94.235C58.2931 94.0167 58.3132 93.8044 58.3358 93.595C58.9594 93.5436 59.5506 93.4457 60.1029 93.3178C60.6791 93.1844 61.2129 93.017 61.702 92.8324C62.191 92.6478 62.6357 92.4457 63.034 92.2394C63.4323 92.0332 63.7851 91.8234 64.094 91.6213C64.4029 91.4193 64.6682 91.2259 64.8919 91.0502C65.1156 90.8744 65.2974 90.7165 65.4411 90.5849C65.585 90.4534 65.6907 90.348 65.7586 90.2742C65.8264 90.2002 65.8562 90.1574 65.8492 90.1498C65.8402 90.1408 65.7988 90.1698 65.7182 90.229C65.6373 90.2873 65.52 90.3772 65.3655 90.4927C65.0564 90.7237 64.5979 91.0593 63.973 91.4266C63.3482 91.794 62.5545 92.1934 61.5912 92.5252C61.1095 92.6911 60.5862 92.8406 60.0239 92.9568C59.5079 93.0636 58.9585 93.142 58.3828 93.182L58.0956 93.1984C57.0749 93.2454 55.9771 93.1679 54.8436 92.9297C53.661 92.6814 52.44 92.2594 51.2556 91.6497C50.1686 91.0897 49.1102 90.3699 48.1364 89.4979C47.1625 88.626 46.2738 87.6025 45.5327 86.4492C45.5154 86.4214 45.4962 86.3926 45.4788 86.3648C44.7556 85.2227 44.2062 84.0034 43.826 82.7701C43.4458 81.5368 43.2356 80.2896 43.1776 79.0814C43.1427 78.351 43.1624 77.6351 43.2298 76.9414C43.2969 76.2476 43.4091 75.5769 43.5591 74.9357C43.7091 74.2946 43.8956 73.6819 44.11 73.1048C44.3244 72.5277 44.5676 71.9847 44.8273 71.4788C45.3793 70.4035 46.0104 69.4969 46.6263 68.7492C47.2422 68.0015 47.8425 67.4118 48.3565 66.9553C48.8684 66.5005 49.2947 66.1774 49.586 65.9575C49.7534 66.1069 49.9201 66.2501 50.0849 66.3842C50.705 66.8885 51.3005 67.286 51.8369 67.6003C52.3733 67.9146 52.8509 68.1453 53.2445 68.3159C53.6382 68.4864 53.9485 68.5977 54.16 68.6652C54.3714 68.7332 54.4831 68.7581 54.4876 68.7462C54.4966 68.7341 54.3882 68.6835 54.1868 68.5933C53.9856 68.5027 53.6877 68.3703 53.3084 68.18C52.9289 67.9898 52.4677 67.7426 51.9511 67.4141C51.4345 67.0856 50.8612 66.6762 50.2663 66.166C50.1207 66.0411 49.9755 65.9086 49.8279 65.7713L49.767 65.7156C49.3956 65.3661 49.0209 64.9766 48.6534 64.5431C48.12 63.9141 47.6014 63.1935 47.1417 62.3762C46.772 61.7193 46.4419 61.0002 46.1674 60.2262C45.8928 59.4522 45.6753 58.6234 45.5341 57.7519C45.4101 56.9856 45.344 56.186 45.351 55.3666C45.3601 54.5472 45.4373 53.7079 45.6013 52.8655C45.7978 51.8528 46.1199 50.8366 46.5638 49.847C47.0077 48.8574 47.5727 47.8947 48.2503 46.9897C48.8585 46.1777 49.5564 45.4107 50.3348 44.712C51.1132 44.0133 51.9723 43.3825 52.8981 42.8424C52.973 42.7989 53.0479 42.7553 53.1232 42.7131C54.0957 42.1672 55.113 41.7337 56.1485 41.4012C57.1839 41.0688 58.238 40.8377 59.2828 40.7008C60.4132 40.5527 61.5351 40.512 62.6272 40.5647C63.7194 40.6178 64.7799 40.7635 65.7952 40.9863C67.5501 41.3711 69.1609 41.9928 70.5892 42.7349C72.0176 43.477 73.2646 44.3392 74.3267 45.2276C74.7612 45.5912 75.1645 45.9591 75.5394 46.3262L75.8788 46.6655C76.3495 47.1479 76.7704 47.6267 77.1454 48.0883C77.8925 49.0081 78.4584 49.8629 78.8855 50.581C79.3127 51.2991 79.603 51.8813 79.7976 52.2776C79.8949 52.4757 79.9679 52.6264 80.0193 52.7278C80.0707 52.829 80.0994 52.8807 80.1083 52.8772C80.1174 52.8772 80.1083 52.8163 80.0699 52.7075C80.0351 52.599 79.9787 52.4385 79.897 52.2321C79.7333 51.8194 79.4707 51.2187 79.0672 50.4768C78.6636 49.735 78.1179 48.8532 77.3824 47.9018C76.9903 47.3945 76.5435 46.8662 76.0386 46.3345C76.1764 46.061 76.3244 45.7888 76.4854 45.5182C76.9889 44.6709 77.6108 43.8449 78.3449 43.0758C79.0789 42.3067 79.9251 41.5942 80.8696 40.9762C81.6972 40.4349 82.6007 39.9662 83.5622 39.5954C84.5237 39.2246 85.5428 38.9516 86.5958 38.8059C86.6567 38.7969 86.7194 38.7902 86.7806 38.7824C88.3594 38.5851 89.9296 38.6709 91.415 38.9604C92.9005 39.2499 94.2999 39.743 95.5623 40.3629C96.9105 41.0255 98.1022 41.8409 99.1302 42.7163C99.542 43.0671 99.9275 43.4277 100.287 43.793L100.544 44.0584C100.98 44.5191 101.377 44.9848 101.735 45.4475C102.496 46.431 103.087 47.3989 103.543 48.2813C103.999 49.1638 104.321 49.9607 104.556 50.6229C104.791 51.2851 104.938 51.8128 105.038 52.1716C105.087 52.351 105.126 52.4896 105.154 52.5815C105.182 52.6735 105.2 52.7194 105.21 52.7176C105.219 52.7176 105.219 52.6653 105.21 52.5699C105.2 52.4739 105.182 52.3328 105.149 52.1482C105.085 51.7789 104.969 51.2368 104.763 50.5558C104.557 49.8748 104.26 49.0531 103.822 48.142C103.385 47.2309 102.806 46.2305 102.049 45.2108C101.701 44.743 101.315 44.2702 100.89 43.8032C101.691 43.2149 102.567 42.6167 103.52 42.0277C104.581 41.3722 105.736 40.727 106.98 40.1212C108.225 39.5154 109.559 38.9493 110.975 38.4482C112.231 38.0038 113.555 37.6124 114.931 37.3077C116.307 37.0028 117.736 36.7843 119.204 36.6862C119.682 36.654 120.165 36.6348 120.65 36.6304L120.649 36.627Z" fill="black"/>
<path d="M80.1747 118.633C73.7192 117.931 68.2778 115.279 64.0623 110.78C60.1648 106.621 58.2193 101.628 58.2378 95.8323C58.2469 94.3828 58.2979 93.6577 58.4092 93.5888C58.4997 93.5331 58.9045 93.4442 59.3085 93.3917C60.1508 93.2825 61.4523 92.8992 62.4548 92.4654C63.256 92.1187 65.0508 90.9836 65.2131 90.7211C65.2739 90.6224 65.0186 90.7516 64.6453 91.0085C63.7335 91.6359 61.8331 92.5117 60.689 92.8319C59.2301 93.2401 55.5493 93.2021 54.0564 92.7631C48.8344 91.2284 44.9749 87.2486 43.5971 81.978C43.2272 80.5629 43.0882 77.6193 43.3213 76.1366C43.8997 72.4584 45.8155 69.0243 48.5495 66.7656L49.5368 65.9499L50.6297 66.7347C51.6344 67.4561 53.2089 68.3492 53.476 68.3492C53.5377 68.3492 53.0712 68.0573 52.4399 67.7006C48.8319 65.6617 46.2629 61.9959 45.5395 57.8545C45.2336 56.1023 45.3366 53.5216 45.7734 51.9946C46.4925 49.481 48.2345 46.6046 50.0328 44.9609C52.3451 42.8477 54.8984 41.5518 58.1067 40.8633C59.5962 40.5436 63.3987 40.4947 64.9211 40.7757C70.5994 41.8235 75.8414 45.4602 78.7658 50.3806C79.1058 50.9527 79.4073 51.4207 79.4357 51.4207C79.4644 51.4207 79.3156 51.0817 79.1059 50.6676C78.6089 49.6858 77.5283 48.1025 76.699 47.141C76.3362 46.7203 76.0393 46.3269 76.0393 46.2666C76.0393 46.2065 76.3059 45.7436 76.6318 45.2383C78.8089 41.8617 82.172 39.6141 86.1803 38.8567C87.766 38.5571 90.362 38.651 92.0548 39.0694C97.5511 40.4276 102.079 44.4486 104.303 49.9473C104.948 51.5409 105.05 51.5546 104.513 49.9751C103.861 48.0581 102.761 46.1051 101.464 44.5632C101.112 44.1452 100.848 43.781 100.877 43.754C101.413 43.2562 105.073 41.0801 106.812 40.2262C110.232 38.5462 112.965 37.6236 116.424 36.9818C118.643 36.57 123.35 36.6069 125.39 37.0524C130.587 38.1867 134.995 41.4242 137.005 45.5839C137.611 46.8386 138.301 49.1707 138.301 49.9689V50.454L137.692 50.3651C137.356 50.3163 136.372 50.2466 135.504 50.2105L133.926 50.1452L135.344 50.2822C146.29 51.3394 154.852 59.0983 156.31 69.2818C157.379 76.7515 154.108 84.4797 147.568 89.9372C145.588 91.589 141.807 93.8279 141.681 93.4224C141.65 93.3221 141.484 92.7557 141.313 92.1638C140.241 88.4593 137.426 84.5847 134.342 82.5656C133.727 82.1631 133.7 82.1559 134.133 82.5082C136.849 84.7203 138.553 86.7829 139.916 89.5099C140.486 90.6489 141.2 92.7891 141.473 94.1725C141.747 95.566 141.711 99.1441 141.407 100.677C140.614 104.68 138.69 108.178 135.734 110.991C132.858 113.728 129.501 115.446 125.461 116.247C120.087 117.313 114.054 116.095 109.288 112.981C108.22 112.283 105.93 110.427 105.325 109.768L104.987 109.4L105.861 107.632C107.299 104.725 107.932 101.515 107.653 98.548L107.518 97.1134L107.504 99.1936C107.468 104.581 105.77 108.576 101.989 112.177C100.34 113.747 98.896 114.731 96.6258 115.83C91.6109 118.259 85.8158 119.247 80.1746 118.633L80.1747 118.633ZM107.409 96.4319C107.369 96.3333 107.337 96.4136 107.337 96.6112C107.337 96.8085 107.369 96.8892 107.409 96.7905C107.449 96.6919 107.449 96.5305 107.409 96.4319V96.4319Z" fill="#F9F9F9"/>
<path fill-rule="evenodd" clip-rule="evenodd" d="M21.821 11.844C21.5676 11.939 21.3153 12.047 21.0674 12.1654C20.8889 12.2508 20.714 12.3415 20.5429 12.4372C19.8033 12.8511 19.1397 13.3559 18.5678 13.9154C17.9958 14.475 17.5168 15.0885 17.1311 15.72C16.6809 16.4588 16.362 17.2156 16.1456 17.9423C15.9291 18.6692 15.8141 19.3651 15.7631 19.9984C15.7117 20.6317 15.7256 21.2033 15.7721 21.6919C15.8156 22.1803 15.8902 22.5861 15.9637 22.9025C16.0264 23.1711 16.087 23.3752 16.136 23.5112C16.1511 23.5512 16.1638 23.5843 16.176 23.6126C16.1142 23.6456 16.0505 23.6813 15.9854 23.7212C15.7277 23.8783 15.4508 24.0868 15.181 24.3583C14.9023 24.6395 14.6341 24.9852 14.4078 25.3935C14.1816 25.8016 13.9969 26.2717 13.8794 26.7826C13.7838 27.1984 13.7313 27.6398 13.7249 28.0943C13.7158 28.5487 13.757 29.0164 13.8427 29.4838C13.8427 29.5003 13.8518 29.5169 13.8518 29.5333C13.9652 30.1444 14.1517 30.7286 14.3988 31.2565C14.6461 31.7843 14.9529 32.2559 15.2973 32.6556C15.7295 33.1545 16.2147 33.5293 16.6774 33.8001C17.1401 34.0709 17.5802 34.2388 17.9511 34.34C18.3221 34.4414 18.6246 34.4769 18.8306 34.4849C18.9037 34.4849 18.9593 34.4849 19.008 34.4849C19.0237 34.5571 19.0402 34.6311 19.0594 34.7074C19.1265 34.9695 19.2186 35.2528 19.3451 35.5481C19.4717 35.8435 19.6323 36.1502 19.8318 36.4585C20.0312 36.767 20.2698 37.0775 20.5509 37.373C20.8321 37.6684 21.1556 37.9489 21.5211 38.2004C21.966 38.5061 22.4721 38.7646 23.0213 38.954C23.5704 39.1433 24.1626 39.2638 24.7747 39.2948C25.0865 39.3105 25.3971 39.3038 25.7007 39.2721C26.5058 39.1921 27.2593 38.9542 27.9159 38.6214C28.5723 38.2885 29.1314 37.8602 29.5764 37.3994C30.0341 36.9248 30.3693 36.4208 30.6098 35.949C30.8503 35.4772 30.9967 35.0388 31.0844 34.673C31.172 34.307 31.2023 34.0125 31.2087 33.8125C31.2087 33.7951 31.2087 33.7829 31.2087 33.7672C31.3119 33.7808 31.4164 33.7924 31.5228 33.8028C31.9385 33.8438 32.3726 33.8577 32.8219 33.8447C33.2712 33.8311 33.7348 33.7924 34.2057 33.7329C34.9593 33.6386 35.7507 33.4926 36.538 33.2364C36.6762 33.1911 36.8125 33.1445 36.9475 33.0935C37.4121 32.918 37.8562 32.7008 38.2637 32.4476C38.6712 32.1944 39.0424 31.9053 39.3675 31.5832C39.8221 31.131 40.1743 30.6206 40.4302 30.1048C40.6862 29.589 40.8456 29.0665 40.9263 28.5744C41.0156 28.0269 41.0082 27.521 40.9533 27.0847C40.8985 26.6485 40.7968 26.2813 40.6899 25.9915C40.5829 25.7017 40.4724 25.4893 40.3868 25.3509C40.3868 25.3418 40.3777 25.3418 40.3777 25.3403C40.4395 25.3081 40.501 25.2767 40.5622 25.2418C41.0177 24.9817 41.4648 24.658 41.8835 24.273C42.3021 23.888 42.6924 23.4411 43.0341 22.9378C43.3388 22.4896 43.6042 21.9966 43.8156 21.4669C44.027 20.9372 44.1854 20.371 44.2703 19.7808C44.407 18.8242 44.3504 17.8142 44.0964 16.8331C44.058 16.6867 44.0164 16.5412 43.97 16.3982C43.7903 15.8391 43.5498 15.3084 43.2579 14.8176C42.9661 14.3267 42.6239 13.8765 42.2415 13.4778C41.8263 13.0458 41.3667 12.6761 40.886 12.3696C40.4055 12.0632 39.9038 11.8201 39.3986 11.6352C38.8218 11.4237 38.2399 11.2883 37.6759 11.2208C37.1117 11.1538 36.566 11.1538 36.0522 11.2073C35.6038 11.2551 35.181 11.3423 34.7912 11.4558C34.4013 11.5692 34.043 11.7086 33.7186 11.8608C33.0696 12.165 32.5583 12.5184 32.1704 12.8413C31.7824 13.1642 31.5155 13.4553 31.3489 13.6626C31.3489 13.6626 31.3489 13.6626 31.3489 13.6716C31.3281 13.6524 31.3089 13.6325 31.2871 13.6133C30.8581 13.2234 30.3314 12.8211 29.6985 12.4603C29.1011 12.1198 28.4108 11.8172 27.6419 11.6003C26.8731 11.3835 26.0256 11.2519 25.1352 11.25C24.4734 11.25 23.7896 11.3197 23.1049 11.4712C22.6769 11.5658 22.2493 11.6907 21.827 11.8491L21.821 11.844ZM22.2663 12.311C22.5845 12.2007 22.9051 12.1091 23.2261 12.0359C23.8682 11.8894 24.5108 11.8151 25.1326 11.8076C25.969 11.797 26.7686 11.9062 27.501 12.0934C28.2332 12.2803 28.8969 12.5464 29.4774 12.8486C30.0923 13.1687 30.6163 13.5293 31.0503 13.8798C31.0816 13.9051 31.1112 13.9303 31.1416 13.9555C31.128 13.9833 31.1224 14.0025 31.128 14.0069C31.137 14.0159 31.1523 13.9978 31.1768 13.9842C31.5515 14.2974 31.8573 14.5996 32.1017 14.8609C32.3735 15.1514 32.5704 15.3925 32.7076 15.555C32.8449 15.7175 32.9225 15.8015 32.9414 15.7894C32.9605 15.7774 32.9196 15.6706 32.8149 15.4818C32.7104 15.2931 32.5413 15.0232 32.2915 14.6998C32.0733 14.4174 31.794 14.0928 31.4405 13.7558C31.6345 13.5812 31.9203 13.3259 32.3182 13.0438C32.7161 12.7618 33.228 12.4532 33.8595 12.193C34.1752 12.0628 34.5216 11.9454 34.8941 11.8523C35.2666 11.7591 35.6653 11.6905 36.0867 11.6594C36.5692 11.6228 37.0798 11.6367 37.6054 11.7133C38.1311 11.789 38.6728 11.9269 39.2068 12.1334C39.6744 12.3144 40.1379 12.5479 40.58 12.8379C41.0221 13.1277 41.4422 13.4741 41.8202 13.8752C42.169 14.2445 42.4819 14.662 42.7491 15.1167C43.0162 15.5714 43.2381 16.0633 43.4041 16.5804C43.4467 16.7127 43.4842 16.8468 43.5189 16.9823C43.7535 17.8896 43.8086 18.821 43.6879 19.7007C43.6139 20.2435 43.4753 20.7683 43.2847 21.2609C43.0939 21.7536 42.8517 22.2144 42.5749 22.6358C42.2639 23.1088 41.9072 23.5332 41.5247 23.9003C41.1419 24.2675 40.7337 24.5778 40.3152 24.8315C39.8014 25.1436 39.2732 25.3697 38.7629 25.5296C38.2528 25.6895 37.7605 25.7834 37.3056 25.8319C36.8043 25.8851 36.3473 25.8842 35.95 25.8571C35.5528 25.8301 35.2151 25.7752 34.9411 25.7227C34.6673 25.6697 34.4579 25.6172 34.3146 25.5842C34.1712 25.5511 34.093 25.5388 34.0869 25.5545C34.0779 25.5703 34.1471 25.6138 34.2812 25.6777C34.416 25.742 34.6198 25.8253 34.8938 25.9092C35.1677 25.9928 35.5112 26.0769 35.9207 26.1332C36.3302 26.1898 36.8061 26.2176 37.3338 26.1871C37.8128 26.1593 38.3366 26.0824 38.8825 25.9327C39.3316 25.8094 39.796 25.6358 40.2586 25.4007C40.2586 25.4007 40.2586 25.4007 40.2586 25.4098C40.3046 25.562 40.3749 25.7825 40.4412 26.0696C40.5074 26.3568 40.5689 26.711 40.5884 27.1218C40.6076 27.5327 40.5884 27.9998 40.4776 28.4963C40.3813 28.9428 40.2153 29.4122 39.9664 29.8734C39.7175 30.3346 39.3855 30.7874 38.9684 31.186C38.6704 31.4719 38.3284 31.7316 37.9516 31.9589C37.575 32.1861 37.1629 32.3817 36.7301 32.5458C36.6041 32.5937 36.4765 32.6374 36.3467 32.6795C35.6073 32.9205 34.852 33.066 34.1216 33.1693C33.665 33.2329 33.2214 33.2796 32.7925 33.3029C32.3636 33.3264 31.9493 33.3264 31.5561 33.3029C30.8374 33.2559 30.1843 33.1227 29.6169 32.9573C29.0495 32.7919 28.5688 32.5941 28.1807 32.4122C27.7927 32.2303 27.4967 32.0645 27.292 31.9534C27.0872 31.8422 26.9712 31.7865 26.9548 31.8084C26.9383 31.8301 27.0209 31.9286 27.2009 32.0834C27.3807 32.2382 27.6587 32.4481 28.039 32.6758C28.4194 32.9034 28.9042 33.1474 29.4875 33.3554C29.9537 33.5218 30.4836 33.6647 31.0659 33.7544C31.0568 33.7701 31.0568 33.7814 31.0523 33.7988C30.9992 33.9868 30.9264 34.2621 30.8031 34.5996C30.6799 34.9371 30.5065 35.3362 30.2513 35.7621C29.996 36.188 29.6586 36.6391 29.2196 37.0572C28.7933 37.4637 28.2679 37.8388 27.6608 38.1296C27.0536 38.4204 26.3658 38.6273 25.6368 38.6951C25.3618 38.7212 25.0801 38.7264 24.7971 38.7125C24.2414 38.6847 23.7013 38.5791 23.199 38.4126C22.6968 38.2462 22.2329 38.0194 21.8215 37.7509C21.4829 37.5302 21.1783 37.2805 20.9101 37.0181C20.642 36.7556 20.4099 36.4809 20.211 36.2043C20.0121 35.9277 19.847 35.6506 19.7108 35.3828C19.5747 35.115 19.4671 34.8565 19.3826 34.6159C19.2034 34.1065 19.1213 33.6788 19.0681 33.3841C19.0411 33.2367 19.0221 33.1221 19.0046 33.0443C18.9872 32.9668 18.9724 32.9242 18.9567 32.9244C18.9402 32.9244 18.9236 32.967 18.9097 33.0467C18.8961 33.1268 18.8854 33.2444 18.8835 33.3987C18.8835 33.5529 18.8926 33.7424 18.9131 33.9638C18.9267 34.0885 18.9471 34.2255 18.974 34.369C18.9375 34.3569 18.8975 34.3446 18.8506 34.3306C18.6596 34.2714 18.3809 34.1879 18.0446 34.05C17.7081 33.912 17.3134 33.7174 16.9036 33.4376C16.4938 33.1576 16.0687 32.7927 15.6959 32.3261C15.3959 31.9528 15.1296 31.5152 14.9131 31.027C14.6967 30.5388 14.5307 29.9999 14.4238 29.4342C14.4238 29.4191 14.4147 29.4028 14.4147 29.3881C14.3373 28.9547 14.2969 28.5247 14.2968 28.1083C14.2968 27.6919 14.3368 27.2907 14.4137 26.9117C14.5083 26.4473 14.6579 26.0166 14.8438 25.6376C15.0298 25.2587 15.2505 24.9313 15.4844 24.6591C15.7099 24.3957 15.9463 24.1831 16.1677 24.012C16.3891 23.841 16.5965 23.7113 16.7699 23.611C16.9431 23.5109 17.0833 23.4393 17.1778 23.3864C17.2724 23.3334 17.3214 23.2972 17.3153 23.277C17.3062 23.2571 17.2482 23.2527 17.1382 23.2679C17.0281 23.2844 16.8684 23.3228 16.67 23.3944C16.5418 23.4404 16.3957 23.504 16.2398 23.5839C16.2398 23.5577 16.2308 23.5299 16.2308 23.4969C16.2157 23.3546 16.1882 23.1455 16.1576 22.8766C16.1228 22.5599 16.0871 22.159 16.0776 21.683C16.0686 21.207 16.0867 20.6554 16.163 20.0492C16.2395 19.4431 16.375 18.782 16.6016 18.0967C16.8283 17.4113 17.1464 16.7022 17.5844 16.0161C17.9585 15.4286 18.4193 14.8587 18.9622 14.3382C19.5051 13.8177 20.1306 13.3469 20.8242 12.9607C20.9846 12.8715 21.1483 12.7865 21.3157 12.7066C21.6254 12.5584 21.9412 12.4299 22.2596 12.3196L22.2663 12.311Z" fill="#22241C"/>
<path d="M26.2585 38.6121C25.0241 38.8563 23.6775 38.6765 22.4896 38.11C20.8306 37.3183 19.6627 35.8542 19.1975 33.9832C19.1022 33.5998 19.0098 33.2113 18.9922 33.12C18.9374 32.8374 18.8976 33.4182 18.9399 33.879C18.96 34.0977 18.967 34.2965 18.9557 34.3208C18.9217 34.393 18.1974 34.1307 17.6106 33.8338C16.653 33.3492 15.9518 32.742 15.3909 31.9115C15.1395 31.5395 15.056 31.3559 14.7654 30.5367C14.4005 29.5084 14.3243 29.1375 14.3012 28.2793C14.2473 26.286 15.1059 24.5991 16.6486 23.6653C17.3129 23.2632 17.3114 23.2646 17.0013 23.3256C16.8493 23.3552 16.6172 23.4326 16.4855 23.4967C16.3538 23.561 16.2384 23.5921 16.2292 23.5663C16.2202 23.5402 16.1813 23.2112 16.1438 22.8351C15.7175 18.5752 17.3064 15.1041 20.6215 13.0531C21.2792 12.6462 22.9298 12.0462 23.7361 11.921C26.2705 11.5274 28.6866 12.1245 30.7835 13.6626C31.3019 14.0428 32.0325 14.7376 32.5256 15.319C32.7143 15.5415 32.8682 15.6954 32.8675 15.6609C32.8675 15.4804 32.2499 14.6587 31.4747 13.7979C31.3729 13.6849 32.5902 12.788 33.3797 12.3944C35.3944 11.3898 37.6831 11.3774 39.7244 12.3604C41.1838 13.063 42.1896 14.0293 42.9522 15.4618C44.009 17.4467 44.0242 19.9136 42.9922 21.9222C42.6056 22.6746 42.2225 23.2015 41.6426 23.7788C40.752 24.6651 40.1804 25.0243 39.0022 25.4379C38.0981 25.7553 37.5473 25.8605 36.6623 25.8847C36.2024 25.8967 35.172 25.7925 34.7117 25.6866C34.182 25.5647 34.1576 25.5628 34.3202 25.6561C34.6082 25.8213 35.4867 26.0556 36.0575 26.1196C37.274 26.2559 38.2187 26.1395 39.4386 25.7036L40.2936 25.398L40.3912 25.781C41.0737 28.4584 40.0566 30.8191 37.6508 32.1425C36.4278 32.8153 34.0768 33.3244 32.1866 33.3259C30.7011 33.3259 29.1502 32.9295 27.7021 32.1763C27.3242 31.9798 27.0243 31.8467 27.0356 31.8807C27.0817 32.0201 27.9401 32.5936 28.5756 32.9098C29.2419 33.2415 30.0927 33.539 30.6899 33.6491C30.8552 33.6796 31.0108 33.7213 31.036 33.7412C31.1066 33.7979 30.7763 34.7554 30.4908 35.3221C29.6213 37.0483 28.0699 38.2547 26.2589 38.6129L26.2585 38.6121Z" fill="#F9F9F9"/>
<path d="M30.8799 39.1368L31.9046 38.0334L65.7174 58.9201L30.8799 39.1368Z" fill="black"/>
<path d="M38.998 37.3635L66.4266 58.1321L40.5744 36.4572L38.998 37.3635Z" fill="black"/>
<path d="M43.0566 28.8906L44.1207 26.9989L67.6085 57.265L43.0566 28.8906Z" fill="black"/>
<path fill-rule="evenodd" clip-rule="evenodd" d="M181.277 140.282C181.31 140.222 181.343 140.161 181.373 140.1C181.649 139.556 181.858 138.999 182.005 138.447C182.152 137.895 182.238 137.348 182.269 136.822C182.306 136.177 182.26 135.565 182.168 135.004C182.074 134.443 181.928 133.933 181.759 133.481C181.573 132.983 181.36 132.554 181.149 132.196C180.937 131.838 180.727 131.55 180.546 131.325C180.546 131.316 180.537 131.316 180.535 131.312C180.857 131.421 181.2 131.506 181.561 131.557C181.956 131.613 182.371 131.629 182.795 131.598C183.219 131.567 183.653 131.485 184.08 131.348C184.495 131.214 184.901 131.028 185.287 130.791C185.673 130.554 186.038 130.267 186.367 129.936C186.866 129.433 187.262 128.849 187.533 128.23C187.711 127.824 187.834 127.406 187.909 126.991C187.984 126.576 188.01 126.162 187.996 125.762C187.983 125.363 187.927 124.979 187.838 124.615C187.749 124.252 187.628 123.909 187.481 123.595C187.328 123.268 187.15 122.975 186.959 122.711C186.767 122.448 186.563 122.216 186.357 122.015C186.152 121.813 185.946 121.641 185.746 121.495C185.546 121.35 185.353 121.231 185.174 121.133C184.817 120.938 184.517 120.831 184.31 120.772C184.206 120.743 184.125 120.726 184.07 120.718C184.07 120.718 184.07 120.718 184.061 120.718C184.084 120.705 184.109 120.69 184.137 120.67C184.271 120.581 184.463 120.438 184.693 120.233C184.922 120.027 185.191 119.756 185.469 119.411C185.748 119.066 186.036 118.646 186.299 118.145C186.539 117.688 186.758 117.163 186.92 116.577C187.082 115.992 187.189 115.344 187.2 114.655C187.209 114.146 187.164 113.617 187.061 113.081C186.958 112.545 186.793 112 186.564 111.467C186.358 110.987 186.099 110.515 185.784 110.068C185.469 109.62 185.099 109.197 184.674 108.818C184.149 108.349 183.543 107.953 182.883 107.647C182.491 107.465 182.087 107.318 181.679 107.207C181.109 107.051 180.528 106.965 179.957 106.944C179.386 106.923 178.823 106.967 178.284 107.073C177.69 107.19 177.129 107.379 176.612 107.62C176.095 107.86 175.621 108.151 175.198 108.474C174.699 108.855 174.27 109.279 173.911 109.719C173.552 110.16 173.265 110.617 173.043 111.065C172.736 111.683 172.548 112.281 172.437 112.814C172.393 113.027 172.362 113.229 172.339 113.42C172.311 113.362 172.28 113.301 172.245 113.235C172.125 113.014 171.962 112.751 171.741 112.464C171.519 112.177 171.24 111.867 170.892 111.561C170.575 111.284 170.202 111.009 169.77 110.766C169.337 110.522 168.843 110.31 168.297 110.162C167.853 110.042 167.375 109.966 166.877 109.946C166.378 109.926 165.858 109.961 165.334 110.06C164.866 110.148 164.396 110.288 163.935 110.484C163.475 110.68 163.025 110.932 162.604 111.244C161.955 111.725 161.381 112.343 160.932 113.059C160.839 113.208 160.753 113.36 160.672 113.514C160.432 113.971 160.246 114.449 160.116 114.933C159.987 115.418 159.914 115.908 159.898 116.392C159.879 116.919 159.927 117.434 160.027 117.924C160.128 118.414 160.281 118.878 160.471 119.309C160.69 119.804 160.959 120.256 161.259 120.653C161.559 121.051 161.89 121.395 162.234 121.687C162.43 121.853 162.629 122 162.824 122.136C162.624 122.093 162.374 122.049 162.072 122.017C161.639 121.971 161.103 121.95 160.482 121.999C159.861 122.048 159.155 122.169 158.404 122.414C157.709 122.64 156.977 122.972 156.259 123.437C155.542 123.901 154.838 124.497 154.217 125.231C153.702 125.839 153.246 126.54 152.884 127.317C152.523 128.094 152.255 128.947 152.118 129.845C151.968 130.825 151.975 131.856 152.153 132.879C152.275 133.576 152.475 134.249 152.741 134.883C153.037 135.585 153.414 136.232 153.849 136.816C154.283 137.4 154.773 137.92 155.294 138.373C155.885 138.887 156.515 139.315 157.156 139.659C157.797 140.002 158.449 140.26 159.087 140.443C159.639 140.601 160.178 140.704 160.694 140.763C161.21 140.822 161.702 140.839 162.162 140.825C163.082 140.797 163.872 140.651 164.502 140.478C165.132 140.305 165.604 140.106 165.916 139.955C166.072 139.879 166.189 139.815 166.265 139.768C166.265 139.768 166.265 139.768 166.274 139.759C166.481 140.233 166.754 140.735 167.114 141.236C167.411 141.65 167.766 142.061 168.184 142.449C168.602 142.837 169.083 143.201 169.619 143.52C170.08 143.794 170.583 144.034 171.122 144.225C171.661 144.416 172.236 144.558 172.835 144.634C173.383 144.702 173.948 144.716 174.519 144.67C175.09 144.625 175.667 144.521 176.234 144.356C176.518 144.273 176.798 144.175 177.076 144.062C177.876 143.736 178.613 143.294 179.252 142.765C179.711 142.383 180.118 141.959 180.471 141.508C180.781 141.114 181.049 140.701 181.276 140.278L181.277 140.282ZM180.911 139.862C180.673 140.315 180.388 140.759 180.053 141.178C179.718 141.597 179.333 141.99 178.902 142.343C178.305 142.833 177.617 143.243 176.869 143.549C176.609 143.654 176.345 143.747 176.079 143.825C175.549 143.981 175.01 144.081 174.476 144.126C173.942 144.172 173.414 144.163 172.902 144.103C172.342 144.037 171.803 143.91 171.294 143.738C170.785 143.566 170.306 143.349 169.866 143.099C169.355 142.808 168.895 142.474 168.49 142.118C168.085 141.761 167.734 141.382 167.439 140.998C166.989 140.414 166.664 139.823 166.425 139.281C166.187 138.74 166.035 138.248 165.934 137.841C165.833 137.433 165.782 137.109 165.745 136.889C165.707 136.668 165.686 136.551 165.666 136.552C165.646 136.552 165.629 136.671 165.629 136.898C165.629 137.125 165.646 137.46 165.716 137.886C165.786 138.312 165.908 138.828 166.127 139.402C166.165 139.501 166.206 139.602 166.25 139.704H166.241C166.156 139.73 166.032 139.772 165.87 139.827C165.546 139.936 165.068 140.092 164.445 140.224C163.822 140.355 163.051 140.462 162.162 140.457C161.718 140.457 161.244 140.424 160.75 140.352C160.257 140.281 159.743 140.171 159.22 140.008C158.616 139.82 158 139.56 157.396 139.223C156.792 138.886 156.199 138.471 155.644 137.977C155.155 137.541 154.695 137.045 154.289 136.49C153.883 135.936 153.53 135.324 153.257 134.665C153.008 134.068 152.823 133.434 152.708 132.778C152.539 131.816 152.53 130.846 152.667 129.924C152.792 129.079 153.037 128.271 153.371 127.534C153.706 126.797 154.128 126.13 154.605 125.548C155.182 124.844 155.84 124.266 156.514 123.808C157.187 123.35 157.876 123.012 158.534 122.774C159.245 122.517 159.92 122.375 160.518 122.299C161.115 122.223 161.637 122.213 162.062 122.226C162.488 122.238 162.819 122.274 163.044 122.295C163.054 122.295 163.061 122.295 163.071 122.295C163.21 122.387 163.346 122.473 163.478 122.555C164.349 123.096 165.077 123.477 165.587 123.72C165.841 123.841 166.041 123.929 166.18 123.982C166.318 124.035 166.394 124.056 166.402 124.04C166.411 124.024 166.349 123.974 166.226 123.892C166.103 123.81 165.918 123.697 165.68 123.55C165.202 123.255 164.509 122.829 163.675 122.254C163.487 122.125 163.294 121.989 163.098 121.843C162.903 121.696 162.708 121.538 162.516 121.364C162.205 121.081 161.906 120.75 161.636 120.372C161.367 119.994 161.126 119.57 160.933 119.106C160.764 118.703 160.631 118.268 160.546 117.815C160.459 117.361 160.421 116.888 160.443 116.407C160.462 115.964 160.532 115.514 160.653 115.07C160.775 114.625 160.948 114.186 161.169 113.766C161.244 113.624 161.325 113.485 161.411 113.348C161.824 112.689 162.346 112.12 162.936 111.678C163.318 111.39 163.73 111.155 164.152 110.969C164.575 110.784 165.007 110.649 165.438 110.559C165.922 110.46 166.404 110.417 166.867 110.426C167.33 110.435 167.776 110.493 168.192 110.592C168.703 110.714 169.168 110.897 169.584 111.11C170 111.323 170.365 111.568 170.679 111.816C171.024 112.089 171.309 112.367 171.541 112.627C171.774 112.886 171.954 113.125 172.094 113.325C172.188 113.458 172.257 113.566 172.318 113.66C172.302 113.85 172.294 114.027 172.293 114.187C172.293 114.567 172.321 114.859 172.353 115.056C172.384 115.252 172.417 115.353 172.435 115.351C172.454 115.351 172.458 115.245 172.462 115.049C172.462 114.853 172.471 114.564 172.505 114.196C172.514 114.117 172.522 114.033 172.533 113.946C172.533 113.946 172.542 113.932 172.533 113.92C172.572 113.612 172.634 113.262 172.736 112.878C172.87 112.374 173.074 111.811 173.387 111.237C173.613 110.821 173.898 110.399 174.247 109.994C174.597 109.589 175.011 109.199 175.487 108.851C175.89 108.557 176.338 108.294 176.824 108.077C177.31 107.86 177.834 107.692 178.385 107.591C178.884 107.498 179.405 107.461 179.935 107.485C180.465 107.509 181.005 107.592 181.534 107.738C181.913 107.842 182.286 107.98 182.649 108.148C183.261 108.431 183.821 108.795 184.307 109.225C184.7 109.572 185.047 109.963 185.343 110.376C185.639 110.789 185.885 111.226 186.084 111.672C186.304 112.167 186.466 112.673 186.572 113.174C186.678 113.674 186.728 114.169 186.731 114.646C186.74 115.292 186.653 115.905 186.517 116.465C186.381 117.025 186.193 117.533 185.983 117.981C185.753 118.47 185.496 118.889 185.249 119.238C185.001 119.588 184.762 119.869 184.558 120.09C184.355 120.312 184.188 120.475 184.076 120.587C183.964 120.7 183.908 120.762 183.918 120.775C183.927 120.784 183.953 120.775 184.001 120.747C184.039 120.776 184.125 120.822 184.258 120.891C184.444 120.987 184.716 121.129 185.038 121.347C185.359 121.565 185.73 121.861 186.092 122.261C186.273 122.46 186.453 122.686 186.619 122.938C186.785 123.191 186.938 123.47 187.066 123.774C187.19 124.066 187.292 124.382 187.364 124.717C187.435 125.052 187.476 125.406 187.481 125.771C187.49 126.135 187.455 126.51 187.381 126.886C187.307 127.262 187.191 127.639 187.028 128.002C186.779 128.556 186.419 129.082 185.967 129.537C185.669 129.837 185.339 130.098 184.992 130.314C184.645 130.531 184.28 130.704 183.907 130.828C183.524 130.957 183.134 131.035 182.749 131.071C182.364 131.107 181.984 131.1 181.621 131.057C181.258 131.015 180.911 130.937 180.588 130.834C180.264 130.73 179.963 130.6 179.689 130.451C179.18 130.174 178.764 129.837 178.433 129.504C178.102 129.17 177.855 128.841 177.672 128.559C177.488 128.278 177.366 128.042 177.281 127.883C177.196 127.723 177.147 127.639 177.127 127.646C177.107 127.655 177.116 127.751 177.164 127.929C177.214 128.108 177.304 128.367 177.464 128.68C177.624 128.992 177.853 129.359 178.182 129.735C178.51 130.111 178.937 130.497 179.476 130.821C179.711 130.962 179.966 131.089 180.239 131.199C180.287 131.268 180.338 131.343 180.393 131.428C180.547 131.664 180.727 131.96 180.909 132.32C181.091 132.679 181.276 133.102 181.432 133.587C181.574 134.028 181.694 134.523 181.766 135.06C181.838 135.597 181.861 136.177 181.81 136.784C181.769 137.28 181.678 137.794 181.529 138.311C181.381 138.828 181.174 139.348 180.908 139.857L180.911 139.862Z" fill="black"/>
<path d="M153.912 126.52C154.75 125.166 155.932 124.058 157.33 123.315C158.497 122.695 159.882 122.308 161.186 122.237C161.624 122.212 162.398 122.228 162.811 122.267L163.064 122.291L163.706 122.685C164.362 123.088 165.893 123.884 166.206 123.986C166.346 124.032 166.358 124.03 166.297 123.972C166.258 123.936 165.892 123.698 165.483 123.442C164.131 122.598 163.091 121.884 162.645 121.493C160.993 120.044 160.179 117.846 160.51 115.726C160.63 114.953 160.877 114.274 161.303 113.542C161.774 112.732 162.28 112.169 163.018 111.629C164.126 110.818 165.518 110.394 166.947 110.432C167.405 110.444 168.111 110.555 168.53 110.681C169.863 111.081 171.144 112.015 172.015 113.222L172.326 113.653L172.311 113.931C172.283 114.435 172.36 115.289 172.431 115.267C172.443 115.267 172.46 115.057 172.466 114.809C172.539 112.308 173.593 110.239 175.502 108.848C177.733 107.223 180.597 107.037 183.065 108.359C184.622 109.193 185.796 110.638 186.375 112.435C187.137 114.797 186.668 117.38 185.1 119.459C184.897 119.729 184.655 120.007 184.323 120.352C184.168 120.513 184.023 120.663 184.001 120.686C183.967 120.722 184.038 120.77 184.489 121.02C185.853 121.775 186.754 122.813 187.217 124.16C187.719 125.621 187.496 127.437 186.659 128.689C185.314 130.706 182.988 131.544 180.635 130.861C180.148 130.72 179.209 130.205 178.811 129.861C178.247 129.374 177.801 128.818 177.382 128.079C177.264 127.871 177.158 127.704 177.148 127.707C177.105 127.721 177.238 128.17 177.364 128.436C177.707 129.162 178.14 129.744 178.717 130.254C178.968 130.477 179.133 130.587 179.663 130.89L180.305 131.257L180.586 131.732C181.923 133.993 182.197 136.43 181.381 138.813C181.176 139.413 180.555 140.547 180.148 141.065C179.137 142.353 177.844 143.255 176.275 143.767C174.889 144.22 173.299 144.277 171.901 143.924C171.195 143.746 170.933 143.639 170.045 143.162C169.368 142.799 169.135 142.658 168.912 142.479C167.938 141.696 167.236 140.858 166.688 139.824C166.261 139.019 165.953 138.101 165.77 137.082C165.72 136.807 165.671 136.585 165.66 136.588C165.616 136.602 165.651 137.336 165.717 137.78C165.785 138.242 166.046 139.209 166.19 139.539L166.261 139.701L165.892 139.831C165.69 139.902 165.263 140.027 164.943 140.109C162.708 140.68 160.463 140.553 158.47 139.744C155.571 138.565 153.426 136.092 152.789 133.191C152.281 130.876 152.68 128.51 153.912 126.519L153.912 126.52Z" fill="#F9F9F9"/>
<path d="M163.31 107.552L162.516 108.732L127.905 94.2123L163.31 107.552Z" fill="black"/>
<path d="M155.997 110.399L127.359 95.0519L154.659 111.476L155.997 110.399Z" fill="black"/>
<path d="M153.455 118.899L152.74 120.82L126.385 96.0342L153.455 118.899Z" fill="black"/>
<path fill-rule="evenodd" clip-rule="evenodd" d="M176.683 17.9304C176.578 17.7714 176.469 17.6179 176.353 17.4733C175.94 16.9559 175.469 16.5393 174.995 16.2165C174.522 15.8936 174.047 15.6653 173.613 15.5114C173.298 15.3995 173.005 15.3266 172.745 15.2787C172.486 15.2308 172.26 15.2082 172.075 15.2003C171.947 15.1913 171.84 15.2003 171.754 15.2003C171.754 15.1534 171.745 15.1055 171.743 15.0581C171.708 14.6897 171.639 14.3076 171.53 13.9188C171.42 13.53 171.272 13.1352 171.077 12.7476C170.882 12.3599 170.642 11.9782 170.355 11.6184C170.05 11.2379 169.693 10.8846 169.29 10.5702C168.888 10.2557 168.44 9.97969 167.958 9.75981C167.407 9.50876 166.832 9.3392 166.258 9.25052C165.376 9.11502 164.505 9.17393 163.719 9.36653C162.934 9.55907 162.234 9.88384 161.652 10.276C161.35 10.4797 161.081 10.7011 160.843 10.9279C160.74 11.0253 160.646 11.1242 160.554 11.2231C160.492 11.1778 160.409 11.1236 160.303 11.0623C160.166 10.9839 159.993 10.8952 159.783 10.8055C159.572 10.7157 159.325 10.6245 159.04 10.5478C158.742 10.4678 158.403 10.4045 158.03 10.3719C157.657 10.3388 157.25 10.3372 156.818 10.3825C156.386 10.4295 155.93 10.5243 155.467 10.6796C155.004 10.8349 154.534 11.0523 154.082 11.3412C153.417 11.7672 152.797 12.348 152.295 13.0601C151.793 13.7721 151.409 14.6151 151.224 15.5313C151.206 15.6221 151.19 15.7126 151.175 15.8044C151.04 16.6704 151.087 17.5385 151.275 18.3409C151.463 19.1433 151.792 19.8797 152.212 20.5088C152.502 20.9414 152.832 21.3226 153.181 21.6501C153.531 21.9778 153.9 22.2527 154.27 22.4792C154.64 22.7057 155.011 22.8825 155.369 23.0193C155.726 23.156 156.07 23.2521 156.39 23.3162C156.429 23.3253 156.469 23.3319 156.507 23.3389C156.475 23.3955 156.441 23.4609 156.404 23.5401C156.272 23.8237 156.107 24.2535 155.982 24.8161C155.915 25.1135 155.86 25.4481 155.83 25.8145C155.799 26.1809 155.795 26.5783 155.82 27.0004C155.85 27.4225 155.917 27.8687 156.028 28.3262C156.14 28.7837 156.297 29.2525 156.51 29.7178C156.847 30.4565 157.321 31.1824 157.924 31.8297C158.512 32.4611 159.182 32.9756 159.877 33.3608C160.443 33.6739 161.022 33.8988 161.583 34.0514C162.143 34.2042 162.685 34.2847 163.185 34.3145C163.711 34.3458 164.19 34.3235 164.607 34.2684C165.025 34.2152 165.381 34.1331 165.666 34.049C165.951 33.9645 166.168 33.8794 166.31 33.8118C166.332 33.8012 166.348 33.7926 166.367 33.7831C166.476 34.0711 166.617 34.3697 166.797 34.6697C166.986 34.9846 167.217 35.2998 167.502 35.5961C167.948 36.0592 168.52 36.464 169.189 36.7517C169.858 37.0393 170.624 37.2103 171.425 37.2038C171.982 37.1947 172.551 37.1114 173.109 36.9422C173.666 36.7732 174.211 36.5233 174.719 36.1964C174.961 36.0406 175.193 35.8696 175.409 35.6867C175.993 35.1908 176.475 34.6118 176.855 33.9998C177.235 33.3878 177.514 32.7422 177.703 32.105C177.936 31.3199 178.037 30.5507 178.054 29.837C178.071 29.1232 178.002 28.4654 177.895 27.8852C177.801 27.375 177.677 26.9237 177.547 26.5359C177.417 26.1481 177.281 25.8231 177.158 25.5646C177.035 25.3063 176.925 25.1133 176.845 24.9865C176.78 24.8846 176.735 24.8269 176.711 24.8117C176.88 24.5556 177.044 24.266 177.188 23.943C177.391 23.4883 177.555 22.9675 177.646 22.4011C177.737 21.8346 177.756 21.2222 177.675 20.5953C177.629 20.2403 177.55 19.8823 177.439 19.5282C177.257 18.9451 176.994 18.4059 176.68 17.9287L176.683 17.9304ZM176.229 18.2256C176.509 18.6674 176.744 19.1632 176.911 19.6965C177.012 20.0203 177.084 20.3469 177.129 20.6705C177.21 21.2421 177.204 21.8051 177.139 22.3289C177.07 22.8525 176.938 23.3374 176.772 23.7679C176.599 24.2137 176.389 24.6027 176.178 24.9306C175.967 25.2585 175.755 25.5256 175.572 25.7391C175.389 25.9527 175.234 26.1122 175.131 26.225C175.028 26.3377 174.975 26.4038 174.989 26.4229C175.003 26.4421 175.083 26.4123 175.217 26.3313C175.35 26.2504 175.539 26.1183 175.758 25.9237C175.978 25.7291 176.23 25.471 176.482 25.1426C176.555 25.0472 176.628 24.9464 176.7 24.8388C176.7 24.8737 176.722 24.939 176.755 25.0358C176.804 25.1763 176.88 25.3799 176.972 25.6452C177.063 25.9106 177.169 26.2371 177.269 26.6222C177.369 27.0072 177.461 27.4504 177.528 27.9461C177.603 28.5096 177.643 29.1427 177.606 29.8215C177.569 30.5004 177.455 31.2245 177.221 31.9561C177.031 32.549 176.761 33.1482 176.402 33.7135C176.043 34.2788 175.594 34.8108 175.055 35.2628C174.857 35.4293 174.645 35.5842 174.423 35.7268C173.957 36.0261 173.458 36.2583 172.951 36.4164C172.444 36.5746 171.929 36.6581 171.424 36.6674C170.702 36.681 170.001 36.5397 169.386 36.2925C168.771 36.0454 168.242 35.6928 167.824 35.2845C167.555 35.024 167.33 34.7435 167.143 34.4591C166.955 34.1746 166.804 33.8872 166.683 33.6102C166.513 33.2206 166.403 32.8505 166.328 32.5215C166.253 32.1924 166.214 31.9034 166.191 31.6669C166.167 31.4304 166.159 31.2458 166.15 31.1201C166.141 30.9944 166.132 30.9278 166.116 30.9262C166.099 30.9262 166.077 30.9889 166.053 31.1145C166.03 31.2405 166.007 31.4289 166.001 31.6742C165.992 31.9195 166.001 32.222 166.056 32.5717C166.105 32.905 166.192 33.2814 166.336 33.6823C166.317 33.6823 166.298 33.6914 166.276 33.6914C166.123 33.7191 165.903 33.7663 165.619 33.8123C165.334 33.8584 164.987 33.9046 164.584 33.9247C164.182 33.9447 163.723 33.9398 163.227 33.8856C162.755 33.8334 162.249 33.7364 161.727 33.5765C161.206 33.4166 160.668 33.194 160.148 32.8937C159.506 32.5244 158.886 32.0387 158.338 31.4499C157.776 30.8463 157.329 30.1755 157.003 29.4923C156.798 29.0621 156.639 28.6265 156.522 28.2003C156.405 27.7742 156.33 27.3573 156.285 26.9601C156.239 26.563 156.225 26.1859 156.232 25.8365C156.241 25.487 156.271 25.1644 156.311 24.8753C156.386 24.3276 156.496 23.8977 156.573 23.6017C156.598 23.5051 156.619 23.4294 156.636 23.3618C156.913 23.4062 157.169 23.4279 157.399 23.4358C157.694 23.4463 157.946 23.4358 158.15 23.4115C158.353 23.3906 158.508 23.3619 158.612 23.3358C158.715 23.3096 158.768 23.287 158.766 23.2714C158.766 23.2557 158.708 23.2497 158.603 23.2453C158.498 23.2453 158.342 23.2453 158.143 23.2347C157.944 23.2256 157.7 23.2121 157.418 23.1773C157.136 23.1424 156.816 23.0864 156.468 22.994C156.168 22.9148 155.848 22.8082 155.518 22.6631C155.187 22.5181 154.846 22.3363 154.507 22.1115C154.169 21.8868 153.833 21.6178 153.516 21.3045C153.199 20.9912 152.902 20.6328 152.644 20.2291C152.268 19.643 151.977 18.9598 151.811 18.2197C151.646 17.4795 151.606 16.6821 151.73 15.8912C151.743 15.8077 151.757 15.7237 151.773 15.6409C151.94 14.8051 152.289 14.03 152.743 13.3699C153.197 12.7098 153.758 12.1655 154.361 11.7611C154.77 11.4861 155.198 11.2739 155.623 11.1164C156.049 10.9588 156.471 10.8559 156.874 10.7953C157.276 10.7344 157.659 10.7161 158.012 10.7273C158.365 10.7379 158.687 10.7787 158.975 10.834C159.251 10.8871 159.496 10.9524 159.707 11.0175C159.918 11.0828 160.095 11.1477 160.238 11.2025C160.34 11.2416 160.418 11.2731 160.486 11.2993C160.392 11.4051 160.302 11.5103 160.22 11.6156C159.861 12.0748 159.613 12.5198 159.445 12.8973C159.278 13.2749 159.188 13.5852 159.141 13.7991C159.094 14.0131 159.089 14.1321 159.111 14.1382C159.134 14.1472 159.184 14.0377 159.27 13.8419C159.357 13.6459 159.483 13.3593 159.678 13.0139C159.874 12.6685 160.139 12.2647 160.503 11.8511C160.867 11.4377 161.329 11.0154 161.903 10.6583C162.455 10.3139 163.111 10.0313 163.84 9.86867C164.568 9.70607 165.368 9.66365 166.173 9.79463C166.697 9.87908 167.223 10.0365 167.728 10.267C168.17 10.4687 168.582 10.7196 168.954 11.0054C169.325 11.2911 169.656 11.6128 169.939 11.9574C170.207 12.2827 170.434 12.6283 170.621 12.9821C170.808 13.3359 170.954 13.6984 171.066 14.056C171.178 14.4136 171.254 14.7657 171.3 15.1076C171.346 15.4494 171.361 15.7802 171.352 16.0915C171.338 16.5996 171.265 17.0586 171.169 17.4551C171.072 17.8516 170.953 18.1866 170.844 18.4557C170.735 18.7249 170.637 18.9296 170.572 19.0707C170.506 19.2118 170.476 19.2898 170.492 19.3008C170.509 19.3114 170.573 19.2548 170.671 19.1309C170.769 19.0069 170.902 18.8144 171.047 18.5506C171.191 18.2868 171.346 17.9505 171.477 17.5421C171.608 17.1337 171.716 16.6531 171.756 16.1121C171.774 15.8669 171.778 15.6098 171.765 15.3439C171.845 15.3622 171.938 15.3814 172.051 15.4075C172.225 15.4466 172.437 15.4977 172.677 15.5709C172.918 15.644 173.186 15.7388 173.473 15.8665C173.868 16.0418 174.298 16.2807 174.722 16.5998C175.147 16.919 175.568 17.3184 175.936 17.8008C176.039 17.9354 176.138 18.0768 176.231 18.2241L176.229 18.2256Z" fill="black"/>
<path d="M157.254 29.975C156.423 28.5306 156.069 26.7093 156.288 25.0119C156.342 24.5949 156.512 23.7388 156.582 23.5278L156.638 23.3596L156.959 23.3908C157.446 23.4387 157.804 23.4361 158.219 23.3802C158.735 23.3115 158.838 23.2713 158.531 23.2595C156.916 23.1978 155.981 22.9636 154.892 22.3489C153.852 21.7609 152.973 20.881 152.441 19.8925C151.332 17.835 151.396 15.4833 152.613 13.5643C153.632 11.9572 155.232 10.9718 157.17 10.7574C157.868 10.6799 158.85 10.7574 159.478 10.9446C159.874 11.0609 160.488 11.2804 160.481 11.303C160.481 11.3136 160.38 11.4379 160.265 11.5792C159.982 11.925 159.572 12.6133 159.408 13.0192C159.249 13.4129 159.101 13.926 159.112 14.049C159.121 14.1335 159.122 14.1317 159.192 13.9847C159.232 13.9012 159.313 13.7234 159.373 13.5899C159.552 13.1908 160.008 12.4523 160.288 12.1063C160.721 11.5722 160.933 11.3658 161.462 10.9624C162.946 9.83032 165.017 9.43147 166.809 9.93234C169.252 10.615 170.997 12.6574 171.308 15.1969C171.456 16.4027 171.248 17.5873 170.663 18.8791C170.563 19.0985 170.5 19.2732 170.522 19.2674C170.596 19.2482 170.93 18.7508 171.106 18.3956C171.523 17.5579 171.748 16.6421 171.756 15.7495C171.756 15.5532 171.756 15.383 171.765 15.3712C171.774 15.2965 172.905 15.6185 173.427 15.8446C174.713 16.4008 175.847 17.4345 176.463 18.6121C177.58 20.7483 177.416 23.1464 176.014 25.1784C175.837 25.4353 175.501 25.8388 175.148 26.2193C174.914 26.4706 175.021 26.4472 175.419 26.1591C175.823 25.868 176.122 25.577 176.458 25.1487C176.577 24.9966 176.683 24.874 176.694 24.8762C176.733 24.8852 177.137 26.1043 177.266 26.6024C177.676 28.1876 177.733 29.7101 177.434 31.1245C177.233 32.075 176.962 32.7786 176.5 33.55C175.59 35.0683 174.285 36.0731 172.679 36.4917C171.438 36.815 170.076 36.6715 168.973 36.1013C167.368 35.2715 166.414 33.7397 166.19 31.6328C166.153 31.2805 166.118 30.9856 166.113 30.9776C166.087 30.9384 166.043 31.2049 166.023 31.5225C165.986 32.0756 166.09 32.8662 166.274 33.4505C166.31 33.567 166.33 33.669 166.317 33.6772C166.264 33.712 165.564 33.8315 165.14 33.8786C163.28 34.0855 161.499 33.7114 159.995 32.798C158.839 32.0965 157.951 31.1807 157.257 29.9737L157.254 29.975Z" fill="#F9F9F9"/>
<path d="M151.123 23.4524L152.116 24.4709L130.819 55.3768L151.123 23.4524Z" fill="black"/>
<path d="M152.412 31.1931L131.528 56.0829L153.192 32.7227L152.412 31.1931Z" fill="black"/>
<path d="M160.212 35.4215L161.946 36.5144L132.291 57.2389L160.212 35.4215Z" fill="black"/>
<path fill-rule="evenodd" clip-rule="evenodd" d="M0.404978 117.653C0.566537 118.172 0.772634 118.665 1.01009 119.127C1.2815 119.655 1.59462 120.142 1.93785 120.581C2.28116 121.02 2.65308 121.412 3.0401 121.755C3.43929 122.107 3.85407 122.405 4.26571 122.657C4.67735 122.909 5.08558 123.114 5.48077 123.279C6.27106 123.61 7.00025 123.782 7.6033 123.867C8.14482 123.944 8.58545 123.953 8.90369 123.939C8.59032 124.291 8.29509 124.684 8.03194 125.117C7.52281 125.954 7.12997 126.941 6.95509 128.022C6.81883 128.868 6.81794 129.763 6.97081 130.661C7.12331 131.558 7.42987 132.456 7.89618 133.288C7.96672 133.415 8.04165 133.539 8.11893 133.66C8.67637 134.537 9.3926 135.278 10.1862 135.858C10.9797 136.437 11.8501 136.853 12.7288 137.105C13.7066 137.384 14.6833 137.458 15.5872 137.385C16.1071 137.343 16.6024 137.251 17.0657 137.125C17.0657 137.134 17.0657 137.137 17.0657 137.145C17.0483 137.334 17.0379 137.617 17.0566 137.984C17.0793 138.351 17.1358 138.803 17.2655 139.319C17.3951 139.835 17.5972 140.416 17.9149 141.021C18.2203 141.603 18.6328 142.204 19.1667 142.776C19.7007 143.347 20.3579 143.89 21.1329 144.339C21.7555 144.699 22.4507 145 23.2039 145.215C23.9573 145.43 24.7676 145.56 25.6086 145.581C26.3506 145.599 27.1132 145.532 27.8777 145.377C28.6423 145.223 29.4082 144.981 30.153 144.654C31.5386 144.045 32.8579 143.146 33.9837 141.996C34.2327 141.742 34.4727 141.475 34.702 141.197C35.5961 140.116 36.2928 138.909 36.7726 137.661C37.2524 136.414 37.5156 135.129 37.5629 133.875C37.5925 133.075 37.5316 132.291 37.3988 131.545C37.2662 130.798 37.0615 130.087 36.8012 129.425C36.4998 128.657 36.1219 127.955 35.6972 127.33C35.2726 126.705 34.8017 126.159 34.3087 125.694C33.9132 125.32 33.5058 125 33.1022 124.725C32.8233 124.535 32.5467 124.37 32.2749 124.222C32.3036 124.195 32.3333 124.169 32.3671 124.134C32.5388 123.961 32.7783 123.693 33.0455 123.317C33.3127 122.941 33.6074 122.457 33.8778 121.863C34.1483 121.269 34.3936 120.562 34.546 119.757C34.6906 118.993 34.7498 118.143 34.6777 117.244C34.6055 116.346 34.4033 115.399 34.0327 114.468C33.8069 113.902 33.5196 113.344 33.1722 112.808C32.8248 112.272 32.4173 111.759 31.9533 111.286C31.5804 110.906 31.1798 110.563 30.7611 110.258C29.9765 109.686 29.1292 109.254 28.2775 108.956C27.6286 108.729 26.9772 108.579 26.3437 108.497C26.3194 108.252 26.2688 107.906 26.1707 107.47C26.0682 107.014 25.9133 106.462 25.6791 105.843C25.445 105.224 25.1318 104.537 24.7095 103.824C24.257 103.059 23.6766 102.262 22.9479 101.506C22.2191 100.749 21.3416 100.035 20.3128 99.4586C19.3152 98.9002 18.1735 98.4812 16.9603 98.2853C16.0329 98.1356 15.1048 98.1231 14.2162 98.2435C13.079 98.4003 12.0254 98.7748 11.1121 99.2723C10.1986 99.7698 9.42502 100.391 8.80508 101.05C8.14058 101.756 7.65283 102.502 7.30213 103.196C6.95134 103.89 6.73555 104.533 6.60298 105.068C6.47035 105.603 6.4188 106.031 6.40129 106.323C6.40129 106.323 6.40129 106.332 6.40129 106.334C6.07209 106.434 5.73556 106.558 5.39687 106.706C4.85386 106.945 4.30411 107.25 3.77207 107.629C3.24014 108.009 2.72612 108.462 2.25903 108.992C1.70098 109.626 1.2145 110.367 0.837949 111.189C0.461476 112.011 0.194313 112.914 0.0729662 113.856C0.000759321 114.421 -0.0173899 114.987 0.0164476 115.541C0.0564786 116.193 0.167508 116.826 0.337995 117.427C0.358841 117.502 0.382411 117.578 0.40507 117.652L0.404978 117.653ZM1.017 117.464C0.996155 117.394 0.976071 117.326 0.956887 117.256C0.803591 116.695 0.702842 116.107 0.668808 115.504C0.6392 114.992 0.658243 114.467 0.725465 113.942C0.838307 113.067 1.08479 112.226 1.42913 111.458C1.77349 110.691 2.21611 109.997 2.72593 109.399C3.15177 108.9 3.62349 108.467 4.11381 108.1C4.60414 107.734 5.11355 107.433 5.61824 107.192C6.12293 106.95 6.62378 106.769 7.10349 106.637C7.58319 106.505 8.04139 106.422 8.46731 106.374C8.962 106.319 9.41283 106.311 9.80619 106.323C10.1995 106.336 10.5362 106.369 10.8104 106.404C11.0845 106.439 11.2957 106.472 11.4404 106.491C11.5851 106.51 11.6623 106.515 11.6677 106.5C11.6767 106.482 11.6059 106.443 11.4686 106.388C11.3314 106.333 11.1244 106.263 10.8498 106.194C10.5752 106.124 10.2334 106.056 9.82804 106.011C9.42267 105.965 8.95323 105.944 8.43269 105.973C7.98378 105.998 7.49738 106.063 6.98589 106.181C6.85159 106.212 6.71595 106.246 6.5785 106.285C6.64557 106.009 6.73799 105.626 6.89747 105.156C7.06893 104.651 7.31574 104.05 7.68393 103.405C8.05214 102.759 8.54296 102.072 9.18988 101.427C9.7932 100.826 10.535 100.26 11.3986 99.8101C12.2622 99.3604 13.2466 99.0263 14.3012 98.8909C15.1253 98.7833 15.9902 98.7986 16.8561 98.9397C17.9889 99.1237 19.0605 99.5105 20.0035 100.024C20.9779 100.554 21.8201 101.217 22.53 101.923C23.2397 102.628 23.8166 103.375 24.2799 104.094C24.7119 104.765 25.0474 105.414 25.3085 106.001C25.5698 106.588 25.7573 107.111 25.8984 107.547C26.0264 107.941 26.1106 108.251 26.1774 108.482C26.036 108.466 25.8943 108.452 25.7551 108.443C25.039 108.396 24.3578 108.434 23.7294 108.533C23.1011 108.63 22.5267 108.782 22.0156 108.963C21.4612 109.158 20.98 109.387 20.5761 109.613C20.1721 109.84 19.8458 110.065 19.5896 110.262C19.3334 110.46 19.1483 110.628 19.0299 110.749C18.9115 110.871 18.858 110.946 18.8719 110.962C18.8855 110.978 18.9667 110.937 19.1088 110.848C19.2509 110.76 19.4541 110.624 19.7246 110.463C19.9951 110.301 20.3329 110.113 20.7376 109.924C21.1422 109.735 21.6143 109.546 22.1525 109.386C22.649 109.239 23.2012 109.117 23.7991 109.048C24.3969 108.978 25.0405 108.96 25.7105 109.021C26.4739 109.091 27.2724 109.262 28.0656 109.553C28.8589 109.844 29.6476 110.254 30.3753 110.79C30.7639 111.076 31.1353 111.397 31.4831 111.751C32.3484 112.633 33.0086 113.661 33.4431 114.713C33.8 115.577 34.0068 116.459 34.0947 117.302C34.1828 118.145 34.1513 118.948 34.0417 119.676C33.9266 120.442 33.7275 121.125 33.5023 121.709C33.277 122.292 33.0272 122.778 32.8041 123.166C32.5809 123.553 32.3833 123.844 32.2513 124.044C32.2208 124.091 32.1939 124.132 32.1703 124.169C32.0841 124.124 31.9987 124.079 31.9139 124.037C31.1435 123.657 30.4341 123.432 29.8484 123.295C29.2627 123.158 28.7975 123.107 28.4826 123.09C28.1677 123.072 28.0021 123.09 28.0004 123.109C28.0004 123.131 28.1627 123.162 28.468 123.221C28.7733 123.28 29.2212 123.369 29.7819 123.54C30.3427 123.712 31.0156 123.967 31.7425 124.364C32.106 124.562 32.4832 124.796 32.861 125.073C33.2388 125.349 33.6188 125.665 33.9851 126.031C34.4419 126.487 34.8774 127.019 35.2675 127.622C35.6577 128.224 36.0012 128.899 36.2753 129.632C36.5114 130.265 36.6966 130.942 36.8129 131.651C36.929 132.36 36.9765 133.1 36.9411 133.854C36.8872 135.038 36.6294 136.252 36.1679 137.432C35.7065 138.611 35.0423 139.755 34.1945 140.782C33.9771 141.045 33.749 141.298 33.5134 141.539C32.4477 142.63 31.2026 143.489 29.8952 144.073C29.1932 144.387 28.4718 144.621 27.7529 144.775C27.034 144.928 26.3173 145 25.6209 144.991C24.8304 144.981 24.0662 144.87 23.3533 144.681C22.6404 144.491 21.9783 144.223 21.385 143.896C20.6465 143.49 20.0126 142.993 19.4906 142.467C18.9686 141.941 18.5585 141.387 18.2463 140.846C17.9209 140.282 17.7002 139.734 17.5474 139.244C17.3947 138.755 17.3105 138.322 17.2572 137.968C17.2042 137.614 17.1823 137.336 17.1655 137.149C17.1655 137.129 17.1655 137.123 17.1564 137.105C17.4641 137.017 17.7571 136.913 18.0336 136.796C18.7995 136.473 19.4339 136.061 19.9427 135.644C20.4515 135.228 20.8357 134.806 21.1189 134.443C21.4022 134.079 21.5855 133.772 21.6973 133.557C21.809 133.342 21.8502 133.219 21.8296 133.208C21.8087 133.196 21.7293 133.294 21.5823 133.481C21.4353 133.668 21.2196 133.945 20.9152 134.271C20.6108 134.597 20.215 134.973 19.7085 135.342C19.202 135.712 18.5847 136.073 17.855 136.349C17.172 136.607 16.3902 136.789 15.5456 136.835C14.701 136.881 13.7937 136.793 12.8962 136.521C12.0897 136.277 11.2909 135.883 10.5631 135.342C9.83536 134.801 9.17919 134.114 8.66987 133.31C8.59933 133.199 8.53062 133.087 8.4656 132.971C8.0376 132.208 7.75379 131.382 7.60773 130.556C7.46165 129.729 7.45393 128.901 7.56937 128.121C7.71635 127.124 8.06396 126.204 8.52 125.413C8.97604 124.623 9.5402 123.962 10.1359 123.444C10.4517 123.169 10.7749 122.934 11.0971 122.732C11.4191 122.53 11.7402 122.362 12.0478 122.223C12.663 121.944 13.2282 121.78 13.6984 121.675C14.1686 121.57 14.5451 121.525 14.8009 121.494C15.0567 121.463 15.1931 121.445 15.1937 121.42C15.1937 121.396 15.0586 121.364 14.7965 121.35C14.5343 121.335 14.1435 121.335 13.6491 121.402C13.1547 121.468 12.5555 121.602 11.8945 121.861C11.5641 121.99 11.2187 122.15 10.8688 122.349C10.519 122.548 10.1638 122.784 9.81628 123.065C9.55401 123.278 9.29653 123.517 9.04932 123.779C9.03361 123.779 9.02322 123.779 9.00751 123.77C8.6917 123.737 8.23009 123.684 7.65627 123.556C7.08238 123.428 6.39482 123.223 5.65788 122.874C4.92104 122.524 4.13467 122.031 3.40627 121.348C3.05268 121.017 2.71234 120.641 2.40028 120.223C2.08822 119.805 1.80427 119.347 1.55854 118.849C1.34353 118.414 1.15792 117.95 1.01239 117.465L1.017 117.464Z" fill="black"/>
<path d="M33.9374 116.289C34.1882 117.436 34.2202 118.497 34.04 119.691C33.8628 120.865 33.5663 121.701 32.8732 122.983C32.5337 123.61 32.2255 124.133 32.1883 124.144C32.1509 124.155 31.9265 124.069 31.6892 123.952C30.8366 123.533 29.3541 123.145 28.4623 123.108C28.2725 123.099 28.1206 123.108 28.1249 123.119C28.1249 123.132 28.3195 123.178 28.5479 123.219C30.2147 123.518 32.0185 124.347 33.2945 125.4C34.9337 126.753 36.0244 128.499 36.5923 130.68C37.4317 133.905 36.776 137.193 34.7127 140.105C32.6657 142.994 29.3746 144.847 26.0514 144.983C24.2414 145.057 22.3416 144.548 20.9021 143.604C19.5826 142.739 18.633 141.677 17.9709 140.325C17.6428 139.655 17.2528 138.26 17.1835 137.509L17.1452 137.099L17.7266 136.882C19.0174 136.403 20.0783 135.65 20.984 134.571C21.3143 134.178 21.8521 133.332 21.7925 133.3C21.7751 133.291 21.5815 133.501 21.362 133.768C20.6092 134.682 19.7292 135.418 18.7679 135.938C18.0371 136.333 16.8437 136.706 16.0107 136.801C12.8074 137.163 9.65104 135.441 8.26413 132.574C7.24509 130.467 7.23795 128.027 8.24495 125.955C9.01557 124.369 10.0926 123.245 11.6413 122.412C12.4865 121.958 13.8695 121.561 15.0337 121.441L15.191 121.424L15.0134 121.384C14.7315 121.32 13.8723 121.375 13.1817 121.504C11.8426 121.75 10.3431 122.534 9.33512 123.515L9.04142 123.801L8.26002 123.665C6.87607 123.424 5.76036 123.011 4.69876 122.346C1.75329 120.5 0.182144 116.966 0.78782 113.551C1.35919 110.329 3.5133 107.843 6.64722 106.79C8.1619 106.281 9.23576 106.203 11.2941 106.451C11.433 106.468 11.5428 106.469 11.5381 106.451C11.5181 106.384 10.6054 106.138 10.0997 106.063C9.20494 105.931 7.76408 105.983 7.13804 106.17C7.0317 106.201 6.85718 106.235 6.75011 106.246L6.55548 106.264L6.66727 105.865C7.42815 103.151 9.03036 101.088 11.3795 99.7983C11.9706 99.4737 13.8177 98.9065 14.4935 98.8422C15.6638 98.7307 17.0894 98.8961 18.3222 99.2858C19.1422 99.5451 20.7451 100.401 21.4404 100.95C23.0006 102.183 24.2211 103.719 25.1384 105.605C25.4154 106.175 26.2387 108.368 26.2015 108.437C26.1894 108.46 25.8612 108.468 25.4722 108.454C23.6089 108.393 21.6415 108.931 20.1011 109.924C19.6445 110.218 18.9117 110.827 18.9738 110.861C18.9912 110.87 19.2505 110.73 19.5494 110.549C21.5061 109.365 23.3896 108.878 25.5192 109.004C27.797 109.138 30.167 110.274 31.6881 111.96C32.8648 113.264 33.5748 114.63 33.937 116.286L33.9374 116.289Z" fill="#F9F9F9"/>
<path d="M37.5436 122.559L36.7793 121.063L71.6169 93.6152L37.5436 122.559Z" fill="black"/>
<path d="M38.7919 113.371L71.0617 92.5698L38.4453 111.371L38.7919 113.371Z" fill="black"/>
<path d="M31.4642 105.872L29.8887 104.033L70.6053 90.9985L31.4642 105.872Z" fill="black"/>
<path d="M84.103 77.482C84.103 77.974 84.001 78.43 83.797 78.85C83.593 79.27 83.317 79.654 82.969 80.002C82.621 80.338 82.213 80.638 81.745 80.902C81.289 81.154 80.803 81.37 80.287 81.55C79.783 81.718 79.261 81.85 78.721 81.946C78.193 82.03 77.683 82.072 77.191 82.072C76.747 82.072 76.333 82.036 75.949 81.964C76.525 79.864 76.981 77.752 77.317 75.628C77.665 73.492 77.995 71.344 78.307 69.184C78.931 69.052 79.579 68.938 80.251 68.842C80.923 68.734 81.619 68.68 82.339 68.68C82.639 68.68 82.957 68.716 83.293 68.788C83.629 68.86 83.935 68.992 84.211 69.184C84.487 69.376 84.715 69.628 84.895 69.94C85.087 70.252 85.183 70.648 85.183 71.128C85.183 71.584 85.105 72.01 84.949 72.406C84.805 72.802 84.613 73.162 84.373 73.486C84.145 73.81 83.881 74.092 83.581 74.332C83.281 74.56 82.975 74.734 82.663 74.854C82.819 74.938 82.981 75.058 83.149 75.214C83.317 75.37 83.473 75.556 83.617 75.772C83.761 75.976 83.875 76.222 83.959 76.51C84.055 76.798 84.103 77.122 84.103 77.482ZM79.981 75.61C79.933 75.898 79.885 76.156 79.837 76.384C79.801 76.6 79.765 76.81 79.729 77.014C79.693 77.218 79.651 77.434 79.603 77.662C79.567 77.878 79.525 78.136 79.477 78.436C79.705 78.412 79.963 78.37 80.251 78.31C80.539 78.25 80.815 78.16 81.079 78.04C81.343 77.908 81.565 77.74 81.745 77.536C81.925 77.32 82.015 77.062 82.015 76.762C82.015 76.546 81.955 76.366 81.835 76.222C81.727 76.078 81.583 75.958 81.403 75.862C81.235 75.766 81.049 75.7 80.845 75.664C80.641 75.616 80.449 75.592 80.269 75.592C80.209 75.592 80.155 75.592 80.107 75.592C80.071 75.592 80.029 75.598 79.981 75.61ZM80.791 71.254C80.767 71.386 80.737 71.542 80.701 71.722C80.677 71.902 80.647 72.094 80.611 72.298C80.575 72.49 80.533 72.682 80.485 72.874C80.449 73.066 80.419 73.234 80.395 73.378C80.659 73.33 80.923 73.264 81.187 73.18C81.451 73.096 81.685 73.006 81.889 72.91C82.105 72.802 82.273 72.688 82.393 72.568C82.525 72.448 82.591 72.316 82.591 72.172C82.591 71.992 82.537 71.848 82.429 71.74C82.321 71.62 82.177 71.524 81.997 71.452C81.829 71.38 81.649 71.332 81.457 71.308C81.277 71.272 81.115 71.254 80.971 71.254H80.791ZM90.8302 81.64C90.5302 81.688 90.2002 81.742 89.8402 81.802C89.4802 81.862 89.1562 81.916 88.8682 81.964C88.9162 81.568 88.9642 81.178 89.0122 80.794C89.0482 80.458 89.0782 80.122 89.1022 79.786C89.1382 79.45 89.1682 79.162 89.1922 78.922H87.6262L86.9062 81.514C86.6422 81.55 86.3302 81.592 85.9702 81.64C85.6102 81.676 85.2742 81.712 84.9622 81.748C84.5782 81.796 84.2002 81.844 83.8282 81.892C84.3082 80.296 84.7822 78.724 85.2502 77.176C85.4422 76.528 85.6402 75.85 85.8442 75.142C86.0602 74.434 86.2702 73.732 86.4742 73.036C86.6902 72.328 86.8942 71.65 87.0862 71.002C87.2782 70.354 87.4462 69.76 87.5902 69.22C88.4062 69.16 89.2342 69.088 90.0742 69.004C90.9262 68.92 91.7542 68.806 92.5582 68.662C92.5222 69.046 92.4802 69.526 92.4322 70.102C92.3962 70.666 92.3602 71.284 92.3242 71.956C92.2882 72.628 92.2522 73.33 92.2162 74.062C92.1802 74.794 92.1442 75.514 92.1082 76.222C92.0482 77.878 91.9822 79.636 91.9102 81.496C91.5502 81.556 91.1902 81.604 90.8302 81.64ZM88.0582 77.122C88.1062 77.122 88.1902 77.122 88.3102 77.122C88.4422 77.11 88.5742 77.104 88.7062 77.104C88.8502 77.092 88.9822 77.086 89.1022 77.086C89.2222 77.074 89.3062 77.062 89.3542 77.05C89.3542 76.978 89.3602 76.858 89.3722 76.69C89.3962 76.51 89.4142 76.312 89.4262 76.096C89.4502 75.868 89.4742 75.622 89.4982 75.358C89.5222 75.094 89.5462 74.836 89.5702 74.584C89.6182 73.972 89.6782 73.312 89.7502 72.604L89.8582 71.038L89.5882 71.056L89.1742 72.604L88.0582 77.122ZM92.6234 82.09C92.9834 80.362 93.3254 78.688 93.6494 77.068C93.7694 76.372 93.8954 75.652 94.0274 74.908C94.1714 74.164 94.3034 73.432 94.4234 72.712C94.5434 71.98 94.6514 71.284 94.7474 70.624C94.8434 69.952 94.9154 69.346 94.9634 68.806C95.1194 68.818 95.2514 68.824 95.3594 68.824C95.4674 68.824 95.5934 68.824 95.7374 68.824C95.9054 68.824 96.1094 68.824 96.3494 68.824C96.5894 68.812 96.8294 68.8 97.0694 68.788C97.3094 68.776 97.5674 68.764 97.8434 68.752C98.0114 69.592 98.1614 70.402 98.2934 71.182C98.4254 71.866 98.5574 72.568 98.6894 73.288C98.8334 74.008 98.9594 74.62 99.0674 75.124C99.1154 74.884 99.1694 74.608 99.2294 74.296C99.2894 73.972 99.3554 73.636 99.4274 73.288C99.4994 72.94 99.5654 72.592 99.6254 72.244C99.6974 71.884 99.7694 71.53 99.8414 71.182C100.009 70.402 100.183 69.598 100.363 68.77L102.559 68.5C102.151 70.336 101.791 72.076 101.479 73.72C101.335 74.428 101.191 75.148 101.047 75.88C100.915 76.6 100.789 77.296 100.669 77.968C100.549 78.628 100.447 79.246 100.363 79.822C100.279 80.386 100.213 80.86 100.165 81.244C100.129 81.244 99.9854 81.274 99.7334 81.334C99.4934 81.382 99.2114 81.442 98.8874 81.514C98.5754 81.586 98.2574 81.658 97.9334 81.73C97.6214 81.802 97.3874 81.868 97.2314 81.928C97.1594 80.968 97.0814 80.056 96.9974 79.192C96.9614 78.82 96.9194 78.442 96.8714 78.058C96.8354 77.662 96.7934 77.284 96.7454 76.924C96.6974 76.564 96.6494 76.228 96.6014 75.916C96.5534 75.604 96.5054 75.334 96.4574 75.106C96.4214 75.334 96.3734 75.598 96.3134 75.898C96.2534 76.198 96.1934 76.516 96.1334 76.852C96.0734 77.188 96.0134 77.542 95.9534 77.914C95.8934 78.274 95.8274 78.622 95.7554 78.958C95.5994 79.762 95.4314 80.602 95.2514 81.478L92.6234 82.09ZM111.004 75.142C110.92 76.366 110.68 77.434 110.284 78.346C109.888 79.246 109.408 80.002 108.844 80.614C108.292 81.226 107.692 81.682 107.044 81.982C106.408 82.282 105.802 82.432 105.226 82.432C104.782 82.432 104.356 82.336 103.948 82.144C103.552 81.952 103.204 81.664 102.904 81.28C102.616 80.884 102.388 80.392 102.22 79.804C102.052 79.216 101.968 78.526 101.968 77.734C101.968 76.186 102.19 74.836 102.634 73.684C103.078 72.532 103.636 71.572 104.308 70.804C104.992 70.036 105.718 69.466 106.486 69.094C107.266 68.722 107.992 68.536 108.664 68.536C109.144 68.536 109.558 68.62 109.906 68.788C110.266 68.956 110.56 69.184 110.788 69.472C111.016 69.748 111.178 70.078 111.274 70.462C111.382 70.834 111.436 71.23 111.436 71.65L108.97 72.118C108.862 71.638 108.718 71.296 108.538 71.092C108.358 70.888 108.154 70.786 107.926 70.786C107.626 70.786 107.296 71.002 106.936 71.434C106.576 71.854 106.24 72.4 105.928 73.072C105.616 73.744 105.352 74.482 105.136 75.286C104.92 76.09 104.8 76.882 104.776 77.662C104.776 78.406 104.884 78.94 105.1 79.264C105.328 79.576 105.616 79.732 105.964 79.732C106.204 79.732 106.45 79.672 106.702 79.552C106.966 79.432 107.2 79.264 107.404 79.048C107.608 78.82 107.776 78.562 107.908 78.274C108.052 77.974 108.13 77.65 108.142 77.302L106.216 77.59L106.558 75.808C107.122 75.736 107.674 75.664 108.214 75.592C108.67 75.532 109.15 75.46 109.654 75.376C110.17 75.292 110.62 75.214 111.004 75.142ZM114.37 77.734C114.022 77.734 113.674 77.746 113.326 77.77C112.978 77.794 112.63 77.818 112.282 77.842C112.654 76.366 113.014 74.896 113.362 73.432C113.722 71.968 114.094 70.498 114.478 69.022C114.706 68.986 114.964 68.95 115.252 68.914C115.552 68.878 115.852 68.836 116.152 68.788C116.452 68.74 116.74 68.698 117.016 68.662C117.304 68.626 117.544 68.59 117.736 68.554C117.088 70.066 116.494 71.59 115.954 73.126C115.426 74.65 114.898 76.186 114.37 77.734ZM114.55 80.56C114.55 80.788 114.496 81.016 114.388 81.244C114.292 81.472 114.148 81.676 113.956 81.856C113.764 82.024 113.524 82.156 113.236 82.252C112.948 82.36 112.618 82.414 112.246 82.414C111.994 82.414 111.766 82.366 111.562 82.27C111.358 82.174 111.19 82.048 111.058 81.892C110.938 81.724 110.842 81.538 110.77 81.334C110.698 81.13 110.662 80.926 110.662 80.722C110.662 80.494 110.698 80.278 110.77 80.074C110.842 79.858 110.95 79.672 111.094 79.516C111.25 79.348 111.436 79.21 111.652 79.102C111.88 78.994 112.15 78.94 112.462 78.94C113.158 78.94 113.68 79.108 114.028 79.444C114.376 79.768 114.55 80.14 114.55 80.56ZM119.639 77.734C119.291 77.734 118.943 77.746 118.595 77.77C118.247 77.794 117.899 77.818 117.551 77.842C117.923 76.366 118.283 74.896 118.631 73.432C118.991 71.968 119.363 70.498 119.747 69.022C119.975 68.986 120.233 68.95 120.521 68.914C120.821 68.878 121.121 68.836 121.421 68.788C121.721 68.74 122.009 68.698 122.285 68.662C122.573 68.626 122.813 68.59 123.005 68.554C122.357 70.066 121.763 71.59 121.223 73.126C120.695 74.65 120.167 76.186 119.639 77.734ZM119.819 80.56C119.819 80.788 119.765 81.016 119.657 81.244C119.561 81.472 119.417 81.676 119.225 81.856C119.033 82.024 118.793 82.156 118.505 82.252C118.217 82.36 117.887 82.414 117.515 82.414C117.263 82.414 117.035 82.366 116.831 82.27C116.627 82.174 116.459 82.048 116.327 81.892C116.207 81.724 116.111 81.538 116.039 81.334C115.967 81.13 115.931 80.926 115.931 80.722C115.931 80.494 115.967 80.278 116.039 80.074C116.111 79.858 116.219 79.672 116.363 79.516C116.519 79.348 116.705 79.21 116.921 79.102C117.149 78.994 117.419 78.94 117.731 78.94C118.427 78.94 118.949 79.108 119.297 79.444C119.645 79.768 119.819 80.14 119.819 80.56ZM124.907 77.734C124.559 77.734 124.211 77.746 123.863 77.77C123.515 77.794 123.167 77.818 122.819 77.842C123.191 76.366 123.551 74.896 123.899 73.432C124.259 71.968 124.631 70.498 125.015 69.022C125.243 68.986 125.501 68.95 125.789 68.914C126.089 68.878 126.389 68.836 126.689 68.788C126.989 68.74 127.277 68.698 127.553 68.662C127.841 68.626 128.081 68.59 128.273 68.554C127.625 70.066 127.031 71.59 126.491 73.126C125.963 74.65 125.435 76.186 124.907 77.734ZM125.087 80.56C125.087 80.788 125.033 81.016 124.925 81.244C124.829 81.472 124.685 81.676 124.493 81.856C124.301 82.024 124.061 82.156 123.773 82.252C123.485 82.36 123.155 82.414 122.783 82.414C122.531 82.414 122.303 82.366 122.099 82.27C121.895 82.174 121.727 82.048 121.595 81.892C121.475 81.724 121.379 81.538 121.307 81.334C121.235 81.13 121.199 80.926 121.199 80.722C121.199 80.494 121.235 80.278 121.307 80.074C121.379 79.858 121.487 79.672 121.631 79.516C121.787 79.348 121.973 79.21 122.189 79.102C122.417 78.994 122.687 78.94 122.999 78.94C123.695 78.94 124.217 79.108 124.565 79.444C124.913 79.768 125.087 80.14 125.087 80.56Z" fill="#444444"/>
</svg>
