<svg width="726" height="726" viewBox="0 0 726 726" fill="none" xmlns="http://www.w3.org/2000/svg">
<g clip-path="url(#clip0)">
<path d="M363.006 676.956C298.904 676.956 246.938 624.99 246.937 560.887L246.937 165.141C246.937 101.039 298.902 49.0733 363.005 49.0726C427.107 49.0726 479.072 101.038 479.073 165.141L479.073 560.889C479.074 624.99 427.108 676.956 363.006 676.956Z" fill="#1184EF"/>
<path d="M292.297 568.954L292.298 157.072C292.298 103.7 331.05 59.4837 381.928 50.7474C375.756 49.7327 369.465 49.0716 363.006 49.0716C298.904 49.0716 246.938 101.038 246.937 165.14L246.937 560.888C246.937 624.99 298.903 676.956 363.006 676.957C369.465 676.957 375.756 676.296 381.928 675.281C331.05 666.542 292.298 622.326 292.297 568.954Z" fill="#407AD0"/>
<path d="M479.097 363.052L246.937 363.053L246.937 165.107C246.937 100.996 298.864 49.0697 362.974 49.0697C364.961 49.0697 366.949 49.1552 368.936 49.2415C370.233 49.3278 371.441 49.4147 372.737 49.5003C400.904 51.8352 426.219 64.1919 445.054 83.0271C466.05 104.022 479.097 133.053 479.096 165.108L479.097 363.052Z" fill="#1184EF"/>
<path d="M292.298 157.071L292.298 363.05H246.938L246.937 165.105C246.937 100.995 298.863 49.0683 362.974 49.0683C364.961 49.0683 366.948 49.1539 368.935 49.2401C370.232 49.3264 371.44 49.4134 372.737 49.4989C375.847 49.8447 378.872 50.276 381.895 50.7095C331.005 59.5243 292.297 103.674 292.298 157.071Z" fill="#407AD0"/>
<path d="M400.846 123.398C414.344 136.896 431.098 142.026 438.269 134.856C445.439 127.686 440.309 110.931 426.811 97.4326C413.312 83.9345 396.558 78.8046 389.388 85.9747C382.218 93.1447 387.348 109.9 400.846 123.398Z" fill="#58AFFF"/>
</g>
<defs>
<clipPath id="clip0">
<rect width="512" height="512" fill="white" transform="translate(363 0.960938) rotate(45)"/>
</clipPath>
</defs>
</svg>
