<svg width="184" height="147" viewBox="0 0 184 147" fill="none" xmlns="http://www.w3.org/2000/svg">
<path d="M0 74.9992C0 74.9992 51.318 71.8197 53.5743 68.3449C55.8305 64.8702 9.31629 47.785 9.31629 47.785C9.31629 47.785 58.9056 61.9439 64.2038 55.7239C69.502 49.5038 57.1383 23.042 57.1383 23.042C57.1383 23.042 71.9231 45.5271 80.3024 44.1044C88.6818 42.6818 101.113 12.5302 101.113 12.5302C101.113 12.5302 91.8688 40.213 103.279 41.6032C114.689 42.9935 131.715 9.5415 131.715 9.5415C131.715 9.5415 117.525 44.2466 122.037 49.5884C126.548 54.9302 162.267 39.4476 162.267 39.4476C162.267 39.4476 133.508 57.1457 133.422 62.1975C133.336 67.2493 166.117 72.8733 166.117 72.8733C166.117 72.8733 135.725 72.9394 134.867 80.155C134.008 87.3707 159.992 97.5325 159.992 97.5325C159.992 97.5325 129.139 87.82 122.335 94.1281C115.531 100.436 132.514 135.652 132.514 135.652C132.514 135.652 113.91 105.437 103.315 107.648C92.7189 109.858 79.3873 138.927 79.3873 138.927C79.3873 138.927 92.4732 105.99 81.1641 103.131C69.855 100.272 56.4542 129.901 56.4542 129.901C56.4542 129.901 68.8162 102.137 62.4643 97.087C56.1124 92.0368 22.0001 103.738 22.0001 103.738C22.0001 103.738 49.3311 91.2572 50.1577 83.9874C50.9843 76.7178 0 74.9992 0 74.9992V74.9992Z" fill="#444444"/>
<path d="M9.1748 74.7406C9.1748 74.7406 53.0356 70.0697 55.2919 66.595C57.5481 63.1202 11.034 46.035 11.034 46.035C11.034 46.035 60.6233 60.1939 65.9214 53.9738C71.2196 47.7539 58.8559 21.2921 58.8559 21.2921C58.8559 21.2921 73.6408 43.7772 82.02 42.3545C90.3993 40.9318 102.831 10.7802 102.831 10.7802C102.831 10.7802 93.5865 38.463 104.996 39.8532C116.406 41.2435 133.433 7.7915 133.433 7.7915C133.433 7.7915 119.243 42.4966 123.754 47.8384C128.266 53.1802 163.985 37.6977 163.985 37.6977C163.985 37.6977 135.226 55.3958 135.14 60.4475C135.054 65.4993 167.835 71.1233 167.835 71.1233C167.835 71.1233 137.443 71.1894 136.584 78.405C135.726 85.6207 161.71 95.7825 161.71 95.7825C161.71 95.7825 130.857 86.0701 124.053 92.3781C117.248 98.6861 134.232 133.902 134.232 133.902C134.232 133.902 115.628 103.687 105.032 105.898C94.4365 108.108 81.105 137.177 81.105 137.177C81.105 137.177 94.1909 104.24 82.8818 101.381C71.5727 98.5224 58.1718 128.151 58.1718 128.151C58.1718 128.151 70.5338 100.387 64.182 95.337C57.8301 90.2868 23.7177 101.988 23.7177 101.988C23.7177 101.988 51.0488 89.5072 51.8753 82.2375C52.702 74.9678 9.1748 74.7406 9.1748 74.7406V74.7406Z" fill="#FFCC00"/>
<path fill-rule="evenodd" clip-rule="evenodd" d="M91.8106 35.2205C90.64 35.2348 89.4939 35.3749 88.4043 35.6245C87.1592 35.9096 85.9872 36.3381 84.9231 36.8763C83.6483 37.5218 82.5361 38.3191 81.5902 39.1748C80.6442 40.0305 79.8648 40.9451 79.2364 41.8408C78.5637 42.7991 78.0612 43.7384 77.6895 44.5911C77.3917 45.2743 77.1779 45.9005 77.0214 46.449C76.5407 46.0266 75.9957 45.6209 75.3837 45.2575C74.804 44.9137 74.1654 44.61 73.4779 44.3636C72.7905 44.1171 72.0537 43.9285 71.2821 43.8148C70.5928 43.7131 69.8761 43.671 69.1452 43.7002C68.4143 43.7296 67.6698 43.8299 66.9301 44.012C66.0822 44.2211 65.2436 44.5362 64.4425 44.9537C63.929 45.2213 63.4409 45.5253 62.9833 45.8588C62.3714 46.3044 61.813 46.8034 61.3168 47.3397C60.8207 47.876 60.3877 48.4506 60.0203 49.0464C59.6142 49.7058 59.2896 50.389 59.0412 51.0745C58.7928 51.76 58.6195 52.4476 58.5102 53.1169C58.3797 53.9151 58.3409 54.6887 58.3715 55.4155C58.3715 55.4756 58.3792 55.5345 58.3805 55.5936C57.7169 55.6432 57.0059 55.7385 56.2597 55.899C55.3879 56.0866 54.4694 56.362 53.5359 56.7548C52.7784 57.0737 52.0119 57.4695 51.2587 57.9478C50.5054 58.4262 49.7643 58.9873 49.0596 59.6324C48.4338 60.2049 47.8369 60.845 47.2863 61.5475C46.7359 62.25 46.2315 63.0147 45.7952 63.8381C45.3187 64.7381 44.9274 65.7073 44.6359 66.7235C44.3444 67.7397 44.1529 68.8034 44.0778 69.8905C44.07 69.9691 44.0674 70.0475 44.0636 70.1259C44.0027 71.254 44.0714 72.3736 44.2582 73.4521C44.4452 74.5305 44.7512 75.5672 45.1655 76.5348C45.623 77.6023 46.2046 78.585 46.8703 79.4583C47.5359 80.3317 48.2865 81.0963 49.082 81.7426C50.0292 82.5118 51.0383 83.1107 52.0435 83.5543C52.6842 83.8372 53.3237 84.0559 53.9475 84.2209C53.9776 84.3544 54.0091 84.4892 54.0448 84.6264C54.2347 85.355 54.5112 86.1337 54.8996 86.925C55.288 87.7162 55.7886 88.5191 56.424 89.2823C56.9493 89.9126 57.5649 90.5121 58.2628 91.0544C58.9606 91.5965 59.7404 92.0815 60.5879 92.4812C61.7 93.006 62.9305 93.3861 64.2206 93.5596C64.72 93.6266 65.2197 93.6613 65.7148 93.6647C66.504 93.6725 67.2791 93.5955 68.0255 93.4547C68.772 93.3139 69.4905 93.1065 70.1672 92.847C70.9221 92.5577 71.6267 92.204 72.2706 91.8035C72.5031 91.659 72.7272 91.5075 72.9436 91.3518C73.1744 91.7786 73.4365 92.2168 73.7345 92.6593C74.102 93.2048 74.5223 93.7568 75.0039 94.2993C75.4677 94.8216 75.9875 95.3354 76.562 95.8248C77.1364 96.314 77.7666 96.7795 78.4485 97.207C79.1303 97.6346 79.8633 98.0231 80.6428 98.3587C81.4223 98.6943 82.2473 98.9761 83.1081 99.189C84.2748 99.4773 85.5054 99.6377 86.7615 99.6519C87.7877 99.6637 88.7987 99.5774 89.774 99.4053C90.7493 99.2328 91.6893 98.9734 92.5758 98.6418C93.4291 98.3225 94.2308 97.937 94.9759 97.5045C95.7209 97.072 96.4093 96.5924 97.0345 96.0856C97.5163 95.6952 97.9592 95.2887 98.3678 94.8735C98.5641 95.3074 98.794 95.7527 99.0598 96.2033C99.4956 96.9418 100.032 97.6942 100.685 98.416C101.217 99.0032 101.825 99.5685 102.508 100.091C103.19 100.613 103.946 101.092 104.769 101.503C105.501 101.87 106.285 102.184 107.111 102.428C107.938 102.671 108.805 102.842 109.7 102.927C111.165 103.066 112.697 102.966 114.203 102.612C114.409 102.564 114.613 102.512 114.815 102.455C115.669 102.214 116.488 101.897 117.26 101.515C118.032 101.133 118.757 100.686 119.423 100.186C120.143 99.6444 120.792 99.0421 121.368 98.4032C121.944 97.7643 122.445 97.088 122.873 96.3974C123.362 95.6098 123.757 94.8019 124.063 94.0002C124.088 93.9348 124.111 93.8696 124.134 93.8046C124.27 93.8324 124.408 93.8588 124.547 93.8825C125.35 94.0207 126.221 94.0961 127.144 94.0735C127.897 94.0547 128.682 93.9702 129.481 93.8077C130.281 93.6454 131.095 93.4063 131.902 93.0808C132.624 92.7899 133.341 92.4298 134.034 91.9992C134.727 91.5687 135.397 91.0674 136.023 90.4944C136.633 89.9353 137.199 89.3087 137.707 88.6254C138.444 87.6334 139.032 86.5609 139.467 85.4647C139.868 84.4566 140.141 83.4272 140.295 82.4138C140.449 81.4005 140.482 80.4026 140.411 79.452C140.338 78.4644 140.154 77.5317 139.898 76.6715C140.171 76.3972 140.442 76.1049 140.71 75.7903C141.325 75.066 141.915 74.2312 142.43 73.2866C142.851 72.516 143.219 71.674 143.513 70.7702C143.808 69.8664 144.029 68.9015 144.154 67.8943C144.266 66.995 144.302 66.062 144.248 65.1122C144.194 64.1624 144.05 63.1957 143.803 62.2363C143.503 61.0662 143.05 59.9093 142.453 58.8067C142.13 58.2117 141.77 57.6428 141.381 57.1047C140.804 56.3065 140.16 55.5752 139.467 54.9207C138.775 54.2664 138.035 53.689 137.265 53.1949C136.416 52.6503 135.535 52.2091 134.648 51.8603C133.762 51.5115 132.87 51.2561 131.998 51.0825C130.966 50.877 129.96 50.7852 129.008 50.7835C128.056 50.7835 127.157 50.8697 126.332 51.0189C125.847 51.1066 125.389 51.2139 124.956 51.3354C124.614 50.7819 124.234 50.2291 123.811 49.6859C123.153 48.8418 122.395 48.0218 121.54 47.2554C120.685 46.4889 119.734 45.777 118.7 45.1461C118.076 44.7659 117.423 44.4141 116.743 44.0995C115.293 43.4284 113.796 42.955 112.316 42.6743C110.662 42.361 109.039 42.295 107.519 42.4038C106.787 42.4564 106.077 42.5511 105.398 42.6759C105.259 42.4476 105.111 42.2204 104.955 41.9935C104.539 41.3884 104.066 40.7908 103.533 40.2151C102.999 39.6393 102.406 39.0844 101.756 38.5687C101.106 38.0531 100.398 37.5764 99.6367 37.1546C98.8092 36.6964 97.9208 36.3092 96.9848 36.0046C96.0488 35.7 95.0658 35.4774 94.0569 35.3492C93.4733 35.2748 92.8899 35.2344 92.3123 35.2236C92.1442 35.2236 91.9772 35.216 91.81 35.2236L91.8106 35.2205ZM91.8184 35.7278C91.9804 35.7278 92.1434 35.7278 92.3063 35.7278C92.866 35.7391 93.4314 35.7797 93.9967 35.852C94.9741 35.9762 95.9255 36.1896 96.8321 36.4818C97.7387 36.7742 98.5995 37.1451 99.4011 37.5841C100.14 37.9884 100.829 38.4474 101.463 38.9426C102.097 39.4378 102.677 39.9698 103.201 40.5238C103.725 41.0777 104.192 41.6522 104.605 42.2353C104.728 42.409 104.844 42.5839 104.957 42.7586C104.39 42.8766 103.845 43.0149 103.326 43.1706C102.666 43.3682 102.045 43.5919 101.468 43.8307C100.891 44.0696 100.357 44.3234 99.8668 44.5815C98.8872 45.0977 98.0848 45.6311 97.4557 46.1022C96.8264 46.5733 96.3689 46.9821 96.0682 47.2714C95.9178 47.416 95.8068 47.5316 95.735 47.6118C95.6628 47.6919 95.6306 47.7362 95.6377 47.7438C95.6455 47.7516 95.691 47.7212 95.7763 47.6562C95.8615 47.5909 95.9858 47.4912 96.1479 47.3619C96.472 47.1036 96.9496 46.7256 97.5911 46.2883C98.2326 45.851 99.0386 45.3556 100.015 44.8741C100.992 44.3928 102.139 43.9271 103.439 43.5619C105.443 42.8736 105.434 42.998 107.553 42.8636C109.037 42.7723 110.619 42.8485 112.226 43.161C113.664 43.4406 115.12 43.9056 116.531 44.5592C117.193 44.8656 117.831 45.205 118.439 45.5741C119.447 46.1865 120.376 46.8777 121.213 47.6196C122.051 48.3616 122.797 49.1542 123.446 49.9707C123.837 50.4628 124.193 50.9637 124.516 51.4659C124.115 51.5918 123.739 51.727 123.39 51.8683C122.554 52.2068 121.868 52.5721 121.327 52.8991C120.785 53.2261 120.388 53.5153 120.127 53.7199C119.866 53.9244 119.739 54.0435 119.749 54.0571C119.76 54.0707 119.907 53.9779 120.185 53.801C120.463 53.6241 120.873 53.3648 121.422 53.0677C121.971 52.7705 122.66 52.4354 123.491 52.1276C124.716 51.7227 124.737 51.7022 126.396 51.3625C127.204 51.2331 128.08 51.1635 129.007 51.1796C129.934 51.1954 130.911 51.2977 131.912 51.5088C132.758 51.6874 133.621 51.9443 134.478 52.2899C135.335 52.6354 136.187 53.069 137.004 53.6006C137.746 54.0825 138.457 54.6447 139.125 55.2803C139.792 55.916 140.416 56.6259 140.973 57.399C141.349 57.9203 141.695 58.4698 142.007 59.0454C142.585 60.1118 143.024 61.2296 143.317 62.3588C143.558 63.2846 143.701 64.2185 143.758 65.1376C143.815 66.0568 143.786 66.9611 143.684 67.8339C143.57 68.8112 143.364 69.7499 143.087 70.6302C142.811 71.5104 142.462 72.3322 142.064 73.0862C141.576 74.0107 141.013 74.8325 140.426 75.5501C140.213 75.8099 139.999 76.055 139.782 76.2882C139.782 76.2765 139.774 76.2657 139.77 76.2552C139.447 75.2836 139.037 74.4143 138.595 73.6577C138.117 72.841 137.603 72.1544 137.112 71.5898C136.62 71.0252 136.15 70.5817 135.75 70.2425C135.349 69.9034 135.017 69.6683 134.786 69.5172C134.556 69.3662 134.428 69.2996 134.418 69.3136C134.409 69.3278 134.516 69.421 134.726 69.5968C134.935 69.7724 135.244 70.0311 135.619 70.3873C135.994 70.7435 136.436 71.1977 136.898 71.768C137.36 72.3383 137.841 73.0254 138.287 73.8327C138.7 74.5807 139.082 75.4329 139.379 76.3809C140.021 79.4957 139.929 79.0224 139.958 79.4811C139.987 79.9399 139.974 81.3598 139.818 82.3364C139.662 83.313 139.393 84.3049 139.003 85.2759C138.578 86.3314 138.01 87.3636 137.3 88.3188C136.811 88.9769 136.268 89.581 135.683 90.1195C135.082 90.6722 134.438 91.1578 133.772 91.5766C133.106 91.9953 132.418 92.3475 131.723 92.6344C130.946 92.955 130.161 93.195 129.39 93.3613C128.619 93.5275 127.862 93.6198 127.134 93.6492C126.241 93.6853 125.393 93.6266 124.609 93.5092C124.491 93.4912 124.375 93.4724 124.26 93.452C124.466 92.8356 124.624 92.2258 124.733 91.6323C124.859 90.9554 124.925 90.3018 124.949 89.6806C124.972 89.0593 124.949 88.4704 124.902 87.9229C124.853 87.3753 124.772 86.8679 124.677 86.4054C124.582 85.9429 124.472 85.5249 124.357 85.1535C124.242 84.7821 124.124 84.4582 124.012 84.1801C123.901 83.9019 123.795 83.6696 123.705 83.4849C123.615 83.3002 123.54 83.1624 123.486 83.0713C123.432 82.9803 123.399 82.9365 123.39 82.9409C123.381 82.9487 123.398 82.998 123.433 83.0967C123.469 83.1956 123.527 83.3407 123.599 83.531C123.744 83.9118 123.95 84.4737 124.145 85.2139C124.242 85.584 124.336 85.9981 124.414 86.4546C124.492 86.9112 124.555 87.4102 124.589 87.9467C124.624 88.4832 124.63 89.0581 124.597 89.663C124.561 90.268 124.483 90.904 124.35 91.5591C123.721 93.876 124.373 91.6132 123.669 93.8433C123.362 94.6165 122.97 95.3938 122.489 96.1514C122.067 96.8156 121.576 97.4645 121.016 98.0776C120.455 98.6907 119.826 99.2692 119.129 99.7876C118.486 100.266 117.787 100.694 117.042 101.06C116.296 101.426 115.504 101.73 114.681 101.962C114.486 102.017 114.29 102.068 114.091 102.115C112.639 102.456 111.163 102.555 109.752 102.427C108.891 102.348 108.052 102.186 107.253 101.956C106.454 101.726 105.694 101.429 104.982 101.081C104.184 100.689 103.447 100.233 102.78 99.7351C102.113 99.237 101.516 98.6964 100.993 98.1349C100.349 97.4451 99.8145 96.7236 99.3755 96.013C99.353 96.0208 98.323 93.9435 98.323 93.9435C98.0258 93.2168 97.8187 92.5378 97.6708 91.9377C97.523 91.3376 97.4345 90.8144 97.3759 90.3868C97.3173 89.9592 97.2884 89.6273 97.2672 89.4022C97.2462 89.1771 97.2327 89.0586 97.2177 89.0586C97.2035 89.0586 97.1876 89.178 97.1809 89.4053C97.1731 89.6328 97.1731 89.9686 97.2095 90.4043C97.2426 90.8399 97.3074 91.3759 97.4342 91.9918C97.5611 92.6077 97.7502 93.304 98.0339 94.0549C98.0835 94.1865 98.1376 94.321 98.1934 94.4557C97.7569 94.8949 97.2781 95.3255 96.7581 95.7362C96.1438 96.2214 95.4712 96.6797 94.7441 97.093C94.017 97.5063 93.2361 97.8738 92.4078 98.1779C91.5474 98.4939 90.6359 98.7406 89.6905 98.9048C88.745 99.0691 87.7647 99.1514 86.7706 99.1402C85.5537 99.1267 84.3637 98.9731 83.2335 98.698C82.3996 98.4952 81.5979 98.2265 80.8399 97.9059C80.0819 97.5853 79.3675 97.2141 78.7014 96.8052C78.0354 96.3961 77.4176 95.9504 76.8532 95.4817C76.2887 95.013 75.7771 94.521 75.3175 94.0199C74.8402 93.4995 74.4193 92.9687 74.0497 92.4435C73.7402 92.0037 73.467 91.5669 73.2252 91.1423C73.5041 90.9293 73.7704 90.708 74.0194 90.4806C74.6513 89.9032 75.1835 89.2894 75.6268 88.6769C76.0702 88.0641 76.4235 87.4535 76.7048 86.8746C77.0127 86.2415 77.2342 85.6451 77.3938 85.1153C77.5534 84.5855 77.6518 84.1214 77.7144 83.741C77.7767 83.3606 77.8047 83.064 77.8148 82.863C77.8252 82.6618 77.8148 82.5559 77.8018 82.5543C77.7868 82.5543 77.7626 82.6558 77.7236 82.8518C77.6844 83.0478 77.6301 83.3365 77.5418 83.706C77.4534 84.0755 77.331 84.5262 77.1511 85.0374C76.9712 85.5485 76.7336 86.1214 76.4144 86.7282C76.1225 87.283 75.762 87.8658 75.3188 88.4493C74.8756 89.0329 74.3487 89.6168 73.7305 90.1625C72.798 90.938 72.9152 90.8716 72.0322 91.408C71.4075 91.7856 70.7253 92.1206 69.9973 92.3926C69.3447 92.6364 68.6555 92.829 67.9385 92.9605C67.2216 93.0919 66.4786 93.1613 65.7235 93.1546C65.2501 93.1467 64.7715 93.117 64.2931 93.0528C63.0575 92.8864 61.8762 92.525 60.8054 92.0268C59.9897 91.6469 59.2357 91.1863 58.5602 90.6715C57.8846 90.1569 57.2869 89.5875 56.7741 88.9886C56.1531 88.2639 55.6564 87.4986 55.2655 86.741C54.8746 85.9834 54.5902 85.2344 54.3853 84.5316C54.2038 84.2772 54.2578 84.2147 53.9643 82.4367C53.8929 81.8113 53.8769 81.2685 53.8813 80.8254C53.8891 80.3821 53.9091 80.0393 53.9241 79.8057C53.9391 79.572 53.9451 79.4473 53.9319 79.4446C53.9153 79.4446 53.8763 79.5599 53.8299 79.7914C53.7833 80.0229 53.7285 80.3683 53.6943 80.8174C53.6598 81.2665 53.6477 81.8201 53.6943 82.4621C53.7245 82.8753 53.7782 83.3264 53.8682 83.8047C53.3246 83.6419 52.7716 83.4368 52.2177 83.1827C51.2499 82.7389 50.2798 82.1469 49.3727 81.3948C48.6105 80.7629 47.8929 80.0176 47.2565 79.1694C46.6201 78.3213 46.0647 77.3709 45.6284 76.3397C45.2333 75.4064 44.9402 74.4066 44.7624 73.3651C44.5846 72.3237 44.5222 71.2407 44.5806 70.1504C44.5885 70.0746 44.5897 69.9988 44.5948 69.9229C44.6678 68.8717 44.851 67.8426 45.1306 66.8593C45.4103 65.8759 45.7853 64.9377 46.2422 64.066C46.6605 63.2677 47.1448 62.5237 47.6742 61.8391C48.2036 61.1546 48.7777 60.5299 49.3805 59.9685C50.0594 59.3363 50.7743 58.7846 51.5015 58.311C52.2285 57.8375 52.9677 57.4422 53.7005 57.1212C54.6035 56.7256 55.4961 56.4412 56.3446 56.2416C57.0692 56.0711 57.7615 55.9626 58.4096 55.898C58.457 56.4435 58.5411 56.9586 58.6537 57.4377C58.8415 58.2362 59.1005 58.9328 59.3729 59.52C59.6452 60.1071 59.9316 60.5856 60.1846 60.9611C60.4376 61.3366 60.6579 61.61 60.8145 61.7882C60.9709 61.9665 61.0632 62.05 61.076 62.0396C61.0891 62.0292 61.021 61.925 60.891 61.7294C60.7608 61.5337 60.5682 61.2454 60.3441 60.8609C60.1198 60.4764 59.8637 59.9952 59.6216 59.4118C59.3796 58.8283 59.1519 58.1429 58.9918 57.3646C58.7416 56.4523 58.7954 56.4744 58.7717 55.4002C58.7574 54.6981 58.8093 53.9536 58.9471 53.1875C59.0626 52.5451 59.2385 51.8874 59.4845 51.2326C59.7305 50.5778 60.0464 49.9248 60.4397 49.2983C60.795 48.7319 61.2128 48.1877 61.69 47.6775C62.1671 47.1671 62.7035 46.6916 63.2894 46.2665C63.7278 45.9487 64.1941 45.6586 64.6848 45.4028C65.4504 45.0037 66.2514 44.7011 67.0592 44.4993C67.7637 44.323 68.4732 44.2232 69.1723 44.1907C69.8713 44.1583 70.5596 44.1907 71.2214 44.2829C71.9623 44.3851 72.6711 44.558 73.3344 44.7856C73.9977 45.0133 74.6151 45.2968 75.1779 45.6175C77.0498 46.8645 77.102 46.9364 78.3529 48.3455C78.7657 48.8616 79.0941 49.362 79.3544 49.8137C79.6145 50.2655 79.8072 50.6695 79.954 51.0036C80.1008 51.3375 80.2014 51.6014 80.2714 51.7798C80.3413 51.9582 80.3812 52.051 80.3957 52.047C80.4099 52.0392 80.3957 51.9426 80.3559 51.7543C80.3131 51.566 80.2375 51.2891 80.1135 50.9399C79.9894 50.5908 79.8156 50.1697 79.5713 49.696C79.3271 49.2224 79.0119 48.6971 78.6049 48.1531C78.2344 47.6576 77.7878 47.1452 77.2542 46.6499C77.2392 46.6355 77.2235 46.6229 77.2083 46.6085C77.3896 46.0526 77.6327 45.4114 77.9642 44.7093C78.3541 43.8836 78.8671 42.9747 79.5429 42.0513C80.1748 41.1886 80.9506 40.3106 81.8823 39.4904C82.8141 38.6701 83.9024 37.9071 85.1418 37.2936C86.176 36.7812 87.3133 36.3754 88.521 36.1054C89.5778 35.8691 90.6879 35.7369 91.8221 35.7252L91.8184 35.7278Z" fill="#444444"/>
<path d="M108.768 102.329C107.635 102.139 106.051 101.619 104.983 101.086C101.068 99.1317 98.5306 95.8464 97.5252 91.4281L97.3101 90.4828L97.3947 91.2827C97.4413 91.7226 97.6373 92.6291 97.8304 93.2972L98.1816 94.5118L97.5018 95.1151C95.666 96.7442 93.3758 97.9868 91.0248 98.6296C89.1311 99.1474 86.1318 99.2784 84.2502 98.9257C82.7876 98.6515 81.1241 98.1197 80.022 97.574C77.9154 96.5309 75.6815 94.6495 74.1994 92.6699C73.0709 91.1628 73.0757 91.2757 74.101 90.3289C75.5823 88.961 76.9108 86.7576 77.4077 84.8446C77.6994 83.722 77.5991 83.6265 77.2597 84.7036C76.0388 88.5774 72.8918 91.6405 69.0085 92.7346C64.8071 93.9183 60.1467 92.5892 57.0971 89.3374C55.0839 87.1908 54.0961 84.7276 53.7946 81.1024C53.7644 80.7425 53.7615 81.2093 53.7868 82.1398L53.8341 83.8316L53.0766 83.5454C49.7253 82.2796 46.9055 79.5525 45.5909 76.3062C44.8091 74.3757 44.6207 73.3303 44.6201 70.9221C44.6201 68.9622 44.6682 68.4853 44.9934 67.2691C46.1573 62.9138 49.0031 59.448 53.0483 57.4594C54.6277 56.6829 57.0409 55.9421 57.9877 55.9431H58.4429L58.6854 57.1903C58.9309 58.4527 59.7919 60.4742 60.3837 61.1777C60.552 61.3776 60.4009 60.9824 60.0481 60.2994C59.1064 58.4767 58.7722 57.1128 58.7863 55.1514C58.8051 52.5294 59.5398 50.3597 61.0883 48.3524C62.4117 46.6368 64.793 45.0732 66.9722 44.4889C68.2745 44.1397 71.2034 44.1489 72.5126 44.5063C75.456 45.3098 78.1097 47.4315 79.4714 50.07C79.7707 50.6499 80.0381 51.102 80.0656 51.0745C80.0934 51.0467 79.8895 50.544 79.6129 49.9566C79.1235 48.917 78.8601 48.53 77.7231 47.1791L77.1744 46.5272L77.715 45.2393C79.4069 41.2077 82.9631 37.8716 87.0035 36.5258C91.6142 34.99 96.7131 35.6794 100.699 38.3773C102.201 39.3934 104.88 42.1526 104.88 42.6822C104.88 42.7604 104.537 42.9065 104.117 43.0071C101.952 43.525 99.3347 44.7677 97.4822 46.1573C96.0704 47.2164 95.9777 47.4185 97.3565 46.4318C99.4337 44.9453 103.312 43.3272 105.583 42.9996C107.009 42.7939 110.463 42.832 111.791 43.068C115.445 43.7174 118.995 45.5122 121.682 48.0682C122.814 49.1449 124.418 51.096 124.418 51.396C124.418 51.4844 124.172 51.636 123.871 51.7333C123.212 51.9464 121.542 52.7757 121.137 53.0912C120.977 53.2161 121.305 53.0912 121.866 52.81C123.157 52.1672 124.818 51.6377 126.417 51.3597C131.181 50.5309 136.35 52.2916 139.728 55.8937C144.915 61.425 145.168 69.7332 140.329 75.6963L139.818 76.3262L139.209 75.0263C138.226 72.9302 136.937 71.1989 135.581 70.1571C135.157 69.8309 135.284 70.0106 136.031 70.79C138.039 72.8871 139.129 75.0039 139.73 77.975C139.995 79.2878 140.036 79.8298 139.956 80.9965C139.46 88.2506 133.723 93.6678 126.571 93.6374C124.523 93.6283 124.212 93.5572 124.331 93.1223C124.769 91.5215 124.889 90.3817 124.816 88.5251C124.753 86.9179 124.67 86.3549 124.361 85.4648C124.153 84.8649 124.018 84.5376 124.06 84.7376C124.103 84.9376 124.24 85.5593 124.365 86.1192C124.536 86.8898 124.575 87.6674 124.522 89.3187C124.463 91.1722 124.393 91.6861 124.055 92.7364C123.241 95.271 122.324 96.7538 120.412 98.6264C118.974 100.035 118.11 100.615 116.257 101.414C114.108 102.34 111.063 102.712 108.767 102.328L108.768 102.329ZM77.7044 83.1779C77.6563 83.1297 77.6215 83.2154 77.6279 83.3687C77.6357 83.5382 77.6693 83.5726 77.716 83.4566C77.7581 83.3517 77.7527 83.2263 77.7042 83.1779L77.7044 83.1779Z" fill="white"/>
<path fill-rule="evenodd" clip-rule="evenodd" d="M23.8359 133.388L24.7222 134.242L48.4352 108.734L23.8359 133.388Z" fill="#444444"/>
<path fill-rule="evenodd" clip-rule="evenodd" d="M102.786 146.148L104.012 146.044L101.135 119.425L102.786 146.148Z" fill="#444444"/>
<path fill-rule="evenodd" clip-rule="evenodd" d="M27.2142 22.2881L26.4121 23.2212L52.7548 45.0536L27.2142 22.2881Z" fill="#444444"/>
<path fill-rule="evenodd" clip-rule="evenodd" d="M76.5619 0L75.334 0.0765409L77.7125 28.3725L76.5619 0Z" fill="#444444"/>
<path fill-rule="evenodd" clip-rule="evenodd" d="M159.231 7.47285L158.282 6.6897L137.372 32.9956L159.231 7.47285Z" fill="#444444"/>
<path fill-rule="evenodd" clip-rule="evenodd" d="M184 52.7224L183.826 51.5044L149.812 56.981L184 52.7224Z" fill="#444444"/>
<path fill-rule="evenodd" clip-rule="evenodd" d="M156.151 122.649L156.901 121.674L132.718 103.828L156.151 122.649Z" fill="#444444"/>
<path d="M71.5515 72.13C71.2635 72.79 70.9395 73.366 70.5795 73.858C70.2315 74.338 69.8595 74.746 69.4635 75.082C69.0795 75.406 68.6895 75.646 68.2935 75.802C67.8975 75.958 67.5135 76.036 67.1415 76.036C66.7695 76.036 66.4275 75.952 66.1155 75.784C65.8155 75.616 65.5515 75.364 65.3235 75.028C65.0955 74.692 64.9095 74.278 64.7655 73.786C64.6335 73.294 64.5675 72.718 64.5675 72.058C64.5675 70.93 64.7235 69.82 65.0355 68.728C65.3475 67.624 65.7855 66.634 66.3495 65.758C66.9135 64.882 67.5795 64.18 68.3475 63.652C69.1275 63.112 69.9855 62.842 70.9215 62.842C71.2095 62.842 71.4855 62.902 71.7495 63.022C72.0135 63.142 72.2415 63.31 72.4335 63.526C72.6255 63.742 72.7755 64.006 72.8835 64.318C73.0035 64.63 73.0635 64.978 73.0635 65.362C73.0635 65.434 73.0635 65.512 73.0635 65.596C73.0635 65.668 73.0575 65.746 73.0455 65.83L70.6875 66.46C70.5435 66.16 70.3755 66.01 70.1835 66.01C69.9915 66.01 69.7875 66.124 69.5715 66.352C69.3675 66.568 69.1635 66.856 68.9595 67.216C68.7555 67.564 68.5575 67.96 68.3655 68.404C68.1735 68.836 68.0055 69.274 67.8615 69.718C67.7175 70.162 67.5975 70.588 67.5015 70.996C67.4175 71.392 67.3755 71.716 67.3755 71.968C67.3755 72.352 67.4235 72.622 67.5195 72.778C67.6275 72.934 67.7655 73.012 67.9335 73.012C68.0655 73.012 68.2155 72.964 68.3835 72.868C68.5515 72.76 68.7075 72.628 68.8515 72.472C68.9955 72.304 69.1275 72.118 69.2475 71.914C69.3675 71.71 69.4515 71.506 69.4995 71.302L71.5515 72.13ZM76.8267 75.424C76.4547 75.424 76.0587 75.436 75.6387 75.46C75.2307 75.484 74.8167 75.52 74.3967 75.568C73.9767 75.616 73.5627 75.682 73.1547 75.766C72.7587 75.838 72.3987 75.928 72.0747 76.036C72.1467 75.496 72.2307 74.896 72.3267 74.236C72.4227 73.576 72.5307 72.892 72.6507 72.184C72.7827 71.476 72.9087 70.762 73.0287 70.042C73.1607 69.322 73.2927 68.632 73.4247 67.972C73.7247 66.4 74.0427 64.798 74.3787 63.166L77.5287 62.752C77.2047 64.144 76.8927 65.5 76.5927 66.82C76.4607 67.384 76.3287 67.972 76.1967 68.584C76.0647 69.184 75.9387 69.772 75.8187 70.348C75.6987 70.924 75.5907 71.482 75.4947 72.022C75.3987 72.562 75.3207 73.042 75.2607 73.462C75.5607 73.438 75.8787 73.426 76.2147 73.426C76.5627 73.414 76.8687 73.408 77.1327 73.408C77.1447 73.636 77.1627 73.864 77.1867 74.092C77.2107 74.308 77.2347 74.506 77.2587 74.686C77.2947 74.866 77.3187 75.028 77.3307 75.172C77.3547 75.304 77.3727 75.394 77.3847 75.442C77.2887 75.442 77.1927 75.442 77.0967 75.442C77.0127 75.43 76.9227 75.424 76.8267 75.424ZM80.8903 75.64C80.7823 75.64 80.5663 75.658 80.2423 75.694C79.9303 75.718 79.6063 75.754 79.2703 75.802C78.9343 75.838 78.6283 75.874 78.3523 75.91C78.0883 75.946 77.9443 75.97 77.9203 75.982C78.0403 75.466 78.1603 74.896 78.2803 74.272C78.4123 73.636 78.5443 72.976 78.6763 72.292C78.8083 71.596 78.9343 70.894 79.0543 70.186C79.1743 69.478 79.2883 68.794 79.3963 68.134C79.6483 66.598 79.9003 65.02 80.1523 63.4L82.9603 62.95C82.6843 64.558 82.4143 66.136 82.1503 67.684C82.0423 68.344 81.9283 69.028 81.8083 69.736C81.7003 70.444 81.5863 71.146 81.4663 71.842C81.3583 72.538 81.2563 73.216 81.1603 73.876C81.0643 74.524 80.9743 75.112 80.8903 75.64ZM89.695 72.13C89.407 72.79 89.083 73.366 88.723 73.858C88.375 74.338 88.003 74.746 87.607 75.082C87.223 75.406 86.833 75.646 86.437 75.802C86.041 75.958 85.657 76.036 85.285 76.036C84.913 76.036 84.571 75.952 84.259 75.784C83.959 75.616 83.695 75.364 83.467 75.028C83.239 74.692 83.053 74.278 82.909 73.786C82.777 73.294 82.711 72.718 82.711 72.058C82.711 70.93 82.867 69.82 83.179 68.728C83.491 67.624 83.929 66.634 84.493 65.758C85.057 64.882 85.723 64.18 86.491 63.652C87.271 63.112 88.129 62.842 89.065 62.842C89.353 62.842 89.629 62.902 89.893 63.022C90.157 63.142 90.385 63.31 90.577 63.526C90.769 63.742 90.919 64.006 91.027 64.318C91.147 64.63 91.207 64.978 91.207 65.362C91.207 65.434 91.207 65.512 91.207 65.596C91.207 65.668 91.201 65.746 91.189 65.83L88.831 66.46C88.687 66.16 88.519 66.01 88.327 66.01C88.135 66.01 87.931 66.124 87.715 66.352C87.511 66.568 87.307 66.856 87.103 67.216C86.899 67.564 86.701 67.96 86.509 68.404C86.317 68.836 86.149 69.274 86.005 69.718C85.861 70.162 85.741 70.588 85.645 70.996C85.561 71.392 85.519 71.716 85.519 71.968C85.519 72.352 85.567 72.622 85.663 72.778C85.771 72.934 85.909 73.012 86.077 73.012C86.209 73.012 86.359 72.964 86.527 72.868C86.695 72.76 86.851 72.628 86.995 72.472C87.139 72.304 87.271 72.118 87.391 71.914C87.511 71.71 87.595 71.506 87.643 71.302L89.695 72.13ZM90.1281 76.018C90.4881 74.338 90.8241 72.706 91.1361 71.122C91.2561 70.438 91.3821 69.73 91.5141 68.998C91.6461 68.266 91.7661 67.54 91.8741 66.82C91.9941 66.1 92.0961 65.404 92.1801 64.732C92.2761 64.048 92.3481 63.43 92.3961 62.878C92.6721 62.902 92.9841 62.926 93.3321 62.95C93.6801 62.962 94.0041 62.98 94.3041 63.004C94.6641 63.028 95.0241 63.04 95.3841 63.04C95.3721 63.088 95.3541 63.178 95.3301 63.31C95.3061 63.442 95.2761 63.604 95.2401 63.796C95.2041 63.976 95.1621 64.18 95.1141 64.408C95.0781 64.636 95.0361 64.864 94.9881 65.092C94.8921 65.62 94.7841 66.214 94.6641 66.874L94.7721 66.856C94.8921 66.664 95.0601 66.4 95.2761 66.064C95.5041 65.716 95.7381 65.35 95.9781 64.966C96.2181 64.582 96.4521 64.216 96.6801 63.868C96.9081 63.508 97.1001 63.202 97.2561 62.95C97.8561 62.902 98.4561 62.848 99.0561 62.788C99.6561 62.728 100.256 62.65 100.856 62.554C100.292 63.31 99.7461 64.054 99.2181 64.786C98.9901 65.098 98.7561 65.422 98.5161 65.758C98.2881 66.094 98.0601 66.424 97.8321 66.748C97.6041 67.072 97.3881 67.384 97.1841 67.684C96.9921 67.984 96.8181 68.26 96.6621 68.512C96.9261 69.724 97.2381 70.894 97.5981 72.022C97.9581 73.15 98.3241 74.302 98.6961 75.478C98.4201 75.466 98.1381 75.46 97.8501 75.46C97.5621 75.448 97.2801 75.442 97.0041 75.442C96.6561 75.442 96.3201 75.448 95.9961 75.46C95.6721 75.46 95.3361 75.466 94.9881 75.478C94.8801 74.698 94.7601 73.882 94.6281 73.03C94.5081 72.166 94.3941 71.344 94.2861 70.564L93.9621 70.942C93.8781 71.302 93.7821 71.746 93.6741 72.274C93.5781 72.802 93.4821 73.312 93.3861 73.804C93.2781 74.38 93.1641 74.974 93.0441 75.586L90.1281 76.018ZM102.372 75.892C102.9 74.296 103.404 72.73 103.884 71.194C104.088 70.546 104.298 69.868 104.514 69.16C104.73 68.452 104.946 67.75 105.162 67.054C105.378 66.358 105.576 65.686 105.756 65.038C105.948 64.39 106.116 63.79 106.26 63.238C106.92 63.238 107.544 63.202 108.132 63.13C108.72 63.058 109.356 62.992 110.04 62.932C110.004 63.196 109.962 63.496 109.914 63.832C109.878 64.156 109.83 64.498 109.77 64.858C109.722 65.218 109.668 65.59 109.608 65.974C109.548 66.358 109.476 66.85 109.392 67.45C109.308 68.05 109.194 68.8 109.05 69.7H109.284C109.632 68.788 109.92 68.032 110.148 67.432C110.376 66.82 110.562 66.322 110.706 65.938C110.85 65.554 110.994 65.182 111.138 64.822C111.294 64.45 111.438 64.102 111.57 63.778C111.714 63.442 111.846 63.148 111.966 62.896C112.266 62.872 112.548 62.842 112.812 62.806C113.076 62.77 113.34 62.734 113.604 62.698C113.868 62.65 114.132 62.608 114.396 62.572C114.672 62.524 114.972 62.47 115.296 62.41C115.176 63.106 115.062 63.82 114.954 64.552C114.846 65.284 114.75 66.016 114.666 66.748C114.582 67.468 114.498 68.182 114.414 68.89C114.342 69.598 114.276 70.27 114.216 70.906C114.072 72.394 113.946 73.846 113.838 75.262L110.706 75.82C110.706 75.76 110.712 75.598 110.724 75.334C110.748 75.07 110.772 74.746 110.796 74.362C110.832 73.978 110.874 73.552 110.922 73.084C110.982 72.616 111.036 72.148 111.084 71.68C111.144 71.212 111.204 70.762 111.264 70.33C111.324 69.886 111.384 69.508 111.444 69.196H111.282C111.114 69.7 110.928 70.234 110.724 70.798C110.52 71.35 110.31 71.914 110.094 72.49C109.89 73.066 109.686 73.63 109.482 74.182C109.278 74.734 109.098 75.262 108.942 75.766C108.522 75.778 108.162 75.796 107.862 75.82C107.562 75.832 107.214 75.85 106.818 75.874L107.394 69.196H107.124C107.1 69.352 107.04 69.616 106.944 69.988C106.848 70.348 106.734 70.768 106.602 71.248C106.482 71.716 106.35 72.208 106.206 72.724C106.062 73.228 105.924 73.702 105.792 74.146C105.672 74.578 105.57 74.938 105.486 75.226C105.402 75.502 105.354 75.658 105.342 75.694L102.372 75.892ZM114.741 76.018L117.099 63.22L122.787 62.734C122.703 62.998 122.631 63.268 122.571 63.544C122.511 63.772 122.451 64.012 122.391 64.264C122.343 64.504 122.301 64.72 122.265 64.912C122.145 64.924 121.971 64.936 121.743 64.948C121.527 64.948 121.293 64.954 121.041 64.966C120.789 64.966 120.531 64.966 120.267 64.966C120.015 64.966 119.793 64.966 119.601 64.966L118.971 68.188C119.343 68.164 119.691 68.146 120.015 68.134C120.279 68.122 120.549 68.116 120.825 68.116C121.101 68.116 121.305 68.11 121.437 68.098C121.389 68.434 121.341 68.764 121.293 69.088C121.257 69.412 121.209 69.742 121.149 70.078C121.029 70.09 120.831 70.102 120.555 70.114C120.291 70.114 120.021 70.12 119.745 70.132C119.433 70.144 119.091 70.156 118.719 70.168L118.107 73.48L120.735 73.066L120.555 75.118L114.741 76.018ZM124.907 71.734C124.559 71.734 124.211 71.746 123.863 71.77C123.515 71.794 123.167 71.818 122.819 71.842C123.191 70.366 123.551 68.896 123.899 67.432C124.259 65.968 124.631 64.498 125.015 63.022C125.243 62.986 125.501 62.95 125.789 62.914C126.089 62.878 126.389 62.836 126.689 62.788C126.989 62.74 127.277 62.698 127.553 62.662C127.841 62.626 128.081 62.59 128.273 62.554C127.625 64.066 127.031 65.59 126.491 67.126C125.963 68.65 125.435 70.186 124.907 71.734ZM125.087 74.56C125.087 74.788 125.033 75.016 124.925 75.244C124.829 75.472 124.685 75.676 124.493 75.856C124.301 76.024 124.061 76.156 123.773 76.252C123.485 76.36 123.155 76.414 122.783 76.414C122.531 76.414 122.303 76.366 122.099 76.27C121.895 76.174 121.727 76.048 121.595 75.892C121.475 75.724 121.379 75.538 121.307 75.334C121.235 75.13 121.199 74.926 121.199 74.722C121.199 74.494 121.235 74.278 121.307 74.074C121.379 73.858 121.487 73.672 121.631 73.516C121.787 73.348 121.973 73.21 122.189 73.102C122.417 72.994 122.687 72.94 122.999 72.94C123.695 72.94 124.217 73.108 124.565 73.444C124.913 73.768 125.087 74.14 125.087 74.56Z" fill="#444444"/>
</svg>
