<svg width="340" height="210" viewBox="0 0 340 210" fill="none" xmlns="http://www.w3.org/2000/svg">
<path d="M172.83 208.925C172.087 208.82 169.876 208.519 167.916 208.255C158.34 206.962 147.404 202.359 138.36 195.815C132.854 191.83 122.139 180.81 122.139 179.132C122.139 178.873 123.108 177.462 124.292 175.997C128.602 170.668 132.515 162.333 133.163 157.103C133.382 155.337 133.252 155.535 132.124 158.674C129.222 166.762 125.592 172.633 120.163 178.018C110.99 187.118 100.175 191.47 86.9926 191.368C81.9967 191.329 80.1361 191.115 76.5818 190.171C68.0984 187.917 61.3002 184.062 55.2686 178.085C46.5524 169.448 41.7651 158.467 41.4457 146.377L41.3465 142.612L45.9193 141.121C49.8958 139.825 54.5503 137.641 54.5503 137.072C54.5503 136.969 53.7901 137.216 52.8606 137.619C43.2078 141.813 34.1086 142.333 25.0189 139.211C13.2763 135.178 5.16692 126.328 1.98674 114.077C0.99344 110.252 0.884837 109.084 1.08103 104.342C1.24704 100.325 1.58529 98.0754 2.40997 95.5047C5.51959 85.8098 12.3451 77.9206 21.3532 73.6091C24.4691 72.1177 29.5599 70.44 30.9691 70.44C31.1869 70.44 31.6175 71.7685 31.9268 73.3925C32.236 75.0166 33.003 77.2898 33.6318 78.4443C34.2602 79.5985 34.6481 80.1389 34.4935 79.645C31.8165 71.1034 32.6553 62.7464 36.8738 55.9337C41.1018 49.1056 50.3412 43.9626 58.3803 43.9626C64.006 43.9626 71.3249 46.9168 75.6999 50.9532C79.2112 54.1927 81.3698 57.5133 83.2225 62.5246C84.2744 65.3704 84.6591 66.0741 84.4814 64.8269C83.6816 59.2133 81.6475 54.9654 77.4252 50.0906L75.1621 47.4779L75.3937 41.5589C75.5763 36.9327 75.8894 34.7575 76.8323 31.5988C83.5441 9.11628 106.039 -3.41048 129.216 2.42773C142.688 5.82125 154.29 15.5531 160.442 28.6195C161.27 30.3781 162.025 31.7398 162.119 31.6455C162.454 31.3125 159.519 24.3304 157.962 21.7537C157.094 20.3171 156.384 18.9917 156.384 18.8083C156.384 18.2531 160.478 14.6345 163.65 12.3862C167.773 9.46444 176.079 5.61145 180.941 4.3659C186.561 2.92602 196.334 2.92644 201.642 4.3659C221.011 9.62122 231.406 27.932 225.237 45.9274C224.721 47.4308 223.913 49.4691 223.44 50.457C222.757 51.8853 222.733 52.0691 223.324 51.3552C224.827 49.5422 227.145 44.1041 227.892 40.6373C228.66 37.0779 228.663 37.0729 231.354 35.0986C237.255 30.7699 243.692 27.9726 250.84 26.6313C255.654 25.7277 264.645 25.9506 268.755 27.0754C276.074 29.079 282.873 32.8062 288.128 37.6968C292.528 41.7916 295.271 45.4444 297.71 50.457C303.466 62.283 303.774 74.7779 298.624 87.4804C297.978 89.0735 297.519 90.4457 297.603 90.5297C297.899 90.8252 301.443 83.2082 302.013 81.0493L302.591 78.8624L307.101 79.0979C312.619 79.3864 315.888 80.2238 320.743 82.5923C329.445 86.8373 335.816 94.7625 338.226 104.34C339.25 108.409 339.259 115.411 338.247 119.608C336.097 128.509 329.846 136.442 321.565 140.779C316.843 143.252 313.606 144.107 307.868 144.398C300.913 144.751 296.573 143.829 290.352 140.679C287.796 139.385 285.706 138.379 285.706 138.444C285.706 138.797 291.388 142.456 293.127 143.222C294.25 143.717 295.168 144.293 295.168 144.502C295.168 145.644 293.055 151.498 291.56 154.496C285.857 165.937 276.231 173.736 263.554 177.185C259.91 178.177 249.414 178.27 245.152 177.349C240.153 176.268 230.734 172.442 230.734 171.492C230.734 171.266 231.059 169.603 231.457 167.796C232.278 164.07 232.459 153.615 231.759 150.367C231.4 148.697 231.318 149.439 231.292 154.633C231.255 161.911 230.774 165.643 229.156 171.205C222.814 193.015 203.096 208.028 179.634 208.91C176.637 209.023 173.576 209.029 172.833 208.931L172.83 208.925ZM133.676 153.632C133.526 153.483 133.42 153.747 133.439 154.221C133.46 154.745 133.567 154.851 133.712 154.493C133.841 154.169 133.825 153.781 133.675 153.632L133.676 153.632Z" fill="#F0F0F0" stroke="#444444" stroke-linecap="round" stroke-linejoin="round"/>
<path d="M121.007 93.018L123.365 80.22L129.053 79.734C128.969 79.998 128.897 80.268 128.837 80.544C128.777 80.772 128.717 81.012 128.657 81.264C128.609 81.504 128.567 81.72 128.531 81.912C128.411 81.924 128.237 81.936 128.009 81.948C127.793 81.948 127.559 81.954 127.307 81.966C127.055 81.966 126.797 81.966 126.533 81.966C126.281 81.966 126.059 81.966 125.867 81.966L125.237 85.188C125.609 85.164 125.957 85.146 126.281 85.134C126.545 85.122 126.815 85.116 127.091 85.116C127.367 85.116 127.571 85.11 127.703 85.098C127.655 85.434 127.607 85.764 127.559 86.088C127.523 86.412 127.475 86.742 127.415 87.078C127.295 87.09 127.097 87.102 126.821 87.114C126.557 87.114 126.287 87.12 126.011 87.132C125.699 87.144 125.357 87.156 124.985 87.168L124.373 90.48L127.001 90.066L126.821 92.118L121.007 93.018ZM126.998 92.892C127.526 91.296 128.03 89.73 128.51 88.194C128.714 87.546 128.924 86.868 129.14 86.16C129.356 85.452 129.572 84.75 129.788 84.054C130.004 83.358 130.202 82.686 130.382 82.038C130.574 81.39 130.742 80.79 130.886 80.238C131.546 80.238 132.17 80.202 132.758 80.13C133.346 80.058 133.982 79.992 134.666 79.932C134.63 80.196 134.588 80.496 134.54 80.832C134.504 81.156 134.456 81.498 134.396 81.858C134.348 82.218 134.294 82.59 134.234 82.974C134.174 83.358 134.102 83.85 134.018 84.45C133.934 85.05 133.82 85.8 133.676 86.7H133.91C134.258 85.788 134.546 85.032 134.774 84.432C135.002 83.82 135.188 83.322 135.332 82.938C135.476 82.554 135.62 82.182 135.764 81.822C135.92 81.45 136.064 81.102 136.196 80.778C136.34 80.442 136.472 80.148 136.592 79.896C136.892 79.872 137.174 79.842 137.438 79.806C137.702 79.77 137.966 79.734 138.23 79.698C138.494 79.65 138.758 79.608 139.022 79.572C139.298 79.524 139.598 79.47 139.922 79.41C139.802 80.106 139.688 80.82 139.58 81.552C139.472 82.284 139.376 83.016 139.292 83.748C139.208 84.468 139.124 85.182 139.04 85.89C138.968 86.598 138.902 87.27 138.842 87.906C138.698 89.394 138.572 90.846 138.464 92.262L135.332 92.82C135.332 92.76 135.338 92.598 135.35 92.334C135.374 92.07 135.398 91.746 135.422 91.362C135.458 90.978 135.5 90.552 135.548 90.084C135.608 89.616 135.662 89.148 135.71 88.68C135.77 88.212 135.83 87.762 135.89 87.33C135.95 86.886 136.01 86.508 136.07 86.196H135.908C135.74 86.7 135.554 87.234 135.35 87.798C135.146 88.35 134.936 88.914 134.72 89.49C134.516 90.066 134.312 90.63 134.108 91.182C133.904 91.734 133.724 92.262 133.568 92.766C133.148 92.778 132.788 92.796 132.488 92.82C132.188 92.832 131.84 92.85 131.444 92.874L132.02 86.196H131.75C131.726 86.352 131.666 86.616 131.57 86.988C131.474 87.348 131.36 87.768 131.228 88.248C131.108 88.716 130.976 89.208 130.832 89.724C130.688 90.228 130.55 90.702 130.418 91.146C130.298 91.578 130.196 91.938 130.112 92.226C130.028 92.502 129.98 92.658 129.968 92.694L126.998 92.892ZM145.846 92.64C145.546 92.688 145.216 92.742 144.856 92.802C144.496 92.862 144.172 92.916 143.884 92.964C143.932 92.568 143.98 92.178 144.028 91.794C144.064 91.458 144.094 91.122 144.118 90.786C144.154 90.45 144.184 90.162 144.208 89.922H142.642L141.922 92.514C141.658 92.55 141.346 92.592 140.986 92.64C140.626 92.676 140.29 92.712 139.978 92.748C139.594 92.796 139.216 92.844 138.844 92.892C139.324 91.296 139.798 89.724 140.266 88.176C140.458 87.528 140.656 86.85 140.86 86.142C141.076 85.434 141.286 84.732 141.49 84.036C141.706 83.328 141.91 82.65 142.102 82.002C142.294 81.354 142.462 80.76 142.606 80.22C143.422 80.16 144.25 80.088 145.09 80.004C145.942 79.92 146.77 79.806 147.574 79.662C147.538 80.046 147.496 80.526 147.448 81.102C147.412 81.666 147.376 82.284 147.34 82.956C147.304 83.628 147.268 84.33 147.232 85.062C147.196 85.794 147.16 86.514 147.124 87.222C147.064 88.878 146.998 90.636 146.926 92.496C146.566 92.556 146.206 92.604 145.846 92.64ZM143.074 88.122C143.122 88.122 143.206 88.122 143.326 88.122C143.458 88.11 143.59 88.104 143.722 88.104C143.866 88.092 143.998 88.086 144.118 88.086C144.238 88.074 144.322 88.062 144.37 88.05C144.37 87.978 144.376 87.858 144.388 87.69C144.412 87.51 144.43 87.312 144.442 87.096C144.466 86.868 144.49 86.622 144.514 86.358C144.538 86.094 144.562 85.836 144.586 85.584C144.634 84.972 144.694 84.312 144.766 83.604L144.874 82.038L144.604 82.056L144.19 83.604L143.074 88.122ZM150.609 92.64C150.501 92.64 150.285 92.658 149.961 92.694C149.649 92.718 149.325 92.754 148.989 92.802C148.653 92.838 148.347 92.874 148.071 92.91C147.807 92.946 147.663 92.97 147.639 92.982C147.759 92.466 147.879 91.896 147.999 91.272C148.131 90.636 148.263 89.976 148.395 89.292C148.527 88.596 148.653 87.894 148.773 87.186C148.893 86.478 149.007 85.794 149.115 85.134C149.367 83.598 149.619 82.02 149.871 80.4L152.679 79.95C152.403 81.558 152.133 83.136 151.869 84.684C151.761 85.344 151.647 86.028 151.527 86.736C151.419 87.444 151.305 88.146 151.185 88.842C151.077 89.538 150.975 90.216 150.879 90.876C150.783 91.524 150.693 92.112 150.609 92.64ZM156.696 92.424C156.324 92.424 155.928 92.436 155.508 92.46C155.1 92.484 154.686 92.52 154.266 92.568C153.846 92.616 153.432 92.682 153.024 92.766C152.628 92.838 152.268 92.928 151.944 93.036C152.016 92.496 152.1 91.896 152.196 91.236C152.292 90.576 152.4 89.892 152.52 89.184C152.652 88.476 152.778 87.762 152.898 87.042C153.03 86.322 153.162 85.632 153.294 84.972C153.594 83.4 153.912 81.798 154.248 80.166L157.398 79.752C157.074 81.144 156.762 82.5 156.462 83.82C156.33 84.384 156.198 84.972 156.066 85.584C155.934 86.184 155.808 86.772 155.688 87.348C155.568 87.924 155.46 88.482 155.364 89.022C155.268 89.562 155.19 90.042 155.13 90.462C155.43 90.438 155.748 90.426 156.084 90.426C156.432 90.414 156.738 90.408 157.002 90.408C157.014 90.636 157.032 90.864 157.056 91.092C157.08 91.308 157.104 91.506 157.128 91.686C157.164 91.866 157.188 92.028 157.2 92.172C157.224 92.304 157.242 92.394 157.254 92.442C157.158 92.442 157.062 92.442 156.966 92.442C156.882 92.43 156.792 92.424 156.696 92.424ZM169.729 88.554C169.729 89.226 169.597 89.838 169.333 90.39C169.081 90.93 168.733 91.398 168.289 91.794C167.857 92.19 167.341 92.496 166.741 92.712C166.153 92.928 165.517 93.036 164.833 93.036C164.353 93.036 163.873 92.91 163.393 92.658C162.913 92.394 162.451 91.98 162.007 91.416L163.339 88.806C163.423 88.962 163.549 89.124 163.717 89.292C163.885 89.448 164.071 89.586 164.275 89.706C164.491 89.826 164.701 89.928 164.905 90.012C165.121 90.084 165.313 90.12 165.481 90.12C165.625 90.12 165.775 90.096 165.931 90.048C166.087 90 166.231 89.928 166.363 89.832C166.495 89.736 166.597 89.628 166.669 89.508C166.753 89.376 166.795 89.226 166.795 89.058C166.795 88.77 166.699 88.506 166.507 88.266C166.327 88.014 166.099 87.78 165.823 87.564C165.547 87.336 165.247 87.108 164.923 86.88C164.599 86.652 164.299 86.412 164.023 86.16C163.759 85.908 163.531 85.626 163.339 85.314C163.147 85.002 163.051 84.654 163.051 84.27C163.051 83.646 163.237 83.064 163.609 82.524C163.981 81.984 164.443 81.522 164.995 81.138C165.559 80.742 166.171 80.43 166.831 80.202C167.491 79.974 168.115 79.86 168.703 79.86C169.027 79.86 169.333 79.902 169.621 79.986C169.909 80.058 170.155 80.184 170.359 80.364C170.575 80.532 170.743 80.748 170.863 81.012C170.995 81.276 171.061 81.606 171.061 82.002C171.061 82.17 171.043 82.338 171.007 82.506C170.983 82.674 170.959 82.854 170.935 83.046L168.325 83.802C168.349 83.706 168.367 83.61 168.379 83.514C168.403 83.418 168.415 83.322 168.415 83.226C168.415 82.866 168.349 82.608 168.217 82.452C168.097 82.284 167.935 82.2 167.731 82.2C167.635 82.2 167.515 82.236 167.371 82.308C167.239 82.38 167.101 82.476 166.957 82.596C166.825 82.704 166.711 82.836 166.615 82.992C166.519 83.148 166.471 83.316 166.471 83.496C166.471 83.784 166.549 84.024 166.705 84.216C166.873 84.408 167.077 84.588 167.317 84.756C167.557 84.924 167.815 85.098 168.091 85.278C168.379 85.446 168.643 85.668 168.883 85.944C169.123 86.22 169.321 86.568 169.477 86.988C169.645 87.396 169.729 87.918 169.729 88.554ZM170.174 93.018L172.532 80.22L178.22 79.734C178.136 79.998 178.064 80.268 178.004 80.544C177.944 80.772 177.884 81.012 177.824 81.264C177.776 81.504 177.734 81.72 177.698 81.912C177.578 81.924 177.404 81.936 177.176 81.948C176.96 81.948 176.726 81.954 176.474 81.966C176.222 81.966 175.964 81.966 175.7 81.966C175.448 81.966 175.226 81.966 175.034 81.966L174.404 85.188C174.776 85.164 175.124 85.146 175.448 85.134C175.712 85.122 175.982 85.116 176.258 85.116C176.534 85.116 176.738 85.11 176.87 85.098C176.822 85.434 176.774 85.764 176.726 86.088C176.69 86.412 176.642 86.742 176.582 87.078C176.462 87.09 176.264 87.102 175.988 87.114C175.724 87.114 175.454 87.12 175.178 87.132C174.866 87.144 174.524 87.156 174.152 87.168L173.54 90.48L176.168 90.066L175.988 92.118L170.174 93.018ZM176.795 93.09C177.155 91.362 177.497 89.688 177.821 88.068C177.941 87.372 178.067 86.652 178.199 85.908C178.343 85.164 178.475 84.432 178.595 83.712C178.715 82.98 178.823 82.284 178.919 81.624C179.015 80.952 179.087 80.346 179.135 79.806C179.291 79.818 179.423 79.824 179.531 79.824C179.639 79.824 179.765 79.824 179.909 79.824C180.077 79.824 180.281 79.824 180.521 79.824C180.761 79.812 181.001 79.8 181.241 79.788C181.481 79.776 181.739 79.764 182.015 79.752C182.183 80.592 182.333 81.402 182.465 82.182C182.597 82.866 182.729 83.568 182.861 84.288C183.005 85.008 183.131 85.62 183.239 86.124C183.287 85.884 183.341 85.608 183.401 85.296C183.461 84.972 183.527 84.636 183.599 84.288C183.671 83.94 183.737 83.592 183.797 83.244C183.869 82.884 183.941 82.53 184.013 82.182C184.181 81.402 184.355 80.598 184.535 79.77L186.731 79.5C186.323 81.336 185.963 83.076 185.651 84.72C185.507 85.428 185.363 86.148 185.219 86.88C185.087 87.6 184.961 88.296 184.841 88.968C184.721 89.628 184.619 90.246 184.535 90.822C184.451 91.386 184.385 91.86 184.337 92.244C184.301 92.244 184.157 92.274 183.905 92.334C183.665 92.382 183.383 92.442 183.059 92.514C182.747 92.586 182.429 92.658 182.105 92.73C181.793 92.802 181.559 92.868 181.403 92.928C181.331 91.968 181.253 91.056 181.169 90.192C181.133 89.82 181.091 89.442 181.043 89.058C181.007 88.662 180.965 88.284 180.917 87.924C180.869 87.564 180.821 87.228 180.773 86.916C180.725 86.604 180.677 86.334 180.629 86.106C180.593 86.334 180.545 86.598 180.485 86.898C180.425 87.198 180.365 87.516 180.305 87.852C180.245 88.188 180.185 88.542 180.125 88.914C180.065 89.274 179.999 89.622 179.927 89.958C179.771 90.762 179.603 91.602 179.423 92.478L176.795 93.09ZM194.545 83.802C194.545 84.426 194.455 85.092 194.275 85.8C194.095 86.496 193.843 87.192 193.519 87.888C193.195 88.572 192.793 89.232 192.313 89.868C191.845 90.492 191.311 91.044 190.711 91.524C190.111 91.992 189.451 92.37 188.731 92.658C188.023 92.946 187.267 93.09 186.463 93.09C186.295 93.09 186.127 93.078 185.959 93.054C185.791 93.042 185.623 93.024 185.455 93C185.779 91.344 186.097 89.73 186.409 88.158C186.529 87.498 186.655 86.814 186.787 86.106C186.919 85.386 187.045 84.678 187.165 83.982C187.285 83.286 187.399 82.62 187.507 81.984C187.627 81.348 187.723 80.772 187.795 80.256C188.311 80.16 188.833 80.07 189.361 79.986C189.889 79.902 190.429 79.86 190.981 79.86C191.629 79.86 192.175 79.962 192.619 80.166C193.075 80.37 193.441 80.652 193.717 81.012C194.005 81.372 194.215 81.792 194.347 82.272C194.479 82.752 194.545 83.262 194.545 83.802ZM190.297 82.398C190.165 83.106 190.027 83.784 189.883 84.432C189.739 85.08 189.595 85.734 189.451 86.394C189.307 87.054 189.163 87.744 189.019 88.464C188.875 89.184 188.737 89.97 188.605 90.822C188.893 90.63 189.169 90.372 189.433 90.048C189.709 89.712 189.967 89.328 190.207 88.896C190.447 88.464 190.663 88.008 190.855 87.528C191.059 87.048 191.233 86.58 191.377 86.124C191.521 85.668 191.629 85.242 191.701 84.846C191.785 84.45 191.827 84.108 191.827 83.82C191.827 83.376 191.701 83.028 191.449 82.776C191.209 82.524 190.825 82.398 190.297 82.398ZM193.257 94.998C193.353 94.518 193.455 94.026 193.563 93.522C193.671 93.03 193.773 92.556 193.869 92.1C193.965 91.632 194.049 91.2 194.121 90.804C194.205 90.408 194.265 90.06 194.301 89.76C194.397 89.76 194.547 89.766 194.751 89.778C194.967 89.778 195.129 89.778 195.237 89.778C195.405 89.778 195.621 89.778 195.885 89.778C196.161 89.778 196.431 89.772 196.695 89.76C196.971 89.748 197.259 89.736 197.559 89.724C197.463 90.168 197.331 90.696 197.163 91.308C197.007 91.908 196.839 92.508 196.659 93.108C196.479 93.708 196.287 94.338 196.083 94.998H193.257ZM205.075 92.64C204.967 92.64 204.751 92.658 204.427 92.694C204.115 92.718 203.791 92.754 203.455 92.802C203.119 92.838 202.813 92.874 202.537 92.91C202.273 92.946 202.129 92.97 202.105 92.982C202.225 92.466 202.345 91.896 202.465 91.272C202.597 90.636 202.729 89.976 202.861 89.292C202.993 88.596 203.119 87.894 203.239 87.186C203.359 86.478 203.473 85.794 203.581 85.134C203.833 83.598 204.085 82.02 204.337 80.4L207.145 79.95C206.869 81.558 206.599 83.136 206.335 84.684C206.227 85.344 206.113 86.028 205.993 86.736C205.885 87.444 205.771 88.146 205.651 88.842C205.543 89.538 205.441 90.216 205.345 90.876C205.249 91.524 205.159 92.112 205.075 92.64ZM211.162 92.424C210.79 92.424 210.394 92.436 209.974 92.46C209.566 92.484 209.152 92.52 208.732 92.568C208.312 92.616 207.898 92.682 207.49 92.766C207.094 92.838 206.734 92.928 206.41 93.036C206.482 92.496 206.566 91.896 206.662 91.236C206.758 90.576 206.866 89.892 206.986 89.184C207.118 88.476 207.244 87.762 207.364 87.042C207.496 86.322 207.628 85.632 207.76 84.972C208.06 83.4 208.378 81.798 208.714 80.166L211.864 79.752C211.54 81.144 211.228 82.5 210.928 83.82C210.796 84.384 210.664 84.972 210.532 85.584C210.4 86.184 210.274 86.772 210.154 87.348C210.034 87.924 209.926 88.482 209.83 89.022C209.734 89.562 209.656 90.042 209.596 90.462C209.896 90.438 210.214 90.426 210.55 90.426C210.898 90.414 211.204 90.408 211.468 90.408C211.48 90.636 211.498 90.864 211.522 91.092C211.546 91.308 211.57 91.506 211.594 91.686C211.63 91.866 211.654 92.028 211.666 92.172C211.69 92.304 211.708 92.394 211.72 92.442C211.624 92.442 211.528 92.442 211.432 92.442C211.348 92.43 211.258 92.424 211.162 92.424ZM217.133 92.424C216.761 92.424 216.365 92.436 215.945 92.46C215.537 92.484 215.123 92.52 214.703 92.568C214.283 92.616 213.869 92.682 213.461 92.766C213.065 92.838 212.705 92.928 212.381 93.036C212.453 92.496 212.537 91.896 212.633 91.236C212.729 90.576 212.837 89.892 212.957 89.184C213.089 88.476 213.215 87.762 213.335 87.042C213.467 86.322 213.599 85.632 213.731 84.972C214.031 83.4 214.349 81.798 214.685 80.166L217.835 79.752C217.511 81.144 217.199 82.5 216.899 83.82C216.767 84.384 216.635 84.972 216.503 85.584C216.371 86.184 216.245 86.772 216.125 87.348C216.005 87.924 215.897 88.482 215.801 89.022C215.705 89.562 215.627 90.042 215.567 90.462C215.867 90.438 216.185 90.426 216.521 90.426C216.869 90.414 217.175 90.408 217.439 90.408C217.451 90.636 217.469 90.864 217.493 91.092C217.517 91.308 217.541 91.506 217.565 91.686C217.601 91.866 217.625 92.028 217.637 92.172C217.661 92.304 217.679 92.394 217.691 92.442C217.595 92.442 217.499 92.442 217.403 92.442C217.319 92.43 217.229 92.424 217.133 92.424ZM96.1622 112.018C96.4862 110.422 96.7982 108.862 97.0982 107.338C97.2062 106.69 97.3262 106.018 97.4582 105.322C97.5902 104.614 97.7102 103.918 97.8182 103.234C97.9382 102.538 98.0462 101.872 98.1422 101.236C98.2502 100.588 98.3342 100 98.3942 99.472C99.0782 99.256 99.8162 99.1 100.608 99.004C101.4 98.896 102.186 98.842 102.966 98.842C103.434 98.842 103.818 98.896 104.118 99.004C104.43 99.112 104.67 99.268 104.838 99.472C105.018 99.664 105.144 99.892 105.216 100.156C105.288 100.42 105.324 100.714 105.324 101.038C105.324 101.518 105.24 101.992 105.072 102.46C104.904 102.916 104.676 103.354 104.388 103.774C104.112 104.182 103.788 104.56 103.416 104.908C103.056 105.244 102.666 105.52 102.246 105.736C102.462 106.216 102.69 106.744 102.93 107.32C103.182 107.884 103.416 108.424 103.632 108.94C103.872 109.54 104.118 110.14 104.37 110.74L101.58 111.712C101.34 110.944 101.124 110.224 100.932 109.552C100.848 109.276 100.764 108.994 100.68 108.706C100.596 108.406 100.518 108.124 100.446 107.86C100.374 107.596 100.314 107.362 100.266 107.158C100.218 106.942 100.188 106.768 100.176 106.636L99.9422 106.708C99.8702 107.092 99.7802 107.542 99.6722 108.058C99.5762 108.574 99.4862 109.072 99.4022 109.552C99.2942 110.116 99.1862 110.686 99.0782 111.262L96.1622 112.018ZM100.392 104.206C100.62 104.182 100.896 104.086 101.22 103.918C101.556 103.75 101.874 103.552 102.174 103.324C102.474 103.084 102.732 102.838 102.948 102.586C103.164 102.334 103.272 102.112 103.272 101.92C103.272 101.788 103.23 101.686 103.146 101.614C103.062 101.53 102.942 101.47 102.786 101.434C102.642 101.386 102.48 101.356 102.3 101.344C102.12 101.332 101.934 101.326 101.742 101.326C101.61 101.326 101.472 101.332 101.328 101.344C101.196 101.344 101.076 101.344 100.968 101.344L100.392 104.206ZM104.772 112.018L107.13 99.22L112.818 98.734C112.734 98.998 112.662 99.268 112.602 99.544C112.542 99.772 112.482 100.012 112.422 100.264C112.374 100.504 112.332 100.72 112.296 100.912C112.176 100.924 112.002 100.936 111.774 100.948C111.558 100.948 111.324 100.954 111.072 100.966C110.82 100.966 110.562 100.966 110.298 100.966C110.046 100.966 109.824 100.966 109.632 100.966L109.002 104.188C109.374 104.164 109.722 104.146 110.046 104.134C110.31 104.122 110.58 104.116 110.856 104.116C111.132 104.116 111.336 104.11 111.468 104.098C111.42 104.434 111.372 104.764 111.324 105.088C111.288 105.412 111.24 105.742 111.18 106.078C111.06 106.09 110.862 106.102 110.586 106.114C110.322 106.114 110.052 106.12 109.776 106.132C109.464 106.144 109.122 106.156 108.75 106.168L108.138 109.48L110.766 109.066L110.586 111.118L104.772 112.018ZM119.277 107.554C119.277 108.226 119.145 108.838 118.881 109.39C118.629 109.93 118.281 110.398 117.837 110.794C117.405 111.19 116.889 111.496 116.289 111.712C115.701 111.928 115.065 112.036 114.381 112.036C113.901 112.036 113.421 111.91 112.941 111.658C112.461 111.394 111.999 110.98 111.555 110.416L112.887 107.806C112.971 107.962 113.097 108.124 113.265 108.292C113.433 108.448 113.619 108.586 113.823 108.706C114.039 108.826 114.249 108.928 114.453 109.012C114.669 109.084 114.861 109.12 115.029 109.12C115.173 109.12 115.323 109.096 115.479 109.048C115.635 109 115.779 108.928 115.911 108.832C116.043 108.736 116.145 108.628 116.217 108.508C116.301 108.376 116.343 108.226 116.343 108.058C116.343 107.77 116.247 107.506 116.055 107.266C115.875 107.014 115.647 106.78 115.371 106.564C115.095 106.336 114.795 106.108 114.471 105.88C114.147 105.652 113.847 105.412 113.571 105.16C113.307 104.908 113.079 104.626 112.887 104.314C112.695 104.002 112.599 103.654 112.599 103.27C112.599 102.646 112.785 102.064 113.157 101.524C113.529 100.984 113.991 100.522 114.543 100.138C115.107 99.742 115.719 99.43 116.379 99.202C117.039 98.974 117.663 98.86 118.251 98.86C118.575 98.86 118.881 98.902 119.169 98.986C119.457 99.058 119.703 99.184 119.907 99.364C120.123 99.532 120.291 99.748 120.411 100.012C120.543 100.276 120.609 100.606 120.609 101.002C120.609 101.17 120.591 101.338 120.555 101.506C120.531 101.674 120.507 101.854 120.483 102.046L117.873 102.802C117.897 102.706 117.915 102.61 117.927 102.514C117.951 102.418 117.963 102.322 117.963 102.226C117.963 101.866 117.897 101.608 117.765 101.452C117.645 101.284 117.483 101.2 117.279 101.2C117.183 101.2 117.063 101.236 116.919 101.308C116.787 101.38 116.649 101.476 116.505 101.596C116.373 101.704 116.259 101.836 116.163 101.992C116.067 102.148 116.019 102.316 116.019 102.496C116.019 102.784 116.097 103.024 116.253 103.216C116.421 103.408 116.625 103.588 116.865 103.756C117.105 103.924 117.363 104.098 117.639 104.278C117.927 104.446 118.191 104.668 118.431 104.944C118.671 105.22 118.869 105.568 119.025 105.988C119.193 106.396 119.277 106.918 119.277 107.554ZM119.523 112.018C119.883 110.398 120.225 108.814 120.549 107.266C120.681 106.618 120.819 105.934 120.963 105.214C121.107 104.494 121.245 103.786 121.377 103.09C121.509 102.394 121.635 101.722 121.755 101.074C121.875 100.426 121.977 99.832 122.061 99.292C122.409 99.184 122.751 99.094 123.087 99.022C123.423 98.938 123.765 98.866 124.113 98.806C124.473 98.746 124.809 98.716 125.121 98.716C125.661 98.716 126.111 98.806 126.471 98.986C126.843 99.166 127.143 99.412 127.371 99.724C127.599 100.024 127.761 100.378 127.857 100.786C127.953 101.194 128.001 101.632 128.001 102.1C128.001 102.772 127.875 103.42 127.623 104.044C127.383 104.668 127.053 105.226 126.633 105.718C126.225 106.198 125.751 106.582 125.211 106.87C124.683 107.158 124.131 107.302 123.555 107.302H123.357C123.261 107.71 123.171 108.154 123.087 108.634C123.003 109.114 122.931 109.558 122.871 109.966C122.787 110.446 122.709 110.926 122.637 111.406L119.523 112.018ZM124.545 100.894C124.413 101.686 124.281 102.436 124.149 103.144C124.017 103.852 123.873 104.608 123.717 105.412C123.909 105.364 124.107 105.256 124.311 105.088C124.527 104.908 124.725 104.68 124.905 104.404C125.085 104.116 125.229 103.786 125.337 103.414C125.445 103.042 125.499 102.652 125.499 102.244C125.499 101.8 125.397 101.464 125.193 101.236C125.001 101.008 124.785 100.894 124.545 100.894ZM137.018 102.262C137.018 103.246 136.91 104.176 136.694 105.052C136.49 105.916 136.214 106.714 135.866 107.446C135.518 108.166 135.11 108.814 134.642 109.39C134.186 109.954 133.706 110.44 133.202 110.848C132.698 111.244 132.188 111.55 131.672 111.766C131.156 111.97 130.664 112.072 130.196 112.072C129.8 112.072 129.44 112 129.116 111.856C128.792 111.7 128.51 111.478 128.27 111.19C128.03 110.89 127.838 110.512 127.694 110.056C127.562 109.588 127.496 109.03 127.496 108.382C127.496 107.71 127.58 107.002 127.748 106.258C127.916 105.514 128.144 104.776 128.432 104.044C128.72 103.312 129.074 102.616 129.494 101.956C129.914 101.296 130.376 100.714 130.88 100.21C131.384 99.694 131.924 99.286 132.5 98.986C133.076 98.686 133.676 98.536 134.3 98.536C134.84 98.536 135.284 98.65 135.632 98.878C135.992 99.094 136.268 99.382 136.46 99.742C136.664 100.09 136.808 100.486 136.892 100.93C136.976 101.374 137.018 101.818 137.018 102.262ZM130.178 107.914C130.178 108.046 130.202 108.184 130.25 108.328C130.298 108.472 130.364 108.598 130.448 108.706C130.532 108.814 130.634 108.91 130.754 108.994C130.886 109.066 131.024 109.102 131.168 109.102C131.708 109.102 132.188 108.916 132.608 108.544C133.028 108.172 133.376 107.716 133.652 107.176C133.928 106.636 134.138 106.06 134.282 105.448C134.438 104.836 134.516 104.278 134.516 103.774C134.516 103.63 134.504 103.474 134.48 103.306C134.468 103.138 134.432 102.982 134.372 102.838C134.324 102.694 134.24 102.574 134.12 102.478C134.012 102.37 133.862 102.316 133.67 102.316C133.286 102.316 132.932 102.412 132.608 102.604C132.284 102.796 131.99 103.054 131.726 103.378C131.474 103.69 131.252 104.05 131.06 104.458C130.868 104.854 130.7 105.262 130.556 105.682C130.424 106.09 130.328 106.492 130.268 106.888C130.208 107.284 130.178 107.626 130.178 107.914ZM136.445 112.09C136.805 110.362 137.147 108.688 137.471 107.068C137.591 106.372 137.717 105.652 137.849 104.908C137.993 104.164 138.125 103.432 138.245 102.712C138.365 101.98 138.473 101.284 138.569 100.624C138.665 99.952 138.737 99.346 138.785 98.806C138.941 98.818 139.073 98.824 139.181 98.824C139.289 98.824 139.415 98.824 139.559 98.824C139.727 98.824 139.931 98.824 140.171 98.824C140.411 98.812 140.651 98.8 140.891 98.788C141.131 98.776 141.389 98.764 141.665 98.752C141.833 99.592 141.983 100.402 142.115 101.182C142.247 101.866 142.379 102.568 142.511 103.288C142.655 104.008 142.781 104.62 142.889 105.124C142.937 104.884 142.991 104.608 143.051 104.296C143.111 103.972 143.177 103.636 143.249 103.288C143.321 102.94 143.387 102.592 143.447 102.244C143.519 101.884 143.591 101.53 143.663 101.182C143.831 100.402 144.005 99.598 144.185 98.77L146.381 98.5C145.973 100.336 145.613 102.076 145.301 103.72C145.157 104.428 145.013 105.148 144.869 105.88C144.737 106.6 144.611 107.296 144.491 107.968C144.371 108.628 144.269 109.246 144.185 109.822C144.101 110.386 144.035 110.86 143.987 111.244C143.951 111.244 143.807 111.274 143.555 111.334C143.315 111.382 143.033 111.442 142.709 111.514C142.397 111.586 142.079 111.658 141.755 111.73C141.443 111.802 141.209 111.868 141.053 111.928C140.981 110.968 140.903 110.056 140.819 109.192C140.783 108.82 140.741 108.442 140.693 108.058C140.657 107.662 140.615 107.284 140.567 106.924C140.519 106.564 140.471 106.228 140.423 105.916C140.375 105.604 140.327 105.334 140.279 105.106C140.243 105.334 140.195 105.598 140.135 105.898C140.075 106.198 140.015 106.516 139.955 106.852C139.895 107.188 139.835 107.542 139.775 107.914C139.715 108.274 139.649 108.622 139.577 108.958C139.421 109.762 139.253 110.602 139.073 111.478L136.445 112.09ZM154.195 102.802C154.195 103.426 154.105 104.092 153.925 104.8C153.745 105.496 153.493 106.192 153.169 106.888C152.845 107.572 152.443 108.232 151.963 108.868C151.495 109.492 150.961 110.044 150.361 110.524C149.761 110.992 149.101 111.37 148.381 111.658C147.673 111.946 146.917 112.09 146.113 112.09C145.945 112.09 145.777 112.078 145.609 112.054C145.441 112.042 145.273 112.024 145.105 112C145.429 110.344 145.747 108.73 146.059 107.158C146.179 106.498 146.305 105.814 146.437 105.106C146.569 104.386 146.695 103.678 146.815 102.982C146.935 102.286 147.049 101.62 147.157 100.984C147.277 100.348 147.373 99.772 147.445 99.256C147.961 99.16 148.483 99.07 149.011 98.986C149.539 98.902 150.079 98.86 150.631 98.86C151.279 98.86 151.825 98.962 152.269 99.166C152.725 99.37 153.091 99.652 153.367 100.012C153.655 100.372 153.865 100.792 153.997 101.272C154.129 101.752 154.195 102.262 154.195 102.802ZM149.947 101.398C149.815 102.106 149.677 102.784 149.533 103.432C149.389 104.08 149.245 104.734 149.101 105.394C148.957 106.054 148.813 106.744 148.669 107.464C148.525 108.184 148.387 108.97 148.255 109.822C148.543 109.63 148.819 109.372 149.083 109.048C149.359 108.712 149.617 108.328 149.857 107.896C150.097 107.464 150.313 107.008 150.505 106.528C150.709 106.048 150.883 105.58 151.027 105.124C151.171 104.668 151.279 104.242 151.351 103.846C151.435 103.45 151.477 103.108 151.477 102.82C151.477 102.376 151.351 102.028 151.099 101.776C150.859 101.524 150.475 101.398 149.947 101.398ZM164.198 111.64C163.898 111.688 163.568 111.742 163.208 111.802C162.848 111.862 162.524 111.916 162.236 111.964C162.284 111.568 162.332 111.178 162.38 110.794C162.416 110.458 162.446 110.122 162.47 109.786C162.506 109.45 162.536 109.162 162.56 108.922H160.994L160.274 111.514C160.01 111.55 159.698 111.592 159.338 111.64C158.978 111.676 158.642 111.712 158.33 111.748C157.946 111.796 157.568 111.844 157.196 111.892C157.676 110.296 158.15 108.724 158.618 107.176C158.81 106.528 159.008 105.85 159.212 105.142C159.428 104.434 159.638 103.732 159.842 103.036C160.058 102.328 160.262 101.65 160.454 101.002C160.646 100.354 160.814 99.76 160.958 99.22C161.774 99.16 162.602 99.088 163.442 99.004C164.294 98.92 165.122 98.806 165.926 98.662C165.89 99.046 165.848 99.526 165.8 100.102C165.764 100.666 165.728 101.284 165.692 101.956C165.656 102.628 165.62 103.33 165.584 104.062C165.548 104.794 165.512 105.514 165.476 106.222C165.416 107.878 165.35 109.636 165.278 111.496C164.918 111.556 164.558 111.604 164.198 111.64ZM161.426 107.122C161.474 107.122 161.558 107.122 161.678 107.122C161.81 107.11 161.942 107.104 162.074 107.104C162.218 107.092 162.35 107.086 162.47 107.086C162.59 107.074 162.674 107.062 162.722 107.05C162.722 106.978 162.728 106.858 162.74 106.69C162.764 106.51 162.782 106.312 162.794 106.096C162.818 105.868 162.842 105.622 162.866 105.358C162.89 105.094 162.914 104.836 162.938 104.584C162.986 103.972 163.046 103.312 163.118 102.604L163.226 101.038L162.956 101.056L162.542 102.604L161.426 107.122ZM173.875 107.554C173.875 108.226 173.743 108.838 173.479 109.39C173.227 109.93 172.879 110.398 172.435 110.794C172.003 111.19 171.487 111.496 170.887 111.712C170.299 111.928 169.663 112.036 168.979 112.036C168.499 112.036 168.019 111.91 167.539 111.658C167.059 111.394 166.597 110.98 166.153 110.416L167.485 107.806C167.569 107.962 167.695 108.124 167.863 108.292C168.031 108.448 168.217 108.586 168.421 108.706C168.637 108.826 168.847 108.928 169.051 109.012C169.267 109.084 169.459 109.12 169.627 109.12C169.771 109.12 169.921 109.096 170.077 109.048C170.233 109 170.377 108.928 170.509 108.832C170.641 108.736 170.743 108.628 170.815 108.508C170.899 108.376 170.941 108.226 170.941 108.058C170.941 107.77 170.845 107.506 170.653 107.266C170.473 107.014 170.245 106.78 169.969 106.564C169.693 106.336 169.393 106.108 169.069 105.88C168.745 105.652 168.445 105.412 168.169 105.16C167.905 104.908 167.677 104.626 167.485 104.314C167.293 104.002 167.197 103.654 167.197 103.27C167.197 102.646 167.383 102.064 167.755 101.524C168.127 100.984 168.589 100.522 169.141 100.138C169.705 99.742 170.317 99.43 170.977 99.202C171.637 98.974 172.261 98.86 172.849 98.86C173.173 98.86 173.479 98.902 173.767 98.986C174.055 99.058 174.301 99.184 174.505 99.364C174.721 99.532 174.889 99.748 175.009 100.012C175.141 100.276 175.207 100.606 175.207 101.002C175.207 101.17 175.189 101.338 175.153 101.506C175.129 101.674 175.105 101.854 175.081 102.046L172.471 102.802C172.495 102.706 172.513 102.61 172.525 102.514C172.549 102.418 172.561 102.322 172.561 102.226C172.561 101.866 172.495 101.608 172.363 101.452C172.243 101.284 172.081 101.2 171.877 101.2C171.781 101.2 171.661 101.236 171.517 101.308C171.385 101.38 171.247 101.476 171.103 101.596C170.971 101.704 170.857 101.836 170.761 101.992C170.665 102.148 170.617 102.316 170.617 102.496C170.617 102.784 170.695 103.024 170.851 103.216C171.019 103.408 171.223 103.588 171.463 103.756C171.703 103.924 171.961 104.098 172.237 104.278C172.525 104.446 172.789 104.668 173.029 104.944C173.269 105.22 173.467 105.568 173.623 105.988C173.791 106.396 173.875 106.918 173.875 107.554ZM186.205 107.554C186.205 108.226 186.073 108.838 185.809 109.39C185.557 109.93 185.209 110.398 184.765 110.794C184.333 111.19 183.817 111.496 183.217 111.712C182.629 111.928 181.993 112.036 181.309 112.036C180.829 112.036 180.349 111.91 179.869 111.658C179.389 111.394 178.927 110.98 178.483 110.416L179.815 107.806C179.899 107.962 180.025 108.124 180.193 108.292C180.361 108.448 180.547 108.586 180.751 108.706C180.967 108.826 181.177 108.928 181.381 109.012C181.597 109.084 181.789 109.12 181.957 109.12C182.101 109.12 182.251 109.096 182.407 109.048C182.563 109 182.707 108.928 182.839 108.832C182.971 108.736 183.073 108.628 183.145 108.508C183.229 108.376 183.271 108.226 183.271 108.058C183.271 107.77 183.175 107.506 182.983 107.266C182.803 107.014 182.575 106.78 182.299 106.564C182.023 106.336 181.723 106.108 181.399 105.88C181.075 105.652 180.775 105.412 180.499 105.16C180.235 104.908 180.007 104.626 179.815 104.314C179.623 104.002 179.527 103.654 179.527 103.27C179.527 102.646 179.713 102.064 180.085 101.524C180.457 100.984 180.919 100.522 181.471 100.138C182.035 99.742 182.647 99.43 183.307 99.202C183.967 98.974 184.591 98.86 185.179 98.86C185.503 98.86 185.809 98.902 186.097 98.986C186.385 99.058 186.631 99.184 186.835 99.364C187.051 99.532 187.219 99.748 187.339 100.012C187.471 100.276 187.537 100.606 187.537 101.002C187.537 101.17 187.519 101.338 187.483 101.506C187.459 101.674 187.435 101.854 187.411 102.046L184.801 102.802C184.825 102.706 184.843 102.61 184.855 102.514C184.879 102.418 184.891 102.322 184.891 102.226C184.891 101.866 184.825 101.608 184.693 101.452C184.573 101.284 184.411 101.2 184.207 101.2C184.111 101.2 183.991 101.236 183.847 101.308C183.715 101.38 183.577 101.476 183.433 101.596C183.301 101.704 183.187 101.836 183.091 101.992C182.995 102.148 182.947 102.316 182.947 102.496C182.947 102.784 183.025 103.024 183.181 103.216C183.349 103.408 183.553 103.588 183.793 103.756C184.033 103.924 184.291 104.098 184.567 104.278C184.855 104.446 185.119 104.668 185.359 104.944C185.599 105.22 185.797 105.568 185.953 105.988C186.121 106.396 186.205 106.918 186.205 107.554ZM196.586 102.262C196.586 103.246 196.478 104.176 196.262 105.052C196.058 105.916 195.782 106.714 195.434 107.446C195.086 108.166 194.678 108.814 194.21 109.39C193.754 109.954 193.274 110.44 192.77 110.848C192.266 111.244 191.756 111.55 191.24 111.766C190.724 111.97 190.232 112.072 189.764 112.072C189.368 112.072 189.008 112 188.684 111.856C188.36 111.7 188.078 111.478 187.838 111.19C187.598 110.89 187.406 110.512 187.262 110.056C187.13 109.588 187.064 109.03 187.064 108.382C187.064 107.71 187.148 107.002 187.316 106.258C187.484 105.514 187.712 104.776 188 104.044C188.288 103.312 188.642 102.616 189.062 101.956C189.482 101.296 189.944 100.714 190.448 100.21C190.952 99.694 191.492 99.286 192.068 98.986C192.644 98.686 193.244 98.536 193.868 98.536C194.408 98.536 194.852 98.65 195.2 98.878C195.56 99.094 195.836 99.382 196.028 99.742C196.232 100.09 196.376 100.486 196.46 100.93C196.544 101.374 196.586 101.818 196.586 102.262ZM189.746 107.914C189.746 108.046 189.77 108.184 189.818 108.328C189.866 108.472 189.932 108.598 190.016 108.706C190.1 108.814 190.202 108.91 190.322 108.994C190.454 109.066 190.592 109.102 190.736 109.102C191.276 109.102 191.756 108.916 192.176 108.544C192.596 108.172 192.944 107.716 193.22 107.176C193.496 106.636 193.706 106.06 193.85 105.448C194.006 104.836 194.084 104.278 194.084 103.774C194.084 103.63 194.072 103.474 194.048 103.306C194.036 103.138 194 102.982 193.94 102.838C193.892 102.694 193.808 102.574 193.688 102.478C193.58 102.37 193.43 102.316 193.238 102.316C192.854 102.316 192.5 102.412 192.176 102.604C191.852 102.796 191.558 103.054 191.294 103.378C191.042 103.69 190.82 104.05 190.628 104.458C190.436 104.854 190.268 105.262 190.124 105.682C189.992 106.09 189.896 106.492 189.836 106.888C189.776 107.284 189.746 107.626 189.746 107.914ZM206.003 102.262C206.003 103.246 205.895 104.176 205.679 105.052C205.475 105.916 205.199 106.714 204.851 107.446C204.503 108.166 204.095 108.814 203.627 109.39C203.171 109.954 202.691 110.44 202.187 110.848C201.683 111.244 201.173 111.55 200.657 111.766C200.141 111.97 199.649 112.072 199.181 112.072C198.785 112.072 198.425 112 198.101 111.856C197.777 111.7 197.495 111.478 197.255 111.19C197.015 110.89 196.823 110.512 196.679 110.056C196.547 109.588 196.481 109.03 196.481 108.382C196.481 107.71 196.565 107.002 196.733 106.258C196.901 105.514 197.129 104.776 197.417 104.044C197.705 103.312 198.059 102.616 198.479 101.956C198.899 101.296 199.361 100.714 199.865 100.21C200.369 99.694 200.909 99.286 201.485 98.986C202.061 98.686 202.661 98.536 203.285 98.536C203.825 98.536 204.269 98.65 204.617 98.878C204.977 99.094 205.253 99.382 205.445 99.742C205.649 100.09 205.793 100.486 205.877 100.93C205.961 101.374 206.003 101.818 206.003 102.262ZM199.163 107.914C199.163 108.046 199.187 108.184 199.235 108.328C199.283 108.472 199.349 108.598 199.433 108.706C199.517 108.814 199.619 108.91 199.739 108.994C199.871 109.066 200.009 109.102 200.153 109.102C200.693 109.102 201.173 108.916 201.593 108.544C202.013 108.172 202.361 107.716 202.637 107.176C202.913 106.636 203.123 106.06 203.267 105.448C203.423 104.836 203.501 104.278 203.501 103.774C203.501 103.63 203.489 103.474 203.465 103.306C203.453 103.138 203.417 102.982 203.357 102.838C203.309 102.694 203.225 102.574 203.105 102.478C202.997 102.37 202.847 102.316 202.655 102.316C202.271 102.316 201.917 102.412 201.593 102.604C201.269 102.796 200.975 103.054 200.711 103.378C200.459 103.69 200.237 104.05 200.045 104.458C199.853 104.854 199.685 105.262 199.541 105.682C199.409 106.09 199.313 106.492 199.253 106.888C199.193 107.284 199.163 107.626 199.163 107.914ZM205.43 112.09C205.79 110.362 206.132 108.688 206.456 107.068C206.576 106.372 206.702 105.652 206.834 104.908C206.978 104.164 207.11 103.432 207.23 102.712C207.35 101.98 207.458 101.284 207.554 100.624C207.65 99.952 207.722 99.346 207.77 98.806C207.926 98.818 208.058 98.824 208.166 98.824C208.274 98.824 208.4 98.824 208.544 98.824C208.712 98.824 208.916 98.824 209.156 98.824C209.396 98.812 209.636 98.8 209.876 98.788C210.116 98.776 210.374 98.764 210.65 98.752C210.818 99.592 210.968 100.402 211.1 101.182C211.232 101.866 211.364 102.568 211.496 103.288C211.64 104.008 211.766 104.62 211.874 105.124C211.922 104.884 211.976 104.608 212.036 104.296C212.096 103.972 212.162 103.636 212.234 103.288C212.306 102.94 212.372 102.592 212.432 102.244C212.504 101.884 212.576 101.53 212.648 101.182C212.816 100.402 212.99 99.598 213.17 98.77L215.366 98.5C214.958 100.336 214.598 102.076 214.286 103.72C214.142 104.428 213.998 105.148 213.854 105.88C213.722 106.6 213.596 107.296 213.476 107.968C213.356 108.628 213.254 109.246 213.17 109.822C213.086 110.386 213.02 110.86 212.972 111.244C212.936 111.244 212.792 111.274 212.54 111.334C212.3 111.382 212.018 111.442 211.694 111.514C211.382 111.586 211.064 111.658 210.74 111.73C210.428 111.802 210.194 111.868 210.038 111.928C209.966 110.968 209.888 110.056 209.804 109.192C209.768 108.82 209.726 108.442 209.678 108.058C209.642 107.662 209.6 107.284 209.552 106.924C209.504 106.564 209.456 106.228 209.408 105.916C209.36 105.604 209.312 105.334 209.264 105.106C209.228 105.334 209.18 105.598 209.12 105.898C209.06 106.198 209 106.516 208.94 106.852C208.88 107.188 208.82 107.542 208.76 107.914C208.7 108.274 208.634 108.622 208.562 108.958C208.406 109.762 208.238 110.602 208.058 111.478L205.43 112.09ZM224.698 111.64C224.398 111.688 224.068 111.742 223.708 111.802C223.348 111.862 223.024 111.916 222.736 111.964C222.784 111.568 222.832 111.178 222.88 110.794C222.916 110.458 222.946 110.122 222.97 109.786C223.006 109.45 223.036 109.162 223.06 108.922H221.494L220.774 111.514C220.51 111.55 220.198 111.592 219.838 111.64C219.478 111.676 219.142 111.712 218.83 111.748C218.446 111.796 218.068 111.844 217.696 111.892C218.176 110.296 218.65 108.724 219.118 107.176C219.31 106.528 219.508 105.85 219.712 105.142C219.928 104.434 220.138 103.732 220.342 103.036C220.558 102.328 220.762 101.65 220.954 101.002C221.146 100.354 221.314 99.76 221.458 99.22C222.274 99.16 223.102 99.088 223.942 99.004C224.794 98.92 225.622 98.806 226.426 98.662C226.39 99.046 226.348 99.526 226.3 100.102C226.264 100.666 226.228 101.284 226.192 101.956C226.156 102.628 226.12 103.33 226.084 104.062C226.048 104.794 226.012 105.514 225.976 106.222C225.916 107.878 225.85 109.636 225.778 111.496C225.418 111.556 225.058 111.604 224.698 111.64ZM221.926 107.122C221.974 107.122 222.058 107.122 222.178 107.122C222.31 107.11 222.442 107.104 222.574 107.104C222.718 107.092 222.85 107.086 222.97 107.086C223.09 107.074 223.174 107.062 223.222 107.05C223.222 106.978 223.228 106.858 223.24 106.69C223.264 106.51 223.282 106.312 223.294 106.096C223.318 105.868 223.342 105.622 223.366 105.358C223.39 105.094 223.414 104.836 223.438 104.584C223.486 103.972 223.546 103.312 223.618 102.604L223.726 101.038L223.456 101.056L223.042 102.604L221.926 107.122ZM234.375 107.554C234.375 108.226 234.243 108.838 233.979 109.39C233.727 109.93 233.379 110.398 232.935 110.794C232.503 111.19 231.987 111.496 231.387 111.712C230.799 111.928 230.163 112.036 229.479 112.036C228.999 112.036 228.519 111.91 228.039 111.658C227.559 111.394 227.097 110.98 226.653 110.416L227.985 107.806C228.069 107.962 228.195 108.124 228.363 108.292C228.531 108.448 228.717 108.586 228.921 108.706C229.137 108.826 229.347 108.928 229.551 109.012C229.767 109.084 229.959 109.12 230.127 109.12C230.271 109.12 230.421 109.096 230.577 109.048C230.733 109 230.877 108.928 231.009 108.832C231.141 108.736 231.243 108.628 231.315 108.508C231.399 108.376 231.441 108.226 231.441 108.058C231.441 107.77 231.345 107.506 231.153 107.266C230.973 107.014 230.745 106.78 230.469 106.564C230.193 106.336 229.893 106.108 229.569 105.88C229.245 105.652 228.945 105.412 228.669 105.16C228.405 104.908 228.177 104.626 227.985 104.314C227.793 104.002 227.697 103.654 227.697 103.27C227.697 102.646 227.883 102.064 228.255 101.524C228.627 100.984 229.089 100.522 229.641 100.138C230.205 99.742 230.817 99.43 231.477 99.202C232.137 98.974 232.761 98.86 233.349 98.86C233.673 98.86 233.979 98.902 234.267 98.986C234.555 99.058 234.801 99.184 235.005 99.364C235.221 99.532 235.389 99.748 235.509 100.012C235.641 100.276 235.707 100.606 235.707 101.002C235.707 101.17 235.689 101.338 235.653 101.506C235.629 101.674 235.605 101.854 235.581 102.046L232.971 102.802C232.995 102.706 233.013 102.61 233.025 102.514C233.049 102.418 233.061 102.322 233.061 102.226C233.061 101.866 232.995 101.608 232.863 101.452C232.743 101.284 232.581 101.2 232.377 101.2C232.281 101.2 232.161 101.236 232.017 101.308C231.885 101.38 231.747 101.476 231.603 101.596C231.471 101.704 231.357 101.836 231.261 101.992C231.165 102.148 231.117 102.316 231.117 102.496C231.117 102.784 231.195 103.024 231.351 103.216C231.519 103.408 231.723 103.588 231.963 103.756C232.203 103.924 232.461 104.098 232.737 104.278C233.025 104.446 233.289 104.668 233.529 104.944C233.769 105.22 233.967 105.568 234.123 105.988C234.291 106.396 234.375 106.918 234.375 107.554ZM241.791 111.64C241.683 111.64 241.467 111.658 241.143 111.694C240.831 111.718 240.507 111.754 240.171 111.802C239.835 111.838 239.529 111.874 239.253 111.91C238.989 111.946 238.845 111.97 238.821 111.982C238.941 111.466 239.061 110.896 239.181 110.272C239.313 109.636 239.445 108.976 239.577 108.292C239.709 107.596 239.835 106.894 239.955 106.186C240.075 105.478 240.189 104.794 240.297 104.134C240.549 102.598 240.801 101.02 241.053 99.4L243.861 98.95C243.585 100.558 243.315 102.136 243.051 103.684C242.943 104.344 242.829 105.028 242.709 105.736C242.601 106.444 242.487 107.146 242.367 107.842C242.259 108.538 242.157 109.216 242.061 109.876C241.965 110.524 241.875 111.112 241.791 111.64ZM123.045 127.13C122.757 127.79 122.433 128.366 122.073 128.858C121.725 129.338 121.353 129.746 120.957 130.082C120.573 130.406 120.183 130.646 119.787 130.802C119.391 130.958 119.007 131.036 118.635 131.036C118.263 131.036 117.921 130.952 117.609 130.784C117.309 130.616 117.045 130.364 116.817 130.028C116.589 129.692 116.403 129.278 116.259 128.786C116.127 128.294 116.061 127.718 116.061 127.058C116.061 125.93 116.217 124.82 116.529 123.728C116.841 122.624 117.279 121.634 117.843 120.758C118.407 119.882 119.073 119.18 119.841 118.652C120.621 118.112 121.479 117.842 122.415 117.842C122.703 117.842 122.979 117.902 123.243 118.022C123.507 118.142 123.735 118.31 123.927 118.526C124.119 118.742 124.269 119.006 124.377 119.318C124.497 119.63 124.557 119.978 124.557 120.362C124.557 120.434 124.557 120.512 124.557 120.596C124.557 120.668 124.551 120.746 124.539 120.83L122.181 121.46C122.037 121.16 121.869 121.01 121.677 121.01C121.485 121.01 121.281 121.124 121.065 121.352C120.861 121.568 120.657 121.856 120.453 122.216C120.249 122.564 120.051 122.96 119.859 123.404C119.667 123.836 119.499 124.274 119.355 124.718C119.211 125.162 119.091 125.588 118.995 125.996C118.911 126.392 118.869 126.716 118.869 126.968C118.869 127.352 118.917 127.622 119.013 127.778C119.121 127.934 119.259 128.012 119.427 128.012C119.559 128.012 119.709 127.964 119.877 127.868C120.045 127.76 120.201 127.628 120.345 127.472C120.489 127.304 120.621 127.118 120.741 126.914C120.861 126.71 120.945 126.506 120.993 126.302L123.045 127.13ZM129.976 130.64C129.676 130.688 129.346 130.742 128.986 130.802C128.626 130.862 128.302 130.916 128.014 130.964C128.062 130.568 128.11 130.178 128.158 129.794C128.194 129.458 128.224 129.122 128.248 128.786C128.284 128.45 128.314 128.162 128.338 127.922H126.772L126.052 130.514C125.788 130.55 125.476 130.592 125.116 130.64C124.756 130.676 124.42 130.712 124.108 130.748C123.724 130.796 123.346 130.844 122.974 130.892C123.454 129.296 123.928 127.724 124.396 126.176C124.588 125.528 124.786 124.85 124.99 124.142C125.206 123.434 125.416 122.732 125.62 122.036C125.836 121.328 126.04 120.65 126.232 120.002C126.424 119.354 126.592 118.76 126.736 118.22C127.552 118.16 128.38 118.088 129.22 118.004C130.072 117.92 130.9 117.806 131.704 117.662C131.668 118.046 131.626 118.526 131.578 119.102C131.542 119.666 131.506 120.284 131.47 120.956C131.434 121.628 131.398 122.33 131.362 123.062C131.326 123.794 131.29 124.514 131.254 125.222C131.194 126.878 131.128 128.636 131.056 130.496C130.696 130.556 130.336 130.604 129.976 130.64ZM127.204 126.122C127.252 126.122 127.336 126.122 127.456 126.122C127.588 126.11 127.72 126.104 127.852 126.104C127.996 126.092 128.128 126.086 128.248 126.086C128.368 126.074 128.452 126.062 128.5 126.05C128.5 125.978 128.506 125.858 128.518 125.69C128.542 125.51 128.56 125.312 128.572 125.096C128.596 124.868 128.62 124.622 128.644 124.358C128.668 124.094 128.692 123.836 128.716 123.584C128.764 122.972 128.824 122.312 128.896 121.604L129.004 120.038L128.734 120.056L128.32 121.604L127.204 126.122ZM131.769 131.09C132.129 129.362 132.471 127.688 132.795 126.068C132.915 125.372 133.041 124.652 133.173 123.908C133.317 123.164 133.449 122.432 133.569 121.712C133.689 120.98 133.797 120.284 133.893 119.624C133.989 118.952 134.061 118.346 134.109 117.806C134.265 117.818 134.397 117.824 134.505 117.824C134.613 117.824 134.739 117.824 134.883 117.824C135.051 117.824 135.255 117.824 135.495 117.824C135.735 117.812 135.975 117.8 136.215 117.788C136.455 117.776 136.713 117.764 136.989 117.752C137.157 118.592 137.307 119.402 137.439 120.182C137.571 120.866 137.703 121.568 137.835 122.288C137.979 123.008 138.105 123.62 138.213 124.124C138.261 123.884 138.315 123.608 138.375 123.296C138.435 122.972 138.501 122.636 138.573 122.288C138.645 121.94 138.711 121.592 138.771 121.244C138.843 120.884 138.915 120.53 138.987 120.182C139.155 119.402 139.329 118.598 139.509 117.77L141.705 117.5C141.297 119.336 140.937 121.076 140.625 122.72C140.481 123.428 140.337 124.148 140.193 124.88C140.061 125.6 139.935 126.296 139.815 126.968C139.695 127.628 139.593 128.246 139.509 128.822C139.425 129.386 139.359 129.86 139.311 130.244C139.275 130.244 139.131 130.274 138.879 130.334C138.639 130.382 138.357 130.442 138.033 130.514C137.721 130.586 137.403 130.658 137.079 130.73C136.767 130.802 136.533 130.868 136.377 130.928C136.305 129.968 136.227 129.056 136.143 128.192C136.107 127.82 136.065 127.442 136.017 127.058C135.981 126.662 135.939 126.284 135.891 125.924C135.843 125.564 135.795 125.228 135.747 124.916C135.699 124.604 135.651 124.334 135.603 124.106C135.567 124.334 135.519 124.598 135.459 124.898C135.399 125.198 135.339 125.516 135.279 125.852C135.219 126.188 135.159 126.542 135.099 126.914C135.039 127.274 134.973 127.622 134.901 127.958C134.745 128.762 134.577 129.602 134.397 130.478L131.769 131.09ZM139.746 132.998C139.842 132.518 139.944 132.026 140.052 131.522C140.16 131.03 140.262 130.556 140.358 130.1C140.454 129.632 140.538 129.2 140.61 128.804C140.694 128.408 140.754 128.06 140.79 127.76C140.886 127.76 141.036 127.766 141.24 127.778C141.456 127.778 141.618 127.778 141.726 127.778C141.894 127.778 142.11 127.778 142.374 127.778C142.65 127.778 142.92 127.772 143.184 127.76C143.46 127.748 143.748 127.736 144.048 127.724C143.952 128.168 143.82 128.696 143.652 129.308C143.496 129.908 143.328 130.508 143.148 131.108C142.968 131.708 142.776 132.338 142.572 132.998H139.746ZM150.124 131.018C150.4 129.698 150.664 128.396 150.916 127.112C151.024 126.572 151.132 126.008 151.24 125.42C151.348 124.832 151.45 124.256 151.546 123.692C151.654 123.116 151.744 122.564 151.816 122.036C151.9 121.496 151.972 121.004 152.032 120.56C151.756 120.524 151.474 120.512 151.186 120.524C150.91 120.536 150.634 120.5 150.358 120.416C150.37 120.224 150.376 120.002 150.376 119.75C150.376 119.498 150.382 119.246 150.394 118.994C150.406 118.718 150.418 118.424 150.43 118.112C150.742 118.136 151.054 118.154 151.366 118.166C151.678 118.178 151.99 118.184 152.302 118.184C152.914 118.184 153.502 118.172 154.066 118.148C154.642 118.112 155.17 118.076 155.65 118.04C156.142 117.992 156.622 117.938 157.09 117.878L156.892 118.85C156.832 119.126 156.772 119.408 156.712 119.696C156.664 119.984 156.616 120.23 156.568 120.434C156.304 120.506 156.034 120.56 155.758 120.596C155.494 120.62 155.23 120.656 154.966 120.704C154.882 121.112 154.792 121.568 154.696 122.072C154.6 122.564 154.504 123.08 154.408 123.62C154.324 124.148 154.24 124.688 154.156 125.24C154.072 125.792 153.988 126.32 153.904 126.824C153.712 128.012 153.532 129.242 153.364 130.514L150.124 131.018ZM155.709 131.036C156.045 129.356 156.369 127.718 156.681 126.122C156.801 125.438 156.927 124.73 157.059 123.998C157.191 123.254 157.311 122.522 157.419 121.802C157.539 121.082 157.647 120.386 157.743 119.714C157.851 119.03 157.935 118.412 157.995 117.86C158.271 117.872 158.523 117.89 158.751 117.914C158.991 117.926 159.225 117.938 159.453 117.95C159.681 117.962 159.909 117.974 160.137 117.986C160.377 117.986 160.635 117.986 160.911 117.986C160.707 118.838 160.503 119.69 160.299 120.542C160.107 121.394 159.927 122.252 159.759 123.116L161.541 122.918C161.709 122.066 161.859 121.244 161.991 120.452C162.123 119.648 162.297 118.82 162.513 117.968C162.789 117.92 163.095 117.884 163.431 117.86C163.767 117.824 164.079 117.794 164.367 117.77C164.655 117.746 164.895 117.728 165.087 117.716C165.291 117.692 165.393 117.68 165.393 117.68C165.225 118.22 165.063 118.814 164.907 119.462C164.763 120.098 164.619 120.764 164.475 121.46C164.331 122.144 164.193 122.84 164.061 123.548C163.929 124.256 163.809 124.928 163.701 125.564C163.437 127.088 163.191 128.648 162.963 130.244L160.155 130.568C160.311 129.848 160.449 129.146 160.569 128.462C160.689 127.886 160.809 127.286 160.929 126.662C161.061 126.038 161.163 125.504 161.235 125.06L159.489 125.222C159.405 125.678 159.303 126.206 159.183 126.806C159.075 127.406 158.973 127.976 158.877 128.516C158.745 129.164 158.613 129.812 158.481 130.46L155.709 131.036ZM170.675 130.64C170.375 130.688 170.045 130.742 169.685 130.802C169.325 130.862 169.001 130.916 168.713 130.964C168.761 130.568 168.809 130.178 168.857 129.794C168.893 129.458 168.923 129.122 168.947 128.786C168.983 128.45 169.013 128.162 169.037 127.922H167.471L166.751 130.514C166.487 130.55 166.175 130.592 165.815 130.64C165.455 130.676 165.119 130.712 164.807 130.748C164.423 130.796 164.045 130.844 163.673 130.892C164.153 129.296 164.627 127.724 165.095 126.176C165.287 125.528 165.485 124.85 165.689 124.142C165.905 123.434 166.115 122.732 166.319 122.036C166.535 121.328 166.739 120.65 166.931 120.002C167.123 119.354 167.291 118.76 167.435 118.22C168.251 118.16 169.079 118.088 169.919 118.004C170.771 117.92 171.599 117.806 172.403 117.662C172.367 118.046 172.325 118.526 172.277 119.102C172.241 119.666 172.205 120.284 172.169 120.956C172.133 121.628 172.097 122.33 172.061 123.062C172.025 123.794 171.989 124.514 171.953 125.222C171.893 126.878 171.827 128.636 171.755 130.496C171.395 130.556 171.035 130.604 170.675 130.64ZM167.903 126.122C167.951 126.122 168.035 126.122 168.155 126.122C168.287 126.11 168.419 126.104 168.551 126.104C168.695 126.092 168.827 126.086 168.947 126.086C169.067 126.074 169.151 126.062 169.199 126.05C169.199 125.978 169.205 125.858 169.217 125.69C169.241 125.51 169.259 125.312 169.271 125.096C169.295 124.868 169.319 124.622 169.343 124.358C169.367 124.094 169.391 123.836 169.415 123.584C169.463 122.972 169.523 122.312 169.595 121.604L169.703 120.038L169.433 120.056L169.019 121.604L167.903 126.122ZM172.468 131.09C172.828 129.362 173.17 127.688 173.494 126.068C173.614 125.372 173.74 124.652 173.872 123.908C174.016 123.164 174.148 122.432 174.268 121.712C174.388 120.98 174.496 120.284 174.592 119.624C174.688 118.952 174.76 118.346 174.808 117.806C174.964 117.818 175.096 117.824 175.204 117.824C175.312 117.824 175.438 117.824 175.582 117.824C175.75 117.824 175.954 117.824 176.194 117.824C176.434 117.812 176.674 117.8 176.914 117.788C177.154 117.776 177.412 117.764 177.688 117.752C177.856 118.592 178.006 119.402 178.138 120.182C178.27 120.866 178.402 121.568 178.534 122.288C178.678 123.008 178.804 123.62 178.912 124.124C178.96 123.884 179.014 123.608 179.074 123.296C179.134 122.972 179.2 122.636 179.272 122.288C179.344 121.94 179.41 121.592 179.47 121.244C179.542 120.884 179.614 120.53 179.686 120.182C179.854 119.402 180.028 118.598 180.208 117.77L182.404 117.5C181.996 119.336 181.636 121.076 181.324 122.72C181.18 123.428 181.036 124.148 180.892 124.88C180.76 125.6 180.634 126.296 180.514 126.968C180.394 127.628 180.292 128.246 180.208 128.822C180.124 129.386 180.058 129.86 180.01 130.244C179.974 130.244 179.83 130.274 179.578 130.334C179.338 130.382 179.056 130.442 178.732 130.514C178.42 130.586 178.102 130.658 177.778 130.73C177.466 130.802 177.232 130.868 177.076 130.928C177.004 129.968 176.926 129.056 176.842 128.192C176.806 127.82 176.764 127.442 176.716 127.058C176.68 126.662 176.638 126.284 176.59 125.924C176.542 125.564 176.494 125.228 176.446 124.916C176.398 124.604 176.35 124.334 176.302 124.106C176.266 124.334 176.218 124.598 176.158 124.898C176.098 125.198 176.038 125.516 175.978 125.852C175.918 126.188 175.858 126.542 175.798 126.914C175.738 127.274 175.672 127.622 175.6 127.958C175.444 128.762 175.276 129.602 175.096 130.478L172.468 131.09ZM181.183 131.018C181.543 129.338 181.879 127.706 182.191 126.122C182.311 125.438 182.437 124.73 182.569 123.998C182.701 123.266 182.821 122.54 182.929 121.82C183.049 121.1 183.151 120.404 183.235 119.732C183.331 119.048 183.403 118.43 183.451 117.878C183.727 117.902 184.039 117.926 184.387 117.95C184.735 117.962 185.059 117.98 185.359 118.004C185.719 118.028 186.079 118.04 186.439 118.04C186.427 118.088 186.409 118.178 186.385 118.31C186.361 118.442 186.331 118.604 186.295 118.796C186.259 118.976 186.217 119.18 186.169 119.408C186.133 119.636 186.091 119.864 186.043 120.092C185.947 120.62 185.839 121.214 185.719 121.874L185.827 121.856C185.947 121.664 186.115 121.4 186.331 121.064C186.559 120.716 186.793 120.35 187.033 119.966C187.273 119.582 187.507 119.216 187.735 118.868C187.963 118.508 188.155 118.202 188.311 117.95C188.911 117.902 189.511 117.848 190.111 117.788C190.711 117.728 191.311 117.65 191.911 117.554C191.347 118.31 190.801 119.054 190.273 119.786C190.045 120.098 189.811 120.422 189.571 120.758C189.343 121.094 189.115 121.424 188.887 121.748C188.659 122.072 188.443 122.384 188.239 122.684C188.047 122.984 187.873 123.26 187.717 123.512C187.981 124.724 188.293 125.894 188.653 127.022C189.013 128.15 189.379 129.302 189.751 130.478C189.475 130.466 189.193 130.46 188.905 130.46C188.617 130.448 188.335 130.442 188.059 130.442C187.711 130.442 187.375 130.448 187.051 130.46C186.727 130.46 186.391 130.466 186.043 130.478C185.935 129.698 185.815 128.882 185.683 128.03C185.563 127.166 185.449 126.344 185.341 125.564L185.017 125.942C184.933 126.302 184.837 126.746 184.729 127.274C184.633 127.802 184.537 128.312 184.441 128.804C184.333 129.38 184.219 129.974 184.099 130.586L181.183 131.018ZM195.353 130.73L196.181 127.112C196.181 126.596 196.169 126.038 196.145 125.438C196.133 124.826 196.109 124.214 196.073 123.602C196.037 122.99 196.001 122.402 195.965 121.838C195.929 121.262 195.899 120.758 195.875 120.326C195.851 119.882 195.827 119.528 195.803 119.264C195.779 119 195.767 118.868 195.767 118.868L198.701 117.752V119.948C198.701 120.248 198.701 120.554 198.701 120.866C198.701 121.178 198.695 121.484 198.683 121.784C198.683 122.084 198.683 122.366 198.683 122.63C198.683 122.894 198.683 123.116 198.683 123.296C198.839 122.888 199.025 122.384 199.241 121.784C199.469 121.184 199.679 120.602 199.871 120.038C200.099 119.378 200.333 118.682 200.573 117.95L203.363 118.58C202.847 119.612 202.343 120.638 201.851 121.658C201.647 122.102 201.431 122.564 201.203 123.044C200.975 123.512 200.747 123.986 200.519 124.466C200.291 124.934 200.069 125.39 199.853 125.834C199.637 126.278 199.439 126.692 199.259 127.076C199.199 127.388 199.121 127.73 199.025 128.102C198.941 128.474 198.857 128.828 198.773 129.164C198.665 129.56 198.551 129.956 198.431 130.352L195.353 130.73ZM211.495 121.262C211.495 122.246 211.387 123.176 211.171 124.052C210.967 124.916 210.691 125.714 210.343 126.446C209.995 127.166 209.587 127.814 209.119 128.39C208.663 128.954 208.183 129.44 207.679 129.848C207.175 130.244 206.665 130.55 206.149 130.766C205.633 130.97 205.141 131.072 204.673 131.072C204.277 131.072 203.917 131 203.593 130.856C203.269 130.7 202.987 130.478 202.747 130.19C202.507 129.89 202.315 129.512 202.171 129.056C202.039 128.588 201.973 128.03 201.973 127.382C201.973 126.71 202.057 126.002 202.225 125.258C202.393 124.514 202.621 123.776 202.909 123.044C203.197 122.312 203.551 121.616 203.971 120.956C204.391 120.296 204.853 119.714 205.357 119.21C205.861 118.694 206.401 118.286 206.977 117.986C207.553 117.686 208.153 117.536 208.777 117.536C209.317 117.536 209.761 117.65 210.109 117.878C210.469 118.094 210.745 118.382 210.937 118.742C211.141 119.09 211.285 119.486 211.369 119.93C211.453 120.374 211.495 120.818 211.495 121.262ZM204.655 126.914C204.655 127.046 204.679 127.184 204.727 127.328C204.775 127.472 204.841 127.598 204.925 127.706C205.009 127.814 205.111 127.91 205.231 127.994C205.363 128.066 205.501 128.102 205.645 128.102C206.185 128.102 206.665 127.916 207.085 127.544C207.505 127.172 207.853 126.716 208.129 126.176C208.405 125.636 208.615 125.06 208.759 124.448C208.915 123.836 208.993 123.278 208.993 122.774C208.993 122.63 208.981 122.474 208.957 122.306C208.945 122.138 208.909 121.982 208.849 121.838C208.801 121.694 208.717 121.574 208.597 121.478C208.489 121.37 208.339 121.316 208.147 121.316C207.763 121.316 207.409 121.412 207.085 121.604C206.761 121.796 206.467 122.054 206.203 122.378C205.951 122.69 205.729 123.05 205.537 123.458C205.345 123.854 205.177 124.262 205.033 124.682C204.901 125.09 204.805 125.492 204.745 125.888C204.685 126.284 204.655 126.626 204.655 126.914ZM218.32 127.49C218.152 128.174 217.912 128.756 217.6 129.236C217.3 129.716 216.94 130.112 216.52 130.424C216.112 130.736 215.674 130.964 215.206 131.108C214.738 131.252 214.27 131.324 213.802 131.324C213.526 131.324 213.244 131.276 212.956 131.18C212.668 131.096 212.41 130.964 212.182 130.784C211.954 130.604 211.762 130.376 211.606 130.1C211.462 129.824 211.39 129.5 211.39 129.128C211.39 129.08 211.39 129.032 211.39 128.984C211.39 128.936 211.396 128.888 211.408 128.84C211.456 128.348 211.534 127.754 211.642 127.058C211.75 126.362 211.864 125.636 211.984 124.88C212.104 124.124 212.236 123.368 212.38 122.612C212.524 121.844 212.65 121.148 212.758 120.524C212.878 119.9 212.98 119.384 213.064 118.976C213.148 118.556 213.202 118.298 213.226 118.202C213.478 118.178 213.778 118.148 214.126 118.112C214.474 118.076 214.798 118.046 215.098 118.022C215.47 117.986 215.836 117.95 216.196 117.914C215.884 119.366 215.608 120.68 215.368 121.856C215.26 122.36 215.152 122.864 215.044 123.368C214.948 123.872 214.852 124.334 214.756 124.754C214.672 125.174 214.594 125.54 214.522 125.852C214.462 126.152 214.408 126.398 214.36 126.59C214.324 126.782 214.276 127.028 214.216 127.328C214.168 127.616 214.144 127.88 214.144 128.12C214.144 128.312 214.192 128.474 214.288 128.606C214.384 128.726 214.504 128.786 214.648 128.786C214.852 128.786 215.02 128.708 215.152 128.552C215.284 128.384 215.392 128.186 215.476 127.958C215.572 127.73 215.638 127.502 215.674 127.274C215.722 127.034 215.764 126.848 215.8 126.716C215.872 126.368 215.95 125.984 216.034 125.564C216.13 125.132 216.22 124.688 216.304 124.232C216.4 123.764 216.49 123.29 216.574 122.81C216.67 122.33 216.76 121.862 216.844 121.406C217.048 120.35 217.246 119.258 217.438 118.13L220.174 117.95C220.174 117.95 220.144 118.106 220.084 118.418C220.024 118.73 219.946 119.144 219.85 119.66C219.754 120.176 219.646 120.764 219.526 121.424C219.418 122.084 219.292 122.774 219.148 123.494C219.004 124.202 218.86 124.904 218.716 125.6C218.584 126.284 218.452 126.914 218.32 127.49ZM222.549 126.734C222.201 126.734 221.853 126.746 221.505 126.77C221.157 126.794 220.809 126.818 220.461 126.842C220.833 125.366 221.193 123.896 221.541 122.432C221.901 120.968 222.273 119.498 222.657 118.022C222.885 117.986 223.143 117.95 223.431 117.914C223.731 117.878 224.031 117.836 224.331 117.788C224.631 117.74 224.919 117.698 225.195 117.662C225.483 117.626 225.723 117.59 225.915 117.554C225.267 119.066 224.673 120.59 224.133 122.126C223.605 123.65 223.077 125.186 222.549 126.734ZM222.729 129.56C222.729 129.788 222.675 130.016 222.567 130.244C222.471 130.472 222.327 130.676 222.135 130.856C221.943 131.024 221.703 131.156 221.415 131.252C221.127 131.36 220.797 131.414 220.425 131.414C220.173 131.414 219.945 131.366 219.741 131.27C219.537 131.174 219.369 131.048 219.237 130.892C219.117 130.724 219.021 130.538 218.949 130.334C218.877 130.13 218.841 129.926 218.841 129.722C218.841 129.494 218.877 129.278 218.949 129.074C219.021 128.858 219.129 128.672 219.273 128.516C219.429 128.348 219.615 128.21 219.831 128.102C220.059 127.994 220.329 127.94 220.641 127.94C221.337 127.94 221.859 128.108 222.207 128.444C222.555 128.768 222.729 129.14 222.729 129.56Z" fill="#444444"/>
</svg>
