<svg width="512" height="512" viewBox="0 0 512 512" fill="none" xmlns="http://www.w3.org/2000/svg">
<path d="M256 211C231.186 211 211 231.186 211 256C211 280.814 231.186 301 256 301C280.814 301 301 280.814 301 256C301 231.186 280.814 211 256 211Z" fill="#444444"/>
<path d="M256 0C115.39 0 0 115.39 0 256C0 396.61 115.39 512 256 512C396.61 512 512 396.61 512 256C512 115.39 396.61 0 256 0ZM421 271C421 304.091 394.091 331 361 331C340.727 331 322.848 320.839 311.983 305.404C298.23 320.971 278.354 331 256 331C214.647 331 181 297.353 181 256C181 214.647 214.647 181 256 181C272.948 181 288.426 186.865 301 196.383V196H331V256C331 261.136 330.471 266.151 329.482 271H331C331 287.538 344.462 301 361 301C377.538 301 391 287.538 391 271V256C391 181.557 330.443 121 256 121C181.557 121 121 181.557 121 256C121 330.443 181.557 391 256 391C286 391 314.374 381.391 338.061 363.197L356.342 386.986C327.353 409.237 292.665 421 256 421C165.019 421 91 346.981 91 256C91 165.019 165.019 91 256 91C346.981 91 421 165.019 421 256V271Z" fill="#444444"/>
</svg>
