<svg width="352" height="222" viewBox="0 0 352 222" fill="none" xmlns="http://www.w3.org/2000/svg">
<g filter="url(#filter0_d)">
<path d="M183.83 209.925C183.087 209.82 180.876 209.519 178.916 209.255C169.34 207.962 158.404 203.359 149.36 196.815C143.854 192.83 133.139 181.81 133.139 180.132C133.139 179.873 134.108 178.462 135.292 176.997C139.602 171.668 143.515 163.333 144.163 158.103C144.382 156.337 144.252 156.535 143.124 159.674C140.222 167.762 136.592 173.633 131.163 179.018C121.99 188.118 111.175 192.47 97.9926 192.368C92.9967 192.329 91.1361 192.115 87.5818 191.171C79.0984 188.917 72.3002 185.062 66.2686 179.085C57.5524 170.448 52.7651 159.467 52.4457 147.377L52.3465 143.612L56.9193 142.121C60.8958 140.825 65.5503 138.641 65.5503 138.072C65.5503 137.969 64.7901 138.216 63.8606 138.619C54.2078 142.813 45.1086 143.333 36.0189 140.211C24.2763 136.178 16.1669 127.328 12.9867 115.077C11.9934 111.252 11.8848 110.084 12.081 105.342C12.247 101.325 12.5853 99.0754 13.41 96.5047C16.5196 86.8098 23.3451 78.9206 32.3532 74.6091C35.4691 73.1177 40.5599 71.44 41.9691 71.44C42.1869 71.44 42.6175 72.7685 42.9268 74.3925C43.236 76.0166 44.003 78.2898 44.6318 79.4443C45.2602 80.5985 45.6481 81.1389 45.4935 80.645C42.8165 72.1034 43.6553 63.7464 47.8738 56.9337C52.1018 50.1056 61.3412 44.9626 69.3803 44.9626C75.006 44.9626 82.3249 47.9168 86.6999 51.9532C90.2112 55.1927 92.3698 58.5133 94.2225 63.5246C95.2744 66.3704 95.6591 67.0741 95.4814 65.8269C94.6816 60.2133 92.6475 55.9654 88.4252 51.0906L86.1621 48.4779L86.3937 42.5589C86.5763 37.9327 86.8894 35.7575 87.8323 32.5988C94.5441 10.1163 117.039 -2.41048 140.216 3.42773C153.688 6.82125 165.29 16.5531 171.442 29.6195C172.27 31.3781 173.025 32.7398 173.119 32.6455C173.454 32.3125 170.519 25.3304 168.962 22.7537C168.094 21.3171 167.384 19.9917 167.384 19.8083C167.384 19.2531 171.478 15.6345 174.65 13.3862C178.773 10.4644 187.079 6.61145 191.941 5.3659C197.561 3.92602 207.334 3.92644 212.642 5.3659C232.011 10.6212 242.406 28.932 236.237 46.9274C235.721 48.4308 234.913 50.4691 234.44 51.457C233.757 52.8853 233.733 53.0691 234.324 52.3552C235.827 50.5422 238.145 45.1041 238.892 41.6373C239.66 38.0779 239.663 38.0729 242.354 36.0986C248.255 31.7699 254.692 28.9726 261.84 27.6313C266.654 26.7277 275.645 26.9506 279.755 28.0754C287.074 30.079 293.873 33.8062 299.128 38.6968C303.528 42.7916 306.271 46.4444 308.71 51.457C314.466 63.283 314.774 75.7779 309.624 88.4804C308.978 90.0735 308.519 91.4457 308.603 91.5297C308.899 91.8252 312.443 84.2082 313.013 82.0493L313.591 79.8624L318.101 80.0979C323.619 80.3864 326.888 81.2238 331.743 83.5923C340.445 87.8373 346.816 95.7625 349.226 105.34C350.25 109.409 350.259 116.411 349.247 120.608C347.097 129.509 340.846 137.442 332.565 141.779C327.843 144.252 324.606 145.107 318.868 145.398C311.913 145.751 307.573 144.829 301.352 141.679C298.796 140.385 296.706 139.379 296.706 139.444C296.706 139.797 302.388 143.456 304.127 144.222C305.25 144.717 306.168 145.293 306.168 145.502C306.168 146.644 304.055 152.498 302.56 155.496C296.857 166.937 287.231 174.736 274.554 178.185C270.91 179.177 260.414 179.27 256.152 178.349C251.153 177.268 241.734 173.442 241.734 172.492C241.734 172.266 242.059 170.603 242.457 168.796C243.278 165.07 243.459 154.615 242.759 151.367C242.4 149.697 242.318 150.439 242.292 155.633C242.255 162.911 241.774 166.643 240.156 172.205C233.814 194.015 214.096 209.028 190.634 209.91C187.637 210.023 184.576 210.029 183.833 209.931L183.83 209.925ZM144.676 154.632C144.526 154.483 144.42 154.747 144.439 155.221C144.46 155.745 144.567 155.851 144.712 155.493C144.841 155.169 144.825 154.781 144.675 154.632L144.676 154.632Z" fill="white" stroke="#444444" stroke-width="4" stroke-linecap="round" stroke-linejoin="round"/>
<path d="M132.007 94.018L134.365 81.22L140.053 80.734C139.969 80.998 139.897 81.268 139.837 81.544C139.777 81.772 139.717 82.012 139.657 82.264C139.609 82.504 139.567 82.72 139.531 82.912C139.411 82.924 139.237 82.936 139.009 82.948C138.793 82.948 138.559 82.954 138.307 82.966C138.055 82.966 137.797 82.966 137.533 82.966C137.281 82.966 137.059 82.966 136.867 82.966L136.237 86.188C136.609 86.164 136.957 86.146 137.281 86.134C137.545 86.122 137.815 86.116 138.091 86.116C138.367 86.116 138.571 86.11 138.703 86.098C138.655 86.434 138.607 86.764 138.559 87.088C138.523 87.412 138.475 87.742 138.415 88.078C138.295 88.09 138.097 88.102 137.821 88.114C137.557 88.114 137.287 88.12 137.011 88.132C136.699 88.144 136.357 88.156 135.985 88.168L135.373 91.48L138.001 91.066L137.821 93.118L132.007 94.018ZM137.998 93.892C138.526 92.296 139.03 90.73 139.51 89.194C139.714 88.546 139.924 87.868 140.14 87.16C140.356 86.452 140.572 85.75 140.788 85.054C141.004 84.358 141.202 83.686 141.382 83.038C141.574 82.39 141.742 81.79 141.886 81.238C142.546 81.238 143.17 81.202 143.758 81.13C144.346 81.058 144.982 80.992 145.666 80.932C145.63 81.196 145.588 81.496 145.54 81.832C145.504 82.156 145.456 82.498 145.396 82.858C145.348 83.218 145.294 83.59 145.234 83.974C145.174 84.358 145.102 84.85 145.018 85.45C144.934 86.05 144.82 86.8 144.676 87.7H144.91C145.258 86.788 145.546 86.032 145.774 85.432C146.002 84.82 146.188 84.322 146.332 83.938C146.476 83.554 146.62 83.182 146.764 82.822C146.92 82.45 147.064 82.102 147.196 81.778C147.34 81.442 147.472 81.148 147.592 80.896C147.892 80.872 148.174 80.842 148.438 80.806C148.702 80.77 148.966 80.734 149.23 80.698C149.494 80.65 149.758 80.608 150.022 80.572C150.298 80.524 150.598 80.47 150.922 80.41C150.802 81.106 150.688 81.82 150.58 82.552C150.472 83.284 150.376 84.016 150.292 84.748C150.208 85.468 150.124 86.182 150.04 86.89C149.968 87.598 149.902 88.27 149.842 88.906C149.698 90.394 149.572 91.846 149.464 93.262L146.332 93.82C146.332 93.76 146.338 93.598 146.35 93.334C146.374 93.07 146.398 92.746 146.422 92.362C146.458 91.978 146.5 91.552 146.548 91.084C146.608 90.616 146.662 90.148 146.71 89.68C146.77 89.212 146.83 88.762 146.89 88.33C146.95 87.886 147.01 87.508 147.07 87.196H146.908C146.74 87.7 146.554 88.234 146.35 88.798C146.146 89.35 145.936 89.914 145.72 90.49C145.516 91.066 145.312 91.63 145.108 92.182C144.904 92.734 144.724 93.262 144.568 93.766C144.148 93.778 143.788 93.796 143.488 93.82C143.188 93.832 142.84 93.85 142.444 93.874L143.02 87.196H142.75C142.726 87.352 142.666 87.616 142.57 87.988C142.474 88.348 142.36 88.768 142.228 89.248C142.108 89.716 141.976 90.208 141.832 90.724C141.688 91.228 141.55 91.702 141.418 92.146C141.298 92.578 141.196 92.938 141.112 93.226C141.028 93.502 140.98 93.658 140.968 93.694L137.998 93.892ZM156.846 93.64C156.546 93.688 156.216 93.742 155.856 93.802C155.496 93.862 155.172 93.916 154.884 93.964C154.932 93.568 154.98 93.178 155.028 92.794C155.064 92.458 155.094 92.122 155.118 91.786C155.154 91.45 155.184 91.162 155.208 90.922H153.642L152.922 93.514C152.658 93.55 152.346 93.592 151.986 93.64C151.626 93.676 151.29 93.712 150.978 93.748C150.594 93.796 150.216 93.844 149.844 93.892C150.324 92.296 150.798 90.724 151.266 89.176C151.458 88.528 151.656 87.85 151.86 87.142C152.076 86.434 152.286 85.732 152.49 85.036C152.706 84.328 152.91 83.65 153.102 83.002C153.294 82.354 153.462 81.76 153.606 81.22C154.422 81.16 155.25 81.088 156.09 81.004C156.942 80.92 157.77 80.806 158.574 80.662C158.538 81.046 158.496 81.526 158.448 82.102C158.412 82.666 158.376 83.284 158.34 83.956C158.304 84.628 158.268 85.33 158.232 86.062C158.196 86.794 158.16 87.514 158.124 88.222C158.064 89.878 157.998 91.636 157.926 93.496C157.566 93.556 157.206 93.604 156.846 93.64ZM154.074 89.122C154.122 89.122 154.206 89.122 154.326 89.122C154.458 89.11 154.59 89.104 154.722 89.104C154.866 89.092 154.998 89.086 155.118 89.086C155.238 89.074 155.322 89.062 155.37 89.05C155.37 88.978 155.376 88.858 155.388 88.69C155.412 88.51 155.43 88.312 155.442 88.096C155.466 87.868 155.49 87.622 155.514 87.358C155.538 87.094 155.562 86.836 155.586 86.584C155.634 85.972 155.694 85.312 155.766 84.604L155.874 83.038L155.604 83.056L155.19 84.604L154.074 89.122ZM161.609 93.64C161.501 93.64 161.285 93.658 160.961 93.694C160.649 93.718 160.325 93.754 159.989 93.802C159.653 93.838 159.347 93.874 159.071 93.91C158.807 93.946 158.663 93.97 158.639 93.982C158.759 93.466 158.879 92.896 158.999 92.272C159.131 91.636 159.263 90.976 159.395 90.292C159.527 89.596 159.653 88.894 159.773 88.186C159.893 87.478 160.007 86.794 160.115 86.134C160.367 84.598 160.619 83.02 160.871 81.4L163.679 80.95C163.403 82.558 163.133 84.136 162.869 85.684C162.761 86.344 162.647 87.028 162.527 87.736C162.419 88.444 162.305 89.146 162.185 89.842C162.077 90.538 161.975 91.216 161.879 91.876C161.783 92.524 161.693 93.112 161.609 93.64ZM167.696 93.424C167.324 93.424 166.928 93.436 166.508 93.46C166.1 93.484 165.686 93.52 165.266 93.568C164.846 93.616 164.432 93.682 164.024 93.766C163.628 93.838 163.268 93.928 162.944 94.036C163.016 93.496 163.1 92.896 163.196 92.236C163.292 91.576 163.4 90.892 163.52 90.184C163.652 89.476 163.778 88.762 163.898 88.042C164.03 87.322 164.162 86.632 164.294 85.972C164.594 84.4 164.912 82.798 165.248 81.166L168.398 80.752C168.074 82.144 167.762 83.5 167.462 84.82C167.33 85.384 167.198 85.972 167.066 86.584C166.934 87.184 166.808 87.772 166.688 88.348C166.568 88.924 166.46 89.482 166.364 90.022C166.268 90.562 166.19 91.042 166.13 91.462C166.43 91.438 166.748 91.426 167.084 91.426C167.432 91.414 167.738 91.408 168.002 91.408C168.014 91.636 168.032 91.864 168.056 92.092C168.08 92.308 168.104 92.506 168.128 92.686C168.164 92.866 168.188 93.028 168.2 93.172C168.224 93.304 168.242 93.394 168.254 93.442C168.158 93.442 168.062 93.442 167.966 93.442C167.882 93.43 167.792 93.424 167.696 93.424ZM180.729 89.554C180.729 90.226 180.597 90.838 180.333 91.39C180.081 91.93 179.733 92.398 179.289 92.794C178.857 93.19 178.341 93.496 177.741 93.712C177.153 93.928 176.517 94.036 175.833 94.036C175.353 94.036 174.873 93.91 174.393 93.658C173.913 93.394 173.451 92.98 173.007 92.416L174.339 89.806C174.423 89.962 174.549 90.124 174.717 90.292C174.885 90.448 175.071 90.586 175.275 90.706C175.491 90.826 175.701 90.928 175.905 91.012C176.121 91.084 176.313 91.12 176.481 91.12C176.625 91.12 176.775 91.096 176.931 91.048C177.087 91 177.231 90.928 177.363 90.832C177.495 90.736 177.597 90.628 177.669 90.508C177.753 90.376 177.795 90.226 177.795 90.058C177.795 89.77 177.699 89.506 177.507 89.266C177.327 89.014 177.099 88.78 176.823 88.564C176.547 88.336 176.247 88.108 175.923 87.88C175.599 87.652 175.299 87.412 175.023 87.16C174.759 86.908 174.531 86.626 174.339 86.314C174.147 86.002 174.051 85.654 174.051 85.27C174.051 84.646 174.237 84.064 174.609 83.524C174.981 82.984 175.443 82.522 175.995 82.138C176.559 81.742 177.171 81.43 177.831 81.202C178.491 80.974 179.115 80.86 179.703 80.86C180.027 80.86 180.333 80.902 180.621 80.986C180.909 81.058 181.155 81.184 181.359 81.364C181.575 81.532 181.743 81.748 181.863 82.012C181.995 82.276 182.061 82.606 182.061 83.002C182.061 83.17 182.043 83.338 182.007 83.506C181.983 83.674 181.959 83.854 181.935 84.046L179.325 84.802C179.349 84.706 179.367 84.61 179.379 84.514C179.403 84.418 179.415 84.322 179.415 84.226C179.415 83.866 179.349 83.608 179.217 83.452C179.097 83.284 178.935 83.2 178.731 83.2C178.635 83.2 178.515 83.236 178.371 83.308C178.239 83.38 178.101 83.476 177.957 83.596C177.825 83.704 177.711 83.836 177.615 83.992C177.519 84.148 177.471 84.316 177.471 84.496C177.471 84.784 177.549 85.024 177.705 85.216C177.873 85.408 178.077 85.588 178.317 85.756C178.557 85.924 178.815 86.098 179.091 86.278C179.379 86.446 179.643 86.668 179.883 86.944C180.123 87.22 180.321 87.568 180.477 87.988C180.645 88.396 180.729 88.918 180.729 89.554ZM181.174 94.018L183.532 81.22L189.22 80.734C189.136 80.998 189.064 81.268 189.004 81.544C188.944 81.772 188.884 82.012 188.824 82.264C188.776 82.504 188.734 82.72 188.698 82.912C188.578 82.924 188.404 82.936 188.176 82.948C187.96 82.948 187.726 82.954 187.474 82.966C187.222 82.966 186.964 82.966 186.7 82.966C186.448 82.966 186.226 82.966 186.034 82.966L185.404 86.188C185.776 86.164 186.124 86.146 186.448 86.134C186.712 86.122 186.982 86.116 187.258 86.116C187.534 86.116 187.738 86.11 187.87 86.098C187.822 86.434 187.774 86.764 187.726 87.088C187.69 87.412 187.642 87.742 187.582 88.078C187.462 88.09 187.264 88.102 186.988 88.114C186.724 88.114 186.454 88.12 186.178 88.132C185.866 88.144 185.524 88.156 185.152 88.168L184.54 91.48L187.168 91.066L186.988 93.118L181.174 94.018ZM187.795 94.09C188.155 92.362 188.497 90.688 188.821 89.068C188.941 88.372 189.067 87.652 189.199 86.908C189.343 86.164 189.475 85.432 189.595 84.712C189.715 83.98 189.823 83.284 189.919 82.624C190.015 81.952 190.087 81.346 190.135 80.806C190.291 80.818 190.423 80.824 190.531 80.824C190.639 80.824 190.765 80.824 190.909 80.824C191.077 80.824 191.281 80.824 191.521 80.824C191.761 80.812 192.001 80.8 192.241 80.788C192.481 80.776 192.739 80.764 193.015 80.752C193.183 81.592 193.333 82.402 193.465 83.182C193.597 83.866 193.729 84.568 193.861 85.288C194.005 86.008 194.131 86.62 194.239 87.124C194.287 86.884 194.341 86.608 194.401 86.296C194.461 85.972 194.527 85.636 194.599 85.288C194.671 84.94 194.737 84.592 194.797 84.244C194.869 83.884 194.941 83.53 195.013 83.182C195.181 82.402 195.355 81.598 195.535 80.77L197.731 80.5C197.323 82.336 196.963 84.076 196.651 85.72C196.507 86.428 196.363 87.148 196.219 87.88C196.087 88.6 195.961 89.296 195.841 89.968C195.721 90.628 195.619 91.246 195.535 91.822C195.451 92.386 195.385 92.86 195.337 93.244C195.301 93.244 195.157 93.274 194.905 93.334C194.665 93.382 194.383 93.442 194.059 93.514C193.747 93.586 193.429 93.658 193.105 93.73C192.793 93.802 192.559 93.868 192.403 93.928C192.331 92.968 192.253 92.056 192.169 91.192C192.133 90.82 192.091 90.442 192.043 90.058C192.007 89.662 191.965 89.284 191.917 88.924C191.869 88.564 191.821 88.228 191.773 87.916C191.725 87.604 191.677 87.334 191.629 87.106C191.593 87.334 191.545 87.598 191.485 87.898C191.425 88.198 191.365 88.516 191.305 88.852C191.245 89.188 191.185 89.542 191.125 89.914C191.065 90.274 190.999 90.622 190.927 90.958C190.771 91.762 190.603 92.602 190.423 93.478L187.795 94.09ZM205.545 84.802C205.545 85.426 205.455 86.092 205.275 86.8C205.095 87.496 204.843 88.192 204.519 88.888C204.195 89.572 203.793 90.232 203.313 90.868C202.845 91.492 202.311 92.044 201.711 92.524C201.111 92.992 200.451 93.37 199.731 93.658C199.023 93.946 198.267 94.09 197.463 94.09C197.295 94.09 197.127 94.078 196.959 94.054C196.791 94.042 196.623 94.024 196.455 94C196.779 92.344 197.097 90.73 197.409 89.158C197.529 88.498 197.655 87.814 197.787 87.106C197.919 86.386 198.045 85.678 198.165 84.982C198.285 84.286 198.399 83.62 198.507 82.984C198.627 82.348 198.723 81.772 198.795 81.256C199.311 81.16 199.833 81.07 200.361 80.986C200.889 80.902 201.429 80.86 201.981 80.86C202.629 80.86 203.175 80.962 203.619 81.166C204.075 81.37 204.441 81.652 204.717 82.012C205.005 82.372 205.215 82.792 205.347 83.272C205.479 83.752 205.545 84.262 205.545 84.802ZM201.297 83.398C201.165 84.106 201.027 84.784 200.883 85.432C200.739 86.08 200.595 86.734 200.451 87.394C200.307 88.054 200.163 88.744 200.019 89.464C199.875 90.184 199.737 90.97 199.605 91.822C199.893 91.63 200.169 91.372 200.433 91.048C200.709 90.712 200.967 90.328 201.207 89.896C201.447 89.464 201.663 89.008 201.855 88.528C202.059 88.048 202.233 87.58 202.377 87.124C202.521 86.668 202.629 86.242 202.701 85.846C202.785 85.45 202.827 85.108 202.827 84.82C202.827 84.376 202.701 84.028 202.449 83.776C202.209 83.524 201.825 83.398 201.297 83.398ZM204.257 95.998C204.353 95.518 204.455 95.026 204.563 94.522C204.671 94.03 204.773 93.556 204.869 93.1C204.965 92.632 205.049 92.2 205.121 91.804C205.205 91.408 205.265 91.06 205.301 90.76C205.397 90.76 205.547 90.766 205.751 90.778C205.967 90.778 206.129 90.778 206.237 90.778C206.405 90.778 206.621 90.778 206.885 90.778C207.161 90.778 207.431 90.772 207.695 90.76C207.971 90.748 208.259 90.736 208.559 90.724C208.463 91.168 208.331 91.696 208.163 92.308C208.007 92.908 207.839 93.508 207.659 94.108C207.479 94.708 207.287 95.338 207.083 95.998H204.257ZM216.075 93.64C215.967 93.64 215.751 93.658 215.427 93.694C215.115 93.718 214.791 93.754 214.455 93.802C214.119 93.838 213.813 93.874 213.537 93.91C213.273 93.946 213.129 93.97 213.105 93.982C213.225 93.466 213.345 92.896 213.465 92.272C213.597 91.636 213.729 90.976 213.861 90.292C213.993 89.596 214.119 88.894 214.239 88.186C214.359 87.478 214.473 86.794 214.581 86.134C214.833 84.598 215.085 83.02 215.337 81.4L218.145 80.95C217.869 82.558 217.599 84.136 217.335 85.684C217.227 86.344 217.113 87.028 216.993 87.736C216.885 88.444 216.771 89.146 216.651 89.842C216.543 90.538 216.441 91.216 216.345 91.876C216.249 92.524 216.159 93.112 216.075 93.64ZM222.162 93.424C221.79 93.424 221.394 93.436 220.974 93.46C220.566 93.484 220.152 93.52 219.732 93.568C219.312 93.616 218.898 93.682 218.49 93.766C218.094 93.838 217.734 93.928 217.41 94.036C217.482 93.496 217.566 92.896 217.662 92.236C217.758 91.576 217.866 90.892 217.986 90.184C218.118 89.476 218.244 88.762 218.364 88.042C218.496 87.322 218.628 86.632 218.76 85.972C219.06 84.4 219.378 82.798 219.714 81.166L222.864 80.752C222.54 82.144 222.228 83.5 221.928 84.82C221.796 85.384 221.664 85.972 221.532 86.584C221.4 87.184 221.274 87.772 221.154 88.348C221.034 88.924 220.926 89.482 220.83 90.022C220.734 90.562 220.656 91.042 220.596 91.462C220.896 91.438 221.214 91.426 221.55 91.426C221.898 91.414 222.204 91.408 222.468 91.408C222.48 91.636 222.498 91.864 222.522 92.092C222.546 92.308 222.57 92.506 222.594 92.686C222.63 92.866 222.654 93.028 222.666 93.172C222.69 93.304 222.708 93.394 222.72 93.442C222.624 93.442 222.528 93.442 222.432 93.442C222.348 93.43 222.258 93.424 222.162 93.424ZM228.133 93.424C227.761 93.424 227.365 93.436 226.945 93.46C226.537 93.484 226.123 93.52 225.703 93.568C225.283 93.616 224.869 93.682 224.461 93.766C224.065 93.838 223.705 93.928 223.381 94.036C223.453 93.496 223.537 92.896 223.633 92.236C223.729 91.576 223.837 90.892 223.957 90.184C224.089 89.476 224.215 88.762 224.335 88.042C224.467 87.322 224.599 86.632 224.731 85.972C225.031 84.4 225.349 82.798 225.685 81.166L228.835 80.752C228.511 82.144 228.199 83.5 227.899 84.82C227.767 85.384 227.635 85.972 227.503 86.584C227.371 87.184 227.245 87.772 227.125 88.348C227.005 88.924 226.897 89.482 226.801 90.022C226.705 90.562 226.627 91.042 226.567 91.462C226.867 91.438 227.185 91.426 227.521 91.426C227.869 91.414 228.175 91.408 228.439 91.408C228.451 91.636 228.469 91.864 228.493 92.092C228.517 92.308 228.541 92.506 228.565 92.686C228.601 92.866 228.625 93.028 228.637 93.172C228.661 93.304 228.679 93.394 228.691 93.442C228.595 93.442 228.499 93.442 228.403 93.442C228.319 93.43 228.229 93.424 228.133 93.424ZM107.162 113.018C107.486 111.422 107.798 109.862 108.098 108.338C108.206 107.69 108.326 107.018 108.458 106.322C108.59 105.614 108.71 104.918 108.818 104.234C108.938 103.538 109.046 102.872 109.142 102.236C109.25 101.588 109.334 101 109.394 100.472C110.078 100.256 110.816 100.1 111.608 100.004C112.4 99.896 113.186 99.842 113.966 99.842C114.434 99.842 114.818 99.896 115.118 100.004C115.43 100.112 115.67 100.268 115.838 100.472C116.018 100.664 116.144 100.892 116.216 101.156C116.288 101.42 116.324 101.714 116.324 102.038C116.324 102.518 116.24 102.992 116.072 103.46C115.904 103.916 115.676 104.354 115.388 104.774C115.112 105.182 114.788 105.56 114.416 105.908C114.056 106.244 113.666 106.52 113.246 106.736C113.462 107.216 113.69 107.744 113.93 108.32C114.182 108.884 114.416 109.424 114.632 109.94C114.872 110.54 115.118 111.14 115.37 111.74L112.58 112.712C112.34 111.944 112.124 111.224 111.932 110.552C111.848 110.276 111.764 109.994 111.68 109.706C111.596 109.406 111.518 109.124 111.446 108.86C111.374 108.596 111.314 108.362 111.266 108.158C111.218 107.942 111.188 107.768 111.176 107.636L110.942 107.708C110.87 108.092 110.78 108.542 110.672 109.058C110.576 109.574 110.486 110.072 110.402 110.552C110.294 111.116 110.186 111.686 110.078 112.262L107.162 113.018ZM111.392 105.206C111.62 105.182 111.896 105.086 112.22 104.918C112.556 104.75 112.874 104.552 113.174 104.324C113.474 104.084 113.732 103.838 113.948 103.586C114.164 103.334 114.272 103.112 114.272 102.92C114.272 102.788 114.23 102.686 114.146 102.614C114.062 102.53 113.942 102.47 113.786 102.434C113.642 102.386 113.48 102.356 113.3 102.344C113.12 102.332 112.934 102.326 112.742 102.326C112.61 102.326 112.472 102.332 112.328 102.344C112.196 102.344 112.076 102.344 111.968 102.344L111.392 105.206ZM115.772 113.018L118.13 100.22L123.818 99.734C123.734 99.998 123.662 100.268 123.602 100.544C123.542 100.772 123.482 101.012 123.422 101.264C123.374 101.504 123.332 101.72 123.296 101.912C123.176 101.924 123.002 101.936 122.774 101.948C122.558 101.948 122.324 101.954 122.072 101.966C121.82 101.966 121.562 101.966 121.298 101.966C121.046 101.966 120.824 101.966 120.632 101.966L120.002 105.188C120.374 105.164 120.722 105.146 121.046 105.134C121.31 105.122 121.58 105.116 121.856 105.116C122.132 105.116 122.336 105.11 122.468 105.098C122.42 105.434 122.372 105.764 122.324 106.088C122.288 106.412 122.24 106.742 122.18 107.078C122.06 107.09 121.862 107.102 121.586 107.114C121.322 107.114 121.052 107.12 120.776 107.132C120.464 107.144 120.122 107.156 119.75 107.168L119.138 110.48L121.766 110.066L121.586 112.118L115.772 113.018ZM130.277 108.554C130.277 109.226 130.145 109.838 129.881 110.39C129.629 110.93 129.281 111.398 128.837 111.794C128.405 112.19 127.889 112.496 127.289 112.712C126.701 112.928 126.065 113.036 125.381 113.036C124.901 113.036 124.421 112.91 123.941 112.658C123.461 112.394 122.999 111.98 122.555 111.416L123.887 108.806C123.971 108.962 124.097 109.124 124.265 109.292C124.433 109.448 124.619 109.586 124.823 109.706C125.039 109.826 125.249 109.928 125.453 110.012C125.669 110.084 125.861 110.12 126.029 110.12C126.173 110.12 126.323 110.096 126.479 110.048C126.635 110 126.779 109.928 126.911 109.832C127.043 109.736 127.145 109.628 127.217 109.508C127.301 109.376 127.343 109.226 127.343 109.058C127.343 108.77 127.247 108.506 127.055 108.266C126.875 108.014 126.647 107.78 126.371 107.564C126.095 107.336 125.795 107.108 125.471 106.88C125.147 106.652 124.847 106.412 124.571 106.16C124.307 105.908 124.079 105.626 123.887 105.314C123.695 105.002 123.599 104.654 123.599 104.27C123.599 103.646 123.785 103.064 124.157 102.524C124.529 101.984 124.991 101.522 125.543 101.138C126.107 100.742 126.719 100.43 127.379 100.202C128.039 99.974 128.663 99.86 129.251 99.86C129.575 99.86 129.881 99.902 130.169 99.986C130.457 100.058 130.703 100.184 130.907 100.364C131.123 100.532 131.291 100.748 131.411 101.012C131.543 101.276 131.609 101.606 131.609 102.002C131.609 102.17 131.591 102.338 131.555 102.506C131.531 102.674 131.507 102.854 131.483 103.046L128.873 103.802C128.897 103.706 128.915 103.61 128.927 103.514C128.951 103.418 128.963 103.322 128.963 103.226C128.963 102.866 128.897 102.608 128.765 102.452C128.645 102.284 128.483 102.2 128.279 102.2C128.183 102.2 128.063 102.236 127.919 102.308C127.787 102.38 127.649 102.476 127.505 102.596C127.373 102.704 127.259 102.836 127.163 102.992C127.067 103.148 127.019 103.316 127.019 103.496C127.019 103.784 127.097 104.024 127.253 104.216C127.421 104.408 127.625 104.588 127.865 104.756C128.105 104.924 128.363 105.098 128.639 105.278C128.927 105.446 129.191 105.668 129.431 105.944C129.671 106.22 129.869 106.568 130.025 106.988C130.193 107.396 130.277 107.918 130.277 108.554ZM130.523 113.018C130.883 111.398 131.225 109.814 131.549 108.266C131.681 107.618 131.819 106.934 131.963 106.214C132.107 105.494 132.245 104.786 132.377 104.09C132.509 103.394 132.635 102.722 132.755 102.074C132.875 101.426 132.977 100.832 133.061 100.292C133.409 100.184 133.751 100.094 134.087 100.022C134.423 99.938 134.765 99.866 135.113 99.806C135.473 99.746 135.809 99.716 136.121 99.716C136.661 99.716 137.111 99.806 137.471 99.986C137.843 100.166 138.143 100.412 138.371 100.724C138.599 101.024 138.761 101.378 138.857 101.786C138.953 102.194 139.001 102.632 139.001 103.1C139.001 103.772 138.875 104.42 138.623 105.044C138.383 105.668 138.053 106.226 137.633 106.718C137.225 107.198 136.751 107.582 136.211 107.87C135.683 108.158 135.131 108.302 134.555 108.302H134.357C134.261 108.71 134.171 109.154 134.087 109.634C134.003 110.114 133.931 110.558 133.871 110.966C133.787 111.446 133.709 111.926 133.637 112.406L130.523 113.018ZM135.545 101.894C135.413 102.686 135.281 103.436 135.149 104.144C135.017 104.852 134.873 105.608 134.717 106.412C134.909 106.364 135.107 106.256 135.311 106.088C135.527 105.908 135.725 105.68 135.905 105.404C136.085 105.116 136.229 104.786 136.337 104.414C136.445 104.042 136.499 103.652 136.499 103.244C136.499 102.8 136.397 102.464 136.193 102.236C136.001 102.008 135.785 101.894 135.545 101.894ZM148.018 103.262C148.018 104.246 147.91 105.176 147.694 106.052C147.49 106.916 147.214 107.714 146.866 108.446C146.518 109.166 146.11 109.814 145.642 110.39C145.186 110.954 144.706 111.44 144.202 111.848C143.698 112.244 143.188 112.55 142.672 112.766C142.156 112.97 141.664 113.072 141.196 113.072C140.8 113.072 140.44 113 140.116 112.856C139.792 112.7 139.51 112.478 139.27 112.19C139.03 111.89 138.838 111.512 138.694 111.056C138.562 110.588 138.496 110.03 138.496 109.382C138.496 108.71 138.58 108.002 138.748 107.258C138.916 106.514 139.144 105.776 139.432 105.044C139.72 104.312 140.074 103.616 140.494 102.956C140.914 102.296 141.376 101.714 141.88 101.21C142.384 100.694 142.924 100.286 143.5 99.986C144.076 99.686 144.676 99.536 145.3 99.536C145.84 99.536 146.284 99.65 146.632 99.878C146.992 100.094 147.268 100.382 147.46 100.742C147.664 101.09 147.808 101.486 147.892 101.93C147.976 102.374 148.018 102.818 148.018 103.262ZM141.178 108.914C141.178 109.046 141.202 109.184 141.25 109.328C141.298 109.472 141.364 109.598 141.448 109.706C141.532 109.814 141.634 109.91 141.754 109.994C141.886 110.066 142.024 110.102 142.168 110.102C142.708 110.102 143.188 109.916 143.608 109.544C144.028 109.172 144.376 108.716 144.652 108.176C144.928 107.636 145.138 107.06 145.282 106.448C145.438 105.836 145.516 105.278 145.516 104.774C145.516 104.63 145.504 104.474 145.48 104.306C145.468 104.138 145.432 103.982 145.372 103.838C145.324 103.694 145.24 103.574 145.12 103.478C145.012 103.37 144.862 103.316 144.67 103.316C144.286 103.316 143.932 103.412 143.608 103.604C143.284 103.796 142.99 104.054 142.726 104.378C142.474 104.69 142.252 105.05 142.06 105.458C141.868 105.854 141.7 106.262 141.556 106.682C141.424 107.09 141.328 107.492 141.268 107.888C141.208 108.284 141.178 108.626 141.178 108.914ZM147.445 113.09C147.805 111.362 148.147 109.688 148.471 108.068C148.591 107.372 148.717 106.652 148.849 105.908C148.993 105.164 149.125 104.432 149.245 103.712C149.365 102.98 149.473 102.284 149.569 101.624C149.665 100.952 149.737 100.346 149.785 99.806C149.941 99.818 150.073 99.824 150.181 99.824C150.289 99.824 150.415 99.824 150.559 99.824C150.727 99.824 150.931 99.824 151.171 99.824C151.411 99.812 151.651 99.8 151.891 99.788C152.131 99.776 152.389 99.764 152.665 99.752C152.833 100.592 152.983 101.402 153.115 102.182C153.247 102.866 153.379 103.568 153.511 104.288C153.655 105.008 153.781 105.62 153.889 106.124C153.937 105.884 153.991 105.608 154.051 105.296C154.111 104.972 154.177 104.636 154.249 104.288C154.321 103.94 154.387 103.592 154.447 103.244C154.519 102.884 154.591 102.53 154.663 102.182C154.831 101.402 155.005 100.598 155.185 99.77L157.381 99.5C156.973 101.336 156.613 103.076 156.301 104.72C156.157 105.428 156.013 106.148 155.869 106.88C155.737 107.6 155.611 108.296 155.491 108.968C155.371 109.628 155.269 110.246 155.185 110.822C155.101 111.386 155.035 111.86 154.987 112.244C154.951 112.244 154.807 112.274 154.555 112.334C154.315 112.382 154.033 112.442 153.709 112.514C153.397 112.586 153.079 112.658 152.755 112.73C152.443 112.802 152.209 112.868 152.053 112.928C151.981 111.968 151.903 111.056 151.819 110.192C151.783 109.82 151.741 109.442 151.693 109.058C151.657 108.662 151.615 108.284 151.567 107.924C151.519 107.564 151.471 107.228 151.423 106.916C151.375 106.604 151.327 106.334 151.279 106.106C151.243 106.334 151.195 106.598 151.135 106.898C151.075 107.198 151.015 107.516 150.955 107.852C150.895 108.188 150.835 108.542 150.775 108.914C150.715 109.274 150.649 109.622 150.577 109.958C150.421 110.762 150.253 111.602 150.073 112.478L147.445 113.09ZM165.195 103.802C165.195 104.426 165.105 105.092 164.925 105.8C164.745 106.496 164.493 107.192 164.169 107.888C163.845 108.572 163.443 109.232 162.963 109.868C162.495 110.492 161.961 111.044 161.361 111.524C160.761 111.992 160.101 112.37 159.381 112.658C158.673 112.946 157.917 113.09 157.113 113.09C156.945 113.09 156.777 113.078 156.609 113.054C156.441 113.042 156.273 113.024 156.105 113C156.429 111.344 156.747 109.73 157.059 108.158C157.179 107.498 157.305 106.814 157.437 106.106C157.569 105.386 157.695 104.678 157.815 103.982C157.935 103.286 158.049 102.62 158.157 101.984C158.277 101.348 158.373 100.772 158.445 100.256C158.961 100.16 159.483 100.07 160.011 99.986C160.539 99.902 161.079 99.86 161.631 99.86C162.279 99.86 162.825 99.962 163.269 100.166C163.725 100.37 164.091 100.652 164.367 101.012C164.655 101.372 164.865 101.792 164.997 102.272C165.129 102.752 165.195 103.262 165.195 103.802ZM160.947 102.398C160.815 103.106 160.677 103.784 160.533 104.432C160.389 105.08 160.245 105.734 160.101 106.394C159.957 107.054 159.813 107.744 159.669 108.464C159.525 109.184 159.387 109.97 159.255 110.822C159.543 110.63 159.819 110.372 160.083 110.048C160.359 109.712 160.617 109.328 160.857 108.896C161.097 108.464 161.313 108.008 161.505 107.528C161.709 107.048 161.883 106.58 162.027 106.124C162.171 105.668 162.279 105.242 162.351 104.846C162.435 104.45 162.477 104.108 162.477 103.82C162.477 103.376 162.351 103.028 162.099 102.776C161.859 102.524 161.475 102.398 160.947 102.398ZM175.198 112.64C174.898 112.688 174.568 112.742 174.208 112.802C173.848 112.862 173.524 112.916 173.236 112.964C173.284 112.568 173.332 112.178 173.38 111.794C173.416 111.458 173.446 111.122 173.47 110.786C173.506 110.45 173.536 110.162 173.56 109.922H171.994L171.274 112.514C171.01 112.55 170.698 112.592 170.338 112.64C169.978 112.676 169.642 112.712 169.33 112.748C168.946 112.796 168.568 112.844 168.196 112.892C168.676 111.296 169.15 109.724 169.618 108.176C169.81 107.528 170.008 106.85 170.212 106.142C170.428 105.434 170.638 104.732 170.842 104.036C171.058 103.328 171.262 102.65 171.454 102.002C171.646 101.354 171.814 100.76 171.958 100.22C172.774 100.16 173.602 100.088 174.442 100.004C175.294 99.92 176.122 99.806 176.926 99.662C176.89 100.046 176.848 100.526 176.8 101.102C176.764 101.666 176.728 102.284 176.692 102.956C176.656 103.628 176.62 104.33 176.584 105.062C176.548 105.794 176.512 106.514 176.476 107.222C176.416 108.878 176.35 110.636 176.278 112.496C175.918 112.556 175.558 112.604 175.198 112.64ZM172.426 108.122C172.474 108.122 172.558 108.122 172.678 108.122C172.81 108.11 172.942 108.104 173.074 108.104C173.218 108.092 173.35 108.086 173.47 108.086C173.59 108.074 173.674 108.062 173.722 108.05C173.722 107.978 173.728 107.858 173.74 107.69C173.764 107.51 173.782 107.312 173.794 107.096C173.818 106.868 173.842 106.622 173.866 106.358C173.89 106.094 173.914 105.836 173.938 105.584C173.986 104.972 174.046 104.312 174.118 103.604L174.226 102.038L173.956 102.056L173.542 103.604L172.426 108.122ZM184.875 108.554C184.875 109.226 184.743 109.838 184.479 110.39C184.227 110.93 183.879 111.398 183.435 111.794C183.003 112.19 182.487 112.496 181.887 112.712C181.299 112.928 180.663 113.036 179.979 113.036C179.499 113.036 179.019 112.91 178.539 112.658C178.059 112.394 177.597 111.98 177.153 111.416L178.485 108.806C178.569 108.962 178.695 109.124 178.863 109.292C179.031 109.448 179.217 109.586 179.421 109.706C179.637 109.826 179.847 109.928 180.051 110.012C180.267 110.084 180.459 110.12 180.627 110.12C180.771 110.12 180.921 110.096 181.077 110.048C181.233 110 181.377 109.928 181.509 109.832C181.641 109.736 181.743 109.628 181.815 109.508C181.899 109.376 181.941 109.226 181.941 109.058C181.941 108.77 181.845 108.506 181.653 108.266C181.473 108.014 181.245 107.78 180.969 107.564C180.693 107.336 180.393 107.108 180.069 106.88C179.745 106.652 179.445 106.412 179.169 106.16C178.905 105.908 178.677 105.626 178.485 105.314C178.293 105.002 178.197 104.654 178.197 104.27C178.197 103.646 178.383 103.064 178.755 102.524C179.127 101.984 179.589 101.522 180.141 101.138C180.705 100.742 181.317 100.43 181.977 100.202C182.637 99.974 183.261 99.86 183.849 99.86C184.173 99.86 184.479 99.902 184.767 99.986C185.055 100.058 185.301 100.184 185.505 100.364C185.721 100.532 185.889 100.748 186.009 101.012C186.141 101.276 186.207 101.606 186.207 102.002C186.207 102.17 186.189 102.338 186.153 102.506C186.129 102.674 186.105 102.854 186.081 103.046L183.471 103.802C183.495 103.706 183.513 103.61 183.525 103.514C183.549 103.418 183.561 103.322 183.561 103.226C183.561 102.866 183.495 102.608 183.363 102.452C183.243 102.284 183.081 102.2 182.877 102.2C182.781 102.2 182.661 102.236 182.517 102.308C182.385 102.38 182.247 102.476 182.103 102.596C181.971 102.704 181.857 102.836 181.761 102.992C181.665 103.148 181.617 103.316 181.617 103.496C181.617 103.784 181.695 104.024 181.851 104.216C182.019 104.408 182.223 104.588 182.463 104.756C182.703 104.924 182.961 105.098 183.237 105.278C183.525 105.446 183.789 105.668 184.029 105.944C184.269 106.22 184.467 106.568 184.623 106.988C184.791 107.396 184.875 107.918 184.875 108.554ZM197.205 108.554C197.205 109.226 197.073 109.838 196.809 110.39C196.557 110.93 196.209 111.398 195.765 111.794C195.333 112.19 194.817 112.496 194.217 112.712C193.629 112.928 192.993 113.036 192.309 113.036C191.829 113.036 191.349 112.91 190.869 112.658C190.389 112.394 189.927 111.98 189.483 111.416L190.815 108.806C190.899 108.962 191.025 109.124 191.193 109.292C191.361 109.448 191.547 109.586 191.751 109.706C191.967 109.826 192.177 109.928 192.381 110.012C192.597 110.084 192.789 110.12 192.957 110.12C193.101 110.12 193.251 110.096 193.407 110.048C193.563 110 193.707 109.928 193.839 109.832C193.971 109.736 194.073 109.628 194.145 109.508C194.229 109.376 194.271 109.226 194.271 109.058C194.271 108.77 194.175 108.506 193.983 108.266C193.803 108.014 193.575 107.78 193.299 107.564C193.023 107.336 192.723 107.108 192.399 106.88C192.075 106.652 191.775 106.412 191.499 106.16C191.235 105.908 191.007 105.626 190.815 105.314C190.623 105.002 190.527 104.654 190.527 104.27C190.527 103.646 190.713 103.064 191.085 102.524C191.457 101.984 191.919 101.522 192.471 101.138C193.035 100.742 193.647 100.43 194.307 100.202C194.967 99.974 195.591 99.86 196.179 99.86C196.503 99.86 196.809 99.902 197.097 99.986C197.385 100.058 197.631 100.184 197.835 100.364C198.051 100.532 198.219 100.748 198.339 101.012C198.471 101.276 198.537 101.606 198.537 102.002C198.537 102.17 198.519 102.338 198.483 102.506C198.459 102.674 198.435 102.854 198.411 103.046L195.801 103.802C195.825 103.706 195.843 103.61 195.855 103.514C195.879 103.418 195.891 103.322 195.891 103.226C195.891 102.866 195.825 102.608 195.693 102.452C195.573 102.284 195.411 102.2 195.207 102.2C195.111 102.2 194.991 102.236 194.847 102.308C194.715 102.38 194.577 102.476 194.433 102.596C194.301 102.704 194.187 102.836 194.091 102.992C193.995 103.148 193.947 103.316 193.947 103.496C193.947 103.784 194.025 104.024 194.181 104.216C194.349 104.408 194.553 104.588 194.793 104.756C195.033 104.924 195.291 105.098 195.567 105.278C195.855 105.446 196.119 105.668 196.359 105.944C196.599 106.22 196.797 106.568 196.953 106.988C197.121 107.396 197.205 107.918 197.205 108.554ZM207.586 103.262C207.586 104.246 207.478 105.176 207.262 106.052C207.058 106.916 206.782 107.714 206.434 108.446C206.086 109.166 205.678 109.814 205.21 110.39C204.754 110.954 204.274 111.44 203.77 111.848C203.266 112.244 202.756 112.55 202.24 112.766C201.724 112.97 201.232 113.072 200.764 113.072C200.368 113.072 200.008 113 199.684 112.856C199.36 112.7 199.078 112.478 198.838 112.19C198.598 111.89 198.406 111.512 198.262 111.056C198.13 110.588 198.064 110.03 198.064 109.382C198.064 108.71 198.148 108.002 198.316 107.258C198.484 106.514 198.712 105.776 199 105.044C199.288 104.312 199.642 103.616 200.062 102.956C200.482 102.296 200.944 101.714 201.448 101.21C201.952 100.694 202.492 100.286 203.068 99.986C203.644 99.686 204.244 99.536 204.868 99.536C205.408 99.536 205.852 99.65 206.2 99.878C206.56 100.094 206.836 100.382 207.028 100.742C207.232 101.09 207.376 101.486 207.46 101.93C207.544 102.374 207.586 102.818 207.586 103.262ZM200.746 108.914C200.746 109.046 200.77 109.184 200.818 109.328C200.866 109.472 200.932 109.598 201.016 109.706C201.1 109.814 201.202 109.91 201.322 109.994C201.454 110.066 201.592 110.102 201.736 110.102C202.276 110.102 202.756 109.916 203.176 109.544C203.596 109.172 203.944 108.716 204.22 108.176C204.496 107.636 204.706 107.06 204.85 106.448C205.006 105.836 205.084 105.278 205.084 104.774C205.084 104.63 205.072 104.474 205.048 104.306C205.036 104.138 205 103.982 204.94 103.838C204.892 103.694 204.808 103.574 204.688 103.478C204.58 103.37 204.43 103.316 204.238 103.316C203.854 103.316 203.5 103.412 203.176 103.604C202.852 103.796 202.558 104.054 202.294 104.378C202.042 104.69 201.82 105.05 201.628 105.458C201.436 105.854 201.268 106.262 201.124 106.682C200.992 107.09 200.896 107.492 200.836 107.888C200.776 108.284 200.746 108.626 200.746 108.914ZM217.003 103.262C217.003 104.246 216.895 105.176 216.679 106.052C216.475 106.916 216.199 107.714 215.851 108.446C215.503 109.166 215.095 109.814 214.627 110.39C214.171 110.954 213.691 111.44 213.187 111.848C212.683 112.244 212.173 112.55 211.657 112.766C211.141 112.97 210.649 113.072 210.181 113.072C209.785 113.072 209.425 113 209.101 112.856C208.777 112.7 208.495 112.478 208.255 112.19C208.015 111.89 207.823 111.512 207.679 111.056C207.547 110.588 207.481 110.03 207.481 109.382C207.481 108.71 207.565 108.002 207.733 107.258C207.901 106.514 208.129 105.776 208.417 105.044C208.705 104.312 209.059 103.616 209.479 102.956C209.899 102.296 210.361 101.714 210.865 101.21C211.369 100.694 211.909 100.286 212.485 99.986C213.061 99.686 213.661 99.536 214.285 99.536C214.825 99.536 215.269 99.65 215.617 99.878C215.977 100.094 216.253 100.382 216.445 100.742C216.649 101.09 216.793 101.486 216.877 101.93C216.961 102.374 217.003 102.818 217.003 103.262ZM210.163 108.914C210.163 109.046 210.187 109.184 210.235 109.328C210.283 109.472 210.349 109.598 210.433 109.706C210.517 109.814 210.619 109.91 210.739 109.994C210.871 110.066 211.009 110.102 211.153 110.102C211.693 110.102 212.173 109.916 212.593 109.544C213.013 109.172 213.361 108.716 213.637 108.176C213.913 107.636 214.123 107.06 214.267 106.448C214.423 105.836 214.501 105.278 214.501 104.774C214.501 104.63 214.489 104.474 214.465 104.306C214.453 104.138 214.417 103.982 214.357 103.838C214.309 103.694 214.225 103.574 214.105 103.478C213.997 103.37 213.847 103.316 213.655 103.316C213.271 103.316 212.917 103.412 212.593 103.604C212.269 103.796 211.975 104.054 211.711 104.378C211.459 104.69 211.237 105.05 211.045 105.458C210.853 105.854 210.685 106.262 210.541 106.682C210.409 107.09 210.313 107.492 210.253 107.888C210.193 108.284 210.163 108.626 210.163 108.914ZM216.43 113.09C216.79 111.362 217.132 109.688 217.456 108.068C217.576 107.372 217.702 106.652 217.834 105.908C217.978 105.164 218.11 104.432 218.23 103.712C218.35 102.98 218.458 102.284 218.554 101.624C218.65 100.952 218.722 100.346 218.77 99.806C218.926 99.818 219.058 99.824 219.166 99.824C219.274 99.824 219.4 99.824 219.544 99.824C219.712 99.824 219.916 99.824 220.156 99.824C220.396 99.812 220.636 99.8 220.876 99.788C221.116 99.776 221.374 99.764 221.65 99.752C221.818 100.592 221.968 101.402 222.1 102.182C222.232 102.866 222.364 103.568 222.496 104.288C222.64 105.008 222.766 105.62 222.874 106.124C222.922 105.884 222.976 105.608 223.036 105.296C223.096 104.972 223.162 104.636 223.234 104.288C223.306 103.94 223.372 103.592 223.432 103.244C223.504 102.884 223.576 102.53 223.648 102.182C223.816 101.402 223.99 100.598 224.17 99.77L226.366 99.5C225.958 101.336 225.598 103.076 225.286 104.72C225.142 105.428 224.998 106.148 224.854 106.88C224.722 107.6 224.596 108.296 224.476 108.968C224.356 109.628 224.254 110.246 224.17 110.822C224.086 111.386 224.02 111.86 223.972 112.244C223.936 112.244 223.792 112.274 223.54 112.334C223.3 112.382 223.018 112.442 222.694 112.514C222.382 112.586 222.064 112.658 221.74 112.73C221.428 112.802 221.194 112.868 221.038 112.928C220.966 111.968 220.888 111.056 220.804 110.192C220.768 109.82 220.726 109.442 220.678 109.058C220.642 108.662 220.6 108.284 220.552 107.924C220.504 107.564 220.456 107.228 220.408 106.916C220.36 106.604 220.312 106.334 220.264 106.106C220.228 106.334 220.18 106.598 220.12 106.898C220.06 107.198 220 107.516 219.94 107.852C219.88 108.188 219.82 108.542 219.76 108.914C219.7 109.274 219.634 109.622 219.562 109.958C219.406 110.762 219.238 111.602 219.058 112.478L216.43 113.09ZM235.698 112.64C235.398 112.688 235.068 112.742 234.708 112.802C234.348 112.862 234.024 112.916 233.736 112.964C233.784 112.568 233.832 112.178 233.88 111.794C233.916 111.458 233.946 111.122 233.97 110.786C234.006 110.45 234.036 110.162 234.06 109.922H232.494L231.774 112.514C231.51 112.55 231.198 112.592 230.838 112.64C230.478 112.676 230.142 112.712 229.83 112.748C229.446 112.796 229.068 112.844 228.696 112.892C229.176 111.296 229.65 109.724 230.118 108.176C230.31 107.528 230.508 106.85 230.712 106.142C230.928 105.434 231.138 104.732 231.342 104.036C231.558 103.328 231.762 102.65 231.954 102.002C232.146 101.354 232.314 100.76 232.458 100.22C233.274 100.16 234.102 100.088 234.942 100.004C235.794 99.92 236.622 99.806 237.426 99.662C237.39 100.046 237.348 100.526 237.3 101.102C237.264 101.666 237.228 102.284 237.192 102.956C237.156 103.628 237.12 104.33 237.084 105.062C237.048 105.794 237.012 106.514 236.976 107.222C236.916 108.878 236.85 110.636 236.778 112.496C236.418 112.556 236.058 112.604 235.698 112.64ZM232.926 108.122C232.974 108.122 233.058 108.122 233.178 108.122C233.31 108.11 233.442 108.104 233.574 108.104C233.718 108.092 233.85 108.086 233.97 108.086C234.09 108.074 234.174 108.062 234.222 108.05C234.222 107.978 234.228 107.858 234.24 107.69C234.264 107.51 234.282 107.312 234.294 107.096C234.318 106.868 234.342 106.622 234.366 106.358C234.39 106.094 234.414 105.836 234.438 105.584C234.486 104.972 234.546 104.312 234.618 103.604L234.726 102.038L234.456 102.056L234.042 103.604L232.926 108.122ZM245.375 108.554C245.375 109.226 245.243 109.838 244.979 110.39C244.727 110.93 244.379 111.398 243.935 111.794C243.503 112.19 242.987 112.496 242.387 112.712C241.799 112.928 241.163 113.036 240.479 113.036C239.999 113.036 239.519 112.91 239.039 112.658C238.559 112.394 238.097 111.98 237.653 111.416L238.985 108.806C239.069 108.962 239.195 109.124 239.363 109.292C239.531 109.448 239.717 109.586 239.921 109.706C240.137 109.826 240.347 109.928 240.551 110.012C240.767 110.084 240.959 110.12 241.127 110.12C241.271 110.12 241.421 110.096 241.577 110.048C241.733 110 241.877 109.928 242.009 109.832C242.141 109.736 242.243 109.628 242.315 109.508C242.399 109.376 242.441 109.226 242.441 109.058C242.441 108.77 242.345 108.506 242.153 108.266C241.973 108.014 241.745 107.78 241.469 107.564C241.193 107.336 240.893 107.108 240.569 106.88C240.245 106.652 239.945 106.412 239.669 106.16C239.405 105.908 239.177 105.626 238.985 105.314C238.793 105.002 238.697 104.654 238.697 104.27C238.697 103.646 238.883 103.064 239.255 102.524C239.627 101.984 240.089 101.522 240.641 101.138C241.205 100.742 241.817 100.43 242.477 100.202C243.137 99.974 243.761 99.86 244.349 99.86C244.673 99.86 244.979 99.902 245.267 99.986C245.555 100.058 245.801 100.184 246.005 100.364C246.221 100.532 246.389 100.748 246.509 101.012C246.641 101.276 246.707 101.606 246.707 102.002C246.707 102.17 246.689 102.338 246.653 102.506C246.629 102.674 246.605 102.854 246.581 103.046L243.971 103.802C243.995 103.706 244.013 103.61 244.025 103.514C244.049 103.418 244.061 103.322 244.061 103.226C244.061 102.866 243.995 102.608 243.863 102.452C243.743 102.284 243.581 102.2 243.377 102.2C243.281 102.2 243.161 102.236 243.017 102.308C242.885 102.38 242.747 102.476 242.603 102.596C242.471 102.704 242.357 102.836 242.261 102.992C242.165 103.148 242.117 103.316 242.117 103.496C242.117 103.784 242.195 104.024 242.351 104.216C242.519 104.408 242.723 104.588 242.963 104.756C243.203 104.924 243.461 105.098 243.737 105.278C244.025 105.446 244.289 105.668 244.529 105.944C244.769 106.22 244.967 106.568 245.123 106.988C245.291 107.396 245.375 107.918 245.375 108.554ZM252.791 112.64C252.683 112.64 252.467 112.658 252.143 112.694C251.831 112.718 251.507 112.754 251.171 112.802C250.835 112.838 250.529 112.874 250.253 112.91C249.989 112.946 249.845 112.97 249.821 112.982C249.941 112.466 250.061 111.896 250.181 111.272C250.313 110.636 250.445 109.976 250.577 109.292C250.709 108.596 250.835 107.894 250.955 107.186C251.075 106.478 251.189 105.794 251.297 105.134C251.549 103.598 251.801 102.02 252.053 100.4L254.861 99.95C254.585 101.558 254.315 103.136 254.051 104.684C253.943 105.344 253.829 106.028 253.709 106.736C253.601 107.444 253.487 108.146 253.367 108.842C253.259 109.538 253.157 110.216 253.061 110.876C252.965 111.524 252.875 112.112 252.791 112.64ZM134.045 128.13C133.757 128.79 133.433 129.366 133.073 129.858C132.725 130.338 132.353 130.746 131.957 131.082C131.573 131.406 131.183 131.646 130.787 131.802C130.391 131.958 130.007 132.036 129.635 132.036C129.263 132.036 128.921 131.952 128.609 131.784C128.309 131.616 128.045 131.364 127.817 131.028C127.589 130.692 127.403 130.278 127.259 129.786C127.127 129.294 127.061 128.718 127.061 128.058C127.061 126.93 127.217 125.82 127.529 124.728C127.841 123.624 128.279 122.634 128.843 121.758C129.407 120.882 130.073 120.18 130.841 119.652C131.621 119.112 132.479 118.842 133.415 118.842C133.703 118.842 133.979 118.902 134.243 119.022C134.507 119.142 134.735 119.31 134.927 119.526C135.119 119.742 135.269 120.006 135.377 120.318C135.497 120.63 135.557 120.978 135.557 121.362C135.557 121.434 135.557 121.512 135.557 121.596C135.557 121.668 135.551 121.746 135.539 121.83L133.181 122.46C133.037 122.16 132.869 122.01 132.677 122.01C132.485 122.01 132.281 122.124 132.065 122.352C131.861 122.568 131.657 122.856 131.453 123.216C131.249 123.564 131.051 123.96 130.859 124.404C130.667 124.836 130.499 125.274 130.355 125.718C130.211 126.162 130.091 126.588 129.995 126.996C129.911 127.392 129.869 127.716 129.869 127.968C129.869 128.352 129.917 128.622 130.013 128.778C130.121 128.934 130.259 129.012 130.427 129.012C130.559 129.012 130.709 128.964 130.877 128.868C131.045 128.76 131.201 128.628 131.345 128.472C131.489 128.304 131.621 128.118 131.741 127.914C131.861 127.71 131.945 127.506 131.993 127.302L134.045 128.13ZM140.976 131.64C140.676 131.688 140.346 131.742 139.986 131.802C139.626 131.862 139.302 131.916 139.014 131.964C139.062 131.568 139.11 131.178 139.158 130.794C139.194 130.458 139.224 130.122 139.248 129.786C139.284 129.45 139.314 129.162 139.338 128.922H137.772L137.052 131.514C136.788 131.55 136.476 131.592 136.116 131.64C135.756 131.676 135.42 131.712 135.108 131.748C134.724 131.796 134.346 131.844 133.974 131.892C134.454 130.296 134.928 128.724 135.396 127.176C135.588 126.528 135.786 125.85 135.99 125.142C136.206 124.434 136.416 123.732 136.62 123.036C136.836 122.328 137.04 121.65 137.232 121.002C137.424 120.354 137.592 119.76 137.736 119.22C138.552 119.16 139.38 119.088 140.22 119.004C141.072 118.92 141.9 118.806 142.704 118.662C142.668 119.046 142.626 119.526 142.578 120.102C142.542 120.666 142.506 121.284 142.47 121.956C142.434 122.628 142.398 123.33 142.362 124.062C142.326 124.794 142.29 125.514 142.254 126.222C142.194 127.878 142.128 129.636 142.056 131.496C141.696 131.556 141.336 131.604 140.976 131.64ZM138.204 127.122C138.252 127.122 138.336 127.122 138.456 127.122C138.588 127.11 138.72 127.104 138.852 127.104C138.996 127.092 139.128 127.086 139.248 127.086C139.368 127.074 139.452 127.062 139.5 127.05C139.5 126.978 139.506 126.858 139.518 126.69C139.542 126.51 139.56 126.312 139.572 126.096C139.596 125.868 139.62 125.622 139.644 125.358C139.668 125.094 139.692 124.836 139.716 124.584C139.764 123.972 139.824 123.312 139.896 122.604L140.004 121.038L139.734 121.056L139.32 122.604L138.204 127.122ZM142.769 132.09C143.129 130.362 143.471 128.688 143.795 127.068C143.915 126.372 144.041 125.652 144.173 124.908C144.317 124.164 144.449 123.432 144.569 122.712C144.689 121.98 144.797 121.284 144.893 120.624C144.989 119.952 145.061 119.346 145.109 118.806C145.265 118.818 145.397 118.824 145.505 118.824C145.613 118.824 145.739 118.824 145.883 118.824C146.051 118.824 146.255 118.824 146.495 118.824C146.735 118.812 146.975 118.8 147.215 118.788C147.455 118.776 147.713 118.764 147.989 118.752C148.157 119.592 148.307 120.402 148.439 121.182C148.571 121.866 148.703 122.568 148.835 123.288C148.979 124.008 149.105 124.62 149.213 125.124C149.261 124.884 149.315 124.608 149.375 124.296C149.435 123.972 149.501 123.636 149.573 123.288C149.645 122.94 149.711 122.592 149.771 122.244C149.843 121.884 149.915 121.53 149.987 121.182C150.155 120.402 150.329 119.598 150.509 118.77L152.705 118.5C152.297 120.336 151.937 122.076 151.625 123.72C151.481 124.428 151.337 125.148 151.193 125.88C151.061 126.6 150.935 127.296 150.815 127.968C150.695 128.628 150.593 129.246 150.509 129.822C150.425 130.386 150.359 130.86 150.311 131.244C150.275 131.244 150.131 131.274 149.879 131.334C149.639 131.382 149.357 131.442 149.033 131.514C148.721 131.586 148.403 131.658 148.079 131.73C147.767 131.802 147.533 131.868 147.377 131.928C147.305 130.968 147.227 130.056 147.143 129.192C147.107 128.82 147.065 128.442 147.017 128.058C146.981 127.662 146.939 127.284 146.891 126.924C146.843 126.564 146.795 126.228 146.747 125.916C146.699 125.604 146.651 125.334 146.603 125.106C146.567 125.334 146.519 125.598 146.459 125.898C146.399 126.198 146.339 126.516 146.279 126.852C146.219 127.188 146.159 127.542 146.099 127.914C146.039 128.274 145.973 128.622 145.901 128.958C145.745 129.762 145.577 130.602 145.397 131.478L142.769 132.09ZM150.746 133.998C150.842 133.518 150.944 133.026 151.052 132.522C151.16 132.03 151.262 131.556 151.358 131.1C151.454 130.632 151.538 130.2 151.61 129.804C151.694 129.408 151.754 129.06 151.79 128.76C151.886 128.76 152.036 128.766 152.24 128.778C152.456 128.778 152.618 128.778 152.726 128.778C152.894 128.778 153.11 128.778 153.374 128.778C153.65 128.778 153.92 128.772 154.184 128.76C154.46 128.748 154.748 128.736 155.048 128.724C154.952 129.168 154.82 129.696 154.652 130.308C154.496 130.908 154.328 131.508 154.148 132.108C153.968 132.708 153.776 133.338 153.572 133.998H150.746ZM161.124 132.018C161.4 130.698 161.664 129.396 161.916 128.112C162.024 127.572 162.132 127.008 162.24 126.42C162.348 125.832 162.45 125.256 162.546 124.692C162.654 124.116 162.744 123.564 162.816 123.036C162.9 122.496 162.972 122.004 163.032 121.56C162.756 121.524 162.474 121.512 162.186 121.524C161.91 121.536 161.634 121.5 161.358 121.416C161.37 121.224 161.376 121.002 161.376 120.75C161.376 120.498 161.382 120.246 161.394 119.994C161.406 119.718 161.418 119.424 161.43 119.112C161.742 119.136 162.054 119.154 162.366 119.166C162.678 119.178 162.99 119.184 163.302 119.184C163.914 119.184 164.502 119.172 165.066 119.148C165.642 119.112 166.17 119.076 166.65 119.04C167.142 118.992 167.622 118.938 168.09 118.878L167.892 119.85C167.832 120.126 167.772 120.408 167.712 120.696C167.664 120.984 167.616 121.23 167.568 121.434C167.304 121.506 167.034 121.56 166.758 121.596C166.494 121.62 166.23 121.656 165.966 121.704C165.882 122.112 165.792 122.568 165.696 123.072C165.6 123.564 165.504 124.08 165.408 124.62C165.324 125.148 165.24 125.688 165.156 126.24C165.072 126.792 164.988 127.32 164.904 127.824C164.712 129.012 164.532 130.242 164.364 131.514L161.124 132.018ZM166.709 132.036C167.045 130.356 167.369 128.718 167.681 127.122C167.801 126.438 167.927 125.73 168.059 124.998C168.191 124.254 168.311 123.522 168.419 122.802C168.539 122.082 168.647 121.386 168.743 120.714C168.851 120.03 168.935 119.412 168.995 118.86C169.271 118.872 169.523 118.89 169.751 118.914C169.991 118.926 170.225 118.938 170.453 118.95C170.681 118.962 170.909 118.974 171.137 118.986C171.377 118.986 171.635 118.986 171.911 118.986C171.707 119.838 171.503 120.69 171.299 121.542C171.107 122.394 170.927 123.252 170.759 124.116L172.541 123.918C172.709 123.066 172.859 122.244 172.991 121.452C173.123 120.648 173.297 119.82 173.513 118.968C173.789 118.92 174.095 118.884 174.431 118.86C174.767 118.824 175.079 118.794 175.367 118.77C175.655 118.746 175.895 118.728 176.087 118.716C176.291 118.692 176.393 118.68 176.393 118.68C176.225 119.22 176.063 119.814 175.907 120.462C175.763 121.098 175.619 121.764 175.475 122.46C175.331 123.144 175.193 123.84 175.061 124.548C174.929 125.256 174.809 125.928 174.701 126.564C174.437 128.088 174.191 129.648 173.963 131.244L171.155 131.568C171.311 130.848 171.449 130.146 171.569 129.462C171.689 128.886 171.809 128.286 171.929 127.662C172.061 127.038 172.163 126.504 172.235 126.06L170.489 126.222C170.405 126.678 170.303 127.206 170.183 127.806C170.075 128.406 169.973 128.976 169.877 129.516C169.745 130.164 169.613 130.812 169.481 131.46L166.709 132.036ZM181.675 131.64C181.375 131.688 181.045 131.742 180.685 131.802C180.325 131.862 180.001 131.916 179.713 131.964C179.761 131.568 179.809 131.178 179.857 130.794C179.893 130.458 179.923 130.122 179.947 129.786C179.983 129.45 180.013 129.162 180.037 128.922H178.471L177.751 131.514C177.487 131.55 177.175 131.592 176.815 131.64C176.455 131.676 176.119 131.712 175.807 131.748C175.423 131.796 175.045 131.844 174.673 131.892C175.153 130.296 175.627 128.724 176.095 127.176C176.287 126.528 176.485 125.85 176.689 125.142C176.905 124.434 177.115 123.732 177.319 123.036C177.535 122.328 177.739 121.65 177.931 121.002C178.123 120.354 178.291 119.76 178.435 119.22C179.251 119.16 180.079 119.088 180.919 119.004C181.771 118.92 182.599 118.806 183.403 118.662C183.367 119.046 183.325 119.526 183.277 120.102C183.241 120.666 183.205 121.284 183.169 121.956C183.133 122.628 183.097 123.33 183.061 124.062C183.025 124.794 182.989 125.514 182.953 126.222C182.893 127.878 182.827 129.636 182.755 131.496C182.395 131.556 182.035 131.604 181.675 131.64ZM178.903 127.122C178.951 127.122 179.035 127.122 179.155 127.122C179.287 127.11 179.419 127.104 179.551 127.104C179.695 127.092 179.827 127.086 179.947 127.086C180.067 127.074 180.151 127.062 180.199 127.05C180.199 126.978 180.205 126.858 180.217 126.69C180.241 126.51 180.259 126.312 180.271 126.096C180.295 125.868 180.319 125.622 180.343 125.358C180.367 125.094 180.391 124.836 180.415 124.584C180.463 123.972 180.523 123.312 180.595 122.604L180.703 121.038L180.433 121.056L180.019 122.604L178.903 127.122ZM183.468 132.09C183.828 130.362 184.17 128.688 184.494 127.068C184.614 126.372 184.74 125.652 184.872 124.908C185.016 124.164 185.148 123.432 185.268 122.712C185.388 121.98 185.496 121.284 185.592 120.624C185.688 119.952 185.76 119.346 185.808 118.806C185.964 118.818 186.096 118.824 186.204 118.824C186.312 118.824 186.438 118.824 186.582 118.824C186.75 118.824 186.954 118.824 187.194 118.824C187.434 118.812 187.674 118.8 187.914 118.788C188.154 118.776 188.412 118.764 188.688 118.752C188.856 119.592 189.006 120.402 189.138 121.182C189.27 121.866 189.402 122.568 189.534 123.288C189.678 124.008 189.804 124.62 189.912 125.124C189.96 124.884 190.014 124.608 190.074 124.296C190.134 123.972 190.2 123.636 190.272 123.288C190.344 122.94 190.41 122.592 190.47 122.244C190.542 121.884 190.614 121.53 190.686 121.182C190.854 120.402 191.028 119.598 191.208 118.77L193.404 118.5C192.996 120.336 192.636 122.076 192.324 123.72C192.18 124.428 192.036 125.148 191.892 125.88C191.76 126.6 191.634 127.296 191.514 127.968C191.394 128.628 191.292 129.246 191.208 129.822C191.124 130.386 191.058 130.86 191.01 131.244C190.974 131.244 190.83 131.274 190.578 131.334C190.338 131.382 190.056 131.442 189.732 131.514C189.42 131.586 189.102 131.658 188.778 131.73C188.466 131.802 188.232 131.868 188.076 131.928C188.004 130.968 187.926 130.056 187.842 129.192C187.806 128.82 187.764 128.442 187.716 128.058C187.68 127.662 187.638 127.284 187.59 126.924C187.542 126.564 187.494 126.228 187.446 125.916C187.398 125.604 187.35 125.334 187.302 125.106C187.266 125.334 187.218 125.598 187.158 125.898C187.098 126.198 187.038 126.516 186.978 126.852C186.918 127.188 186.858 127.542 186.798 127.914C186.738 128.274 186.672 128.622 186.6 128.958C186.444 129.762 186.276 130.602 186.096 131.478L183.468 132.09ZM192.183 132.018C192.543 130.338 192.879 128.706 193.191 127.122C193.311 126.438 193.437 125.73 193.569 124.998C193.701 124.266 193.821 123.54 193.929 122.82C194.049 122.1 194.151 121.404 194.235 120.732C194.331 120.048 194.403 119.43 194.451 118.878C194.727 118.902 195.039 118.926 195.387 118.95C195.735 118.962 196.059 118.98 196.359 119.004C196.719 119.028 197.079 119.04 197.439 119.04C197.427 119.088 197.409 119.178 197.385 119.31C197.361 119.442 197.331 119.604 197.295 119.796C197.259 119.976 197.217 120.18 197.169 120.408C197.133 120.636 197.091 120.864 197.043 121.092C196.947 121.62 196.839 122.214 196.719 122.874L196.827 122.856C196.947 122.664 197.115 122.4 197.331 122.064C197.559 121.716 197.793 121.35 198.033 120.966C198.273 120.582 198.507 120.216 198.735 119.868C198.963 119.508 199.155 119.202 199.311 118.95C199.911 118.902 200.511 118.848 201.111 118.788C201.711 118.728 202.311 118.65 202.911 118.554C202.347 119.31 201.801 120.054 201.273 120.786C201.045 121.098 200.811 121.422 200.571 121.758C200.343 122.094 200.115 122.424 199.887 122.748C199.659 123.072 199.443 123.384 199.239 123.684C199.047 123.984 198.873 124.26 198.717 124.512C198.981 125.724 199.293 126.894 199.653 128.022C200.013 129.15 200.379 130.302 200.751 131.478C200.475 131.466 200.193 131.46 199.905 131.46C199.617 131.448 199.335 131.442 199.059 131.442C198.711 131.442 198.375 131.448 198.051 131.46C197.727 131.46 197.391 131.466 197.043 131.478C196.935 130.698 196.815 129.882 196.683 129.03C196.563 128.166 196.449 127.344 196.341 126.564L196.017 126.942C195.933 127.302 195.837 127.746 195.729 128.274C195.633 128.802 195.537 129.312 195.441 129.804C195.333 130.38 195.219 130.974 195.099 131.586L192.183 132.018ZM206.353 131.73L207.181 128.112C207.181 127.596 207.169 127.038 207.145 126.438C207.133 125.826 207.109 125.214 207.073 124.602C207.037 123.99 207.001 123.402 206.965 122.838C206.929 122.262 206.899 121.758 206.875 121.326C206.851 120.882 206.827 120.528 206.803 120.264C206.779 120 206.767 119.868 206.767 119.868L209.701 118.752V120.948C209.701 121.248 209.701 121.554 209.701 121.866C209.701 122.178 209.695 122.484 209.683 122.784C209.683 123.084 209.683 123.366 209.683 123.63C209.683 123.894 209.683 124.116 209.683 124.296C209.839 123.888 210.025 123.384 210.241 122.784C210.469 122.184 210.679 121.602 210.871 121.038C211.099 120.378 211.333 119.682 211.573 118.95L214.363 119.58C213.847 120.612 213.343 121.638 212.851 122.658C212.647 123.102 212.431 123.564 212.203 124.044C211.975 124.512 211.747 124.986 211.519 125.466C211.291 125.934 211.069 126.39 210.853 126.834C210.637 127.278 210.439 127.692 210.259 128.076C210.199 128.388 210.121 128.73 210.025 129.102C209.941 129.474 209.857 129.828 209.773 130.164C209.665 130.56 209.551 130.956 209.431 131.352L206.353 131.73ZM222.495 122.262C222.495 123.246 222.387 124.176 222.171 125.052C221.967 125.916 221.691 126.714 221.343 127.446C220.995 128.166 220.587 128.814 220.119 129.39C219.663 129.954 219.183 130.44 218.679 130.848C218.175 131.244 217.665 131.55 217.149 131.766C216.633 131.97 216.141 132.072 215.673 132.072C215.277 132.072 214.917 132 214.593 131.856C214.269 131.7 213.987 131.478 213.747 131.19C213.507 130.89 213.315 130.512 213.171 130.056C213.039 129.588 212.973 129.03 212.973 128.382C212.973 127.71 213.057 127.002 213.225 126.258C213.393 125.514 213.621 124.776 213.909 124.044C214.197 123.312 214.551 122.616 214.971 121.956C215.391 121.296 215.853 120.714 216.357 120.21C216.861 119.694 217.401 119.286 217.977 118.986C218.553 118.686 219.153 118.536 219.777 118.536C220.317 118.536 220.761 118.65 221.109 118.878C221.469 119.094 221.745 119.382 221.937 119.742C222.141 120.09 222.285 120.486 222.369 120.93C222.453 121.374 222.495 121.818 222.495 122.262ZM215.655 127.914C215.655 128.046 215.679 128.184 215.727 128.328C215.775 128.472 215.841 128.598 215.925 128.706C216.009 128.814 216.111 128.91 216.231 128.994C216.363 129.066 216.501 129.102 216.645 129.102C217.185 129.102 217.665 128.916 218.085 128.544C218.505 128.172 218.853 127.716 219.129 127.176C219.405 126.636 219.615 126.06 219.759 125.448C219.915 124.836 219.993 124.278 219.993 123.774C219.993 123.63 219.981 123.474 219.957 123.306C219.945 123.138 219.909 122.982 219.849 122.838C219.801 122.694 219.717 122.574 219.597 122.478C219.489 122.37 219.339 122.316 219.147 122.316C218.763 122.316 218.409 122.412 218.085 122.604C217.761 122.796 217.467 123.054 217.203 123.378C216.951 123.69 216.729 124.05 216.537 124.458C216.345 124.854 216.177 125.262 216.033 125.682C215.901 126.09 215.805 126.492 215.745 126.888C215.685 127.284 215.655 127.626 215.655 127.914ZM229.32 128.49C229.152 129.174 228.912 129.756 228.6 130.236C228.3 130.716 227.94 131.112 227.52 131.424C227.112 131.736 226.674 131.964 226.206 132.108C225.738 132.252 225.27 132.324 224.802 132.324C224.526 132.324 224.244 132.276 223.956 132.18C223.668 132.096 223.41 131.964 223.182 131.784C222.954 131.604 222.762 131.376 222.606 131.1C222.462 130.824 222.39 130.5 222.39 130.128C222.39 130.08 222.39 130.032 222.39 129.984C222.39 129.936 222.396 129.888 222.408 129.84C222.456 129.348 222.534 128.754 222.642 128.058C222.75 127.362 222.864 126.636 222.984 125.88C223.104 125.124 223.236 124.368 223.38 123.612C223.524 122.844 223.65 122.148 223.758 121.524C223.878 120.9 223.98 120.384 224.064 119.976C224.148 119.556 224.202 119.298 224.226 119.202C224.478 119.178 224.778 119.148 225.126 119.112C225.474 119.076 225.798 119.046 226.098 119.022C226.47 118.986 226.836 118.95 227.196 118.914C226.884 120.366 226.608 121.68 226.368 122.856C226.26 123.36 226.152 123.864 226.044 124.368C225.948 124.872 225.852 125.334 225.756 125.754C225.672 126.174 225.594 126.54 225.522 126.852C225.462 127.152 225.408 127.398 225.36 127.59C225.324 127.782 225.276 128.028 225.216 128.328C225.168 128.616 225.144 128.88 225.144 129.12C225.144 129.312 225.192 129.474 225.288 129.606C225.384 129.726 225.504 129.786 225.648 129.786C225.852 129.786 226.02 129.708 226.152 129.552C226.284 129.384 226.392 129.186 226.476 128.958C226.572 128.73 226.638 128.502 226.674 128.274C226.722 128.034 226.764 127.848 226.8 127.716C226.872 127.368 226.95 126.984 227.034 126.564C227.13 126.132 227.22 125.688 227.304 125.232C227.4 124.764 227.49 124.29 227.574 123.81C227.67 123.33 227.76 122.862 227.844 122.406C228.048 121.35 228.246 120.258 228.438 119.13L231.174 118.95C231.174 118.95 231.144 119.106 231.084 119.418C231.024 119.73 230.946 120.144 230.85 120.66C230.754 121.176 230.646 121.764 230.526 122.424C230.418 123.084 230.292 123.774 230.148 124.494C230.004 125.202 229.86 125.904 229.716 126.6C229.584 127.284 229.452 127.914 229.32 128.49ZM233.549 127.734C233.201 127.734 232.853 127.746 232.505 127.77C232.157 127.794 231.809 127.818 231.461 127.842C231.833 126.366 232.193 124.896 232.541 123.432C232.901 121.968 233.273 120.498 233.657 119.022C233.885 118.986 234.143 118.95 234.431 118.914C234.731 118.878 235.031 118.836 235.331 118.788C235.631 118.74 235.919 118.698 236.195 118.662C236.483 118.626 236.723 118.59 236.915 118.554C236.267 120.066 235.673 121.59 235.133 123.126C234.605 124.65 234.077 126.186 233.549 127.734ZM233.729 130.56C233.729 130.788 233.675 131.016 233.567 131.244C233.471 131.472 233.327 131.676 233.135 131.856C232.943 132.024 232.703 132.156 232.415 132.252C232.127 132.36 231.797 132.414 231.425 132.414C231.173 132.414 230.945 132.366 230.741 132.27C230.537 132.174 230.369 132.048 230.237 131.892C230.117 131.724 230.021 131.538 229.949 131.334C229.877 131.13 229.841 130.926 229.841 130.722C229.841 130.494 229.877 130.278 229.949 130.074C230.021 129.858 230.129 129.672 230.273 129.516C230.429 129.348 230.615 129.21 230.831 129.102C231.059 128.994 231.329 128.94 231.641 128.94C232.337 128.94 232.859 129.108 233.207 129.444C233.555 129.768 233.729 130.14 233.729 130.56Z" fill="#444444"/>
</g>
<defs>
<filter id="filter0_d" x="0" y="0.000244141" width="352" height="222" filterUnits="userSpaceOnUse" color-interpolation-filters="sRGB">
<feFlood flood-opacity="0" result="BackgroundImageFix"/>
<feColorMatrix in="SourceAlpha" type="matrix" values="0 0 0 0 0 0 0 0 0 0 0 0 0 0 0 0 0 0 127 0" result="hardAlpha"/>
<feOffset dx="-10" dy="10"/>
<feComposite in2="hardAlpha" operator="out"/>
<feColorMatrix type="matrix" values="0 0 0 0 0.266667 0 0 0 0 0.266667 0 0 0 0 0.266667 0 0 0 1 0"/>
<feBlend mode="normal" in2="BackgroundImageFix" result="effect1_dropShadow"/>
<feBlend mode="normal" in="SourceGraphic" in2="effect1_dropShadow" result="shape"/>
</filter>
</defs>
</svg>
