<svg width="23" height="23" viewBox="0 0 23 23" fill="none" xmlns="http://www.w3.org/2000/svg">
<path d="M16.1398 7.39282H6.8602L11.5 11.3698L16.1398 7.39282Z" fill="#444444"/>
<path d="M11.5 12.3215C11.4019 12.3215 11.3071 12.2864 11.2327 12.2224L6.16071 7.875V15.6072H16.8393V7.875L11.7673 12.2224C11.6929 12.2864 11.5981 12.3215 11.5 12.3215Z" fill="#444444"/>
<path d="M11.5 0C5.14877 0 0 5.14877 0 11.5C0 17.8512 5.14877 23 11.5 23C17.8512 23 23 17.8512 23 11.5C22.9928 5.15178 17.8482 0.00721959 11.5 0ZM17.6607 16.0179C17.6607 16.2447 17.4768 16.4286 17.25 16.4286H5.75C5.52318 16.4286 5.33929 16.2447 5.33929 16.0179V6.98214C5.33929 6.75533 5.52318 6.57143 5.75 6.57143H17.25C17.4768 6.57143 17.6607 6.75533 17.6607 6.98214V16.0179Z" fill="#444444"/>
</svg>
