<svg width="352" height="222" viewBox="0 0 352 222" fill="none" xmlns="http://www.w3.org/2000/svg">
<g filter="url(#filter0_d)">
<path d="M183.83 209.925C183.087 209.82 180.876 209.519 178.916 209.255C169.34 207.962 158.404 203.359 149.36 196.815C143.854 192.83 133.139 181.81 133.139 180.132C133.139 179.873 134.108 178.462 135.292 176.997C139.602 171.668 143.515 163.333 144.163 158.103C144.382 156.337 144.252 156.535 143.124 159.674C140.222 167.762 136.592 173.633 131.163 179.018C121.99 188.118 111.175 192.47 97.9926 192.368C92.9967 192.329 91.1361 192.115 87.5818 191.171C79.0984 188.917 72.3002 185.062 66.2686 179.085C57.5524 170.448 52.7651 159.467 52.4457 147.377L52.3465 143.612L56.9193 142.121C60.8958 140.825 65.5503 138.641 65.5503 138.072C65.5503 137.969 64.7901 138.216 63.8606 138.619C54.2078 142.813 45.1086 143.333 36.0189 140.211C24.2763 136.178 16.1669 127.328 12.9867 115.077C11.9934 111.252 11.8848 110.084 12.081 105.342C12.247 101.325 12.5853 99.0754 13.41 96.5047C16.5196 86.8098 23.3451 78.9206 32.3532 74.6091C35.4691 73.1177 40.5599 71.44 41.9691 71.44C42.1869 71.44 42.6175 72.7685 42.9268 74.3925C43.236 76.0166 44.003 78.2898 44.6318 79.4443C45.2602 80.5985 45.6481 81.1389 45.4935 80.645C42.8165 72.1034 43.6553 63.7464 47.8738 56.9337C52.1018 50.1056 61.3412 44.9626 69.3803 44.9626C75.006 44.9626 82.3249 47.9168 86.6999 51.9532C90.2112 55.1927 92.3698 58.5133 94.2225 63.5246C95.2744 66.3704 95.6591 67.0741 95.4814 65.8269C94.6816 60.2133 92.6475 55.9654 88.4252 51.0906L86.1621 48.4779L86.3937 42.5589C86.5763 37.9327 86.8894 35.7575 87.8323 32.5988C94.5441 10.1163 117.039 -2.41048 140.216 3.42773C153.688 6.82125 165.29 16.5531 171.442 29.6195C172.27 31.3781 173.025 32.7398 173.119 32.6455C173.454 32.3125 170.519 25.3304 168.962 22.7537C168.094 21.3171 167.384 19.9917 167.384 19.8083C167.384 19.2531 171.478 15.6345 174.65 13.3862C178.773 10.4644 187.079 6.61145 191.941 5.3659C197.561 3.92602 207.334 3.92644 212.642 5.3659C232.011 10.6212 242.406 28.932 236.237 46.9274C235.721 48.4308 234.913 50.4691 234.44 51.457C233.757 52.8853 233.733 53.0691 234.324 52.3552C235.827 50.5422 238.145 45.1041 238.892 41.6373C239.66 38.0779 239.663 38.0729 242.354 36.0986C248.255 31.7699 254.692 28.9726 261.84 27.6313C266.654 26.7277 275.645 26.9506 279.755 28.0754C287.074 30.079 293.873 33.8062 299.128 38.6968C303.528 42.7916 306.271 46.4444 308.71 51.457C314.466 63.283 314.774 75.7779 309.624 88.4804C308.978 90.0735 308.519 91.4457 308.603 91.5297C308.899 91.8252 312.443 84.2082 313.013 82.0493L313.591 79.8624L318.101 80.0979C323.619 80.3864 326.888 81.2238 331.743 83.5923C340.445 87.8373 346.816 95.7625 349.226 105.34C350.25 109.409 350.259 116.411 349.247 120.608C347.097 129.509 340.846 137.442 332.565 141.779C327.843 144.252 324.606 145.107 318.868 145.398C311.913 145.751 307.573 144.829 301.352 141.679C298.796 140.385 296.706 139.379 296.706 139.444C296.706 139.797 302.388 143.456 304.127 144.222C305.25 144.717 306.168 145.293 306.168 145.502C306.168 146.644 304.055 152.498 302.56 155.496C296.857 166.937 287.231 174.736 274.554 178.185C270.91 179.177 260.414 179.27 256.152 178.349C251.153 177.268 241.734 173.442 241.734 172.492C241.734 172.266 242.059 170.603 242.457 168.796C243.278 165.07 243.459 154.615 242.759 151.367C242.4 149.697 242.318 150.439 242.292 155.633C242.255 162.911 241.774 166.643 240.156 172.205C233.814 194.015 214.096 209.028 190.634 209.91C187.637 210.023 184.576 210.029 183.833 209.931L183.83 209.925ZM144.676 154.632C144.526 154.483 144.42 154.747 144.439 155.221C144.46 155.745 144.567 155.851 144.712 155.493C144.841 155.169 144.825 154.781 144.675 154.632L144.676 154.632Z" fill="white" stroke="#444444" stroke-width="4" stroke-linecap="round" stroke-linejoin="round"/>
<path d="M121.648 112.64C121.54 112.64 121.324 112.658 121 112.694C120.688 112.718 120.364 112.754 120.028 112.802C119.692 112.838 119.386 112.874 119.11 112.91C118.846 112.946 118.702 112.97 118.678 112.982C118.798 112.466 118.918 111.896 119.038 111.272C119.17 110.636 119.302 109.976 119.434 109.292C119.566 108.596 119.692 107.894 119.812 107.186C119.932 106.478 120.046 105.794 120.154 105.134C120.406 103.598 120.658 102.02 120.91 100.4L123.718 99.95C123.442 101.558 123.172 103.136 122.908 104.684C122.8 105.344 122.686 106.028 122.566 106.736C122.458 107.444 122.344 108.146 122.224 108.842C122.116 109.538 122.014 110.216 121.918 110.876C121.822 111.524 121.732 112.112 121.648 112.64ZM122.856 113.09C123.216 111.362 123.558 109.688 123.882 108.068C124.002 107.372 124.128 106.652 124.26 105.908C124.404 105.164 124.536 104.432 124.656 103.712C124.776 102.98 124.884 102.284 124.98 101.624C125.076 100.952 125.148 100.346 125.196 99.806C125.352 99.818 125.484 99.824 125.592 99.824C125.7 99.824 125.826 99.824 125.97 99.824C126.138 99.824 126.342 99.824 126.582 99.824C126.822 99.812 127.062 99.8 127.302 99.788C127.542 99.776 127.8 99.764 128.076 99.752C128.244 100.592 128.394 101.402 128.526 102.182C128.658 102.866 128.79 103.568 128.922 104.288C129.066 105.008 129.192 105.62 129.3 106.124C129.348 105.884 129.402 105.608 129.462 105.296C129.522 104.972 129.588 104.636 129.66 104.288C129.732 103.94 129.798 103.592 129.858 103.244C129.93 102.884 130.002 102.53 130.074 102.182C130.242 101.402 130.416 100.598 130.596 99.77L132.792 99.5C132.384 101.336 132.024 103.076 131.712 104.72C131.568 105.428 131.424 106.148 131.28 106.88C131.148 107.6 131.022 108.296 130.902 108.968C130.782 109.628 130.68 110.246 130.596 110.822C130.512 111.386 130.446 111.86 130.398 112.244C130.362 112.244 130.218 112.274 129.966 112.334C129.726 112.382 129.444 112.442 129.12 112.514C128.808 112.586 128.49 112.658 128.166 112.73C127.854 112.802 127.62 112.868 127.464 112.928C127.392 111.968 127.314 111.056 127.23 110.192C127.194 109.82 127.152 109.442 127.104 109.058C127.068 108.662 127.026 108.284 126.978 107.924C126.93 107.564 126.882 107.228 126.834 106.916C126.786 106.604 126.738 106.334 126.69 106.106C126.654 106.334 126.606 106.598 126.546 106.898C126.486 107.198 126.426 107.516 126.366 107.852C126.306 108.188 126.246 108.542 126.186 108.914C126.126 109.274 126.06 109.622 125.988 109.958C125.832 110.762 125.664 111.602 125.484 112.478L122.856 113.09ZM131.391 113.018C131.751 111.398 132.093 109.814 132.417 108.266C132.549 107.618 132.687 106.934 132.831 106.214C132.975 105.494 133.113 104.786 133.245 104.09C133.377 103.394 133.503 102.722 133.623 102.074C133.743 101.426 133.845 100.832 133.929 100.292C134.277 100.184 134.619 100.094 134.955 100.022C135.291 99.938 135.633 99.866 135.981 99.806C136.341 99.746 136.677 99.716 136.989 99.716C137.529 99.716 137.979 99.806 138.339 99.986C138.711 100.166 139.011 100.412 139.239 100.724C139.467 101.024 139.629 101.378 139.725 101.786C139.821 102.194 139.869 102.632 139.869 103.1C139.869 103.772 139.743 104.42 139.491 105.044C139.251 105.668 138.921 106.226 138.501 106.718C138.093 107.198 137.619 107.582 137.079 107.87C136.551 108.158 135.999 108.302 135.423 108.302H135.225C135.129 108.71 135.039 109.154 134.955 109.634C134.871 110.114 134.799 110.558 134.739 110.966C134.655 111.446 134.577 111.926 134.505 112.406L131.391 113.018ZM136.413 101.894C136.281 102.686 136.149 103.436 136.017 104.144C135.885 104.852 135.741 105.608 135.585 106.412C135.777 106.364 135.975 106.256 136.179 106.088C136.395 105.908 136.593 105.68 136.773 105.404C136.953 105.116 137.097 104.786 137.205 104.414C137.313 104.042 137.367 103.652 137.367 103.244C137.367 102.8 137.265 102.464 137.061 102.236C136.869 102.008 136.653 101.894 136.413 101.894ZM146.293 109.49C146.125 110.174 145.885 110.756 145.573 111.236C145.273 111.716 144.913 112.112 144.493 112.424C144.085 112.736 143.647 112.964 143.179 113.108C142.711 113.252 142.243 113.324 141.775 113.324C141.499 113.324 141.217 113.276 140.929 113.18C140.641 113.096 140.383 112.964 140.155 112.784C139.927 112.604 139.735 112.376 139.579 112.1C139.435 111.824 139.363 111.5 139.363 111.128C139.363 111.08 139.363 111.032 139.363 110.984C139.363 110.936 139.369 110.888 139.381 110.84C139.429 110.348 139.507 109.754 139.615 109.058C139.723 108.362 139.837 107.636 139.957 106.88C140.077 106.124 140.209 105.368 140.353 104.612C140.497 103.844 140.623 103.148 140.731 102.524C140.851 101.9 140.953 101.384 141.037 100.976C141.121 100.556 141.175 100.298 141.199 100.202C141.451 100.178 141.751 100.148 142.099 100.112C142.447 100.076 142.771 100.046 143.071 100.022C143.443 99.986 143.809 99.95 144.169 99.914C143.857 101.366 143.581 102.68 143.341 103.856C143.233 104.36 143.125 104.864 143.017 105.368C142.921 105.872 142.825 106.334 142.729 106.754C142.645 107.174 142.567 107.54 142.495 107.852C142.435 108.152 142.381 108.398 142.333 108.59C142.297 108.782 142.249 109.028 142.189 109.328C142.141 109.616 142.117 109.88 142.117 110.12C142.117 110.312 142.165 110.474 142.261 110.606C142.357 110.726 142.477 110.786 142.621 110.786C142.825 110.786 142.993 110.708 143.125 110.552C143.257 110.384 143.365 110.186 143.449 109.958C143.545 109.73 143.611 109.502 143.647 109.274C143.695 109.034 143.737 108.848 143.773 108.716C143.845 108.368 143.923 107.984 144.007 107.564C144.103 107.132 144.193 106.688 144.277 106.232C144.373 105.764 144.463 105.29 144.547 104.81C144.643 104.33 144.733 103.862 144.817 103.406C145.021 102.35 145.219 101.258 145.411 100.13L148.147 99.95C148.147 99.95 148.117 100.106 148.057 100.418C147.997 100.73 147.919 101.144 147.823 101.66C147.727 102.176 147.619 102.764 147.499 103.424C147.391 104.084 147.265 104.774 147.121 105.494C146.977 106.202 146.833 106.904 146.689 107.6C146.557 108.284 146.425 108.914 146.293 109.49ZM148.506 113.018C148.782 111.698 149.046 110.396 149.298 109.112C149.406 108.572 149.514 108.008 149.622 107.42C149.73 106.832 149.832 106.256 149.928 105.692C150.036 105.116 150.126 104.564 150.198 104.036C150.282 103.496 150.354 103.004 150.414 102.56C150.138 102.524 149.856 102.512 149.568 102.524C149.292 102.536 149.016 102.5 148.74 102.416C148.752 102.224 148.758 102.002 148.758 101.75C148.758 101.498 148.764 101.246 148.776 100.994C148.788 100.718 148.8 100.424 148.812 100.112C149.124 100.136 149.436 100.154 149.748 100.166C150.06 100.178 150.372 100.184 150.684 100.184C151.296 100.184 151.884 100.172 152.448 100.148C153.024 100.112 153.552 100.076 154.032 100.04C154.524 99.992 155.004 99.938 155.472 99.878L155.274 100.85C155.214 101.126 155.154 101.408 155.094 101.696C155.046 101.984 154.998 102.23 154.95 102.434C154.686 102.506 154.416 102.56 154.14 102.596C153.876 102.62 153.612 102.656 153.348 102.704C153.264 103.112 153.174 103.568 153.078 104.072C152.982 104.564 152.886 105.08 152.79 105.62C152.706 106.148 152.622 106.688 152.538 107.24C152.454 107.792 152.37 108.32 152.286 108.824C152.094 110.012 151.914 111.242 151.746 112.514L148.506 113.018ZM161.922 108.554C161.922 109.226 161.79 109.838 161.526 110.39C161.274 110.93 160.926 111.398 160.482 111.794C160.05 112.19 159.534 112.496 158.934 112.712C158.346 112.928 157.71 113.036 157.026 113.036C156.546 113.036 156.066 112.91 155.586 112.658C155.106 112.394 154.644 111.98 154.2 111.416L155.532 108.806C155.616 108.962 155.742 109.124 155.91 109.292C156.078 109.448 156.264 109.586 156.468 109.706C156.684 109.826 156.894 109.928 157.098 110.012C157.314 110.084 157.506 110.12 157.674 110.12C157.818 110.12 157.968 110.096 158.124 110.048C158.28 110 158.424 109.928 158.556 109.832C158.688 109.736 158.79 109.628 158.862 109.508C158.946 109.376 158.988 109.226 158.988 109.058C158.988 108.77 158.892 108.506 158.7 108.266C158.52 108.014 158.292 107.78 158.016 107.564C157.74 107.336 157.44 107.108 157.116 106.88C156.792 106.652 156.492 106.412 156.216 106.16C155.952 105.908 155.724 105.626 155.532 105.314C155.34 105.002 155.244 104.654 155.244 104.27C155.244 103.646 155.43 103.064 155.802 102.524C156.174 101.984 156.636 101.522 157.188 101.138C157.752 100.742 158.364 100.43 159.024 100.202C159.684 99.974 160.308 99.86 160.896 99.86C161.22 99.86 161.526 99.902 161.814 99.986C162.102 100.058 162.348 100.184 162.552 100.364C162.768 100.532 162.936 100.748 163.056 101.012C163.188 101.276 163.254 101.606 163.254 102.002C163.254 102.17 163.236 102.338 163.2 102.506C163.176 102.674 163.152 102.854 163.128 103.046L160.518 103.802C160.542 103.706 160.56 103.61 160.572 103.514C160.596 103.418 160.608 103.322 160.608 103.226C160.608 102.866 160.542 102.608 160.41 102.452C160.29 102.284 160.128 102.2 159.924 102.2C159.828 102.2 159.708 102.236 159.564 102.308C159.432 102.38 159.294 102.476 159.15 102.596C159.018 102.704 158.904 102.836 158.808 102.992C158.712 103.148 158.664 103.316 158.664 103.496C158.664 103.784 158.742 104.024 158.898 104.216C159.066 104.408 159.27 104.588 159.51 104.756C159.75 104.924 160.008 105.098 160.284 105.278C160.572 105.446 160.836 105.668 161.076 105.944C161.316 106.22 161.514 106.568 161.67 106.988C161.838 107.396 161.922 107.918 161.922 108.554ZM172.902 112.64C172.602 112.688 172.272 112.742 171.912 112.802C171.552 112.862 171.228 112.916 170.94 112.964C170.988 112.568 171.036 112.178 171.084 111.794C171.12 111.458 171.15 111.122 171.174 110.786C171.21 110.45 171.24 110.162 171.264 109.922H169.698L168.978 112.514C168.714 112.55 168.402 112.592 168.042 112.64C167.682 112.676 167.346 112.712 167.034 112.748C166.65 112.796 166.272 112.844 165.9 112.892C166.38 111.296 166.854 109.724 167.322 108.176C167.514 107.528 167.712 106.85 167.916 106.142C168.132 105.434 168.342 104.732 168.546 104.036C168.762 103.328 168.966 102.65 169.158 102.002C169.35 101.354 169.518 100.76 169.662 100.22C170.478 100.16 171.306 100.088 172.146 100.004C172.998 99.92 173.826 99.806 174.63 99.662C174.594 100.046 174.552 100.526 174.504 101.102C174.468 101.666 174.432 102.284 174.396 102.956C174.36 103.628 174.324 104.33 174.288 105.062C174.252 105.794 174.216 106.514 174.18 107.222C174.12 108.878 174.054 110.636 173.982 112.496C173.622 112.556 173.262 112.604 172.902 112.64ZM170.13 108.122C170.178 108.122 170.262 108.122 170.382 108.122C170.514 108.11 170.646 108.104 170.778 108.104C170.922 108.092 171.054 108.086 171.174 108.086C171.294 108.074 171.378 108.062 171.426 108.05C171.426 107.978 171.432 107.858 171.444 107.69C171.468 107.51 171.486 107.312 171.498 107.096C171.522 106.868 171.546 106.622 171.57 106.358C171.594 106.094 171.618 105.836 171.642 105.584C171.69 104.972 171.75 104.312 171.822 103.604L171.93 102.038L171.66 102.056L171.246 103.604L170.13 108.122ZM174.677 113.018C175.001 111.422 175.313 109.862 175.613 108.338C175.721 107.69 175.841 107.018 175.973 106.322C176.105 105.614 176.225 104.918 176.333 104.234C176.453 103.538 176.561 102.872 176.657 102.236C176.765 101.588 176.849 101 176.909 100.472C177.593 100.256 178.331 100.1 179.123 100.004C179.915 99.896 180.701 99.842 181.481 99.842C181.949 99.842 182.333 99.896 182.633 100.004C182.945 100.112 183.185 100.268 183.353 100.472C183.533 100.664 183.659 100.892 183.731 101.156C183.803 101.42 183.839 101.714 183.839 102.038C183.839 102.518 183.755 102.992 183.587 103.46C183.419 103.916 183.191 104.354 182.903 104.774C182.627 105.182 182.303 105.56 181.931 105.908C181.571 106.244 181.181 106.52 180.761 106.736C180.977 107.216 181.205 107.744 181.445 108.32C181.697 108.884 181.931 109.424 182.147 109.94C182.387 110.54 182.633 111.14 182.885 111.74L180.095 112.712C179.855 111.944 179.639 111.224 179.447 110.552C179.363 110.276 179.279 109.994 179.195 109.706C179.111 109.406 179.033 109.124 178.961 108.86C178.889 108.596 178.829 108.362 178.781 108.158C178.733 107.942 178.703 107.768 178.691 107.636L178.457 107.708C178.385 108.092 178.295 108.542 178.187 109.058C178.091 109.574 178.001 110.072 177.917 110.552C177.809 111.116 177.701 111.686 177.593 112.262L174.677 113.018ZM178.907 105.206C179.135 105.182 179.411 105.086 179.735 104.918C180.071 104.75 180.389 104.552 180.689 104.324C180.989 104.084 181.247 103.838 181.463 103.586C181.679 103.334 181.787 103.112 181.787 102.92C181.787 102.788 181.745 102.686 181.661 102.614C181.577 102.53 181.457 102.47 181.301 102.434C181.157 102.386 180.995 102.356 180.815 102.344C180.635 102.332 180.449 102.326 180.257 102.326C180.125 102.326 179.987 102.332 179.843 102.344C179.711 102.344 179.591 102.344 179.483 102.344L178.907 105.206ZM183.287 113.018L185.645 100.22L191.333 99.734C191.249 99.998 191.177 100.268 191.117 100.544C191.057 100.772 190.997 101.012 190.937 101.264C190.889 101.504 190.847 101.72 190.811 101.912C190.691 101.924 190.517 101.936 190.289 101.948C190.073 101.948 189.839 101.954 189.587 101.966C189.335 101.966 189.077 101.966 188.813 101.966C188.561 101.966 188.339 101.966 188.147 101.966L187.517 105.188C187.889 105.164 188.237 105.146 188.561 105.134C188.825 105.122 189.095 105.116 189.371 105.116C189.647 105.116 189.851 105.11 189.983 105.098C189.935 105.434 189.887 105.764 189.839 106.088C189.803 106.412 189.755 106.742 189.695 107.078C189.575 107.09 189.377 107.102 189.101 107.114C188.837 107.114 188.567 107.12 188.291 107.132C187.979 107.144 187.637 107.156 187.265 107.168L186.653 110.48L189.281 110.066L189.101 112.118L183.287 113.018ZM194.017 113.018L196.375 100.22L202.063 99.734C201.979 99.998 201.907 100.268 201.847 100.544C201.787 100.772 201.727 101.012 201.667 101.264C201.619 101.504 201.577 101.72 201.541 101.912C201.421 101.924 201.247 101.936 201.019 101.948C200.803 101.948 200.569 101.954 200.317 101.966C200.065 101.966 199.807 101.966 199.543 101.966C199.291 101.966 199.069 101.966 198.877 101.966L198.247 105.188C198.619 105.164 198.967 105.146 199.291 105.134C199.555 105.122 199.825 105.116 200.101 105.116C200.377 105.116 200.581 105.11 200.713 105.098C200.665 105.434 200.617 105.764 200.569 106.088C200.533 106.412 200.485 106.742 200.425 107.078C200.305 107.09 200.107 107.102 199.831 107.114C199.567 107.114 199.297 107.12 199.021 107.132C198.709 107.144 198.367 107.156 197.995 107.168L197.383 110.48L200.011 110.066L199.831 112.118L194.017 113.018ZM200.008 112.892C200.536 111.296 201.04 109.73 201.52 108.194C201.724 107.546 201.934 106.868 202.15 106.16C202.366 105.452 202.582 104.75 202.798 104.054C203.014 103.358 203.212 102.686 203.392 102.038C203.584 101.39 203.752 100.79 203.896 100.238C204.556 100.238 205.18 100.202 205.768 100.13C206.356 100.058 206.992 99.992 207.676 99.932C207.64 100.196 207.598 100.496 207.55 100.832C207.514 101.156 207.466 101.498 207.406 101.858C207.358 102.218 207.304 102.59 207.244 102.974C207.184 103.358 207.112 103.85 207.028 104.45C206.944 105.05 206.83 105.8 206.686 106.7H206.92C207.268 105.788 207.556 105.032 207.784 104.432C208.012 103.82 208.198 103.322 208.342 102.938C208.486 102.554 208.63 102.182 208.774 101.822C208.93 101.45 209.074 101.102 209.206 100.778C209.35 100.442 209.482 100.148 209.602 99.896C209.902 99.872 210.184 99.842 210.448 99.806C210.712 99.77 210.976 99.734 211.24 99.698C211.504 99.65 211.768 99.608 212.032 99.572C212.308 99.524 212.608 99.47 212.932 99.41C212.812 100.106 212.698 100.82 212.59 101.552C212.482 102.284 212.386 103.016 212.302 103.748C212.218 104.468 212.134 105.182 212.05 105.89C211.978 106.598 211.912 107.27 211.852 107.906C211.708 109.394 211.582 110.846 211.474 112.262L208.342 112.82C208.342 112.76 208.348 112.598 208.36 112.334C208.384 112.07 208.408 111.746 208.432 111.362C208.468 110.978 208.51 110.552 208.558 110.084C208.618 109.616 208.672 109.148 208.72 108.68C208.78 108.212 208.84 107.762 208.9 107.33C208.96 106.886 209.02 106.508 209.08 106.196H208.918C208.75 106.7 208.564 107.234 208.36 107.798C208.156 108.35 207.946 108.914 207.73 109.49C207.526 110.066 207.322 110.63 207.118 111.182C206.914 111.734 206.734 112.262 206.578 112.766C206.158 112.778 205.798 112.796 205.498 112.82C205.198 112.832 204.85 112.85 204.454 112.874L205.03 106.196H204.76C204.736 106.352 204.676 106.616 204.58 106.988C204.484 107.348 204.37 107.768 204.238 108.248C204.118 108.716 203.986 109.208 203.842 109.724C203.698 110.228 203.56 110.702 203.428 111.146C203.308 111.578 203.206 111.938 203.122 112.226C203.038 112.502 202.99 112.658 202.978 112.694L200.008 112.892ZM212.179 113.018C212.539 111.398 212.881 109.814 213.205 108.266C213.337 107.618 213.475 106.934 213.619 106.214C213.763 105.494 213.901 104.786 214.033 104.09C214.165 103.394 214.291 102.722 214.411 102.074C214.531 101.426 214.633 100.832 214.717 100.292C215.065 100.184 215.407 100.094 215.743 100.022C216.079 99.938 216.421 99.866 216.769 99.806C217.129 99.746 217.465 99.716 217.777 99.716C218.317 99.716 218.767 99.806 219.127 99.986C219.499 100.166 219.799 100.412 220.027 100.724C220.255 101.024 220.417 101.378 220.513 101.786C220.609 102.194 220.657 102.632 220.657 103.1C220.657 103.772 220.531 104.42 220.279 105.044C220.039 105.668 219.709 106.226 219.289 106.718C218.881 107.198 218.407 107.582 217.867 107.87C217.339 108.158 216.787 108.302 216.211 108.302H216.013C215.917 108.71 215.827 109.154 215.743 109.634C215.659 110.114 215.587 110.558 215.527 110.966C215.443 111.446 215.365 111.926 215.293 112.406L212.179 113.018ZM217.201 101.894C217.069 102.686 216.937 103.436 216.805 104.144C216.673 104.852 216.529 105.608 216.373 106.412C216.565 106.364 216.763 106.256 216.967 106.088C217.183 105.908 217.381 105.68 217.561 105.404C217.741 105.116 217.885 104.786 217.993 104.414C218.101 104.042 218.155 103.652 218.155 103.244C218.155 102.8 218.053 102.464 217.849 102.236C217.657 102.008 217.441 101.894 217.201 101.894ZM221.213 113.018C221.489 111.698 221.753 110.396 222.005 109.112C222.113 108.572 222.221 108.008 222.329 107.42C222.437 106.832 222.539 106.256 222.635 105.692C222.743 105.116 222.833 104.564 222.905 104.036C222.989 103.496 223.061 103.004 223.121 102.56C222.845 102.524 222.563 102.512 222.275 102.524C221.999 102.536 221.723 102.5 221.447 102.416C221.459 102.224 221.465 102.002 221.465 101.75C221.465 101.498 221.471 101.246 221.483 100.994C221.495 100.718 221.507 100.424 221.519 100.112C221.831 100.136 222.143 100.154 222.455 100.166C222.767 100.178 223.079 100.184 223.391 100.184C224.003 100.184 224.591 100.172 225.155 100.148C225.731 100.112 226.259 100.076 226.739 100.04C227.231 99.992 227.711 99.938 228.179 99.878L227.981 100.85C227.921 101.126 227.861 101.408 227.801 101.696C227.753 101.984 227.705 102.23 227.657 102.434C227.393 102.506 227.123 102.56 226.847 102.596C226.583 102.62 226.319 102.656 226.055 102.704C225.971 103.112 225.881 103.568 225.785 104.072C225.689 104.564 225.593 105.08 225.497 105.62C225.413 106.148 225.329 106.688 225.245 107.24C225.161 107.792 225.077 108.32 224.993 108.824C224.801 110.012 224.621 111.242 224.453 112.514L221.213 113.018ZM228.041 112.73L228.869 109.112C228.869 108.596 228.857 108.038 228.833 107.438C228.821 106.826 228.797 106.214 228.761 105.602C228.725 104.99 228.689 104.402 228.653 103.838C228.617 103.262 228.587 102.758 228.563 102.326C228.539 101.882 228.515 101.528 228.491 101.264C228.467 101 228.455 100.868 228.455 100.868L231.389 99.752V101.948C231.389 102.248 231.389 102.554 231.389 102.866C231.389 103.178 231.383 103.484 231.371 103.784C231.371 104.084 231.371 104.366 231.371 104.63C231.371 104.894 231.371 105.116 231.371 105.296C231.527 104.888 231.713 104.384 231.929 103.784C232.157 103.184 232.367 102.602 232.559 102.038C232.787 101.378 233.021 100.682 233.261 99.95L236.051 100.58C235.535 101.612 235.031 102.638 234.539 103.658C234.335 104.102 234.119 104.564 233.891 105.044C233.663 105.512 233.435 105.986 233.207 106.466C232.979 106.934 232.757 107.39 232.541 107.834C232.325 108.278 232.127 108.692 231.947 109.076C231.887 109.388 231.809 109.73 231.713 110.102C231.629 110.474 231.545 110.828 231.461 111.164C231.353 111.56 231.239 111.956 231.119 112.352L228.041 112.73ZM237.847 111.56C237.847 111.788 237.793 112.016 237.685 112.244C237.589 112.472 237.445 112.676 237.253 112.856C237.061 113.024 236.821 113.156 236.533 113.252C236.245 113.36 235.915 113.414 235.543 113.414C235.291 113.414 235.063 113.366 234.859 113.27C234.655 113.174 234.487 113.048 234.355 112.892C234.235 112.724 234.139 112.538 234.067 112.334C233.995 112.13 233.959 111.926 233.959 111.722C233.959 111.494 233.995 111.278 234.067 111.074C234.139 110.858 234.247 110.672 234.391 110.516C234.547 110.348 234.733 110.21 234.949 110.102C235.177 109.994 235.447 109.94 235.759 109.94C236.455 109.94 236.977 110.108 237.325 110.444C237.673 110.768 237.847 111.14 237.847 111.56ZM242.148 111.56C242.148 111.788 242.094 112.016 241.986 112.244C241.89 112.472 241.746 112.676 241.554 112.856C241.362 113.024 241.122 113.156 240.834 113.252C240.546 113.36 240.216 113.414 239.844 113.414C239.592 113.414 239.364 113.366 239.16 113.27C238.956 113.174 238.788 113.048 238.656 112.892C238.536 112.724 238.44 112.538 238.368 112.334C238.296 112.13 238.26 111.926 238.26 111.722C238.26 111.494 238.296 111.278 238.368 111.074C238.44 110.858 238.548 110.672 238.692 110.516C238.848 110.348 239.034 110.21 239.25 110.102C239.478 109.994 239.748 109.94 240.06 109.94C240.756 109.94 241.278 110.108 241.626 110.444C241.974 110.768 242.148 111.14 242.148 111.56ZM246.45 111.56C246.45 111.788 246.396 112.016 246.288 112.244C246.192 112.472 246.048 112.676 245.856 112.856C245.664 113.024 245.424 113.156 245.136 113.252C244.848 113.36 244.518 113.414 244.146 113.414C243.894 113.414 243.666 113.366 243.462 113.27C243.258 113.174 243.09 113.048 242.958 112.892C242.838 112.724 242.742 112.538 242.67 112.334C242.598 112.13 242.562 111.926 242.562 111.722C242.562 111.494 242.598 111.278 242.67 111.074C242.742 110.858 242.85 110.672 242.994 110.516C243.15 110.348 243.336 110.21 243.552 110.102C243.78 109.994 244.05 109.94 244.362 109.94C245.058 109.94 245.58 110.108 245.928 110.444C246.276 110.768 246.45 111.14 246.45 111.56Z" fill="#444444"/>
</g>
<defs>
<filter id="filter0_d" x="0" y="0.000244141" width="352" height="222" filterUnits="userSpaceOnUse" color-interpolation-filters="sRGB">
<feFlood flood-opacity="0" result="BackgroundImageFix"/>
<feColorMatrix in="SourceAlpha" type="matrix" values="0 0 0 0 0 0 0 0 0 0 0 0 0 0 0 0 0 0 127 0" result="hardAlpha"/>
<feOffset dx="-10" dy="10"/>
<feComposite in2="hardAlpha" operator="out"/>
<feColorMatrix type="matrix" values="0 0 0 0 0.266667 0 0 0 0 0.266667 0 0 0 0 0.266667 0 0 0 1 0"/>
<feBlend mode="normal" in2="BackgroundImageFix" result="effect1_dropShadow"/>
<feBlend mode="normal" in="SourceGraphic" in2="effect1_dropShadow" result="shape"/>
</filter>
</defs>
</svg>
