<svg width="340" height="210" viewBox="0 0 340 210" fill="none" xmlns="http://www.w3.org/2000/svg">
<path d="M172.83 208.925C172.087 208.82 169.876 208.519 167.916 208.255C158.34 206.962 147.404 202.359 138.36 195.815C132.854 191.83 122.139 180.81 122.139 179.132C122.139 178.873 123.108 177.462 124.292 175.997C128.602 170.668 132.515 162.333 133.163 157.103C133.382 155.337 133.252 155.535 132.124 158.674C129.222 166.762 125.592 172.633 120.163 178.018C110.99 187.118 100.175 191.47 86.9926 191.368C81.9967 191.329 80.1361 191.115 76.5818 190.171C68.0984 187.917 61.3002 184.062 55.2686 178.085C46.5524 169.448 41.7651 158.467 41.4457 146.377L41.3465 142.612L45.9193 141.121C49.8958 139.825 54.5503 137.641 54.5503 137.072C54.5503 136.969 53.7901 137.216 52.8606 137.619C43.2078 141.813 34.1086 142.333 25.0189 139.211C13.2763 135.178 5.16692 126.328 1.98674 114.077C0.99344 110.252 0.884837 109.084 1.08103 104.342C1.24704 100.325 1.58529 98.0754 2.40997 95.5047C5.51959 85.8098 12.3451 77.9206 21.3532 73.6091C24.4691 72.1177 29.5599 70.44 30.9691 70.44C31.1869 70.44 31.6175 71.7685 31.9268 73.3925C32.236 75.0166 33.003 77.2898 33.6318 78.4443C34.2602 79.5985 34.6481 80.1389 34.4935 79.645C31.8165 71.1034 32.6553 62.7464 36.8738 55.9337C41.1018 49.1056 50.3412 43.9626 58.3803 43.9626C64.006 43.9626 71.3249 46.9168 75.6999 50.9532C79.2112 54.1927 81.3698 57.5133 83.2225 62.5246C84.2744 65.3704 84.6591 66.0741 84.4814 64.8269C83.6816 59.2133 81.6475 54.9654 77.4252 50.0906L75.1621 47.4779L75.3937 41.5589C75.5763 36.9327 75.8894 34.7575 76.8323 31.5988C83.5441 9.11628 106.039 -3.41048 129.216 2.42773C142.688 5.82125 154.29 15.5531 160.442 28.6195C161.27 30.3781 162.025 31.7398 162.119 31.6455C162.454 31.3125 159.519 24.3304 157.962 21.7537C157.094 20.3171 156.384 18.9917 156.384 18.8083C156.384 18.2531 160.478 14.6345 163.65 12.3862C167.773 9.46444 176.079 5.61145 180.941 4.3659C186.561 2.92602 196.334 2.92644 201.642 4.3659C221.011 9.62122 231.406 27.932 225.237 45.9274C224.721 47.4308 223.913 49.4691 223.44 50.457C222.757 51.8853 222.733 52.0691 223.324 51.3552C224.827 49.5422 227.145 44.1041 227.892 40.6373C228.66 37.0779 228.663 37.0729 231.354 35.0986C237.255 30.7699 243.692 27.9726 250.84 26.6313C255.654 25.7277 264.645 25.9506 268.755 27.0754C276.074 29.079 282.873 32.8062 288.128 37.6968C292.528 41.7916 295.271 45.4444 297.71 50.457C303.466 62.283 303.774 74.7779 298.624 87.4804C297.978 89.0735 297.519 90.4457 297.603 90.5297C297.899 90.8252 301.443 83.2082 302.013 81.0493L302.591 78.8624L307.101 79.0979C312.619 79.3864 315.888 80.2238 320.743 82.5923C329.445 86.8373 335.816 94.7625 338.226 104.34C339.25 108.409 339.259 115.411 338.247 119.608C336.097 128.509 329.846 136.442 321.565 140.779C316.843 143.252 313.606 144.107 307.868 144.398C300.913 144.751 296.573 143.829 290.352 140.679C287.796 139.385 285.706 138.379 285.706 138.444C285.706 138.797 291.388 142.456 293.127 143.222C294.25 143.717 295.168 144.293 295.168 144.502C295.168 145.644 293.055 151.498 291.56 154.496C285.857 165.937 276.231 173.736 263.554 177.185C259.91 178.177 249.414 178.27 245.152 177.349C240.153 176.268 230.734 172.442 230.734 171.492C230.734 171.266 231.059 169.603 231.457 167.796C232.278 164.07 232.459 153.615 231.759 150.367C231.4 148.697 231.318 149.439 231.292 154.633C231.255 161.911 230.774 165.643 229.156 171.205C222.814 193.015 203.096 208.028 179.634 208.91C176.637 209.023 173.576 209.029 172.833 208.931L172.83 208.925ZM133.676 153.632C133.526 153.483 133.42 153.747 133.439 154.221C133.46 154.745 133.567 154.851 133.712 154.493C133.841 154.169 133.825 153.781 133.675 153.632L133.676 153.632Z" fill="#F0F0F0" stroke="#444444" stroke-linecap="round" stroke-linejoin="round"/>
<path d="M110.648 111.64C110.54 111.64 110.324 111.658 110 111.694C109.688 111.718 109.364 111.754 109.028 111.802C108.692 111.838 108.386 111.874 108.11 111.91C107.846 111.946 107.702 111.97 107.678 111.982C107.798 111.466 107.918 110.896 108.038 110.272C108.17 109.636 108.302 108.976 108.434 108.292C108.566 107.596 108.692 106.894 108.812 106.186C108.932 105.478 109.046 104.794 109.154 104.134C109.406 102.598 109.658 101.02 109.91 99.4L112.718 98.95C112.442 100.558 112.172 102.136 111.908 103.684C111.8 104.344 111.686 105.028 111.566 105.736C111.458 106.444 111.344 107.146 111.224 107.842C111.116 108.538 111.014 109.216 110.918 109.876C110.822 110.524 110.732 111.112 110.648 111.64ZM111.856 112.09C112.216 110.362 112.558 108.688 112.882 107.068C113.002 106.372 113.128 105.652 113.26 104.908C113.404 104.164 113.536 103.432 113.656 102.712C113.776 101.98 113.884 101.284 113.98 100.624C114.076 99.952 114.148 99.346 114.196 98.806C114.352 98.818 114.484 98.824 114.592 98.824C114.7 98.824 114.826 98.824 114.97 98.824C115.138 98.824 115.342 98.824 115.582 98.824C115.822 98.812 116.062 98.8 116.302 98.788C116.542 98.776 116.8 98.764 117.076 98.752C117.244 99.592 117.394 100.402 117.526 101.182C117.658 101.866 117.79 102.568 117.922 103.288C118.066 104.008 118.192 104.62 118.3 105.124C118.348 104.884 118.402 104.608 118.462 104.296C118.522 103.972 118.588 103.636 118.66 103.288C118.732 102.94 118.798 102.592 118.858 102.244C118.93 101.884 119.002 101.53 119.074 101.182C119.242 100.402 119.416 99.598 119.596 98.77L121.792 98.5C121.384 100.336 121.024 102.076 120.712 103.72C120.568 104.428 120.424 105.148 120.28 105.88C120.148 106.6 120.022 107.296 119.902 107.968C119.782 108.628 119.68 109.246 119.596 109.822C119.512 110.386 119.446 110.86 119.398 111.244C119.362 111.244 119.218 111.274 118.966 111.334C118.726 111.382 118.444 111.442 118.12 111.514C117.808 111.586 117.49 111.658 117.166 111.73C116.854 111.802 116.62 111.868 116.464 111.928C116.392 110.968 116.314 110.056 116.23 109.192C116.194 108.82 116.152 108.442 116.104 108.058C116.068 107.662 116.026 107.284 115.978 106.924C115.93 106.564 115.882 106.228 115.834 105.916C115.786 105.604 115.738 105.334 115.69 105.106C115.654 105.334 115.606 105.598 115.546 105.898C115.486 106.198 115.426 106.516 115.366 106.852C115.306 107.188 115.246 107.542 115.186 107.914C115.126 108.274 115.06 108.622 114.988 108.958C114.832 109.762 114.664 110.602 114.484 111.478L111.856 112.09ZM120.391 112.018C120.751 110.398 121.093 108.814 121.417 107.266C121.549 106.618 121.687 105.934 121.831 105.214C121.975 104.494 122.113 103.786 122.245 103.09C122.377 102.394 122.503 101.722 122.623 101.074C122.743 100.426 122.845 99.832 122.929 99.292C123.277 99.184 123.619 99.094 123.955 99.022C124.291 98.938 124.633 98.866 124.981 98.806C125.341 98.746 125.677 98.716 125.989 98.716C126.529 98.716 126.979 98.806 127.339 98.986C127.711 99.166 128.011 99.412 128.239 99.724C128.467 100.024 128.629 100.378 128.725 100.786C128.821 101.194 128.869 101.632 128.869 102.1C128.869 102.772 128.743 103.42 128.491 104.044C128.251 104.668 127.921 105.226 127.501 105.718C127.093 106.198 126.619 106.582 126.079 106.87C125.551 107.158 124.999 107.302 124.423 107.302H124.225C124.129 107.71 124.039 108.154 123.955 108.634C123.871 109.114 123.799 109.558 123.739 109.966C123.655 110.446 123.577 110.926 123.505 111.406L120.391 112.018ZM125.413 100.894C125.281 101.686 125.149 102.436 125.017 103.144C124.885 103.852 124.741 104.608 124.585 105.412C124.777 105.364 124.975 105.256 125.179 105.088C125.395 104.908 125.593 104.68 125.773 104.404C125.953 104.116 126.097 103.786 126.205 103.414C126.313 103.042 126.367 102.652 126.367 102.244C126.367 101.8 126.265 101.464 126.061 101.236C125.869 101.008 125.653 100.894 125.413 100.894ZM135.293 108.49C135.125 109.174 134.885 109.756 134.573 110.236C134.273 110.716 133.913 111.112 133.493 111.424C133.085 111.736 132.647 111.964 132.179 112.108C131.711 112.252 131.243 112.324 130.775 112.324C130.499 112.324 130.217 112.276 129.929 112.18C129.641 112.096 129.383 111.964 129.155 111.784C128.927 111.604 128.735 111.376 128.579 111.1C128.435 110.824 128.363 110.5 128.363 110.128C128.363 110.08 128.363 110.032 128.363 109.984C128.363 109.936 128.369 109.888 128.381 109.84C128.429 109.348 128.507 108.754 128.615 108.058C128.723 107.362 128.837 106.636 128.957 105.88C129.077 105.124 129.209 104.368 129.353 103.612C129.497 102.844 129.623 102.148 129.731 101.524C129.851 100.9 129.953 100.384 130.037 99.976C130.121 99.556 130.175 99.298 130.199 99.202C130.451 99.178 130.751 99.148 131.099 99.112C131.447 99.076 131.771 99.046 132.071 99.022C132.443 98.986 132.809 98.95 133.169 98.914C132.857 100.366 132.581 101.68 132.341 102.856C132.233 103.36 132.125 103.864 132.017 104.368C131.921 104.872 131.825 105.334 131.729 105.754C131.645 106.174 131.567 106.54 131.495 106.852C131.435 107.152 131.381 107.398 131.333 107.59C131.297 107.782 131.249 108.028 131.189 108.328C131.141 108.616 131.117 108.88 131.117 109.12C131.117 109.312 131.165 109.474 131.261 109.606C131.357 109.726 131.477 109.786 131.621 109.786C131.825 109.786 131.993 109.708 132.125 109.552C132.257 109.384 132.365 109.186 132.449 108.958C132.545 108.73 132.611 108.502 132.647 108.274C132.695 108.034 132.737 107.848 132.773 107.716C132.845 107.368 132.923 106.984 133.007 106.564C133.103 106.132 133.193 105.688 133.277 105.232C133.373 104.764 133.463 104.29 133.547 103.81C133.643 103.33 133.733 102.862 133.817 102.406C134.021 101.35 134.219 100.258 134.411 99.13L137.147 98.95C137.147 98.95 137.117 99.106 137.057 99.418C136.997 99.73 136.919 100.144 136.823 100.66C136.727 101.176 136.619 101.764 136.499 102.424C136.391 103.084 136.265 103.774 136.121 104.494C135.977 105.202 135.833 105.904 135.689 106.6C135.557 107.284 135.425 107.914 135.293 108.49ZM137.506 112.018C137.782 110.698 138.046 109.396 138.298 108.112C138.406 107.572 138.514 107.008 138.622 106.42C138.73 105.832 138.832 105.256 138.928 104.692C139.036 104.116 139.126 103.564 139.198 103.036C139.282 102.496 139.354 102.004 139.414 101.56C139.138 101.524 138.856 101.512 138.568 101.524C138.292 101.536 138.016 101.5 137.74 101.416C137.752 101.224 137.758 101.002 137.758 100.75C137.758 100.498 137.764 100.246 137.776 99.994C137.788 99.718 137.8 99.424 137.812 99.112C138.124 99.136 138.436 99.154 138.748 99.166C139.06 99.178 139.372 99.184 139.684 99.184C140.296 99.184 140.884 99.172 141.448 99.148C142.024 99.112 142.552 99.076 143.032 99.04C143.524 98.992 144.004 98.938 144.472 98.878L144.274 99.85C144.214 100.126 144.154 100.408 144.094 100.696C144.046 100.984 143.998 101.23 143.95 101.434C143.686 101.506 143.416 101.56 143.14 101.596C142.876 101.62 142.612 101.656 142.348 101.704C142.264 102.112 142.174 102.568 142.078 103.072C141.982 103.564 141.886 104.08 141.79 104.62C141.706 105.148 141.622 105.688 141.538 106.24C141.454 106.792 141.37 107.32 141.286 107.824C141.094 109.012 140.914 110.242 140.746 111.514L137.506 112.018ZM150.922 107.554C150.922 108.226 150.79 108.838 150.526 109.39C150.274 109.93 149.926 110.398 149.482 110.794C149.05 111.19 148.534 111.496 147.934 111.712C147.346 111.928 146.71 112.036 146.026 112.036C145.546 112.036 145.066 111.91 144.586 111.658C144.106 111.394 143.644 110.98 143.2 110.416L144.532 107.806C144.616 107.962 144.742 108.124 144.91 108.292C145.078 108.448 145.264 108.586 145.468 108.706C145.684 108.826 145.894 108.928 146.098 109.012C146.314 109.084 146.506 109.12 146.674 109.12C146.818 109.12 146.968 109.096 147.124 109.048C147.28 109 147.424 108.928 147.556 108.832C147.688 108.736 147.79 108.628 147.862 108.508C147.946 108.376 147.988 108.226 147.988 108.058C147.988 107.77 147.892 107.506 147.7 107.266C147.52 107.014 147.292 106.78 147.016 106.564C146.74 106.336 146.44 106.108 146.116 105.88C145.792 105.652 145.492 105.412 145.216 105.16C144.952 104.908 144.724 104.626 144.532 104.314C144.34 104.002 144.244 103.654 144.244 103.27C144.244 102.646 144.43 102.064 144.802 101.524C145.174 100.984 145.636 100.522 146.188 100.138C146.752 99.742 147.364 99.43 148.024 99.202C148.684 98.974 149.308 98.86 149.896 98.86C150.22 98.86 150.526 98.902 150.814 98.986C151.102 99.058 151.348 99.184 151.552 99.364C151.768 99.532 151.936 99.748 152.056 100.012C152.188 100.276 152.254 100.606 152.254 101.002C152.254 101.17 152.236 101.338 152.2 101.506C152.176 101.674 152.152 101.854 152.128 102.046L149.518 102.802C149.542 102.706 149.56 102.61 149.572 102.514C149.596 102.418 149.608 102.322 149.608 102.226C149.608 101.866 149.542 101.608 149.41 101.452C149.29 101.284 149.128 101.2 148.924 101.2C148.828 101.2 148.708 101.236 148.564 101.308C148.432 101.38 148.294 101.476 148.15 101.596C148.018 101.704 147.904 101.836 147.808 101.992C147.712 102.148 147.664 102.316 147.664 102.496C147.664 102.784 147.742 103.024 147.898 103.216C148.066 103.408 148.27 103.588 148.51 103.756C148.75 103.924 149.008 104.098 149.284 104.278C149.572 104.446 149.836 104.668 150.076 104.944C150.316 105.22 150.514 105.568 150.67 105.988C150.838 106.396 150.922 106.918 150.922 107.554ZM161.902 111.64C161.602 111.688 161.272 111.742 160.912 111.802C160.552 111.862 160.228 111.916 159.94 111.964C159.988 111.568 160.036 111.178 160.084 110.794C160.12 110.458 160.15 110.122 160.174 109.786C160.21 109.45 160.24 109.162 160.264 108.922H158.698L157.978 111.514C157.714 111.55 157.402 111.592 157.042 111.64C156.682 111.676 156.346 111.712 156.034 111.748C155.65 111.796 155.272 111.844 154.9 111.892C155.38 110.296 155.854 108.724 156.322 107.176C156.514 106.528 156.712 105.85 156.916 105.142C157.132 104.434 157.342 103.732 157.546 103.036C157.762 102.328 157.966 101.65 158.158 101.002C158.35 100.354 158.518 99.76 158.662 99.22C159.478 99.16 160.306 99.088 161.146 99.004C161.998 98.92 162.826 98.806 163.63 98.662C163.594 99.046 163.552 99.526 163.504 100.102C163.468 100.666 163.432 101.284 163.396 101.956C163.36 102.628 163.324 103.33 163.288 104.062C163.252 104.794 163.216 105.514 163.18 106.222C163.12 107.878 163.054 109.636 162.982 111.496C162.622 111.556 162.262 111.604 161.902 111.64ZM159.13 107.122C159.178 107.122 159.262 107.122 159.382 107.122C159.514 107.11 159.646 107.104 159.778 107.104C159.922 107.092 160.054 107.086 160.174 107.086C160.294 107.074 160.378 107.062 160.426 107.05C160.426 106.978 160.432 106.858 160.444 106.69C160.468 106.51 160.486 106.312 160.498 106.096C160.522 105.868 160.546 105.622 160.57 105.358C160.594 105.094 160.618 104.836 160.642 104.584C160.69 103.972 160.75 103.312 160.822 102.604L160.93 101.038L160.66 101.056L160.246 102.604L159.13 107.122ZM163.677 112.018C164.001 110.422 164.313 108.862 164.613 107.338C164.721 106.69 164.841 106.018 164.973 105.322C165.105 104.614 165.225 103.918 165.333 103.234C165.453 102.538 165.561 101.872 165.657 101.236C165.765 100.588 165.849 100 165.909 99.472C166.593 99.256 167.331 99.1 168.123 99.004C168.915 98.896 169.701 98.842 170.481 98.842C170.949 98.842 171.333 98.896 171.633 99.004C171.945 99.112 172.185 99.268 172.353 99.472C172.533 99.664 172.659 99.892 172.731 100.156C172.803 100.42 172.839 100.714 172.839 101.038C172.839 101.518 172.755 101.992 172.587 102.46C172.419 102.916 172.191 103.354 171.903 103.774C171.627 104.182 171.303 104.56 170.931 104.908C170.571 105.244 170.181 105.52 169.761 105.736C169.977 106.216 170.205 106.744 170.445 107.32C170.697 107.884 170.931 108.424 171.147 108.94C171.387 109.54 171.633 110.14 171.885 110.74L169.095 111.712C168.855 110.944 168.639 110.224 168.447 109.552C168.363 109.276 168.279 108.994 168.195 108.706C168.111 108.406 168.033 108.124 167.961 107.86C167.889 107.596 167.829 107.362 167.781 107.158C167.733 106.942 167.703 106.768 167.691 106.636L167.457 106.708C167.385 107.092 167.295 107.542 167.187 108.058C167.091 108.574 167.001 109.072 166.917 109.552C166.809 110.116 166.701 110.686 166.593 111.262L163.677 112.018ZM167.907 104.206C168.135 104.182 168.411 104.086 168.735 103.918C169.071 103.75 169.389 103.552 169.689 103.324C169.989 103.084 170.247 102.838 170.463 102.586C170.679 102.334 170.787 102.112 170.787 101.92C170.787 101.788 170.745 101.686 170.661 101.614C170.577 101.53 170.457 101.47 170.301 101.434C170.157 101.386 169.995 101.356 169.815 101.344C169.635 101.332 169.449 101.326 169.257 101.326C169.125 101.326 168.987 101.332 168.843 101.344C168.711 101.344 168.591 101.344 168.483 101.344L167.907 104.206ZM172.287 112.018L174.645 99.22L180.333 98.734C180.249 98.998 180.177 99.268 180.117 99.544C180.057 99.772 179.997 100.012 179.937 100.264C179.889 100.504 179.847 100.72 179.811 100.912C179.691 100.924 179.517 100.936 179.289 100.948C179.073 100.948 178.839 100.954 178.587 100.966C178.335 100.966 178.077 100.966 177.813 100.966C177.561 100.966 177.339 100.966 177.147 100.966L176.517 104.188C176.889 104.164 177.237 104.146 177.561 104.134C177.825 104.122 178.095 104.116 178.371 104.116C178.647 104.116 178.851 104.11 178.983 104.098C178.935 104.434 178.887 104.764 178.839 105.088C178.803 105.412 178.755 105.742 178.695 106.078C178.575 106.09 178.377 106.102 178.101 106.114C177.837 106.114 177.567 106.12 177.291 106.132C176.979 106.144 176.637 106.156 176.265 106.168L175.653 109.48L178.281 109.066L178.101 111.118L172.287 112.018ZM183.017 112.018L185.375 99.22L191.063 98.734C190.979 98.998 190.907 99.268 190.847 99.544C190.787 99.772 190.727 100.012 190.667 100.264C190.619 100.504 190.577 100.72 190.541 100.912C190.421 100.924 190.247 100.936 190.019 100.948C189.803 100.948 189.569 100.954 189.317 100.966C189.065 100.966 188.807 100.966 188.543 100.966C188.291 100.966 188.069 100.966 187.877 100.966L187.247 104.188C187.619 104.164 187.967 104.146 188.291 104.134C188.555 104.122 188.825 104.116 189.101 104.116C189.377 104.116 189.581 104.11 189.713 104.098C189.665 104.434 189.617 104.764 189.569 105.088C189.533 105.412 189.485 105.742 189.425 106.078C189.305 106.09 189.107 106.102 188.831 106.114C188.567 106.114 188.297 106.12 188.021 106.132C187.709 106.144 187.367 106.156 186.995 106.168L186.383 109.48L189.011 109.066L188.831 111.118L183.017 112.018ZM189.008 111.892C189.536 110.296 190.04 108.73 190.52 107.194C190.724 106.546 190.934 105.868 191.15 105.16C191.366 104.452 191.582 103.75 191.798 103.054C192.014 102.358 192.212 101.686 192.392 101.038C192.584 100.39 192.752 99.79 192.896 99.238C193.556 99.238 194.18 99.202 194.768 99.13C195.356 99.058 195.992 98.992 196.676 98.932C196.64 99.196 196.598 99.496 196.55 99.832C196.514 100.156 196.466 100.498 196.406 100.858C196.358 101.218 196.304 101.59 196.244 101.974C196.184 102.358 196.112 102.85 196.028 103.45C195.944 104.05 195.83 104.8 195.686 105.7H195.92C196.268 104.788 196.556 104.032 196.784 103.432C197.012 102.82 197.198 102.322 197.342 101.938C197.486 101.554 197.63 101.182 197.774 100.822C197.93 100.45 198.074 100.102 198.206 99.778C198.35 99.442 198.482 99.148 198.602 98.896C198.902 98.872 199.184 98.842 199.448 98.806C199.712 98.77 199.976 98.734 200.24 98.698C200.504 98.65 200.768 98.608 201.032 98.572C201.308 98.524 201.608 98.47 201.932 98.41C201.812 99.106 201.698 99.82 201.59 100.552C201.482 101.284 201.386 102.016 201.302 102.748C201.218 103.468 201.134 104.182 201.05 104.89C200.978 105.598 200.912 106.27 200.852 106.906C200.708 108.394 200.582 109.846 200.474 111.262L197.342 111.82C197.342 111.76 197.348 111.598 197.36 111.334C197.384 111.07 197.408 110.746 197.432 110.362C197.468 109.978 197.51 109.552 197.558 109.084C197.618 108.616 197.672 108.148 197.72 107.68C197.78 107.212 197.84 106.762 197.9 106.33C197.96 105.886 198.02 105.508 198.08 105.196H197.918C197.75 105.7 197.564 106.234 197.36 106.798C197.156 107.35 196.946 107.914 196.73 108.49C196.526 109.066 196.322 109.63 196.118 110.182C195.914 110.734 195.734 111.262 195.578 111.766C195.158 111.778 194.798 111.796 194.498 111.82C194.198 111.832 193.85 111.85 193.454 111.874L194.03 105.196H193.76C193.736 105.352 193.676 105.616 193.58 105.988C193.484 106.348 193.37 106.768 193.238 107.248C193.118 107.716 192.986 108.208 192.842 108.724C192.698 109.228 192.56 109.702 192.428 110.146C192.308 110.578 192.206 110.938 192.122 111.226C192.038 111.502 191.99 111.658 191.978 111.694L189.008 111.892ZM201.179 112.018C201.539 110.398 201.881 108.814 202.205 107.266C202.337 106.618 202.475 105.934 202.619 105.214C202.763 104.494 202.901 103.786 203.033 103.09C203.165 102.394 203.291 101.722 203.411 101.074C203.531 100.426 203.633 99.832 203.717 99.292C204.065 99.184 204.407 99.094 204.743 99.022C205.079 98.938 205.421 98.866 205.769 98.806C206.129 98.746 206.465 98.716 206.777 98.716C207.317 98.716 207.767 98.806 208.127 98.986C208.499 99.166 208.799 99.412 209.027 99.724C209.255 100.024 209.417 100.378 209.513 100.786C209.609 101.194 209.657 101.632 209.657 102.1C209.657 102.772 209.531 103.42 209.279 104.044C209.039 104.668 208.709 105.226 208.289 105.718C207.881 106.198 207.407 106.582 206.867 106.87C206.339 107.158 205.787 107.302 205.211 107.302H205.013C204.917 107.71 204.827 108.154 204.743 108.634C204.659 109.114 204.587 109.558 204.527 109.966C204.443 110.446 204.365 110.926 204.293 111.406L201.179 112.018ZM206.201 100.894C206.069 101.686 205.937 102.436 205.805 103.144C205.673 103.852 205.529 104.608 205.373 105.412C205.565 105.364 205.763 105.256 205.967 105.088C206.183 104.908 206.381 104.68 206.561 104.404C206.741 104.116 206.885 103.786 206.993 103.414C207.101 103.042 207.155 102.652 207.155 102.244C207.155 101.8 207.053 101.464 206.849 101.236C206.657 101.008 206.441 100.894 206.201 100.894ZM210.213 112.018C210.489 110.698 210.753 109.396 211.005 108.112C211.113 107.572 211.221 107.008 211.329 106.42C211.437 105.832 211.539 105.256 211.635 104.692C211.743 104.116 211.833 103.564 211.905 103.036C211.989 102.496 212.061 102.004 212.121 101.56C211.845 101.524 211.563 101.512 211.275 101.524C210.999 101.536 210.723 101.5 210.447 101.416C210.459 101.224 210.465 101.002 210.465 100.75C210.465 100.498 210.471 100.246 210.483 99.994C210.495 99.718 210.507 99.424 210.519 99.112C210.831 99.136 211.143 99.154 211.455 99.166C211.767 99.178 212.079 99.184 212.391 99.184C213.003 99.184 213.591 99.172 214.155 99.148C214.731 99.112 215.259 99.076 215.739 99.04C216.231 98.992 216.711 98.938 217.179 98.878L216.981 99.85C216.921 100.126 216.861 100.408 216.801 100.696C216.753 100.984 216.705 101.23 216.657 101.434C216.393 101.506 216.123 101.56 215.847 101.596C215.583 101.62 215.319 101.656 215.055 101.704C214.971 102.112 214.881 102.568 214.785 103.072C214.689 103.564 214.593 104.08 214.497 104.62C214.413 105.148 214.329 105.688 214.245 106.24C214.161 106.792 214.077 107.32 213.993 107.824C213.801 109.012 213.621 110.242 213.453 111.514L210.213 112.018ZM217.041 111.73L217.869 108.112C217.869 107.596 217.857 107.038 217.833 106.438C217.821 105.826 217.797 105.214 217.761 104.602C217.725 103.99 217.689 103.402 217.653 102.838C217.617 102.262 217.587 101.758 217.563 101.326C217.539 100.882 217.515 100.528 217.491 100.264C217.467 100 217.455 99.868 217.455 99.868L220.389 98.752V100.948C220.389 101.248 220.389 101.554 220.389 101.866C220.389 102.178 220.383 102.484 220.371 102.784C220.371 103.084 220.371 103.366 220.371 103.63C220.371 103.894 220.371 104.116 220.371 104.296C220.527 103.888 220.713 103.384 220.929 102.784C221.157 102.184 221.367 101.602 221.559 101.038C221.787 100.378 222.021 99.682 222.261 98.95L225.051 99.58C224.535 100.612 224.031 101.638 223.539 102.658C223.335 103.102 223.119 103.564 222.891 104.044C222.663 104.512 222.435 104.986 222.207 105.466C221.979 105.934 221.757 106.39 221.541 106.834C221.325 107.278 221.127 107.692 220.947 108.076C220.887 108.388 220.809 108.73 220.713 109.102C220.629 109.474 220.545 109.828 220.461 110.164C220.353 110.56 220.239 110.956 220.119 111.352L217.041 111.73ZM226.847 110.56C226.847 110.788 226.793 111.016 226.685 111.244C226.589 111.472 226.445 111.676 226.253 111.856C226.061 112.024 225.821 112.156 225.533 112.252C225.245 112.36 224.915 112.414 224.543 112.414C224.291 112.414 224.063 112.366 223.859 112.27C223.655 112.174 223.487 112.048 223.355 111.892C223.235 111.724 223.139 111.538 223.067 111.334C222.995 111.13 222.959 110.926 222.959 110.722C222.959 110.494 222.995 110.278 223.067 110.074C223.139 109.858 223.247 109.672 223.391 109.516C223.547 109.348 223.733 109.21 223.949 109.102C224.177 108.994 224.447 108.94 224.759 108.94C225.455 108.94 225.977 109.108 226.325 109.444C226.673 109.768 226.847 110.14 226.847 110.56ZM231.148 110.56C231.148 110.788 231.094 111.016 230.986 111.244C230.89 111.472 230.746 111.676 230.554 111.856C230.362 112.024 230.122 112.156 229.834 112.252C229.546 112.36 229.216 112.414 228.844 112.414C228.592 112.414 228.364 112.366 228.16 112.27C227.956 112.174 227.788 112.048 227.656 111.892C227.536 111.724 227.44 111.538 227.368 111.334C227.296 111.13 227.26 110.926 227.26 110.722C227.26 110.494 227.296 110.278 227.368 110.074C227.44 109.858 227.548 109.672 227.692 109.516C227.848 109.348 228.034 109.21 228.25 109.102C228.478 108.994 228.748 108.94 229.06 108.94C229.756 108.94 230.278 109.108 230.626 109.444C230.974 109.768 231.148 110.14 231.148 110.56ZM235.45 110.56C235.45 110.788 235.396 111.016 235.288 111.244C235.192 111.472 235.048 111.676 234.856 111.856C234.664 112.024 234.424 112.156 234.136 112.252C233.848 112.36 233.518 112.414 233.146 112.414C232.894 112.414 232.666 112.366 232.462 112.27C232.258 112.174 232.09 112.048 231.958 111.892C231.838 111.724 231.742 111.538 231.67 111.334C231.598 111.13 231.562 110.926 231.562 110.722C231.562 110.494 231.598 110.278 231.67 110.074C231.742 109.858 231.85 109.672 231.994 109.516C232.15 109.348 232.336 109.21 232.552 109.102C232.78 108.994 233.05 108.94 233.362 108.94C234.058 108.94 234.58 109.108 234.928 109.444C235.276 109.768 235.45 110.14 235.45 110.56Z" fill="#444444"/>
</svg>
