<svg width="397" height="280" viewBox="0 0 397 280" fill="none" xmlns="http://www.w3.org/2000/svg">
<path d="M156.177 0C156.177 0 156.902 79.955 147.495 82.0172C138.087 84.0793 109.65 45.211 109.65 45.211C109.65 45.211 126.457 83.5579 117.605 89.5451C108.753 95.5324 69.4188 67.4241 69.4188 67.4241C69.4188 67.4241 101.868 99.8752 97.7538 105.224C93.6399 110.574 63.1097 96.573 63.1097 96.573C63.1097 96.573 88.4921 117.16 86.3734 121.231C84.2548 125.303 48.5461 115.579 48.5461 115.579C48.5461 115.579 87.339 128.732 85.7725 133.241C84.2062 137.751 6.12059 125.714 6.12059 125.714C6.12059 125.714 79.4753 147.722 77.759 154.727C76.0426 161.732 0 170.145 0 170.145C0 170.145 66.2008 163.696 69.2947 170.145C72.3885 176.595 32.3451 200.685 32.3451 200.685C32.3451 200.685 95.5069 180.191 101.568 188.097C107.63 196.002 46.6848 248.526 46.6848 248.526C46.6848 248.526 108.898 197.884 118.79 204.575C128.682 211.267 91.9588 267.798 91.9588 267.798C91.9588 267.798 141.855 206.592 148.197 210.779C154.538 214.965 140.742 248.23 140.742 248.23C140.742 248.23 156.725 213.364 165.135 215.019C173.545 216.674 170.393 261.764 170.393 261.764C170.393 261.764 184.511 213.477 195.792 213.586C207.073 213.693 228.764 268.706 228.764 268.706C228.764 268.706 214.132 214.474 224.646 210.709C235.16 206.945 285.282 279.051 285.282 279.051C285.282 279.051 243.099 205.651 253.736 200.395C264.373 195.138 350.922 276.707 350.922 276.707C350.922 276.707 265.742 191.488 272.79 184.043C279.838 176.598 366.063 221.853 366.063 221.853C366.063 221.853 282.406 173.079 285.607 166.462C288.808 159.844 397 184.806 397 184.806C397 184.806 294.903 161.381 295.365 154.173C295.826 146.965 363.657 140.993 363.657 140.993C363.657 140.993 297.268 140.018 296.276 134.81C295.284 129.602 388.112 108.373 388.112 108.373C388.112 108.373 291.427 130.036 288.553 123.13C285.679 116.225 339.991 91.7144 339.991 91.7144C339.991 91.7144 275.48 109.034 273.064 103.406C270.648 97.7773 349.045 50.73 349.045 50.73C349.045 50.73 244.9 103.272 238.988 97.9435C233.076 92.6146 280.386 39.9463 280.386 39.9463C280.386 39.9463 213.741 89.3142 209.886 85.8013C206.031 82.2884 224.989 43.5515 224.989 43.5515C224.989 43.5515 194.867 85.1352 190.113 83.0947C185.359 81.054 204.65 20.0559 204.65 20.0559C204.65 20.0559 174.313 73.659 168.662 72.1849C163.011 70.7108 156.177 0 156.177 0V0Z" fill="#FF2A2A"/>
<path d="M161.79 17.886C161.79 17.886 162.43 88.4295 154.13 90.2489C145.829 92.0683 120.74 57.7752 120.74 57.7752C120.74 57.7752 135.569 91.608 127.759 96.8906C119.949 102.173 85.2445 77.3735 85.2445 77.3735C85.2445 77.3735 113.874 106.005 110.244 110.724C106.615 115.444 79.6782 103.091 79.6782 103.091C79.6782 103.091 102.073 121.255 100.204 124.847C98.3341 128.439 66.8288 119.86 66.8288 119.86C66.8288 119.86 101.055 131.465 99.6734 135.443C98.2914 139.422 29.3974 128.802 29.3974 128.802C29.3974 128.802 94.1172 148.22 92.603 154.4C91.0888 160.581 23.9971 168.003 23.9971 168.003C23.9971 168.003 82.4055 162.313 85.1351 168.003C87.8647 173.694 52.5349 194.948 52.5349 194.948C52.5349 194.948 108.262 176.867 113.61 183.842C118.958 190.817 65.1866 237.158 65.1866 237.158C65.1866 237.158 120.077 192.477 128.805 198.38C137.532 204.284 105.131 254.161 105.131 254.161C105.131 254.161 149.154 200.16 154.749 203.853C160.344 207.547 148.172 236.897 148.172 236.897C148.172 236.897 162.274 206.135 169.694 207.595C177.114 209.055 174.332 248.837 174.332 248.837C174.332 248.837 186.789 206.235 196.742 206.33C206.695 206.426 225.833 254.962 225.833 254.962C225.833 254.962 212.924 207.114 222.2 203.793C231.476 200.472 275.698 264.09 275.698 264.09C275.698 264.09 238.48 199.33 247.865 194.692C257.25 190.054 333.612 262.022 333.612 262.022C333.612 262.022 258.458 186.834 264.677 180.265C270.895 173.696 346.971 213.624 346.971 213.624C346.971 213.624 273.161 170.592 275.985 164.753C278.809 158.915 374.266 180.938 374.266 180.938C374.266 180.938 284.187 160.27 284.594 153.911C285.001 147.552 344.847 142.283 344.847 142.283C344.847 142.283 286.273 141.422 285.398 136.828C284.523 132.233 366.424 113.503 366.424 113.503C366.424 113.503 281.12 132.615 278.584 126.523C276.048 120.43 323.968 98.8046 323.968 98.8046C323.968 98.8046 267.05 114.085 264.919 109.12C262.787 104.154 331.956 62.6445 331.956 62.6445C331.956 62.6445 240.07 109.002 234.854 104.301C229.638 99.5989 271.379 53.1302 271.379 53.1302C271.379 53.1302 212.578 96.6868 209.177 93.5876C205.776 90.4881 222.502 56.3111 222.502 56.3111C222.502 56.3111 195.926 92.9999 191.732 91.1995C187.537 89.3993 204.558 35.5812 204.558 35.5812C204.558 35.5812 177.791 82.8745 172.805 81.574C167.82 80.2734 161.79 17.886 161.79 17.886V17.886Z" fill="#AA0000"/>
<path d="M162.79 38.731C162.79 38.731 163.348 100.226 156.112 101.812C148.876 103.398 127.005 73.5039 127.005 73.5039C127.005 73.5039 139.931 102.997 133.123 107.602C126.315 112.207 96.0617 90.5884 96.0617 90.5884C96.0617 90.5884 121.019 115.548 117.855 119.662C114.691 123.776 91.2092 113.008 91.2092 113.008C91.2092 113.008 110.732 128.841 109.102 131.973C107.472 135.104 80.0079 127.626 80.0079 127.626C80.0079 127.626 109.845 137.742 108.64 141.21C107.435 144.678 47.3775 135.421 47.3775 135.421C47.3775 135.421 103.796 152.348 102.476 157.736C101.156 163.123 42.6699 169.594 42.6699 169.594C42.6699 169.594 93.5867 164.634 95.9663 169.594C98.3457 174.554 67.5474 193.083 67.5474 193.083C67.5474 193.083 116.127 177.321 120.789 183.401C125.451 189.481 78.5763 229.879 78.5763 229.879C78.5763 229.879 126.427 190.928 134.035 196.075C141.643 201.222 113.398 244.701 113.398 244.701C113.398 244.701 151.774 197.626 156.652 200.846C161.529 204.066 150.918 229.651 150.918 229.651C150.918 229.651 163.211 202.835 169.68 204.108C176.148 205.381 173.723 240.061 173.723 240.061C173.723 240.061 184.582 202.922 193.258 203.005C201.935 203.088 218.618 245.399 218.618 245.399C218.618 245.399 207.365 203.688 215.451 200.793C223.537 197.898 262.087 253.357 262.087 253.357C262.087 253.357 229.643 196.903 237.824 192.86C246.006 188.817 312.573 251.554 312.573 251.554C312.573 251.554 247.059 186.009 252.48 180.283C257.901 174.557 324.219 209.364 324.219 209.364C324.219 209.364 259.876 171.851 262.338 166.761C264.8 161.671 348.013 180.87 348.013 180.87C348.013 180.87 269.488 162.853 269.842 157.309C270.198 151.766 322.368 147.173 322.368 147.173C322.368 147.173 271.306 146.422 270.543 142.417C269.78 138.412 341.177 122.084 341.177 122.084C341.177 122.084 266.814 138.745 264.603 133.434C262.393 128.123 304.166 109.271 304.166 109.271C304.166 109.271 254.549 122.592 252.691 118.263C250.833 113.934 311.13 77.7486 311.13 77.7486C311.13 77.7486 231.029 118.16 226.482 114.062C221.935 109.963 258.322 69.4545 258.322 69.4545C258.322 69.4545 207.064 107.425 204.099 104.723C201.134 102.021 215.715 72.2274 215.715 72.2274C215.715 72.2274 192.547 104.21 188.891 102.641C185.234 101.072 200.072 54.1564 200.072 54.1564C200.072 54.1564 176.738 95.384 172.392 94.2502C168.046 93.1164 162.79 38.731 162.79 38.731V38.731Z" fill="#FFCC00"/>
<path d="M148.032 147.13C147.744 147.79 147.42 148.366 147.06 148.858C146.712 149.338 146.34 149.746 145.944 150.082C145.56 150.406 145.17 150.646 144.774 150.802C144.378 150.958 143.994 151.036 143.622 151.036C143.25 151.036 142.908 150.952 142.596 150.784C142.296 150.616 142.032 150.364 141.804 150.028C141.576 149.692 141.39 149.278 141.246 148.786C141.114 148.294 141.048 147.718 141.048 147.058C141.048 145.93 141.204 144.82 141.516 143.728C141.828 142.624 142.266 141.634 142.83 140.758C143.394 139.882 144.06 139.18 144.828 138.652C145.608 138.112 146.466 137.842 147.402 137.842C147.69 137.842 147.966 137.902 148.23 138.022C148.494 138.142 148.722 138.31 148.914 138.526C149.106 138.742 149.256 139.006 149.364 139.318C149.484 139.63 149.544 139.978 149.544 140.362C149.544 140.434 149.544 140.512 149.544 140.596C149.544 140.668 149.538 140.746 149.526 140.83L147.168 141.46C147.024 141.16 146.856 141.01 146.664 141.01C146.472 141.01 146.268 141.124 146.052 141.352C145.848 141.568 145.644 141.856 145.44 142.216C145.236 142.564 145.038 142.96 144.846 143.404C144.654 143.836 144.486 144.274 144.342 144.718C144.198 145.162 144.078 145.588 143.982 145.996C143.898 146.392 143.856 146.716 143.856 146.968C143.856 147.352 143.904 147.622 144 147.778C144.108 147.934 144.246 148.012 144.414 148.012C144.546 148.012 144.696 147.964 144.864 147.868C145.032 147.76 145.188 147.628 145.332 147.472C145.476 147.304 145.608 147.118 145.728 146.914C145.848 146.71 145.932 146.506 145.98 146.302L148.032 147.13ZM147.8 150.892C148.328 149.296 148.832 147.73 149.312 146.194C149.516 145.546 149.726 144.868 149.942 144.16C150.158 143.452 150.374 142.75 150.59 142.054C150.806 141.358 151.004 140.686 151.184 140.038C151.376 139.39 151.544 138.79 151.688 138.238C152.348 138.238 152.972 138.202 153.56 138.13C154.148 138.058 154.784 137.992 155.468 137.932C155.432 138.196 155.39 138.496 155.342 138.832C155.306 139.156 155.258 139.498 155.198 139.858C155.15 140.218 155.096 140.59 155.036 140.974C154.976 141.358 154.904 141.85 154.82 142.45C154.736 143.05 154.622 143.8 154.478 144.7H154.712C155.06 143.788 155.348 143.032 155.576 142.432C155.804 141.82 155.99 141.322 156.134 140.938C156.278 140.554 156.422 140.182 156.566 139.822C156.722 139.45 156.866 139.102 156.998 138.778C157.142 138.442 157.274 138.148 157.394 137.896C157.694 137.872 157.976 137.842 158.24 137.806C158.504 137.77 158.768 137.734 159.032 137.698C159.296 137.65 159.56 137.608 159.824 137.572C160.1 137.524 160.4 137.47 160.724 137.41C160.604 138.106 160.49 138.82 160.382 139.552C160.274 140.284 160.178 141.016 160.094 141.748C160.01 142.468 159.926 143.182 159.842 143.89C159.77 144.598 159.704 145.27 159.644 145.906C159.5 147.394 159.374 148.846 159.266 150.262L156.134 150.82C156.134 150.76 156.14 150.598 156.152 150.334C156.176 150.07 156.2 149.746 156.224 149.362C156.26 148.978 156.302 148.552 156.35 148.084C156.41 147.616 156.464 147.148 156.512 146.68C156.572 146.212 156.632 145.762 156.692 145.33C156.752 144.886 156.812 144.508 156.872 144.196H156.71C156.542 144.7 156.356 145.234 156.152 145.798C155.948 146.35 155.738 146.914 155.522 147.49C155.318 148.066 155.114 148.63 154.91 149.182C154.706 149.734 154.526 150.262 154.37 150.766C153.95 150.778 153.59 150.796 153.29 150.82C152.99 150.832 152.642 150.85 152.246 150.874L152.822 144.196H152.552C152.528 144.352 152.468 144.616 152.372 144.988C152.276 145.348 152.162 145.768 152.03 146.248C151.91 146.716 151.778 147.208 151.634 147.724C151.49 148.228 151.352 148.702 151.22 149.146C151.1 149.578 150.998 149.938 150.914 150.226C150.83 150.502 150.782 150.658 150.77 150.694L147.8 150.892ZM170.104 141.262C170.104 142.246 169.996 143.176 169.78 144.052C169.576 144.916 169.3 145.714 168.952 146.446C168.604 147.166 168.196 147.814 167.728 148.39C167.272 148.954 166.792 149.44 166.288 149.848C165.784 150.244 165.274 150.55 164.758 150.766C164.242 150.97 163.75 151.072 163.282 151.072C162.886 151.072 162.526 151 162.202 150.856C161.878 150.7 161.596 150.478 161.356 150.19C161.116 149.89 160.924 149.512 160.78 149.056C160.648 148.588 160.582 148.03 160.582 147.382C160.582 146.71 160.666 146.002 160.834 145.258C161.002 144.514 161.23 143.776 161.518 143.044C161.806 142.312 162.16 141.616 162.58 140.956C163 140.296 163.462 139.714 163.966 139.21C164.47 138.694 165.01 138.286 165.586 137.986C166.162 137.686 166.762 137.536 167.386 137.536C167.926 137.536 168.37 137.65 168.718 137.878C169.078 138.094 169.354 138.382 169.546 138.742C169.75 139.09 169.894 139.486 169.978 139.93C170.062 140.374 170.104 140.818 170.104 141.262ZM163.264 146.914C163.264 147.046 163.288 147.184 163.336 147.328C163.384 147.472 163.45 147.598 163.534 147.706C163.618 147.814 163.72 147.91 163.84 147.994C163.972 148.066 164.11 148.102 164.254 148.102C164.794 148.102 165.274 147.916 165.694 147.544C166.114 147.172 166.462 146.716 166.738 146.176C167.014 145.636 167.224 145.06 167.368 144.448C167.524 143.836 167.602 143.278 167.602 142.774C167.602 142.63 167.59 142.474 167.566 142.306C167.554 142.138 167.518 141.982 167.458 141.838C167.41 141.694 167.326 141.574 167.206 141.478C167.098 141.37 166.948 141.316 166.756 141.316C166.372 141.316 166.018 141.412 165.694 141.604C165.37 141.796 165.076 142.054 164.812 142.378C164.56 142.69 164.338 143.05 164.146 143.458C163.954 143.854 163.786 144.262 163.642 144.682C163.51 145.09 163.414 145.492 163.354 145.888C163.294 146.284 163.264 146.626 163.264 146.914ZM169.531 151.09C169.891 149.362 170.233 147.688 170.557 146.068C170.677 145.372 170.803 144.652 170.935 143.908C171.079 143.164 171.211 142.432 171.331 141.712C171.451 140.98 171.559 140.284 171.655 139.624C171.751 138.952 171.823 138.346 171.871 137.806C172.027 137.818 172.159 137.824 172.267 137.824C172.375 137.824 172.501 137.824 172.645 137.824C172.813 137.824 173.017 137.824 173.257 137.824C173.497 137.812 173.737 137.8 173.977 137.788C174.217 137.776 174.475 137.764 174.751 137.752C174.919 138.592 175.069 139.402 175.201 140.182C175.333 140.866 175.465 141.568 175.597 142.288C175.741 143.008 175.867 143.62 175.975 144.124C176.023 143.884 176.077 143.608 176.137 143.296C176.197 142.972 176.263 142.636 176.335 142.288C176.407 141.94 176.473 141.592 176.533 141.244C176.605 140.884 176.677 140.53 176.749 140.182C176.917 139.402 177.091 138.598 177.271 137.77L179.467 137.5C179.059 139.336 178.699 141.076 178.387 142.72C178.243 143.428 178.099 144.148 177.955 144.88C177.823 145.6 177.697 146.296 177.577 146.968C177.457 147.628 177.355 148.246 177.271 148.822C177.187 149.386 177.121 149.86 177.073 150.244C177.037 150.244 176.893 150.274 176.641 150.334C176.401 150.382 176.119 150.442 175.795 150.514C175.483 150.586 175.165 150.658 174.841 150.73C174.529 150.802 174.295 150.868 174.139 150.928C174.067 149.968 173.989 149.056 173.905 148.192C173.869 147.82 173.827 147.442 173.779 147.058C173.743 146.662 173.701 146.284 173.653 145.924C173.605 145.564 173.557 145.228 173.509 144.916C173.461 144.604 173.413 144.334 173.365 144.106C173.329 144.334 173.281 144.598 173.221 144.898C173.161 145.198 173.101 145.516 173.041 145.852C172.981 146.188 172.921 146.542 172.861 146.914C172.801 147.274 172.735 147.622 172.663 147.958C172.507 148.762 172.339 149.602 172.159 150.478L169.531 151.09ZM178.264 151.018L180.622 138.22L186.31 137.734C186.226 137.998 186.154 138.268 186.094 138.544C186.034 138.772 185.974 139.012 185.914 139.264C185.866 139.504 185.824 139.72 185.788 139.912C185.668 139.924 185.494 139.936 185.266 139.948C185.05 139.948 184.816 139.954 184.564 139.966C184.312 139.966 184.054 139.966 183.79 139.966C183.538 139.966 183.316 139.966 183.124 139.966L182.494 143.188C182.866 143.164 183.214 143.146 183.538 143.134C183.802 143.122 184.072 143.116 184.348 143.116C184.624 143.116 184.828 143.11 184.96 143.098C184.912 143.434 184.864 143.764 184.816 144.088C184.78 144.412 184.732 144.742 184.672 145.078C184.552 145.09 184.354 145.102 184.078 145.114C183.814 145.114 183.544 145.12 183.268 145.132C182.956 145.144 182.614 145.156 182.242 145.168L181.63 148.48L184.258 148.066L184.078 150.118L178.264 151.018ZM189.588 151.072L190.956 138.292C191.52 138.268 192.048 138.214 192.54 138.13C193.044 138.034 193.542 137.968 194.034 137.932C194.034 137.944 194.016 138.07 193.98 138.31C193.944 138.538 193.896 138.844 193.836 139.228C193.776 139.6 193.71 140.026 193.638 140.506C193.566 140.974 193.458 141.622 193.314 142.45C193.182 143.278 193.002 144.424 192.774 145.888H193.044C193.356 144.784 193.614 143.884 193.818 143.188C194.022 142.48 194.184 141.91 194.304 141.478C194.436 141.034 194.556 140.608 194.664 140.2C194.784 139.792 194.892 139.414 194.988 139.066C195.096 138.718 195.18 138.424 195.24 138.184H195.402C195.618 138.184 195.834 138.172 196.05 138.148C196.278 138.124 196.488 138.1 196.68 138.076C196.884 138.04 197.094 137.998 197.31 137.95C197.286 138.058 197.256 138.28 197.22 138.616C197.196 138.952 197.16 139.36 197.112 139.84C197.064 140.308 197.016 140.83 196.968 141.406C196.92 141.97 196.872 142.528 196.824 143.08C196.776 143.62 196.728 144.136 196.68 144.628C196.644 145.12 196.608 145.54 196.572 145.888H196.896L198.606 138.148C199.014 138.088 199.416 138.034 199.812 137.986C200.16 137.938 200.52 137.89 200.892 137.842C201.264 137.794 201.594 137.74 201.882 137.68C201.702 138.184 201.522 138.748 201.342 139.372C201.162 139.984 200.976 140.632 200.784 141.316C200.592 142 200.406 142.69 200.226 143.386C200.058 144.082 199.89 144.754 199.722 145.402C199.338 146.938 198.966 148.516 198.606 150.136L194.538 150.82L195.33 143.872H195.114L193.332 150.406L189.588 151.072ZM200.273 151.018C200.597 149.422 200.909 147.862 201.209 146.338C201.317 145.69 201.437 145.018 201.569 144.322C201.701 143.614 201.821 142.918 201.929 142.234C202.049 141.538 202.157 140.872 202.253 140.236C202.361 139.588 202.445 139 202.505 138.472C203.189 138.256 203.927 138.1 204.719 138.004C205.511 137.896 206.297 137.842 207.077 137.842C207.545 137.842 207.929 137.896 208.229 138.004C208.541 138.112 208.781 138.268 208.949 138.472C209.129 138.664 209.255 138.892 209.327 139.156C209.399 139.42 209.435 139.714 209.435 140.038C209.435 140.518 209.351 140.992 209.183 141.46C209.015 141.916 208.787 142.354 208.499 142.774C208.223 143.182 207.899 143.56 207.527 143.908C207.167 144.244 206.777 144.52 206.357 144.736C206.573 145.216 206.801 145.744 207.041 146.32C207.293 146.884 207.527 147.424 207.743 147.94C207.983 148.54 208.229 149.14 208.481 149.74L205.691 150.712C205.451 149.944 205.235 149.224 205.043 148.552C204.959 148.276 204.875 147.994 204.791 147.706C204.707 147.406 204.629 147.124 204.557 146.86C204.485 146.596 204.425 146.362 204.377 146.158C204.329 145.942 204.299 145.768 204.287 145.636L204.053 145.708C203.981 146.092 203.891 146.542 203.783 147.058C203.687 147.574 203.597 148.072 203.513 148.552C203.405 149.116 203.297 149.686 203.189 150.262L200.273 151.018ZM204.503 143.206C204.731 143.182 205.007 143.086 205.331 142.918C205.667 142.75 205.985 142.552 206.285 142.324C206.585 142.084 206.843 141.838 207.059 141.586C207.275 141.334 207.383 141.112 207.383 140.92C207.383 140.788 207.341 140.686 207.257 140.614C207.173 140.53 207.053 140.47 206.897 140.434C206.753 140.386 206.591 140.356 206.411 140.344C206.231 140.332 206.045 140.326 205.853 140.326C205.721 140.326 205.583 140.332 205.439 140.344C205.307 140.344 205.187 140.344 205.079 140.344L204.503 143.206ZM211.799 150.64C211.691 150.64 211.475 150.658 211.151 150.694C210.839 150.718 210.515 150.754 210.179 150.802C209.843 150.838 209.537 150.874 209.261 150.91C208.997 150.946 208.853 150.97 208.829 150.982C208.949 150.466 209.069 149.896 209.189 149.272C209.321 148.636 209.453 147.976 209.585 147.292C209.717 146.596 209.843 145.894 209.963 145.186C210.083 144.478 210.197 143.794 210.305 143.134C210.557 141.598 210.809 140.02 211.061 138.4L213.869 137.95C213.593 139.558 213.323 141.136 213.059 142.684C212.951 143.344 212.837 144.028 212.717 144.736C212.609 145.444 212.495 146.146 212.375 146.842C212.267 147.538 212.165 148.216 212.069 148.876C211.973 149.524 211.883 150.112 211.799 150.64ZM214.537 151.018C214.813 149.698 215.077 148.396 215.329 147.112C215.437 146.572 215.545 146.008 215.653 145.42C215.761 144.832 215.863 144.256 215.959 143.692C216.067 143.116 216.157 142.564 216.229 142.036C216.313 141.496 216.385 141.004 216.445 140.56C216.169 140.524 215.887 140.512 215.599 140.524C215.323 140.536 215.047 140.5 214.771 140.416C214.783 140.224 214.789 140.002 214.789 139.75C214.789 139.498 214.795 139.246 214.807 138.994C214.819 138.718 214.831 138.424 214.843 138.112C215.155 138.136 215.467 138.154 215.779 138.166C216.091 138.178 216.403 138.184 216.715 138.184C217.327 138.184 217.915 138.172 218.479 138.148C219.055 138.112 219.583 138.076 220.063 138.04C220.555 137.992 221.035 137.938 221.503 137.878L221.305 138.85C221.245 139.126 221.185 139.408 221.125 139.696C221.077 139.984 221.029 140.23 220.981 140.434C220.717 140.506 220.447 140.56 220.171 140.596C219.907 140.62 219.643 140.656 219.379 140.704C219.295 141.112 219.205 141.568 219.109 142.072C219.013 142.564 218.917 143.08 218.821 143.62C218.737 144.148 218.653 144.688 218.569 145.24C218.485 145.792 218.401 146.32 218.317 146.824C218.125 148.012 217.945 149.242 217.777 150.514L214.537 151.018ZM220.123 151.018L222.481 138.22L228.169 137.734C228.085 137.998 228.013 138.268 227.953 138.544C227.893 138.772 227.833 139.012 227.773 139.264C227.725 139.504 227.683 139.72 227.647 139.912C227.527 139.924 227.353 139.936 227.125 139.948C226.909 139.948 226.675 139.954 226.423 139.966C226.171 139.966 225.913 139.966 225.649 139.966C225.397 139.966 225.175 139.966 224.983 139.966L224.353 143.188C224.725 143.164 225.073 143.146 225.397 143.134C225.661 143.122 225.931 143.116 226.207 143.116C226.483 143.116 226.687 143.11 226.819 143.098C226.771 143.434 226.723 143.764 226.675 144.088C226.639 144.412 226.591 144.742 226.531 145.078C226.411 145.09 226.213 145.102 225.937 145.114C225.673 145.114 225.403 145.12 225.127 145.132C224.815 145.144 224.473 145.156 224.101 145.168L223.489 148.48L226.117 148.066L225.937 150.118L220.123 151.018ZM152.121 165.554C152.121 166.226 151.989 166.838 151.725 167.39C151.473 167.93 151.125 168.398 150.681 168.794C150.249 169.19 149.733 169.496 149.133 169.712C148.545 169.928 147.909 170.036 147.225 170.036C146.745 170.036 146.265 169.91 145.785 169.658C145.305 169.394 144.843 168.98 144.399 168.416L145.731 165.806C145.815 165.962 145.941 166.124 146.109 166.292C146.277 166.448 146.463 166.586 146.667 166.706C146.883 166.826 147.093 166.928 147.297 167.012C147.513 167.084 147.705 167.12 147.873 167.12C148.017 167.12 148.167 167.096 148.323 167.048C148.479 167 148.623 166.928 148.755 166.832C148.887 166.736 148.989 166.628 149.061 166.508C149.145 166.376 149.187 166.226 149.187 166.058C149.187 165.77 149.091 165.506 148.899 165.266C148.719 165.014 148.491 164.78 148.215 164.564C147.939 164.336 147.639 164.108 147.315 163.88C146.991 163.652 146.691 163.412 146.415 163.16C146.151 162.908 145.923 162.626 145.731 162.314C145.539 162.002 145.443 161.654 145.443 161.27C145.443 160.646 145.629 160.064 146.001 159.524C146.373 158.984 146.835 158.522 147.387 158.138C147.951 157.742 148.563 157.43 149.223 157.202C149.883 156.974 150.507 156.86 151.095 156.86C151.419 156.86 151.725 156.902 152.013 156.986C152.301 157.058 152.547 157.184 152.751 157.364C152.967 157.532 153.135 157.748 153.255 158.012C153.387 158.276 153.453 158.606 153.453 159.002C153.453 159.17 153.435 159.338 153.399 159.506C153.375 159.674 153.351 159.854 153.327 160.046L150.717 160.802C150.741 160.706 150.759 160.61 150.771 160.514C150.795 160.418 150.807 160.322 150.807 160.226C150.807 159.866 150.741 159.608 150.609 159.452C150.489 159.284 150.327 159.2 150.123 159.2C150.027 159.2 149.907 159.236 149.763 159.308C149.631 159.38 149.493 159.476 149.349 159.596C149.217 159.704 149.103 159.836 149.007 159.992C148.911 160.148 148.863 160.316 148.863 160.496C148.863 160.784 148.941 161.024 149.097 161.216C149.265 161.408 149.469 161.588 149.709 161.756C149.949 161.924 150.207 162.098 150.483 162.278C150.771 162.446 151.035 162.668 151.275 162.944C151.515 163.22 151.713 163.568 151.869 163.988C152.037 164.396 152.121 164.918 152.121 165.554ZM162.502 160.262C162.502 161.246 162.394 162.176 162.178 163.052C161.974 163.916 161.698 164.714 161.35 165.446C161.002 166.166 160.594 166.814 160.126 167.39C159.67 167.954 159.19 168.44 158.686 168.848C158.182 169.244 157.672 169.55 157.156 169.766C156.64 169.97 156.148 170.072 155.68 170.072C155.284 170.072 154.924 170 154.6 169.856C154.276 169.7 153.994 169.478 153.754 169.19C153.514 168.89 153.322 168.512 153.178 168.056C153.046 167.588 152.98 167.03 152.98 166.382C152.98 165.71 153.064 165.002 153.232 164.258C153.4 163.514 153.628 162.776 153.916 162.044C154.204 161.312 154.558 160.616 154.978 159.956C155.398 159.296 155.86 158.714 156.364 158.21C156.868 157.694 157.408 157.286 157.984 156.986C158.56 156.686 159.16 156.536 159.784 156.536C160.324 156.536 160.768 156.65 161.116 156.878C161.476 157.094 161.752 157.382 161.944 157.742C162.148 158.09 162.292 158.486 162.376 158.93C162.46 159.374 162.502 159.818 162.502 160.262ZM155.662 165.914C155.662 166.046 155.686 166.184 155.734 166.328C155.782 166.472 155.848 166.598 155.932 166.706C156.016 166.814 156.118 166.91 156.238 166.994C156.37 167.066 156.508 167.102 156.652 167.102C157.192 167.102 157.672 166.916 158.092 166.544C158.512 166.172 158.86 165.716 159.136 165.176C159.412 164.636 159.622 164.06 159.766 163.448C159.922 162.836 160 162.278 160 161.774C160 161.63 159.988 161.474 159.964 161.306C159.952 161.138 159.916 160.982 159.856 160.838C159.808 160.694 159.724 160.574 159.604 160.478C159.496 160.37 159.346 160.316 159.154 160.316C158.77 160.316 158.416 160.412 158.092 160.604C157.768 160.796 157.474 161.054 157.21 161.378C156.958 161.69 156.736 162.05 156.544 162.458C156.352 162.854 156.184 163.262 156.04 163.682C155.908 164.09 155.812 164.492 155.752 164.888C155.692 165.284 155.662 165.626 155.662 165.914ZM161.298 169.892C161.826 168.296 162.33 166.73 162.81 165.194C163.014 164.546 163.224 163.868 163.44 163.16C163.656 162.452 163.872 161.75 164.088 161.054C164.304 160.358 164.502 159.686 164.682 159.038C164.874 158.39 165.042 157.79 165.186 157.238C165.846 157.238 166.47 157.202 167.058 157.13C167.646 157.058 168.282 156.992 168.966 156.932C168.93 157.196 168.888 157.496 168.84 157.832C168.804 158.156 168.756 158.498 168.696 158.858C168.648 159.218 168.594 159.59 168.534 159.974C168.474 160.358 168.402 160.85 168.318 161.45C168.234 162.05 168.12 162.8 167.976 163.7H168.21C168.558 162.788 168.846 162.032 169.074 161.432C169.302 160.82 169.488 160.322 169.632 159.938C169.776 159.554 169.92 159.182 170.064 158.822C170.22 158.45 170.364 158.102 170.496 157.778C170.64 157.442 170.772 157.148 170.892 156.896C171.192 156.872 171.474 156.842 171.738 156.806C172.002 156.77 172.266 156.734 172.53 156.698C172.794 156.65 173.058 156.608 173.322 156.572C173.598 156.524 173.898 156.47 174.222 156.41C174.102 157.106 173.988 157.82 173.88 158.552C173.772 159.284 173.676 160.016 173.592 160.748C173.508 161.468 173.424 162.182 173.34 162.89C173.268 163.598 173.202 164.27 173.142 164.906C172.998 166.394 172.872 167.846 172.764 169.262L169.632 169.82C169.632 169.76 169.638 169.598 169.65 169.334C169.674 169.07 169.698 168.746 169.722 168.362C169.758 167.978 169.8 167.552 169.848 167.084C169.908 166.616 169.962 166.148 170.01 165.68C170.07 165.212 170.13 164.762 170.19 164.33C170.25 163.886 170.31 163.508 170.37 163.196H170.208C170.04 163.7 169.854 164.234 169.65 164.798C169.446 165.35 169.236 165.914 169.02 166.49C168.816 167.066 168.612 167.63 168.408 168.182C168.204 168.734 168.024 169.262 167.868 169.766C167.448 169.778 167.088 169.796 166.788 169.82C166.488 169.832 166.14 169.85 165.744 169.874L166.32 163.196H166.05C166.026 163.352 165.966 163.616 165.87 163.988C165.774 164.348 165.66 164.768 165.528 165.248C165.408 165.716 165.276 166.208 165.132 166.724C164.988 167.228 164.85 167.702 164.718 168.146C164.598 168.578 164.496 168.938 164.412 169.226C164.328 169.502 164.28 169.658 164.268 169.694L161.298 169.892ZM173.667 170.018L176.025 157.22L181.713 156.734C181.629 156.998 181.557 157.268 181.497 157.544C181.437 157.772 181.377 158.012 181.317 158.264C181.269 158.504 181.227 158.72 181.191 158.912C181.071 158.924 180.897 158.936 180.669 158.948C180.453 158.948 180.219 158.954 179.967 158.966C179.715 158.966 179.457 158.966 179.193 158.966C178.941 158.966 178.719 158.966 178.527 158.966L177.897 162.188C178.269 162.164 178.617 162.146 178.941 162.134C179.205 162.122 179.475 162.116 179.751 162.116C180.027 162.116 180.231 162.11 180.363 162.098C180.315 162.434 180.267 162.764 180.219 163.088C180.183 163.412 180.135 163.742 180.075 164.078C179.955 164.09 179.757 164.102 179.481 164.114C179.217 164.114 178.947 164.12 178.671 164.132C178.359 164.144 178.017 164.156 177.645 164.168L177.033 167.48L179.661 167.066L179.481 169.118L173.667 170.018ZM181.818 170.018C182.094 168.698 182.358 167.396 182.61 166.112C182.718 165.572 182.826 165.008 182.934 164.42C183.042 163.832 183.144 163.256 183.24 162.692C183.348 162.116 183.438 161.564 183.51 161.036C183.594 160.496 183.666 160.004 183.726 159.56C183.45 159.524 183.168 159.512 182.88 159.524C182.604 159.536 182.328 159.5 182.052 159.416C182.064 159.224 182.07 159.002 182.07 158.75C182.07 158.498 182.076 158.246 182.088 157.994C182.1 157.718 182.112 157.424 182.124 157.112C182.436 157.136 182.748 157.154 183.06 157.166C183.372 157.178 183.684 157.184 183.996 157.184C184.608 157.184 185.196 157.172 185.76 157.148C186.336 157.112 186.864 157.076 187.344 157.04C187.836 156.992 188.316 156.938 188.784 156.878L188.586 157.85C188.526 158.126 188.466 158.408 188.406 158.696C188.358 158.984 188.31 159.23 188.262 159.434C187.998 159.506 187.728 159.56 187.452 159.596C187.188 159.62 186.924 159.656 186.66 159.704C186.576 160.112 186.486 160.568 186.39 161.072C186.294 161.564 186.198 162.08 186.102 162.62C186.018 163.148 185.934 163.688 185.85 164.24C185.766 164.792 185.682 165.32 185.598 165.824C185.406 167.012 185.226 168.242 185.058 169.514L181.818 170.018ZM187.403 170.036C187.739 168.356 188.063 166.718 188.375 165.122C188.495 164.438 188.621 163.73 188.753 162.998C188.885 162.254 189.005 161.522 189.113 160.802C189.233 160.082 189.341 159.386 189.437 158.714C189.545 158.03 189.629 157.412 189.689 156.86C189.965 156.872 190.217 156.89 190.445 156.914C190.685 156.926 190.919 156.938 191.147 156.95C191.375 156.962 191.603 156.974 191.831 156.986C192.071 156.986 192.329 156.986 192.605 156.986C192.401 157.838 192.197 158.69 191.993 159.542C191.801 160.394 191.621 161.252 191.453 162.116L193.235 161.918C193.403 161.066 193.553 160.244 193.685 159.452C193.817 158.648 193.991 157.82 194.207 156.968C194.483 156.92 194.789 156.884 195.125 156.86C195.461 156.824 195.773 156.794 196.061 156.77C196.349 156.746 196.589 156.728 196.781 156.716C196.985 156.692 197.087 156.68 197.087 156.68C196.919 157.22 196.757 157.814 196.601 158.462C196.457 159.098 196.313 159.764 196.169 160.46C196.025 161.144 195.887 161.84 195.755 162.548C195.623 163.256 195.503 163.928 195.395 164.564C195.131 166.088 194.885 167.648 194.657 169.244L191.849 169.568C192.005 168.848 192.143 168.146 192.263 167.462C192.383 166.886 192.503 166.286 192.623 165.662C192.755 165.038 192.857 164.504 192.929 164.06L191.183 164.222C191.099 164.678 190.997 165.206 190.877 165.806C190.769 166.406 190.667 166.976 190.571 167.516C190.439 168.164 190.307 168.812 190.175 169.46L187.403 170.036ZM198.805 169.64C198.697 169.64 198.481 169.658 198.157 169.694C197.845 169.718 197.521 169.754 197.185 169.802C196.849 169.838 196.543 169.874 196.267 169.91C196.003 169.946 195.859 169.97 195.835 169.982C195.955 169.466 196.075 168.896 196.195 168.272C196.327 167.636 196.459 166.976 196.591 166.292C196.723 165.596 196.849 164.894 196.969 164.186C197.089 163.478 197.203 162.794 197.311 162.134C197.563 160.598 197.815 159.02 198.067 157.4L200.875 156.95C200.599 158.558 200.329 160.136 200.065 161.684C199.957 162.344 199.843 163.028 199.723 163.736C199.615 164.444 199.501 165.146 199.381 165.842C199.273 166.538 199.171 167.216 199.075 167.876C198.979 168.524 198.889 169.112 198.805 169.64ZM200.013 170.09C200.373 168.362 200.715 166.688 201.039 165.068C201.159 164.372 201.285 163.652 201.417 162.908C201.561 162.164 201.693 161.432 201.813 160.712C201.933 159.98 202.041 159.284 202.137 158.624C202.233 157.952 202.305 157.346 202.353 156.806C202.509 156.818 202.641 156.824 202.749 156.824C202.857 156.824 202.983 156.824 203.127 156.824C203.295 156.824 203.499 156.824 203.739 156.824C203.979 156.812 204.219 156.8 204.459 156.788C204.699 156.776 204.957 156.764 205.233 156.752C205.401 157.592 205.551 158.402 205.683 159.182C205.815 159.866 205.947 160.568 206.079 161.288C206.223 162.008 206.349 162.62 206.457 163.124C206.505 162.884 206.559 162.608 206.619 162.296C206.679 161.972 206.745 161.636 206.817 161.288C206.889 160.94 206.955 160.592 207.015 160.244C207.087 159.884 207.159 159.53 207.231 159.182C207.399 158.402 207.573 157.598 207.753 156.77L209.949 156.5C209.541 158.336 209.181 160.076 208.869 161.72C208.725 162.428 208.581 163.148 208.437 163.88C208.305 164.6 208.179 165.296 208.059 165.968C207.939 166.628 207.837 167.246 207.753 167.822C207.669 168.386 207.603 168.86 207.555 169.244C207.519 169.244 207.375 169.274 207.123 169.334C206.883 169.382 206.601 169.442 206.277 169.514C205.965 169.586 205.647 169.658 205.323 169.73C205.011 169.802 204.777 169.868 204.621 169.928C204.549 168.968 204.471 168.056 204.387 167.192C204.351 166.82 204.309 166.442 204.261 166.058C204.225 165.662 204.183 165.284 204.135 164.924C204.087 164.564 204.039 164.228 203.991 163.916C203.943 163.604 203.895 163.334 203.847 163.106C203.811 163.334 203.763 163.598 203.703 163.898C203.643 164.198 203.583 164.516 203.523 164.852C203.463 165.188 203.403 165.542 203.343 165.914C203.283 166.274 203.217 166.622 203.145 166.958C202.989 167.762 202.821 168.602 202.641 169.478L200.013 170.09ZM218.394 163.142C218.31 164.366 218.07 165.434 217.674 166.346C217.278 167.246 216.798 168.002 216.234 168.614C215.682 169.226 215.082 169.682 214.434 169.982C213.798 170.282 213.192 170.432 212.616 170.432C212.172 170.432 211.746 170.336 211.338 170.144C210.942 169.952 210.594 169.664 210.294 169.28C210.006 168.884 209.778 168.392 209.61 167.804C209.442 167.216 209.358 166.526 209.358 165.734C209.358 164.186 209.58 162.836 210.024 161.684C210.468 160.532 211.026 159.572 211.698 158.804C212.382 158.036 213.108 157.466 213.876 157.094C214.656 156.722 215.382 156.536 216.054 156.536C216.534 156.536 216.948 156.62 217.296 156.788C217.656 156.956 217.95 157.184 218.178 157.472C218.406 157.748 218.568 158.078 218.664 158.462C218.772 158.834 218.826 159.23 218.826 159.65L216.36 160.118C216.252 159.638 216.108 159.296 215.928 159.092C215.748 158.888 215.544 158.786 215.316 158.786C215.016 158.786 214.686 159.002 214.326 159.434C213.966 159.854 213.63 160.4 213.318 161.072C213.006 161.744 212.742 162.482 212.526 163.286C212.31 164.09 212.19 164.882 212.166 165.662C212.166 166.406 212.274 166.94 212.49 167.264C212.718 167.576 213.006 167.732 213.354 167.732C213.594 167.732 213.84 167.672 214.092 167.552C214.356 167.432 214.59 167.264 214.794 167.048C214.998 166.82 215.166 166.562 215.298 166.274C215.442 165.974 215.52 165.65 215.532 165.302L213.606 165.59L213.948 163.808C214.512 163.736 215.064 163.664 215.604 163.592C216.06 163.532 216.54 163.46 217.044 163.376C217.56 163.292 218.01 163.214 218.394 163.142ZM221.76 165.734C221.412 165.734 221.064 165.746 220.716 165.77C220.368 165.794 220.02 165.818 219.672 165.842C220.044 164.366 220.404 162.896 220.752 161.432C221.112 159.968 221.484 158.498 221.868 157.022C222.096 156.986 222.354 156.95 222.642 156.914C222.942 156.878 223.242 156.836 223.542 156.788C223.842 156.74 224.13 156.698 224.406 156.662C224.694 156.626 224.934 156.59 225.126 156.554C224.478 158.066 223.884 159.59 223.344 161.126C222.816 162.65 222.288 164.186 221.76 165.734ZM221.94 168.56C221.94 168.788 221.886 169.016 221.778 169.244C221.682 169.472 221.538 169.676 221.346 169.856C221.154 170.024 220.914 170.156 220.626 170.252C220.338 170.36 220.008 170.414 219.636 170.414C219.384 170.414 219.156 170.366 218.952 170.27C218.748 170.174 218.58 170.048 218.448 169.892C218.328 169.724 218.232 169.538 218.16 169.334C218.088 169.13 218.052 168.926 218.052 168.722C218.052 168.494 218.088 168.278 218.16 168.074C218.232 167.858 218.34 167.672 218.484 167.516C218.64 167.348 218.826 167.21 219.042 167.102C219.27 166.994 219.54 166.94 219.852 166.94C220.548 166.94 221.07 167.108 221.418 167.444C221.766 167.768 221.94 168.14 221.94 168.56Z" fill="#444444"/>
</svg>
