<svg width="512" height="512" viewBox="0 0 512 512" fill="none" xmlns="http://www.w3.org/2000/svg">
<path d="M188.632 0H0V39.954L188.632 163.54V0Z" fill="#41479B"/>
<path d="M0 136.598V188.632H79.419L0 136.598Z" fill="#41479B"/>
<path d="M0 323.367V375.4L79.419 323.367H0Z" fill="#41479B"/>
<path d="M512 39.954V0H323.368V163.54L512 39.954Z" fill="#41479B"/>
<path d="M512 375.4V323.367H432.581L512 375.4Z" fill="#41479B"/>
<path d="M323.368 348.461V512.001H512V472.047L323.368 348.461Z" fill="#41479B"/>
<path d="M512 188.632V136.598L432.581 188.632H512Z" fill="#41479B"/>
<path d="M0 472.047V512.001H188.632V348.461L0 472.047Z" fill="#41479B"/>
<path d="M512 472.047V432.119L344.465 323.37H393.961L512 399.99V375.403L432.581 323.37H512V296.422H296.421V512.001H323.368V348.461L512 472.047Z" fill="#F5F5F5"/>
<path d="M0 296.422V323.37H79.419L0 375.403V413.204L138.395 323.37H187.891L0 445.333V472.047L188.632 348.461V512.001H215.579V296.422H0Z" fill="#F5F5F5"/>
<path d="M215.579 0H188.632V163.54L0 39.954V83.679L161.684 188.632H112.188L0 115.807V136.598L79.419 188.632H0V215.579H215.579V0Z" fill="#F5F5F5"/>
<path d="M512 215.579V188.632H432.581L512 136.598V98.314L372.864 188.632H323.368L512 66.185V39.954L323.368 163.54V0H296.421V215.579H512Z" fill="#F5F5F5"/>
<path d="M512 296.421V215.579H296.421V0H215.579V215.579H0V296.421H215.579V512H296.421V296.421H512Z" fill="#FF4B55"/>
<path d="M138.395 323.367L0 413.201V445.33L187.891 323.367H138.395Z" fill="#FF4B55"/>
<path d="M344.465 323.367L512 432.116V399.987L393.961 323.367H344.465Z" fill="#FF4B55"/>
<path d="M161.684 188.633L0 83.6797V115.808L112.188 188.633H161.684Z" fill="#FF4B55"/>
<path d="M372.864 188.631L512 98.3126V66.1836L323.368 188.631H372.864Z" fill="#FF4B55"/>
</svg>
