<svg width="22" height="22" viewBox="0 0 22 22" fill="none" xmlns="http://www.w3.org/2000/svg">
<path d="M11.0001 0.0467834C4.92496 0.0467834 0 4.97174 0 11.0468C0 16.4955 3.96574 21.0079 9.16548 21.8817V13.3418H6.51194V10.2686H9.16548V8.00254C9.16548 5.37328 10.7713 3.94048 13.1172 3.94048C14.2407 3.94048 15.2062 4.0242 15.4865 4.06107V6.80935L13.8595 6.81014C12.584 6.81014 12.3381 7.41611 12.3381 8.30566V10.267H15.3815L14.9846 13.3402H12.3381V21.9552C17.7806 21.2928 22 16.6654 22 11.0437C22 4.97174 17.075 0.0467834 11.0001 0.0467834Z" fill="#444444"/>
</svg>
