<svg width="512" height="512" viewBox="0 0 512 512" fill="none" xmlns="http://www.w3.org/2000/svg">
<g clip-path="url(#clip0)">
<path d="M495.946 150.531C491.094 147.795 485.59 146.426 480.022 146.573C474.453 146.719 469.029 148.374 464.327 151.361L439.069 167.148C413.755 157.967 388.262 147.734 363.232 136.682C342.596 127.57 327.542 120.241 315.446 114.352C288.841 101.4 276.691 95.4739 255.8 95.9999C235.4 96.4999 223.552 102.849 203.923 113.36C192.356 119.554 177.96 127.26 156.75 136.686C129.607 148.74 101.689 158.968 73.1839 167.303L47.6729 151.361C42.9711 148.374 37.5467 146.719 31.9782 146.573C26.4097 146.426 20.9059 147.795 16.0539 150.531C11.1617 153.195 7.0845 157.137 4.25715 161.937C1.42981 166.736 -0.0416031 172.214 -0.000123196 177.784V272C-0.0168946 277.288 1.32011 282.492 3.8836 287.117C6.44709 291.742 10.1517 295.635 14.6449 298.423L63.9999 329.271V337.518C63.9882 343.372 65.2667 349.157 67.7443 354.461C70.2219 359.766 73.8378 364.459 78.3349 368.207C163.4 439.179 255.084 440 256 440C336.638 440 397.627 400.766 434.592 367.852C438.807 364.097 442.18 359.494 444.491 354.344C446.801 349.195 447.997 343.614 448 337.97V332.434L497.354 301.587C501.847 298.799 505.552 294.907 508.116 290.282C510.68 285.656 512.017 280.452 512 275.164V177.784C512.041 172.214 510.57 166.736 507.743 161.937C504.915 157.137 500.838 153.195 495.946 150.531V150.531ZM122.738 296.483C165.439 312.063 210.545 320.023 256 320C301.455 320.024 346.561 312.064 389.262 296.483L394.739 311.516C350.283 327.737 303.323 336.025 256 336C208.677 336.024 161.718 327.738 117.262 311.517L122.738 296.483ZM117.261 239.516L122.738 224.483C165.439 240.063 210.545 248.023 256 248C301.455 248.024 346.561 240.064 389.262 224.483L394.739 239.516C350.283 255.738 303.323 264.025 256 264C208.677 264.024 161.718 255.738 117.262 239.517L117.261 239.516ZM23.1249 284.854C20.939 283.497 19.1367 281.604 17.8895 279.354C16.6423 277.104 15.9918 274.572 15.9999 272V177.784C16 175.078 16.7245 172.422 18.0979 170.09C19.4714 167.759 21.4439 165.838 23.8106 164.526C26.1772 163.214 28.8519 162.56 31.5568 162.631C34.2617 162.702 36.8983 163.496 39.1929 164.93L63.9999 180.434V310.4L23.1249 284.854ZM496 275.164C496.008 277.736 495.358 280.268 494.111 282.518C492.863 284.768 491.061 286.662 488.875 288.018L448 313.565V180.434L472.807 164.934C475.101 163.5 477.737 162.706 480.442 162.635C483.147 162.564 485.821 163.218 488.187 164.529C490.554 165.84 492.527 167.761 493.9 170.092C495.274 172.422 495.999 175.078 496 177.784V275.164Z" fill="#D6D6D6"/>
</g>
<defs>
<clipPath id="clip0">
<rect width="512" height="512" fill="white"/>
</clipPath>
</defs>
</svg>
