<svg width="323" height="206" viewBox="0 0 323 206" fill="none" xmlns="http://www.w3.org/2000/svg">
<path d="M160.355 204.42C159.667 204.328 157.62 204.066 155.807 203.836C146.945 202.71 136.802 198.534 128.394 192.55C123.275 188.907 113.289 178.797 113.277 177.245C113.275 177.005 114.161 175.695 115.245 174.332C119.191 169.374 122.748 161.641 123.309 156.801C123.498 155.166 123.38 155.35 122.36 158.261C119.736 165.758 116.423 171.212 111.443 176.23C103.029 184.709 93.0627 188.811 80.8752 188.811C76.2564 188.812 74.5348 188.627 71.2422 187.78C63.3834 185.758 57.0709 182.244 51.4517 176.762C43.3314 168.841 38.8263 158.724 38.4434 147.55L38.3244 144.07L42.5409 142.658C46.2076 141.431 50.4946 139.379 50.4905 138.853C50.4898 138.758 49.7887 138.991 48.9324 139.37C40.0393 143.317 31.6314 143.865 23.2057 141.044C12.3211 137.4 4.76025 129.279 1.73157 117.976C0.785587 114.447 0.676727 113.368 0.823733 108.983C0.948099 105.268 1.24449 103.186 1.98824 100.804C4.79267 91.8188 11.0454 84.4761 19.3416 80.4251C22.2113 79.0238 26.9053 77.4359 28.2081 77.4257C28.4094 77.4241 28.8171 78.6491 29.1148 80.1483C29.4124 81.6474 30.138 83.7433 30.7275 84.806C31.3169 85.8685 31.6794 86.3652 31.5328 85.9098C28.9963 78.0329 29.7111 70.3012 33.5615 63.9726C37.4206 57.6298 45.9247 52.8084 53.3565 52.7501C58.5571 52.7093 65.3445 55.3873 69.4181 59.0871C72.6877 62.0564 74.7073 65.1105 76.4563 69.7298C77.4493 72.3529 77.8101 73.0007 77.6367 71.849C76.8567 66.6653 74.9455 62.7531 71.0069 58.2772L68.8958 55.8782L69.0671 50.4047C69.2023 46.1268 69.476 44.1136 70.3248 41.1868C76.3665 20.3542 97.0709 8.61083 118.539 13.84C131.018 16.8795 141.814 25.7921 147.596 37.8267C148.374 39.4464 149.082 40.6998 149.169 40.6119C149.475 40.3016 146.712 33.8684 145.254 31.4976C144.441 30.1758 143.775 28.9557 143.773 28.7862C143.769 28.2729 147.528 24.898 150.444 22.7966C154.234 20.0657 161.885 16.4436 166.371 15.2569C171.556 13.8851 180.59 13.8147 185.508 15.1069C203.451 19.8249 213.194 36.6769 207.621 53.3574C207.155 54.751 206.423 56.6412 205.993 57.5578C205.371 58.8832 205.351 59.0533 205.892 58.389C207.268 56.7021 209.372 51.6581 210.037 48.4477C210.721 45.1517 210.724 45.1471 213.198 43.3024C218.621 39.2581 224.552 36.6254 231.15 35.3337C235.594 34.4634 243.907 34.6044 247.714 35.6144C254.495 37.4136 260.807 40.8099 265.701 45.2929C269.798 49.0465 272.36 52.4035 274.652 57.0196C280.058 67.9105 280.434 79.4591 275.765 91.2392C275.179 92.7167 274.764 93.9885 274.843 94.0656C275.119 94.3366 278.34 87.2694 278.851 85.2695L279.369 83.2436L283.541 83.4286C288.643 83.6553 291.672 84.4058 296.177 86.5601C304.253 90.4214 310.2 97.7017 312.497 106.539C313.473 110.293 313.532 116.766 312.627 120.652C310.704 128.896 304.982 136.275 297.359 140.345C293.012 142.665 290.026 143.479 284.722 143.79C278.296 144.166 274.277 143.345 268.503 140.479C266.131 139.301 264.191 138.386 264.192 138.446C264.194 138.772 269.474 142.113 271.087 142.809C272.128 143.259 272.982 143.785 272.983 143.978C272.991 145.033 271.08 150.461 269.72 153.243C264.531 163.861 255.688 171.14 243.994 174.421C240.633 175.364 230.93 175.526 226.984 174.706C222.354 173.742 213.619 170.273 213.612 169.395C213.611 169.186 213.9 167.647 214.255 165.974C214.986 162.523 215.078 152.857 214.408 149.859C214.063 148.318 213.993 149.005 214.006 153.806C214.025 160.534 213.607 163.988 212.152 169.142C206.447 189.35 188.327 203.372 166.644 204.357C163.874 204.483 161.045 204.511 160.357 204.426L160.355 204.42ZM123.758 153.588C123.618 153.451 123.522 153.696 123.544 154.135C123.567 154.618 123.666 154.716 123.797 154.384C123.915 154.083 123.897 153.725 123.757 153.588L123.758 153.588Z" fill="#444444"/>
<path d="M167.355 196.42C166.667 196.328 164.62 196.066 162.807 195.836C153.945 194.71 143.802 190.534 135.394 184.55C130.275 180.907 120.289 170.797 120.277 169.245C120.275 169.005 121.161 167.695 122.245 166.332C126.191 161.374 129.748 153.641 130.309 148.801C130.498 147.166 130.38 147.35 129.36 150.261C126.736 157.758 123.423 163.212 118.443 168.23C110.029 176.709 100.063 180.811 87.8752 180.811C83.2564 180.812 81.5348 180.627 78.2422 179.78C70.3834 177.758 64.0709 174.244 58.4517 168.762C50.3314 160.841 45.8263 150.724 45.4434 139.55L45.3244 136.07L49.5409 134.658C53.2076 133.431 57.4946 131.379 57.4905 130.853C57.4898 130.758 56.7887 130.991 55.9324 131.37C47.0393 135.317 38.6314 135.865 30.2057 133.044C19.3211 129.4 11.7602 121.279 8.73157 109.976C7.78559 106.447 7.67673 105.368 7.82373 100.983C7.9481 97.2682 8.24449 95.1862 8.98824 92.8037C11.7927 83.8188 18.0454 76.4761 26.3416 72.4251C29.2113 71.0238 33.9053 69.4359 35.2081 69.4257C35.4094 69.4241 35.8171 70.6491 36.1148 72.1483C36.4124 73.6474 37.138 75.7433 37.7275 76.806C38.3169 77.8685 38.6794 78.3652 38.5328 77.9098C35.9963 70.0329 36.7111 62.3012 40.5615 55.9726C44.4206 49.6298 52.9247 44.8084 60.3565 44.7501C65.5571 44.7093 72.3445 47.3873 76.4181 51.0871C79.6877 54.0564 81.7073 57.1105 83.4563 61.7298C84.4493 64.3529 84.8101 65.0007 84.6367 63.849C83.8567 58.6653 81.9455 54.7531 78.0069 50.2772L75.8958 47.8782L76.0671 42.4047C76.2023 38.1268 76.476 36.1136 77.3248 33.1868C83.3665 12.3542 104.071 0.610831 125.539 5.84002C138.018 8.87953 148.814 17.7921 154.596 29.8267C155.374 31.4464 156.082 32.6998 156.169 32.6119C156.475 32.3016 153.712 25.8684 152.254 23.4976C151.441 22.1758 150.775 20.9557 150.773 20.7862C150.769 20.2729 154.528 16.898 157.444 14.7966C161.234 12.0657 168.885 8.44362 173.371 7.25694C178.556 5.88513 187.59 5.8147 192.508 7.10694C210.451 11.8249 220.194 28.6769 214.621 45.3574C214.155 46.751 213.423 48.6412 212.993 49.5578C212.371 50.8832 212.351 51.0533 212.892 50.389C214.268 48.7021 216.372 43.6581 217.037 40.4477C217.721 37.1517 217.724 37.1471 220.198 35.3024C225.621 31.2581 231.552 28.6254 238.15 27.3337C242.594 26.4634 250.907 26.6044 254.714 27.6144C261.495 29.4136 267.807 32.8099 272.701 37.2929C276.798 41.0465 279.36 44.4035 281.652 49.0196C287.058 59.9105 287.434 71.4591 282.765 83.2392C282.179 84.7167 281.764 85.9885 281.843 86.0656C282.119 86.3366 285.34 79.2694 285.851 77.2695L286.369 75.2436L290.541 75.4286C295.643 75.6553 298.672 76.4058 303.177 78.5601C311.253 82.4214 317.2 89.7017 319.497 98.5385C320.473 102.293 320.532 108.766 319.627 112.652C317.704 120.896 311.982 128.275 304.359 132.345C300.012 134.665 297.026 135.479 291.722 135.79C285.296 136.166 281.277 135.345 275.503 132.479C273.131 131.301 271.191 130.386 271.192 130.446C271.194 130.772 276.474 134.113 278.087 134.809C279.128 135.259 279.982 135.785 279.983 135.978C279.991 137.033 278.08 142.461 276.72 145.243C271.531 155.861 262.688 163.14 250.994 166.421C247.633 167.364 237.93 167.526 233.984 166.706C229.354 165.742 220.619 162.273 220.612 161.395C220.611 161.186 220.9 159.647 221.255 157.974C221.986 154.523 222.078 144.857 221.408 141.859C221.063 140.318 220.993 141.005 221.006 145.806C221.025 152.534 220.607 155.988 219.152 161.142C213.447 181.35 195.327 195.372 173.644 196.357C170.874 196.483 168.045 196.511 167.357 196.426L167.355 196.42ZM130.758 145.588C130.618 145.451 130.522 145.696 130.544 146.135C130.567 146.618 130.666 146.716 130.797 146.384C130.915 146.083 130.897 145.725 130.757 145.588L130.758 145.588Z" fill="#F0F0F0" stroke="#444444" stroke-width="4" stroke-linecap="round" stroke-linejoin="round"/>
</svg>
