<svg width="22" height="22" viewBox="0 0 22 22" fill="none" xmlns="http://www.w3.org/2000/svg">
<path d="M18.529 16.2826C19.8533 14.5166 19.7131 11.9931 18.1079 10.3879C17.7322 10.0122 17.3061 9.717 16.8513 9.50177V5.53382L11.3175 0H0.00756836V22H16.8513V17.6545C17.1179 17.5284 17.3745 17.3747 17.6169 17.1935L21.0766 20.6915L21.9932 19.785L18.529 16.2826ZM11.6951 2.20056L14.6508 5.15625H11.6951V2.20056ZM15.5623 20.7109H1.29663V1.28906H10.406V6.44531H15.5623V9.11445C14.2029 8.91984 12.771 9.34429 11.7275 10.3879C9.96837 12.147 9.96837 15.0093 11.7275 16.7684C12.7589 17.7998 14.1852 18.2389 15.5623 18.0418V20.7109ZM17.1965 15.8569C15.94 17.1133 13.8955 17.1133 12.639 15.8569C11.3825 14.6004 11.3825 12.5559 12.639 11.2994C13.8955 10.0429 15.9399 10.0428 17.1965 11.2994C18.453 12.5559 18.453 14.6004 17.1965 15.8569Z" fill="#444444"/>
<path d="M11.6948 7.77734H2.58545V9.06641H11.6948V7.77734Z" fill="#444444"/>
<path d="M9.1167 10.3555H2.58545V11.6445H9.1167V10.3555Z" fill="#444444"/>
<path d="M9.1167 15.5117H2.58545V16.8008H9.1167V15.5117Z" fill="#444444"/>
<path d="M9.1167 12.9336H2.58545V14.2227H9.1167V12.9336Z" fill="#444444"/>
</svg>
