<svg width="512" height="512" viewBox="0 0 512 512" fill="none" xmlns="http://www.w3.org/2000/svg">
<path d="M380.957 136C360.344 136 340.848 140.375 323.5 148.184C280.609 167.484 231.391 167.484 188.5 148.184C171.152 140.375 151.656 136 131.043 136C58.6758 136 0 190.035 0 256.684C0 323.336 58.6758 377.371 131.043 377.371C151.656 377.371 171.152 372.996 188.5 365.188C231.391 345.887 280.609 345.887 323.5 365.188C340.848 372.996 360.344 377.371 380.957 377.371C453.324 377.371 512 323.336 512 256.684C512 190.035 453.324 136 380.957 136V136ZM435.434 279.301C397.609 311.023 332.094 287.254 300.789 272.867C292.301 268.965 291.293 257.367 298.91 251.973C374.293 198.652 428.246 219.652 441.488 240.922C449.254 253.391 446.684 269.867 435.434 279.301ZM208.051 272.867C176.746 287.254 111.23 311.023 73.4102 279.301C62.1602 269.867 59.5859 253.391 67.3516 240.922C80.5977 219.652 134.547 198.652 209.918 251.973C217.547 257.367 216.543 268.965 208.051 272.867Z" fill="#FFC14F"/>
<path d="M380.957 168.531C365.434 168.531 350.598 171.672 336.848 177.852C311.285 189.363 284.082 195.199 256 195.199C227.918 195.199 200.715 189.363 175.152 177.852C161.402 171.672 146.566 168.531 131.043 168.531C120.652 168.531 110.641 169.98 101.238 172.656C61.4453 183.98 32.5312 217.375 32.5312 256.684C32.5312 297.309 63.4062 331.605 105.258 341.773C113.477 343.77 122.125 344.84 131.043 344.84C146.566 344.84 161.402 341.699 175.152 335.52C200.715 324.008 227.918 318.172 256 318.172C284.082 318.172 311.285 324.008 336.848 335.52C350.598 341.699 365.434 344.84 380.957 344.84C435.277 344.84 479.469 305.297 479.469 256.684C479.469 208.074 435.277 168.531 380.957 168.531V168.531ZM208.051 272.867C176.746 287.254 111.23 311.023 73.4102 279.301C67.3828 274.254 63.8477 267.168 63.0508 259.77C63.0391 259.762 63.0391 259.738 63.0508 259.73C62.8633 257.914 62.8281 256.078 62.9883 254.25C63.332 249.633 64.7695 245.059 67.3516 240.922C80.5977 219.652 134.547 198.652 209.918 251.973C217.547 257.367 216.543 268.965 208.051 272.867ZM435.434 279.301C397.609 311.023 332.094 287.254 300.789 272.867C292.301 268.965 291.293 257.367 298.91 251.973C374.293 198.652 428.246 219.652 441.488 240.922C449.254 253.391 446.684 269.867 435.434 279.301Z" fill="#4172CC"/>
<path d="M380.957 168.531C365.434 168.531 350.598 171.672 336.848 177.852C311.285 189.363 284.082 195.199 256 195.199C227.918 195.199 200.715 189.363 175.152 177.852C161.402 171.672 146.566 168.531 131.043 168.531C120.652 168.531 110.641 169.98 101.238 172.656C78.2891 191.598 63.375 221.098 62.9883 254.25C63.332 249.633 64.7695 245.059 67.3516 240.922C80.5977 219.652 134.547 198.652 209.918 251.973C217.547 257.367 216.543 268.965 208.051 272.867C176.746 287.254 111.23 311.023 73.4102 279.301C67.3828 274.254 63.8477 267.168 63.0508 259.77C64.2773 293.688 80.7031 323.523 105.258 341.773C113.477 343.77 122.125 344.84 131.043 344.84C146.566 344.84 161.402 341.699 175.152 335.52C200.715 324.008 227.918 318.172 256 318.172C284.082 318.172 311.285 324.008 336.848 335.52C350.598 341.699 365.434 344.84 380.957 344.84C435.277 344.84 479.469 305.297 479.469 256.684C479.469 208.074 435.277 168.531 380.957 168.531V168.531ZM435.434 279.301C397.609 311.023 332.094 287.254 300.789 272.867C292.301 268.965 291.293 257.367 298.91 251.973C374.293 198.652 428.246 219.652 441.488 240.922C449.254 253.391 446.684 269.867 435.434 279.301Z" fill="#6990D7"/>
</svg>
