<svg width="278" height="371" viewBox="0 0 278 371" fill="none" xmlns="http://www.w3.org/2000/svg">
<path d="M183.845 1.27556C157.845 2.67556 129.345 4.47556 112.845 5.67556C106.545 6.17556 93.6453 6.57556 84.3453 6.57556C72.4453 6.67556 66.8453 7.07556 66.0453 7.87556C65.3453 8.57556 64.8453 11.9756 64.8453 16.2756V23.5756L40.1453 23.3756L15.3453 23.1756L14.7453 49.1756C13.3453 106.976 9.84526 171.576 6.94526 194.676C4.14526 216.676 4.04526 218.476 1.84526 266.776C-0.354741 314.576 -0.454741 324.776 0.845259 341.176C2.44526 360.176 5.94526 367.476 14.0453 369.476C16.8453 370.176 48.6453 370.676 103.845 370.776C188.945 371.076 189.545 371.076 231.345 368.276C254.445 366.676 274.445 364.976 275.745 364.476C277.345 363.876 277.845 363.176 277.445 362.076C276.845 360.576 276.145 320.976 273.945 175.676C273.145 126.076 273.345 112.976 275.145 68.7756C276.545 34.5756 276.845 17.8756 276.145 16.7756C275.245 15.3756 272.345 15.2756 252.345 15.5756L229.645 15.8756L229.945 8.57556L230.345 1.17556L223.845 0.575556C214.845 -0.324444 209.645 -0.224444 183.845 1.27556ZM224.845 16.9756C224.845 23.2756 225.145 33.1756 225.545 39.0756L226.145 49.7756L206.245 49.1756C194.345 48.7756 180.145 48.8756 170.845 49.5756C162.345 50.1756 144.745 51.3756 131.845 52.1756C118.945 52.9756 102.545 54.0756 95.4453 54.6756C88.2453 55.1756 79.4453 55.6756 75.7453 55.6756H69.0453L69.5453 34.8756C69.7453 23.4756 70.1453 13.5756 70.3453 12.8756C70.6453 11.9756 75.0453 11.6756 87.5453 11.5756C96.7453 11.5756 109.545 11.1756 115.845 10.6756C126.645 9.87556 145.945 8.57556 176.845 6.77556C184.245 6.37556 198.145 5.87556 207.645 5.77556L224.845 5.67556V16.9756ZM271.845 24.8756C271.845 27.7756 270.945 48.3756 269.845 70.6756C267.845 113.776 267.845 116.276 270.845 300.176C271.345 332.576 271.445 359.476 271.045 359.776C270.645 360.076 251.045 361.576 227.345 363.076C184.545 365.876 183.945 365.876 99.6453 365.376C43.8453 364.976 14.3453 364.476 13.0453 363.776C8.64526 361.376 5.74526 348.176 6.04526 331.176C6.14526 325.076 6.34526 322.676 6.54526 325.676C7.24526 337.476 8.84526 350.376 10.3453 355.376C11.9453 360.776 15.1453 363.776 17.0453 361.876C17.7453 361.176 17.3453 360.476 15.9453 359.776C11.6453 357.476 8.74526 337.576 8.74526 311.976C8.84526 304.676 8.44526 298.576 7.94526 298.176C7.44526 297.876 6.74526 298.876 6.54526 300.376C5.64526 306.676 5.94526 291.176 7.34526 261.976C9.24526 221.376 9.54526 217.676 12.3453 194.176C13.7453 182.576 15.4453 159.976 16.3453 140.176C17.1453 121.476 18.3453 96.3756 18.9453 84.4756C19.5453 72.4756 20.0453 54.7756 20.0453 45.1756L19.9453 27.6756H29.6453C34.9453 27.6756 45.1453 27.9756 52.1453 28.3756L64.9453 28.9756L64.6453 35.0756L64.3453 41.1756L54.5453 41.7756C49.2453 42.1756 44.1453 42.9756 43.3453 43.6756C42.1453 44.6756 41.8453 48.5756 41.8453 66.0756C41.8453 77.6756 41.4453 93.2756 40.8453 100.676C38.7453 130.876 37.6453 162.176 37.4453 198.676C37.2453 223.576 36.5453 244.276 35.4453 257.176C34.5453 268.176 33.5453 292.576 33.1453 311.376C32.6453 340.376 32.7453 345.676 33.9453 345.676C34.7453 345.676 44.8453 345.976 56.3453 346.376C89.9453 347.476 121.945 347.176 157.345 345.376C175.545 344.376 198.945 343.176 209.345 342.676C228.045 341.676 244.045 339.676 249.445 337.676L252.145 336.576L251.445 317.876C251.045 307.576 250.545 296.476 250.345 293.176C250.045 289.876 249.445 278.376 248.845 267.676C248.345 256.976 247.445 240.276 246.845 230.676C245.245 201.576 245.145 116.076 246.745 92.6756C247.545 81.3756 248.145 64.4756 248.245 55.1756L248.345 38.1756L239.745 37.8756C229.745 37.5756 229.845 37.6756 229.845 26.8756V20.6756H245.345C258.645 20.6756 260.745 20.8756 260.245 22.1756C259.745 23.3756 260.545 23.6756 264.345 23.6756C266.845 23.6756 268.745 24.0756 268.445 24.4756C267.545 25.9756 267.545 49.1756 268.445 49.4756C269.845 49.8756 270.945 22.5756 269.645 20.9756C268.845 19.9756 269.045 19.6756 270.245 19.6756C271.545 19.6756 271.845 20.7756 271.845 24.8756ZM243.845 49.8756C243.745 53.8756 243.345 64.5756 242.845 73.6756C239.845 126.976 239.745 135.676 240.745 186.176C241.345 214.176 242.245 243.476 242.845 251.176C244.145 270.676 245.845 300.376 246.545 318.276L247.145 333.376L240.745 334.576C230.845 336.276 216.945 337.476 199.345 338.176C190.545 338.476 170.345 339.476 154.345 340.376C119.845 342.176 87.0453 342.476 58.6453 341.276L37.8453 340.376V322.276C37.8453 302.576 39.0453 276.476 41.3453 245.176C42.2453 232.576 42.7453 213.076 42.6453 192.676C42.5453 164.576 44.0453 124.976 46.3453 94.1756C46.6453 90.2756 47.0453 78.2756 47.1453 67.4756L47.3453 47.8756L50.2453 47.2756C51.8453 46.9756 55.6453 46.6756 58.7453 46.6756H64.3453V53.8756V61.1756L73.3453 60.8756C84.4453 60.5756 122.945 58.1756 151.845 56.0756C175.245 54.2756 217.845 53.9756 224.445 55.4756C230.745 56.8756 231.745 55.8756 231.145 48.6756L230.545 42.6756H237.245H243.845V49.8756Z" fill="#444444"/>
<path d="M100.346 86.6754C95.0455 91.9754 92.1455 94.2754 91.3455 93.6754C90.6455 93.1754 84.2455 93.0754 75.4455 93.4754L60.7455 94.1754L60.2455 110.875C60.0455 120.075 60.1455 127.775 60.5455 127.975C61.7455 128.575 89.1455 126.575 90.7455 125.775C91.9455 125.175 92.1455 122.775 91.9455 113.975L91.7455 102.875L101.846 92.2754C108.646 85.2754 111.846 81.1754 111.446 80.1754C110.446 77.3754 108.346 78.5754 100.346 86.6754ZM86.8455 99.8754C86.8455 100.575 85.4455 102.775 83.8455 104.675C81.1455 107.775 80.7455 107.975 79.7455 106.375C78.6455 104.475 76.3455 104.075 75.3455 105.775C74.3455 107.375 77.7455 115.675 79.4455 115.675C80.2455 115.675 82.2455 114.175 83.8455 112.375L86.7455 109.175L86.8455 114.875C86.8455 117.975 86.5455 120.775 86.1455 120.975C85.6455 121.275 80.6455 121.775 75.0455 122.175L64.6455 122.975L65.2455 116.575C65.5455 113.075 65.7455 107.575 65.8455 104.375V98.6754H76.3455C84.0455 98.6754 86.8455 98.9754 86.8455 99.8754Z" fill="#444444"/>
<path d="M113.346 100.176C111.546 102.076 109.346 105.576 108.646 107.876C107.746 110.476 106.246 112.676 104.746 113.376C102.046 114.776 101.646 116.576 103.846 117.676C104.646 118.076 106.846 119.176 108.646 120.076C112.946 122.376 116.246 121.576 123.146 116.676C128.346 113.076 128.646 112.976 129.146 114.876C129.646 116.776 130.146 116.876 135.046 116.176C143.246 114.876 178.646 115.476 195.346 117.076C206.746 118.176 210.546 118.276 211.046 117.376C213.246 113.876 206.346 112.376 179.346 110.776C153.946 109.176 142.846 109.176 138.546 110.576C136.446 111.276 134.446 111.576 134.146 111.276C133.846 110.976 134.346 108.876 135.346 106.776C137.046 102.976 136.946 99.6757 135.146 99.6757C134.646 99.6757 131.346 102.576 127.646 106.076C122.146 111.476 114.646 116.676 112.346 116.676C111.146 116.676 112.046 114.776 115.846 109.776C120.446 103.676 121.646 100.276 119.846 98.1757C118.046 95.9757 116.946 96.2757 113.346 100.176Z" fill="#444444"/>
<path d="M158.346 135.676C139.246 136.676 71.1457 138.576 63.8457 138.376C58.9457 138.176 58.3457 138.376 58.3457 140.176C58.3457 141.876 59.3457 142.276 64.8457 143.076C71.3457 143.876 118.046 142.676 163.846 140.476C176.746 139.876 195.246 139.676 205.046 139.976C219.846 140.476 222.846 140.376 223.846 139.176C224.746 138.076 224.746 137.276 224.046 136.376C222.746 134.876 182.846 134.376 158.346 135.676Z" fill="#444444"/>
<path d="M97.2457 156.076C91.4457 161.276 91.1457 161.376 89.9457 159.476C88.8457 157.676 87.8457 157.576 76.2457 157.876C69.3457 158.176 63.3457 158.776 62.9457 159.276C62.4457 159.776 61.8457 167.376 61.6457 176.176L61.3457 192.176L72.7457 192.476C79.1457 192.576 84.8457 193.276 85.5457 193.876C86.4457 194.576 87.2457 194.576 88.3457 193.676C89.5457 192.676 89.8457 189.976 89.8457 181.076V169.776L98.3457 161.976C106.646 154.376 108.746 150.676 105.046 150.676C104.046 150.676 100.446 153.076 97.2457 156.076ZM84.8457 165.076C84.8457 167.276 80.2457 173.676 78.6457 173.676C78.3457 173.676 77.8457 172.676 77.6457 171.476C77.3457 168.876 74.3457 167.876 73.5457 169.976C72.8457 171.776 74.9457 180.976 76.2457 181.876C76.8457 182.276 79.0457 180.976 81.0457 178.976L84.8457 175.276V181.376C84.8457 184.776 84.5457 187.776 84.1457 187.976C83.6457 188.176 79.3457 188.176 74.5457 187.876L65.7457 187.376L66.2457 179.776C66.5457 175.576 66.7457 170.276 66.8457 167.976V163.776L71.6457 163.376C84.2457 162.376 84.8457 162.476 84.8457 165.076Z" fill="#444444"/>
<path d="M127.446 169.175C124.146 174.875 112.846 186.675 110.746 186.675C110.246 186.675 111.246 183.875 112.846 180.375C115.846 174.075 116.546 170.275 114.946 169.275C112.946 167.975 110.646 170.175 107.846 175.775C104.146 182.975 103.746 189.975 106.846 191.675C109.246 192.975 113.846 191.275 118.446 187.375L121.646 184.675L123.346 187.275C124.746 189.475 125.546 189.775 128.046 189.275C129.746 188.975 133.346 187.075 136.046 185.075C139.746 182.475 141.346 181.875 142.346 182.675C143.246 183.475 146.246 183.375 152.946 182.475C163.746 180.975 187.046 180.775 200.646 182.075C209.546 182.875 209.846 182.775 209.846 180.875C209.846 178.275 208.846 177.975 195.946 176.675C179.446 175.075 156.846 175.775 148.646 178.275C147.246 178.675 147.046 178.275 147.546 175.275C148.046 172.075 147.846 171.675 145.846 171.675C144.546 171.675 141.046 174.075 137.146 177.675C133.546 180.975 129.946 183.675 129.246 183.675C126.246 183.675 128.146 177.475 133.246 169.975C136.246 165.475 136.146 162.675 133.046 162.675C131.946 162.675 129.946 164.975 127.446 169.175Z" fill="#444444"/>
<path d="M120.345 206.776C111.545 207.276 93.7452 207.876 80.8452 208.176C58.8452 208.576 57.3452 208.776 57.0452 210.576C56.8452 211.776 57.5452 212.576 59.0452 213.076C62.7452 213.976 91.3452 213.676 102.345 212.576C107.845 211.976 137.545 211.376 168.345 211.176C201.645 210.976 224.445 210.476 224.645 209.876C224.745 209.376 224.145 208.376 223.245 207.576C221.845 206.476 213.845 206.176 178.945 206.076C155.545 205.976 129.145 206.276 120.345 206.776Z" fill="#444444"/>
<path d="M103.246 228.676C98.9458 233.876 96.2458 236.276 95.7458 235.576C94.6458 233.776 64.4458 232.976 63.3458 234.776C62.5458 235.976 60.4458 269.576 61.0458 270.176C61.5458 270.676 92.7458 271.076 93.2458 270.576C93.4458 270.376 94.1458 264.376 94.7458 257.276L95.8458 244.476L102.446 237.276C111.546 227.476 114.146 223.976 113.446 222.176C112.346 219.276 109.946 220.776 103.246 228.676ZM90.8458 240.576C90.8458 242.176 82.1458 251.576 81.6458 250.576C81.4458 250.376 80.8458 249.276 80.2458 248.176C79.6458 247.076 78.5458 246.176 77.7458 246.176C75.7458 246.176 76.1458 256.376 78.1458 258.376C79.5458 259.776 80.2458 259.376 84.7458 255.176L89.8458 250.376V254.876C89.8458 257.376 89.5458 260.876 89.2458 262.576L88.6458 265.676H77.4458H66.2458L66.6458 253.376C66.8458 246.676 67.1458 240.576 67.4458 239.876C67.7458 238.876 70.6458 238.576 79.3458 238.776C89.2458 238.976 90.8458 239.176 90.8458 240.576Z" fill="#444444"/>
<path d="M115.045 240.276C113.145 241.176 108.245 248.676 106.845 253.176C106.145 255.376 104.445 258.676 103.045 260.476C100.745 263.576 100.645 263.876 102.145 265.476C103.345 266.676 104.145 266.776 104.945 265.976C105.745 265.176 106.745 265.276 108.745 266.476C112.245 268.376 115.145 267.676 121.845 263.176C127.045 259.676 127.145 259.676 128.545 261.676C130.245 264.076 133.145 264.176 138.945 262.076C143.745 260.376 156.045 259.776 193.345 259.276C214.045 259.076 215.345 258.976 215.345 257.176C215.345 255.976 214.245 254.976 212.345 254.476C210.645 253.976 194.645 253.876 176.145 254.176C147.145 254.776 142.245 255.076 137.945 256.676C135.245 257.776 132.845 258.376 132.545 258.076C131.845 257.376 133.745 251.976 135.945 248.276C136.945 246.676 137.445 244.776 137.145 244.076C136.045 241.176 133.045 242.776 129.745 247.776C124.745 255.576 113.545 263.676 111.045 261.276C110.745 260.876 110.845 259.976 111.345 259.276C120.345 247.376 122.845 240.376 118.345 239.976C117.245 239.876 115.745 240.076 115.045 240.276Z" fill="#444444"/>
<path d="M219.745 281.075C219.545 281.275 201.845 281.775 180.345 282.075C158.945 282.475 132.545 283.175 121.845 283.675C111.145 284.275 92.0451 284.675 79.5451 284.675H56.7451L57.0451 286.875C57.3451 289.075 57.7451 289.175 71.8451 289.675C86.2451 290.175 86.3451 290.175 78.6451 290.975C64.6451 292.475 69.8451 293.775 89.1451 293.575C109.145 293.375 114.845 292.875 114.845 291.575C114.845 291.075 108.445 290.575 100.645 290.575C78.6451 290.275 132.445 288.075 181.745 287.175C213.145 286.675 221.645 286.275 222.745 285.175C223.945 283.975 223.945 283.475 222.845 282.275C221.645 280.675 220.545 280.275 219.745 281.075Z" fill="#444444"/>
</svg>
