<svg width="436" height="97" viewBox="0 0 436 97" fill="none" xmlns="http://www.w3.org/2000/svg">
<path fill-rule="evenodd" clip-rule="evenodd" d="M284.132 0H283.132V97H284.132V0ZM0.960001 38.072L9.312 29.48L24.816 47H26.112L10.032 28.808L25.008 13.4H23.712L0.960001 36.776V13.4H0V47H0.960001V38.072ZM48.5933 35.144L57.1373 47H58.3372L49.6012 34.904C52.2253 34.232 54.2573 33 55.6973 31.208C57.1373 29.384 57.8573 27.128 57.8573 24.44C57.8573 20.952 56.6893 18.248 54.3533 16.328C52.0173 14.376 48.7853 13.4 44.6572 13.4H33.2812V47H34.2412V35.48H44.6572C46.1613 35.48 47.4733 35.368 48.5933 35.144ZM53.7293 31.928C51.6493 33.688 48.6572 34.568 44.7533 34.568H34.2412V14.312H44.7533C48.6572 14.312 51.6493 15.192 53.7293 16.952C55.8413 18.712 56.8973 21.208 56.8973 24.44C56.8973 27.672 55.8413 30.168 53.7293 31.928ZM90.0566 47V46.088H65.0006L89.5766 14.12V13.4H63.8966V14.312H88.2326L63.6566 46.28V47H90.0566ZM107.033 47V35.576L120.713 13.4H119.609L106.553 34.568L93.4969 13.4H92.3929L106.073 35.576V47H107.033ZM128.235 45.848C130.379 46.712 132.667 47.144 135.099 47.144C137.659 47.144 139.787 46.776 141.483 46.04C143.211 45.272 144.491 44.248 145.323 42.968C146.155 41.688 146.571 40.28 146.571 38.744C146.571 36.824 146.075 35.304 145.083 34.184C144.091 33.032 142.875 32.184 141.435 31.64C139.995 31.064 138.059 30.472 135.627 29.864C133.291 29.288 131.435 28.744 130.059 28.232C128.683 27.72 127.531 26.952 126.603 25.928C125.675 24.872 125.211 23.48 125.211 21.752C125.211 19.544 126.091 17.736 127.851 16.328C129.611 14.888 132.171 14.168 135.531 14.168C137.099 14.168 138.683 14.424 140.283 14.936C141.915 15.416 143.387 16.136 144.699 17.096L145.227 16.328C143.979 15.4 142.491 14.664 140.763 14.12C139.035 13.544 137.275 13.256 135.483 13.256C132.987 13.256 130.891 13.64 129.195 14.408C127.499 15.176 126.251 16.2 125.451 17.48C124.651 18.76 124.251 20.168 124.251 21.704C124.251 23.656 124.747 25.224 125.739 26.408C126.763 27.56 127.995 28.424 129.435 29C130.875 29.544 132.827 30.12 135.291 30.728C137.595 31.272 139.419 31.8 140.763 32.312C142.139 32.824 143.291 33.592 144.219 34.616C145.147 35.64 145.611 37.016 145.611 38.744C145.611 40.952 144.715 42.76 142.923 44.168C141.163 45.544 138.539 46.232 135.051 46.232C132.779 46.232 130.635 45.816 128.619 44.984C126.603 44.12 125.051 43.048 123.963 41.768L123.291 42.392C124.443 43.8 126.091 44.952 128.235 45.848ZM178.135 47V46.088H153.079L177.655 14.12V13.4H151.975V14.312H176.311L151.735 46.28V47H178.135ZM180.183 14.312H192.663V47H193.623V14.312H206.103V13.4H180.183V14.312ZM217.099 44.936C219.723 46.408 222.651 47.144 225.883 47.144C229.115 47.144 232.043 46.408 234.667 44.936C237.291 43.464 239.355 41.448 240.859 38.888C242.363 36.296 243.115 33.4 243.115 30.2C243.115 27 242.363 24.12 240.859 21.56C239.355 18.968 237.291 16.936 234.667 15.464C232.043 13.992 229.115 13.256 225.883 13.256C222.651 13.256 219.723 13.992 217.099 15.464C214.475 16.936 212.411 18.968 210.907 21.56C209.403 24.12 208.651 27 208.651 30.2C208.651 33.4 209.403 36.296 210.907 38.888C212.411 41.448 214.475 43.464 217.099 44.936ZM234.139 44.168C231.675 45.544 228.923 46.232 225.883 46.232C222.843 46.232 220.075 45.544 217.579 44.168C215.115 42.76 213.163 40.84 211.723 38.408C210.315 35.944 209.611 33.208 209.611 30.2C209.611 27.192 210.315 24.472 211.723 22.04C213.163 19.576 215.115 17.656 217.579 16.28C220.075 14.872 222.843 14.168 225.883 14.168C228.923 14.168 231.675 14.872 234.139 16.28C236.635 17.656 238.587 19.576 239.995 22.04C241.435 24.472 242.155 27.192 242.155 30.2C242.155 33.208 241.435 35.944 239.995 38.408C238.587 40.84 236.635 42.76 234.139 44.168ZM253.288 30.44V14.312H273.976V13.4H252.328V47H253.288V31.352H271.816V30.44H253.288ZM95.187 72.144L103.731 84H104.931L96.195 71.904C98.819 71.232 100.851 70 102.291 68.208C103.731 66.384 104.451 64.128 104.451 61.44C104.451 57.952 103.283 55.248 100.947 53.328C98.611 51.376 95.379 50.4 91.251 50.4H79.875V84H80.835V72.48H91.251C92.755 72.48 94.067 72.368 95.187 72.144ZM100.323 68.928C98.243 70.688 95.251 71.568 91.347 71.568H80.835V51.312H91.347C95.251 51.312 98.243 52.192 100.323 53.952C102.435 55.712 103.491 58.208 103.491 61.44C103.491 64.672 102.435 67.168 100.323 68.928ZM136.602 84V83.088H115.194V67.392H133.722V66.48H115.194V51.312H135.882V50.4H114.234V84H136.602ZM167.369 53.328C165.033 51.376 161.801 50.4 157.673 50.4H146.297V84H147.257V72.48H157.673C161.801 72.48 165.033 71.52 167.369 69.6C169.705 67.648 170.873 64.928 170.873 61.44C170.873 57.952 169.705 55.248 167.369 53.328ZM166.745 68.928C164.665 70.688 161.673 71.568 157.769 71.568H147.257V51.312H157.769C161.673 51.312 164.665 52.192 166.745 53.952C168.857 55.712 169.913 58.208 169.913 61.44C169.913 64.672 168.857 67.168 166.745 68.928ZM181.719 82.848C183.863 83.712 186.151 84.144 188.583 84.144C191.143 84.144 193.271 83.776 194.967 83.04C196.695 82.272 197.975 81.248 198.807 79.968C199.639 78.688 200.055 77.28 200.055 75.744C200.055 73.824 199.559 72.304 198.567 71.184C197.575 70.032 196.359 69.184 194.919 68.64C193.479 68.064 191.543 67.472 189.111 66.864C186.775 66.288 184.919 65.744 183.543 65.232C182.167 64.72 181.015 63.952 180.087 62.928C179.159 61.872 178.695 60.48 178.695 58.752C178.695 56.544 179.575 54.736 181.335 53.328C183.095 51.888 185.655 51.168 189.015 51.168C190.583 51.168 192.167 51.424 193.767 51.936C195.399 52.416 196.871 53.136 198.183 54.096L198.711 53.328C197.463 52.4 195.975 51.664 194.247 51.12C192.519 50.544 190.759 50.256 188.967 50.256C186.471 50.256 184.375 50.64 182.679 51.408C180.983 52.176 179.735 53.2 178.935 54.48C178.135 55.76 177.735 57.168 177.735 58.704C177.735 60.656 178.231 62.224 179.223 63.408C180.247 64.56 181.479 65.424 182.919 66C184.359 66.544 186.311 67.12 188.775 67.728C191.079 68.272 192.903 68.8 194.247 69.312C195.623 69.824 196.775 70.592 197.703 71.616C198.631 72.64 199.095 74.016 199.095 75.744C199.095 77.952 198.199 79.76 196.407 81.168C194.647 82.544 192.023 83.232 188.535 83.232C186.263 83.232 184.119 82.816 182.103 81.984C180.087 81.12 178.535 80.048 177.447 78.768L176.775 79.392C177.927 80.8 179.575 81.952 181.719 82.848ZM214.099 81.936C216.723 83.408 219.651 84.144 222.883 84.144C225.123 84.144 227.235 83.776 229.219 83.04C231.203 82.304 232.899 81.232 234.307 79.824L233.731 79.152C230.883 81.872 227.267 83.232 222.883 83.232C219.843 83.232 217.075 82.528 214.579 81.12C212.115 79.712 210.163 77.792 208.723 75.36C207.315 72.896 206.611 70.176 206.611 67.2C206.611 64.224 207.315 61.52 208.723 59.088C210.163 56.624 212.115 54.688 214.579 53.28C217.075 51.872 219.843 51.168 222.883 51.168C227.299 51.168 230.915 52.512 233.731 55.2L234.307 54.528C232.899 53.12 231.203 52.064 229.219 51.36C227.267 50.624 225.155 50.256 222.883 50.256C219.651 50.256 216.723 50.992 214.099 52.464C211.475 53.936 209.411 55.968 207.907 58.56C206.403 61.12 205.651 64 205.651 67.2C205.651 70.4 206.403 73.296 207.907 75.888C209.411 78.448 211.475 80.464 214.099 81.936ZM268.768 84H269.728V50.4H268.768V66.48H244.288V50.4H243.328V84H244.288V67.392H268.768V84Z" fill="#444444"/>
<path d="M298.572 30.12C297.66 30.12 296.804 29.912 296.004 29.496C295.22 29.064 294.588 28.472 294.108 27.72L294.852 26.904C295.316 27.592 295.86 28.12 296.484 28.488C297.124 28.84 297.82 29.016 298.572 29.016C299.692 29.016 300.524 28.696 301.068 28.056C301.628 27.4 301.908 26.4 301.908 25.056V14.304H295.716V13.2H303.132V25.056C303.132 26.736 302.748 28 301.98 28.848C301.212 29.696 300.076 30.12 298.572 30.12ZM314.345 30.12C312.217 30.12 310.561 29.504 309.377 28.272C308.209 27.04 307.625 25.24 307.625 22.872V13.2H308.849V22.824C308.849 24.888 309.321 26.432 310.265 27.456C311.209 28.48 312.577 28.992 314.369 28.992C316.145 28.992 317.505 28.48 318.449 27.456C319.393 26.432 319.865 24.888 319.865 22.824V13.2H321.089V22.872C321.089 25.24 320.497 27.04 319.313 28.272C318.129 29.504 316.473 30.12 314.345 30.12ZM339.4 13.2V30H338.392L326.944 15.408V30H325.72V13.2H326.752L338.176 27.792V13.2H339.4ZM344.187 13.2H345.411V30H344.187V13.2ZM357.313 30.12C355.665 30.12 354.177 29.752 352.849 29.016C351.521 28.264 350.473 27.24 349.705 25.944C348.953 24.648 348.577 23.2 348.577 21.6C348.577 20 348.953 18.552 349.705 17.256C350.473 15.96 351.521 14.944 352.849 14.208C354.177 13.456 355.665 13.08 357.313 13.08C358.961 13.08 360.449 13.448 361.777 14.184C363.105 14.92 364.145 15.936 364.897 17.232C365.665 18.528 366.049 19.984 366.049 21.6C366.049 23.216 365.665 24.672 364.897 25.968C364.145 27.264 363.105 28.28 361.777 29.016C360.449 29.752 358.961 30.12 357.313 30.12ZM357.313 28.992C358.721 28.992 359.993 28.672 361.129 28.032C362.265 27.392 363.161 26.512 363.817 25.392C364.473 24.256 364.801 22.992 364.801 21.6C364.801 20.208 364.473 18.952 363.817 17.832C363.161 16.696 362.265 15.808 361.129 15.168C359.993 14.528 358.721 14.208 357.313 14.208C355.905 14.208 354.625 14.528 353.473 15.168C352.337 15.808 351.441 16.696 350.785 17.832C350.129 18.952 349.801 20.208 349.801 21.6C349.801 22.992 350.129 24.256 350.785 25.392C351.441 26.512 352.337 27.392 353.473 28.032C354.625 28.672 355.905 28.992 357.313 28.992ZM380.878 30L376.87 24.384C376.278 24.464 375.734 24.504 375.238 24.504H370.438V30H369.214V13.2H375.238C377.35 13.2 379.006 13.704 380.206 14.712C381.406 15.704 382.006 17.088 382.006 18.864C382.006 20.192 381.662 21.312 380.974 22.224C380.302 23.12 379.334 23.752 378.07 24.12L382.27 30H380.878ZM375.238 23.424C377.03 23.424 378.398 23.032 379.342 22.248C380.286 21.448 380.758 20.32 380.758 18.864C380.758 17.408 380.286 16.288 379.342 15.504C378.398 14.704 377.03 14.304 375.238 14.304H370.438V23.424H375.238Z" fill="#444444"/>
<path d="M295.284 40.304V47.48H304.236V48.584H295.284V56H294.06V39.2H305.292V40.304H295.284ZM319.784 56L315.776 50.384C315.184 50.464 314.64 50.504 314.144 50.504H309.344V56H308.12V39.2H314.144C316.256 39.2 317.912 39.704 319.112 40.712C320.312 41.704 320.912 43.088 320.912 44.864C320.912 46.192 320.568 47.312 319.88 48.224C319.208 49.12 318.24 49.752 316.976 50.12L321.176 56H319.784ZM314.144 49.424C315.936 49.424 317.304 49.032 318.248 48.248C319.192 47.448 319.664 46.32 319.664 44.864C319.664 43.408 319.192 42.288 318.248 41.504C317.304 40.704 315.936 40.304 314.144 40.304H309.344V49.424H314.144ZM331.442 56.12C329.794 56.12 328.306 55.752 326.978 55.016C325.65 54.264 324.602 53.24 323.834 51.944C323.082 50.648 322.706 49.2 322.706 47.6C322.706 46 323.082 44.552 323.834 43.256C324.602 41.96 325.65 40.944 326.978 40.208C328.306 39.456 329.794 39.08 331.442 39.08C333.09 39.08 334.578 39.448 335.906 40.184C337.234 40.92 338.274 41.936 339.026 43.232C339.794 44.528 340.178 45.984 340.178 47.6C340.178 49.216 339.794 50.672 339.026 51.968C338.274 53.264 337.234 54.28 335.906 55.016C334.578 55.752 333.09 56.12 331.442 56.12ZM331.442 54.992C332.85 54.992 334.122 54.672 335.258 54.032C336.394 53.392 337.29 52.512 337.946 51.392C338.602 50.256 338.93 48.992 338.93 47.6C338.93 46.208 338.602 44.952 337.946 43.832C337.29 42.696 336.394 41.808 335.258 41.168C334.122 40.528 332.85 40.208 331.442 40.208C330.034 40.208 328.754 40.528 327.602 41.168C326.466 41.808 325.57 42.696 324.914 43.832C324.258 44.952 323.93 46.208 323.93 47.6C323.93 48.992 324.258 50.256 324.914 51.392C325.57 52.512 326.466 53.392 327.602 54.032C328.754 54.672 330.034 54.992 331.442 54.992ZM357.023 39.2V56H356.015L344.567 41.408V56H343.343V39.2H344.375L355.799 53.792V39.2H357.023ZM365.026 40.304H358.978V39.2H372.298V40.304H366.25V56H365.026V40.304ZM385.845 54.896V56H374.253V39.2H385.485V40.304H375.477V46.928H384.429V48.008H375.477V54.896H385.845ZM402.908 39.2V56H401.9L390.452 41.408V56H389.228V39.2H390.26L401.684 53.792V39.2H402.908ZM407.695 39.2H414.343C416.087 39.2 417.631 39.56 418.975 40.28C420.335 41 421.391 42 422.143 43.28C422.895 44.544 423.271 45.984 423.271 47.6C423.271 49.216 422.895 50.664 422.143 51.944C421.391 53.208 420.335 54.2 418.975 54.92C417.631 55.64 416.087 56 414.343 56H407.695V39.2ZM414.247 54.896C415.799 54.896 417.167 54.592 418.351 53.984C419.535 53.36 420.447 52.496 421.087 51.392C421.727 50.288 422.047 49.024 422.047 47.6C422.047 46.176 421.727 44.912 421.087 43.808C420.447 42.704 419.535 41.848 418.351 41.24C417.167 40.616 415.799 40.304 414.247 40.304H408.919V54.896H414.247Z" fill="#444444"/>
<path d="M294.06 64.2H300.708C302.452 64.2 303.996 64.56 305.34 65.28C306.7 66 307.756 67 308.508 68.28C309.26 69.544 309.636 70.984 309.636 72.6C309.636 74.216 309.26 75.664 308.508 76.944C307.756 78.208 306.7 79.2 305.34 79.92C303.996 80.64 302.452 81 300.708 81H294.06V64.2ZM300.612 79.896C302.164 79.896 303.532 79.592 304.716 78.984C305.9 78.36 306.812 77.496 307.452 76.392C308.092 75.288 308.412 74.024 308.412 72.6C308.412 71.176 308.092 69.912 307.452 68.808C306.812 67.704 305.9 66.848 304.716 66.24C303.532 65.616 302.164 65.304 300.612 65.304H295.284V79.896H300.612ZM324.4 79.896V81H312.808V64.2H324.04V65.304H314.032V71.928H322.984V73.008H314.032V79.896H324.4ZM340.964 64.2L333.476 81H332.252L324.764 64.2H326.108L332.9 79.416L339.692 64.2H340.964ZM354.185 79.896V81H342.593V64.2H353.825V65.304H343.817V71.928H352.769V73.008H343.817V79.896H354.185ZM357.568 64.2H358.792V79.896H368.464V81H357.568V64.2ZM377.327 81.12C375.679 81.12 374.191 80.752 372.863 80.016C371.535 79.264 370.487 78.24 369.719 76.944C368.967 75.648 368.591 74.2 368.591 72.6C368.591 71 368.967 69.552 369.719 68.256C370.487 66.96 371.535 65.944 372.863 65.208C374.191 64.456 375.679 64.08 377.327 64.08C378.975 64.08 380.463 64.448 381.791 65.184C383.119 65.92 384.159 66.936 384.911 68.232C385.679 69.528 386.063 70.984 386.063 72.6C386.063 74.216 385.679 75.672 384.911 76.968C384.159 78.264 383.119 79.28 381.791 80.016C380.463 80.752 378.975 81.12 377.327 81.12ZM377.327 79.992C378.735 79.992 380.007 79.672 381.143 79.032C382.279 78.392 383.175 77.512 383.831 76.392C384.487 75.256 384.815 73.992 384.815 72.6C384.815 71.208 384.487 69.952 383.831 68.832C383.175 67.696 382.279 66.808 381.143 66.168C380.007 65.528 378.735 65.208 377.327 65.208C375.919 65.208 374.639 65.528 373.487 66.168C372.351 66.808 371.455 67.696 370.799 68.832C370.143 69.952 369.815 71.208 369.815 72.6C369.815 73.992 370.143 75.256 370.799 76.392C371.455 77.512 372.351 78.392 373.487 79.032C374.639 79.672 375.919 79.992 377.327 79.992ZM395.252 64.2C397.364 64.2 399.02 64.704 400.22 65.712C401.42 66.704 402.02 68.088 402.02 69.864C402.02 71.624 401.42 73.008 400.22 74.016C399.02 75.008 397.364 75.504 395.252 75.504H390.452V81H389.228V64.2H395.252ZM395.252 74.4C397.044 74.4 398.412 74.008 399.356 73.224C400.3 72.44 400.772 71.32 400.772 69.864C400.772 68.408 400.3 67.288 399.356 66.504C398.412 65.704 397.044 65.304 395.252 65.304H390.452V74.4H395.252ZM416.662 79.896V81H405.07V64.2H416.302V65.304H406.294V71.928H415.246V73.008H406.294V79.896H416.662ZM431.709 81L427.701 75.384C427.109 75.464 426.565 75.504 426.069 75.504H421.269V81H420.045V64.2H426.069C428.181 64.2 429.837 64.704 431.037 65.712C432.237 66.704 432.837 68.088 432.837 69.864C432.837 71.192 432.493 72.312 431.805 73.224C431.133 74.12 430.165 74.752 428.901 75.12L433.101 81H431.709ZM426.069 74.424C427.861 74.424 429.229 74.032 430.173 73.248C431.117 72.448 431.589 71.32 431.589 69.864C431.589 68.408 431.117 67.288 430.173 66.504C429.229 65.704 427.861 65.304 426.069 65.304H421.269V74.424H426.069Z" fill="#444444"/>
</svg>
