<svg width="285" height="97" viewBox="0 0 285 97" fill="none" xmlns="http://www.w3.org/2000/svg">
<path fill-rule="evenodd" clip-rule="evenodd" d="M284.132 0H283.132V97H284.132V0ZM0.960001 38.072L9.312 29.48L24.816 47H26.112L10.032 28.808L25.008 13.4H23.712L0.960001 36.776V13.4H0V47H0.960001V38.072ZM48.5933 35.144L57.1373 47H58.3372L49.6012 34.904C52.2253 34.232 54.2573 33 55.6973 31.208C57.1373 29.384 57.8573 27.128 57.8573 24.44C57.8573 20.952 56.6893 18.248 54.3533 16.328C52.0173 14.376 48.7853 13.4 44.6572 13.4H33.2812V47H34.2412V35.48H44.6572C46.1613 35.48 47.4733 35.368 48.5933 35.144ZM53.7293 31.928C51.6493 33.688 48.6572 34.568 44.7533 34.568H34.2412V14.312H44.7533C48.6572 14.312 51.6493 15.192 53.7293 16.952C55.8413 18.712 56.8973 21.208 56.8973 24.44C56.8973 27.672 55.8413 30.168 53.7293 31.928ZM90.0566 47V46.088H65.0006L89.5766 14.12V13.4H63.8966V14.312H88.2326L63.6566 46.28V47H90.0566ZM107.033 47V35.576L120.713 13.4H119.609L106.553 34.568L93.4969 13.4H92.3929L106.073 35.576V47H107.033ZM128.235 45.848C130.379 46.712 132.667 47.144 135.099 47.144C137.659 47.144 139.787 46.776 141.483 46.04C143.211 45.272 144.491 44.248 145.323 42.968C146.155 41.688 146.571 40.28 146.571 38.744C146.571 36.824 146.075 35.304 145.083 34.184C144.091 33.032 142.875 32.184 141.435 31.64C139.995 31.064 138.059 30.472 135.627 29.864C133.291 29.288 131.435 28.744 130.059 28.232C128.683 27.72 127.531 26.952 126.603 25.928C125.675 24.872 125.211 23.48 125.211 21.752C125.211 19.544 126.091 17.736 127.851 16.328C129.611 14.888 132.171 14.168 135.531 14.168C137.099 14.168 138.683 14.424 140.283 14.936C141.915 15.416 143.387 16.136 144.699 17.096L145.227 16.328C143.979 15.4 142.491 14.664 140.763 14.12C139.035 13.544 137.275 13.256 135.483 13.256C132.987 13.256 130.891 13.64 129.195 14.408C127.499 15.176 126.251 16.2 125.451 17.48C124.651 18.76 124.251 20.168 124.251 21.704C124.251 23.656 124.747 25.224 125.739 26.408C126.763 27.56 127.995 28.424 129.435 29C130.875 29.544 132.827 30.12 135.291 30.728C137.595 31.272 139.419 31.8 140.763 32.312C142.139 32.824 143.291 33.592 144.219 34.616C145.147 35.64 145.611 37.016 145.611 38.744C145.611 40.952 144.715 42.76 142.923 44.168C141.163 45.544 138.539 46.232 135.051 46.232C132.779 46.232 130.635 45.816 128.619 44.984C126.603 44.12 125.051 43.048 123.963 41.768L123.291 42.392C124.443 43.8 126.091 44.952 128.235 45.848ZM178.135 47V46.088H153.079L177.655 14.12V13.4H151.975V14.312H176.311L151.735 46.28V47H178.135ZM180.183 14.312H192.663V47H193.623V14.312H206.103V13.4H180.183V14.312ZM217.099 44.936C219.723 46.408 222.651 47.144 225.883 47.144C229.115 47.144 232.043 46.408 234.667 44.936C237.291 43.464 239.355 41.448 240.859 38.888C242.363 36.296 243.115 33.4 243.115 30.2C243.115 27 242.363 24.12 240.859 21.56C239.355 18.968 237.291 16.936 234.667 15.464C232.043 13.992 229.115 13.256 225.883 13.256C222.651 13.256 219.723 13.992 217.099 15.464C214.475 16.936 212.411 18.968 210.907 21.56C209.403 24.12 208.651 27 208.651 30.2C208.651 33.4 209.403 36.296 210.907 38.888C212.411 41.448 214.475 43.464 217.099 44.936ZM234.139 44.168C231.675 45.544 228.923 46.232 225.883 46.232C222.843 46.232 220.075 45.544 217.579 44.168C215.115 42.76 213.163 40.84 211.723 38.408C210.315 35.944 209.611 33.208 209.611 30.2C209.611 27.192 210.315 24.472 211.723 22.04C213.163 19.576 215.115 17.656 217.579 16.28C220.075 14.872 222.843 14.168 225.883 14.168C228.923 14.168 231.675 14.872 234.139 16.28C236.635 17.656 238.587 19.576 239.995 22.04C241.435 24.472 242.155 27.192 242.155 30.2C242.155 33.208 241.435 35.944 239.995 38.408C238.587 40.84 236.635 42.76 234.139 44.168ZM253.288 30.44V14.312H273.976V13.4H252.328V47H253.288V31.352H271.816V30.44H253.288ZM95.187 72.144L103.731 84H104.931L96.195 71.904C98.819 71.232 100.851 70 102.291 68.208C103.731 66.384 104.451 64.128 104.451 61.44C104.451 57.952 103.283 55.248 100.947 53.328C98.611 51.376 95.379 50.4 91.251 50.4H79.875V84H80.835V72.48H91.251C92.755 72.48 94.067 72.368 95.187 72.144ZM100.323 68.928C98.243 70.688 95.251 71.568 91.347 71.568H80.835V51.312H91.347C95.251 51.312 98.243 52.192 100.323 53.952C102.435 55.712 103.491 58.208 103.491 61.44C103.491 64.672 102.435 67.168 100.323 68.928ZM136.602 84V83.088H115.194V67.392H133.722V66.48H115.194V51.312H135.882V50.4H114.234V84H136.602ZM167.369 53.328C165.033 51.376 161.801 50.4 157.673 50.4H146.297V84H147.257V72.48H157.673C161.801 72.48 165.033 71.52 167.369 69.6C169.705 67.648 170.873 64.928 170.873 61.44C170.873 57.952 169.705 55.248 167.369 53.328ZM166.745 68.928C164.665 70.688 161.673 71.568 157.769 71.568H147.257V51.312H157.769C161.673 51.312 164.665 52.192 166.745 53.952C168.857 55.712 169.913 58.208 169.913 61.44C169.913 64.672 168.857 67.168 166.745 68.928ZM181.719 82.848C183.863 83.712 186.151 84.144 188.583 84.144C191.143 84.144 193.271 83.776 194.967 83.04C196.695 82.272 197.975 81.248 198.807 79.968C199.639 78.688 200.055 77.28 200.055 75.744C200.055 73.824 199.559 72.304 198.567 71.184C197.575 70.032 196.359 69.184 194.919 68.64C193.479 68.064 191.543 67.472 189.111 66.864C186.775 66.288 184.919 65.744 183.543 65.232C182.167 64.72 181.015 63.952 180.087 62.928C179.159 61.872 178.695 60.48 178.695 58.752C178.695 56.544 179.575 54.736 181.335 53.328C183.095 51.888 185.655 51.168 189.015 51.168C190.583 51.168 192.167 51.424 193.767 51.936C195.399 52.416 196.871 53.136 198.183 54.096L198.711 53.328C197.463 52.4 195.975 51.664 194.247 51.12C192.519 50.544 190.759 50.256 188.967 50.256C186.471 50.256 184.375 50.64 182.679 51.408C180.983 52.176 179.735 53.2 178.935 54.48C178.135 55.76 177.735 57.168 177.735 58.704C177.735 60.656 178.231 62.224 179.223 63.408C180.247 64.56 181.479 65.424 182.919 66C184.359 66.544 186.311 67.12 188.775 67.728C191.079 68.272 192.903 68.8 194.247 69.312C195.623 69.824 196.775 70.592 197.703 71.616C198.631 72.64 199.095 74.016 199.095 75.744C199.095 77.952 198.199 79.76 196.407 81.168C194.647 82.544 192.023 83.232 188.535 83.232C186.263 83.232 184.119 82.816 182.103 81.984C180.087 81.12 178.535 80.048 177.447 78.768L176.775 79.392C177.927 80.8 179.575 81.952 181.719 82.848ZM214.099 81.936C216.723 83.408 219.651 84.144 222.883 84.144C225.123 84.144 227.235 83.776 229.219 83.04C231.203 82.304 232.899 81.232 234.307 79.824L233.731 79.152C230.883 81.872 227.267 83.232 222.883 83.232C219.843 83.232 217.075 82.528 214.579 81.12C212.115 79.712 210.163 77.792 208.723 75.36C207.315 72.896 206.611 70.176 206.611 67.2C206.611 64.224 207.315 61.52 208.723 59.088C210.163 56.624 212.115 54.688 214.579 53.28C217.075 51.872 219.843 51.168 222.883 51.168C227.299 51.168 230.915 52.512 233.731 55.2L234.307 54.528C232.899 53.12 231.203 52.064 229.219 51.36C227.267 50.624 225.155 50.256 222.883 50.256C219.651 50.256 216.723 50.992 214.099 52.464C211.475 53.936 209.411 55.968 207.907 58.56C206.403 61.12 205.651 64 205.651 67.2C205.651 70.4 206.403 73.296 207.907 75.888C209.411 78.448 211.475 80.464 214.099 81.936ZM268.768 84H269.728V50.4H268.768V66.48H244.288V50.4H243.328V84H244.288V67.392H268.768V84Z" fill="#444444"/>
</svg>
