<svg width="145" height="94" viewBox="0 0 145 94" fill="none" xmlns="http://www.w3.org/2000/svg">
<path d="M7.57184 30.12C6.65984 30.12 5.80384 29.912 5.00384 29.496C4.21984 29.064 3.58784 28.472 3.10784 27.72L3.85184 26.904C4.31584 27.592 4.85984 28.12 5.48384 28.488C6.12384 28.84 6.81984 29.016 7.57184 29.016C8.69184 29.016 9.52384 28.696 10.0678 28.056C10.6278 27.4 10.9078 26.4 10.9078 25.056V14.304H4.71584V13.2H12.1318V25.056C12.1318 26.736 11.7478 28 10.9798 28.848C10.2118 29.696 9.07584 30.12 7.57184 30.12ZM23.3449 30.12C21.2169 30.12 19.5609 29.504 18.3769 28.272C17.2089 27.04 16.6249 25.24 16.6249 22.872V13.2H17.8489V22.824C17.8489 24.888 18.3209 26.432 19.2649 27.456C20.2089 28.48 21.5769 28.992 23.3689 28.992C25.1449 28.992 26.5049 28.48 27.4489 27.456C28.3929 26.432 28.8649 24.888 28.8649 22.824V13.2H30.0889V22.872C30.0889 25.24 29.4969 27.04 28.3129 28.272C27.1289 29.504 25.4729 30.12 23.3449 30.12ZM48.4001 13.2V30H47.3921L35.9441 15.408V30H34.7201V13.2H35.7521L47.1761 27.792V13.2H48.4001ZM53.187 13.2H54.411V30H53.187V13.2ZM66.3131 30.12C64.6651 30.12 63.1771 29.752 61.8491 29.016C60.5211 28.264 59.4731 27.24 58.7051 25.944C57.9531 24.648 57.5771 23.2 57.5771 21.6C57.5771 20 57.9531 18.552 58.7051 17.256C59.4731 15.96 60.5211 14.944 61.8491 14.208C63.1771 13.456 64.6651 13.08 66.3131 13.08C67.9611 13.08 69.4491 13.448 70.7771 14.184C72.1051 14.92 73.1451 15.936 73.8971 17.232C74.6651 18.528 75.0491 19.984 75.0491 21.6C75.0491 23.216 74.6651 24.672 73.8971 25.968C73.1451 27.264 72.1051 28.28 70.7771 29.016C69.4491 29.752 67.9611 30.12 66.3131 30.12ZM66.3131 28.992C67.7211 28.992 68.9931 28.672 70.1291 28.032C71.2651 27.392 72.1611 26.512 72.8172 25.392C73.4731 24.256 73.8011 22.992 73.8011 21.6C73.8011 20.208 73.4731 18.952 72.8172 17.832C72.1611 16.696 71.2651 15.808 70.1291 15.168C68.9931 14.528 67.7211 14.208 66.3131 14.208C64.9051 14.208 63.6251 14.528 62.4731 15.168C61.3371 15.808 60.4411 16.696 59.7851 17.832C59.1291 18.952 58.8011 20.208 58.8011 21.6C58.8011 22.992 59.1291 24.256 59.7851 25.392C60.4411 26.512 61.3371 27.392 62.4731 28.032C63.6251 28.672 64.9051 28.992 66.3131 28.992ZM89.8785 30L85.8705 24.384C85.2785 24.464 84.7345 24.504 84.2385 24.504H79.4385V30H78.2145V13.2H84.2385C86.3505 13.2 88.0065 13.704 89.2065 14.712C90.4065 15.704 91.0065 17.088 91.0065 18.864C91.0065 20.192 90.6625 21.312 89.9745 22.224C89.3025 23.12 88.3345 23.752 87.0705 24.12L91.2705 30H89.8785ZM84.2385 23.424C86.0305 23.424 87.3985 23.032 88.3425 22.248C89.2865 21.448 89.7585 20.32 89.7585 18.864C89.7585 17.408 89.2865 16.288 88.3425 15.504C87.3985 14.704 86.0305 14.304 84.2385 14.304H79.4385V23.424H84.2385Z" fill="#444444"/>
<path d="M4.28384 40.304V47.48H13.2358V48.584H4.28384V56H3.05984V39.2H14.2918V40.304H4.28384ZM28.7845 56L24.7765 50.384C24.1845 50.464 23.6405 50.504 23.1445 50.504H18.3445V56H17.1205V39.2H23.1445C25.2565 39.2 26.9125 39.704 28.1125 40.712C29.3125 41.704 29.9125 43.088 29.9125 44.864C29.9125 46.192 29.5685 47.312 28.8805 48.224C28.2085 49.12 27.2405 49.752 25.9765 50.12L30.1765 56H28.7845ZM23.1445 49.424C24.9365 49.424 26.3045 49.032 27.2485 48.248C28.1925 47.448 28.6645 46.32 28.6645 44.864C28.6645 43.408 28.1925 42.288 27.2485 41.504C26.3045 40.704 24.9365 40.304 23.1445 40.304H18.3445V49.424H23.1445ZM40.4419 56.12C38.7939 56.12 37.3059 55.752 35.9779 55.016C34.6499 54.264 33.6019 53.24 32.8339 51.944C32.0819 50.648 31.7059 49.2 31.7059 47.6C31.7059 46 32.0819 44.552 32.8339 43.256C33.6019 41.96 34.6499 40.944 35.9779 40.208C37.3059 39.456 38.7939 39.08 40.4419 39.08C42.0899 39.08 43.5779 39.448 44.9059 40.184C46.2339 40.92 47.2739 41.936 48.0259 43.232C48.7939 44.528 49.1779 45.984 49.1779 47.6C49.1779 49.216 48.7939 50.672 48.0259 51.968C47.2739 53.264 46.2339 54.28 44.9059 55.016C43.5779 55.752 42.0899 56.12 40.4419 56.12ZM40.4419 54.992C41.8499 54.992 43.1219 54.672 44.2579 54.032C45.3939 53.392 46.2899 52.512 46.9459 51.392C47.6019 50.256 47.9299 48.992 47.9299 47.6C47.9299 46.208 47.6019 44.952 46.9459 43.832C46.2899 42.696 45.3939 41.808 44.2579 41.168C43.1219 40.528 41.8499 40.208 40.4419 40.208C39.0339 40.208 37.7539 40.528 36.6019 41.168C35.4659 41.808 34.5699 42.696 33.9139 43.832C33.2579 44.952 32.9299 46.208 32.9299 47.6C32.9299 48.992 33.2579 50.256 33.9139 51.392C34.5699 52.512 35.4659 53.392 36.6019 54.032C37.7539 54.672 39.0339 54.992 40.4419 54.992ZM66.0233 39.2V56H65.0153L53.5673 41.408V56H52.3433V39.2H53.3753L64.7993 53.792V39.2H66.0233ZM74.0261 40.304H67.9781V39.2H81.2981V40.304H75.2501V56H74.0261V40.304ZM94.8456 54.896V56H83.2536V39.2H94.4856V40.304H84.4776V46.928H93.4296V48.008H84.4776V54.896H94.8456ZM111.908 39.2V56H110.9L99.4523 41.408V56H98.2283V39.2H99.2603L110.684 53.792V39.2H111.908ZM116.695 39.2H123.343C125.087 39.2 126.631 39.56 127.975 40.28C129.335 41 130.391 42 131.143 43.28C131.895 44.544 132.271 45.984 132.271 47.6C132.271 49.216 131.895 50.664 131.143 51.944C130.391 53.208 129.335 54.2 127.975 54.92C126.631 55.64 125.087 56 123.343 56H116.695V39.2ZM123.247 54.896C124.799 54.896 126.167 54.592 127.351 53.984C128.535 53.36 129.447 52.496 130.087 51.392C130.727 50.288 131.047 49.024 131.047 47.6C131.047 46.176 130.727 44.912 130.087 43.808C129.447 42.704 128.535 41.848 127.351 41.24C126.167 40.616 124.799 40.304 123.247 40.304H117.919V54.896H123.247Z" fill="#444444"/>
<path d="M3.05984 64.2H9.70784C11.4518 64.2 12.9958 64.56 14.3398 65.28C15.6998 66 16.7558 67 17.5078 68.28C18.2598 69.544 18.6358 70.984 18.6358 72.6C18.6358 74.216 18.2598 75.664 17.5078 76.944C16.7558 78.208 15.6998 79.2 14.3398 79.92C12.9958 80.64 11.4518 81 9.70784 81H3.05984V64.2ZM9.61184 79.896C11.1638 79.896 12.5318 79.592 13.7158 78.984C14.8998 78.36 15.8118 77.496 16.4518 76.392C17.0918 75.288 17.4118 74.024 17.4118 72.6C17.4118 71.176 17.0918 69.912 16.4518 68.808C15.8118 67.704 14.8998 66.848 13.7158 66.24C12.5318 65.616 11.1638 65.304 9.61184 65.304H4.28384V79.896H9.61184ZM33.4 79.896V81H21.808V64.2H33.04V65.304H23.032V71.928H31.984V73.008H23.032V79.896H33.4ZM49.9643 64.2L42.4763 81H41.2523L33.7643 64.2H35.1083L41.9003 79.416L48.6923 64.2H49.9643ZM63.1853 79.896V81H51.5933V64.2H62.8253V65.304H52.8173V71.928H61.7693V73.008H52.8173V79.896H63.1853ZM66.568 64.2H67.792V79.896H77.464V81H66.568V64.2ZM86.3269 81.12C84.6789 81.12 83.1909 80.752 81.8629 80.016C80.5349 79.264 79.4869 78.24 78.7189 76.944C77.9669 75.648 77.5909 74.2 77.5909 72.6C77.5909 71 77.9669 69.552 78.7189 68.256C79.4869 66.96 80.5349 65.944 81.8629 65.208C83.1909 64.456 84.6789 64.08 86.3269 64.08C87.9749 64.08 89.4629 64.448 90.7909 65.184C92.1189 65.92 93.1589 66.936 93.9109 68.232C94.6789 69.528 95.0629 70.984 95.0629 72.6C95.0629 74.216 94.6789 75.672 93.9109 76.968C93.1589 78.264 92.1189 79.28 90.7909 80.016C89.4629 80.752 87.9749 81.12 86.3269 81.12ZM86.3269 79.992C87.7349 79.992 89.0069 79.672 90.1429 79.032C91.2789 78.392 92.1749 77.512 92.8309 76.392C93.4869 75.256 93.8149 73.992 93.8149 72.6C93.8149 71.208 93.4869 69.952 92.8309 68.832C92.1749 67.696 91.2789 66.808 90.1429 66.168C89.0069 65.528 87.7349 65.208 86.3269 65.208C84.9189 65.208 83.6389 65.528 82.4869 66.168C81.3509 66.808 80.4549 67.696 79.7989 68.832C79.1429 69.952 78.8149 71.208 78.8149 72.6C78.8149 73.992 79.1429 75.256 79.7989 76.392C80.4549 77.512 81.3509 78.392 82.4869 79.032C83.6389 79.672 84.9189 79.992 86.3269 79.992ZM104.252 64.2C106.364 64.2 108.02 64.704 109.22 65.712C110.42 66.704 111.02 68.088 111.02 69.864C111.02 71.624 110.42 73.008 109.22 74.016C108.02 75.008 106.364 75.504 104.252 75.504H99.4523V81H98.2283V64.2H104.252ZM104.252 74.4C106.044 74.4 107.412 74.008 108.356 73.224C109.3 72.44 109.772 71.32 109.772 69.864C109.772 68.408 109.3 67.288 108.356 66.504C107.412 65.704 106.044 65.304 104.252 65.304H99.4523V74.4H104.252ZM125.662 79.896V81H114.07V64.2H125.302V65.304H115.294V71.928H124.246V73.008H115.294V79.896H125.662ZM140.709 81L136.701 75.384C136.109 75.464 135.565 75.504 135.069 75.504H130.269V81H129.045V64.2H135.069C137.181 64.2 138.837 64.704 140.037 65.712C141.237 66.704 141.837 68.088 141.837 69.864C141.837 71.192 141.493 72.312 140.805 73.224C140.133 74.12 139.165 74.752 137.901 75.12L142.101 81H140.709ZM135.069 74.424C136.861 74.424 138.229 74.032 139.173 73.248C140.117 72.448 140.589 71.32 140.589 69.864C140.589 68.408 140.117 67.288 139.173 66.504C138.229 65.704 136.861 65.304 135.069 65.304H130.269V74.424H135.069Z" fill="#444444"/>
</svg>
