<svg width="166" height="127" viewBox="0 0 166 127" fill="none" xmlns="http://www.w3.org/2000/svg">
<path d="M133.793 77.3613L104.655 73.2748L138.015 109.017L97.7974 85.1805L101.96 111.281L80.5175 87.5042L71.5013 126.277L63.3938 87.7885L45.9097 108.692L50.9943 85.0094L15.1523 105.931L43.5602 77.1503L15.0992 76.9275L41.4751 64.1876L1.37598 58.5348L41.2097 53.3938L15.3353 39.4893L47.9163 44.953L14.2111 12.3092L54.7733 37.8673L52.3323 21.4065L67.2332 30.7235L75.5608 2.62402L82.9798 26.9963L101.497 11.2574L98.1336 31.8411L135.353 15.3956L109.699 40.7331L128.864 40.9559L115.916 52.3187L165.999 58.3157L111.017 62.4238L133.793 77.3613Z" fill="#444444"/>
<path d="M132.417 74.9514L103.279 70.8649L136.639 106.607L96.4214 82.7706L100.584 108.872L79.1415 85.0944L70.1254 123.867L62.0179 85.3786L44.5337 106.282L49.6183 82.5995L13.7763 103.521L42.1842 74.7404L13.7233 74.5176L40.0992 61.7777L0 56.1249L39.8337 50.984L13.9592 37.0794L46.5403 42.5431L12.8352 9.89932L53.3974 35.4574L50.9563 18.9966L65.8573 28.3136L74.1848 0.214111L81.6038 24.5864L100.121 8.8475L96.7576 29.4312L133.977 12.9856L108.323 38.3233L127.488 38.546L114.54 49.9087L164.623 55.9058L109.641 60.0139L132.417 74.9514Z" fill="#444444"/>
<path d="M126.431 72.9327L100.173 69.2672L130.236 101.327L93.9937 79.9463L97.7447 103.358L78.4218 82.0307L70.2969 116.809L62.9909 82.2857L47.235 101.035L51.817 79.7929L19.5181 98.5589L45.1178 72.7434L19.4702 72.5436L43.2389 61.1162L7.10352 56.0457L42.9997 51.4344L19.6829 38.9623L49.0433 43.8631L18.6699 14.5823L55.2225 37.5074L53.0228 22.7423L66.4507 31.0996L73.9552 5.8949L80.6407 27.7564L97.3273 13.6389L94.2966 32.1021L127.837 17.3507L104.719 40.0781L121.989 40.2778L110.321 50.47L155.454 55.8492L105.906 59.5341L126.431 72.9327Z" fill="white"/>
<path d="M62.7209 54.262C62.7209 55.246 62.6129 56.176 62.3969 57.052C62.1929 57.916 61.9169 58.714 61.5689 59.446C61.2209 60.166 60.8129 60.814 60.3449 61.39C59.8889 61.954 59.4089 62.44 58.9049 62.848C58.4009 63.244 57.8909 63.55 57.3749 63.766C56.8589 63.97 56.3669 64.072 55.8989 64.072C55.5029 64.072 55.1429 64 54.8189 63.856C54.4949 63.7 54.2129 63.478 53.9729 63.19C53.7329 62.89 53.5409 62.512 53.3969 62.056C53.2649 61.588 53.1989 61.03 53.1989 60.382C53.1989 59.71 53.2829 59.002 53.4509 58.258C53.6189 57.514 53.8469 56.776 54.1349 56.044C54.4229 55.312 54.7769 54.616 55.1969 53.956C55.6169 53.296 56.0789 52.714 56.5829 52.21C57.0869 51.694 57.6269 51.286 58.2029 50.986C58.7789 50.686 59.3789 50.536 60.0029 50.536C60.5429 50.536 60.9869 50.65 61.3349 50.878C61.6949 51.094 61.9709 51.382 62.1629 51.742C62.3669 52.09 62.5109 52.486 62.5949 52.93C62.6789 53.374 62.7209 53.818 62.7209 54.262ZM55.8809 59.914C55.8809 60.046 55.9049 60.184 55.9529 60.328C56.0009 60.472 56.0669 60.598 56.1509 60.706C56.2349 60.814 56.3369 60.91 56.4569 60.994C56.5889 61.066 56.7269 61.102 56.8709 61.102C57.4109 61.102 57.8909 60.916 58.3109 60.544C58.7309 60.172 59.0789 59.716 59.3549 59.176C59.6309 58.636 59.8409 58.06 59.9849 57.448C60.1409 56.836 60.2189 56.278 60.2189 55.774C60.2189 55.63 60.2069 55.474 60.1829 55.306C60.1709 55.138 60.1349 54.982 60.0749 54.838C60.0269 54.694 59.9429 54.574 59.8229 54.478C59.7149 54.37 59.5649 54.316 59.3729 54.316C58.9889 54.316 58.6349 54.412 58.3109 54.604C57.9869 54.796 57.6929 55.054 57.4289 55.378C57.1769 55.69 56.9549 56.05 56.7629 56.458C56.5709 56.854 56.4029 57.262 56.2589 57.682C56.1269 58.09 56.0309 58.492 55.9709 58.888C55.9109 59.284 55.8809 59.626 55.8809 59.914ZM69.5458 60.49C69.3778 61.174 69.1378 61.756 68.8258 62.236C68.5258 62.716 68.1658 63.112 67.7458 63.424C67.3378 63.736 66.8998 63.964 66.4318 64.108C65.9638 64.252 65.4958 64.324 65.0278 64.324C64.7518 64.324 64.4698 64.276 64.1818 64.18C63.8938 64.096 63.6358 63.964 63.4078 63.784C63.1798 63.604 62.9878 63.376 62.8318 63.1C62.6878 62.824 62.6158 62.5 62.6158 62.128C62.6158 62.08 62.6158 62.032 62.6158 61.984C62.6158 61.936 62.6218 61.888 62.6338 61.84C62.6818 61.348 62.7598 60.754 62.8678 60.058C62.9758 59.362 63.0898 58.636 63.2098 57.88C63.3298 57.124 63.4618 56.368 63.6058 55.612C63.7498 54.844 63.8758 54.148 63.9838 53.524C64.1038 52.9 64.2058 52.384 64.2898 51.976C64.3738 51.556 64.4278 51.298 64.4518 51.202C64.7038 51.178 65.0038 51.148 65.3518 51.112C65.6998 51.076 66.0238 51.046 66.3238 51.022C66.6958 50.986 67.0618 50.95 67.4218 50.914C67.1098 52.366 66.8338 53.68 66.5938 54.856C66.4858 55.36 66.3778 55.864 66.2698 56.368C66.1738 56.872 66.0778 57.334 65.9818 57.754C65.8978 58.174 65.8198 58.54 65.7478 58.852C65.6878 59.152 65.6338 59.398 65.5858 59.59C65.5498 59.782 65.5018 60.028 65.4418 60.328C65.3938 60.616 65.3698 60.88 65.3698 61.12C65.3698 61.312 65.4178 61.474 65.5138 61.606C65.6098 61.726 65.7298 61.786 65.8738 61.786C66.0778 61.786 66.2458 61.708 66.3778 61.552C66.5098 61.384 66.6178 61.186 66.7018 60.958C66.7978 60.73 66.8638 60.502 66.8998 60.274C66.9478 60.034 66.9898 59.848 67.0258 59.716C67.0978 59.368 67.1758 58.984 67.2598 58.564C67.3558 58.132 67.4458 57.688 67.5298 57.232C67.6258 56.764 67.7158 56.29 67.7998 55.81C67.8958 55.33 67.9858 54.862 68.0698 54.406C68.2738 53.35 68.4718 52.258 68.6638 51.13L71.3998 50.95C71.3998 50.95 71.3698 51.106 71.3098 51.418C71.2498 51.73 71.1718 52.144 71.0758 52.66C70.9798 53.176 70.8718 53.764 70.7518 54.424C70.6438 55.084 70.5178 55.774 70.3738 56.494C70.2298 57.202 70.0858 57.904 69.9418 58.6C69.8098 59.284 69.6778 59.914 69.5458 60.49ZM77.8248 60.13C77.5368 60.79 77.2128 61.366 76.8528 61.858C76.5048 62.338 76.1328 62.746 75.7368 63.082C75.3528 63.406 74.9628 63.646 74.5668 63.802C74.1708 63.958 73.7868 64.036 73.4148 64.036C73.0428 64.036 72.7008 63.952 72.3888 63.784C72.0888 63.616 71.8248 63.364 71.5968 63.028C71.3688 62.692 71.1828 62.278 71.0388 61.786C70.9068 61.294 70.8408 60.718 70.8408 60.058C70.8408 58.93 70.9968 57.82 71.3088 56.728C71.6208 55.624 72.0588 54.634 72.6228 53.758C73.1868 52.882 73.8528 52.18 74.6208 51.652C75.4008 51.112 76.2588 50.842 77.1948 50.842C77.4828 50.842 77.7588 50.902 78.0228 51.022C78.2868 51.142 78.5148 51.31 78.7068 51.526C78.8988 51.742 79.0488 52.006 79.1568 52.318C79.2768 52.63 79.3368 52.978 79.3368 53.362C79.3368 53.434 79.3368 53.512 79.3368 53.596C79.3368 53.668 79.3308 53.746 79.3188 53.83L76.9608 54.46C76.8168 54.16 76.6488 54.01 76.4568 54.01C76.2648 54.01 76.0608 54.124 75.8448 54.352C75.6408 54.568 75.4368 54.856 75.2328 55.216C75.0288 55.564 74.8308 55.96 74.6388 56.404C74.4468 56.836 74.2788 57.274 74.1348 57.718C73.9908 58.162 73.8708 58.588 73.7748 58.996C73.6908 59.392 73.6488 59.716 73.6488 59.968C73.6488 60.352 73.6968 60.622 73.7928 60.778C73.9008 60.934 74.0388 61.012 74.2068 61.012C74.3388 61.012 74.4888 60.964 74.6568 60.868C74.8248 60.76 74.9808 60.628 75.1248 60.472C75.2688 60.304 75.4008 60.118 75.5208 59.914C75.6408 59.71 75.7248 59.506 75.7728 59.302L77.8248 60.13ZM78.294 64.036C78.606 62.38 78.912 60.754 79.212 59.158C79.32 58.486 79.44 57.79 79.572 57.07C79.704 56.338 79.83 55.618 79.95 54.91C80.07 54.202 80.184 53.518 80.292 52.858C80.4 52.186 80.496 51.574 80.58 51.022L83.496 50.824C83.292 51.664 83.088 52.54 82.884 53.452C82.692 54.364 82.512 55.252 82.344 56.116L84.126 55.918C84.294 55.066 84.444 54.244 84.576 53.452C84.708 52.648 84.882 51.82 85.098 50.968C85.374 50.92 85.68 50.884 86.016 50.86C86.352 50.824 86.664 50.794 86.952 50.77C87.24 50.746 87.48 50.728 87.672 50.716C87.876 50.692 87.978 50.68 87.978 50.68C87.81 51.22 87.648 51.814 87.492 52.462C87.348 53.098 87.204 53.764 87.06 54.46C86.916 55.144 86.778 55.84 86.646 56.548C86.514 57.256 86.394 57.928 86.286 58.564C86.022 60.088 85.776 61.648 85.548 63.244L82.74 63.568C82.896 62.848 83.034 62.146 83.154 61.462C83.274 60.886 83.394 60.286 83.514 59.662C83.646 59.038 83.748 58.504 83.82 58.06L82.074 58.222C81.99 58.678 81.888 59.206 81.768 59.806C81.66 60.406 81.558 60.976 81.462 61.516C81.33 62.164 81.198 62.812 81.066 63.46L78.294 64.036ZM90.3788 62.56C90.3788 62.788 90.3248 63.016 90.2168 63.244C90.1208 63.472 89.9768 63.676 89.7848 63.856C89.5928 64.024 89.3528 64.156 89.0648 64.252C88.7768 64.36 88.4468 64.414 88.0748 64.414C87.8228 64.414 87.5948 64.366 87.3908 64.27C87.1868 64.174 87.0188 64.048 86.8868 63.892C86.7668 63.724 86.6708 63.538 86.5988 63.334C86.5268 63.13 86.4908 62.926 86.4908 62.722C86.4908 62.494 86.5268 62.278 86.5988 62.074C86.6708 61.858 86.7788 61.672 86.9228 61.516C87.0788 61.348 87.2648 61.21 87.4808 61.102C87.7088 60.994 87.9788 60.94 88.2908 60.94C88.9868 60.94 89.5088 61.108 89.8568 61.444C90.2048 61.768 90.3788 62.14 90.3788 62.56ZM94.6806 62.56C94.6806 62.788 94.6266 63.016 94.5186 63.244C94.4226 63.472 94.2786 63.676 94.0866 63.856C93.8946 64.024 93.6546 64.156 93.3666 64.252C93.0786 64.36 92.7486 64.414 92.3766 64.414C92.1246 64.414 91.8966 64.366 91.6926 64.27C91.4886 64.174 91.3206 64.048 91.1886 63.892C91.0686 63.724 90.9726 63.538 90.9006 63.334C90.8286 63.13 90.7926 62.926 90.7926 62.722C90.7926 62.494 90.8286 62.278 90.9006 62.074C90.9726 61.858 91.0806 61.672 91.2246 61.516C91.3806 61.348 91.5666 61.21 91.7826 61.102C92.0106 60.994 92.2806 60.94 92.5926 60.94C93.2886 60.94 93.8106 61.108 94.1586 61.444C94.5066 61.768 94.6806 62.14 94.6806 62.56ZM98.9823 62.56C98.9823 62.788 98.9283 63.016 98.8203 63.244C98.7243 63.472 98.5803 63.676 98.3883 63.856C98.1963 64.024 97.9563 64.156 97.6683 64.252C97.3803 64.36 97.0503 64.414 96.6783 64.414C96.4263 64.414 96.1983 64.366 95.9943 64.27C95.7903 64.174 95.6223 64.048 95.4903 63.892C95.3703 63.724 95.2743 63.538 95.2023 63.334C95.1303 63.13 95.0943 62.926 95.0943 62.722C95.0943 62.494 95.1303 62.278 95.2023 62.074C95.2743 61.858 95.3823 61.672 95.5263 61.516C95.6823 61.348 95.8683 61.21 96.0843 61.102C96.3123 60.994 96.5823 60.94 96.8943 60.94C97.5903 60.94 98.1123 61.108 98.4603 61.444C98.8083 61.768 98.9823 62.14 98.9823 62.56Z" fill="#444444"/>
</svg>
