<svg width="166" height="127" viewBox="0 0 166 127" fill="none" xmlns="http://www.w3.org/2000/svg">
<path d="M133.793 77.1474L104.655 73.0609L138.016 108.803L97.7979 84.9666L101.96 111.068L80.518 87.2904L71.5018 126.063L63.3943 87.5746L45.9102 108.478L50.9947 84.7956L15.1528 105.717L43.5607 76.9364L15.0997 76.7137L41.4756 63.9737L1.37646 58.3209L41.2102 53.18L15.3357 39.2754L47.9168 44.7392L14.2116 12.0954L54.7738 37.6535L52.3328 21.1926L67.2337 30.5096L75.5613 2.41016L82.9802 26.7825L101.497 11.0435L98.134 31.6273L135.353 15.1817L109.7 40.5193L128.865 40.7421L115.916 52.1048L166 58.1019L111.017 62.2099L133.793 77.1474Z" fill="#444444"/>
<path d="M132.417 74.7373L103.279 70.6508L136.639 106.393L96.4214 82.5564L100.584 108.657L79.1415 84.8803L70.1254 123.653L62.0179 85.1645L44.5337 106.068L49.6183 82.3854L13.7763 103.307L42.1842 74.5263L13.7233 74.3035L40.0992 61.5636L0 55.9108L39.8337 50.7699L13.9592 36.8652L46.5403 42.329L12.8352 9.68521L53.3974 35.2433L50.9563 18.7824L65.8573 28.0994L74.1848 0L81.6038 24.3723L100.121 8.63338L96.7576 29.2171L133.977 12.7715L108.323 38.1092L127.488 38.3319L114.54 49.6946L164.623 55.6917L109.641 59.7998L132.417 74.7373Z" fill="#444444"/>
<path d="M126.431 72.7194L100.173 69.0539L130.236 101.114L93.9937 79.7331L97.7447 103.145L78.4218 81.8175L70.2969 116.596L62.9909 82.0724L47.235 100.822L51.817 79.5797L19.5181 98.3457L45.1178 72.5301L19.4702 72.3304L43.2389 60.9029L7.10352 55.8325L42.9997 51.2211L19.6829 38.749L49.0433 43.6498L18.6699 14.369L55.2225 37.2942L53.0228 22.5291L66.4507 30.8863L73.9552 5.68164L80.6407 27.5431L97.3273 13.4256L94.2966 31.8888L127.837 17.1375L104.719 39.8648L121.989 40.0645L110.321 50.2567L155.454 55.6359L105.906 59.3208L126.431 72.7194Z" fill="#F0F0F0"/>
<path d="M62.7209 54.0472C62.7209 55.0312 62.6129 55.9612 62.3969 56.8372C62.1929 57.7012 61.9169 58.4992 61.5689 59.2312C61.2209 59.9512 60.8129 60.5992 60.3449 61.1752C59.8889 61.7392 59.4089 62.2252 58.9049 62.6332C58.4009 63.0292 57.8909 63.3352 57.3749 63.5512C56.8589 63.7552 56.3669 63.8572 55.8989 63.8572C55.5029 63.8572 55.1429 63.7852 54.8189 63.6412C54.4949 63.4852 54.2129 63.2632 53.9729 62.9752C53.7329 62.6752 53.5409 62.2972 53.3969 61.8412C53.2649 61.3732 53.1989 60.8152 53.1989 60.1672C53.1989 59.4952 53.2829 58.7872 53.4509 58.0432C53.6189 57.2992 53.8469 56.5612 54.1349 55.8292C54.4229 55.0972 54.7769 54.4012 55.1969 53.7412C55.6169 53.0812 56.0789 52.4992 56.5829 51.9952C57.0869 51.4792 57.6269 51.0712 58.2029 50.7712C58.7789 50.4712 59.3789 50.3212 60.0029 50.3212C60.5429 50.3212 60.9869 50.4352 61.3349 50.6632C61.6949 50.8792 61.9709 51.1672 62.1629 51.5272C62.3669 51.8752 62.5109 52.2712 62.5949 52.7152C62.6789 53.1592 62.7209 53.6032 62.7209 54.0472ZM55.8809 59.6992C55.8809 59.8312 55.9049 59.9692 55.9529 60.1132C56.0009 60.2572 56.0669 60.3832 56.1509 60.4912C56.2349 60.5992 56.3369 60.6952 56.4569 60.7792C56.5889 60.8512 56.7269 60.8872 56.8709 60.8872C57.4109 60.8872 57.8909 60.7012 58.3109 60.3292C58.7309 59.9572 59.0789 59.5012 59.3549 58.9612C59.6309 58.4212 59.8409 57.8452 59.9849 57.2332C60.1409 56.6212 60.2189 56.0632 60.2189 55.5592C60.2189 55.4152 60.2069 55.2592 60.1829 55.0912C60.1709 54.9232 60.1349 54.7672 60.0749 54.6232C60.0269 54.4792 59.9429 54.3592 59.8229 54.2632C59.7149 54.1552 59.5649 54.1012 59.3729 54.1012C58.9889 54.1012 58.6349 54.1972 58.3109 54.3892C57.9869 54.5812 57.6929 54.8392 57.4289 55.1632C57.1769 55.4752 56.9549 55.8352 56.7629 56.2432C56.5709 56.6392 56.4029 57.0472 56.2589 57.4672C56.1269 57.8752 56.0309 58.2772 55.9709 58.6732C55.9109 59.0692 55.8809 59.4112 55.8809 59.6992ZM69.5458 60.2752C69.3778 60.9592 69.1378 61.5412 68.8258 62.0212C68.5258 62.5012 68.1658 62.8972 67.7458 63.2092C67.3378 63.5212 66.8998 63.7492 66.4318 63.8932C65.9638 64.0372 65.4958 64.1092 65.0278 64.1092C64.7518 64.1092 64.4698 64.0612 64.1818 63.9652C63.8938 63.8812 63.6358 63.7492 63.4078 63.5692C63.1798 63.3892 62.9878 63.1612 62.8318 62.8852C62.6878 62.6092 62.6158 62.2852 62.6158 61.9132C62.6158 61.8652 62.6158 61.8172 62.6158 61.7692C62.6158 61.7212 62.6218 61.6732 62.6338 61.6252C62.6818 61.1332 62.7598 60.5392 62.8678 59.8432C62.9758 59.1472 63.0898 58.4212 63.2098 57.6652C63.3298 56.9092 63.4618 56.1532 63.6058 55.3972C63.7498 54.6292 63.8758 53.9332 63.9838 53.3092C64.1038 52.6852 64.2058 52.1692 64.2898 51.7612C64.3738 51.3412 64.4278 51.0832 64.4518 50.9872C64.7038 50.9632 65.0038 50.9332 65.3518 50.8972C65.6998 50.8612 66.0238 50.8312 66.3238 50.8072C66.6958 50.7712 67.0618 50.7352 67.4218 50.6992C67.1098 52.1512 66.8338 53.4652 66.5938 54.6412C66.4858 55.1452 66.3778 55.6492 66.2698 56.1532C66.1738 56.6572 66.0778 57.1192 65.9818 57.5392C65.8978 57.9592 65.8198 58.3252 65.7478 58.6372C65.6878 58.9372 65.6338 59.1832 65.5858 59.3752C65.5498 59.5672 65.5018 59.8132 65.4418 60.1132C65.3938 60.4012 65.3698 60.6652 65.3698 60.9052C65.3698 61.0972 65.4178 61.2592 65.5138 61.3912C65.6098 61.5112 65.7298 61.5712 65.8738 61.5712C66.0778 61.5712 66.2458 61.4932 66.3778 61.3372C66.5098 61.1692 66.6178 60.9712 66.7018 60.7432C66.7978 60.5152 66.8638 60.2872 66.8998 60.0592C66.9478 59.8192 66.9898 59.6332 67.0258 59.5012C67.0978 59.1532 67.1758 58.7692 67.2598 58.3492C67.3558 57.9172 67.4458 57.4732 67.5298 57.0172C67.6258 56.5492 67.7158 56.0752 67.7998 55.5952C67.8958 55.1152 67.9858 54.6472 68.0698 54.1912C68.2738 53.1352 68.4718 52.0432 68.6638 50.9152L71.3998 50.7352C71.3998 50.7352 71.3698 50.8912 71.3098 51.2032C71.2498 51.5152 71.1718 51.9292 71.0758 52.4452C70.9798 52.9612 70.8718 53.5492 70.7518 54.2092C70.6438 54.8692 70.5178 55.5592 70.3738 56.2792C70.2298 56.9872 70.0858 57.6892 69.9418 58.3852C69.8098 59.0692 69.6778 59.6992 69.5458 60.2752ZM77.8248 59.9152C77.5368 60.5752 77.2128 61.1512 76.8528 61.6432C76.5048 62.1232 76.1328 62.5312 75.7368 62.8672C75.3528 63.1912 74.9628 63.4312 74.5668 63.5872C74.1708 63.7432 73.7868 63.8212 73.4148 63.8212C73.0428 63.8212 72.7008 63.7372 72.3888 63.5692C72.0888 63.4012 71.8248 63.1492 71.5968 62.8132C71.3688 62.4772 71.1828 62.0632 71.0388 61.5712C70.9068 61.0792 70.8408 60.5032 70.8408 59.8432C70.8408 58.7152 70.9968 57.6052 71.3088 56.5132C71.6208 55.4092 72.0588 54.4192 72.6228 53.5432C73.1868 52.6672 73.8528 51.9652 74.6208 51.4372C75.4008 50.8972 76.2588 50.6272 77.1948 50.6272C77.4828 50.6272 77.7588 50.6872 78.0228 50.8072C78.2868 50.9272 78.5148 51.0952 78.7068 51.3112C78.8988 51.5272 79.0488 51.7912 79.1568 52.1032C79.2768 52.4152 79.3368 52.7632 79.3368 53.1472C79.3368 53.2192 79.3368 53.2972 79.3368 53.3812C79.3368 53.4532 79.3308 53.5312 79.3188 53.6152L76.9608 54.2452C76.8168 53.9452 76.6488 53.7952 76.4568 53.7952C76.2648 53.7952 76.0608 53.9092 75.8448 54.1372C75.6408 54.3532 75.4368 54.6412 75.2328 55.0012C75.0288 55.3492 74.8308 55.7452 74.6388 56.1892C74.4468 56.6212 74.2788 57.0592 74.1348 57.5032C73.9908 57.9472 73.8708 58.3732 73.7748 58.7812C73.6908 59.1772 73.6488 59.5012 73.6488 59.7532C73.6488 60.1372 73.6968 60.4072 73.7928 60.5632C73.9008 60.7192 74.0388 60.7972 74.2068 60.7972C74.3388 60.7972 74.4888 60.7492 74.6568 60.6532C74.8248 60.5452 74.9808 60.4132 75.1248 60.2572C75.2688 60.0892 75.4008 59.9032 75.5208 59.6992C75.6408 59.4952 75.7248 59.2912 75.7728 59.0872L77.8248 59.9152ZM78.294 63.8212C78.606 62.1652 78.912 60.5392 79.212 58.9432C79.32 58.2712 79.44 57.5752 79.572 56.8552C79.704 56.1232 79.83 55.4032 79.95 54.6952C80.07 53.9872 80.184 53.3032 80.292 52.6432C80.4 51.9712 80.496 51.3592 80.58 50.8072L83.496 50.6092C83.292 51.4492 83.088 52.3252 82.884 53.2372C82.692 54.1492 82.512 55.0372 82.344 55.9012L84.126 55.7032C84.294 54.8512 84.444 54.0292 84.576 53.2372C84.708 52.4332 84.882 51.6052 85.098 50.7532C85.374 50.7052 85.68 50.6692 86.016 50.6452C86.352 50.6092 86.664 50.5792 86.952 50.5552C87.24 50.5312 87.48 50.5132 87.672 50.5012C87.876 50.4772 87.978 50.4652 87.978 50.4652C87.81 51.0052 87.648 51.5992 87.492 52.2472C87.348 52.8832 87.204 53.5492 87.06 54.2452C86.916 54.9292 86.778 55.6252 86.646 56.3332C86.514 57.0412 86.394 57.7132 86.286 58.3492C86.022 59.8732 85.776 61.4332 85.548 63.0292L82.74 63.3532C82.896 62.6332 83.034 61.9312 83.154 61.2472C83.274 60.6712 83.394 60.0712 83.514 59.4472C83.646 58.8232 83.748 58.2892 83.82 57.8452L82.074 58.0072C81.99 58.4632 81.888 58.9912 81.768 59.5912C81.66 60.1912 81.558 60.7612 81.462 61.3012C81.33 61.9492 81.198 62.5972 81.066 63.2452L78.294 63.8212ZM90.3788 62.3452C90.3788 62.5732 90.3248 62.8012 90.2168 63.0292C90.1208 63.2572 89.9768 63.4612 89.7848 63.6412C89.5928 63.8092 89.3528 63.9412 89.0648 64.0372C88.7768 64.1452 88.4468 64.1992 88.0748 64.1992C87.8228 64.1992 87.5948 64.1512 87.3908 64.0552C87.1868 63.9592 87.0188 63.8332 86.8868 63.6772C86.7668 63.5092 86.6708 63.3232 86.5988 63.1192C86.5268 62.9152 86.4908 62.7112 86.4908 62.5072C86.4908 62.2792 86.5268 62.0632 86.5988 61.8592C86.6708 61.6432 86.7788 61.4572 86.9228 61.3012C87.0788 61.1332 87.2648 60.9952 87.4808 60.8872C87.7088 60.7792 87.9788 60.7252 88.2908 60.7252C88.9868 60.7252 89.5088 60.8932 89.8568 61.2292C90.2048 61.5532 90.3788 61.9252 90.3788 62.3452ZM94.6806 62.3452C94.6806 62.5732 94.6266 62.8012 94.5186 63.0292C94.4226 63.2572 94.2786 63.4612 94.0866 63.6412C93.8946 63.8092 93.6546 63.9412 93.3666 64.0372C93.0786 64.1452 92.7486 64.1992 92.3766 64.1992C92.1246 64.1992 91.8966 64.1512 91.6926 64.0552C91.4886 63.9592 91.3206 63.8332 91.1886 63.6772C91.0686 63.5092 90.9726 63.3232 90.9006 63.1192C90.8286 62.9152 90.7926 62.7112 90.7926 62.5072C90.7926 62.2792 90.8286 62.0632 90.9006 61.8592C90.9726 61.6432 91.0806 61.4572 91.2246 61.3012C91.3806 61.1332 91.5666 60.9952 91.7826 60.8872C92.0106 60.7792 92.2806 60.7252 92.5926 60.7252C93.2886 60.7252 93.8106 60.8932 94.1586 61.2292C94.5066 61.5532 94.6806 61.9252 94.6806 62.3452ZM98.9823 62.3452C98.9823 62.5732 98.9283 62.8012 98.8203 63.0292C98.7243 63.2572 98.5803 63.4612 98.3883 63.6412C98.1963 63.8092 97.9563 63.9412 97.6683 64.0372C97.3803 64.1452 97.0503 64.1992 96.6783 64.1992C96.4263 64.1992 96.1983 64.1512 95.9943 64.0552C95.7903 63.9592 95.6223 63.8332 95.4903 63.6772C95.3703 63.5092 95.2743 63.3232 95.2023 63.1192C95.1303 62.9152 95.0943 62.7112 95.0943 62.5072C95.0943 62.2792 95.1303 62.0632 95.2023 61.8592C95.2743 61.6432 95.3823 61.4572 95.5263 61.3012C95.6823 61.1332 95.8683 60.9952 96.0843 60.8872C96.3123 60.7792 96.5823 60.7252 96.8943 60.7252C97.5903 60.7252 98.1123 60.8932 98.4603 61.2292C98.8083 61.5532 98.9823 61.9252 98.9823 62.3452Z" fill="#444444"/>
</svg>
