<svg width="23" height="23" viewBox="0 0 23 23" fill="none" xmlns="http://www.w3.org/2000/svg">
<g clip-path="url(#clip0)">
<path d="M19.6302 3.36656C15.1385 -1.12379 7.85703 -1.12271 3.36668 3.36903C-1.12367 7.86077 -1.12259 15.1422 3.36915 19.6325C7.86089 24.1228 15.1423 24.1218 19.6326 19.63C21.7891 17.4728 23.0003 14.5473 22.9997 11.4971C22.999 8.44731 21.787 5.52272 19.6302 3.36656ZM17.416 16.0189C17.4155 16.0194 17.415 16.0199 17.4145 16.0204V16.0166L16.8318 16.5954C16.0782 17.3585 14.9807 17.6725 13.9376 17.4234C12.8867 17.1421 11.8876 16.6943 10.9783 16.0971C10.1335 15.5572 9.35059 14.926 8.64379 14.2149C7.99345 13.5693 7.4092 12.8605 6.89961 12.0989C6.34222 11.2795 5.90104 10.3868 5.58861 9.44624C5.23044 8.34134 5.52724 7.12894 6.35529 6.31442L7.03761 5.6321C7.22731 5.44154 7.53556 5.44087 7.72608 5.63058C7.72657 5.63107 7.72711 5.63156 7.72761 5.6321L9.88192 7.78642C10.0725 7.97613 10.0732 8.28438 9.88345 8.47489C9.88296 8.47539 9.88246 8.47588 9.88192 8.47642L8.61692 9.74142C8.25396 10.1004 8.20831 10.6709 8.50961 11.0831C8.96714 11.711 9.47345 12.3019 10.0238 12.8503C10.6374 13.4665 11.3044 14.0271 12.0171 14.5255C12.4289 14.8127 12.9872 14.7643 13.3434 14.4105L14.5662 13.1685C14.7559 12.9779 15.0642 12.9772 15.2547 13.1669C15.2552 13.1674 15.2557 13.1679 15.2562 13.1685L17.4144 15.3305C17.605 15.5201 17.6057 15.8283 17.416 16.0189Z" fill="#444444"/>
</g>
<defs>
<clipPath id="clip0">
<rect width="23" height="23" fill="white"/>
</clipPath>
</defs>
</svg>
