<svg width="200" height="200" viewBox="0 0 200 200" fill="none" xmlns="http://www.w3.org/2000/svg">
<path d="M200 0H0V200H200V0Z" fill="white"/>
<path d="M19 13H13V19H19V13Z" fill="black"/>
<path d="M25 13H19V19H25V13Z" fill="black"/>
<path d="M31 13H25V19H31V13Z" fill="black"/>
<path d="M37 13H31V19H37V13Z" fill="black"/>
<path d="M43 13H37V19H43V13Z" fill="black"/>
<path d="M49 13H43V19H49V13Z" fill="black"/>
<path d="M55 13H49V19H55V13Z" fill="black"/>
<path d="M67 13H61V19H67V13Z" fill="black"/>
<path d="M73 13H67V19H73V13Z" fill="black"/>
<path d="M103 13H97V19H103V13Z" fill="black"/>
<path d="M115 13H109V19H115V13Z" fill="black"/>
<path d="M121 13H115V19H121V13Z" fill="black"/>
<path d="M127 13H121V19H127V13Z" fill="black"/>
<path d="M133 13H127V19H133V13Z" fill="black"/>
<path d="M139 13H133V19H139V13Z" fill="black"/>
<path d="M151 13H145V19H151V13Z" fill="black"/>
<path d="M157 13H151V19H157V13Z" fill="black"/>
<path d="M163 13H157V19H163V13Z" fill="black"/>
<path d="M169 13H163V19H169V13Z" fill="black"/>
<path d="M175 13H169V19H175V13Z" fill="black"/>
<path d="M181 13H175V19H181V13Z" fill="black"/>
<path d="M187 13H181V19H187V13Z" fill="black"/>
<path d="M19 19H13V25H19V19Z" fill="black"/>
<path d="M55 19H49V25H55V19Z" fill="black"/>
<path d="M97 19H91V25H97V19Z" fill="black"/>
<path d="M121 19H115V25H121V19Z" fill="black"/>
<path d="M127 19H121V25H127V19Z" fill="black"/>
<path d="M151 19H145V25H151V19Z" fill="black"/>
<path d="M187 19H181V25H187V19Z" fill="black"/>
<path d="M19 25H13V31H19V25Z" fill="black"/>
<path d="M31 25H25V31H31V25Z" fill="black"/>
<path d="M37 25H31V31H37V25Z" fill="black"/>
<path d="M43 25H37V31H43V25Z" fill="black"/>
<path d="M55 25H49V31H55V25Z" fill="black"/>
<path d="M67 25H61V31H67V25Z" fill="black"/>
<path d="M85 25H79V31H85V25Z" fill="black"/>
<path d="M91 25H85V31H91V25Z" fill="black"/>
<path d="M97 25H91V31H97V25Z" fill="black"/>
<path d="M103 25H97V31H103V25Z" fill="black"/>
<path d="M127 25H121V31H127V25Z" fill="black"/>
<path d="M139 25H133V31H139V25Z" fill="black"/>
<path d="M151 25H145V31H151V25Z" fill="black"/>
<path d="M163 25H157V31H163V25Z" fill="black"/>
<path d="M169 25H163V31H169V25Z" fill="black"/>
<path d="M175 25H169V31H175V25Z" fill="black"/>
<path d="M187 25H181V31H187V25Z" fill="black"/>
<path d="M19 31H13V37H19V31Z" fill="black"/>
<path d="M31 31H25V37H31V31Z" fill="black"/>
<path d="M37 31H31V37H37V31Z" fill="black"/>
<path d="M43 31H37V37H43V31Z" fill="black"/>
<path d="M55 31H49V37H55V31Z" fill="black"/>
<path d="M67 31H61V37H67V31Z" fill="black"/>
<path d="M73 31H67V37H73V31Z" fill="black"/>
<path d="M85 31H79V37H85V31Z" fill="black"/>
<path d="M97 31H91V37H97V31Z" fill="black"/>
<path d="M109 31H103V37H109V31Z" fill="black"/>
<path d="M115 31H109V37H115V31Z" fill="black"/>
<path d="M121 31H115V37H121V31Z" fill="black"/>
<path d="M127 31H121V37H127V31Z" fill="black"/>
<path d="M133 31H127V37H133V31Z" fill="black"/>
<path d="M151 31H145V37H151V31Z" fill="black"/>
<path d="M163 31H157V37H163V31Z" fill="black"/>
<path d="M169 31H163V37H169V31Z" fill="black"/>
<path d="M175 31H169V37H175V31Z" fill="black"/>
<path d="M187 31H181V37H187V31Z" fill="black"/>
<path d="M19 37H13V43H19V37Z" fill="black"/>
<path d="M31 37H25V43H31V37Z" fill="black"/>
<path d="M37 37H31V43H37V37Z" fill="black"/>
<path d="M43 37H37V43H43V37Z" fill="black"/>
<path d="M55 37H49V43H55V37Z" fill="black"/>
<path d="M67 37H61V43H67V37Z" fill="black"/>
<path d="M73 37H67V43H73V37Z" fill="black"/>
<path d="M79 37H73V43H79V37Z" fill="black"/>
<path d="M85 37H79V43H85V37Z" fill="black"/>
<path d="M97 37H91V43H97V37Z" fill="black"/>
<path d="M109 37H103V43H109V37Z" fill="black"/>
<path d="M133 37H127V43H133V37Z" fill="black"/>
<path d="M151 37H145V43H151V37Z" fill="black"/>
<path d="M163 37H157V43H163V37Z" fill="black"/>
<path d="M169 37H163V43H169V37Z" fill="black"/>
<path d="M175 37H169V43H175V37Z" fill="black"/>
<path d="M187 37H181V43H187V37Z" fill="black"/>
<path d="M19 43H13V49H19V43Z" fill="black"/>
<path d="M55 43H49V49H55V43Z" fill="black"/>
<path d="M73 43H67V49H73V43Z" fill="black"/>
<path d="M91 43H85V49H91V43Z" fill="black"/>
<path d="M97 43H91V49H97V43Z" fill="black"/>
<path d="M121 43H115V49H121V43Z" fill="black"/>
<path d="M127 43H121V49H127V43Z" fill="black"/>
<path d="M133 43H127V49H133V43Z" fill="black"/>
<path d="M139 43H133V49H139V43Z" fill="black"/>
<path d="M151 43H145V49H151V43Z" fill="black"/>
<path d="M187 43H181V49H187V43Z" fill="black"/>
<path d="M19 49H13V55H19V49Z" fill="black"/>
<path d="M25 49H19V55H25V49Z" fill="black"/>
<path d="M31 49H25V55H31V49Z" fill="black"/>
<path d="M37 49H31V55H37V49Z" fill="black"/>
<path d="M43 49H37V55H43V49Z" fill="black"/>
<path d="M49 49H43V55H49V49Z" fill="black"/>
<path d="M55 49H49V55H55V49Z" fill="black"/>
<path d="M67 49H61V55H67V49Z" fill="black"/>
<path d="M79 49H73V55H79V49Z" fill="black"/>
<path d="M91 49H85V55H91V49Z" fill="black"/>
<path d="M103 49H97V55H103V49Z" fill="black"/>
<path d="M115 49H109V55H115V49Z" fill="black"/>
<path d="M127 49H121V55H127V49Z" fill="black"/>
<path d="M139 49H133V55H139V49Z" fill="black"/>
<path d="M151 49H145V55H151V49Z" fill="black"/>
<path d="M157 49H151V55H157V49Z" fill="black"/>
<path d="M163 49H157V55H163V49Z" fill="black"/>
<path d="M169 49H163V55H169V49Z" fill="black"/>
<path d="M175 49H169V55H175V49Z" fill="black"/>
<path d="M181 49H175V55H181V49Z" fill="black"/>
<path d="M187 49H181V55H187V49Z" fill="black"/>
<path d="M73 55H67V61H73V55Z" fill="black"/>
<path d="M85 55H79V61H85V55Z" fill="black"/>
<path d="M109 55H103V61H109V55Z" fill="black"/>
<path d="M115 55H109V61H115V55Z" fill="black"/>
<path d="M121 55H115V61H121V55Z" fill="black"/>
<path d="M127 55H121V61H127V55Z" fill="black"/>
<path d="M133 55H127V61H133V55Z" fill="black"/>
<path d="M139 55H133V61H139V55Z" fill="black"/>
<path d="M19 61H13V67H19V61Z" fill="black"/>
<path d="M25 61H19V67H25V61Z" fill="black"/>
<path d="M31 61H25V67H31V61Z" fill="black"/>
<path d="M37 61H31V67H37V61Z" fill="black"/>
<path d="M55 61H49V67H55V61Z" fill="black"/>
<path d="M67 61H61V67H67V61Z" fill="black"/>
<path d="M97 61H91V67H97V61Z" fill="black"/>
<path d="M103 61H97V67H103V61Z" fill="black"/>
<path d="M121 61H115V67H121V61Z" fill="black"/>
<path d="M127 61H121V67H127V61Z" fill="black"/>
<path d="M133 61H127V67H133V61Z" fill="black"/>
<path d="M145 61H139V67H145V61Z" fill="black"/>
<path d="M163 61H157V67H163V61Z" fill="black"/>
<path d="M169 61H163V67H169V61Z" fill="black"/>
<path d="M175 61H169V67H175V61Z" fill="black"/>
<path d="M187 61H181V67H187V61Z" fill="black"/>
<path d="M31 67H25V73H31V67Z" fill="black"/>
<path d="M43 67H37V73H43V67Z" fill="black"/>
<path d="M49 67H43V73H49V67Z" fill="black"/>
<path d="M61 67H55V73H61V67Z" fill="black"/>
<path d="M73 67H67V73H73V67Z" fill="black"/>
<path d="M103 67H97V73H103V67Z" fill="black"/>
<path d="M115 67H109V73H115V67Z" fill="black"/>
<path d="M133 67H127V73H133V67Z" fill="black"/>
<path d="M139 67H133V73H139V67Z" fill="black"/>
<path d="M151 67H145V73H151V67Z" fill="black"/>
<path d="M157 67H151V73H157V67Z" fill="black"/>
<path d="M163 67H157V73H163V67Z" fill="black"/>
<path d="M187 67H181V73H187V67Z" fill="black"/>
<path d="M19 73H13V79H19V73Z" fill="black"/>
<path d="M25 73H19V79H25V73Z" fill="black"/>
<path d="M31 73H25V79H31V73Z" fill="black"/>
<path d="M37 73H31V79H37V73Z" fill="black"/>
<path d="M43 73H37V79H43V73Z" fill="black"/>
<path d="M55 73H49V79H55V73Z" fill="black"/>
<path d="M67 73H61V79H67V73Z" fill="black"/>
<path d="M97 73H91V79H97V73Z" fill="black"/>
<path d="M115 73H109V79H115V73Z" fill="black"/>
<path d="M127 73H121V79H127V73Z" fill="black"/>
<path d="M139 73H133V79H139V73Z" fill="black"/>
<path d="M151 73H145V79H151V73Z" fill="black"/>
<path d="M157 73H151V79H157V73Z" fill="black"/>
<path d="M163 73H157V79H163V73Z" fill="black"/>
<path d="M175 73H169V79H175V73Z" fill="black"/>
<path d="M181 73H175V79H181V73Z" fill="black"/>
<path d="M25 79H19V85H25V79Z" fill="black"/>
<path d="M37 79H31V85H37V79Z" fill="black"/>
<path d="M43 79H37V85H43V79Z" fill="black"/>
<path d="M61 79H55V85H61V79Z" fill="black"/>
<path d="M85 79H79V85H85V79Z" fill="black"/>
<path d="M91 79H85V85H91V79Z" fill="black"/>
<path d="M97 79H91V85H97V79Z" fill="black"/>
<path d="M103 79H97V85H103V79Z" fill="black"/>
<path d="M115 79H109V85H115V79Z" fill="black"/>
<path d="M127 79H121V85H127V79Z" fill="black"/>
<path d="M139 79H133V85H139V79Z" fill="black"/>
<path d="M145 79H139V85H145V79Z" fill="black"/>
<path d="M151 79H145V85H151V79Z" fill="black"/>
<path d="M157 79H151V85H157V79Z" fill="black"/>
<path d="M163 79H157V85H163V79Z" fill="black"/>
<path d="M187 79H181V85H187V79Z" fill="black"/>
<path d="M25 85H19V91H25V85Z" fill="black"/>
<path d="M31 85H25V91H31V85Z" fill="black"/>
<path d="M37 85H31V91H37V85Z" fill="black"/>
<path d="M49 85H43V91H49V85Z" fill="black"/>
<path d="M55 85H49V91H55V85Z" fill="black"/>
<path d="M73 85H67V91H73V85Z" fill="black"/>
<path d="M85 85H79V91H85V85Z" fill="black"/>
<path d="M97 85H91V91H97V85Z" fill="black"/>
<path d="M103 85H97V91H103V85Z" fill="black"/>
<path d="M109 85H103V91H109V85Z" fill="black"/>
<path d="M115 85H109V91H115V85Z" fill="black"/>
<path d="M121 85H115V91H121V85Z" fill="black"/>
<path d="M133 85H127V91H133V85Z" fill="black"/>
<path d="M169 85H163V91H169V85Z" fill="black"/>
<path d="M175 85H169V91H175V85Z" fill="black"/>
<path d="M19 91H13V97H19V91Z" fill="black"/>
<path d="M25 91H19V97H25V91Z" fill="black"/>
<path d="M37 91H31V97H37V91Z" fill="black"/>
<path d="M43 91H37V97H43V91Z" fill="black"/>
<path d="M49 91H43V97H49V91Z" fill="black"/>
<path d="M67 91H61V97H67V91Z" fill="black"/>
<path d="M79 91H73V97H79V91Z" fill="black"/>
<path d="M85 91H79V97H85V91Z" fill="black"/>
<path d="M103 91H97V97H103V91Z" fill="black"/>
<path d="M115 91H109V97H115V91Z" fill="black"/>
<path d="M121 91H115V97H121V91Z" fill="black"/>
<path d="M133 91H127V97H133V91Z" fill="black"/>
<path d="M139 91H133V97H139V91Z" fill="black"/>
<path d="M151 91H145V97H151V91Z" fill="black"/>
<path d="M157 91H151V97H157V91Z" fill="black"/>
<path d="M175 91H169V97H175V91Z" fill="black"/>
<path d="M181 91H175V97H181V91Z" fill="black"/>
<path d="M187 91H181V97H187V91Z" fill="black"/>
<path d="M19 97H13V103H19V97Z" fill="black"/>
<path d="M31 97H25V103H31V97Z" fill="black"/>
<path d="M43 97H37V103H43V97Z" fill="black"/>
<path d="M49 97H43V103H49V97Z" fill="black"/>
<path d="M55 97H49V103H55V97Z" fill="black"/>
<path d="M73 97H67V103H73V97Z" fill="black"/>
<path d="M79 97H73V103H79V97Z" fill="black"/>
<path d="M91 97H85V103H91V97Z" fill="black"/>
<path d="M103 97H97V103H103V97Z" fill="black"/>
<path d="M115 97H109V103H115V97Z" fill="black"/>
<path d="M133 97H127V103H133V97Z" fill="black"/>
<path d="M139 97H133V103H139V97Z" fill="black"/>
<path d="M145 97H139V103H145V97Z" fill="black"/>
<path d="M157 97H151V103H157V97Z" fill="black"/>
<path d="M163 97H157V103H163V97Z" fill="black"/>
<path d="M175 97H169V103H175V97Z" fill="black"/>
<path d="M181 97H175V103H181V97Z" fill="black"/>
<path d="M187 97H181V103H187V97Z" fill="black"/>
<path d="M19 103H13V109H19V103Z" fill="black"/>
<path d="M25 103H19V109H25V103Z" fill="black"/>
<path d="M37 103H31V109H37V103Z" fill="black"/>
<path d="M43 103H37V109H43V103Z" fill="black"/>
<path d="M67 103H61V109H67V103Z" fill="black"/>
<path d="M91 103H85V109H91V103Z" fill="black"/>
<path d="M103 103H97V109H103V103Z" fill="black"/>
<path d="M109 103H103V109H109V103Z" fill="black"/>
<path d="M115 103H109V109H115V103Z" fill="black"/>
<path d="M139 103H133V109H139V103Z" fill="black"/>
<path d="M151 103H145V109H151V103Z" fill="black"/>
<path d="M157 103H151V109H157V103Z" fill="black"/>
<path d="M163 103H157V109H163V103Z" fill="black"/>
<path d="M181 103H175V109H181V103Z" fill="black"/>
<path d="M19 109H13V115H19V109Z" fill="black"/>
<path d="M31 109H25V115H31V109Z" fill="black"/>
<path d="M37 109H31V115H37V109Z" fill="black"/>
<path d="M43 109H37V115H43V109Z" fill="black"/>
<path d="M55 109H49V115H55V109Z" fill="black"/>
<path d="M79 109H73V115H79V109Z" fill="black"/>
<path d="M85 109H79V115H85V109Z" fill="black"/>
<path d="M127 109H121V115H127V109Z" fill="black"/>
<path d="M139 109H133V115H139V109Z" fill="black"/>
<path d="M145 109H139V115H145V109Z" fill="black"/>
<path d="M163 109H157V115H163V109Z" fill="black"/>
<path d="M169 109H163V115H169V109Z" fill="black"/>
<path d="M181 109H175V115H181V109Z" fill="black"/>
<path d="M25 115H19V121H25V115Z" fill="black"/>
<path d="M31 115H25V121H31V115Z" fill="black"/>
<path d="M43 115H37V121H43V115Z" fill="black"/>
<path d="M61 115H55V121H61V115Z" fill="black"/>
<path d="M67 115H61V121H67V115Z" fill="black"/>
<path d="M73 115H67V121H73V115Z" fill="black"/>
<path d="M91 115H85V121H91V115Z" fill="black"/>
<path d="M103 115H97V121H103V115Z" fill="black"/>
<path d="M109 115H103V121H109V115Z" fill="black"/>
<path d="M127 115H121V121H127V115Z" fill="black"/>
<path d="M139 115H133V121H139V115Z" fill="black"/>
<path d="M145 115H139V121H145V115Z" fill="black"/>
<path d="M157 115H151V121H157V115Z" fill="black"/>
<path d="M169 115H163V121H169V115Z" fill="black"/>
<path d="M175 115H169V121H175V115Z" fill="black"/>
<path d="M181 115H175V121H181V115Z" fill="black"/>
<path d="M19 121H13V127H19V121Z" fill="black"/>
<path d="M37 121H31V127H37V121Z" fill="black"/>
<path d="M55 121H49V127H55V121Z" fill="black"/>
<path d="M67 121H61V127H67V121Z" fill="black"/>
<path d="M73 121H67V127H73V121Z" fill="black"/>
<path d="M79 121H73V127H79V121Z" fill="black"/>
<path d="M85 121H79V127H85V121Z" fill="black"/>
<path d="M91 121H85V127H91V121Z" fill="black"/>
<path d="M109 121H103V127H109V121Z" fill="black"/>
<path d="M115 121H109V127H115V121Z" fill="black"/>
<path d="M157 121H151V127H157V121Z" fill="black"/>
<path d="M175 121H169V127H175V121Z" fill="black"/>
<path d="M31 127H25V133H31V127Z" fill="black"/>
<path d="M37 127H31V133H37V127Z" fill="black"/>
<path d="M43 127H37V133H43V127Z" fill="black"/>
<path d="M49 127H43V133H49V127Z" fill="black"/>
<path d="M91 127H85V133H91V127Z" fill="black"/>
<path d="M103 127H97V133H103V127Z" fill="black"/>
<path d="M115 127H109V133H115V127Z" fill="black"/>
<path d="M121 127H115V133H121V127Z" fill="black"/>
<path d="M133 127H127V133H133V127Z" fill="black"/>
<path d="M139 127H133V133H139V127Z" fill="black"/>
<path d="M145 127H139V133H145V127Z" fill="black"/>
<path d="M175 127H169V133H175V127Z" fill="black"/>
<path d="M25 133H19V139H25V133Z" fill="black"/>
<path d="M37 133H31V139H37V133Z" fill="black"/>
<path d="M55 133H49V139H55V133Z" fill="black"/>
<path d="M61 133H55V139H61V133Z" fill="black"/>
<path d="M67 133H61V139H67V133Z" fill="black"/>
<path d="M73 133H67V139H73V133Z" fill="black"/>
<path d="M79 133H73V139H79V133Z" fill="black"/>
<path d="M85 133H79V139H85V133Z" fill="black"/>
<path d="M91 133H85V139H91V133Z" fill="black"/>
<path d="M103 133H97V139H103V133Z" fill="black"/>
<path d="M109 133H103V139H109V133Z" fill="black"/>
<path d="M121 133H115V139H121V133Z" fill="black"/>
<path d="M127 133H121V139H127V133Z" fill="black"/>
<path d="M133 133H127V139H133V133Z" fill="black"/>
<path d="M139 133H133V139H139V133Z" fill="black"/>
<path d="M145 133H139V139H145V133Z" fill="black"/>
<path d="M151 133H145V139H151V133Z" fill="black"/>
<path d="M157 133H151V139H157V133Z" fill="black"/>
<path d="M163 133H157V139H163V133Z" fill="black"/>
<path d="M169 133H163V139H169V133Z" fill="black"/>
<path d="M175 133H169V139H175V133Z" fill="black"/>
<path d="M67 139H61V145H67V139Z" fill="black"/>
<path d="M73 139H67V145H73V139Z" fill="black"/>
<path d="M79 139H73V145H79V139Z" fill="black"/>
<path d="M91 139H85V145H91V139Z" fill="black"/>
<path d="M127 139H121V145H127V139Z" fill="black"/>
<path d="M139 139H133V145H139V139Z" fill="black"/>
<path d="M163 139H157V145H163V139Z" fill="black"/>
<path d="M169 139H163V145H169V139Z" fill="black"/>
<path d="M175 139H169V145H175V139Z" fill="black"/>
<path d="M181 139H175V145H181V139Z" fill="black"/>
<path d="M187 139H181V145H187V139Z" fill="black"/>
<path d="M19 145H13V151H19V145Z" fill="black"/>
<path d="M25 145H19V151H25V145Z" fill="black"/>
<path d="M31 145H25V151H31V145Z" fill="black"/>
<path d="M37 145H31V151H37V145Z" fill="black"/>
<path d="M43 145H37V151H43V145Z" fill="black"/>
<path d="M49 145H43V151H49V145Z" fill="black"/>
<path d="M55 145H49V151H55V145Z" fill="black"/>
<path d="M73 145H67V151H73V145Z" fill="black"/>
<path d="M79 145H73V151H79V145Z" fill="black"/>
<path d="M85 145H79V151H85V145Z" fill="black"/>
<path d="M91 145H85V151H91V145Z" fill="black"/>
<path d="M97 145H91V151H97V145Z" fill="black"/>
<path d="M103 145H97V151H103V145Z" fill="black"/>
<path d="M133 145H127V151H133V145Z" fill="black"/>
<path d="M139 145H133V151H139V145Z" fill="black"/>
<path d="M151 145H145V151H151V145Z" fill="black"/>
<path d="M163 145H157V151H163V145Z" fill="black"/>
<path d="M169 145H163V151H169V145Z" fill="black"/>
<path d="M181 145H175V151H181V145Z" fill="black"/>
<path d="M19 151H13V157H19V151Z" fill="black"/>
<path d="M55 151H49V157H55V151Z" fill="black"/>
<path d="M73 151H67V157H73V151Z" fill="black"/>
<path d="M97 151H91V157H97V151Z" fill="black"/>
<path d="M103 151H97V157H103V151Z" fill="black"/>
<path d="M109 151H103V157H109V151Z" fill="black"/>
<path d="M127 151H121V157H127V151Z" fill="black"/>
<path d="M139 151H133V157H139V151Z" fill="black"/>
<path d="M163 151H157V157H163V151Z" fill="black"/>
<path d="M169 151H163V157H169V151Z" fill="black"/>
<path d="M181 151H175V157H181V151Z" fill="black"/>
<path d="M19 157H13V163H19V157Z" fill="black"/>
<path d="M31 157H25V163H31V157Z" fill="black"/>
<path d="M37 157H31V163H37V157Z" fill="black"/>
<path d="M43 157H37V163H43V157Z" fill="black"/>
<path d="M55 157H49V163H55V157Z" fill="black"/>
<path d="M79 157H73V163H79V157Z" fill="black"/>
<path d="M91 157H85V163H91V157Z" fill="black"/>
<path d="M103 157H97V163H103V157Z" fill="black"/>
<path d="M109 157H103V163H109V157Z" fill="black"/>
<path d="M115 157H109V163H115V157Z" fill="black"/>
<path d="M121 157H115V163H121V157Z" fill="black"/>
<path d="M139 157H133V163H139V157Z" fill="black"/>
<path d="M145 157H139V163H145V157Z" fill="black"/>
<path d="M151 157H145V163H151V157Z" fill="black"/>
<path d="M157 157H151V163H157V157Z" fill="black"/>
<path d="M163 157H157V163H163V157Z" fill="black"/>
<path d="M175 157H169V163H175V157Z" fill="black"/>
<path d="M181 157H175V163H181V157Z" fill="black"/>
<path d="M187 157H181V163H187V157Z" fill="black"/>
<path d="M19 163H13V169H19V163Z" fill="black"/>
<path d="M31 163H25V169H31V163Z" fill="black"/>
<path d="M37 163H31V169H37V163Z" fill="black"/>
<path d="M43 163H37V169H43V163Z" fill="black"/>
<path d="M55 163H49V169H55V163Z" fill="black"/>
<path d="M67 163H61V169H67V163Z" fill="black"/>
<path d="M85 163H79V169H85V163Z" fill="black"/>
<path d="M91 163H85V169H91V163Z" fill="black"/>
<path d="M109 163H103V169H109V163Z" fill="black"/>
<path d="M115 163H109V169H115V163Z" fill="black"/>
<path d="M133 163H127V169H133V163Z" fill="black"/>
<path d="M139 163H133V169H139V163Z" fill="black"/>
<path d="M145 163H139V169H145V163Z" fill="black"/>
<path d="M163 163H157V169H163V163Z" fill="black"/>
<path d="M169 163H163V169H169V163Z" fill="black"/>
<path d="M187 163H181V169H187V163Z" fill="black"/>
<path d="M19 169H13V175H19V169Z" fill="black"/>
<path d="M31 169H25V175H31V169Z" fill="black"/>
<path d="M37 169H31V175H37V169Z" fill="black"/>
<path d="M43 169H37V175H43V169Z" fill="black"/>
<path d="M55 169H49V175H55V169Z" fill="black"/>
<path d="M67 169H61V175H67V169Z" fill="black"/>
<path d="M79 169H73V175H79V169Z" fill="black"/>
<path d="M85 169H79V175H85V169Z" fill="black"/>
<path d="M97 169H91V175H97V169Z" fill="black"/>
<path d="M145 169H139V175H145V169Z" fill="black"/>
<path d="M157 169H151V175H157V169Z" fill="black"/>
<path d="M175 169H169V175H175V169Z" fill="black"/>
<path d="M187 169H181V175H187V169Z" fill="black"/>
<path d="M19 175H13V181H19V175Z" fill="black"/>
<path d="M55 175H49V181H55V175Z" fill="black"/>
<path d="M67 175H61V181H67V175Z" fill="black"/>
<path d="M85 175H79V181H85V175Z" fill="black"/>
<path d="M103 175H97V181H103V175Z" fill="black"/>
<path d="M115 175H109V181H115V175Z" fill="black"/>
<path d="M127 175H121V181H127V175Z" fill="black"/>
<path d="M133 175H127V181H133V175Z" fill="black"/>
<path d="M139 175H133V181H139V175Z" fill="black"/>
<path d="M157 175H151V181H157V175Z" fill="black"/>
<path d="M169 175H163V181H169V175Z" fill="black"/>
<path d="M181 175H175V181H181V175Z" fill="black"/>
<path d="M19 181H13V187H19V181Z" fill="black"/>
<path d="M25 181H19V187H25V181Z" fill="black"/>
<path d="M31 181H25V187H31V181Z" fill="black"/>
<path d="M37 181H31V187H37V181Z" fill="black"/>
<path d="M43 181H37V187H43V181Z" fill="black"/>
<path d="M49 181H43V187H49V181Z" fill="black"/>
<path d="M55 181H49V187H55V181Z" fill="black"/>
<path d="M67 181H61V187H67V181Z" fill="black"/>
<path d="M103 181H97V187H103V181Z" fill="black"/>
<path d="M109 181H103V187H109V181Z" fill="black"/>
<path d="M115 181H109V187H115V181Z" fill="black"/>
<path d="M133 181H127V187H133V181Z" fill="black"/>
<path d="M139 181H133V187H139V181Z" fill="black"/>
<path d="M169 181H163V187H169V181Z" fill="black"/>
<path d="M181 181H175V187H181V181Z" fill="black"/>
</svg>
