<svg width="22" height="22" viewBox="0 0 22 22" fill="none" xmlns="http://www.w3.org/2000/svg">
<g clip-path="url(#clip0)">
<path d="M21.858 6.08195C22.0414 5.89203 22.0361 5.58933 21.8462 5.40586C21.6609 5.22692 21.3672 5.22692 21.1819 5.40586L11.0006 15.5862L0.820206 5.40492C0.636738 5.215 0.33408 5.20975 0.144113 5.39318C-0.04581 5.57665 -0.0510542 5.8793 0.132369 6.06927C0.136224 6.07326 0.140123 6.07716 0.144113 6.08101L10.663 16.5999C10.8497 16.7866 11.1524 16.7866 11.3391 16.5999L21.858 6.08195Z" fill="#F44336"/>
<path d="M0.00536681 5.74334C0.00487374 5.47928 0.218597 5.26484 0.48266 5.26434C0.609963 5.26412 0.732111 5.31468 0.822029 5.40482L11.0024 15.5861L21.1827 5.40482C21.3697 5.21786 21.6728 5.21786 21.8598 5.40482C22.0467 5.59179 22.0467 5.89489 21.8598 6.08186L11.3409 16.6008C11.1542 16.7874 10.8515 16.7874 10.6648 16.6008L0.145937 6.08186C0.0559734 5.99221 0.00536681 5.87037 0.00536681 5.74334Z" fill="#444444"/>
</g>
<defs>
<clipPath id="clip0">
<rect width="22" height="22" fill="white" transform="translate(22) rotate(90)"/>
</clipPath>
</defs>
</svg>
