<svg width="17" height="17" viewBox="0 0 17 17" fill="none" xmlns="http://www.w3.org/2000/svg">
<path d="M6.47426 15.8685C6.46489 15.8684 6.45553 15.8678 6.44623 15.8666C6.39812 15.8607 6.35311 15.8398 6.31762 15.8068C6.28214 15.7738 6.258 15.7304 6.24866 15.6828L5.05568 9.54905L0.623041 7.60186C0.581149 7.58348 0.545696 7.55302 0.521226 7.51437C0.496756 7.47572 0.484382 7.43064 0.48569 7.38491C0.486998 7.33919 0.501928 7.29489 0.528567 7.2577C0.555207 7.22051 0.592343 7.19212 0.635217 7.17617L16.4154 1.30106C16.4544 1.28652 16.4967 1.28287 16.5377 1.29052C16.5787 1.29818 16.6168 1.31684 16.648 1.34451C16.6792 1.37217 16.7022 1.4078 16.7147 1.44758C16.7272 1.48736 16.7286 1.52978 16.7188 1.57031L13.7402 13.8758C13.7318 13.9101 13.7157 13.9421 13.693 13.9692C13.6703 13.9964 13.6417 14.0179 13.6093 14.0321C13.5769 14.0463 13.5417 14.0529 13.5064 14.0513C13.4711 14.0497 13.4366 14.0399 13.4057 14.0228L8.69322 11.4218L6.68239 15.7366C6.66381 15.7761 6.63436 15.8094 6.5975 15.8328C6.56064 15.8561 6.51789 15.8685 6.47426 15.8685V15.8685ZM1.32647 7.40912L5.35088 9.17804C5.38486 9.19299 5.41471 9.21595 5.43787 9.24495C5.46104 9.27396 5.47683 9.30815 5.48389 9.34459L6.56477 14.9018L8.38079 11.0042C8.39409 10.9756 8.41311 10.9502 8.43667 10.9293C8.46023 10.9084 8.48783 10.8926 8.51775 10.8829C8.54767 10.8731 8.57927 10.8696 8.6106 10.8726C8.64193 10.8755 8.67232 10.8849 8.69988 10.9001L13.3634 13.4731L16.1707 1.88228L1.32647 7.40912Z" fill="#444444"/>
<path d="M8.58894 11.3315C8.5454 11.3315 8.50276 11.3191 8.466 11.2957C8.42923 11.2724 8.39986 11.2391 8.38129 11.1997C8.36273 11.1603 8.35574 11.1165 8.36115 11.0733C8.36655 11.0301 8.38413 10.9893 8.41182 10.9557L15.2424 2.6746L5.39019 9.57568C5.36548 9.593 5.3376 9.60528 5.30815 9.61182C5.27869 9.61837 5.24824 9.61904 5.21852 9.61382C5.18881 9.60859 5.16041 9.59756 5.13496 9.58136C5.1095 9.56516 5.08749 9.54411 5.07017 9.5194C5.05286 9.49469 5.04058 9.46681 5.03403 9.43736C5.02749 9.40791 5.02681 9.37745 5.03204 9.34774C5.03726 9.31802 5.04829 9.28962 5.06449 9.26417C5.08069 9.23872 5.10175 9.2167 5.12646 9.19939L16.3637 1.32816C16.4092 1.29618 16.4647 1.28179 16.5201 1.28766C16.5754 1.29354 16.6267 1.31928 16.6644 1.3601C16.7022 1.40093 16.7239 1.45407 16.7254 1.50967C16.727 1.56526 16.7083 1.61953 16.6729 1.66241L8.7663 11.2479C8.74473 11.274 8.71765 11.2951 8.68699 11.3096C8.65633 11.324 8.62284 11.3315 8.58894 11.3315V11.3315Z" fill="#444444"/>
<path d="M6.47378 15.8693C6.42785 15.8693 6.38295 15.8556 6.34489 15.8299C6.30683 15.8042 6.27735 15.7676 6.26027 15.725C6.24318 15.6824 6.23926 15.6356 6.24902 15.5907C6.25879 15.5458 6.28178 15.5049 6.31504 15.4732L10.0353 11.9214C10.0569 11.8998 10.0827 11.8827 10.111 11.8712C10.1394 11.8596 10.1697 11.8539 10.2003 11.8543C10.2309 11.8546 10.2611 11.8611 10.2892 11.8733C10.3172 11.8855 10.3426 11.9032 10.3637 11.9253C10.3848 11.9474 10.4013 11.9736 10.4122 12.0021C10.4231 12.0307 10.4282 12.0612 10.4271 12.0918C10.4261 12.1224 10.419 12.1524 10.4062 12.1802C10.3934 12.208 10.3751 12.2329 10.3525 12.2536L6.63229 15.8054C6.58963 15.8463 6.53286 15.8692 6.47378 15.8693V15.8693Z" fill="#444444"/>
</svg>
