<svg width="442" height="442" viewBox="0 0 442 442" fill="none" xmlns="http://www.w3.org/2000/svg">
<g clip-path="url(#clip0)">
<path d="M220.766 0.00891113C98.8531 0.00891113 0 98.8426 0 220.765C0 342.688 98.8434 441.521 220.766 441.521C342.698 441.521 441.532 342.688 441.532 220.765C441.532 98.8426 342.698 0.00891113 220.766 0.00891113ZM220.766 66.0176C261.106 66.0176 293.795 98.7165 293.795 139.037C293.795 179.368 261.106 212.057 220.766 212.057C180.445 212.057 147.756 179.368 147.756 139.037C147.756 98.7165 180.445 66.0176 220.766 66.0176ZM220.718 383.804C180.484 383.804 143.635 369.151 115.212 344.899C108.288 338.993 104.293 330.334 104.293 321.247C104.293 280.354 137.39 247.626 178.292 247.626H263.259C304.171 247.626 337.142 280.354 337.142 321.247C337.142 330.343 333.166 338.984 326.233 344.889C297.82 369.151 260.961 383.804 220.718 383.804Z" fill="#444444"/>
</g>
<defs>
<clipPath id="clip0">
<rect width="441.532" height="441.532" fill="white"/>
</clipPath>
</defs>
</svg>
