<svg width="340" height="210" viewBox="0 0 340 210" fill="none" xmlns="http://www.w3.org/2000/svg">
<path d="M172.83 208.925C172.087 208.82 169.876 208.519 167.916 208.255C158.34 206.962 147.404 202.359 138.36 195.815C132.854 191.83 122.139 180.81 122.139 179.132C122.139 178.873 123.108 177.462 124.292 175.997C128.602 170.668 132.515 162.333 133.163 157.103C133.382 155.337 133.252 155.535 132.124 158.674C129.222 166.762 125.592 172.633 120.163 178.018C110.99 187.118 100.175 191.47 86.9926 191.368C81.9967 191.329 80.1361 191.115 76.5818 190.171C68.0984 187.917 61.3002 184.062 55.2686 178.085C46.5524 169.448 41.7651 158.467 41.4457 146.377L41.3465 142.612L45.9193 141.121C49.8958 139.825 54.5503 137.641 54.5503 137.072C54.5503 136.969 53.7901 137.216 52.8606 137.619C43.2078 141.813 34.1086 142.333 25.0189 139.211C13.2763 135.178 5.16692 126.328 1.98674 114.077C0.99344 110.252 0.884837 109.084 1.08103 104.342C1.24704 100.325 1.58529 98.0754 2.40997 95.5047C5.51959 85.8098 12.3451 77.9206 21.3532 73.6091C24.4691 72.1177 29.5599 70.44 30.9691 70.44C31.1869 70.44 31.6175 71.7685 31.9268 73.3925C32.236 75.0166 33.003 77.2898 33.6318 78.4443C34.2602 79.5985 34.6481 80.1389 34.4935 79.645C31.8165 71.1034 32.6553 62.7464 36.8738 55.9337C41.1018 49.1056 50.3412 43.9626 58.3803 43.9626C64.006 43.9626 71.3249 46.9168 75.6999 50.9532C79.2112 54.1927 81.3698 57.5133 83.2225 62.5246C84.2744 65.3704 84.6591 66.0741 84.4814 64.8269C83.6816 59.2133 81.6475 54.9654 77.4252 50.0906L75.1621 47.4779L75.3937 41.5589C75.5763 36.9327 75.8894 34.7575 76.8323 31.5988C83.5441 9.11628 106.039 -3.41048 129.216 2.42773C142.688 5.82125 154.29 15.5531 160.442 28.6195C161.27 30.3781 162.025 31.7398 162.119 31.6455C162.454 31.3125 159.519 24.3304 157.962 21.7537C157.094 20.3171 156.384 18.9917 156.384 18.8083C156.384 18.2531 160.478 14.6345 163.65 12.3862C167.773 9.46444 176.079 5.61145 180.941 4.3659C186.561 2.92602 196.334 2.92644 201.642 4.3659C221.011 9.62122 231.406 27.932 225.237 45.9274C224.721 47.4308 223.913 49.4691 223.44 50.457C222.757 51.8853 222.733 52.0691 223.324 51.3552C224.827 49.5422 227.145 44.1041 227.892 40.6373C228.66 37.0779 228.663 37.0729 231.354 35.0986C237.255 30.7699 243.692 27.9726 250.84 26.6313C255.654 25.7277 264.645 25.9506 268.755 27.0754C276.074 29.079 282.873 32.8062 288.128 37.6968C292.528 41.7916 295.271 45.4444 297.71 50.457C303.466 62.283 303.774 74.7779 298.624 87.4804C297.978 89.0735 297.519 90.4457 297.603 90.5297C297.899 90.8252 301.443 83.2082 302.013 81.0493L302.591 78.8624L307.101 79.0979C312.619 79.3864 315.888 80.2238 320.743 82.5923C329.445 86.8373 335.816 94.7625 338.226 104.34C339.25 108.409 339.259 115.411 338.247 119.608C336.097 128.509 329.846 136.442 321.565 140.779C316.843 143.252 313.606 144.107 307.868 144.398C300.913 144.751 296.573 143.829 290.352 140.679C287.796 139.385 285.706 138.379 285.706 138.444C285.706 138.797 291.388 142.456 293.127 143.222C294.25 143.717 295.168 144.293 295.168 144.502C295.168 145.644 293.055 151.498 291.56 154.496C285.857 165.937 276.231 173.736 263.554 177.185C259.91 178.177 249.414 178.27 245.152 177.349C240.153 176.268 230.734 172.442 230.734 171.492C230.734 171.266 231.059 169.603 231.457 167.796C232.278 164.07 232.459 153.615 231.759 150.367C231.4 148.697 231.318 149.439 231.292 154.633C231.255 161.911 230.774 165.643 229.156 171.205C222.814 193.015 203.096 208.028 179.634 208.91C176.637 209.023 173.576 209.029 172.833 208.931L172.83 208.925ZM133.676 153.632C133.526 153.483 133.42 153.747 133.439 154.221C133.46 154.745 133.567 154.851 133.712 154.493C133.841 154.169 133.825 153.781 133.675 153.632L133.676 153.632Z" fill="#F0F0F0" stroke="#444444" stroke-linecap="round" stroke-linejoin="round"/>
<path d="M128.906 112.072L130.274 99.292C130.838 99.268 131.366 99.214 131.858 99.13C132.362 99.034 132.86 98.968 133.352 98.932C133.352 98.944 133.334 99.07 133.298 99.31C133.262 99.538 133.214 99.844 133.154 100.228C133.094 100.6 133.028 101.026 132.956 101.506C132.884 101.974 132.776 102.622 132.632 103.45C132.5 104.278 132.32 105.424 132.092 106.888H132.362C132.674 105.784 132.932 104.884 133.136 104.188C133.34 103.48 133.502 102.91 133.622 102.478C133.754 102.034 133.874 101.608 133.982 101.2C134.102 100.792 134.21 100.414 134.306 100.066C134.414 99.718 134.498 99.424 134.558 99.184H134.72C134.936 99.184 135.152 99.172 135.368 99.148C135.596 99.124 135.806 99.1 135.998 99.076C136.202 99.04 136.412 98.998 136.628 98.95C136.604 99.058 136.574 99.28 136.538 99.616C136.514 99.952 136.478 100.36 136.43 100.84C136.382 101.308 136.334 101.83 136.286 102.406C136.238 102.97 136.19 103.528 136.142 104.08C136.094 104.62 136.046 105.136 135.998 105.628C135.962 106.12 135.926 106.54 135.89 106.888H136.214L137.924 99.148C138.332 99.088 138.734 99.034 139.13 98.986C139.478 98.938 139.838 98.89 140.21 98.842C140.582 98.794 140.912 98.74 141.2 98.68C141.02 99.184 140.84 99.748 140.66 100.372C140.48 100.984 140.294 101.632 140.102 102.316C139.91 103 139.724 103.69 139.544 104.386C139.376 105.082 139.208 105.754 139.04 106.402C138.656 107.938 138.284 109.516 137.924 111.136L133.856 111.82L134.648 104.872H134.432L132.65 111.406L128.906 112.072ZM146.143 111.64C145.843 111.688 145.513 111.742 145.153 111.802C144.793 111.862 144.469 111.916 144.181 111.964C144.229 111.568 144.277 111.178 144.325 110.794C144.361 110.458 144.391 110.122 144.415 109.786C144.451 109.45 144.481 109.162 144.505 108.922H142.939L142.219 111.514C141.955 111.55 141.643 111.592 141.283 111.64C140.923 111.676 140.587 111.712 140.275 111.748C139.891 111.796 139.513 111.844 139.141 111.892C139.621 110.296 140.095 108.724 140.563 107.176C140.755 106.528 140.953 105.85 141.157 105.142C141.373 104.434 141.583 103.732 141.787 103.036C142.003 102.328 142.207 101.65 142.399 101.002C142.591 100.354 142.759 99.76 142.903 99.22C143.719 99.16 144.547 99.088 145.387 99.004C146.239 98.92 147.067 98.806 147.871 98.662C147.835 99.046 147.793 99.526 147.745 100.102C147.709 100.666 147.673 101.284 147.637 101.956C147.601 102.628 147.565 103.33 147.529 104.062C147.493 104.794 147.457 105.514 147.421 106.222C147.361 107.878 147.295 109.636 147.223 111.496C146.863 111.556 146.503 111.604 146.143 111.64ZM143.371 107.122C143.419 107.122 143.503 107.122 143.623 107.122C143.755 107.11 143.887 107.104 144.019 107.104C144.163 107.092 144.295 107.086 144.415 107.086C144.535 107.074 144.619 107.062 144.667 107.05C144.667 106.978 144.673 106.858 144.685 106.69C144.709 106.51 144.727 106.312 144.739 106.096C144.763 105.868 144.787 105.622 144.811 105.358C144.835 105.094 144.859 104.836 144.883 104.584C144.931 103.972 144.991 103.312 145.063 102.604L145.171 101.038L144.901 101.056L144.487 102.604L143.371 107.122ZM150.906 111.64C150.798 111.64 150.582 111.658 150.258 111.694C149.946 111.718 149.622 111.754 149.286 111.802C148.95 111.838 148.644 111.874 148.368 111.91C148.104 111.946 147.96 111.97 147.936 111.982C148.056 111.466 148.176 110.896 148.296 110.272C148.428 109.636 148.56 108.976 148.692 108.292C148.824 107.596 148.95 106.894 149.07 106.186C149.19 105.478 149.304 104.794 149.412 104.134C149.664 102.598 149.916 101.02 150.168 99.4L152.976 98.95C152.7 100.558 152.43 102.136 152.166 103.684C152.058 104.344 151.944 105.028 151.824 105.736C151.716 106.444 151.602 107.146 151.482 107.842C151.374 108.538 151.272 109.216 151.176 109.876C151.08 110.524 150.99 111.112 150.906 111.64ZM153.645 112.018C153.921 110.698 154.185 109.396 154.437 108.112C154.545 107.572 154.653 107.008 154.761 106.42C154.869 105.832 154.971 105.256 155.067 104.692C155.175 104.116 155.265 103.564 155.337 103.036C155.421 102.496 155.493 102.004 155.553 101.56C155.277 101.524 154.995 101.512 154.707 101.524C154.431 101.536 154.155 101.5 153.879 101.416C153.891 101.224 153.897 101.002 153.897 100.75C153.897 100.498 153.903 100.246 153.915 99.994C153.927 99.718 153.939 99.424 153.951 99.112C154.263 99.136 154.575 99.154 154.887 99.166C155.199 99.178 155.511 99.184 155.823 99.184C156.435 99.184 157.023 99.172 157.587 99.148C158.163 99.112 158.691 99.076 159.171 99.04C159.663 98.992 160.143 98.938 160.611 98.878L160.413 99.85C160.353 100.126 160.293 100.408 160.233 100.696C160.185 100.984 160.137 101.23 160.089 101.434C159.825 101.506 159.555 101.56 159.279 101.596C159.015 101.62 158.751 101.656 158.487 101.704C158.403 102.112 158.313 102.568 158.217 103.072C158.121 103.564 158.025 104.08 157.929 104.62C157.845 105.148 157.761 105.688 157.677 106.24C157.593 106.792 157.509 107.32 157.425 107.824C157.233 109.012 157.053 110.242 156.885 111.514L153.645 112.018ZM169.766 111.64C169.466 111.688 169.136 111.742 168.776 111.802C168.416 111.862 168.092 111.916 167.804 111.964C167.852 111.568 167.9 111.178 167.948 110.794C167.984 110.458 168.014 110.122 168.038 109.786C168.074 109.45 168.104 109.162 168.128 108.922H166.562L165.842 111.514C165.578 111.55 165.266 111.592 164.906 111.64C164.546 111.676 164.21 111.712 163.898 111.748C163.514 111.796 163.136 111.844 162.764 111.892C163.244 110.296 163.718 108.724 164.186 107.176C164.378 106.528 164.576 105.85 164.78 105.142C164.996 104.434 165.206 103.732 165.41 103.036C165.626 102.328 165.83 101.65 166.022 101.002C166.214 100.354 166.382 99.76 166.526 99.22C167.342 99.16 168.17 99.088 169.01 99.004C169.862 98.92 170.69 98.806 171.494 98.662C171.458 99.046 171.416 99.526 171.368 100.102C171.332 100.666 171.296 101.284 171.26 101.956C171.224 102.628 171.188 103.33 171.152 104.062C171.116 104.794 171.08 105.514 171.044 106.222C170.984 107.878 170.918 109.636 170.846 111.496C170.486 111.556 170.126 111.604 169.766 111.64ZM166.994 107.122C167.042 107.122 167.126 107.122 167.246 107.122C167.378 107.11 167.51 107.104 167.642 107.104C167.786 107.092 167.918 107.086 168.038 107.086C168.158 107.074 168.242 107.062 168.29 107.05C168.29 106.978 168.296 106.858 168.308 106.69C168.332 106.51 168.35 106.312 168.362 106.096C168.386 105.868 168.41 105.622 168.434 105.358C168.458 105.094 168.482 104.836 168.506 104.584C168.554 103.972 168.614 103.312 168.686 102.604L168.794 101.038L168.524 101.056L168.11 102.604L166.994 107.122ZM183.498 107.554C183.498 108.226 183.366 108.838 183.102 109.39C182.85 109.93 182.502 110.398 182.058 110.794C181.626 111.19 181.11 111.496 180.51 111.712C179.922 111.928 179.286 112.036 178.602 112.036C178.122 112.036 177.642 111.91 177.162 111.658C176.682 111.394 176.22 110.98 175.776 110.416L177.108 107.806C177.192 107.962 177.318 108.124 177.486 108.292C177.654 108.448 177.84 108.586 178.044 108.706C178.26 108.826 178.47 108.928 178.674 109.012C178.89 109.084 179.082 109.12 179.25 109.12C179.394 109.12 179.544 109.096 179.7 109.048C179.856 109 180 108.928 180.132 108.832C180.264 108.736 180.366 108.628 180.438 108.508C180.522 108.376 180.564 108.226 180.564 108.058C180.564 107.77 180.468 107.506 180.276 107.266C180.096 107.014 179.868 106.78 179.592 106.564C179.316 106.336 179.016 106.108 178.692 105.88C178.368 105.652 178.068 105.412 177.792 105.16C177.528 104.908 177.3 104.626 177.108 104.314C176.916 104.002 176.82 103.654 176.82 103.27C176.82 102.646 177.006 102.064 177.378 101.524C177.75 100.984 178.212 100.522 178.764 100.138C179.328 99.742 179.94 99.43 180.6 99.202C181.26 98.974 181.884 98.86 182.472 98.86C182.796 98.86 183.102 98.902 183.39 98.986C183.678 99.058 183.924 99.184 184.128 99.364C184.344 99.532 184.512 99.748 184.632 100.012C184.764 100.276 184.83 100.606 184.83 101.002C184.83 101.17 184.812 101.338 184.776 101.506C184.752 101.674 184.728 101.854 184.704 102.046L182.094 102.802C182.118 102.706 182.136 102.61 182.148 102.514C182.172 102.418 182.184 102.322 182.184 102.226C182.184 101.866 182.118 101.608 181.986 101.452C181.866 101.284 181.704 101.2 181.5 101.2C181.404 101.2 181.284 101.236 181.14 101.308C181.008 101.38 180.87 101.476 180.726 101.596C180.594 101.704 180.48 101.836 180.384 101.992C180.288 102.148 180.24 102.316 180.24 102.496C180.24 102.784 180.318 103.024 180.474 103.216C180.642 103.408 180.846 103.588 181.086 103.756C181.326 103.924 181.584 104.098 181.86 104.278C182.148 104.446 182.412 104.668 182.652 104.944C182.892 105.22 183.09 105.568 183.246 105.988C183.414 106.396 183.498 106.918 183.498 107.554ZM183.943 112.018L186.301 99.22L191.989 98.734C191.905 98.998 191.833 99.268 191.773 99.544C191.713 99.772 191.653 100.012 191.593 100.264C191.545 100.504 191.503 100.72 191.467 100.912C191.347 100.924 191.173 100.936 190.945 100.948C190.729 100.948 190.495 100.954 190.243 100.966C189.991 100.966 189.733 100.966 189.469 100.966C189.217 100.966 188.995 100.966 188.803 100.966L188.173 104.188C188.545 104.164 188.893 104.146 189.217 104.134C189.481 104.122 189.751 104.116 190.027 104.116C190.303 104.116 190.507 104.11 190.639 104.098C190.591 104.434 190.543 104.764 190.495 105.088C190.459 105.412 190.411 105.742 190.351 106.078C190.231 106.09 190.033 106.102 189.757 106.114C189.493 106.114 189.223 106.12 188.947 106.132C188.635 106.144 188.293 106.156 187.921 106.168L187.309 109.48L189.937 109.066L189.757 111.118L183.943 112.018ZM198.16 108.13C197.872 108.79 197.548 109.366 197.188 109.858C196.84 110.338 196.468 110.746 196.072 111.082C195.688 111.406 195.298 111.646 194.902 111.802C194.506 111.958 194.122 112.036 193.75 112.036C193.378 112.036 193.036 111.952 192.724 111.784C192.424 111.616 192.16 111.364 191.932 111.028C191.704 110.692 191.518 110.278 191.374 109.786C191.242 109.294 191.176 108.718 191.176 108.058C191.176 106.93 191.332 105.82 191.644 104.728C191.956 103.624 192.394 102.634 192.958 101.758C193.522 100.882 194.188 100.18 194.956 99.652C195.736 99.112 196.594 98.842 197.53 98.842C197.818 98.842 198.094 98.902 198.358 99.022C198.622 99.142 198.85 99.31 199.042 99.526C199.234 99.742 199.384 100.006 199.492 100.318C199.612 100.63 199.672 100.978 199.672 101.362C199.672 101.434 199.672 101.512 199.672 101.596C199.672 101.668 199.666 101.746 199.654 101.83L197.296 102.46C197.152 102.16 196.984 102.01 196.792 102.01C196.6 102.01 196.396 102.124 196.18 102.352C195.976 102.568 195.772 102.856 195.568 103.216C195.364 103.564 195.166 103.96 194.974 104.404C194.782 104.836 194.614 105.274 194.47 105.718C194.326 106.162 194.206 106.588 194.11 106.996C194.026 107.392 193.984 107.716 193.984 107.968C193.984 108.352 194.032 108.622 194.128 108.778C194.236 108.934 194.374 109.012 194.542 109.012C194.674 109.012 194.824 108.964 194.992 108.868C195.16 108.76 195.316 108.628 195.46 108.472C195.604 108.304 195.736 108.118 195.856 107.914C195.976 107.71 196.06 107.506 196.108 107.302L198.16 108.13ZM202.211 110.56C202.211 110.788 202.157 111.016 202.049 111.244C201.953 111.472 201.809 111.676 201.617 111.856C201.425 112.024 201.185 112.156 200.897 112.252C200.609 112.36 200.279 112.414 199.907 112.414C199.655 112.414 199.427 112.366 199.223 112.27C199.019 112.174 198.851 112.048 198.719 111.892C198.599 111.724 198.503 111.538 198.431 111.334C198.359 111.13 198.323 110.926 198.323 110.722C198.323 110.494 198.359 110.278 198.431 110.074C198.503 109.858 198.611 109.672 198.755 109.516C198.911 109.348 199.097 109.21 199.313 109.102C199.541 108.994 199.811 108.94 200.123 108.94C200.819 108.94 201.341 109.108 201.689 109.444C202.037 109.768 202.211 110.14 202.211 110.56ZM206.512 110.56C206.512 110.788 206.458 111.016 206.35 111.244C206.254 111.472 206.11 111.676 205.918 111.856C205.726 112.024 205.486 112.156 205.198 112.252C204.91 112.36 204.58 112.414 204.208 112.414C203.956 112.414 203.728 112.366 203.524 112.27C203.32 112.174 203.152 112.048 203.02 111.892C202.9 111.724 202.804 111.538 202.732 111.334C202.66 111.13 202.624 110.926 202.624 110.722C202.624 110.494 202.66 110.278 202.732 110.074C202.804 109.858 202.912 109.672 203.056 109.516C203.212 109.348 203.398 109.21 203.614 109.102C203.842 108.994 204.112 108.94 204.424 108.94C205.12 108.94 205.642 109.108 205.99 109.444C206.338 109.768 206.512 110.14 206.512 110.56ZM210.814 110.56C210.814 110.788 210.76 111.016 210.652 111.244C210.556 111.472 210.412 111.676 210.22 111.856C210.028 112.024 209.788 112.156 209.5 112.252C209.212 112.36 208.882 112.414 208.51 112.414C208.258 112.414 208.03 112.366 207.826 112.27C207.622 112.174 207.454 112.048 207.322 111.892C207.202 111.724 207.106 111.538 207.034 111.334C206.962 111.13 206.926 110.926 206.926 110.722C206.926 110.494 206.962 110.278 207.034 110.074C207.106 109.858 207.214 109.672 207.358 109.516C207.514 109.348 207.7 109.21 207.916 109.102C208.144 108.994 208.414 108.94 208.726 108.94C209.422 108.94 209.944 109.108 210.292 109.444C210.64 109.768 210.814 110.14 210.814 110.56Z" fill="#444444"/>
</svg>
