<svg width="352" height="222" viewBox="0 0 352 222" fill="none" xmlns="http://www.w3.org/2000/svg">
<g filter="url(#filter0_d)">
<path d="M183.83 209.925C183.087 209.82 180.876 209.519 178.916 209.255C169.34 207.962 158.404 203.359 149.36 196.815C143.854 192.83 133.139 181.81 133.139 180.132C133.139 179.873 134.108 178.462 135.292 176.997C139.602 171.668 143.515 163.333 144.163 158.103C144.382 156.337 144.252 156.535 143.124 159.674C140.222 167.762 136.592 173.633 131.163 179.018C121.99 188.118 111.175 192.47 97.9926 192.368C92.9967 192.329 91.1361 192.115 87.5818 191.171C79.0984 188.917 72.3002 185.062 66.2686 179.085C57.5524 170.448 52.7651 159.467 52.4457 147.377L52.3465 143.612L56.9193 142.121C60.8958 140.825 65.5503 138.641 65.5503 138.072C65.5503 137.969 64.7901 138.216 63.8606 138.619C54.2078 142.813 45.1086 143.333 36.0189 140.211C24.2763 136.178 16.1669 127.328 12.9867 115.077C11.9934 111.252 11.8848 110.084 12.081 105.342C12.247 101.325 12.5853 99.0754 13.41 96.5047C16.5196 86.8098 23.3451 78.9206 32.3532 74.6091C35.4691 73.1177 40.5599 71.44 41.9691 71.44C42.1869 71.44 42.6175 72.7685 42.9268 74.3925C43.236 76.0166 44.003 78.2898 44.6318 79.4443C45.2602 80.5985 45.6481 81.1389 45.4935 80.645C42.8165 72.1034 43.6553 63.7464 47.8738 56.9337C52.1018 50.1056 61.3412 44.9626 69.3803 44.9626C75.006 44.9626 82.3249 47.9168 86.6999 51.9532C90.2112 55.1927 92.3698 58.5133 94.2225 63.5246C95.2744 66.3704 95.6591 67.0741 95.4814 65.8269C94.6816 60.2133 92.6475 55.9654 88.4252 51.0906L86.1621 48.4779L86.3937 42.5589C86.5763 37.9327 86.8894 35.7575 87.8323 32.5988C94.5441 10.1163 117.039 -2.41048 140.216 3.42773C153.688 6.82125 165.29 16.5531 171.442 29.6195C172.27 31.3781 173.025 32.7398 173.119 32.6455C173.454 32.3125 170.519 25.3304 168.962 22.7537C168.094 21.3171 167.384 19.9917 167.384 19.8083C167.384 19.2531 171.478 15.6345 174.65 13.3862C178.773 10.4644 187.079 6.61145 191.941 5.3659C197.561 3.92602 207.334 3.92644 212.642 5.3659C232.011 10.6212 242.406 28.932 236.237 46.9274C235.721 48.4308 234.913 50.4691 234.44 51.457C233.757 52.8853 233.733 53.0691 234.324 52.3552C235.827 50.5422 238.145 45.1041 238.892 41.6373C239.66 38.0779 239.663 38.0729 242.354 36.0986C248.255 31.7699 254.692 28.9726 261.84 27.6313C266.654 26.7277 275.645 26.9506 279.755 28.0754C287.074 30.079 293.873 33.8062 299.128 38.6968C303.528 42.7916 306.271 46.4444 308.71 51.457C314.466 63.283 314.774 75.7779 309.624 88.4804C308.978 90.0735 308.519 91.4457 308.603 91.5297C308.899 91.8252 312.443 84.2082 313.013 82.0493L313.591 79.8624L318.101 80.0979C323.619 80.3864 326.888 81.2238 331.743 83.5923C340.445 87.8373 346.816 95.7625 349.226 105.34C350.25 109.409 350.259 116.411 349.247 120.608C347.097 129.509 340.846 137.442 332.565 141.779C327.843 144.252 324.606 145.107 318.868 145.398C311.913 145.751 307.573 144.829 301.352 141.679C298.796 140.385 296.706 139.379 296.706 139.444C296.706 139.797 302.388 143.456 304.127 144.222C305.25 144.717 306.168 145.293 306.168 145.502C306.168 146.644 304.055 152.498 302.56 155.496C296.857 166.937 287.231 174.736 274.554 178.185C270.91 179.177 260.414 179.27 256.152 178.349C251.153 177.268 241.734 173.442 241.734 172.492C241.734 172.266 242.059 170.603 242.457 168.796C243.278 165.07 243.459 154.615 242.759 151.367C242.4 149.697 242.318 150.439 242.292 155.633C242.255 162.911 241.774 166.643 240.156 172.205C233.814 194.015 214.096 209.028 190.634 209.91C187.637 210.023 184.576 210.029 183.833 209.931L183.83 209.925ZM144.676 154.632C144.526 154.483 144.42 154.747 144.439 155.221C144.46 155.745 144.567 155.851 144.712 155.493C144.841 155.169 144.825 154.781 144.675 154.632L144.676 154.632Z" fill="white" stroke="#444444" stroke-width="4" stroke-linecap="round" stroke-linejoin="round"/>
<path d="M139.906 113.072L141.274 100.292C141.838 100.268 142.366 100.214 142.858 100.13C143.362 100.034 143.86 99.968 144.352 99.932C144.352 99.944 144.334 100.07 144.298 100.31C144.262 100.538 144.214 100.844 144.154 101.228C144.094 101.6 144.028 102.026 143.956 102.506C143.884 102.974 143.776 103.622 143.632 104.45C143.5 105.278 143.32 106.424 143.092 107.888H143.362C143.674 106.784 143.932 105.884 144.136 105.188C144.34 104.48 144.502 103.91 144.622 103.478C144.754 103.034 144.874 102.608 144.982 102.2C145.102 101.792 145.21 101.414 145.306 101.066C145.414 100.718 145.498 100.424 145.558 100.184H145.72C145.936 100.184 146.152 100.172 146.368 100.148C146.596 100.124 146.806 100.1 146.998 100.076C147.202 100.04 147.412 99.998 147.628 99.95C147.604 100.058 147.574 100.28 147.538 100.616C147.514 100.952 147.478 101.36 147.43 101.84C147.382 102.308 147.334 102.83 147.286 103.406C147.238 103.97 147.19 104.528 147.142 105.08C147.094 105.62 147.046 106.136 146.998 106.628C146.962 107.12 146.926 107.54 146.89 107.888H147.214L148.924 100.148C149.332 100.088 149.734 100.034 150.13 99.986C150.478 99.938 150.838 99.89 151.21 99.842C151.582 99.794 151.912 99.74 152.2 99.68C152.02 100.184 151.84 100.748 151.66 101.372C151.48 101.984 151.294 102.632 151.102 103.316C150.91 104 150.724 104.69 150.544 105.386C150.376 106.082 150.208 106.754 150.04 107.402C149.656 108.938 149.284 110.516 148.924 112.136L144.856 112.82L145.648 105.872H145.432L143.65 112.406L139.906 113.072ZM157.143 112.64C156.843 112.688 156.513 112.742 156.153 112.802C155.793 112.862 155.469 112.916 155.181 112.964C155.229 112.568 155.277 112.178 155.325 111.794C155.361 111.458 155.391 111.122 155.415 110.786C155.451 110.45 155.481 110.162 155.505 109.922H153.939L153.219 112.514C152.955 112.55 152.643 112.592 152.283 112.64C151.923 112.676 151.587 112.712 151.275 112.748C150.891 112.796 150.513 112.844 150.141 112.892C150.621 111.296 151.095 109.724 151.563 108.176C151.755 107.528 151.953 106.85 152.157 106.142C152.373 105.434 152.583 104.732 152.787 104.036C153.003 103.328 153.207 102.65 153.399 102.002C153.591 101.354 153.759 100.76 153.903 100.22C154.719 100.16 155.547 100.088 156.387 100.004C157.239 99.92 158.067 99.806 158.871 99.662C158.835 100.046 158.793 100.526 158.745 101.102C158.709 101.666 158.673 102.284 158.637 102.956C158.601 103.628 158.565 104.33 158.529 105.062C158.493 105.794 158.457 106.514 158.421 107.222C158.361 108.878 158.295 110.636 158.223 112.496C157.863 112.556 157.503 112.604 157.143 112.64ZM154.371 108.122C154.419 108.122 154.503 108.122 154.623 108.122C154.755 108.11 154.887 108.104 155.019 108.104C155.163 108.092 155.295 108.086 155.415 108.086C155.535 108.074 155.619 108.062 155.667 108.05C155.667 107.978 155.673 107.858 155.685 107.69C155.709 107.51 155.727 107.312 155.739 107.096C155.763 106.868 155.787 106.622 155.811 106.358C155.835 106.094 155.859 105.836 155.883 105.584C155.931 104.972 155.991 104.312 156.063 103.604L156.171 102.038L155.901 102.056L155.487 103.604L154.371 108.122ZM161.906 112.64C161.798 112.64 161.582 112.658 161.258 112.694C160.946 112.718 160.622 112.754 160.286 112.802C159.95 112.838 159.644 112.874 159.368 112.91C159.104 112.946 158.96 112.97 158.936 112.982C159.056 112.466 159.176 111.896 159.296 111.272C159.428 110.636 159.56 109.976 159.692 109.292C159.824 108.596 159.95 107.894 160.07 107.186C160.19 106.478 160.304 105.794 160.412 105.134C160.664 103.598 160.916 102.02 161.168 100.4L163.976 99.95C163.7 101.558 163.43 103.136 163.166 104.684C163.058 105.344 162.944 106.028 162.824 106.736C162.716 107.444 162.602 108.146 162.482 108.842C162.374 109.538 162.272 110.216 162.176 110.876C162.08 111.524 161.99 112.112 161.906 112.64ZM164.645 113.018C164.921 111.698 165.185 110.396 165.437 109.112C165.545 108.572 165.653 108.008 165.761 107.42C165.869 106.832 165.971 106.256 166.067 105.692C166.175 105.116 166.265 104.564 166.337 104.036C166.421 103.496 166.493 103.004 166.553 102.56C166.277 102.524 165.995 102.512 165.707 102.524C165.431 102.536 165.155 102.5 164.879 102.416C164.891 102.224 164.897 102.002 164.897 101.75C164.897 101.498 164.903 101.246 164.915 100.994C164.927 100.718 164.939 100.424 164.951 100.112C165.263 100.136 165.575 100.154 165.887 100.166C166.199 100.178 166.511 100.184 166.823 100.184C167.435 100.184 168.023 100.172 168.587 100.148C169.163 100.112 169.691 100.076 170.171 100.04C170.663 99.992 171.143 99.938 171.611 99.878L171.413 100.85C171.353 101.126 171.293 101.408 171.233 101.696C171.185 101.984 171.137 102.23 171.089 102.434C170.825 102.506 170.555 102.56 170.279 102.596C170.015 102.62 169.751 102.656 169.487 102.704C169.403 103.112 169.313 103.568 169.217 104.072C169.121 104.564 169.025 105.08 168.929 105.62C168.845 106.148 168.761 106.688 168.677 107.24C168.593 107.792 168.509 108.32 168.425 108.824C168.233 110.012 168.053 111.242 167.885 112.514L164.645 113.018ZM180.766 112.64C180.466 112.688 180.136 112.742 179.776 112.802C179.416 112.862 179.092 112.916 178.804 112.964C178.852 112.568 178.9 112.178 178.948 111.794C178.984 111.458 179.014 111.122 179.038 110.786C179.074 110.45 179.104 110.162 179.128 109.922H177.562L176.842 112.514C176.578 112.55 176.266 112.592 175.906 112.64C175.546 112.676 175.21 112.712 174.898 112.748C174.514 112.796 174.136 112.844 173.764 112.892C174.244 111.296 174.718 109.724 175.186 108.176C175.378 107.528 175.576 106.85 175.78 106.142C175.996 105.434 176.206 104.732 176.41 104.036C176.626 103.328 176.83 102.65 177.022 102.002C177.214 101.354 177.382 100.76 177.526 100.22C178.342 100.16 179.17 100.088 180.01 100.004C180.862 99.92 181.69 99.806 182.494 99.662C182.458 100.046 182.416 100.526 182.368 101.102C182.332 101.666 182.296 102.284 182.26 102.956C182.224 103.628 182.188 104.33 182.152 105.062C182.116 105.794 182.08 106.514 182.044 107.222C181.984 108.878 181.918 110.636 181.846 112.496C181.486 112.556 181.126 112.604 180.766 112.64ZM177.994 108.122C178.042 108.122 178.126 108.122 178.246 108.122C178.378 108.11 178.51 108.104 178.642 108.104C178.786 108.092 178.918 108.086 179.038 108.086C179.158 108.074 179.242 108.062 179.29 108.05C179.29 107.978 179.296 107.858 179.308 107.69C179.332 107.51 179.35 107.312 179.362 107.096C179.386 106.868 179.41 106.622 179.434 106.358C179.458 106.094 179.482 105.836 179.506 105.584C179.554 104.972 179.614 104.312 179.686 103.604L179.794 102.038L179.524 102.056L179.11 103.604L177.994 108.122ZM194.498 108.554C194.498 109.226 194.366 109.838 194.102 110.39C193.85 110.93 193.502 111.398 193.058 111.794C192.626 112.19 192.11 112.496 191.51 112.712C190.922 112.928 190.286 113.036 189.602 113.036C189.122 113.036 188.642 112.91 188.162 112.658C187.682 112.394 187.22 111.98 186.776 111.416L188.108 108.806C188.192 108.962 188.318 109.124 188.486 109.292C188.654 109.448 188.84 109.586 189.044 109.706C189.26 109.826 189.47 109.928 189.674 110.012C189.89 110.084 190.082 110.12 190.25 110.12C190.394 110.12 190.544 110.096 190.7 110.048C190.856 110 191 109.928 191.132 109.832C191.264 109.736 191.366 109.628 191.438 109.508C191.522 109.376 191.564 109.226 191.564 109.058C191.564 108.77 191.468 108.506 191.276 108.266C191.096 108.014 190.868 107.78 190.592 107.564C190.316 107.336 190.016 107.108 189.692 106.88C189.368 106.652 189.068 106.412 188.792 106.16C188.528 105.908 188.3 105.626 188.108 105.314C187.916 105.002 187.82 104.654 187.82 104.27C187.82 103.646 188.006 103.064 188.378 102.524C188.75 101.984 189.212 101.522 189.764 101.138C190.328 100.742 190.94 100.43 191.6 100.202C192.26 99.974 192.884 99.86 193.472 99.86C193.796 99.86 194.102 99.902 194.39 99.986C194.678 100.058 194.924 100.184 195.128 100.364C195.344 100.532 195.512 100.748 195.632 101.012C195.764 101.276 195.83 101.606 195.83 102.002C195.83 102.17 195.812 102.338 195.776 102.506C195.752 102.674 195.728 102.854 195.704 103.046L193.094 103.802C193.118 103.706 193.136 103.61 193.148 103.514C193.172 103.418 193.184 103.322 193.184 103.226C193.184 102.866 193.118 102.608 192.986 102.452C192.866 102.284 192.704 102.2 192.5 102.2C192.404 102.2 192.284 102.236 192.14 102.308C192.008 102.38 191.87 102.476 191.726 102.596C191.594 102.704 191.48 102.836 191.384 102.992C191.288 103.148 191.24 103.316 191.24 103.496C191.24 103.784 191.318 104.024 191.474 104.216C191.642 104.408 191.846 104.588 192.086 104.756C192.326 104.924 192.584 105.098 192.86 105.278C193.148 105.446 193.412 105.668 193.652 105.944C193.892 106.22 194.09 106.568 194.246 106.988C194.414 107.396 194.498 107.918 194.498 108.554ZM194.943 113.018L197.301 100.22L202.989 99.734C202.905 99.998 202.833 100.268 202.773 100.544C202.713 100.772 202.653 101.012 202.593 101.264C202.545 101.504 202.503 101.72 202.467 101.912C202.347 101.924 202.173 101.936 201.945 101.948C201.729 101.948 201.495 101.954 201.243 101.966C200.991 101.966 200.733 101.966 200.469 101.966C200.217 101.966 199.995 101.966 199.803 101.966L199.173 105.188C199.545 105.164 199.893 105.146 200.217 105.134C200.481 105.122 200.751 105.116 201.027 105.116C201.303 105.116 201.507 105.11 201.639 105.098C201.591 105.434 201.543 105.764 201.495 106.088C201.459 106.412 201.411 106.742 201.351 107.078C201.231 107.09 201.033 107.102 200.757 107.114C200.493 107.114 200.223 107.12 199.947 107.132C199.635 107.144 199.293 107.156 198.921 107.168L198.309 110.48L200.937 110.066L200.757 112.118L194.943 113.018ZM209.16 109.13C208.872 109.79 208.548 110.366 208.188 110.858C207.84 111.338 207.468 111.746 207.072 112.082C206.688 112.406 206.298 112.646 205.902 112.802C205.506 112.958 205.122 113.036 204.75 113.036C204.378 113.036 204.036 112.952 203.724 112.784C203.424 112.616 203.16 112.364 202.932 112.028C202.704 111.692 202.518 111.278 202.374 110.786C202.242 110.294 202.176 109.718 202.176 109.058C202.176 107.93 202.332 106.82 202.644 105.728C202.956 104.624 203.394 103.634 203.958 102.758C204.522 101.882 205.188 101.18 205.956 100.652C206.736 100.112 207.594 99.842 208.53 99.842C208.818 99.842 209.094 99.902 209.358 100.022C209.622 100.142 209.85 100.31 210.042 100.526C210.234 100.742 210.384 101.006 210.492 101.318C210.612 101.63 210.672 101.978 210.672 102.362C210.672 102.434 210.672 102.512 210.672 102.596C210.672 102.668 210.666 102.746 210.654 102.83L208.296 103.46C208.152 103.16 207.984 103.01 207.792 103.01C207.6 103.01 207.396 103.124 207.18 103.352C206.976 103.568 206.772 103.856 206.568 104.216C206.364 104.564 206.166 104.96 205.974 105.404C205.782 105.836 205.614 106.274 205.47 106.718C205.326 107.162 205.206 107.588 205.11 107.996C205.026 108.392 204.984 108.716 204.984 108.968C204.984 109.352 205.032 109.622 205.128 109.778C205.236 109.934 205.374 110.012 205.542 110.012C205.674 110.012 205.824 109.964 205.992 109.868C206.16 109.76 206.316 109.628 206.46 109.472C206.604 109.304 206.736 109.118 206.856 108.914C206.976 108.71 207.06 108.506 207.108 108.302L209.16 109.13ZM213.211 111.56C213.211 111.788 213.157 112.016 213.049 112.244C212.953 112.472 212.809 112.676 212.617 112.856C212.425 113.024 212.185 113.156 211.897 113.252C211.609 113.36 211.279 113.414 210.907 113.414C210.655 113.414 210.427 113.366 210.223 113.27C210.019 113.174 209.851 113.048 209.719 112.892C209.599 112.724 209.503 112.538 209.431 112.334C209.359 112.13 209.323 111.926 209.323 111.722C209.323 111.494 209.359 111.278 209.431 111.074C209.503 110.858 209.611 110.672 209.755 110.516C209.911 110.348 210.097 110.21 210.313 110.102C210.541 109.994 210.811 109.94 211.123 109.94C211.819 109.94 212.341 110.108 212.689 110.444C213.037 110.768 213.211 111.14 213.211 111.56ZM217.512 111.56C217.512 111.788 217.458 112.016 217.35 112.244C217.254 112.472 217.11 112.676 216.918 112.856C216.726 113.024 216.486 113.156 216.198 113.252C215.91 113.36 215.58 113.414 215.208 113.414C214.956 113.414 214.728 113.366 214.524 113.27C214.32 113.174 214.152 113.048 214.02 112.892C213.9 112.724 213.804 112.538 213.732 112.334C213.66 112.13 213.624 111.926 213.624 111.722C213.624 111.494 213.66 111.278 213.732 111.074C213.804 110.858 213.912 110.672 214.056 110.516C214.212 110.348 214.398 110.21 214.614 110.102C214.842 109.994 215.112 109.94 215.424 109.94C216.12 109.94 216.642 110.108 216.99 110.444C217.338 110.768 217.512 111.14 217.512 111.56ZM221.814 111.56C221.814 111.788 221.76 112.016 221.652 112.244C221.556 112.472 221.412 112.676 221.22 112.856C221.028 113.024 220.788 113.156 220.5 113.252C220.212 113.36 219.882 113.414 219.51 113.414C219.258 113.414 219.03 113.366 218.826 113.27C218.622 113.174 218.454 113.048 218.322 112.892C218.202 112.724 218.106 112.538 218.034 112.334C217.962 112.13 217.926 111.926 217.926 111.722C217.926 111.494 217.962 111.278 218.034 111.074C218.106 110.858 218.214 110.672 218.358 110.516C218.514 110.348 218.7 110.21 218.916 110.102C219.144 109.994 219.414 109.94 219.726 109.94C220.422 109.94 220.944 110.108 221.292 110.444C221.64 110.768 221.814 111.14 221.814 111.56Z" fill="#444444"/>
</g>
<defs>
<filter id="filter0_d" x="0" y="0.000244141" width="352" height="222" filterUnits="userSpaceOnUse" color-interpolation-filters="sRGB">
<feFlood flood-opacity="0" result="BackgroundImageFix"/>
<feColorMatrix in="SourceAlpha" type="matrix" values="0 0 0 0 0 0 0 0 0 0 0 0 0 0 0 0 0 0 127 0" result="hardAlpha"/>
<feOffset dx="-10" dy="10"/>
<feComposite in2="hardAlpha" operator="out"/>
<feColorMatrix type="matrix" values="0 0 0 0 0.266667 0 0 0 0 0.266667 0 0 0 0 0.266667 0 0 0 1 0"/>
<feBlend mode="normal" in2="BackgroundImageFix" result="effect1_dropShadow"/>
<feBlend mode="normal" in="SourceGraphic" in2="effect1_dropShadow" result="shape"/>
</filter>
</defs>
</svg>
