<?xml version="1.0" encoding="iso-8859-1"?>
<!-- Generator: Adobe Illustrator 19.0.0, SVG Export Plug-In . SVG Version: 6.00 Build 0)  -->
<svg xmlns="http://www.w3.org/2000/svg" xmlns:xlink="http://www.w3.org/1999/xlink" version="1.1" id="Layer_1" x="0px" y="0px" viewBox="0 0 513.001 513.001" style="enable-background:new 0 0 513.001 513.001;" xml:space="preserve" width="512" height="512">
<path d="M164.03,38.17c-3.41-10.51,2.34-21.79,12.85-25.2c10.5-3.41,21.78,2.34,25.2,12.84c3.41,10.51-2.34,21.79-12.85,25.2  c-2.05,0.67-4.13,0.98-6.18,0.98C174.62,51.991,166.78,46.62,164.03,38.17z M53.3,133.92c3.55,2.59,7.67,3.83,11.76,3.83  c6.17,0,12.27-2.851,16.18-8.23c6.5-8.93,4.53-21.439-4.4-27.939s-21.44-4.53-27.93,4.399C42.4,114.91,44.37,127.42,53.3,133.92z   M117.3,85.55c4.08,0,8.2-1.25,11.75-3.83c8.94-6.5,10.91-19.01,4.41-27.939c-6.5-8.931-19.01-10.9-27.94-4.4  c-8.93,6.49-10.91,19-4.4,27.939C105.03,82.69,111.12,85.55,117.3,85.55z M25.33,202.51c2.05,0.67,4.14,0.99,6.18,0.99  c8.43,0,16.27-5.37,19.02-13.82c3.41-10.51-2.34-21.79-12.84-25.21c-10.5-3.41-21.79,2.34-25.2,12.84  C9.08,187.82,14.82,199.1,25.33,202.51z M0.39,260.41c0.13,0.63,0.29,1.27,0.48,1.899c0.19,0.62,0.41,1.24,0.66,1.84  c0.25,0.601,0.53,1.2,0.84,1.771c0.3,0.57,0.64,1.14,1,1.68c0.36,0.55,0.75,1.08,1.17,1.58c0.41,0.51,0.86,1,1.32,1.46  s0.95,0.91,1.46,1.32c0.5,0.41,1.03,0.81,1.58,1.17c0.54,0.36,1.11,0.7,1.68,1c0.57,0.31,1.17,0.59,1.77,0.84  c0.6,0.25,1.22,0.47,1.84,0.66c0.63,0.189,1.27,0.35,1.9,0.479c0.64,0.131,1.3,0.23,1.94,0.29c0.66,0.07,1.32,0.101,1.97,0.101  s1.32-0.03,1.97-0.101c0.65-0.06,1.3-0.159,1.94-0.29c0.64-0.13,1.27-0.29,1.9-0.479c0.62-0.19,1.24-0.41,1.84-0.66  s1.2-0.53,1.77-0.84c0.58-0.3,1.14-0.64,1.68-1c0.55-0.36,1.08-0.76,1.58-1.17c0.51-0.41,1-0.86,1.46-1.32  c0.46-0.46,0.91-0.95,1.32-1.46c0.41-0.5,0.81-1.03,1.17-1.58c0.36-0.54,0.7-1.109,1-1.68c0.31-0.57,0.59-1.17,0.84-1.771  c0.25-0.6,0.47-1.22,0.66-1.84c0.19-0.63,0.35-1.27,0.48-1.899c0.13-0.641,0.23-1.301,0.29-1.94c0.07-0.66,0.1-1.32,0.1-1.97  c0-0.65-0.03-1.311-0.1-1.97c-0.06-0.65-0.16-1.301-0.29-1.94s-0.29-1.28-0.48-1.9s-0.41-1.239-0.66-1.84  c-0.25-0.6-0.53-1.2-0.84-1.77c-0.3-0.58-0.64-1.141-1-1.681c-0.36-0.55-0.75-1.08-1.17-1.58c-0.41-0.51-0.86-1-1.32-1.46  c-0.46-0.46-0.95-0.909-1.46-1.319c-0.5-0.42-1.03-0.811-1.58-1.17c-0.54-0.36-1.1-0.7-1.68-1c-0.57-0.311-1.17-0.59-1.77-0.84  s-1.22-0.471-1.84-0.66c-0.63-0.19-1.26-0.351-1.9-0.48c-0.64-0.13-1.29-0.229-1.94-0.29c-1.31-0.13-2.63-0.13-3.94,0  c-0.64,0.061-1.3,0.16-1.94,0.29c-0.63,0.13-1.27,0.29-1.9,0.48c-0.62,0.189-1.24,0.41-1.84,0.66c-0.6,0.25-1.2,0.529-1.77,0.84  c-0.57,0.3-1.14,0.64-1.68,1c-0.55,0.359-1.08,0.75-1.58,1.17c-0.51,0.41-1,0.859-1.46,1.319s-0.91,0.95-1.32,1.46  c-0.42,0.5-0.81,1.03-1.17,1.58c-0.36,0.54-0.7,1.101-1,1.681c-0.31,0.569-0.59,1.17-0.84,1.77c-0.25,0.601-0.47,1.22-0.66,1.84  c-0.19,0.62-0.35,1.261-0.48,1.9c-0.13,0.64-0.23,1.29-0.29,1.94C0.03,255.19,0,255.85,0,256.5c0,0.649,0.03,1.31,0.1,1.97  C0.16,259.11,0.26,259.77,0.39,260.41z M493,46.5c-11.046,0-20,8.954-20,20v54.105c-19.789-31.571-46.29-58.543-77.844-79.014  C353.719,14.709,305.6,0.5,256,0.5c-0.754,0-1.496,0.05-2.229,0.131c-0.534,0.059-1.076,0.14-1.608,0.245  c-2.18,0.424-4.227,1.208-6.092,2.277c-0.341,0.193-0.677,0.396-1.003,0.61c-0.683,0.447-1.336,0.931-1.958,1.456  c-0.406,0.339-0.8,0.697-1.173,1.066c-0.051,0.05-0.101,0.101-0.151,0.151c-0.372,0.376-0.733,0.772-1.074,1.181  c-0.088,0.104-0.175,0.208-0.26,0.313c-0.298,0.368-0.586,0.754-0.859,1.149c-0.106,0.152-0.211,0.305-0.313,0.46  c-0.221,0.337-0.431,0.685-0.63,1.038c-1.067,1.862-1.849,3.906-2.273,6.082c-0.105,0.529-0.186,1.065-0.245,1.602  c-0.011,0.097-0.025,0.193-0.034,0.29C236.03,19.196,236,19.857,236,20.5c0,0.642,0.03,1.294,0.098,1.946  c0.01,0.099,0.024,0.197,0.035,0.295c0.058,0.53,0.138,1.067,0.243,1.595c0.426,2.189,1.214,4.243,2.291,6.114  c0.187,0.328,0.382,0.651,0.587,0.967c0.114,0.174,0.23,0.346,0.349,0.516c0.266,0.383,0.544,0.756,0.832,1.113  c0.096,0.118,0.193,0.235,0.291,0.351c0.331,0.396,0.68,0.78,1.04,1.145c0.063,0.064,0.126,0.127,0.19,0.19  c0.366,0.362,0.752,0.713,1.15,1.045c0.111,0.094,0.222,0.187,0.336,0.278c0.36,0.291,0.736,0.572,1.122,0.839  c0.173,0.12,0.346,0.238,0.523,0.353c0.313,0.203,0.633,0.396,0.957,0.581c1.882,1.084,3.951,1.875,6.156,2.299  c0.511,0.102,1.031,0.179,1.545,0.236c0.108,0.012,0.216,0.027,0.325,0.038c0.647,0.067,1.293,0.097,1.93,0.097  c75.639,0,145.821,40.127,184.685,103.931L394.97,144.5c-11.046,0.017-19.986,8.984-19.97,20.03  c0.017,11.035,8.967,19.97,19.999,19.97c0.01,0,0.021,0,0.031,0l58.517-0.089c15.937,0.042,30.783-6.064,41.935-17.217  c11.364-11.363,17.585-26.617,17.518-42.871V66.5C513,55.454,504.046,46.5,493,46.5z M487.67,310.48  c-10.5-3.41-21.79,2.34-25.2,12.84c-3.41,10.511,2.33,21.79,12.84,25.2c2.06,0.67,4.14,0.99,6.19,0.99  c8.43,0,16.27-5.37,19.01-13.82C503.93,325.18,498.18,313.9,487.67,310.48z M459.7,379.08c-8.93-6.5-21.44-4.53-27.94,4.399  c-6.5,8.931-4.53,21.44,4.4,27.94c3.55,2.58,7.67,3.83,11.75,3.83c6.18,0,12.27-2.86,16.19-8.23  C470.6,398.09,468.63,385.58,459.7,379.08z M323.77,461.991c-10.51,3.409-16.26,14.689-12.85,25.199  c2.75,8.45,10.59,13.83,19.02,13.83c2.05,0,4.13-0.319,6.18-0.989c10.51-3.41,16.26-14.69,12.85-25.2  C345.56,464.33,334.28,458.58,323.77,461.991z M383.95,431.281c-8.94,6.5-10.91,19.01-4.41,27.939c3.92,5.38,10.01,8.23,16.19,8.23  c4.08,0,8.2-1.24,11.75-3.83c8.93-6.5,10.9-19.011,4.4-27.94C405.39,426.75,392.88,424.781,383.95,431.281z M512.61,252.59  c-0.13-0.64-0.29-1.28-0.48-1.9c-0.19-0.62-0.41-1.239-0.66-1.84c-0.25-0.6-0.53-1.2-0.84-1.77c-0.3-0.58-0.64-1.141-1-1.681  c-0.36-0.55-0.75-1.08-1.17-1.58c-0.41-0.51-0.86-1-1.32-1.46c-0.46-0.46-0.95-0.909-1.46-1.319c-0.5-0.42-1.03-0.811-1.58-1.17  c-0.54-0.36-1.1-0.7-1.68-1c-0.57-0.311-1.17-0.59-1.77-0.84s-1.22-0.471-1.84-0.66c-0.63-0.19-1.26-0.351-1.9-0.48  c-0.64-0.13-1.3-0.229-1.94-0.29c-1.31-0.13-2.63-0.13-3.94,0c-0.64,0.061-1.3,0.16-1.94,0.29c-0.63,0.13-1.27,0.29-1.9,0.48  c-0.62,0.189-1.24,0.41-1.84,0.66c-0.6,0.25-1.2,0.529-1.77,0.84c-0.57,0.3-1.14,0.64-1.68,1c-0.55,0.359-1.08,0.75-1.58,1.17  c-0.51,0.41-1,0.859-1.46,1.319s-0.91,0.95-1.32,1.46c-0.41,0.5-0.81,1.03-1.17,1.58c-0.36,0.54-0.7,1.101-1,1.681  c-0.31,0.569-0.59,1.17-0.84,1.77c-0.25,0.601-0.47,1.22-0.66,1.84c-0.19,0.62-0.35,1.261-0.48,1.9c-0.13,0.64-0.22,1.29-0.29,1.94  c-0.06,0.659-0.1,1.319-0.1,1.97c0,0.649,0.04,1.31,0.1,1.97c0.07,0.64,0.16,1.3,0.29,1.94c0.13,0.63,0.29,1.27,0.48,1.899  c0.19,0.62,0.41,1.24,0.66,1.84c0.25,0.601,0.53,1.2,0.84,1.771c0.3,0.57,0.64,1.14,1,1.68c0.36,0.55,0.76,1.08,1.17,1.58  c0.41,0.51,0.86,1,1.32,1.46s0.95,0.91,1.46,1.32c0.5,0.41,1.03,0.81,1.58,1.17c0.54,0.36,1.11,0.7,1.68,1  c0.57,0.31,1.17,0.59,1.77,0.84c0.6,0.25,1.22,0.47,1.84,0.66c0.63,0.189,1.27,0.35,1.9,0.479c0.64,0.131,1.3,0.23,1.94,0.29  c0.66,0.07,1.32,0.101,1.97,0.101s1.31-0.03,1.97-0.101c0.64-0.06,1.3-0.159,1.94-0.29c0.64-0.13,1.27-0.29,1.9-0.479  c0.62-0.19,1.24-0.41,1.84-0.66s1.2-0.53,1.77-0.84c0.58-0.3,1.14-0.64,1.68-1c0.55-0.36,1.08-0.76,1.58-1.17  c0.51-0.41,1-0.86,1.46-1.32c0.46-0.46,0.91-0.95,1.32-1.46c0.42-0.5,0.81-1.03,1.17-1.58c0.36-0.54,0.7-1.109,1-1.68  c0.31-0.57,0.59-1.17,0.84-1.771c0.25-0.6,0.47-1.22,0.66-1.84c0.19-0.63,0.35-1.27,0.48-1.899c0.13-0.641,0.23-1.301,0.29-1.94  c0.07-0.66,0.1-1.32,0.1-1.97c0-0.65-0.03-1.311-0.1-1.97C512.84,253.89,512.74,253.23,512.61,252.59z M272.576,505.032  c0.28-0.347,0.549-0.708,0.807-1.079c0.127-0.182,0.251-0.365,0.373-0.551c0.204-0.313,0.397-0.633,0.582-0.958  c1.081-1.88,1.869-3.946,2.292-6.146c0.1-0.508,0.177-1.024,0.234-1.534c0.013-0.112,0.028-0.222,0.039-0.334  c0.066-0.64,0.096-1.28,0.096-1.909c0-0.006,0.001-0.012,0.001-0.019S277,492.488,277,492.482c-0.001-0.631-0.03-1.271-0.096-1.909  c-0.011-0.112-0.026-0.222-0.039-0.333c-0.057-0.511-0.134-1.027-0.234-1.535c-0.423-2.199-1.21-4.263-2.29-6.142  c-0.19-0.334-0.388-0.663-0.597-0.983c-0.114-0.174-0.23-0.345-0.349-0.515c-0.266-0.384-0.545-0.758-0.834-1.116  c-0.092-0.115-0.186-0.227-0.281-0.339c-0.332-0.398-0.683-0.783-1.045-1.15c-0.063-0.064-0.127-0.127-0.191-0.19  c-0.363-0.358-0.744-0.705-1.138-1.034c-0.629-0.532-1.292-1.024-1.985-1.477c-0.321-0.21-0.651-0.409-0.986-0.599  c-1.868-1.072-3.918-1.857-6.102-2.281c-0.529-0.105-1.066-0.186-1.603-0.245c-0.733-0.081-1.474-0.131-2.229-0.131  c-75.638,0-145.821-40.127-184.686-103.931l45.716-0.069c11.046-0.017,19.987-8.984,19.97-20.03c-0.017-11.035-8.967-19.97-20-19.97  c-0.01,0-0.021,0-0.031,0l-58.505,0.088c-15.891-0.041-30.793,6.063-41.948,17.218C6.155,357.169-0.066,372.424,0.001,388.677V446.5  c0,11.046,8.954,20,20,20s20-8.954,20-20v-54.104c19.789,31.57,46.29,58.543,77.844,79.013C159.282,498.291,207.401,512.5,257,512.5  c0,0,0,0,0,0c0,0,0,0,0,0c0,0,0,0,0,0c0,0,0,0,0,0c0.636,0,1.291-0.03,1.927-0.097c0.111-0.01,0.22-0.026,0.331-0.038  c0.51-0.056,1.026-0.134,1.534-0.234c2.21-0.425,4.283-1.217,6.17-2.304c0.317-0.181,0.629-0.37,0.935-0.568  c0.184-0.12,0.366-0.242,0.546-0.368c0.376-0.261,0.741-0.534,1.092-0.817c0.125-0.101,0.249-0.204,0.372-0.308  c0.386-0.323,0.759-0.663,1.115-1.014c0.077-0.076,0.153-0.152,0.229-0.229c0.351-0.355,0.69-0.729,1.012-1.114  C272.369,505.284,272.473,505.159,272.576,505.032z M308.686,367.5H205.314C185.842,367.5,170,351.61,170,332.076v-11.953  c0-25.547,24.837-46.574,42.972-61.927c0.681-0.577,1.35-1.144,2.001-1.696c-0.651-0.553-1.321-1.119-2.001-1.696  C194.837,239.451,170,218.424,170,192.877v-11.953c0-19.533,15.842-35.424,35.314-35.424h103.371  c19.473,0,35.314,15.891,35.314,35.424v11.953c0,25.547-24.837,46.574-42.972,61.927c-0.661,0.56-1.311,1.11-1.944,1.647  c0.669,0.568,1.358,1.151,2.059,1.745c18.135,15.353,42.972,36.38,42.972,61.927v11.953c0,1.102-0.089,2.182-0.26,3.234  C342.219,353.333,327.07,367.5,308.686,367.5z M217.815,204.864c6.101,6.797,14.018,13.499,21.002,19.412  c2.301,1.948,4.475,3.789,6.477,5.542c6.268,5.493,10.371,12.915,11.706,20.942c1.334-8.027,5.437-15.449,11.705-20.941  c2.002-1.754,4.176-3.595,6.478-5.543c6.985-5.913,14.901-12.615,21.002-19.412c7.488-8.342,7.814-11.988,7.816-12.024l0-7.339h-94  v7.377C210.002,192.877,210.329,196.524,217.815,204.864z M304.114,320.123c-0.002,0-0.329-3.646-7.815-11.986  c-6.101-6.797-14.018-13.499-21.002-19.412c-1.813-1.535-3.548-3.004-5.181-4.415c-0.486-0.354-0.957-0.73-1.412-1.129  c-6.267-5.492-10.369-12.914-11.703-20.94c-1.334,8.026-5.437,15.448-11.704,20.94c-2.003,1.755-4.177,3.596-6.479,5.544  c-6.985,5.913-14.901,12.615-21.002,19.412c-7.488,8.342-7.814,11.988-7.816,12.024l0,7.339h94.115V320.123z"/>















</svg>
