<svg width="2492" height="2463" viewBox="0 0 2492 2463" fill="none" xmlns="http://www.w3.org/2000/svg">
<path d="M1231.67 1.99172C1231.33 2.88553 1204.18 122.656 1171.34 268.125C1138.49 413.704 1111.45 532.693 1111.11 532.693C1110.78 532.693 1065.64 449.234 1010.67 347.227C955.703 245.221 910.677 161.873 910.454 161.984C910.23 162.208 945.089 540.961 947.324 562.301L947.882 567.887L944.754 561.742C943.078 558.391 912.8 491.354 877.606 412.922C842.3 334.378 813.363 270.359 813.14 270.583C813.028 270.694 821.855 338.959 832.915 422.084C843.976 505.32 852.803 573.585 852.579 573.697C852.356 573.92 781.745 536.157 695.603 489.79C609.574 443.424 539.074 405.66 539.074 405.66C539.074 405.772 572.481 481.746 613.261 574.591C653.929 667.324 687.224 743.41 687.112 743.633C687 743.745 634.936 722.964 571.475 697.49C508.126 671.905 456.061 651.124 455.838 651.347C455.726 651.57 487.68 698.161 526.896 754.918C566.112 811.787 598.066 858.377 597.954 858.488C597.731 858.823 180.432 855.248 82.1123 854.131C44.3487 853.684 36.4161 853.796 39.6562 854.913C41.779 855.695 148.031 887.426 275.735 925.524C403.326 963.511 507.791 994.907 507.791 995.242C507.791 995.689 453.715 1015.69 387.685 1039.93C321.654 1064.18 267.579 1084.29 267.579 1084.62C267.579 1084.96 316.515 1101.27 376.289 1120.82C435.951 1140.49 485.446 1156.8 486.116 1157.13C486.898 1157.47 400.086 1213.56 293.276 1281.82C186.465 1349.97 99.2065 1405.95 99.3182 1406.17C99.5417 1406.28 185.795 1392.88 291.041 1376.23C396.288 1359.58 482.429 1346.06 482.652 1346.29C482.876 1346.51 324.783 1483.49 310.929 1495C309.7 1496.11 308.806 1497.12 309.029 1497.34C309.253 1497.56 352.491 1502.48 405.002 1508.18C457.514 1513.88 500.864 1518.79 501.311 1519.13C501.758 1519.57 452.151 1605.05 391.148 1709.18C330.034 1813.3 280.204 1898.78 280.427 1899C280.651 1899.11 353.832 1853.75 442.989 1798C532.147 1742.25 605.217 1696.89 605.44 1697C605.552 1697.22 592.48 1747.72 576.279 1809.17C560.191 1870.62 547.007 1921.57 547.23 1922.24C547.342 1923.02 584.435 1891.74 629.573 1852.74C674.711 1813.75 711.916 1781.91 712.362 1781.8C712.698 1781.8 701.86 1881.9 688.229 2004.25C674.599 2126.59 663.985 2225.91 664.655 2225.02C665.326 2224.12 704.653 2152.17 751.914 2065.25C799.286 1978.32 838.055 1907.27 838.278 1907.49C838.39 1907.6 841.965 1952.07 846.211 2006.26C850.457 2060.56 854.144 2105.13 854.479 2105.36C854.702 2105.58 890.678 2062.9 934.475 2010.61C978.272 1958.21 1014.47 1915.2 1014.81 1915.09C1015.25 1914.86 1022.07 1980.78 1029.89 2061.45C1037.82 2142 1044.53 2208.82 1044.86 2209.71C1045.2 2210.6 1067.99 2144.02 1095.58 2061.67C1123.18 1979.33 1146.09 1911.18 1146.42 1910.28C1146.98 1908.94 1187.65 2274.4 1188.21 2285.68C1188.32 2287.25 1188.54 2287.92 1188.88 2287.36C1189.1 2286.69 1200.61 2196.53 1214.46 2086.92C1228.2 1977.32 1239.71 1887.49 1239.94 1887.27C1240.05 1887.16 1286.41 1963.91 1342.95 2057.87C1399.48 2151.95 1445.85 2228.37 1446.07 2227.81C1446.18 2227.25 1435.01 2158.76 1421.16 2075.64C1407.3 1992.51 1396.13 1924.03 1396.24 1923.47C1396.46 1923.02 1499.81 2044.02 1626.06 2192.39C1752.2 2340.77 1855.66 2462.21 1855.88 2462.21C1856.22 2462.21 1855.88 2461.32 1855.33 2460.09C1853.99 2457.63 1647.85 2007.49 1645.5 2001.9C1644.61 1999.78 1644.39 1998.44 1644.94 1999.11C1645.62 1999.66 1675 2046.14 1710.42 2102.34C1745.83 2158.54 1774.77 2203.9 1774.77 2203.12C1774.77 2202.45 1764.94 2123.12 1752.87 2026.93C1740.92 1930.73 1731.2 1851.85 1731.42 1851.63C1731.64 1851.29 1816.56 1874.98 1920.02 1904.14C2023.59 1933.3 2108.61 1957.1 2109.06 1956.87C2109.73 1956.65 1848.51 1715.21 1835.44 1703.92C1833.09 1702.02 1831.53 1700.13 1831.75 1699.9C1832.09 1699.57 1905.94 1688.73 1995.99 1675.77C2086.04 1662.81 2160.34 1652.08 2161.12 1651.86C2161.9 1651.75 2108.95 1619.46 2043.47 1580.24C1970.85 1536.67 1924.93 1508.51 1925.83 1508.07C1926.61 1507.62 2009.29 1494.32 2109.39 1478.46C2209.61 1462.59 2291.84 1449.3 2292.4 1448.85C2292.85 1448.41 2211.51 1427.62 2111.74 1402.49C2011.86 1377.35 1930.29 1356.57 1930.63 1356.34C1930.85 1356.12 2009.29 1340.37 2105.04 1321.37C2200.67 1302.38 2279.11 1286.74 2279.33 1286.51C2279.55 1286.4 2220.56 1272.88 2148.27 1256.68C2047.5 1234 2017.55 1226.96 2020.12 1226.29C2021.91 1225.85 2086.71 1217.91 2164.14 1208.64C2241.57 1199.37 2306.7 1191.55 2308.82 1191.21C2311.95 1190.65 2274.08 1180.82 2128.94 1144.4L1945.15 1098.37L1950.74 1094.79C1953.87 1092.89 2030.63 1044.18 2121.35 986.527C2212.18 928.988 2286.14 881.727 2285.59 881.616C2285.14 881.392 2200.34 896.029 2097.1 914.128C1993.87 932.116 1909.29 946.864 1909.18 946.752C1909.07 946.641 1969.18 899.604 2042.8 842.176C2116.43 784.749 2176.54 737.6 2176.43 737.377C2176.32 737.265 2102.47 746.985 2012.19 758.94C1922.03 771.006 1847.84 780.726 1847.28 780.503C1846.72 780.28 1932.31 672.687 2037.33 541.296C2142.46 410.017 2228.16 302.536 2227.93 302.536C2227.71 302.536 2108.28 390.018 1962.36 496.829C1816.56 603.752 1697.01 691.01 1696.67 690.787C1696.45 690.563 1728.07 603.975 1766.95 498.617C1805.72 393.147 1837.34 306.67 1837.11 306.559C1837 306.335 1758.35 378.064 1662.49 465.881L1488.19 625.538L1487.41 621.851C1486.96 619.84 1479.48 537.498 1470.87 438.843C1462.16 340.188 1454.67 258.628 1454.23 257.511C1453.67 255.946 1435.79 293.487 1391.55 388.454C1357.47 461.635 1329.32 521.074 1328.87 520.627C1328.53 520.18 1306.97 404.655 1281.05 263.991C1226.31 -32.0849 1232.45 -0.13109 1231.67 1.99172ZM1035.92 615.371C1071 618.499 1103.29 629.449 1131.56 647.66C1137.37 651.459 1142.4 654.475 1142.85 654.475C1143.18 654.475 1146.64 652.017 1150.55 649.113C1198.71 611.684 1265.86 610.008 1317.81 644.755C1333.9 655.593 1352.56 676.262 1362.05 694.027L1365.63 700.618L1381.05 700.842C1416.8 701.401 1447.41 713.02 1474.11 736.036L1481.94 742.851L1495.12 740.84C1513.33 738.159 1552.44 738.159 1570.31 740.84C1621.37 748.661 1667.96 768.884 1706.28 799.832C1717.79 809.105 1737.68 829.216 1747.17 841.059C1775.78 876.7 1796.78 923.178 1804.27 967.869C1809.85 1000.94 1808.96 1040.71 1802.03 1071.1L1800.47 1078.25L1810.3 1088.42C1834.21 1113.34 1847.51 1144.29 1849.18 1179.59C1850.97 1214.9 1839.24 1250.09 1816.78 1277.24C1812.65 1282.27 1812.42 1282.83 1813.99 1285.17C1833.2 1316.01 1840.13 1338.35 1839.91 1369.53C1839.68 1422.6 1809.52 1471.64 1762.82 1495L1753.54 1499.58V1505.83C1753.43 1520.25 1749.63 1547.17 1744.94 1565.05C1727.62 1632.42 1687.74 1688.28 1629.19 1727.39C1603.61 1744.48 1564.95 1760.46 1534.56 1766.6C1512.33 1771.07 1500.82 1772.19 1477.58 1772.19C1444.62 1772.08 1419.26 1767.83 1388.09 1757.22L1371.66 1751.63L1355.68 1767.61C1319.93 1803.14 1281.61 1820.45 1231.22 1823.81C1192.79 1826.26 1146.76 1812.75 1113.8 1789.28C1101.84 1780.79 1084.75 1764.59 1076.48 1754.09L1070.45 1746.27L1064.97 1750.85C1045.08 1768.06 1022.29 1779.34 996.818 1784.81C983.97 1787.61 955.48 1787.61 942.408 1784.81C912.912 1778.45 889.784 1766.16 869.227 1745.49C849.674 1726.05 836.379 1702.14 830.681 1676.44L829.228 1670.07H822.972C819.508 1670.07 810.012 1669.07 801.855 1667.84C718.507 1655.66 646.891 1603.71 608.904 1528.18C597.172 1504.83 588.346 1477.01 584.1 1449.97C581.419 1432.2 581.419 1394.11 584.1 1376.34C591.139 1331.43 607.451 1292.55 634.265 1256.79L642.086 1246.4L636.5 1240.59C618.289 1221.94 604.546 1193.67 599.854 1165.62C597.731 1152.22 598.29 1127.75 601.083 1114.79C612.255 1063.84 647.449 1024.63 697.056 1008.09C703.536 1005.86 713.033 1003.62 718.06 1002.95C723.2 1002.28 729.01 1001.5 731.021 1001.28L734.596 1000.72L729.68 993.789C696.05 946.305 702.084 881.392 743.869 841.394C761.746 824.3 782.638 813.798 806.883 809.776L814.927 808.435L815.598 801.061C816.827 788.324 821.631 766.202 825.765 753.912C853.361 672.24 930.006 616.377 1017.26 614.366C1020.62 614.366 1029 614.812 1035.92 615.371Z" fill="#444444"/>
<path d="M729.232 1225.96C723.757 1243.72 723.199 1265.28 727.779 1282.94C730.349 1292.77 737.053 1307.41 742.527 1315.67C747.779 1323.27 759.845 1335.56 767.666 1341.15C776.827 1347.63 791.352 1354.44 802.189 1357.24C820.401 1361.93 843.64 1361.15 860.846 1355.22L866.991 1353.1L858.053 1352.32C822.971 1349.53 796.156 1337.91 772.805 1315.45C760.068 1303.27 753.588 1294.33 745.767 1278.47C737.723 1262.16 733.589 1247.3 732.472 1230.43L731.69 1218.14L729.232 1225.96Z" fill="#444444"/>
<path d="M970.897 1290.76C966.987 1339.47 984.752 1389.19 1018.72 1425.06C1041.51 1449.08 1073.91 1467.74 1104.75 1474.66C1111.11 1476 1111.34 1476.23 1114.47 1482.37C1128.99 1511.09 1156.81 1538.01 1186.08 1551.53C1202.17 1558.9 1224.96 1565.05 1236.7 1565.05H1241.39L1243.96 1573.09C1258.59 1618.68 1290.55 1663.93 1328.2 1692.31C1331.66 1694.99 1334.57 1697.56 1334.57 1698C1334.57 1698.45 1330.66 1702.59 1325.74 1707.17C1305.52 1726.61 1281.83 1739.46 1252.67 1746.72C1237.03 1750.74 1209.43 1751.63 1192.45 1748.95C1179.04 1746.72 1158.37 1740.13 1147.2 1734.54C1111.45 1716.55 1081.06 1682.14 1068.55 1645.6C1065.75 1637.56 1065.87 1636.55 1069.33 1636.55C1074.24 1636.55 1094.47 1632.09 1103.29 1629.07C1113.57 1625.49 1129.55 1617.67 1138.49 1611.64C1147.2 1605.72 1162.96 1592.53 1165.19 1589.18C1166.75 1586.61 1166.42 1586.72 1157.03 1590.75C1142.06 1597.23 1123.96 1602.59 1108.1 1605.27C1089.22 1608.51 1057.82 1608.06 1039.61 1604.27C981.288 1592.09 932.017 1555.22 904.532 1503.26C900.621 1495.67 899.951 1495 899.951 1497.9C899.951 1499.69 900.957 1506.62 902.186 1513.1C908.442 1545.05 923.19 1571.75 947.77 1595.44L958.943 1606.17L947.658 1608.51C925.313 1613.09 919.727 1613.65 893.247 1613.65C864.757 1613.65 854.702 1612.53 829.787 1606.39C810.57 1601.7 795.375 1596.11 776.493 1586.84C723.088 1560.8 680.967 1518.68 654.599 1465.05C636.053 1427.29 627.45 1390.87 627.226 1348.86C627.114 1330.65 627.003 1329.08 625.55 1332.32C622.087 1340.26 616.277 1362.04 613.819 1375.67C610.579 1394.55 610.244 1427.4 613.149 1446.17C627.45 1538.01 694.597 1612.42 782.861 1634.21C803.643 1639.35 814.815 1640.8 836.267 1640.91C846.993 1641.02 855.819 1641.25 855.931 1641.36C856.042 1641.47 856.378 1645.83 856.713 1651.08C858.724 1680.13 869.785 1704.93 889.784 1724.93C905.984 1741.02 925.201 1751.3 948.552 1756.21C959.501 1758.56 983.634 1758 995.254 1755.21C1023.86 1748.17 1048.21 1731.08 1063.97 1707.28C1067.54 1701.8 1071.12 1695.77 1071.9 1693.76L1073.35 1690.18L1078.16 1700.8C1105.97 1762.47 1167.2 1799.01 1234.57 1793.98C1283.4 1790.4 1327.64 1764.48 1354.46 1723.7C1357.92 1718.45 1360.71 1714.09 1360.71 1713.98C1360.82 1713.87 1364.85 1715.77 1369.76 1718.23C1403.73 1734.87 1438.25 1742.7 1477.8 1742.7C1517.46 1742.7 1548.52 1735.88 1582.27 1719.79C1635 1694.54 1672.65 1657.89 1698.35 1606.84C1721.7 1560.36 1729.86 1504.27 1720.58 1454.33C1718.68 1444.38 1712.09 1418.35 1711.65 1418.91C1711.42 1419.13 1712.09 1424.72 1712.99 1431.54C1715.33 1448.74 1715.33 1479.47 1712.87 1496.34C1697.01 1604.6 1617.24 1686.61 1508.86 1706.05C1497.02 1708.17 1490.99 1708.62 1469.2 1708.62C1440.26 1708.62 1425.96 1706.72 1401.27 1699.57C1343.28 1682.92 1292 1644.15 1260.38 1593.09C1255.13 1584.6 1246.3 1568.18 1246.3 1566.95C1246.3 1566.73 1251.78 1566.17 1258.59 1565.72C1288.42 1563.93 1313.56 1555.55 1337.47 1539.46C1355.01 1527.73 1372.67 1509.3 1382.16 1492.99L1385.4 1487.4L1378.48 1492.76C1352.33 1512.87 1320.71 1525.95 1286.08 1531.08C1269.43 1533.54 1240.72 1532.76 1223.51 1529.3C1190.22 1522.71 1154.58 1505.39 1132.45 1485.05L1125.42 1478.46L1144.07 1478.8C1173.68 1479.36 1198.15 1473.99 1223.73 1461.48C1233.9 1456.45 1251.44 1445.73 1250.66 1444.94C1250.44 1444.72 1246.19 1445.5 1241.28 1446.73C1165.97 1464.72 1086.98 1442.37 1031.79 1387.4C1003.86 1359.58 984.528 1325.51 972.909 1283.5C971.903 1280.04 971.68 1280.82 970.897 1290.76ZM985.31 1621.7C1004.86 1631.53 1023.97 1636.22 1048.66 1637.34L1063.85 1638.01L1065.31 1651.41C1065.98 1658.79 1067.88 1669.74 1069.44 1675.55C1070.89 1681.47 1072.23 1687.06 1072.35 1687.95C1072.46 1688.73 1068.43 1692.75 1063.52 1696.89C998.382 1749.29 903.973 1728.06 867.439 1652.76C864.534 1646.61 862.411 1641.36 862.858 1640.91C863.305 1640.58 869.45 1639.35 876.488 1638.34C900.621 1634.54 930.117 1624.26 951.234 1612.2L960.619 1606.84L967.993 1611.75C972.015 1614.43 979.836 1618.9 985.31 1621.7Z" fill="#444444"/>
<path d="M1511.76 1344.39C1495.9 1367.74 1470.98 1386.51 1444.28 1395.11C1428.98 1400.14 1420.37 1401.37 1402.72 1401.37C1380.26 1401.26 1363.95 1397.46 1343.95 1387.41L1333.56 1382.15L1336.91 1386.4C1348.98 1401.71 1371.21 1415.11 1393.56 1420.59C1405.85 1423.6 1428.53 1423.05 1442.05 1419.47C1473.89 1411.09 1499.36 1388.63 1511.99 1358.02C1514.78 1351.32 1519.36 1334.89 1518.47 1334.89C1518.36 1334.89 1515.34 1339.14 1511.76 1344.39Z" fill="#444444"/>
<path d="M1632.21 1358.91C1632.54 1360.14 1634.11 1365.95 1635.56 1371.76C1657.01 1452.99 1629.53 1540.8 1565.62 1595.77C1543.39 1614.88 1520.04 1628.28 1491.88 1638.23L1478.14 1643.14H1494.56C1559.03 1643.48 1616.23 1610.41 1648.41 1554.21C1664.39 1526.17 1671.87 1494.55 1670.53 1460.69C1669.3 1430.08 1661.93 1404.61 1646.85 1379.02C1640.25 1367.96 1631.2 1355.34 1632.21 1358.91Z" fill="#444444"/>
<g filter="url(#filter0_d)">
<path d="M109.408 1418.01C112.194 1390.73 114.854 1364.15 117.386 1338.26C118.253 1327.18 119.179 1315.71 120.163 1303.85C121.13 1291.8 121.923 1279.96 122.544 1268.32C123.356 1256.67 124.013 1245.42 124.516 1234.57C125.192 1223.52 125.586 1213.54 125.699 1204.66C130.113 1204.43 134.154 1204.33 137.822 1204.37C141.663 1204.19 145.408 1204.03 149.058 1203.87C152.708 1203.71 156.357 1203.55 160.007 1203.4C163.83 1203.03 167.939 1202.64 172.335 1202.22C170.386 1216.1 168.438 1229.98 166.49 1243.86C164.733 1257.72 163.176 1271.66 161.819 1285.68L189.899 1279.81C191.274 1265.98 192.408 1252.66 193.301 1239.84C194.176 1226.84 195.683 1213.38 197.822 1199.48C202.145 1198.3 206.963 1197.26 212.278 1196.36C217.575 1195.27 222.498 1194.32 227.048 1193.5C231.599 1192.68 235.394 1192.02 238.433 1191.54C241.646 1190.85 243.252 1190.5 243.252 1190.5C241.401 1199.36 239.728 1209.06 238.232 1219.62C236.91 1229.97 235.633 1240.8 234.403 1252.1C233.154 1263.22 232.018 1274.51 230.997 1285.99C229.976 1297.47 229.09 1308.36 228.341 1318.65C226.464 1343.33 224.927 1368.55 223.733 1394.32L179.505 1403.76C180.89 1392.06 182.016 1380.67 182.883 1369.59C183.915 1360.23 184.91 1350.49 185.868 1340.37C187.018 1330.23 187.827 1321.57 188.296 1314.39L160.735 1319.63C160.093 1327.03 159.275 1335.59 158.28 1345.33C157.476 1355.05 156.721 1364.28 156.017 1373.03C154.904 1383.55 153.791 1394.08 152.678 1404.6L109.408 1418.01ZM290.392 1394.29C288.672 1394.45 285.259 1395.07 280.153 1396.14C275.221 1397 270.116 1398.07 264.837 1399.34C259.541 1400.43 254.722 1401.47 250.381 1402.47C246.232 1403.44 243.975 1404.04 243.611 1404.27C244.734 1395.87 245.775 1386.61 246.734 1376.49C247.865 1366.16 248.959 1355.44 250.017 1344.35C251.057 1333.06 251.992 1321.69 252.822 1310.23C253.653 1298.77 254.424 1287.7 255.136 1277.02C256.805 1252.17 258.409 1226.66 259.949 1200.47L303.985 1189.02C302.044 1215.05 300.153 1240.59 298.312 1265.65C297.6 1276.33 296.828 1287.4 295.998 1298.86C295.359 1310.3 294.615 1321.65 293.767 1332.92C293.109 1344.17 292.52 1355.12 291.999 1365.78C291.459 1376.25 290.923 1385.75 290.392 1394.29ZM360.155 1324.82C354.613 1325.35 349.089 1326.07 343.583 1326.99C338.077 1327.9 332.571 1328.81 327.065 1329.73C330.736 1305.65 334.225 1281.69 337.532 1257.84C341.031 1233.97 344.711 1209.99 348.574 1185.9C352.15 1184.98 356.204 1184.01 360.736 1183C365.459 1181.97 370.173 1180.84 374.878 1179.62C379.583 1178.39 384.106 1177.28 388.447 1176.29C392.979 1175.28 396.746 1174.34 399.749 1173.47C391.737 1198.54 384.603 1223.72 378.348 1249.01C372.265 1274.09 366.201 1299.36 360.155 1324.82ZM367.337 1369.55C367.685 1373.19 367.173 1376.9 365.801 1380.7C364.62 1384.47 362.638 1387.94 359.855 1391.1C357.054 1394.07 353.433 1396.54 348.992 1398.51C344.57 1400.67 339.397 1402.03 333.472 1402.6C329.459 1402.99 325.754 1402.57 322.358 1401.35C318.963 1400.13 316.094 1398.38 313.754 1396.1C311.586 1393.61 309.773 1390.79 308.315 1387.65C306.857 1384.51 305.972 1381.32 305.66 1378.07C305.312 1374.44 305.556 1370.94 306.391 1367.59C307.208 1364.04 308.644 1360.91 310.699 1358.2C312.928 1355.29 315.679 1352.81 318.955 1350.76C322.421 1348.69 326.639 1347.42 331.608 1346.94C342.693 1345.88 351.264 1347.76 357.319 1352.58C363.357 1357.21 366.696 1362.87 367.337 1369.55ZM448.498 1383.18C454.471 1356.96 460.107 1331.25 465.407 1306.05C467.667 1295.42 469.976 1284.3 472.335 1272.69C474.694 1261.09 477.063 1249.58 479.44 1238.16C481.818 1226.75 483.945 1215.74 485.823 1205.15C487.891 1194.53 489.651 1184.72 491.102 1175.71C501.614 1174.7 511.497 1173.17 520.752 1171.13C530.007 1169.08 540.036 1167.06 550.838 1165.06C550.668 1169.32 550.457 1174.16 550.206 1179.59C550.127 1184.8 549.885 1190.32 549.479 1196.15C549.264 1201.96 548.972 1207.96 548.603 1214.17C548.233 1220.38 547.838 1228.33 547.416 1238.01C546.994 1247.69 546.324 1259.81 545.404 1274.37L549.131 1274.01C553.282 1258.95 556.714 1246.47 559.429 1236.57C562.126 1226.47 564.328 1218.26 566.036 1211.92C567.743 1205.59 569.468 1199.44 571.212 1193.49C573.129 1187.32 574.891 1181.56 576.498 1176.2C578.279 1170.63 579.932 1165.74 581.459 1161.55C586.2 1160.71 590.646 1159.8 594.796 1158.82C598.945 1157.85 603.095 1156.87 607.245 1155.89C611.376 1154.73 615.517 1153.65 619.667 1152.68C623.989 1151.49 628.685 1150.17 633.754 1148.72C632.905 1159.99 632.18 1171.54 631.577 1183.36C630.975 1195.18 630.563 1206.99 630.343 1218.78C630.105 1230.37 629.857 1241.87 629.6 1253.28C629.534 1264.66 629.509 1275.47 629.525 1285.69C629.503 1309.61 629.713 1332.93 630.155 1355.64L581.124 1369.31C581.032 1368.36 580.88 1365.77 580.669 1361.54C580.648 1357.3 580.535 1352.11 580.331 1345.95C580.318 1339.78 580.337 1332.93 580.387 1325.41C580.628 1317.86 580.773 1310.32 580.823 1302.8C581.064 1295.25 581.333 1287.99 581.629 1281.02C581.906 1273.86 582.285 1267.75 582.764 1262.68L580.184 1262.93C578.278 1271.22 576.131 1280 573.743 1289.3C571.336 1298.4 568.853 1307.71 566.292 1317.21C563.923 1326.7 561.535 1335.99 559.128 1345.09C556.722 1354.2 554.661 1362.88 552.946 1371.15C546.275 1371.98 540.569 1372.81 535.828 1373.65C531.068 1374.3 525.553 1375.12 519.282 1376.11L518.26 1268.87L513.96 1269.28C513.816 1271.8 513.263 1276.1 512.302 1282.17C511.323 1288.05 510.148 1294.91 508.779 1302.76C507.582 1310.4 506.231 1318.43 504.725 1326.87C503.201 1335.12 501.727 1342.88 500.303 1350.15C499.051 1357.22 497.976 1363.11 497.078 1367.82C496.162 1372.35 495.635 1374.9 495.499 1375.5L448.498 1383.18ZM665.026 1359.82L672.689 1300.93C671.901 1292.72 670.858 1283.85 669.56 1274.33C668.434 1264.6 667.118 1254.89 665.61 1245.2C664.102 1235.5 662.631 1226.19 661.196 1217.26C659.743 1208.15 658.496 1200.16 657.454 1193.32C656.394 1186.29 655.471 1180.68 654.686 1176.52C653.901 1172.35 653.508 1170.26 653.508 1170.26L698.534 1148.01L701.887 1182.99C702.345 1187.76 702.812 1192.64 703.288 1197.61C703.765 1202.58 704.136 1207.46 704.403 1212.25C704.861 1217.03 705.292 1221.52 705.695 1225.73C706.098 1229.93 706.437 1233.47 706.712 1236.34C708.574 1229.6 710.766 1221.29 713.291 1211.4C716.006 1201.5 718.462 1191.91 720.659 1182.63C723.282 1171.77 725.947 1160.33 728.651 1148.31L774.05 1154.08C767.407 1171.3 760.946 1188.41 754.668 1205.41C752.096 1212.79 749.362 1220.48 746.463 1228.48C743.546 1236.28 740.639 1244.17 737.74 1252.17C734.824 1259.97 731.984 1267.57 729.222 1274.97C726.459 1282.37 723.938 1289.27 721.657 1295.66C721.178 1300.72 720.458 1306.29 719.497 1312.36C718.727 1318.41 717.93 1324.18 717.105 1329.66C715.989 1336.13 714.778 1342.61 713.472 1349.1L665.026 1359.82ZM828.155 1349.97C831.251 1321.9 834.142 1294.71 836.828 1268.42C837.677 1257.15 838.584 1245.49 839.551 1233.44C840.708 1221.37 841.693 1209.51 842.505 1197.86C843.299 1186.02 843.956 1174.77 844.477 1164.11C844.98 1153.26 845.202 1143.5 845.142 1134.82C847.645 1134.78 849.756 1134.67 851.476 1134.51C853.196 1134.34 855.203 1134.15 857.497 1133.93C860.172 1133.67 863.421 1133.36 867.244 1132.99C871.048 1132.44 874.852 1131.88 878.656 1131.32C882.461 1130.76 886.551 1130.18 890.929 1129.57C894.887 1142.69 898.513 1155.36 901.806 1167.58C904.953 1178.27 908.127 1189.25 911.329 1200.52C914.722 1211.77 917.663 1221.32 920.153 1229.18C920.551 1225.29 920.989 1220.81 921.469 1215.75C921.93 1210.5 922.468 1205.04 923.083 1199.39C923.698 1193.74 924.218 1188.1 924.643 1182.46C925.24 1176.62 925.846 1170.87 926.461 1165.22C927.946 1152.54 929.49 1139.47 931.092 1126L965.656 1118.35C961.961 1148.22 958.884 1176.48 956.425 1203.14C955.212 1214.64 954.018 1226.32 952.842 1238.2C951.839 1249.87 950.895 1261.15 950.01 1272.03C949.107 1282.73 948.426 1292.73 947.967 1302.03C947.49 1311.14 947.163 1318.79 946.985 1324.98C946.411 1325.04 944.164 1325.73 940.242 1327.07C936.493 1328.2 932.093 1329.59 927.042 1331.23C922.183 1332.86 917.228 1334.49 912.178 1336.13C907.319 1337.75 903.692 1339.16 901.299 1340.35C898.687 1325.17 896.052 1310.77 893.395 1297.14C892.254 1291.27 891.008 1285.31 889.657 1279.27C888.479 1273.01 887.233 1267.06 885.919 1261.4C884.604 1255.74 883.327 1250.46 882.086 1245.56C880.845 1240.67 879.668 1236.44 878.556 1232.88C878.331 1236.57 877.969 1240.85 877.472 1245.72C876.974 1250.59 876.504 1255.74 876.061 1261.19C875.619 1266.63 875.204 1272.36 874.816 1278.37C874.41 1284.2 873.89 1289.84 873.256 1295.3C871.999 1308.35 870.606 1321.98 869.077 1336.21L828.155 1349.97ZM1069.76 1319.58C1065.06 1320.8 1059.88 1322.16 1054.24 1323.67C1048.6 1325.17 1043.52 1326.53 1039.01 1327.73C1039.17 1321.35 1039.33 1315.07 1039.51 1308.88C1039.57 1303.47 1039.54 1298.07 1039.41 1292.69C1039.47 1287.28 1039.51 1282.65 1039.52 1278.79L1014.58 1281.18L1007.07 1323.56C1002.92 1324.54 998.015 1325.68 992.355 1327C986.676 1328.12 981.38 1329.21 976.465 1330.26C970.423 1331.61 964.476 1332.95 958.624 1334.28C963.832 1308.13 968.981 1282.37 974.072 1257C976.14 1246.38 978.259 1235.28 980.427 1223.69C982.786 1212.09 985.059 1200.59 987.245 1189.19C989.604 1177.58 991.818 1166.47 993.887 1155.86C995.955 1145.25 997.724 1135.53 999.193 1126.71C1012.1 1124.51 1025.18 1122.1 1038.43 1119.48C1051.87 1116.84 1064.88 1113.76 1077.47 1110.24C1077.48 1116.41 1077.54 1124.12 1077.66 1133.36C1077.95 1142.4 1078.32 1152.3 1078.77 1163.06C1079.22 1173.82 1079.72 1185.05 1080.26 1196.76C1080.81 1208.48 1081.33 1220 1081.84 1231.33C1083.42 1257.8 1085.05 1285.9 1086.74 1315.63C1081.1 1317.14 1075.44 1318.45 1069.76 1319.58ZM1018.71 1251.85C1019.48 1251.78 1020.81 1251.65 1022.73 1251.46C1024.81 1251.07 1026.9 1250.78 1029.01 1250.57C1031.28 1250.16 1033.37 1249.87 1035.28 1249.68C1037.18 1249.31 1038.5 1248.99 1039.24 1248.72C1039.13 1247.58 1039.05 1245.66 1038.98 1242.96C1039.09 1240.06 1039.07 1236.88 1038.93 1233.42C1038.97 1229.75 1038.97 1225.8 1038.95 1221.56C1038.93 1217.31 1038.92 1213.17 1038.92 1209.12C1038.75 1199.3 1038.7 1188.69 1038.76 1177.31L1038.09 1152.2L1033.82 1152.9L1029.59 1178.19L1018.71 1251.85ZM1088.67 1321.81C1094.64 1295.59 1100.28 1269.88 1105.58 1244.68C1107.84 1234.05 1110.15 1222.93 1112.51 1211.32C1114.87 1199.72 1117.23 1188.21 1119.61 1176.79C1121.99 1165.38 1124.12 1154.37 1125.99 1143.77C1128.06 1133.16 1129.82 1123.35 1131.27 1114.34C1141.78 1113.33 1151.67 1111.8 1160.92 1109.76C1170.18 1107.71 1180.21 1105.69 1191.01 1103.69C1190.84 1107.95 1190.63 1112.79 1190.38 1118.22C1190.3 1123.43 1190.06 1128.95 1189.65 1134.78C1189.44 1140.59 1189.14 1146.59 1188.77 1152.8C1188.4 1159.01 1188.01 1166.95 1187.59 1176.64C1187.17 1186.32 1186.5 1198.44 1185.58 1213L1189.3 1212.64C1193.45 1197.58 1196.89 1185.1 1199.6 1175.2C1202.3 1165.1 1204.5 1156.89 1206.21 1150.55C1207.91 1144.22 1209.64 1138.07 1211.38 1132.12C1213.3 1125.95 1215.06 1120.19 1216.67 1114.83C1218.45 1109.26 1220.1 1104.37 1221.63 1100.18C1226.37 1099.34 1230.82 1098.43 1234.97 1097.45C1239.12 1096.48 1243.27 1095.5 1247.42 1094.52C1251.55 1093.36 1255.69 1092.28 1259.84 1091.31C1264.16 1090.12 1268.86 1088.8 1273.93 1087.35C1273.08 1098.62 1272.35 1110.17 1271.75 1121.99C1271.15 1133.81 1270.73 1145.62 1270.51 1157.41C1270.28 1169 1270.03 1180.5 1269.77 1191.91C1269.71 1203.29 1269.68 1214.1 1269.7 1224.32C1269.67 1248.24 1269.88 1271.55 1270.33 1294.27L1221.3 1307.94C1221.2 1306.99 1221.05 1304.4 1220.84 1300.17C1220.82 1295.93 1220.71 1290.74 1220.5 1284.58C1220.49 1278.41 1220.51 1271.56 1220.56 1264.04C1220.8 1256.49 1220.94 1248.95 1220.99 1241.43C1221.24 1233.88 1221.5 1226.62 1221.8 1219.65C1222.08 1212.49 1222.46 1206.38 1222.94 1201.31L1220.36 1201.56C1218.45 1209.85 1216.3 1218.63 1213.91 1227.93C1211.51 1237.03 1209.02 1246.34 1206.46 1255.84C1204.09 1265.32 1201.71 1274.62 1199.3 1283.72C1196.89 1292.83 1194.83 1301.51 1193.12 1309.77C1186.45 1310.61 1180.74 1311.44 1176 1312.28C1171.24 1312.93 1165.72 1313.75 1159.45 1314.74L1158.43 1207.5L1154.13 1207.91C1153.99 1210.43 1153.43 1214.73 1152.47 1220.8C1151.49 1226.68 1150.32 1233.54 1148.95 1241.39C1147.75 1249.03 1146.4 1257.06 1144.9 1265.5C1143.37 1273.75 1141.9 1281.51 1140.47 1288.78C1139.22 1295.85 1138.15 1301.74 1137.25 1306.45C1136.33 1310.98 1135.81 1313.53 1135.67 1314.12L1088.67 1321.81ZM1285.86 1304.94L1303.87 1097.5L1393.72 1081.08C1392.79 1085.41 1392.05 1089.82 1391.52 1094.31C1390.91 1098.03 1390.32 1101.94 1389.75 1106.05C1389.35 1109.94 1389.01 1113.45 1388.73 1116.56C1386.84 1116.94 1384.09 1117.39 1380.47 1117.93C1377.03 1118.26 1373.32 1118.72 1369.32 1119.29C1365.31 1119.68 1361.2 1120.07 1356.99 1120.47C1352.98 1120.86 1349.44 1121.2 1346.39 1121.49L1341.27 1173.77C1347.16 1172.82 1352.67 1172 1357.82 1171.31C1362 1170.72 1366.29 1170.21 1370.69 1169.79C1375.09 1169.37 1378.33 1168.96 1380.41 1168.57C1380.16 1173.99 1379.9 1179.32 1379.63 1184.56C1379.55 1189.77 1379.29 1195.1 1378.85 1200.54C1376.95 1200.92 1373.82 1201.41 1369.44 1202.03C1365.24 1202.43 1360.94 1202.94 1356.57 1203.55C1351.62 1204.22 1346.19 1204.93 1340.28 1205.69L1335.59 1259.37L1376.81 1248.77L1377.08 1281.72L1285.86 1304.94ZM1502.62 1278.08C1500.9 1278.24 1497.49 1278.86 1492.39 1279.93C1487.45 1280.79 1482.35 1281.85 1477.07 1283.13C1471.77 1284.22 1466.95 1285.26 1462.61 1286.25C1458.46 1287.23 1456.21 1287.83 1455.84 1288.06C1456.97 1279.66 1458.01 1270.4 1458.97 1260.28C1460.1 1249.94 1461.19 1239.23 1462.25 1228.14C1463.29 1216.85 1464.22 1205.48 1465.05 1194.02C1465.88 1182.56 1466.66 1171.49 1467.37 1160.81C1469.04 1135.96 1470.64 1110.45 1472.18 1084.26L1516.22 1072.8C1514.28 1098.84 1512.39 1124.38 1510.54 1149.44C1509.83 1160.12 1509.06 1171.18 1508.23 1182.64C1507.59 1194.09 1506.85 1205.44 1506 1216.71C1505.34 1227.96 1504.75 1238.91 1504.23 1249.57C1503.69 1260.04 1503.16 1269.54 1502.62 1278.08ZM1641.2 1199.12C1642.23 1209.82 1641.06 1219.77 1637.7 1228.96C1634.51 1237.95 1629.68 1245.93 1623.22 1252.92C1616.94 1259.89 1609.19 1265.55 1599.96 1269.9C1590.93 1274.24 1580.96 1276.93 1570.07 1277.98C1562.42 1278.71 1554.59 1277.44 1546.56 1274.16C1538.51 1270.68 1530.52 1264.8 1522.59 1256.49L1539.82 1212.89C1541.39 1215.24 1543.65 1217.63 1546.58 1220.05C1549.49 1222.28 1552.66 1224.19 1556.1 1225.79C1559.72 1227.37 1563.22 1228.68 1566.6 1229.7C1570.15 1230.52 1573.26 1230.8 1575.94 1230.55C1578.23 1230.33 1580.58 1229.71 1582.99 1228.71C1585.41 1227.71 1587.59 1226.34 1589.55 1224.61C1591.5 1222.88 1592.96 1221.01 1593.92 1218.98C1595.06 1216.75 1595.5 1214.3 1595.24 1211.62C1594.8 1207.04 1592.87 1202.98 1589.45 1199.45C1586.2 1195.71 1582.21 1192.33 1577.48 1189.31C1572.74 1186.1 1567.61 1182.93 1562.1 1179.79C1556.59 1176.66 1551.45 1173.29 1546.67 1169.7C1542.08 1166.09 1538.02 1161.95 1534.48 1157.27C1530.95 1152.59 1528.89 1147.2 1528.3 1141.08C1527.35 1131.14 1529.42 1121.59 1534.52 1112.42C1539.62 1103.25 1546.28 1095.19 1554.48 1088.23C1562.86 1081.06 1572.13 1075.16 1582.3 1070.52C1592.46 1065.88 1602.22 1063.11 1611.59 1062.22C1616.75 1061.72 1621.69 1061.92 1626.4 1062.82C1631.1 1063.53 1635.21 1065.16 1638.73 1067.71C1642.43 1070.06 1645.44 1073.24 1647.75 1077.27C1650.26 1081.27 1651.81 1086.42 1652.41 1092.73C1652.67 1095.41 1652.64 1098.11 1652.32 1100.84C1652.2 1103.55 1652.09 1106.46 1652 1109.55L1611.59 1125.58C1611.82 1124.01 1611.96 1122.45 1612.01 1120.91C1612.24 1119.34 1612.29 1117.79 1612.14 1116.27C1611.59 1110.53 1610.15 1106.52 1607.81 1104.24C1605.64 1101.75 1602.93 1100.66 1599.68 1100.97C1598.15 1101.12 1596.3 1101.87 1594.11 1103.24C1592.12 1104.59 1590.07 1106.33 1587.96 1108.46C1586.02 1110.38 1584.41 1112.66 1583.12 1115.29C1581.82 1117.92 1581.32 1120.67 1581.59 1123.53C1582.03 1128.12 1583.64 1131.82 1586.42 1134.64C1589.39 1137.45 1592.91 1140 1596.99 1142.31C1601.07 1144.62 1605.44 1147 1610.11 1149.44C1614.96 1151.68 1619.5 1154.81 1623.74 1158.84C1627.99 1162.87 1631.67 1168.11 1634.8 1174.56C1638.1 1180.8 1640.23 1188.99 1641.2 1199.12ZM1833.88 1189.91C1830.3 1200.86 1826.02 1210.53 1821.03 1218.91C1816.22 1227.09 1810.92 1234.15 1805.13 1240.11C1799.51 1245.86 1793.66 1250.27 1787.59 1253.36C1781.52 1256.45 1775.53 1258.28 1769.6 1258.85C1763.68 1259.42 1758.1 1258.6 1752.88 1256.4C1747.84 1254.19 1743.25 1250.57 1739.11 1245.57C1734.96 1240.57 1731.37 1234.26 1728.32 1226.64C1725.47 1219.01 1723.54 1209.93 1722.53 1199.42C1720.81 1181.46 1721.6 1163.54 1724.9 1145.67C1728.19 1127.61 1733.65 1111.17 1741.3 1096.36C1748.94 1081.55 1758.48 1069.35 1769.9 1059.77C1781.5 1049.98 1794.75 1044.37 1809.66 1042.94C1814.25 1042.5 1818.74 1043.03 1823.12 1044.54C1827.51 1046.05 1831.4 1048.38 1834.79 1051.52C1838.17 1054.67 1840.97 1058.65 1843.16 1063.45C1845.55 1068.24 1847.04 1073.69 1847.62 1079.8C1847.73 1080.95 1847.85 1082.19 1847.98 1083.53C1848.09 1084.68 1848.11 1085.93 1848.05 1087.28L1811.46 1100.92C1808.71 1096.36 1805.8 1094.23 1802.74 1094.52C1799.69 1094.81 1796.61 1096.94 1793.52 1100.9C1790.6 1104.65 1787.79 1109.55 1785.09 1115.6C1782.37 1121.45 1779.82 1128.06 1777.44 1135.43C1775.05 1142.6 1773.04 1149.83 1771.42 1157.12C1769.81 1164.42 1768.55 1171.38 1767.64 1178.03C1766.91 1184.46 1766.73 1189.69 1767.12 1193.7C1767.7 1199.82 1768.88 1204.04 1770.65 1206.38C1772.61 1208.7 1774.92 1209.73 1777.6 1209.48C1779.7 1209.28 1782.02 1208.28 1784.55 1206.5C1787.06 1204.52 1789.34 1202.18 1791.4 1199.48C1793.43 1196.58 1795.25 1193.42 1796.85 1189.98C1798.45 1186.55 1799.48 1183.17 1799.93 1179.85L1833.88 1189.91ZM1847.03 1251.43C1849.81 1224.16 1852.47 1197.57 1855 1171.68C1855.87 1160.6 1856.8 1149.13 1857.78 1137.27C1858.75 1125.22 1859.54 1113.38 1860.16 1101.75C1860.97 1090.1 1861.63 1078.85 1862.13 1068C1862.81 1056.94 1863.2 1046.97 1863.32 1038.08C1867.73 1037.85 1871.77 1037.75 1875.44 1037.79C1879.28 1037.61 1883.03 1037.45 1886.68 1037.29C1890.33 1037.13 1893.97 1036.98 1897.62 1036.82C1901.45 1036.45 1905.56 1036.06 1909.95 1035.64C1908 1049.52 1906.06 1063.4 1904.11 1077.28C1902.35 1091.14 1900.79 1105.08 1899.44 1119.1L1927.52 1113.23C1928.89 1099.4 1930.03 1086.08 1930.92 1073.26C1931.79 1060.26 1933.3 1046.8 1935.44 1032.91C1939.76 1031.72 1944.58 1030.68 1949.9 1029.78C1955.19 1028.7 1960.12 1027.74 1964.67 1026.92C1969.22 1026.1 1973.01 1025.45 1976.05 1024.96C1979.26 1024.27 1980.87 1023.92 1980.87 1023.92C1979.02 1032.78 1977.35 1042.49 1975.85 1053.04C1974.53 1063.39 1973.25 1074.22 1972.02 1085.53C1970.77 1096.64 1969.64 1107.94 1968.61 1119.41C1967.59 1130.89 1966.71 1141.78 1965.96 1152.07C1964.08 1176.75 1962.54 1201.97 1961.35 1227.74L1917.12 1237.19C1918.51 1225.48 1919.63 1214.09 1920.5 1203.01C1921.53 1193.65 1922.53 1183.91 1923.49 1173.79C1924.64 1163.65 1925.44 1154.99 1925.91 1147.81L1898.35 1153.06C1897.71 1160.45 1896.89 1169.01 1895.9 1178.75C1895.09 1188.47 1894.34 1197.71 1893.63 1206.45C1892.52 1216.98 1891.41 1227.5 1890.3 1238.02L1847.03 1251.43ZM1981 1238.29C1983.72 1212.38 1986.31 1187.06 1988.76 1162.33C1989.49 1151.84 1990.37 1140.96 1991.41 1129.67C1992.44 1118.19 1993.28 1106.92 1993.96 1095.86C1994.81 1084.6 1995.51 1073.82 1996.07 1063.55C1996.8 1053.06 1997.24 1043.57 1997.39 1035.07C2007.95 1030.58 2019.47 1026.97 2031.94 1024.23C2044.39 1021.3 2056.82 1019.24 2069.25 1018.05C2076.7 1017.34 2082.9 1017.61 2087.84 1018.87C2092.98 1020.12 2097.04 1022.24 2100.02 1025.23C2103.18 1028.01 2105.54 1031.45 2107.09 1035.55C2108.64 1039.64 2109.66 1044.27 2110.15 1049.43C2110.89 1057.07 2110.27 1064.75 2108.31 1072.46C2106.33 1079.98 2103.37 1087.3 2099.42 1094.43C2095.65 1101.35 2091.07 1107.87 2085.67 1113.98C2080.45 1119.88 2074.66 1124.87 2068.3 1128.95C2072.48 1136.27 2076.92 1144.33 2081.62 1153.14C2086.49 1161.73 2091.04 1169.98 2095.27 1177.87C2100.01 1187.06 2104.84 1196.24 2109.77 1205.41L2066.82 1225.15C2061.83 1213.28 2057.29 1202.15 2053.2 1191.74C2051.44 1187.47 2049.68 1183.11 2047.9 1178.65C2046.1 1174 2044.43 1169.62 2042.88 1165.53C2041.33 1161.43 2040.02 1157.8 2038.94 1154.62C2037.85 1151.26 2037.1 1148.53 2036.71 1146.45L2033.09 1147.95C2032.53 1154.18 2031.79 1161.48 2030.85 1169.86C2030.11 1178.23 2029.44 1186.3 2028.83 1194.07C2027.98 1203.22 2027.13 1212.46 2026.29 1221.8L1981 1238.29ZM2036.44 1107.41C2040.03 1106.68 2044.28 1104.73 2049.19 1101.56C2054.28 1098.37 2059.05 1094.74 2063.48 1090.65C2067.89 1086.37 2071.62 1082.05 2074.68 1077.71C2077.73 1073.37 2079.11 1069.67 2078.82 1066.61C2078.62 1064.51 2077.79 1062.95 2076.35 1061.93C2074.88 1060.72 2072.88 1059.95 2070.34 1059.61C2067.97 1059.07 2065.34 1058.83 2062.46 1058.92C2059.57 1059 2056.6 1059.19 2053.54 1059.48C2051.44 1059.69 2049.25 1059.99 2046.98 1060.4C2044.88 1060.6 2042.96 1060.79 2041.24 1060.95L2036.44 1107.41ZM2163.99 1214.68C2162.27 1214.84 2158.86 1215.46 2153.76 1216.53C2148.82 1217.38 2143.72 1218.45 2138.44 1219.73C2133.14 1220.82 2128.32 1221.86 2123.98 1222.85C2119.83 1223.83 2117.58 1224.43 2117.21 1224.66C2118.34 1216.26 2119.38 1206.99 2120.34 1196.87C2121.47 1186.54 2122.56 1175.83 2123.62 1164.73C2124.66 1153.45 2125.59 1142.07 2126.43 1130.61C2127.26 1119.15 2128.03 1108.09 2128.74 1097.41C2130.41 1072.56 2132.01 1047.04 2133.55 1020.86L2177.59 1009.4C2175.65 1035.43 2173.76 1060.98 2171.91 1086.04C2171.2 1096.71 2170.43 1107.78 2169.6 1119.24C2168.96 1130.68 2168.22 1142.04 2167.37 1153.31C2166.71 1164.56 2166.12 1175.51 2165.6 1186.17C2165.06 1196.64 2164.53 1206.14 2163.99 1214.68ZM2302.57 1135.72C2303.6 1146.42 2302.43 1156.37 2299.07 1165.56C2295.88 1174.55 2291.05 1182.53 2284.59 1189.52C2278.31 1196.48 2270.56 1202.15 2261.33 1206.5C2252.3 1210.84 2242.33 1213.53 2231.44 1214.58C2223.79 1215.31 2215.96 1214.03 2207.93 1210.75C2199.88 1207.28 2191.89 1201.39 2183.96 1193.09L2201.19 1149.49C2202.76 1151.84 2205.02 1154.23 2207.95 1156.65C2210.86 1158.88 2214.04 1160.79 2217.47 1162.39C2221.09 1163.97 2224.59 1165.28 2227.97 1166.3C2231.52 1167.12 2234.63 1167.4 2237.31 1167.14C2239.6 1166.92 2241.95 1166.31 2244.36 1165.31C2246.78 1164.31 2248.96 1162.94 2250.92 1161.21C2252.87 1159.48 2254.33 1157.6 2255.29 1155.58C2256.43 1153.35 2256.87 1150.9 2256.61 1148.22C2256.17 1143.64 2254.24 1139.58 2250.82 1136.05C2247.57 1132.31 2243.58 1128.93 2238.85 1125.91C2234.11 1122.7 2228.98 1119.53 2223.47 1116.39C2217.96 1113.25 2212.82 1109.89 2208.04 1106.3C2203.45 1102.69 2199.39 1098.54 2195.85 1093.87C2192.32 1089.19 2190.26 1083.8 2189.67 1077.68C2188.72 1067.74 2190.79 1058.19 2195.89 1049.02C2200.99 1039.85 2207.65 1031.79 2215.85 1024.83C2224.23 1017.66 2233.5 1011.76 2243.67 1007.12C2253.83 1002.48 2263.59 999.71 2272.96 998.813C2278.12 998.318 2283.06 998.52 2287.77 999.418C2292.47 1000.12 2296.58 1001.76 2300.1 1004.31C2303.8 1006.66 2306.81 1009.84 2309.12 1013.86C2311.63 1017.87 2313.18 1023.02 2313.79 1029.33C2314.04 1032 2314.01 1034.71 2313.69 1037.44C2313.57 1040.15 2313.46 1043.05 2313.37 1046.15L2272.96 1062.17C2273.19 1060.61 2273.33 1059.05 2273.38 1057.5C2273.61 1055.94 2273.66 1054.39 2273.51 1052.86C2272.96 1047.13 2271.52 1043.12 2269.18 1040.84C2267.01 1038.34 2264.3 1037.25 2261.05 1037.57C2259.52 1037.71 2257.67 1038.47 2255.48 1039.84C2253.49 1041.18 2251.44 1042.92 2249.33 1045.05C2247.39 1046.98 2245.78 1049.25 2244.49 1051.88C2243.19 1054.52 2242.69 1057.26 2242.96 1060.13C2243.4 1064.72 2245.01 1068.42 2247.79 1071.24C2250.76 1074.04 2254.28 1076.6 2258.36 1078.91C2262.44 1081.22 2266.81 1083.59 2271.48 1086.04C2276.33 1088.28 2280.87 1091.41 2285.12 1095.44C2289.36 1099.47 2293.04 1104.71 2296.17 1111.16C2299.47 1117.4 2301.6 1125.59 2302.57 1135.72ZM2365.54 1132.57C2360 1133.1 2354.48 1133.83 2348.97 1134.74C2343.47 1135.65 2337.96 1136.57 2332.45 1137.48C2336.12 1113.4 2339.61 1089.44 2342.92 1065.59C2346.42 1041.73 2350.1 1017.75 2353.96 993.651C2357.54 992.73 2361.59 991.762 2366.12 990.749C2370.85 989.718 2375.56 988.591 2380.27 987.368C2384.97 986.146 2389.49 985.037 2393.84 984.042C2398.37 983.029 2402.13 982.089 2405.14 981.223C2397.13 1006.29 2389.99 1031.47 2383.74 1056.76C2377.65 1081.84 2371.59 1107.11 2365.54 1132.57ZM2372.73 1177.31C2373.07 1180.94 2372.56 1184.65 2371.19 1188.45C2370.01 1192.23 2368.03 1195.69 2365.24 1198.86C2362.44 1201.82 2358.82 1204.29 2354.38 1206.26C2349.96 1208.42 2344.79 1209.79 2338.86 1210.35C2334.85 1210.74 2331.14 1210.32 2327.75 1209.1C2324.35 1207.89 2321.48 1206.14 2319.14 1203.85C2316.97 1201.36 2315.16 1198.54 2313.7 1195.41C2312.25 1192.27 2311.36 1189.07 2311.05 1185.82C2310.7 1182.19 2310.94 1178.7 2311.78 1175.34C2312.6 1171.79 2314.03 1168.66 2316.09 1165.96C2318.32 1163.04 2321.07 1160.56 2324.34 1158.51C2327.81 1156.44 2332.03 1155.17 2337 1154.69C2348.08 1153.63 2356.65 1155.51 2362.71 1160.33C2368.75 1164.96 2372.08 1170.62 2372.73 1177.31Z" fill="#F8E967"/>
</g>
<g filter="url(#filter1_d)">
<path d="M573.392 1540.64L574.53 1437.82C579.003 1437.2 583.166 1436.37 587.02 1435.32C590.961 1434.17 594.876 1433.27 598.767 1432.61C598.776 1432.7 598.729 1433.72 598.625 1435.66C598.513 1437.5 598.364 1439.97 598.179 1443.08C597.985 1446.09 597.785 1449.53 597.578 1453.41C597.362 1457.19 596.997 1462.43 596.482 1469.14C596.063 1475.83 595.504 1485.09 594.806 1496.93L596.957 1496.72C598.598 1487.69 599.966 1480.33 601.059 1474.63C602.143 1468.83 602.998 1464.17 603.624 1460.64C604.336 1457 604.966 1453.52 605.515 1450.19C606.159 1446.85 606.731 1443.75 607.229 1440.91C607.824 1438.05 608.268 1435.65 608.563 1433.69L609.853 1433.57C611.573 1433.4 613.284 1433.14 614.986 1432.79C616.783 1432.42 618.437 1432.07 619.948 1431.73C621.545 1431.29 623.185 1430.8 624.869 1430.25C624.76 1431.13 624.691 1432.92 624.66 1435.62C624.726 1438.32 624.751 1441.59 624.735 1445.45C624.71 1449.21 624.726 1453.41 624.784 1458.03C624.832 1462.56 624.876 1467.04 624.915 1471.47C624.945 1475.81 624.957 1479.96 624.95 1483.91C625.039 1487.86 625.073 1491.23 625.052 1494.03L627.632 1493.78L635.341 1430.84C638.544 1430.05 641.704 1429.31 644.821 1428.63C647.556 1427.98 650.386 1427.32 653.312 1426.65C656.237 1425.99 658.824 1425.31 661.072 1424.61C660.023 1428.76 659.02 1433.39 658.063 1438.49C657.097 1443.51 656.11 1448.81 655.104 1454.4C654.097 1460 653.142 1465.63 652.24 1471.31C651.434 1476.98 650.609 1482.46 649.766 1487.75C647.88 1500.28 646.123 1513.13 644.493 1526.3L612.619 1534.86L613.622 1478.92L611.902 1479.08L602.699 1532.48L573.392 1540.64ZM659.011 1532L668.018 1428.28L712.944 1420.07C712.476 1422.24 712.109 1424.44 711.842 1426.68C711.538 1428.55 711.244 1430.5 710.958 1432.56C710.759 1434.5 710.59 1436.26 710.449 1437.81C709.503 1438 708.127 1438.23 706.32 1438.5C704.6 1438.66 702.741 1438.89 700.743 1439.18C698.737 1439.37 696.682 1439.57 694.58 1439.77C692.573 1439.96 690.805 1440.13 689.276 1440.28L686.719 1466.42C689.663 1465.94 692.42 1465.53 694.991 1465.19C697.085 1464.89 699.23 1464.64 701.428 1464.43C703.626 1464.22 705.246 1464.01 706.288 1463.82C706.162 1466.53 706.032 1469.19 705.897 1471.81C705.858 1474.42 705.727 1477.08 705.506 1479.8C704.56 1479.99 702.992 1480.24 700.803 1480.54C698.701 1480.75 696.555 1481 694.367 1481.31C691.891 1481.64 689.177 1482 686.223 1482.38L683.878 1509.22L704.49 1503.91L704.623 1520.39L659.011 1532ZM750.128 1518.49C747.165 1518.77 744.021 1519.17 740.694 1519.68C737.464 1520.19 734.194 1520.79 730.886 1521.49C727.578 1522.19 724.332 1523.04 721.147 1524.02C718.048 1524.89 715.25 1525.88 712.752 1526.99C712.913 1522.64 713.124 1517.79 713.385 1512.47C713.646 1507.14 713.983 1501.61 714.399 1495.88C714.909 1490.14 715.368 1484.36 715.774 1478.53C716.275 1472.7 716.799 1467.1 717.347 1461.74C718.536 1449 719.845 1436 721.275 1422.74L746.044 1417.04C744.526 1428.37 743.077 1439.41 741.696 1450.15C741.075 1454.74 740.473 1459.53 739.889 1464.5C739.296 1469.38 738.741 1474.16 738.225 1478.84C737.709 1483.52 737.275 1488.04 736.923 1492.42C736.571 1496.79 736.316 1500.67 736.159 1504.06C738.53 1503.64 741.053 1503.3 743.729 1503.05C746.491 1502.69 748.923 1502.4 751.025 1502.2C751.295 1504.01 751.612 1505.81 751.978 1507.61C752.334 1509.31 752.676 1510.87 753.004 1512.28C753.429 1513.69 753.743 1514.96 753.949 1516.1C754.241 1517.13 754.453 1517.83 754.585 1518.21C753.82 1518.28 753.056 1518.35 752.291 1518.43C751.613 1518.4 750.892 1518.42 750.128 1518.49ZM816.813 1485.62C815.023 1491.1 812.883 1495.93 810.391 1500.13C807.987 1504.22 805.336 1507.75 802.439 1510.73C799.628 1513.6 796.705 1515.81 793.671 1517.35C790.637 1518.9 787.638 1519.81 784.676 1520.1C781.713 1520.38 778.926 1519.97 776.313 1518.87C773.795 1517.76 771.501 1515.96 769.429 1513.46C767.356 1510.96 765.559 1507.8 764.037 1503.99C762.61 1500.18 761.645 1495.64 761.141 1490.38C760.28 1481.4 760.675 1472.44 762.325 1463.51C763.967 1454.48 766.699 1446.26 770.522 1438.85C774.345 1431.45 779.113 1425.35 784.825 1420.56C790.625 1415.66 797.251 1412.86 804.705 1412.14C806.999 1411.92 809.242 1412.19 811.436 1412.94C813.63 1413.7 815.574 1414.86 817.268 1416.43C818.962 1418.01 820.358 1419.99 821.456 1422.4C822.65 1424.79 823.394 1427.52 823.687 1430.57C823.742 1431.15 823.801 1431.77 823.865 1432.44C823.92 1433.01 823.932 1433.64 823.901 1434.31L805.604 1441.13C804.228 1438.85 802.776 1437.79 801.247 1437.93C799.718 1438.08 798.18 1439.14 796.634 1441.12C795.174 1443 793.77 1445.45 792.42 1448.47C791.061 1451.4 789.787 1454.7 788.597 1458.38C787.397 1461.97 786.394 1465.59 785.586 1469.23C784.778 1472.88 784.148 1476.36 783.695 1479.69C783.328 1482.9 783.241 1485.52 783.434 1487.52C783.727 1490.58 784.315 1492.69 785.199 1493.86C786.178 1495.02 787.336 1495.54 788.674 1495.41C789.725 1495.31 790.883 1494.81 792.148 1493.92C793.403 1492.93 794.545 1491.76 795.572 1490.41C796.591 1488.96 797.5 1487.38 798.3 1485.66C799.1 1483.95 799.613 1482.26 799.84 1480.6L816.813 1485.62ZM895.051 1430.97C895.802 1438.8 895.652 1446.29 894.601 1453.43C893.636 1460.47 892.047 1467.03 889.834 1473.13C887.613 1479.13 884.858 1484.6 881.571 1489.54C878.37 1494.38 874.919 1498.62 871.217 1502.25C867.506 1505.79 863.678 1508.62 859.734 1510.73C855.78 1512.75 851.94 1513.94 848.213 1514.29C845.059 1514.6 842.138 1514.3 839.448 1513.4C836.748 1512.4 834.333 1510.85 832.202 1508.74C830.062 1506.54 828.244 1503.67 826.749 1500.15C825.341 1496.52 824.389 1492.13 823.895 1486.97C823.382 1481.62 823.51 1475.92 824.28 1469.86C825.05 1463.81 826.302 1457.76 828.037 1451.71C829.771 1445.66 832.059 1439.85 834.9 1434.27C837.741 1428.7 840.975 1423.71 844.604 1419.31C848.224 1414.82 852.213 1411.15 856.571 1408.33C860.929 1405.5 865.592 1403.84 870.561 1403.37C874.862 1402.96 878.485 1403.52 881.43 1405.07C884.462 1406.52 886.879 1408.6 888.683 1411.32C890.574 1413.94 892.023 1416.98 893.03 1420.45C894.038 1423.93 894.712 1427.43 895.051 1430.97ZM844.895 1481.2C844.996 1482.25 845.293 1483.33 845.785 1484.44C846.277 1485.55 846.899 1486.5 847.65 1487.3C848.402 1488.09 849.287 1488.78 850.307 1489.36C851.413 1489.83 852.539 1490.01 853.686 1489.9C857.986 1489.49 861.667 1487.64 864.728 1484.36C867.788 1481.08 870.211 1477.18 871.997 1472.67C873.783 1468.16 875.015 1463.41 875.695 1458.43C876.47 1453.43 876.665 1448.93 876.28 1444.92C876.17 1443.77 875.956 1442.54 875.636 1441.22C875.413 1439.89 875.007 1438.67 874.419 1437.57C873.927 1436.46 873.166 1435.57 872.137 1434.9C871.195 1434.12 869.959 1433.8 868.43 1433.95C865.372 1434.24 862.626 1435.28 860.193 1437.06C857.759 1438.83 855.615 1441.11 853.76 1443.89C851.991 1446.57 850.498 1449.61 849.281 1453C848.054 1456.3 847.028 1459.68 846.202 1463.13C845.462 1466.48 845.004 1469.76 844.829 1472.96C844.653 1476.16 844.675 1478.9 844.895 1481.2ZM892.822 1508.57C895.808 1495.46 898.626 1482.6 901.276 1470.01C902.406 1464.69 903.561 1459.13 904.74 1453.33C905.92 1447.52 907.104 1441.77 908.293 1436.06C909.482 1430.35 910.546 1424.85 911.484 1419.55C912.519 1414.25 913.398 1409.34 914.124 1404.83C919.38 1404.33 924.321 1403.57 928.949 1402.54C933.576 1401.52 938.591 1400.51 943.992 1399.51C943.907 1401.64 943.802 1404.06 943.676 1406.77C943.636 1409.38 943.515 1412.14 943.312 1415.05C943.205 1417.96 943.059 1420.96 942.874 1424.07C942.69 1427.17 942.492 1431.14 942.281 1435.98C942.07 1440.83 941.735 1446.89 941.275 1454.16L943.139 1453.99C945.214 1446.46 946.93 1440.22 948.288 1435.26C949.636 1430.22 950.737 1426.11 951.591 1422.94C952.444 1419.77 953.307 1416.7 954.179 1413.72C955.137 1410.64 956.018 1407.76 956.822 1405.08C957.712 1402.29 958.539 1399.85 959.302 1397.75C961.673 1397.33 963.896 1396.88 965.971 1396.39C968.046 1395.9 970.12 1395.42 972.195 1394.93C974.261 1394.34 976.331 1393.81 978.406 1393.32C980.568 1392.73 982.915 1392.07 985.45 1391.34C985.025 1396.98 984.663 1402.75 984.361 1408.66C984.06 1414.57 983.855 1420.47 983.744 1426.37C983.625 1432.17 983.501 1437.92 983.373 1443.62C983.34 1449.31 983.327 1454.71 983.335 1459.82C983.324 1471.78 983.43 1483.44 983.65 1494.8L959.135 1501.64C959.089 1501.16 959.013 1499.86 958.907 1497.75C958.897 1495.63 958.84 1493.03 958.738 1489.96C958.732 1486.87 958.741 1483.45 958.766 1479.68C958.887 1475.91 958.959 1472.14 958.984 1468.38C959.105 1464.61 959.239 1460.98 959.387 1457.49C959.526 1453.91 959.715 1450.85 959.955 1448.32L958.665 1448.45C957.712 1452.59 956.638 1456.98 955.444 1461.63C954.241 1466.18 952.999 1470.83 951.719 1475.58C950.534 1480.33 949.34 1484.97 948.137 1489.53C946.934 1494.08 945.904 1498.42 945.046 1502.55C941.71 1502.97 938.857 1503.39 936.487 1503.81C934.107 1504.13 931.349 1504.54 928.214 1505.03L927.703 1451.41L925.553 1451.62C925.481 1452.88 925.204 1455.03 924.724 1458.07C924.234 1461.01 923.647 1464.44 922.962 1468.36C922.364 1472.18 921.688 1476.2 920.936 1480.42C920.174 1484.54 919.436 1488.42 918.724 1492.06C918.098 1495.59 917.561 1498.53 917.112 1500.89C916.654 1503.15 916.391 1504.43 916.322 1504.73L892.822 1508.57ZM991.415 1500.13L1000.42 1396.42L1045.35 1388.2C1044.88 1390.37 1044.51 1392.57 1044.25 1394.82C1043.94 1396.68 1043.65 1398.64 1043.36 1400.69C1043.16 1402.64 1042.99 1404.39 1042.85 1405.95C1041.91 1406.13 1040.53 1406.36 1038.72 1406.63C1037 1406.8 1035.15 1407.02 1033.15 1407.31C1031.14 1407.5 1029.09 1407.7 1026.98 1407.9C1024.98 1408.09 1023.21 1408.26 1021.68 1408.41L1019.12 1434.55C1022.07 1434.07 1024.82 1433.67 1027.4 1433.32C1029.49 1433.03 1031.63 1432.77 1033.83 1432.56C1036.03 1432.35 1037.65 1432.15 1038.69 1431.95C1038.57 1434.66 1038.44 1437.33 1038.3 1439.94C1038.26 1442.55 1038.13 1445.22 1037.91 1447.94C1036.96 1448.12 1035.4 1448.37 1033.21 1448.68C1031.11 1448.88 1028.96 1449.13 1026.77 1449.44C1024.3 1449.77 1021.58 1450.13 1018.63 1450.51L1016.28 1477.35L1036.89 1472.05L1037.03 1488.53L991.415 1500.13ZM1088.62 1490.81C1089.81 1480.09 1090.92 1469.52 1091.95 1459.1C1092.39 1454.72 1092.82 1450.15 1093.23 1445.38C1093.65 1440.62 1094.02 1435.95 1094.35 1431.39C1094.77 1426.72 1095.07 1422.25 1095.24 1417.99C1095.49 1413.63 1095.69 1409.66 1095.83 1406.08C1093.61 1406 1091.35 1406.12 1089.07 1406.43C1086.88 1406.74 1084.65 1406.66 1082.39 1406.21C1082.34 1404.67 1082.22 1402.9 1082.02 1400.89C1081.83 1398.88 1081.69 1396.87 1081.59 1394.86C1081.48 1392.65 1081.35 1390.3 1081.2 1387.8C1083.71 1387.76 1086.21 1387.66 1088.7 1387.52C1091.19 1387.38 1093.68 1387.19 1096.17 1386.95C1101.04 1386.48 1105.71 1385.94 1110.19 1385.31C1114.75 1384.59 1118.92 1383.9 1122.72 1383.25C1126.6 1382.49 1130.38 1381.69 1134.06 1380.86L1133.23 1388.75C1132.96 1390.99 1132.7 1393.28 1132.44 1395.62C1132.28 1397.95 1132.08 1399.95 1131.86 1401.61C1129.81 1402.38 1127.7 1403.02 1125.53 1403.52C1123.45 1403.91 1121.37 1404.4 1119.31 1404.98C1118.95 1408.3 1118.58 1412 1118.2 1416.08C1117.81 1420.07 1117.44 1424.26 1117.09 1428.63C1116.82 1432.9 1116.57 1437.26 1116.32 1441.72C1116.07 1446.18 1115.8 1450.45 1115.52 1454.53C1114.9 1464.14 1114.4 1474.07 1114.04 1484.33L1088.62 1490.81ZM1204.78 1401.27C1205.53 1409.11 1205.38 1416.6 1204.33 1423.74C1203.36 1430.77 1201.77 1437.34 1199.56 1443.44C1197.34 1449.43 1194.59 1454.91 1191.3 1459.85C1188.1 1464.69 1184.65 1468.93 1180.94 1472.56C1177.23 1476.1 1173.4 1478.93 1169.46 1481.04C1165.51 1483.06 1161.67 1484.25 1157.94 1484.6C1154.79 1484.91 1151.86 1484.61 1149.17 1483.71C1146.48 1482.71 1144.06 1481.16 1141.93 1479.05C1139.79 1476.84 1137.97 1473.98 1136.48 1470.46C1135.07 1466.83 1134.12 1462.44 1133.62 1457.28C1133.11 1451.93 1133.24 1446.23 1134.01 1440.17C1134.78 1434.12 1136.03 1428.07 1137.76 1422.02C1139.5 1415.97 1141.79 1410.16 1144.63 1404.58C1147.47 1399 1150.7 1394.02 1154.33 1389.62C1157.95 1385.12 1161.94 1381.46 1166.3 1378.63C1170.66 1375.8 1175.32 1374.15 1180.29 1373.68C1184.59 1373.26 1188.21 1373.83 1191.16 1375.38C1194.19 1376.83 1196.61 1378.91 1198.41 1381.63C1200.3 1384.25 1201.75 1387.29 1202.76 1390.76C1203.77 1394.23 1204.44 1397.74 1204.78 1401.27ZM1154.62 1451.5C1154.72 1452.56 1155.02 1453.64 1155.51 1454.75C1156 1455.86 1156.63 1456.81 1157.38 1457.61C1158.13 1458.4 1159.01 1459.09 1160.03 1459.67C1161.14 1460.14 1162.27 1460.32 1163.41 1460.21C1167.71 1459.8 1171.39 1457.95 1174.45 1454.67C1177.52 1451.38 1179.94 1447.49 1181.72 1442.98C1183.51 1438.46 1184.74 1433.72 1185.42 1428.73C1186.2 1423.74 1186.39 1419.24 1186.01 1415.22C1185.9 1414.08 1185.68 1412.84 1185.36 1411.52C1185.14 1410.2 1184.73 1408.98 1184.15 1407.88C1183.65 1406.77 1182.89 1405.88 1181.86 1405.21C1180.92 1404.43 1179.69 1404.11 1178.16 1404.26C1175.1 1404.55 1172.35 1405.59 1169.92 1407.36C1167.49 1409.14 1165.34 1411.42 1163.49 1414.2C1161.72 1416.88 1160.23 1419.91 1159.01 1423.31C1157.78 1426.61 1156.75 1429.99 1155.93 1433.44C1155.19 1436.79 1154.73 1440.07 1154.56 1443.27C1154.38 1446.46 1154.4 1449.21 1154.62 1451.5ZM1234.85 1475.78C1237.83 1462.67 1240.65 1449.82 1243.3 1437.22C1244.43 1431.9 1245.58 1426.34 1246.76 1420.54C1247.94 1414.74 1249.13 1408.98 1250.32 1403.27C1251.51 1397.56 1252.57 1392.06 1253.51 1386.76C1254.54 1381.46 1255.42 1376.55 1256.15 1372.05C1261.4 1371.54 1266.35 1370.78 1270.97 1369.76C1275.6 1368.73 1280.61 1367.72 1286.02 1366.72C1285.93 1368.85 1285.83 1371.27 1285.7 1373.99C1285.66 1376.59 1285.54 1379.35 1285.34 1382.27C1285.23 1385.17 1285.08 1388.17 1284.9 1391.28C1284.71 1394.38 1284.52 1398.35 1284.3 1403.2C1284.09 1408.04 1283.76 1414.1 1283.3 1421.38L1285.16 1421.2C1287.24 1413.67 1288.95 1407.43 1290.31 1402.48C1291.66 1397.43 1292.76 1393.32 1293.61 1390.15C1294.47 1386.98 1295.33 1383.91 1296.2 1380.94C1297.16 1377.85 1298.04 1374.97 1298.85 1372.29C1299.74 1369.51 1300.56 1367.06 1301.33 1364.97C1303.7 1364.55 1305.92 1364.09 1307.99 1363.6C1310.07 1363.11 1312.14 1362.63 1314.22 1362.14C1316.28 1361.55 1318.36 1361.02 1320.43 1360.53C1322.59 1359.94 1324.94 1359.28 1327.47 1358.55C1327.05 1364.19 1326.69 1369.96 1326.39 1375.87C1326.08 1381.78 1325.88 1387.69 1325.77 1393.58C1325.65 1399.38 1325.53 1405.13 1325.4 1410.83C1325.36 1416.52 1325.35 1421.93 1325.36 1427.04C1325.35 1439 1325.45 1450.65 1325.67 1462.01L1301.16 1468.85C1301.11 1468.37 1301.04 1467.08 1300.93 1464.96C1300.92 1462.84 1300.86 1460.24 1300.76 1457.17C1300.76 1454.08 1300.77 1450.66 1300.79 1446.89C1300.91 1443.12 1300.98 1439.35 1301.01 1435.59C1301.13 1431.82 1301.26 1428.19 1301.41 1424.7C1301.55 1421.12 1301.74 1418.06 1301.98 1415.53L1300.69 1415.66C1299.74 1419.8 1298.66 1424.19 1297.47 1428.84C1296.26 1433.39 1295.02 1438.04 1293.74 1442.8C1292.56 1447.54 1291.36 1452.19 1290.16 1456.74C1288.96 1461.29 1287.93 1465.63 1287.07 1469.76C1283.73 1470.18 1280.88 1470.6 1278.51 1471.02C1276.13 1471.34 1273.37 1471.75 1270.24 1472.25L1269.73 1418.63L1267.58 1418.83C1267.5 1420.09 1267.23 1422.24 1266.75 1425.28C1266.26 1428.22 1265.67 1431.65 1264.99 1435.57C1264.39 1439.39 1263.71 1443.41 1262.96 1447.63C1262.2 1451.75 1261.46 1455.63 1260.75 1459.27C1260.12 1462.8 1259.58 1465.74 1259.14 1468.1C1258.68 1470.36 1258.41 1471.64 1258.35 1471.94L1234.85 1475.78ZM1343.11 1464.1L1346.94 1434.66C1346.55 1430.55 1346.03 1426.12 1345.38 1421.36C1344.81 1416.49 1344.16 1411.64 1343.4 1406.79C1342.65 1401.94 1341.91 1397.29 1341.19 1392.82C1340.47 1388.26 1339.84 1384.27 1339.32 1380.85C1338.79 1377.33 1338.33 1374.53 1337.94 1372.45C1337.55 1370.37 1337.35 1369.32 1337.35 1369.32L1359.86 1358.2L1361.54 1375.68C1361.77 1378.07 1362 1380.51 1362.24 1383C1362.48 1385.48 1362.66 1387.92 1362.8 1390.32C1363.03 1392.71 1363.24 1394.95 1363.44 1397.06C1363.65 1399.16 1363.82 1400.93 1363.95 1402.36C1364.88 1398.99 1365.98 1394.84 1367.24 1389.89C1368.6 1384.94 1369.83 1380.15 1370.93 1375.51C1372.24 1370.08 1373.57 1364.36 1374.92 1358.34L1397.62 1361.23C1394.3 1369.84 1391.07 1378.4 1387.93 1386.9C1386.64 1390.59 1385.28 1394.43 1383.83 1398.43C1382.37 1402.33 1380.92 1406.28 1379.47 1410.28C1378.01 1414.18 1376.59 1417.98 1375.21 1421.68C1373.83 1425.38 1372.57 1428.83 1371.43 1432.02C1371.19 1434.55 1370.83 1437.34 1370.35 1440.37C1369.96 1443.4 1369.56 1446.28 1369.15 1449.02C1368.59 1452.26 1367.99 1455.5 1367.33 1458.74L1343.11 1464.1ZM1423.47 1458.71C1425.1 1445.54 1426.62 1432.66 1428.02 1420.09C1428.57 1414.83 1429.15 1409.27 1429.75 1403.43C1430.34 1397.59 1430.9 1391.84 1431.42 1386.2C1431.94 1380.56 1432.43 1375.11 1432.89 1369.86C1433.35 1364.61 1433.71 1359.8 1433.97 1355.43C1436.66 1354.31 1439.31 1353.33 1441.93 1352.5C1444.54 1351.57 1447.21 1350.74 1449.94 1350C1452.76 1349.24 1455.41 1348.75 1457.9 1348.51C1462.2 1348.1 1465.85 1348.47 1468.85 1349.63C1471.95 1350.78 1474.53 1352.51 1476.58 1354.82C1478.63 1357.03 1480.19 1359.73 1481.27 1362.91C1482.34 1366.08 1483.06 1369.53 1483.42 1373.26C1483.93 1378.61 1483.42 1383.87 1481.89 1389.03C1480.45 1394.18 1478.25 1398.88 1475.28 1403.12C1472.4 1407.25 1468.92 1410.67 1464.84 1413.37C1460.85 1416.07 1456.57 1417.64 1451.98 1418.08L1450.4 1418.23C1449.95 1421.55 1449.57 1425.16 1449.27 1429.04C1448.97 1432.93 1448.73 1436.52 1448.57 1439.82C1448.27 1443.7 1448.01 1447.59 1447.8 1451.46L1423.47 1458.71ZM1454.97 1366.29C1454.53 1372.7 1454.05 1378.77 1453.54 1384.51C1453.03 1390.25 1452.46 1396.38 1451.83 1402.9C1453.32 1402.38 1454.81 1401.36 1456.31 1399.87C1457.89 1398.27 1459.3 1396.31 1460.52 1393.97C1461.73 1391.54 1462.63 1388.8 1463.2 1385.76C1463.78 1382.71 1463.91 1379.57 1463.6 1376.32C1463.26 1372.78 1462.19 1370.18 1460.39 1368.52C1458.69 1366.85 1456.88 1366.11 1454.97 1366.29ZM1555.34 1367.67C1556.09 1375.5 1555.94 1382.99 1554.89 1390.13C1553.93 1397.17 1552.34 1403.73 1550.12 1409.83C1547.9 1415.83 1545.15 1421.3 1541.86 1426.24C1538.66 1431.08 1535.21 1435.32 1531.51 1438.95C1527.8 1442.49 1523.97 1445.32 1520.02 1447.43C1516.07 1449.45 1512.23 1450.64 1508.5 1451C1505.35 1451.3 1502.43 1451 1499.74 1450.1C1497.04 1449.11 1494.62 1447.55 1492.49 1445.44C1490.35 1443.24 1488.53 1440.37 1487.04 1436.85C1485.63 1433.23 1484.68 1428.83 1484.18 1423.67C1483.67 1418.32 1483.8 1412.62 1484.57 1406.57C1485.34 1400.51 1486.59 1394.46 1488.33 1388.41C1490.06 1382.36 1492.35 1376.55 1495.19 1370.97C1498.03 1365.4 1501.27 1360.41 1504.89 1356.01C1508.51 1351.52 1512.5 1347.86 1516.86 1345.03C1521.22 1342.2 1525.88 1340.55 1530.85 1340.07C1535.15 1339.66 1538.77 1340.23 1541.72 1341.78C1544.75 1343.22 1547.17 1345.3 1548.97 1348.02C1550.86 1350.64 1552.31 1353.68 1553.32 1357.15C1554.33 1360.63 1555 1364.13 1555.34 1367.67ZM1505.18 1417.9C1505.29 1418.95 1505.58 1420.03 1506.07 1421.14C1506.57 1422.25 1507.19 1423.2 1507.94 1424C1508.69 1424.79 1509.58 1425.48 1510.6 1426.06C1511.7 1426.53 1512.83 1426.71 1513.98 1426.6C1518.28 1426.19 1521.96 1424.34 1525.02 1421.06C1528.08 1417.78 1530.5 1413.88 1532.29 1409.37C1534.07 1404.86 1535.31 1400.11 1535.98 1395.13C1536.76 1390.13 1536.95 1385.63 1536.57 1381.62C1536.46 1380.47 1536.25 1379.24 1535.93 1377.92C1535.7 1376.59 1535.3 1375.37 1534.71 1374.27C1534.22 1373.16 1533.46 1372.27 1532.43 1371.6C1531.48 1370.82 1530.25 1370.51 1528.72 1370.65C1525.66 1370.95 1522.92 1371.98 1520.48 1373.76C1518.05 1375.53 1515.9 1377.81 1514.05 1380.59C1512.28 1383.27 1510.79 1386.31 1509.57 1389.7C1508.34 1393 1507.32 1396.38 1506.49 1399.83C1505.75 1403.18 1505.29 1406.46 1505.12 1409.66C1504.94 1412.86 1504.97 1415.6 1505.18 1417.9ZM1558.08 1445.81C1559.44 1432.85 1560.74 1420.19 1561.96 1407.83C1562.33 1402.58 1562.77 1397.14 1563.29 1391.5C1563.8 1385.76 1564.23 1380.12 1564.56 1374.59C1564.99 1368.96 1565.34 1363.57 1565.62 1358.44C1565.98 1353.19 1566.2 1348.45 1566.28 1344.2C1571.56 1341.95 1577.32 1340.15 1583.55 1338.78C1589.78 1337.31 1595.99 1336.28 1602.21 1335.69C1605.93 1335.33 1609.03 1335.47 1611.5 1336.1C1614.07 1336.72 1616.1 1337.78 1617.59 1339.28C1619.17 1340.67 1620.35 1342.39 1621.13 1344.43C1621.9 1346.48 1622.41 1348.8 1622.66 1351.38C1623.03 1355.2 1622.72 1359.04 1621.74 1362.89C1620.75 1366.65 1619.27 1370.31 1617.3 1373.88C1615.41 1377.34 1613.12 1380.6 1610.42 1383.65C1607.81 1386.6 1604.92 1389.1 1601.74 1391.14C1603.82 1394.8 1606.04 1398.83 1608.39 1403.23C1610.83 1407.53 1613.11 1411.65 1615.22 1415.59C1617.59 1420.19 1620.01 1424.78 1622.47 1429.37L1600.99 1439.24C1598.5 1433.3 1596.23 1427.73 1594.18 1422.53C1593.31 1420.4 1592.42 1418.21 1591.53 1415.98C1590.63 1413.66 1589.8 1411.47 1589.02 1409.43C1588.25 1407.38 1587.59 1405.56 1587.05 1403.97C1586.51 1402.29 1586.13 1400.93 1585.94 1399.89L1584.13 1400.64C1583.85 1403.75 1583.48 1407.4 1583.01 1411.59C1582.64 1415.78 1582.3 1419.81 1582 1423.7C1581.57 1428.27 1581.15 1432.89 1580.73 1437.56L1558.08 1445.81ZM1585.8 1380.37C1587.6 1380 1589.73 1379.03 1592.18 1377.44C1594.72 1375.85 1597.11 1374.03 1599.32 1371.98C1601.53 1369.84 1603.39 1367.69 1604.92 1365.52C1606.45 1363.35 1607.14 1361.49 1606.99 1359.97C1606.89 1358.91 1606.48 1358.13 1605.76 1357.63C1605.02 1357.02 1604.02 1356.63 1602.75 1356.47C1601.57 1356.19 1600.26 1356.08 1598.81 1356.12C1597.37 1356.16 1595.88 1356.26 1594.36 1356.4C1593.3 1356.5 1592.21 1356.66 1591.07 1356.86C1590.02 1356.96 1589.07 1357.06 1588.21 1357.14L1585.8 1380.37ZM1638.4 1438.11C1639.59 1427.39 1640.7 1416.82 1641.73 1406.4C1642.17 1402.02 1642.6 1397.44 1643.02 1392.68C1643.43 1387.91 1643.8 1383.25 1644.13 1378.68C1644.55 1374.01 1644.85 1369.55 1645.02 1365.29C1645.28 1360.92 1645.47 1356.95 1645.61 1353.37C1643.39 1353.29 1641.13 1353.41 1638.85 1353.73C1636.66 1354.04 1634.43 1353.96 1632.17 1353.5C1632.12 1351.96 1632 1350.19 1631.81 1348.18C1631.61 1346.18 1631.47 1344.17 1631.37 1342.15C1631.26 1339.94 1631.13 1337.59 1630.99 1335.1C1633.49 1335.05 1635.99 1334.96 1638.48 1334.81C1640.97 1334.67 1643.46 1334.48 1645.95 1334.24C1650.82 1333.78 1655.5 1333.23 1659.97 1332.61C1664.53 1331.88 1668.71 1331.19 1672.5 1330.54C1676.38 1329.78 1680.16 1328.99 1683.84 1328.15L1683.01 1336.04C1682.74 1338.29 1682.48 1340.58 1682.22 1342.92C1682.06 1345.25 1681.86 1347.24 1681.64 1348.9C1679.59 1349.68 1677.48 1350.32 1675.31 1350.81C1673.23 1351.21 1671.15 1351.69 1669.09 1352.28C1668.73 1355.59 1668.36 1359.29 1667.98 1363.38C1667.59 1367.37 1667.22 1371.55 1666.87 1375.92C1666.6 1380.19 1666.35 1384.56 1666.1 1389.02C1665.85 1393.48 1665.59 1397.75 1665.3 1401.82C1664.68 1411.43 1664.19 1421.36 1663.82 1431.62L1638.4 1438.11ZM1699.02 1428.68C1696.39 1429.42 1693.53 1430.27 1690.44 1431.24C1687.35 1432.21 1684.64 1433.1 1682.31 1433.9C1683.06 1429.68 1683.72 1424.99 1684.29 1419.82C1684.94 1414.55 1685.52 1409.05 1686.03 1403.31C1686.64 1397.56 1687.14 1391.77 1687.55 1385.95C1688.04 1380.02 1688.51 1374.33 1688.95 1368.89C1689.74 1355.99 1690.49 1342.66 1691.19 1328.89L1738.98 1321.85L1736.51 1339.88L1714.01 1342.04L1712.01 1367.98C1714.96 1367.6 1717.78 1367.28 1720.45 1367.03C1722.65 1366.82 1724.9 1366.6 1727.19 1366.38C1729.48 1366.16 1731.25 1365.94 1732.48 1365.73C1732.45 1368.43 1732.32 1371.1 1732.09 1373.72C1731.95 1376.34 1731.82 1378.96 1731.68 1381.57C1730.44 1381.69 1728.67 1381.86 1726.38 1382.08C1724.08 1382.21 1721.68 1382.34 1719.19 1382.48C1716.79 1382.62 1714.06 1382.78 1710.99 1382.98L1708.45 1425.9C1705.25 1426.78 1702.11 1427.71 1699.02 1428.68ZM1807.71 1343.47C1808.46 1351.31 1808.31 1358.8 1807.26 1365.94C1806.3 1372.97 1804.71 1379.54 1802.5 1385.63C1800.28 1391.63 1797.52 1397.11 1794.23 1402.05C1791.03 1406.89 1787.58 1411.13 1783.88 1414.76C1780.17 1418.3 1776.34 1421.12 1772.4 1423.24C1768.44 1425.26 1764.6 1426.44 1760.88 1426.8C1757.72 1427.1 1754.8 1426.81 1752.11 1425.91C1749.41 1424.91 1747 1423.36 1744.86 1421.25C1742.72 1419.04 1740.91 1416.18 1739.41 1412.66C1738 1409.03 1737.05 1404.64 1736.56 1399.48C1736.04 1394.13 1736.17 1388.42 1736.94 1382.37C1737.71 1376.32 1738.96 1370.27 1740.7 1364.22C1742.43 1358.17 1744.72 1352.36 1747.56 1346.78C1750.4 1341.2 1753.64 1336.22 1757.27 1331.82C1760.89 1327.32 1764.88 1323.66 1769.23 1320.83C1773.59 1318 1778.25 1316.35 1783.22 1315.88C1787.52 1315.46 1791.15 1316.03 1794.09 1317.58C1797.12 1319.03 1799.54 1321.11 1801.35 1323.83C1803.24 1326.45 1804.69 1329.49 1805.69 1332.96C1806.7 1336.43 1807.37 1339.94 1807.71 1343.47ZM1757.56 1393.7C1757.66 1394.75 1757.96 1395.84 1758.45 1396.95C1758.94 1398.06 1759.56 1399.01 1760.31 1399.8C1761.06 1400.6 1761.95 1401.29 1762.97 1401.86C1764.08 1402.34 1765.2 1402.52 1766.35 1402.41C1770.65 1402 1774.33 1400.15 1777.39 1396.87C1780.45 1393.58 1782.87 1389.69 1784.66 1385.17C1786.45 1380.66 1787.68 1375.92 1788.36 1370.93C1789.13 1365.94 1789.33 1361.44 1788.94 1357.42C1788.83 1356.28 1788.62 1355.04 1788.3 1353.72C1788.08 1352.39 1787.67 1351.18 1787.08 1350.08C1786.59 1348.97 1785.83 1348.08 1784.8 1347.4C1783.86 1346.63 1782.62 1346.31 1781.09 1346.46C1778.03 1346.75 1775.29 1347.79 1772.86 1349.56C1770.42 1351.34 1768.28 1353.62 1766.42 1356.4C1764.65 1359.08 1763.16 1362.11 1761.94 1365.51C1760.72 1368.81 1759.69 1372.19 1758.86 1375.64C1758.12 1378.99 1757.67 1382.27 1757.49 1385.46C1757.32 1388.66 1757.34 1391.41 1757.56 1393.7ZM1848.99 1413.15C1846.03 1413.43 1842.88 1413.83 1839.56 1414.34C1836.33 1414.84 1833.06 1415.45 1829.75 1416.15C1826.44 1416.85 1823.19 1417.69 1820.01 1418.67C1816.91 1419.55 1814.11 1420.54 1811.62 1421.65C1811.78 1417.29 1811.99 1412.45 1812.25 1407.12C1812.51 1401.79 1812.85 1396.26 1813.26 1390.53C1813.77 1384.79 1814.23 1379.01 1814.64 1373.19C1815.14 1367.35 1815.66 1361.76 1816.21 1356.4C1817.4 1343.65 1818.71 1330.65 1820.14 1317.4L1844.91 1311.7C1843.39 1323.03 1841.94 1334.07 1840.56 1344.81C1839.94 1349.4 1839.34 1354.18 1838.75 1359.16C1838.16 1364.04 1837.6 1368.82 1837.09 1373.49C1836.57 1378.17 1836.14 1382.7 1835.79 1387.07C1835.43 1391.45 1835.18 1395.33 1835.02 1398.72C1837.39 1398.3 1839.92 1397.96 1842.59 1397.7C1845.35 1397.34 1847.79 1397.06 1849.89 1396.86C1850.16 1398.67 1850.48 1400.47 1850.84 1402.26C1851.2 1403.97 1851.54 1405.53 1851.87 1406.94C1852.29 1408.35 1852.61 1409.62 1852.81 1410.76C1853.1 1411.79 1853.32 1412.49 1853.45 1412.86C1852.68 1412.94 1851.92 1413.01 1851.15 1413.08C1850.48 1413.05 1849.75 1413.07 1848.99 1413.15ZM1881.52 1411.76C1880.66 1411.85 1878.95 1412.16 1876.4 1412.69C1873.93 1413.12 1871.38 1413.65 1868.74 1414.29C1866.09 1414.83 1863.68 1415.36 1861.51 1415.85C1859.44 1416.34 1858.31 1416.64 1858.13 1416.76C1858.69 1412.56 1859.21 1407.92 1859.69 1402.86C1860.25 1397.7 1860.8 1392.34 1861.33 1386.79C1861.85 1381.15 1862.32 1375.46 1862.73 1369.73C1863.15 1364 1863.53 1358.47 1863.89 1353.13C1864.72 1340.71 1865.52 1327.95 1866.29 1314.86L1888.31 1309.13C1887.34 1322.14 1886.4 1334.92 1885.48 1347.45C1885.12 1352.78 1884.73 1358.32 1884.32 1364.05C1884 1369.77 1883.63 1375.45 1883.2 1381.08C1882.87 1386.7 1882.58 1392.18 1882.32 1397.51C1882.05 1402.74 1881.78 1407.5 1881.52 1411.76ZM1963.54 1328.53C1964.29 1336.37 1964.14 1343.86 1963.09 1351C1962.12 1358.04 1960.53 1364.6 1958.32 1370.7C1956.1 1376.7 1953.34 1382.17 1950.06 1387.11C1946.86 1391.95 1943.41 1396.19 1939.7 1399.82C1935.99 1403.36 1932.16 1406.19 1928.22 1408.3C1924.27 1410.32 1920.43 1411.51 1916.7 1411.86C1913.55 1412.17 1910.62 1411.87 1907.93 1410.97C1905.23 1409.97 1902.82 1408.42 1900.69 1406.31C1898.55 1404.1 1896.73 1401.24 1895.24 1397.72C1893.83 1394.09 1892.88 1389.7 1892.38 1384.54C1891.87 1379.19 1892 1373.49 1892.77 1367.43C1893.54 1361.38 1894.79 1355.33 1896.52 1349.28C1898.26 1343.23 1900.55 1337.42 1903.39 1331.84C1906.23 1326.26 1909.46 1321.28 1913.09 1316.88C1916.71 1312.38 1920.7 1308.72 1925.06 1305.89C1929.42 1303.07 1934.08 1301.41 1939.05 1300.94C1943.35 1300.52 1946.97 1301.09 1949.92 1302.64C1952.95 1304.09 1955.37 1306.17 1957.17 1308.89C1959.06 1311.51 1960.51 1314.55 1961.52 1318.02C1962.52 1321.49 1963.2 1325 1963.54 1328.53ZM1913.38 1378.77C1913.48 1379.82 1913.78 1380.9 1914.27 1382.01C1914.76 1383.12 1915.39 1384.07 1916.14 1384.87C1916.89 1385.66 1917.77 1386.35 1918.79 1386.93C1919.9 1387.4 1921.03 1387.58 1922.17 1387.47C1926.47 1387.06 1930.15 1385.21 1933.21 1381.93C1936.27 1378.64 1938.7 1374.75 1940.48 1370.24C1942.27 1365.73 1943.5 1360.98 1944.18 1355.99C1944.96 1351 1945.15 1346.5 1944.77 1342.48C1944.66 1341.34 1944.44 1340.1 1944.12 1338.79C1943.9 1337.46 1943.49 1336.24 1942.91 1335.14C1942.41 1334.03 1941.65 1333.14 1940.62 1332.47C1939.68 1331.69 1938.45 1331.37 1936.92 1331.52C1933.86 1331.81 1931.11 1332.85 1928.68 1334.62C1926.25 1336.4 1924.1 1338.68 1922.25 1341.46C1920.48 1344.14 1918.98 1347.17 1917.77 1350.57C1916.54 1353.87 1915.51 1357.25 1914.69 1360.7C1913.95 1364.05 1913.49 1367.33 1913.32 1370.53C1913.14 1373.73 1913.16 1376.47 1913.38 1378.77Z" fill="#F8E967"/>
</g>
<defs>
<filter id="filter0_d" x="109.408" y="981.223" width="2305.73" height="446.782" filterUnits="userSpaceOnUse" color-interpolation-filters="sRGB">
<feFlood flood-opacity="0" result="BackgroundImageFix"/>
<feColorMatrix in="SourceAlpha" type="matrix" values="0 0 0 0 0 0 0 0 0 0 0 0 0 0 0 0 0 0 127 0" result="hardAlpha"/>
<feOffset dx="10" dy="10"/>
<feComposite in2="hardAlpha" operator="out"/>
<feColorMatrix type="matrix" values="0 0 0 0 0 0 0 0 0 0 0 0 0 0 0 0 0 0 1 0"/>
<feBlend mode="normal" in2="BackgroundImageFix" result="effect1_dropShadow"/>
<feBlend mode="normal" in="SourceGraphic" in2="effect1_dropShadow" result="shape"/>
</filter>
<filter id="filter1_d" x="573.393" y="1300.81" width="1400.61" height="249.834" filterUnits="userSpaceOnUse" color-interpolation-filters="sRGB">
<feFlood flood-opacity="0" result="BackgroundImageFix"/>
<feColorMatrix in="SourceAlpha" type="matrix" values="0 0 0 0 0 0 0 0 0 0 0 0 0 0 0 0 0 0 127 0" result="hardAlpha"/>
<feOffset dx="10" dy="10"/>
<feComposite in2="hardAlpha" operator="out"/>
<feColorMatrix type="matrix" values="0 0 0 0 0 0 0 0 0 0 0 0 0 0 0 0 0 0 1 0"/>
<feBlend mode="normal" in2="BackgroundImageFix" result="effect1_dropShadow"/>
<feBlend mode="normal" in="SourceGraphic" in2="effect1_dropShadow" result="shape"/>
</filter>
</defs>
</svg>
