<svg width="2492" height="2463" viewBox="0 0 2492 2463" fill="none" xmlns="http://www.w3.org/2000/svg">
<path d="M1283.67 1.9917C1283.33 2.8855 1256.18 122.656 1223.34 268.125C1190.49 413.704 1163.45 532.693 1163.11 532.693C1162.78 532.693 1117.64 449.234 1062.67 347.227C1007.7 245.221 962.677 161.873 962.454 161.984C962.23 162.208 997.089 540.961 999.324 562.301L999.882 567.887L996.754 561.742C995.078 558.391 964.8 491.354 929.606 412.922C894.3 334.378 865.363 270.359 865.14 270.583C865.028 270.694 873.854 338.959 884.915 422.084C895.976 505.32 904.803 573.585 904.579 573.697C904.356 573.92 833.745 536.157 747.603 489.79C661.574 443.424 591.074 405.66 591.074 405.66C591.074 405.772 624.481 481.746 665.261 574.591C705.929 667.324 739.224 743.41 739.112 743.633C739 743.745 686.936 722.964 623.475 697.49C560.126 671.905 508.061 651.124 507.838 651.347C507.726 651.57 539.68 698.161 578.896 754.918C618.112 811.787 650.066 858.377 649.954 858.488C649.731 858.823 232.432 855.248 134.112 854.131C96.3487 853.684 88.4161 853.796 91.6562 854.913C93.779 855.695 200.031 887.426 327.735 925.524C455.326 963.511 559.791 994.907 559.791 995.242C559.791 995.689 505.715 1015.69 439.685 1039.93C373.654 1064.18 319.579 1084.29 319.579 1084.62C319.579 1084.96 368.515 1101.27 428.289 1120.82C487.951 1140.49 537.446 1156.8 538.116 1157.13C538.898 1157.47 452.086 1213.56 345.276 1281.82C238.465 1349.97 151.207 1405.95 151.318 1406.17C151.542 1406.28 237.795 1392.88 343.041 1376.23C448.288 1359.58 534.429 1346.06 534.652 1346.29C534.876 1346.51 376.783 1483.49 362.929 1495C361.7 1496.11 360.806 1497.12 361.029 1497.34C361.253 1497.56 404.491 1502.48 457.002 1508.18C509.514 1513.88 552.864 1518.79 553.311 1519.13C553.758 1519.57 504.151 1605.05 443.148 1709.18C382.034 1813.3 332.204 1898.78 332.427 1899C332.651 1899.11 405.832 1853.75 494.989 1798C584.147 1742.25 657.217 1696.89 657.44 1697C657.552 1697.22 644.48 1747.72 628.279 1809.17C612.191 1870.62 599.007 1921.57 599.23 1922.24C599.342 1923.02 636.435 1891.74 681.573 1852.74C726.711 1813.75 763.916 1781.91 764.362 1781.8C764.698 1781.8 753.86 1881.9 740.229 2004.25C726.599 2126.59 715.985 2225.91 716.655 2225.02C717.326 2224.12 756.653 2152.17 803.914 2065.25C851.286 1978.32 890.055 1907.27 890.278 1907.49C890.39 1907.6 893.965 1952.07 898.211 2006.26C902.457 2060.56 906.144 2105.13 906.479 2105.36C906.702 2105.58 942.678 2062.9 986.475 2010.61C1030.27 1958.21 1066.47 1915.2 1066.81 1915.09C1067.25 1914.86 1074.07 1980.78 1081.89 2061.45C1089.82 2142 1096.53 2208.82 1096.86 2209.71C1097.2 2210.6 1119.99 2144.02 1147.58 2061.67C1175.18 1979.33 1198.09 1911.18 1198.42 1910.28C1198.98 1908.94 1239.65 2274.4 1240.21 2285.68C1240.32 2287.25 1240.54 2287.92 1240.88 2287.36C1241.1 2286.69 1252.61 2196.53 1266.46 2086.92C1280.2 1977.32 1291.71 1887.49 1291.94 1887.27C1292.05 1887.16 1338.41 1963.91 1394.95 2057.87C1451.48 2151.95 1497.85 2228.37 1498.07 2227.81C1498.18 2227.25 1487.01 2158.76 1473.16 2075.64C1459.3 1992.51 1448.13 1924.03 1448.24 1923.47C1448.46 1923.02 1551.81 2044.02 1678.06 2192.39C1804.2 2340.77 1907.66 2462.21 1907.88 2462.21C1908.22 2462.21 1907.88 2461.32 1907.33 2460.09C1905.99 2457.63 1699.85 2007.49 1697.5 2001.9C1696.61 1999.78 1696.39 1998.44 1696.94 1999.11C1697.62 1999.66 1727 2046.14 1762.42 2102.34C1797.83 2158.54 1826.77 2203.9 1826.77 2203.12C1826.77 2202.45 1816.94 2123.12 1804.87 2026.93C1792.92 1930.73 1783.2 1851.85 1783.42 1851.63C1783.64 1851.29 1868.56 1874.98 1972.02 1904.14C2075.59 1933.3 2160.61 1957.1 2161.06 1956.87C2161.73 1956.65 1900.51 1715.21 1887.44 1703.92C1885.09 1702.02 1883.53 1700.13 1883.75 1699.9C1884.09 1699.57 1957.94 1688.73 2047.99 1675.77C2138.04 1662.81 2212.34 1652.08 2213.12 1651.86C2213.9 1651.75 2160.95 1619.46 2095.47 1580.24C2022.85 1536.67 1976.93 1508.51 1977.83 1508.07C1978.61 1507.62 2061.29 1494.32 2161.39 1478.46C2261.61 1462.59 2343.84 1449.3 2344.4 1448.85C2344.85 1448.41 2263.51 1427.62 2163.74 1402.49C2063.86 1377.35 1982.29 1356.57 1982.63 1356.34C1982.85 1356.12 2061.29 1340.37 2157.04 1321.37C2252.67 1302.38 2331.11 1286.74 2331.33 1286.51C2331.55 1286.4 2272.56 1272.88 2200.27 1256.68C2099.5 1234 2069.55 1226.96 2072.12 1226.29C2073.91 1225.85 2138.71 1217.91 2216.14 1208.64C2293.56 1199.37 2358.7 1191.55 2360.82 1191.21C2363.95 1190.65 2326.08 1180.82 2180.94 1144.4L1997.15 1098.37L2002.74 1094.79C2005.87 1092.89 2082.63 1044.18 2173.35 986.527C2264.18 928.988 2338.14 881.727 2337.59 881.616C2337.14 881.392 2252.34 896.029 2149.1 914.128C2045.87 932.116 1961.29 946.864 1961.18 946.752C1961.07 946.641 2021.18 899.604 2094.8 842.176C2168.43 784.749 2228.54 737.6 2228.43 737.377C2228.32 737.265 2154.47 746.985 2064.19 758.94C1974.03 771.006 1899.84 780.726 1899.28 780.503C1898.72 780.28 1984.31 672.687 2089.33 541.296C2194.46 410.017 2280.16 302.536 2279.93 302.536C2279.71 302.536 2160.28 390.019 2014.36 496.829C1868.56 603.752 1749.01 691.01 1748.67 690.787C1748.45 690.563 1780.07 603.975 1818.95 498.617C1857.72 393.147 1889.34 306.67 1889.11 306.559C1889 306.335 1810.35 378.064 1714.49 465.881L1540.19 625.538L1539.41 621.851C1538.96 619.84 1531.48 537.498 1522.87 438.843C1514.16 340.188 1506.67 258.628 1506.23 257.51C1505.67 255.946 1487.79 293.487 1443.55 388.454C1409.47 461.635 1381.32 521.074 1380.87 520.627C1380.53 520.18 1358.97 404.655 1333.05 263.991C1278.31 -32.085 1284.45 -0.131104 1283.67 1.9917ZM1087.92 615.371C1123 618.5 1155.29 629.449 1183.56 647.66C1189.37 651.459 1194.4 654.475 1194.85 654.475C1195.18 654.475 1198.64 652.017 1202.55 649.113C1250.71 611.684 1317.86 610.008 1369.81 644.755C1385.9 655.593 1404.56 676.262 1414.05 694.027L1417.63 700.619L1433.05 700.842C1468.8 701.401 1499.41 713.02 1526.11 736.036L1533.94 742.851L1547.12 740.84C1565.33 738.159 1604.44 738.159 1622.31 740.84C1673.37 748.661 1719.96 768.884 1758.28 799.832C1769.79 809.105 1789.68 829.216 1799.17 841.059C1827.78 876.7 1848.78 923.178 1856.27 967.869C1861.85 1000.94 1860.96 1040.71 1854.03 1071.1L1852.47 1078.25L1862.3 1088.42C1886.21 1113.34 1899.51 1144.29 1901.18 1179.59C1902.97 1214.9 1891.24 1250.09 1868.78 1277.24C1864.65 1282.27 1864.42 1282.83 1865.99 1285.17C1885.2 1316.01 1892.13 1338.35 1891.91 1369.53C1891.68 1422.6 1861.52 1471.64 1814.82 1495L1805.54 1499.58V1505.83C1805.43 1520.25 1801.63 1547.17 1796.94 1565.05C1779.62 1632.42 1739.74 1688.28 1681.19 1727.39C1655.61 1744.48 1616.95 1760.46 1586.56 1766.6C1564.33 1771.07 1552.82 1772.19 1529.58 1772.19C1496.62 1772.08 1471.26 1767.83 1440.09 1757.22L1423.66 1751.63L1407.68 1767.61C1371.93 1803.14 1333.61 1820.45 1283.22 1823.81C1244.79 1826.26 1198.76 1812.75 1165.8 1789.28C1153.84 1780.79 1136.75 1764.59 1128.48 1754.09L1122.45 1746.27L1116.97 1750.85C1097.08 1768.06 1074.29 1779.34 1048.82 1784.81C1035.97 1787.61 1007.48 1787.61 994.408 1784.81C964.912 1778.45 941.784 1766.16 921.227 1745.49C901.674 1726.05 888.379 1702.14 882.681 1676.44L881.229 1670.07H874.972C871.508 1670.07 862.012 1669.07 853.855 1667.84C770.507 1655.66 698.891 1603.71 660.904 1528.18C649.172 1504.83 640.346 1477.01 636.1 1449.97C633.419 1432.2 633.419 1394.11 636.1 1376.34C643.139 1331.43 659.451 1292.55 686.266 1256.79L694.086 1246.4L688.5 1240.59C670.289 1221.94 656.546 1193.67 651.854 1165.62C649.731 1152.22 650.289 1127.75 653.083 1114.79C664.255 1063.84 699.449 1024.63 749.056 1008.09C755.536 1005.86 765.033 1003.62 770.06 1002.95C775.2 1002.28 781.01 1001.5 783.021 1001.28L786.596 1000.72L781.68 993.789C748.05 946.305 754.084 881.392 795.869 841.394C813.746 824.3 834.638 813.798 858.883 809.776L866.927 808.435L867.598 801.061C868.827 788.324 873.631 766.202 877.765 753.912C905.361 672.24 982.006 616.377 1069.26 614.366C1072.62 614.366 1081 614.812 1087.92 615.371Z" fill="#444444"/>
<path d="M781.233 1225.96C775.758 1243.72 775.2 1265.28 779.78 1282.94C782.35 1292.77 789.054 1307.4 794.528 1315.67C799.78 1323.27 811.846 1335.56 819.667 1341.15C828.828 1347.63 843.353 1354.44 854.19 1357.23C872.402 1361.93 895.641 1361.15 912.847 1355.22L918.992 1353.1L910.054 1352.32C874.972 1349.53 848.157 1337.91 824.806 1315.45C812.069 1303.27 805.589 1294.33 797.768 1278.47C789.724 1262.16 785.59 1247.3 784.473 1230.43L783.691 1218.14L781.233 1225.96Z" fill="#444444"/>
<path d="M1022.9 1290.76C1018.99 1339.47 1036.75 1389.19 1070.72 1425.06C1093.51 1449.08 1125.91 1467.73 1156.75 1474.66C1163.11 1476 1163.34 1476.23 1166.47 1482.37C1180.99 1511.08 1208.81 1538.01 1238.08 1551.53C1254.17 1558.9 1276.96 1565.05 1288.7 1565.05H1293.39L1295.96 1573.09C1310.59 1618.68 1342.55 1663.93 1380.2 1692.31C1383.66 1694.99 1386.57 1697.56 1386.57 1698C1386.57 1698.45 1382.66 1702.58 1377.74 1707.17C1357.52 1726.61 1333.83 1739.45 1304.67 1746.72C1289.03 1750.74 1261.43 1751.63 1244.45 1748.95C1231.04 1746.72 1210.37 1740.12 1199.2 1734.54C1163.45 1716.55 1133.06 1682.14 1120.55 1645.6C1117.75 1637.56 1117.87 1636.55 1121.33 1636.55C1126.24 1636.55 1146.47 1632.08 1155.29 1629.07C1165.57 1625.49 1181.55 1617.67 1190.49 1611.64C1199.2 1605.72 1214.96 1592.53 1217.19 1589.18C1218.75 1586.61 1218.42 1586.72 1209.03 1590.75C1194.06 1597.23 1175.96 1602.59 1160.1 1605.27C1141.22 1608.51 1109.82 1608.06 1091.61 1604.26C1033.29 1592.09 984.017 1555.22 956.532 1503.26C952.621 1495.67 951.951 1495 951.951 1497.9C951.951 1499.69 952.957 1506.62 954.186 1513.1C960.442 1545.05 975.19 1571.75 999.77 1595.44L1010.94 1606.16L999.658 1608.51C977.313 1613.09 971.727 1613.65 945.247 1613.65C916.757 1613.65 906.702 1612.53 881.787 1606.39C862.57 1601.7 847.375 1596.11 828.493 1586.84C775.088 1560.8 732.967 1518.68 706.599 1465.05C688.053 1427.29 679.45 1390.87 679.226 1348.86C679.114 1330.65 679.003 1329.08 677.55 1332.32C674.087 1340.25 668.277 1362.04 665.819 1375.67C662.579 1394.55 662.244 1427.4 665.149 1446.17C679.45 1538.01 746.597 1612.42 834.861 1634.21C855.643 1639.35 866.815 1640.8 888.267 1640.91C898.993 1641.02 907.819 1641.25 907.931 1641.36C908.042 1641.47 908.378 1645.83 908.713 1651.08C910.724 1680.13 921.785 1704.93 941.784 1724.93C957.984 1741.02 977.201 1751.3 1000.55 1756.21C1011.5 1758.56 1035.63 1758 1047.25 1755.21C1075.86 1748.17 1100.21 1731.07 1115.97 1707.28C1119.54 1701.8 1123.12 1695.77 1123.9 1693.76L1125.35 1690.18L1130.15 1700.8C1157.97 1762.47 1219.2 1799 1286.57 1793.98C1335.4 1790.4 1379.64 1764.48 1406.46 1723.7C1409.92 1718.45 1412.71 1714.09 1412.71 1713.98C1412.82 1713.87 1416.85 1715.77 1421.76 1718.23C1455.73 1734.87 1490.25 1742.69 1529.8 1742.69C1569.46 1742.69 1600.52 1735.88 1634.27 1719.79C1687 1694.54 1724.65 1657.89 1750.35 1606.83C1773.7 1560.36 1781.86 1504.27 1772.58 1454.33C1770.68 1444.38 1764.09 1418.35 1763.65 1418.91C1763.42 1419.13 1764.09 1424.72 1764.99 1431.54C1767.33 1448.74 1767.33 1479.47 1764.87 1496.34C1749.01 1604.6 1669.24 1686.61 1560.86 1706.05C1549.02 1708.17 1542.99 1708.62 1521.2 1708.62C1492.26 1708.62 1477.96 1706.72 1453.27 1699.57C1395.28 1682.92 1344 1644.15 1312.38 1593.09C1307.13 1584.6 1298.3 1568.18 1298.3 1566.95C1298.3 1566.72 1303.78 1566.17 1310.59 1565.72C1340.42 1563.93 1365.56 1555.55 1389.47 1539.46C1407.01 1527.73 1424.67 1509.3 1434.16 1492.99L1437.4 1487.4L1430.48 1492.76C1404.33 1512.87 1372.71 1525.94 1338.08 1531.08C1321.43 1533.54 1292.72 1532.76 1275.51 1529.3C1242.22 1522.7 1206.58 1505.39 1184.45 1485.05L1177.42 1478.46L1196.07 1478.8C1225.68 1479.35 1250.15 1473.99 1275.73 1461.48C1285.9 1456.45 1303.44 1445.72 1302.66 1444.94C1302.44 1444.72 1298.19 1445.5 1293.28 1446.73C1217.97 1464.72 1138.98 1442.37 1083.79 1387.4C1055.86 1359.58 1036.53 1325.51 1024.91 1283.5C1023.9 1280.03 1023.68 1280.82 1022.9 1290.76ZM1037.31 1621.69C1056.86 1631.53 1075.97 1636.22 1100.66 1637.34L1115.85 1638.01L1117.31 1651.41C1117.98 1658.79 1119.88 1669.74 1121.44 1675.55C1122.89 1681.47 1124.23 1687.05 1124.35 1687.95C1124.46 1688.73 1120.43 1692.75 1115.52 1696.89C1050.38 1749.29 955.973 1728.06 919.439 1652.75C916.534 1646.61 914.411 1641.36 914.858 1640.91C915.305 1640.58 921.45 1639.35 928.488 1638.34C952.621 1634.54 982.117 1624.26 1003.23 1612.2L1012.62 1606.83L1019.99 1611.75C1024.01 1614.43 1031.84 1618.9 1037.31 1621.69Z" fill="#444444"/>
<path d="M1563.77 1344.39C1547.9 1367.74 1522.99 1386.51 1496.28 1395.11C1480.98 1400.14 1472.37 1401.37 1454.72 1401.37C1432.26 1401.26 1415.95 1397.46 1395.95 1387.41L1385.56 1382.15L1388.91 1386.4C1400.98 1401.71 1423.21 1415.11 1445.56 1420.59C1457.85 1423.6 1480.53 1423.05 1494.05 1419.47C1525.89 1411.09 1551.36 1388.63 1563.99 1358.02C1566.78 1351.32 1571.36 1334.89 1570.47 1334.89C1570.36 1334.89 1567.34 1339.14 1563.77 1344.39Z" fill="#444444"/>
<path d="M1684.21 1358.91C1684.54 1360.14 1686.11 1365.95 1687.56 1371.76C1709.01 1452.98 1681.53 1540.8 1617.62 1595.77C1595.39 1614.88 1572.04 1628.28 1543.88 1638.23L1530.14 1643.14H1546.56C1611.03 1643.48 1668.23 1610.41 1700.41 1554.21C1716.39 1526.17 1723.87 1494.55 1722.53 1460.69C1721.3 1430.08 1713.93 1404.61 1698.85 1379.02C1692.25 1367.96 1683.2 1355.34 1684.21 1358.91Z" fill="#444444"/>
<g filter="url(#filter0_d)">
<path d="M109.408 1406.01C112.194 1378.74 114.854 1352.15 117.386 1326.26C118.253 1315.18 119.179 1303.71 120.163 1291.85C121.13 1279.8 121.923 1267.96 122.544 1256.33C123.356 1244.67 124.013 1233.42 124.516 1222.58C125.192 1211.52 125.586 1201.55 125.699 1192.66C130.113 1192.43 134.154 1192.33 137.822 1192.37C141.663 1192.19 145.408 1192.03 149.058 1191.87C152.708 1191.71 156.357 1191.56 160.007 1191.4C163.83 1191.03 167.939 1190.64 172.335 1190.22C170.386 1204.1 168.438 1217.98 166.49 1231.86C164.733 1245.72 163.176 1259.66 161.819 1273.68L189.899 1267.81C191.274 1253.98 192.408 1240.66 193.301 1227.84C194.176 1214.84 195.683 1201.38 197.822 1187.48C202.145 1186.3 206.963 1185.26 212.278 1184.36C217.575 1183.28 222.498 1182.32 227.048 1181.5C231.599 1180.68 235.394 1180.02 238.433 1179.54C241.646 1178.85 243.252 1178.5 243.252 1178.5C241.401 1187.36 239.728 1197.06 238.232 1207.62C236.91 1217.97 235.633 1228.8 234.403 1240.11C233.154 1251.22 232.018 1262.51 230.997 1273.99C229.976 1285.47 229.09 1296.36 228.341 1306.65C226.464 1331.33 224.927 1356.55 223.733 1382.32L179.505 1391.76C180.89 1380.06 182.016 1368.67 182.883 1357.59C183.915 1348.23 184.91 1338.49 185.868 1328.37C187.018 1318.23 187.827 1309.57 188.296 1302.39L160.735 1307.64C160.093 1315.03 159.275 1323.59 158.28 1333.33C157.476 1343.05 156.721 1352.29 156.017 1361.03C154.904 1371.56 153.791 1382.08 152.678 1392.6L109.408 1406.01ZM290.392 1382.29C288.672 1382.46 285.259 1383.07 280.153 1384.14C275.221 1385 270.116 1386.07 264.837 1387.34C259.541 1388.43 254.722 1389.47 250.381 1390.47C246.232 1391.44 243.975 1392.05 243.611 1392.27C244.734 1383.87 245.775 1374.61 246.734 1364.49C247.865 1354.16 248.959 1343.44 250.017 1332.35C251.057 1321.06 251.992 1309.69 252.822 1298.23C253.653 1286.77 254.424 1275.7 255.136 1265.02C256.805 1240.18 258.409 1214.66 259.949 1188.47L303.985 1177.02C302.044 1203.05 300.153 1228.59 298.312 1253.65C297.6 1264.33 296.828 1275.4 295.998 1286.86C295.359 1298.3 294.615 1309.65 293.767 1320.92C293.109 1332.17 292.52 1343.13 291.999 1353.78C291.459 1364.25 290.923 1373.75 290.392 1382.29ZM360.155 1312.82C354.613 1313.35 349.089 1314.07 343.583 1314.99C338.077 1315.9 332.571 1316.82 327.065 1317.73C330.736 1293.65 334.225 1269.69 337.532 1245.84C341.031 1221.97 344.711 1197.99 348.574 1173.9C352.15 1172.98 356.204 1172.01 360.736 1171C365.459 1169.97 370.173 1168.84 374.878 1167.62C379.583 1166.39 384.106 1165.29 388.447 1164.29C392.979 1163.28 396.746 1162.34 399.749 1161.47C391.737 1186.54 384.603 1211.72 378.348 1237.01C372.265 1262.09 366.201 1287.36 360.155 1312.82ZM367.337 1357.56C367.685 1361.19 367.173 1364.9 365.801 1368.7C364.62 1372.47 362.638 1375.94 359.855 1379.1C357.054 1382.07 353.433 1384.54 348.992 1386.51C344.57 1388.67 339.397 1390.03 333.472 1390.6C329.459 1390.99 325.754 1390.57 322.358 1389.35C318.963 1388.14 316.094 1386.38 313.754 1384.1C311.586 1381.61 309.773 1378.79 308.315 1375.65C306.857 1372.52 305.972 1369.32 305.66 1366.07C305.312 1362.44 305.556 1358.95 306.391 1355.59C307.208 1352.04 308.644 1348.91 310.699 1346.2C312.928 1343.29 315.679 1340.81 318.955 1338.76C322.421 1336.69 326.639 1335.42 331.608 1334.94C342.693 1333.88 351.264 1335.76 357.319 1340.58C363.357 1345.21 366.696 1350.87 367.337 1357.56ZM448.498 1371.18C454.471 1344.96 460.107 1319.25 465.407 1294.05C467.667 1283.42 469.976 1272.3 472.335 1260.69C474.694 1249.09 477.063 1237.58 479.44 1226.16C481.818 1214.75 483.945 1203.74 485.823 1193.15C487.891 1182.53 489.651 1172.72 491.102 1163.71C501.614 1162.7 511.497 1161.17 520.752 1159.13C530.007 1157.09 540.036 1155.06 550.838 1153.06C550.668 1157.32 550.457 1162.16 550.206 1167.59C550.127 1172.8 549.885 1178.33 549.479 1184.15C549.264 1189.96 548.972 1195.96 548.603 1202.17C548.233 1208.38 547.838 1216.33 547.416 1226.01C546.994 1235.69 546.324 1247.81 545.404 1262.37L549.131 1262.01C553.282 1246.95 556.714 1234.47 559.429 1224.57C562.126 1214.47 564.328 1206.26 566.036 1199.92C567.743 1193.59 569.468 1187.44 571.212 1181.49C573.129 1175.33 574.891 1169.56 576.498 1164.2C578.279 1158.63 579.932 1153.75 581.459 1149.55C586.2 1148.71 590.646 1147.8 594.796 1146.82C598.945 1145.85 603.095 1144.87 607.245 1143.89C611.376 1142.73 615.517 1141.65 619.667 1140.68C623.989 1139.49 628.685 1138.17 633.754 1136.72C632.905 1147.99 632.18 1159.54 631.577 1171.36C630.975 1183.19 630.563 1194.99 630.343 1206.78C630.105 1218.37 629.857 1229.87 629.6 1241.28C629.534 1252.66 629.509 1263.47 629.525 1273.69C629.503 1297.61 629.713 1320.93 630.155 1343.64L581.124 1357.31C581.032 1356.36 580.88 1353.77 580.669 1349.55C580.648 1345.3 580.535 1340.11 580.331 1333.95C580.318 1327.78 580.337 1320.93 580.387 1313.41C580.628 1305.86 580.773 1298.33 580.823 1290.8C581.064 1283.25 581.333 1275.99 581.629 1269.02C581.906 1261.86 582.285 1255.75 582.764 1250.69L580.184 1250.93C578.278 1259.22 576.131 1268.01 573.743 1277.3C571.336 1286.4 568.853 1295.71 566.292 1305.21C563.923 1314.7 561.535 1323.99 559.128 1333.09C556.722 1342.2 554.661 1350.88 552.946 1359.15C546.275 1359.98 540.569 1360.82 535.828 1361.66C531.068 1362.3 525.553 1363.12 519.282 1364.11L518.26 1256.87L513.96 1257.28C513.816 1259.8 513.263 1264.1 512.302 1270.17C511.323 1276.05 510.148 1282.91 508.779 1290.76C507.582 1298.4 506.231 1306.44 504.725 1314.87C503.201 1323.12 501.727 1330.88 500.303 1338.15C499.051 1345.22 497.976 1351.11 497.078 1355.82C496.162 1360.35 495.635 1362.9 495.499 1363.5L448.498 1371.18ZM665.026 1347.82L672.689 1288.94C671.901 1280.72 670.858 1271.85 669.56 1262.33C668.434 1252.6 667.118 1242.89 665.61 1233.2C664.102 1223.5 662.631 1214.19 661.196 1205.27C659.743 1196.15 658.496 1188.17 657.454 1181.32C656.394 1174.29 655.471 1168.69 654.686 1164.52C653.901 1160.35 653.508 1158.27 653.508 1158.27L698.534 1136.01L701.887 1170.99C702.345 1175.76 702.812 1180.64 703.288 1185.61C703.765 1190.58 704.136 1195.46 704.403 1200.26C704.861 1205.03 705.292 1209.53 705.695 1213.73C706.098 1217.93 706.437 1221.47 706.712 1224.34C708.574 1217.6 710.766 1209.29 713.291 1199.4C716.006 1189.5 718.462 1179.91 720.659 1170.63C723.282 1159.77 725.947 1148.33 728.651 1136.31L774.05 1142.08C767.407 1159.3 760.946 1176.42 754.668 1193.41C752.096 1200.8 749.362 1208.48 746.463 1216.48C743.546 1224.28 740.639 1232.18 737.74 1240.17C734.824 1247.97 731.984 1255.57 729.222 1262.97C726.459 1270.38 723.938 1277.27 721.657 1283.66C721.178 1288.72 720.458 1294.29 719.497 1300.36C718.727 1306.41 717.93 1312.18 717.105 1317.66C715.989 1324.13 714.778 1330.61 713.472 1337.1L665.026 1347.82ZM828.155 1337.97C831.251 1309.9 834.142 1282.72 836.828 1256.42C837.677 1245.15 838.584 1233.49 839.551 1221.44C840.708 1209.37 841.693 1197.51 842.505 1185.86C843.299 1174.02 843.956 1162.77 844.477 1152.11C844.98 1141.26 845.202 1131.5 845.142 1122.82C847.645 1122.78 849.756 1122.67 851.476 1122.51C853.196 1122.34 855.203 1122.15 857.497 1121.93C860.172 1121.67 863.421 1121.36 867.244 1120.99C871.048 1120.44 874.852 1119.88 878.656 1119.32C882.461 1118.76 886.551 1118.18 890.929 1117.57C894.887 1130.69 898.513 1143.36 901.806 1155.58C904.953 1166.27 908.127 1177.25 911.329 1188.52C914.722 1199.77 917.663 1209.32 920.153 1217.18C920.551 1213.29 920.989 1208.81 921.469 1203.75C921.93 1198.5 922.468 1193.05 923.083 1187.39C923.698 1181.74 924.218 1176.1 924.643 1170.46C925.24 1164.62 925.846 1158.87 926.461 1153.22C927.946 1140.54 929.49 1127.47 931.092 1114.01L965.656 1106.35C961.961 1136.22 958.884 1164.48 956.425 1191.14C955.212 1202.64 954.018 1214.32 952.842 1226.2C951.839 1237.87 950.895 1249.15 950.01 1260.03C949.107 1270.73 948.426 1280.73 947.967 1290.03C947.49 1299.14 947.163 1306.79 946.985 1312.98C946.411 1313.04 944.164 1313.73 940.242 1315.07C936.493 1316.21 932.093 1317.59 927.042 1319.23C922.183 1320.86 917.228 1322.49 912.178 1324.13C907.319 1325.75 903.692 1327.16 901.299 1328.36C898.687 1313.18 896.052 1298.77 893.395 1285.14C892.254 1279.27 891.008 1273.31 889.657 1267.27C888.479 1261.02 887.233 1255.06 885.919 1249.4C884.604 1243.74 883.327 1238.46 882.086 1233.56C880.845 1228.67 879.668 1224.44 878.556 1220.88C878.331 1224.57 877.969 1228.85 877.472 1233.72C876.974 1238.59 876.504 1243.74 876.061 1249.19C875.619 1254.63 875.204 1260.36 874.816 1266.38C874.41 1272.2 873.89 1277.84 873.256 1283.31C871.999 1296.35 870.606 1309.98 869.077 1324.21L828.155 1337.97ZM1069.76 1307.58C1065.06 1308.8 1059.88 1310.16 1054.24 1311.67C1048.6 1313.17 1043.52 1314.53 1039.01 1315.73C1039.17 1309.35 1039.33 1303.07 1039.51 1296.88C1039.57 1291.47 1039.54 1286.07 1039.41 1280.69C1039.47 1275.28 1039.51 1270.65 1039.52 1266.79L1014.58 1269.18L1007.07 1311.56C1002.92 1312.54 998.015 1313.68 992.355 1315C986.676 1316.12 981.38 1317.21 976.465 1318.26C970.423 1319.61 964.476 1320.95 958.624 1322.28C963.832 1296.13 968.981 1270.37 974.072 1245C976.14 1234.38 978.259 1223.28 980.427 1211.7C982.786 1200.09 985.059 1188.59 987.245 1177.19C989.604 1165.59 991.818 1154.48 993.887 1143.86C995.955 1133.25 997.724 1123.53 999.193 1114.71C1012.1 1112.51 1025.18 1110.1 1038.43 1107.48C1051.87 1104.84 1064.88 1101.76 1077.47 1098.24C1077.48 1104.41 1077.54 1112.12 1077.66 1121.36C1077.95 1130.4 1078.32 1140.3 1078.77 1151.06C1079.22 1161.82 1079.72 1173.05 1080.26 1184.77C1080.81 1196.48 1081.33 1208 1081.84 1219.33C1083.42 1245.8 1085.05 1273.9 1086.74 1303.63C1081.1 1305.14 1075.44 1306.45 1069.76 1307.58ZM1018.71 1239.85C1019.48 1239.78 1020.81 1239.65 1022.73 1239.47C1024.81 1239.07 1026.9 1238.78 1029.01 1238.57C1031.28 1238.16 1033.37 1237.87 1035.28 1237.68C1037.18 1237.31 1038.5 1236.99 1039.24 1236.73C1039.13 1235.58 1039.05 1233.66 1038.98 1230.96C1039.09 1228.06 1039.07 1224.88 1038.93 1221.42C1038.97 1217.75 1038.97 1213.8 1038.95 1209.56C1038.93 1205.32 1038.92 1201.17 1038.92 1197.12C1038.75 1187.3 1038.7 1176.7 1038.76 1165.31L1038.09 1140.2L1033.82 1140.9L1029.59 1166.19L1018.71 1239.85ZM1088.67 1309.81C1094.64 1283.59 1100.28 1257.88 1105.58 1232.68C1107.84 1222.05 1110.15 1210.93 1112.51 1199.32C1114.87 1187.72 1117.23 1176.21 1119.61 1164.79C1121.99 1153.38 1124.12 1142.37 1125.99 1131.78C1128.06 1121.16 1129.82 1111.35 1131.27 1102.34C1141.78 1101.33 1151.67 1099.8 1160.92 1097.76C1170.18 1095.71 1180.21 1093.69 1191.01 1091.69C1190.84 1095.95 1190.63 1100.79 1190.38 1106.22C1190.3 1111.43 1190.06 1116.95 1189.65 1122.78C1189.44 1128.59 1189.14 1134.59 1188.77 1140.8C1188.4 1147.01 1188.01 1154.96 1187.59 1164.64C1187.17 1174.32 1186.5 1186.44 1185.58 1201L1189.3 1200.64C1193.45 1185.58 1196.89 1173.1 1199.6 1163.2C1202.3 1153.1 1204.5 1144.89 1206.21 1138.55C1207.91 1132.22 1209.64 1126.07 1211.38 1120.12C1213.3 1113.96 1215.06 1108.19 1216.67 1102.83C1218.45 1097.26 1220.1 1092.38 1221.63 1088.18C1226.37 1087.34 1230.82 1086.43 1234.97 1085.45C1239.12 1084.48 1243.27 1083.5 1247.42 1082.52C1251.55 1081.36 1255.69 1080.28 1259.84 1079.31C1264.16 1078.12 1268.86 1076.8 1273.93 1075.35C1273.08 1086.62 1272.35 1098.17 1271.75 1109.99C1271.15 1121.81 1270.73 1133.62 1270.51 1145.41C1270.28 1157 1270.03 1168.5 1269.77 1179.91C1269.71 1191.29 1269.68 1202.1 1269.7 1212.32C1269.67 1236.24 1269.88 1259.56 1270.33 1282.27L1221.3 1295.94C1221.2 1294.99 1221.05 1292.4 1220.84 1288.17C1220.82 1283.93 1220.71 1278.74 1220.5 1272.58C1220.49 1266.41 1220.51 1259.56 1220.56 1252.04C1220.8 1244.49 1220.94 1236.95 1220.99 1229.43C1221.24 1221.88 1221.5 1214.62 1221.8 1207.65C1222.08 1200.49 1222.46 1194.38 1222.94 1189.32L1220.36 1189.56C1218.45 1197.85 1216.3 1206.64 1213.91 1215.93C1211.51 1225.03 1209.02 1234.34 1206.46 1243.84C1204.09 1253.33 1201.71 1262.62 1199.3 1271.72C1196.89 1280.83 1194.83 1289.51 1193.12 1297.78C1186.45 1298.61 1180.74 1299.44 1176 1300.28C1171.24 1300.93 1165.72 1301.75 1159.45 1302.74L1158.43 1195.5L1154.13 1195.91C1153.99 1198.43 1153.43 1202.73 1152.47 1208.8C1151.49 1214.68 1150.32 1221.54 1148.95 1229.39C1147.75 1237.03 1146.4 1245.07 1144.9 1253.5C1143.37 1261.75 1141.9 1269.51 1140.47 1276.78C1139.22 1283.85 1138.15 1289.74 1137.25 1294.45C1136.33 1298.98 1135.81 1301.53 1135.67 1302.13L1088.67 1309.81ZM1285.86 1292.94L1303.87 1085.5L1393.72 1069.08C1392.79 1073.41 1392.05 1077.82 1391.52 1082.31C1390.91 1086.03 1390.32 1089.94 1389.75 1094.05C1389.35 1097.95 1389.01 1101.45 1388.73 1104.56C1386.84 1104.94 1384.09 1105.39 1380.47 1105.93C1377.03 1106.26 1373.32 1106.72 1369.32 1107.29C1365.31 1107.68 1361.2 1108.07 1356.99 1108.47C1352.98 1108.86 1349.44 1109.2 1346.39 1109.49L1341.27 1161.77C1347.16 1160.82 1352.67 1160 1357.82 1159.32C1362 1158.72 1366.29 1158.21 1370.69 1157.79C1375.09 1157.37 1378.33 1156.96 1380.41 1156.57C1380.16 1162 1379.9 1167.32 1379.63 1172.56C1379.55 1177.77 1379.29 1183.1 1378.85 1188.55C1376.95 1188.92 1373.82 1189.41 1369.44 1190.03C1365.24 1190.43 1360.94 1190.94 1356.57 1191.55C1351.62 1192.22 1346.19 1192.93 1340.28 1193.69L1335.59 1247.37L1376.81 1236.77L1377.08 1269.72L1285.86 1292.94ZM1502.62 1266.08C1500.9 1266.24 1497.49 1266.86 1492.39 1267.93C1487.45 1268.79 1482.35 1269.86 1477.07 1271.13C1471.77 1272.22 1466.95 1273.26 1462.61 1274.26C1458.46 1275.23 1456.21 1275.83 1455.84 1276.06C1456.97 1267.66 1458.01 1258.4 1458.97 1248.28C1460.1 1237.95 1461.19 1227.23 1462.25 1216.14C1463.29 1204.85 1464.22 1193.48 1465.05 1182.02C1465.88 1170.56 1466.66 1159.49 1467.37 1148.81C1469.04 1123.96 1470.64 1098.45 1472.18 1072.26L1516.22 1060.81C1514.28 1086.84 1512.39 1112.38 1510.54 1137.44C1509.83 1148.12 1509.06 1159.19 1508.23 1170.65C1507.59 1182.09 1506.85 1193.44 1506 1204.71C1505.34 1215.96 1504.75 1226.91 1504.23 1237.57C1503.69 1248.04 1503.16 1257.54 1502.62 1266.08ZM1641.2 1187.12C1642.23 1197.82 1641.06 1207.77 1637.7 1216.97C1634.51 1225.95 1629.68 1233.94 1623.22 1240.92C1616.94 1247.89 1609.19 1253.55 1599.96 1257.91C1590.93 1262.24 1580.96 1264.93 1570.07 1265.98C1562.42 1266.71 1554.59 1265.44 1546.56 1262.16C1538.51 1258.69 1530.52 1252.8 1522.59 1244.49L1539.82 1200.89C1541.39 1203.25 1543.65 1205.63 1546.58 1208.05C1549.49 1210.28 1552.66 1212.19 1556.1 1213.79C1559.72 1215.38 1563.22 1216.68 1566.6 1217.71C1570.15 1218.52 1573.26 1218.8 1575.94 1218.55C1578.23 1218.33 1580.58 1217.72 1582.99 1216.71C1585.41 1215.71 1587.59 1214.34 1589.55 1212.61C1591.5 1210.88 1592.96 1209.01 1593.92 1206.99C1595.06 1204.75 1595.5 1202.3 1595.24 1199.63C1594.8 1195.04 1592.87 1190.98 1589.45 1187.45C1586.2 1183.71 1582.21 1180.33 1577.48 1177.32C1572.74 1174.11 1567.61 1170.93 1562.1 1167.8C1556.59 1164.66 1551.45 1161.29 1546.67 1157.7C1542.08 1154.09 1538.02 1149.95 1534.48 1145.27C1530.95 1140.6 1528.89 1135.2 1528.3 1129.08C1527.35 1119.15 1529.42 1109.59 1534.52 1100.42C1539.62 1091.25 1546.28 1083.19 1554.48 1076.23C1562.86 1069.06 1572.13 1063.16 1582.3 1058.52C1592.46 1053.88 1602.22 1051.11 1611.59 1050.22C1616.75 1049.72 1621.69 1049.92 1626.4 1050.82C1631.1 1051.53 1635.21 1053.16 1638.73 1055.71C1642.43 1058.06 1645.44 1061.24 1647.75 1065.27C1650.26 1069.27 1651.81 1074.42 1652.41 1080.73C1652.67 1083.41 1652.64 1086.11 1652.32 1088.84C1652.2 1091.55 1652.09 1094.46 1652 1097.55L1611.59 1113.58C1611.82 1112.01 1611.96 1110.46 1612.01 1108.91C1612.24 1107.34 1612.29 1105.8 1612.14 1104.27C1611.59 1098.53 1610.15 1094.52 1607.81 1092.24C1605.64 1089.75 1602.93 1088.66 1599.68 1088.97C1598.15 1089.12 1596.3 1089.87 1594.11 1091.24C1592.12 1092.59 1590.07 1094.33 1587.96 1096.46C1586.02 1098.38 1584.41 1100.66 1583.12 1103.29C1581.82 1105.92 1581.32 1108.67 1581.59 1111.53C1582.03 1116.12 1583.64 1119.83 1586.42 1122.64C1589.39 1125.45 1592.91 1128 1596.99 1130.31C1601.07 1132.62 1605.44 1135 1610.11 1137.44C1614.96 1139.68 1619.5 1142.81 1623.74 1146.84C1627.99 1150.87 1631.67 1156.11 1634.8 1162.56C1638.1 1168.8 1640.23 1176.99 1641.2 1187.12ZM1833.88 1177.91C1830.3 1188.86 1826.02 1198.53 1821.03 1206.91C1816.22 1215.09 1810.92 1222.15 1805.13 1228.11C1799.51 1233.86 1793.66 1238.28 1787.59 1241.36C1781.52 1244.45 1775.53 1246.28 1769.6 1246.85C1763.68 1247.42 1758.1 1246.6 1752.88 1244.4C1747.84 1242.19 1743.25 1238.58 1739.11 1233.57C1734.96 1228.57 1731.37 1222.26 1728.32 1214.64C1725.47 1207.01 1723.54 1197.94 1722.53 1187.42C1720.81 1169.46 1721.6 1151.54 1724.9 1133.67C1728.19 1115.61 1733.65 1099.18 1741.3 1084.36C1748.94 1069.55 1758.48 1057.35 1769.9 1047.77C1781.5 1037.98 1794.75 1032.37 1809.66 1030.94C1814.25 1030.5 1818.74 1031.03 1823.12 1032.54C1827.51 1034.05 1831.4 1036.38 1834.79 1039.52C1838.17 1042.67 1840.97 1046.65 1843.16 1051.45C1845.55 1056.24 1847.04 1061.69 1847.62 1067.8C1847.73 1068.95 1847.85 1070.19 1847.98 1071.53C1848.09 1072.68 1848.11 1073.93 1848.05 1075.29L1811.46 1088.92C1808.71 1084.36 1805.8 1082.23 1802.74 1082.52C1799.69 1082.82 1796.61 1084.94 1793.52 1088.9C1790.6 1092.66 1787.79 1097.55 1785.09 1103.6C1782.37 1109.45 1779.82 1116.06 1777.44 1123.43C1775.05 1130.6 1773.04 1137.83 1771.42 1145.12C1769.81 1152.42 1768.55 1159.38 1767.64 1166.03C1766.91 1172.46 1766.73 1177.69 1767.12 1181.7C1767.7 1187.82 1768.88 1192.05 1770.65 1194.38C1772.61 1196.7 1774.92 1197.73 1777.6 1197.48C1779.7 1197.28 1782.02 1196.28 1784.55 1194.5C1787.06 1192.52 1789.34 1190.18 1791.4 1187.48C1793.43 1184.58 1795.25 1181.42 1796.85 1177.98C1798.45 1174.55 1799.48 1171.17 1799.93 1167.85L1833.88 1177.91ZM1847.03 1239.43C1849.81 1212.16 1852.47 1185.58 1855 1159.68C1855.87 1148.6 1856.8 1137.13 1857.78 1125.27C1858.75 1113.22 1859.54 1101.38 1860.16 1089.75C1860.97 1078.1 1861.63 1066.85 1862.13 1056C1862.81 1044.94 1863.2 1034.97 1863.32 1026.08C1867.73 1025.85 1871.77 1025.76 1875.44 1025.79C1879.28 1025.61 1883.03 1025.45 1886.68 1025.29C1890.33 1025.13 1893.97 1024.98 1897.62 1024.82C1901.45 1024.45 1905.56 1024.06 1909.95 1023.64C1908 1037.52 1906.06 1051.4 1904.11 1065.28C1902.35 1079.15 1900.79 1093.09 1899.44 1107.1L1927.52 1101.23C1928.89 1087.4 1930.03 1074.08 1930.92 1061.27C1931.79 1048.26 1933.3 1034.81 1935.44 1020.91C1939.76 1019.72 1944.58 1018.68 1949.9 1017.78C1955.19 1016.7 1960.12 1015.74 1964.67 1014.92C1969.22 1014.1 1973.01 1013.45 1976.05 1012.96C1979.26 1012.27 1980.87 1011.92 1980.87 1011.92C1979.02 1020.78 1977.35 1030.49 1975.85 1041.05C1974.53 1051.4 1973.25 1062.22 1972.02 1073.53C1970.77 1084.64 1969.64 1095.94 1968.61 1107.42C1967.59 1118.89 1966.71 1129.78 1965.96 1140.07C1964.08 1164.75 1962.54 1189.97 1961.35 1215.74L1917.12 1225.19C1918.51 1213.48 1919.63 1202.09 1920.5 1191.01C1921.53 1181.65 1922.53 1171.92 1923.49 1161.79C1924.64 1151.65 1925.44 1142.99 1925.91 1135.81L1898.35 1141.06C1897.71 1148.45 1896.89 1157.01 1895.9 1166.75C1895.09 1176.47 1894.34 1185.71 1893.63 1194.46C1892.52 1204.98 1891.41 1215.5 1890.3 1226.02L1847.03 1239.43ZM1981 1226.3C1983.72 1200.38 1986.31 1175.06 1988.76 1150.33C1989.49 1139.84 1990.37 1128.96 1991.41 1117.67C1992.44 1106.19 1993.28 1094.92 1993.96 1083.86C1994.81 1072.6 1995.51 1061.82 1996.07 1051.55C1996.8 1041.06 1997.24 1031.57 1997.39 1023.07C2007.95 1018.58 2019.47 1014.97 2031.94 1012.23C2044.39 1009.3 2056.82 1007.24 2069.25 1006.05C2076.7 1005.34 2082.9 1005.61 2087.84 1006.87C2092.98 1008.12 2097.04 1010.24 2100.02 1013.23C2103.18 1016.01 2105.54 1019.45 2107.09 1023.55C2108.64 1027.64 2109.66 1032.27 2110.15 1037.43C2110.89 1045.07 2110.27 1052.75 2108.31 1060.46C2106.33 1067.98 2103.37 1075.31 2099.42 1082.43C2095.65 1089.35 2091.07 1095.87 2085.67 1101.98C2080.45 1107.88 2074.66 1112.87 2068.3 1116.95C2072.48 1124.27 2076.92 1132.33 2081.62 1141.14C2086.49 1149.74 2091.04 1157.98 2095.27 1165.87C2100.01 1175.06 2104.84 1184.24 2109.77 1193.41L2066.82 1213.15C2061.83 1201.28 2057.29 1190.15 2053.2 1179.74C2051.44 1175.47 2049.68 1171.11 2047.9 1166.65C2046.1 1162 2044.43 1157.63 2042.88 1153.53C2041.33 1149.44 2040.02 1145.8 2038.94 1142.62C2037.85 1139.26 2037.1 1136.53 2036.71 1134.45L2033.09 1135.95C2032.53 1142.18 2031.79 1149.48 2030.85 1157.87C2030.11 1166.23 2029.44 1174.3 2028.83 1182.07C2027.98 1191.22 2027.13 1200.46 2026.29 1209.8L1981 1226.3ZM2036.44 1095.42C2040.03 1094.69 2044.28 1092.74 2049.19 1089.56C2054.28 1086.38 2059.05 1082.74 2063.48 1078.65C2067.89 1074.37 2071.62 1070.05 2074.68 1065.71C2077.73 1061.37 2079.11 1057.67 2078.82 1054.61C2078.62 1052.51 2077.79 1050.95 2076.35 1049.93C2074.88 1048.72 2072.88 1047.95 2070.34 1047.61C2067.97 1047.07 2065.34 1046.84 2062.46 1046.92C2059.57 1047 2056.6 1047.19 2053.54 1047.48C2051.44 1047.69 2049.25 1047.99 2046.98 1048.4C2044.88 1048.61 2042.96 1048.79 2041.24 1048.95L2036.44 1095.42ZM2163.99 1202.68C2162.27 1202.84 2158.86 1203.46 2153.76 1204.53C2148.82 1205.39 2143.72 1206.45 2138.44 1207.73C2133.14 1208.82 2128.32 1209.86 2123.98 1210.85C2119.83 1211.83 2117.58 1212.43 2117.21 1212.66C2118.34 1204.26 2119.38 1195 2120.34 1184.87C2121.47 1174.54 2122.56 1163.83 2123.62 1152.73C2124.66 1141.45 2125.59 1130.07 2126.43 1118.61C2127.26 1107.16 2128.03 1096.09 2128.74 1085.41C2130.41 1060.56 2132.01 1035.04 2133.55 1008.86L2177.59 997.403C2175.65 1023.44 2173.76 1048.98 2171.91 1074.04C2171.2 1084.71 2170.43 1095.78 2169.6 1107.24C2168.96 1118.68 2168.22 1130.04 2167.37 1141.31C2166.71 1152.56 2166.12 1163.51 2165.6 1174.17C2165.06 1184.64 2164.53 1194.14 2163.99 1202.68ZM2302.57 1123.72C2303.6 1134.42 2302.43 1144.37 2299.07 1153.56C2295.88 1162.55 2291.05 1170.53 2284.59 1177.52C2278.31 1184.49 2270.56 1190.15 2261.33 1194.5C2252.3 1198.84 2242.33 1201.53 2231.44 1202.58C2223.79 1203.31 2215.96 1202.04 2207.93 1198.75C2199.88 1195.28 2191.89 1189.39 2183.96 1181.09L2201.19 1137.49C2202.76 1139.84 2205.02 1142.23 2207.95 1144.65C2210.86 1146.88 2214.04 1148.79 2217.47 1150.39C2221.09 1151.97 2224.59 1153.28 2227.97 1154.3C2231.52 1155.12 2234.63 1155.4 2237.31 1155.14C2239.6 1154.92 2241.95 1154.31 2244.36 1153.31C2246.78 1152.31 2248.96 1150.94 2250.92 1149.21C2252.87 1147.48 2254.33 1145.6 2255.29 1143.58C2256.43 1141.35 2256.87 1138.9 2256.61 1136.22C2256.17 1131.64 2254.24 1127.58 2250.82 1124.05C2247.57 1120.31 2243.58 1116.93 2238.85 1113.91C2234.11 1110.7 2228.98 1107.53 2223.47 1104.39C2217.96 1101.26 2212.82 1097.89 2208.04 1094.3C2203.45 1090.69 2199.39 1086.55 2195.85 1081.87C2192.32 1077.19 2190.26 1071.8 2189.67 1065.68C2188.72 1055.74 2190.79 1046.19 2195.89 1037.02C2200.99 1027.85 2207.65 1019.79 2215.85 1012.83C2224.23 1005.66 2233.5 999.758 2243.67 995.119C2253.83 990.48 2263.59 987.711 2272.96 986.814C2278.12 986.319 2283.06 986.521 2287.77 987.419C2292.47 988.126 2296.58 989.757 2300.1 992.312C2303.8 994.658 2306.81 997.842 2309.12 1001.86C2311.63 1005.87 2313.18 1011.02 2313.79 1017.33C2314.04 1020 2314.01 1022.71 2313.69 1025.44C2313.57 1028.15 2313.46 1031.05 2313.37 1034.15L2272.96 1050.17C2273.19 1048.61 2273.33 1047.05 2273.38 1045.51C2273.61 1043.94 2273.66 1042.39 2273.51 1040.86C2272.96 1035.13 2271.52 1031.12 2269.18 1028.84C2267.01 1026.35 2264.3 1025.26 2261.05 1025.57C2259.52 1025.71 2257.67 1026.47 2255.48 1027.84C2253.49 1029.18 2251.44 1030.92 2249.33 1033.06C2247.39 1034.98 2245.78 1037.25 2244.49 1039.88C2243.19 1042.52 2242.69 1045.27 2242.96 1048.13C2243.4 1052.72 2245.01 1056.42 2247.79 1059.24C2250.76 1062.04 2254.28 1064.6 2258.36 1066.91C2262.44 1069.22 2266.81 1071.59 2271.48 1074.04C2276.33 1076.28 2280.87 1079.41 2285.12 1083.44C2289.36 1087.47 2293.04 1092.71 2296.17 1099.16C2299.47 1105.4 2301.6 1113.59 2302.57 1123.72ZM2365.54 1120.57C2360 1121.1 2354.48 1121.83 2348.97 1122.74C2343.47 1123.65 2337.96 1124.57 2332.45 1125.48C2336.12 1101.4 2339.61 1077.44 2342.92 1053.59C2346.42 1029.73 2350.1 1005.75 2353.96 981.652C2357.54 980.731 2361.59 979.763 2366.12 978.75C2370.85 977.719 2375.56 976.592 2380.27 975.369C2384.97 974.147 2389.49 973.038 2393.84 972.043C2398.37 971.03 2402.13 970.09 2405.14 969.224C2397.13 994.295 2389.99 1019.47 2383.74 1044.76C2377.65 1069.84 2371.59 1095.11 2365.54 1120.57ZM2372.73 1165.31C2373.07 1168.94 2372.56 1172.65 2371.19 1176.45C2370.01 1180.23 2368.03 1183.7 2365.24 1186.86C2362.44 1189.82 2358.82 1192.29 2354.38 1194.26C2349.96 1196.42 2344.79 1197.79 2338.86 1198.35C2334.85 1198.74 2331.14 1198.32 2327.75 1197.11C2324.35 1195.89 2321.48 1194.14 2319.14 1191.85C2316.97 1189.36 2315.16 1186.55 2313.7 1183.41C2312.25 1180.27 2311.36 1177.07 2311.05 1173.82C2310.7 1170.19 2310.94 1166.7 2311.78 1163.34C2312.6 1159.79 2314.03 1156.66 2316.09 1153.96C2318.32 1151.04 2321.07 1148.56 2324.34 1146.51C2327.81 1144.44 2332.03 1143.17 2337 1142.69C2348.08 1141.63 2356.65 1143.51 2362.71 1148.33C2368.75 1152.96 2372.08 1158.62 2372.73 1165.31Z" fill="#FBDA00"/>
</g>
<g filter="url(#filter1_d)">
<path d="M573.392 1528.64L574.53 1425.82C579.003 1425.2 583.166 1424.37 587.02 1423.32C590.961 1422.18 594.876 1421.27 598.767 1420.61C598.776 1420.7 598.729 1421.72 598.625 1423.66C598.513 1425.5 598.364 1427.98 598.179 1431.08C597.985 1434.09 597.785 1437.53 597.578 1441.41C597.362 1445.19 596.997 1450.43 596.482 1457.14C596.063 1463.83 595.504 1473.09 594.806 1484.93L596.957 1484.72C598.598 1475.69 599.966 1468.33 601.059 1462.63C602.143 1456.83 602.998 1452.17 603.624 1448.64C604.336 1445 604.966 1441.52 605.515 1438.19C606.159 1434.85 606.731 1431.75 607.229 1428.91C607.824 1426.06 608.268 1423.65 608.563 1421.69L609.853 1421.57C611.573 1421.4 613.284 1421.14 614.986 1420.79C616.783 1420.42 618.437 1420.07 619.948 1419.73C621.545 1419.29 623.185 1418.8 624.869 1418.25C624.76 1419.13 624.691 1420.92 624.66 1423.62C624.726 1426.32 624.751 1429.59 624.735 1433.45C624.71 1437.22 624.726 1441.41 624.784 1446.03C624.832 1450.56 624.876 1455.04 624.915 1459.47C624.945 1463.81 624.957 1467.96 624.95 1471.91C625.039 1475.86 625.073 1479.23 625.052 1482.03L627.632 1481.78L635.341 1418.84C638.544 1418.05 641.704 1417.31 644.821 1416.63C647.556 1415.98 650.386 1415.32 653.312 1414.66C656.237 1413.99 658.824 1413.31 661.072 1412.61C660.023 1416.76 659.02 1421.39 658.063 1426.5C657.097 1431.51 656.11 1436.81 655.104 1442.4C654.097 1448 653.142 1453.63 652.24 1459.31C651.434 1464.98 650.609 1470.46 649.766 1475.75C647.88 1488.28 646.123 1501.13 644.493 1514.3L612.619 1522.86L613.622 1466.92L611.902 1467.09L602.699 1520.48L573.392 1528.64ZM659.011 1520L668.018 1416.28L712.944 1408.07C712.476 1410.24 712.109 1412.44 711.842 1414.69C711.538 1416.55 711.244 1418.5 710.958 1420.56C710.759 1422.5 710.59 1424.26 710.449 1425.81C709.503 1426 708.127 1426.23 706.32 1426.5C704.6 1426.66 702.741 1426.89 700.743 1427.18C698.737 1427.37 696.682 1427.57 694.58 1427.77C692.573 1427.96 690.805 1428.13 689.276 1428.28L686.719 1454.42C689.663 1453.94 692.42 1453.53 694.991 1453.19C697.085 1452.89 699.23 1452.64 701.428 1452.43C703.626 1452.22 705.246 1452.01 706.288 1451.82C706.162 1454.53 706.032 1457.19 705.897 1459.81C705.858 1462.42 705.727 1465.08 705.506 1467.8C704.56 1467.99 702.992 1468.24 700.803 1468.54C698.701 1468.75 696.555 1469 694.367 1469.31C691.891 1469.64 689.177 1470 686.223 1470.38L683.878 1497.22L704.49 1491.92L704.623 1508.39L659.011 1520ZM750.128 1506.49C747.165 1506.78 744.021 1507.17 740.694 1507.68C737.464 1508.19 734.194 1508.79 730.886 1509.49C727.578 1510.2 724.332 1511.04 721.147 1512.02C718.048 1512.89 715.25 1513.89 712.752 1514.99C712.913 1510.64 713.124 1505.8 713.385 1500.47C713.646 1495.14 713.983 1489.61 714.399 1483.88C714.909 1478.14 715.368 1472.36 715.774 1466.53C716.275 1460.7 716.799 1455.1 717.347 1449.74C718.536 1437 719.845 1424 721.275 1410.74L746.044 1405.04C744.526 1416.37 743.077 1427.41 741.696 1438.15C741.075 1442.74 740.473 1447.53 739.889 1452.5C739.296 1457.38 738.741 1462.16 738.225 1466.84C737.709 1471.52 737.275 1476.04 736.923 1480.42C736.571 1484.79 736.316 1488.67 736.159 1492.06C738.53 1491.64 741.053 1491.3 743.729 1491.05C746.491 1490.69 748.923 1490.4 751.025 1490.2C751.295 1492.01 751.612 1493.81 751.978 1495.61C752.334 1497.31 752.676 1498.87 753.004 1500.28C753.429 1501.69 753.743 1502.96 753.949 1504.1C754.241 1505.13 754.453 1505.84 754.585 1506.21C753.82 1506.28 753.056 1506.36 752.291 1506.43C751.613 1506.4 750.892 1506.42 750.128 1506.49ZM816.813 1473.63C815.023 1479.1 812.883 1483.94 810.391 1488.13C807.987 1492.22 805.336 1495.75 802.439 1498.73C799.628 1501.6 796.705 1503.81 793.671 1505.35C790.637 1506.9 787.638 1507.81 784.676 1508.1C781.713 1508.38 778.926 1507.97 776.313 1506.87C773.795 1505.77 771.501 1503.96 769.429 1501.46C767.356 1498.96 765.559 1495.8 764.037 1491.99C762.61 1488.18 761.645 1483.64 761.141 1478.38C760.28 1469.4 760.675 1460.44 762.325 1451.51C763.967 1442.48 766.699 1434.26 770.522 1426.85C774.345 1419.45 779.113 1413.35 784.825 1408.56C790.625 1403.66 797.251 1400.86 804.705 1400.14C806.999 1399.92 809.242 1400.19 811.436 1400.94C813.63 1401.7 815.574 1402.86 817.268 1404.43C818.962 1406.01 820.358 1408 821.456 1410.4C822.65 1412.79 823.394 1415.52 823.687 1418.57C823.742 1419.15 823.801 1419.77 823.865 1420.44C823.92 1421.01 823.932 1421.64 823.901 1422.32L805.604 1429.13C804.228 1426.85 802.776 1425.79 801.247 1425.93C799.718 1426.08 798.18 1427.14 796.634 1429.12C795.174 1431 793.77 1433.45 792.42 1436.47C791.061 1439.4 789.787 1442.7 788.597 1446.39C787.397 1449.97 786.394 1453.59 785.586 1457.23C784.778 1460.88 784.148 1464.36 783.695 1467.69C783.328 1470.9 783.241 1473.52 783.434 1475.52C783.727 1478.58 784.315 1480.7 785.199 1481.86C786.178 1483.02 787.336 1483.54 788.674 1483.41C789.725 1483.31 790.883 1482.81 792.148 1481.92C793.403 1480.93 794.545 1479.76 795.572 1478.41C796.591 1476.96 797.5 1475.38 798.3 1473.66C799.1 1471.95 799.613 1470.26 799.84 1468.6L816.813 1473.63ZM895.051 1418.97C895.802 1426.8 895.652 1434.29 894.601 1441.43C893.636 1448.47 892.047 1455.03 889.834 1461.13C887.613 1467.13 884.858 1472.6 881.571 1477.54C878.37 1482.38 874.919 1486.62 871.217 1490.25C867.506 1493.79 863.678 1496.62 859.734 1498.73C855.78 1500.75 851.94 1501.94 848.213 1502.3C845.059 1502.6 842.138 1502.3 839.448 1501.4C836.748 1500.41 834.333 1498.85 832.202 1496.74C830.062 1494.54 828.244 1491.67 826.749 1488.15C825.341 1484.53 824.389 1480.13 823.895 1474.97C823.382 1469.62 823.51 1463.92 824.28 1457.87C825.05 1451.81 826.302 1445.76 828.037 1439.71C829.771 1433.66 832.059 1427.85 834.9 1422.27C837.741 1416.7 840.975 1411.71 844.604 1407.31C848.224 1402.82 852.213 1399.16 856.571 1396.33C860.929 1393.5 865.592 1391.85 870.561 1391.37C874.862 1390.96 878.485 1391.53 881.43 1393.08C884.462 1394.52 886.879 1396.6 888.683 1399.32C890.574 1401.94 892.023 1404.98 893.03 1408.45C894.038 1411.93 894.712 1415.43 895.051 1418.97ZM844.895 1469.2C844.996 1470.25 845.293 1471.33 845.785 1472.44C846.277 1473.55 846.899 1474.5 847.65 1475.3C848.402 1476.09 849.287 1476.78 850.307 1477.36C851.413 1477.83 852.539 1478.01 853.686 1477.9C857.986 1477.49 861.667 1475.64 864.728 1472.36C867.788 1469.08 870.211 1465.18 871.997 1460.67C873.783 1456.16 875.015 1451.41 875.695 1446.43C876.47 1441.43 876.665 1436.93 876.28 1432.92C876.17 1431.77 875.956 1430.54 875.636 1429.22C875.413 1427.89 875.007 1426.67 874.419 1425.57C873.927 1424.46 873.166 1423.57 872.137 1422.9C871.195 1422.12 869.959 1421.81 868.43 1421.95C865.372 1422.25 862.626 1423.28 860.193 1425.06C857.759 1426.83 855.615 1429.11 853.76 1431.89C851.991 1434.57 850.498 1437.61 849.281 1441C848.054 1444.3 847.028 1447.68 846.202 1451.13C845.462 1454.48 845.004 1457.76 844.829 1460.96C844.653 1464.16 844.675 1466.9 844.895 1469.2ZM892.822 1496.57C895.808 1483.46 898.626 1470.6 901.276 1458.01C902.406 1452.69 903.561 1447.13 904.74 1441.33C905.92 1435.52 907.104 1429.77 908.293 1424.06C909.482 1418.35 910.546 1412.85 911.484 1407.55C912.519 1402.25 913.398 1397.34 914.124 1392.83C919.38 1392.33 924.321 1391.57 928.949 1390.55C933.576 1389.52 938.591 1388.51 943.992 1387.51C943.907 1389.64 943.802 1392.06 943.676 1394.78C943.636 1397.38 943.515 1400.14 943.312 1403.06C943.205 1405.96 943.059 1408.96 942.874 1412.07C942.69 1415.17 942.492 1419.14 942.281 1423.99C942.07 1428.83 941.735 1434.89 941.275 1442.16L943.139 1441.99C945.214 1434.46 946.93 1428.22 948.288 1423.27C949.636 1418.22 950.737 1414.11 951.591 1410.94C952.444 1407.77 953.307 1404.7 954.179 1401.72C955.137 1398.64 956.018 1395.76 956.822 1393.08C957.712 1390.3 958.539 1387.85 959.302 1385.76C961.673 1385.33 963.896 1384.88 965.971 1384.39C968.046 1383.9 970.12 1383.42 972.195 1382.93C974.261 1382.34 976.331 1381.81 978.406 1381.32C980.568 1380.73 982.915 1380.07 985.45 1379.34C985.025 1384.98 984.663 1390.75 984.361 1396.66C984.06 1402.57 983.855 1408.48 983.744 1414.37C983.625 1420.17 983.501 1425.92 983.373 1431.62C983.34 1437.31 983.327 1442.71 983.335 1447.82C983.324 1459.78 983.43 1471.44 983.65 1482.8L959.135 1489.64C959.089 1489.16 959.013 1487.86 958.907 1485.75C958.897 1483.63 958.84 1481.03 958.738 1477.96C958.732 1474.87 958.741 1471.45 958.766 1467.68C958.887 1463.91 958.959 1460.14 958.984 1456.38C959.105 1452.61 959.239 1448.98 959.387 1445.49C959.526 1441.91 959.715 1438.85 959.955 1436.32L958.665 1436.45C957.712 1440.59 956.638 1444.98 955.444 1449.63C954.241 1454.18 952.999 1458.83 951.719 1463.59C950.534 1468.33 949.34 1472.98 948.137 1477.53C946.934 1482.08 945.904 1486.42 945.046 1490.55C941.71 1490.97 938.857 1491.39 936.487 1491.81C934.107 1492.13 931.349 1492.54 928.214 1493.04L927.703 1439.42L925.553 1439.62C925.481 1440.88 925.204 1443.03 924.724 1446.07C924.234 1449.01 923.647 1452.44 922.962 1456.36C922.364 1460.18 921.688 1464.2 920.936 1468.42C920.174 1472.54 919.436 1476.42 918.724 1480.06C918.098 1483.59 917.561 1486.53 917.112 1488.89C916.654 1491.15 916.391 1492.43 916.322 1492.73L892.822 1496.57ZM991.415 1488.13L1000.42 1384.42L1045.35 1376.2C1044.88 1378.37 1044.51 1380.58 1044.25 1382.82C1043.94 1384.68 1043.65 1386.64 1043.36 1388.69C1043.16 1390.64 1042.99 1392.39 1042.85 1393.95C1041.91 1394.13 1040.53 1394.36 1038.72 1394.63C1037 1394.8 1035.15 1395.02 1033.15 1395.31C1031.14 1395.5 1029.09 1395.7 1026.98 1395.9C1024.98 1396.1 1023.21 1396.26 1021.68 1396.41L1019.12 1422.55C1022.07 1422.08 1024.82 1421.67 1027.4 1421.32C1029.49 1421.03 1031.63 1420.77 1033.83 1420.56C1036.03 1420.35 1037.65 1420.15 1038.69 1419.95C1038.57 1422.66 1038.44 1425.33 1038.3 1427.94C1038.26 1430.55 1038.13 1433.22 1037.91 1435.94C1036.96 1436.13 1035.4 1436.37 1033.21 1436.68C1031.11 1436.88 1028.96 1437.13 1026.77 1437.44C1024.3 1437.77 1021.58 1438.13 1018.63 1438.51L1016.28 1465.35L1036.89 1460.05L1037.03 1476.53L991.415 1488.13ZM1088.62 1478.82C1089.81 1468.09 1090.92 1457.52 1091.95 1447.11C1092.39 1442.72 1092.82 1438.15 1093.23 1433.38C1093.65 1428.62 1094.02 1423.95 1094.35 1419.39C1094.77 1414.72 1095.07 1410.26 1095.24 1406C1095.49 1401.63 1095.69 1397.66 1095.83 1394.08C1093.61 1394 1091.35 1394.12 1089.07 1394.44C1086.88 1394.74 1084.65 1394.67 1082.39 1394.21C1082.34 1392.67 1082.22 1390.9 1082.02 1388.89C1081.83 1386.88 1081.69 1384.87 1081.59 1382.86C1081.48 1380.65 1081.35 1378.3 1081.2 1375.8C1083.71 1375.76 1086.21 1375.66 1088.7 1375.52C1091.19 1375.38 1093.68 1375.19 1096.17 1374.95C1101.04 1374.48 1105.71 1373.94 1110.19 1373.32C1114.75 1372.59 1118.92 1371.9 1122.72 1371.25C1126.6 1370.49 1130.38 1369.69 1134.06 1368.86L1133.23 1376.75C1132.96 1378.99 1132.7 1381.28 1132.44 1383.62C1132.28 1385.95 1132.08 1387.95 1131.86 1389.61C1129.81 1390.39 1127.7 1391.02 1125.53 1391.52C1123.45 1391.91 1121.37 1392.4 1119.31 1392.98C1118.95 1396.3 1118.58 1400 1118.2 1404.08C1117.81 1408.07 1117.44 1412.26 1117.09 1416.63C1116.82 1420.9 1116.57 1425.26 1116.32 1429.72C1116.07 1434.18 1115.8 1438.45 1115.52 1442.53C1114.9 1452.14 1114.4 1462.07 1114.04 1472.33L1088.62 1478.82ZM1204.78 1389.27C1205.53 1397.11 1205.38 1404.6 1204.33 1411.74C1203.36 1418.78 1201.77 1425.34 1199.56 1431.44C1197.34 1437.44 1194.59 1442.91 1191.3 1447.85C1188.1 1452.69 1184.65 1456.93 1180.94 1460.56C1177.23 1464.1 1173.4 1466.93 1169.46 1469.04C1165.51 1471.06 1161.67 1472.25 1157.94 1472.6C1154.79 1472.91 1151.86 1472.61 1149.17 1471.71C1146.48 1470.71 1144.06 1469.16 1141.93 1467.05C1139.79 1464.84 1137.97 1461.98 1136.48 1458.46C1135.07 1454.83 1134.12 1450.44 1133.62 1445.28C1133.11 1439.93 1133.24 1434.23 1134.01 1428.17C1134.78 1422.12 1136.03 1416.07 1137.76 1410.02C1139.5 1403.97 1141.79 1398.16 1144.63 1392.58C1147.47 1387 1150.7 1382.02 1154.33 1377.62C1157.95 1373.12 1161.94 1369.46 1166.3 1366.63C1170.66 1363.81 1175.32 1362.15 1180.29 1361.68C1184.59 1361.26 1188.21 1361.83 1191.16 1363.38C1194.19 1364.83 1196.61 1366.91 1198.41 1369.63C1200.3 1372.25 1201.75 1375.29 1202.76 1378.76C1203.77 1382.23 1204.44 1385.74 1204.78 1389.27ZM1154.62 1439.51C1154.72 1440.56 1155.02 1441.64 1155.51 1442.75C1156 1443.86 1156.63 1444.81 1157.38 1445.61C1158.13 1446.4 1159.01 1447.09 1160.03 1447.67C1161.14 1448.14 1162.27 1448.32 1163.41 1448.21C1167.71 1447.8 1171.39 1445.95 1174.45 1442.67C1177.52 1439.38 1179.94 1435.49 1181.72 1430.98C1183.51 1426.47 1184.74 1421.72 1185.42 1416.73C1186.2 1411.74 1186.39 1407.24 1186.01 1403.22C1185.9 1402.08 1185.68 1400.84 1185.36 1399.53C1185.14 1398.2 1184.73 1396.98 1184.15 1395.88C1183.65 1394.77 1182.89 1393.88 1181.86 1393.21C1180.92 1392.43 1179.69 1392.11 1178.16 1392.26C1175.1 1392.55 1172.35 1393.59 1169.92 1395.36C1167.49 1397.14 1165.34 1399.42 1163.49 1402.2C1161.72 1404.88 1160.23 1407.91 1159.01 1411.31C1157.78 1414.61 1156.75 1417.99 1155.93 1421.44C1155.19 1424.79 1154.73 1428.07 1154.56 1431.27C1154.38 1434.47 1154.4 1437.21 1154.62 1439.51ZM1234.85 1463.78C1237.83 1450.67 1240.65 1437.82 1243.3 1425.22C1244.43 1419.9 1245.58 1414.34 1246.76 1408.54C1247.94 1402.74 1249.13 1396.98 1250.32 1391.27C1251.51 1385.57 1252.57 1380.06 1253.51 1374.77C1254.54 1369.46 1255.42 1364.55 1256.15 1360.05C1261.4 1359.54 1266.35 1358.78 1270.97 1357.76C1275.6 1356.73 1280.61 1355.72 1286.02 1354.72C1285.93 1356.85 1285.83 1359.27 1285.7 1361.99C1285.66 1364.59 1285.54 1367.35 1285.34 1370.27C1285.23 1373.17 1285.08 1376.17 1284.9 1379.28C1284.71 1382.38 1284.52 1386.36 1284.3 1391.2C1284.09 1396.04 1283.76 1402.1 1283.3 1409.38L1285.16 1409.2C1287.24 1401.67 1288.95 1395.43 1290.31 1390.48C1291.66 1385.43 1292.76 1381.32 1293.61 1378.15C1294.47 1374.99 1295.33 1371.91 1296.2 1368.94C1297.16 1365.86 1298.04 1362.97 1298.85 1360.29C1299.74 1357.51 1300.56 1355.07 1301.33 1352.97C1303.7 1352.55 1305.92 1352.09 1307.99 1351.6C1310.07 1351.12 1312.14 1350.63 1314.22 1350.14C1316.28 1349.56 1318.36 1349.02 1320.43 1348.53C1322.59 1347.94 1324.94 1347.28 1327.47 1346.55C1327.05 1352.19 1326.69 1357.96 1326.39 1363.87C1326.08 1369.78 1325.88 1375.69 1325.77 1381.58C1325.65 1387.38 1325.53 1393.13 1325.4 1398.83C1325.36 1404.52 1325.35 1409.93 1325.36 1415.04C1325.35 1427 1325.45 1438.66 1325.67 1450.01L1301.16 1456.85C1301.11 1456.37 1301.04 1455.08 1300.93 1452.96C1300.92 1450.84 1300.86 1448.25 1300.76 1445.17C1300.76 1442.08 1300.77 1438.66 1300.79 1434.9C1300.91 1431.12 1300.98 1427.35 1301.01 1423.59C1301.13 1419.82 1301.26 1416.19 1301.41 1412.7C1301.55 1409.12 1301.74 1406.07 1301.98 1403.54L1300.69 1403.66C1299.74 1407.8 1298.66 1412.2 1297.47 1416.84C1296.26 1421.39 1295.02 1426.05 1293.74 1430.8C1292.56 1435.54 1291.36 1440.19 1290.16 1444.74C1288.96 1449.29 1287.93 1453.63 1287.07 1457.77C1283.73 1458.18 1280.88 1458.6 1278.51 1459.02C1276.13 1459.34 1273.37 1459.75 1270.24 1460.25L1269.73 1406.63L1267.58 1406.83C1267.5 1408.09 1267.23 1410.24 1266.75 1413.28C1266.26 1416.22 1265.67 1419.65 1264.99 1423.57C1264.39 1427.39 1263.71 1431.41 1262.96 1435.63C1262.2 1439.75 1261.46 1443.63 1260.75 1447.27C1260.12 1450.8 1259.58 1453.75 1259.14 1456.1C1258.68 1458.37 1258.41 1459.64 1258.35 1459.94L1234.85 1463.78ZM1343.11 1452.1L1346.94 1422.66C1346.55 1418.55 1346.03 1414.12 1345.38 1409.36C1344.81 1404.49 1344.16 1399.64 1343.4 1394.79C1342.65 1389.94 1341.91 1385.29 1341.19 1380.83C1340.47 1376.27 1339.84 1372.28 1339.32 1368.85C1338.79 1365.34 1338.33 1362.53 1337.94 1360.45C1337.55 1358.37 1337.35 1357.32 1337.35 1357.32L1359.86 1346.2L1361.54 1363.69C1361.77 1366.07 1362 1368.51 1362.24 1371C1362.48 1373.48 1362.66 1375.92 1362.8 1378.32C1363.03 1380.71 1363.24 1382.96 1363.44 1385.06C1363.65 1387.16 1363.82 1388.93 1363.95 1390.36C1364.88 1386.99 1365.98 1382.84 1367.24 1377.89C1368.6 1372.94 1369.83 1368.15 1370.93 1363.51C1372.24 1358.08 1373.57 1352.36 1374.92 1346.35L1397.62 1349.23C1394.3 1357.84 1391.07 1366.4 1387.93 1374.9C1386.64 1378.59 1385.28 1382.43 1383.83 1386.43C1382.37 1390.33 1380.92 1394.28 1379.47 1398.28C1378.01 1402.18 1376.59 1405.98 1375.21 1409.68C1373.83 1413.38 1372.57 1416.83 1371.43 1420.02C1371.19 1422.55 1370.83 1425.34 1370.35 1428.37C1369.96 1431.4 1369.56 1434.28 1369.15 1437.02C1368.59 1440.26 1367.99 1443.5 1367.33 1446.74L1343.11 1452.1ZM1423.47 1446.71C1425.1 1433.54 1426.62 1420.66 1428.02 1408.09C1428.57 1402.83 1429.15 1397.28 1429.75 1391.43C1430.34 1385.59 1430.9 1379.84 1431.42 1374.2C1431.94 1368.56 1432.43 1363.11 1432.89 1357.86C1433.35 1352.61 1433.71 1347.8 1433.97 1343.43C1436.66 1342.31 1439.31 1341.33 1441.93 1340.5C1444.54 1339.57 1447.21 1338.74 1449.94 1338C1452.76 1337.24 1455.41 1336.75 1457.9 1336.51C1462.2 1336.1 1465.85 1336.47 1468.85 1337.63C1471.95 1338.78 1474.53 1340.51 1476.58 1342.82C1478.63 1345.03 1480.19 1347.73 1481.27 1350.91C1482.34 1354.08 1483.06 1357.53 1483.42 1361.26C1483.93 1366.61 1483.42 1371.87 1481.89 1377.03C1480.45 1382.18 1478.25 1386.88 1475.28 1391.12C1472.4 1395.25 1468.92 1398.67 1464.84 1401.38C1460.85 1404.07 1456.57 1405.64 1451.98 1406.08L1450.4 1406.23C1449.95 1409.55 1449.57 1413.16 1449.27 1417.05C1448.97 1420.93 1448.73 1424.52 1448.57 1427.82C1448.27 1431.7 1448.01 1435.59 1447.8 1439.46L1423.47 1446.71ZM1454.97 1354.29C1454.53 1360.7 1454.05 1366.78 1453.54 1372.51C1453.03 1378.25 1452.46 1384.38 1451.83 1390.91C1453.32 1390.38 1454.81 1389.37 1456.31 1387.87C1457.89 1386.27 1459.3 1384.31 1460.52 1381.97C1461.73 1379.54 1462.63 1376.8 1463.2 1373.76C1463.78 1370.71 1463.91 1367.57 1463.6 1364.32C1463.26 1360.78 1462.19 1358.18 1460.39 1356.52C1458.69 1354.85 1456.88 1354.11 1454.97 1354.29ZM1555.34 1355.67C1556.09 1363.5 1555.94 1370.99 1554.89 1378.13C1553.93 1385.17 1552.34 1391.73 1550.12 1397.83C1547.9 1403.83 1545.15 1409.3 1541.86 1414.24C1538.66 1419.08 1535.21 1423.32 1531.51 1426.95C1527.8 1430.49 1523.97 1433.32 1520.02 1435.43C1516.07 1437.45 1512.23 1438.64 1508.5 1439C1505.35 1439.3 1502.43 1439 1499.74 1438.1C1497.04 1437.11 1494.62 1435.55 1492.49 1433.44C1490.35 1431.24 1488.53 1428.37 1487.04 1424.85C1485.63 1421.23 1484.68 1416.83 1484.18 1411.67C1483.67 1406.32 1483.8 1400.62 1484.57 1394.57C1485.34 1388.51 1486.59 1382.46 1488.33 1376.41C1490.06 1370.36 1492.35 1364.55 1495.19 1358.97C1498.03 1353.4 1501.27 1348.41 1504.89 1344.01C1508.51 1339.52 1512.5 1335.86 1516.86 1333.03C1521.22 1330.2 1525.88 1328.55 1530.85 1328.07C1535.15 1327.66 1538.77 1328.23 1541.72 1329.78C1544.75 1331.22 1547.17 1333.3 1548.97 1336.02C1550.86 1338.64 1552.31 1341.68 1553.32 1345.16C1554.33 1348.63 1555 1352.13 1555.34 1355.67ZM1505.18 1405.9C1505.29 1406.95 1505.58 1408.03 1506.07 1409.14C1506.57 1410.25 1507.19 1411.2 1507.94 1412C1508.69 1412.8 1509.58 1413.48 1510.6 1414.06C1511.7 1414.53 1512.83 1414.71 1513.98 1414.6C1518.28 1414.19 1521.96 1412.34 1525.02 1409.06C1528.08 1405.78 1530.5 1401.88 1532.29 1397.37C1534.07 1392.86 1535.31 1388.11 1535.98 1383.13C1536.76 1378.13 1536.95 1373.63 1536.57 1369.62C1536.46 1368.47 1536.25 1367.24 1535.93 1365.92C1535.7 1364.59 1535.3 1363.37 1534.71 1362.27C1534.22 1361.16 1533.46 1360.27 1532.43 1359.6C1531.48 1358.82 1530.25 1358.51 1528.72 1358.65C1525.66 1358.95 1522.92 1359.98 1520.48 1361.76C1518.05 1363.53 1515.9 1365.81 1514.05 1368.59C1512.28 1371.27 1510.79 1374.31 1509.57 1377.7C1508.34 1381 1507.32 1384.38 1506.49 1387.84C1505.75 1391.19 1505.29 1394.46 1505.12 1397.66C1504.94 1400.86 1504.97 1403.6 1505.18 1405.9ZM1558.08 1433.81C1559.44 1420.85 1560.74 1408.19 1561.96 1395.83C1562.33 1390.58 1562.77 1385.14 1563.29 1379.5C1563.8 1373.76 1564.23 1368.12 1564.56 1362.59C1564.99 1356.96 1565.34 1351.57 1565.62 1346.44C1565.98 1341.19 1566.2 1336.45 1566.28 1332.2C1571.56 1329.95 1577.32 1328.15 1583.55 1326.78C1589.78 1325.31 1595.99 1324.28 1602.21 1323.69C1605.93 1323.33 1609.03 1323.47 1611.5 1324.1C1614.07 1324.72 1616.1 1325.78 1617.59 1327.28C1619.17 1328.67 1620.35 1330.39 1621.13 1332.44C1621.9 1334.48 1622.41 1336.8 1622.66 1339.38C1623.03 1343.2 1622.72 1347.04 1621.74 1350.89C1620.75 1354.65 1619.27 1358.31 1617.3 1361.88C1615.41 1365.34 1613.12 1368.6 1610.42 1371.65C1607.81 1374.6 1604.92 1377.1 1601.74 1379.14C1603.82 1382.8 1606.04 1386.83 1608.39 1391.23C1610.83 1395.53 1613.11 1399.65 1615.22 1403.6C1617.59 1408.19 1620.01 1412.78 1622.47 1417.37L1600.99 1427.24C1598.5 1421.3 1596.23 1415.74 1594.18 1410.53C1593.31 1408.4 1592.42 1406.22 1591.53 1403.99C1590.63 1401.66 1589.8 1399.47 1589.02 1397.43C1588.25 1395.38 1587.59 1393.56 1587.05 1391.97C1586.51 1390.29 1586.13 1388.93 1585.94 1387.89L1584.13 1388.64C1583.85 1391.75 1583.48 1395.4 1583.01 1399.59C1582.64 1403.78 1582.3 1407.81 1582 1411.7C1581.57 1416.27 1581.15 1420.89 1580.73 1425.56L1558.08 1433.81ZM1585.8 1368.37C1587.6 1368 1589.73 1367.03 1592.18 1365.44C1594.72 1363.85 1597.11 1362.03 1599.32 1359.99C1601.53 1357.85 1603.39 1355.69 1604.92 1353.52C1606.45 1351.35 1607.14 1349.5 1606.99 1347.97C1606.89 1346.92 1606.48 1346.14 1605.76 1345.63C1605.02 1345.02 1604.02 1344.64 1602.75 1344.47C1601.57 1344.2 1600.26 1344.08 1598.81 1344.12C1597.37 1344.16 1595.88 1344.26 1594.36 1344.4C1593.3 1344.51 1592.21 1344.66 1591.07 1344.86C1590.02 1344.96 1589.07 1345.06 1588.21 1345.14L1585.8 1368.37ZM1638.4 1426.11C1639.59 1415.39 1640.7 1404.82 1641.73 1394.4C1642.17 1390.02 1642.6 1385.44 1643.02 1380.68C1643.43 1375.91 1643.8 1371.25 1644.13 1366.68C1644.55 1362.01 1644.85 1357.55 1645.02 1353.29C1645.28 1348.93 1645.47 1344.95 1645.61 1341.37C1643.39 1341.3 1641.13 1341.42 1638.85 1341.73C1636.66 1342.04 1634.43 1341.96 1632.17 1341.5C1632.12 1339.96 1632 1338.19 1631.81 1336.19C1631.61 1334.18 1631.47 1332.17 1631.37 1330.15C1631.26 1327.94 1631.13 1325.59 1630.99 1323.1C1633.49 1323.05 1635.99 1322.96 1638.48 1322.82C1640.97 1322.67 1643.46 1322.48 1645.95 1322.24C1650.82 1321.78 1655.5 1321.23 1659.97 1320.61C1664.53 1319.88 1668.71 1319.19 1672.5 1318.54C1676.38 1317.78 1680.16 1316.99 1683.84 1316.15L1683.01 1324.04C1682.74 1326.29 1682.48 1328.58 1682.22 1330.92C1682.06 1333.25 1681.86 1335.24 1681.64 1336.9C1679.59 1337.68 1677.48 1338.32 1675.31 1338.81C1673.23 1339.21 1671.15 1339.69 1669.09 1340.28C1668.73 1343.59 1668.36 1347.29 1667.98 1351.38C1667.59 1355.37 1667.22 1359.55 1666.87 1363.93C1666.6 1368.19 1666.35 1372.56 1666.1 1377.02C1665.85 1381.48 1665.59 1385.75 1665.3 1389.83C1664.68 1399.43 1664.19 1409.37 1663.82 1419.62L1638.4 1426.11ZM1699.02 1416.68C1696.39 1417.42 1693.53 1418.27 1690.44 1419.24C1687.35 1420.21 1684.64 1421.1 1682.31 1421.9C1683.06 1417.68 1683.72 1412.99 1684.29 1407.82C1684.94 1402.55 1685.52 1397.05 1686.03 1391.31C1686.64 1385.56 1687.14 1379.78 1687.55 1373.95C1688.04 1368.02 1688.51 1362.33 1688.95 1356.89C1689.74 1343.99 1690.49 1330.66 1691.19 1316.89L1738.98 1309.85L1736.51 1327.88L1714.01 1330.04L1712.01 1355.98C1714.96 1355.6 1717.78 1355.28 1720.45 1355.03C1722.65 1354.82 1724.9 1354.6 1727.19 1354.38C1729.48 1354.16 1731.25 1353.94 1732.48 1353.73C1732.45 1356.43 1732.32 1359.1 1732.09 1361.72C1731.95 1364.34 1731.82 1366.96 1731.68 1369.57C1730.44 1369.69 1728.67 1369.86 1726.38 1370.08C1724.08 1370.21 1721.68 1370.34 1719.19 1370.48C1716.79 1370.62 1714.06 1370.78 1710.99 1370.98L1708.45 1413.9C1705.25 1414.78 1702.11 1415.71 1699.02 1416.68ZM1807.71 1331.47C1808.46 1339.31 1808.31 1346.8 1807.26 1353.94C1806.3 1360.97 1804.71 1367.54 1802.5 1373.64C1800.28 1379.63 1797.52 1385.11 1794.23 1390.05C1791.03 1394.89 1787.58 1399.13 1783.88 1402.76C1780.17 1406.3 1776.34 1409.13 1772.4 1411.24C1768.44 1413.26 1764.6 1414.45 1760.88 1414.8C1757.72 1415.11 1754.8 1414.81 1752.11 1413.91C1749.41 1412.91 1747 1411.36 1744.86 1409.25C1742.72 1407.04 1740.91 1404.18 1739.41 1400.66C1738 1397.03 1737.05 1392.64 1736.56 1387.48C1736.04 1382.13 1736.17 1376.43 1736.94 1370.37C1737.71 1364.32 1738.96 1358.27 1740.7 1352.22C1742.43 1346.17 1744.72 1340.36 1747.56 1334.78C1750.4 1329.2 1753.64 1324.22 1757.27 1319.82C1760.89 1315.32 1764.88 1311.66 1769.23 1308.83C1773.59 1306.01 1778.25 1304.35 1783.22 1303.88C1787.52 1303.46 1791.15 1304.03 1794.09 1305.58C1797.12 1307.03 1799.54 1309.11 1801.35 1311.83C1803.24 1314.45 1804.69 1317.49 1805.69 1320.96C1806.7 1324.43 1807.37 1327.94 1807.71 1331.47ZM1757.56 1381.7C1757.66 1382.76 1757.96 1383.84 1758.45 1384.95C1758.94 1386.06 1759.56 1387.01 1760.31 1387.81C1761.06 1388.6 1761.95 1389.29 1762.97 1389.87C1764.08 1390.34 1765.2 1390.52 1766.35 1390.41C1770.65 1390 1774.33 1388.15 1777.39 1384.87C1780.45 1381.58 1782.87 1377.69 1784.66 1373.18C1786.45 1368.66 1787.68 1363.92 1788.36 1358.93C1789.13 1353.94 1789.33 1349.44 1788.94 1345.42C1788.83 1344.28 1788.62 1343.04 1788.3 1341.72C1788.08 1340.4 1787.67 1339.18 1787.08 1338.08C1786.59 1336.97 1785.83 1336.08 1784.8 1335.41C1783.86 1334.63 1782.62 1334.31 1781.09 1334.46C1778.03 1334.75 1775.29 1335.79 1772.86 1337.56C1770.42 1339.34 1768.28 1341.62 1766.42 1344.4C1764.65 1347.08 1763.16 1350.11 1761.94 1353.51C1760.72 1356.81 1759.69 1360.19 1758.86 1363.64C1758.12 1366.99 1757.67 1370.27 1757.49 1373.47C1757.32 1376.66 1757.34 1379.41 1757.56 1381.7ZM1848.99 1401.15C1846.03 1401.43 1842.88 1401.83 1839.56 1402.34C1836.33 1402.84 1833.06 1403.45 1829.75 1404.15C1826.44 1404.85 1823.19 1405.69 1820.01 1406.67C1816.91 1407.55 1814.11 1408.54 1811.62 1409.65C1811.78 1405.29 1811.99 1400.45 1812.25 1395.12C1812.51 1389.79 1812.85 1384.26 1813.26 1378.53C1813.77 1372.8 1814.23 1367.01 1814.64 1361.19C1815.14 1355.35 1815.66 1349.76 1816.21 1344.4C1817.4 1331.65 1818.71 1318.65 1820.14 1305.4L1844.91 1299.7C1843.39 1311.03 1841.94 1322.07 1840.56 1332.81C1839.94 1337.4 1839.34 1342.18 1838.75 1347.16C1838.16 1352.04 1837.6 1356.82 1837.09 1361.49C1836.57 1366.17 1836.14 1370.7 1835.79 1375.07C1835.43 1379.45 1835.18 1383.33 1835.02 1386.72C1837.39 1386.3 1839.92 1385.96 1842.59 1385.7C1845.35 1385.34 1847.79 1385.06 1849.89 1384.86C1850.16 1386.67 1850.48 1388.47 1850.84 1390.27C1851.2 1391.97 1851.54 1393.53 1851.87 1394.94C1852.29 1396.35 1852.61 1397.62 1852.81 1398.76C1853.1 1399.79 1853.32 1400.49 1853.45 1400.87C1852.68 1400.94 1851.92 1401.01 1851.15 1401.09C1850.48 1401.05 1849.75 1401.07 1848.99 1401.15ZM1881.52 1399.77C1880.66 1399.85 1878.95 1400.16 1876.4 1400.69C1873.93 1401.12 1871.38 1401.65 1868.74 1402.29C1866.09 1402.84 1863.68 1403.36 1861.51 1403.85C1859.44 1404.34 1858.31 1404.64 1858.13 1404.76C1858.69 1400.56 1859.21 1395.93 1859.69 1390.86C1860.25 1385.7 1860.8 1380.34 1861.33 1374.79C1861.85 1369.15 1862.32 1363.46 1862.73 1357.73C1863.15 1352 1863.53 1346.47 1863.89 1341.13C1864.72 1328.71 1865.52 1315.95 1866.29 1302.86L1888.31 1297.13C1887.34 1310.14 1886.4 1322.92 1885.48 1335.45C1885.12 1340.78 1884.73 1346.32 1884.32 1352.05C1884 1357.77 1883.63 1363.45 1883.2 1369.08C1882.87 1374.71 1882.58 1380.18 1882.32 1385.51C1882.05 1390.75 1881.78 1395.5 1881.52 1399.77ZM1963.54 1316.53C1964.29 1324.37 1964.14 1331.86 1963.09 1339C1962.12 1346.04 1960.53 1352.6 1958.32 1358.7C1956.1 1364.7 1953.34 1370.17 1950.06 1375.11C1946.86 1379.95 1943.41 1384.19 1939.7 1387.82C1935.99 1391.36 1932.16 1394.19 1928.22 1396.3C1924.27 1398.32 1920.43 1399.51 1916.7 1399.86C1913.55 1400.17 1910.62 1399.87 1907.93 1398.97C1905.23 1397.97 1902.82 1396.42 1900.69 1394.31C1898.55 1392.11 1896.73 1389.24 1895.24 1385.72C1893.83 1382.09 1892.88 1377.7 1892.38 1372.54C1891.87 1367.19 1892 1361.49 1892.77 1355.43C1893.54 1349.38 1894.79 1343.33 1896.52 1337.28C1898.26 1331.23 1900.55 1325.42 1903.39 1319.84C1906.23 1314.27 1909.46 1309.28 1913.09 1304.88C1916.71 1300.39 1920.7 1296.72 1925.06 1293.9C1929.42 1291.07 1934.08 1289.41 1939.05 1288.94C1943.35 1288.53 1946.97 1289.09 1949.92 1290.64C1952.95 1292.09 1955.37 1294.17 1957.17 1296.89C1959.06 1299.51 1960.51 1302.55 1961.52 1306.02C1962.52 1309.5 1963.2 1313 1963.54 1316.53ZM1913.38 1366.77C1913.48 1367.82 1913.78 1368.9 1914.27 1370.01C1914.76 1371.12 1915.39 1372.07 1916.14 1372.87C1916.89 1373.66 1917.77 1374.35 1918.79 1374.93C1919.9 1375.4 1921.03 1375.58 1922.17 1375.47C1926.47 1375.06 1930.15 1373.21 1933.21 1369.93C1936.27 1366.65 1938.7 1362.75 1940.48 1358.24C1942.27 1353.73 1943.5 1348.98 1944.18 1344C1944.96 1339 1945.15 1334.5 1944.77 1330.49C1944.66 1329.34 1944.44 1328.11 1944.12 1326.79C1943.9 1325.46 1943.49 1324.24 1942.91 1323.14C1942.41 1322.03 1941.65 1321.14 1940.62 1320.47C1939.68 1319.69 1938.45 1319.37 1936.92 1319.52C1933.86 1319.81 1931.11 1320.85 1928.68 1322.63C1926.25 1324.4 1924.1 1326.68 1922.25 1329.46C1920.48 1332.14 1918.98 1335.18 1917.77 1338.57C1916.54 1341.87 1915.51 1345.25 1914.69 1348.7C1913.95 1352.05 1913.49 1355.33 1913.32 1358.53C1913.14 1361.73 1913.16 1364.47 1913.38 1366.77Z" fill="#FBDA00"/>
</g>
<defs>
<filter id="filter0_d" x="109.408" y="969.224" width="2305.73" height="446.782" filterUnits="userSpaceOnUse" color-interpolation-filters="sRGB">
<feFlood flood-opacity="0" result="BackgroundImageFix"/>
<feColorMatrix in="SourceAlpha" type="matrix" values="0 0 0 0 0 0 0 0 0 0 0 0 0 0 0 0 0 0 127 0" result="hardAlpha"/>
<feOffset dx="10" dy="10"/>
<feComposite in2="hardAlpha" operator="out"/>
<feColorMatrix type="matrix" values="0 0 0 0 0 0 0 0 0 0 0 0 0 0 0 0 0 0 1 0"/>
<feBlend mode="normal" in2="BackgroundImageFix" result="effect1_dropShadow"/>
<feBlend mode="normal" in="SourceGraphic" in2="effect1_dropShadow" result="shape"/>
</filter>
<filter id="filter1_d" x="573.393" y="1288.81" width="1400.61" height="249.834" filterUnits="userSpaceOnUse" color-interpolation-filters="sRGB">
<feFlood flood-opacity="0" result="BackgroundImageFix"/>
<feColorMatrix in="SourceAlpha" type="matrix" values="0 0 0 0 0 0 0 0 0 0 0 0 0 0 0 0 0 0 127 0" result="hardAlpha"/>
<feOffset dx="10" dy="10"/>
<feComposite in2="hardAlpha" operator="out"/>
<feColorMatrix type="matrix" values="0 0 0 0 0 0 0 0 0 0 0 0 0 0 0 0 0 0 1 0"/>
<feBlend mode="normal" in2="BackgroundImageFix" result="effect1_dropShadow"/>
<feBlend mode="normal" in="SourceGraphic" in2="effect1_dropShadow" result="shape"/>
</filter>
</defs>
</svg>
