<svg width="352" height="222" viewBox="0 0 352 222" fill="none" xmlns="http://www.w3.org/2000/svg">
<g filter="url(#filter0_d)">
<path d="M183.83 209.925C183.087 209.82 180.876 209.519 178.916 209.255C169.34 207.962 158.404 203.359 149.36 196.815C143.854 192.83 133.139 181.81 133.139 180.132C133.139 179.873 134.108 178.462 135.292 176.997C139.602 171.668 143.515 163.333 144.163 158.103C144.382 156.337 144.252 156.535 143.124 159.674C140.222 167.762 136.592 173.633 131.163 179.018C121.99 188.118 111.175 192.47 97.9926 192.368C92.9967 192.329 91.1361 192.115 87.5818 191.171C79.0984 188.917 72.3002 185.062 66.2686 179.085C57.5524 170.448 52.7651 159.467 52.4457 147.377L52.3465 143.612L56.9193 142.121C60.8958 140.825 65.5503 138.641 65.5503 138.072C65.5503 137.969 64.7901 138.216 63.8606 138.619C54.2078 142.813 45.1086 143.333 36.0189 140.211C24.2763 136.178 16.1669 127.328 12.9867 115.077C11.9934 111.252 11.8848 110.084 12.081 105.342C12.247 101.325 12.5853 99.0754 13.41 96.5047C16.5196 86.8098 23.3451 78.9206 32.3532 74.6091C35.4691 73.1177 40.5599 71.44 41.9691 71.44C42.1869 71.44 42.6175 72.7685 42.9268 74.3925C43.236 76.0166 44.003 78.2898 44.6318 79.4443C45.2602 80.5985 45.6481 81.1389 45.4935 80.645C42.8165 72.1034 43.6553 63.7464 47.8738 56.9337C52.1018 50.1056 61.3412 44.9626 69.3803 44.9626C75.006 44.9626 82.3249 47.9168 86.6999 51.9532C90.2112 55.1927 92.3698 58.5133 94.2225 63.5246C95.2744 66.3704 95.6591 67.0741 95.4814 65.8269C94.6816 60.2133 92.6475 55.9654 88.4252 51.0906L86.1621 48.4779L86.3937 42.5589C86.5763 37.9327 86.8894 35.7575 87.8323 32.5988C94.5441 10.1163 117.039 -2.41048 140.216 3.42773C153.688 6.82125 165.29 16.5531 171.442 29.6195C172.27 31.3781 173.025 32.7398 173.119 32.6455C173.454 32.3125 170.519 25.3304 168.962 22.7537C168.094 21.3171 167.384 19.9917 167.384 19.8083C167.384 19.2531 171.478 15.6345 174.65 13.3862C178.773 10.4644 187.079 6.61145 191.941 5.3659C197.561 3.92602 207.334 3.92644 212.642 5.3659C232.011 10.6212 242.406 28.932 236.237 46.9274C235.721 48.4308 234.913 50.4691 234.44 51.457C233.757 52.8853 233.733 53.0691 234.324 52.3552C235.827 50.5422 238.145 45.1041 238.892 41.6373C239.66 38.0779 239.663 38.0729 242.354 36.0986C248.255 31.7699 254.692 28.9726 261.84 27.6313C266.654 26.7277 275.645 26.9506 279.755 28.0754C287.074 30.079 293.873 33.8062 299.128 38.6968C303.528 42.7916 306.271 46.4444 308.71 51.457C314.466 63.283 314.774 75.7779 309.624 88.4804C308.978 90.0735 308.519 91.4457 308.603 91.5297C308.899 91.8252 312.443 84.2082 313.013 82.0493L313.591 79.8624L318.101 80.0979C323.619 80.3864 326.888 81.2238 331.743 83.5923C340.445 87.8373 346.816 95.7625 349.226 105.34C350.25 109.409 350.259 116.411 349.247 120.608C347.097 129.509 340.846 137.442 332.565 141.779C327.843 144.252 324.606 145.107 318.868 145.398C311.913 145.751 307.573 144.829 301.352 141.679C298.796 140.385 296.706 139.379 296.706 139.444C296.706 139.797 302.388 143.456 304.127 144.222C305.25 144.717 306.168 145.293 306.168 145.502C306.168 146.644 304.055 152.498 302.56 155.496C296.857 166.937 287.231 174.736 274.554 178.185C270.91 179.177 260.414 179.27 256.152 178.349C251.153 177.268 241.734 173.442 241.734 172.492C241.734 172.266 242.059 170.603 242.457 168.796C243.278 165.07 243.459 154.615 242.759 151.367C242.4 149.697 242.318 150.439 242.292 155.633C242.255 162.911 241.774 166.643 240.156 172.205C233.814 194.015 214.096 209.028 190.634 209.91C187.637 210.023 184.576 210.029 183.833 209.931L183.83 209.925ZM144.676 154.632C144.526 154.483 144.42 154.747 144.439 155.221C144.46 155.745 144.567 155.851 144.712 155.493C144.841 155.169 144.825 154.781 144.675 154.632L144.676 154.632Z" fill="white" stroke="#444444" stroke-width="4" stroke-linecap="round" stroke-linejoin="round"/>
<path d="M142.772 93.802C142.772 94.426 142.682 95.092 142.502 95.8C142.322 96.496 142.07 97.192 141.746 97.888C141.422 98.572 141.02 99.232 140.54 99.868C140.072 100.492 139.538 101.044 138.938 101.524C138.338 101.992 137.678 102.37 136.958 102.658C136.25 102.946 135.494 103.09 134.69 103.09C134.522 103.09 134.354 103.078 134.186 103.054C134.018 103.042 133.85 103.024 133.682 103C134.006 101.344 134.324 99.73 134.636 98.158C134.756 97.498 134.882 96.814 135.014 96.106C135.146 95.386 135.272 94.678 135.392 93.982C135.512 93.286 135.626 92.62 135.734 91.984C135.854 91.348 135.95 90.772 136.022 90.256C136.538 90.16 137.06 90.07 137.588 89.986C138.116 89.902 138.656 89.86 139.208 89.86C139.856 89.86 140.402 89.962 140.846 90.166C141.302 90.37 141.668 90.652 141.944 91.012C142.232 91.372 142.442 91.792 142.574 92.272C142.706 92.752 142.772 93.262 142.772 93.802ZM138.524 92.398C138.392 93.106 138.254 93.784 138.11 94.432C137.966 95.08 137.822 95.734 137.678 96.394C137.534 97.054 137.39 97.744 137.246 98.464C137.102 99.184 136.964 99.97 136.832 100.822C137.12 100.63 137.396 100.372 137.66 100.048C137.936 99.712 138.194 99.328 138.434 98.896C138.674 98.464 138.89 98.008 139.082 97.528C139.286 97.048 139.46 96.58 139.604 96.124C139.748 95.668 139.856 95.242 139.928 94.846C140.012 94.45 140.054 94.108 140.054 93.82C140.054 93.376 139.928 93.028 139.676 92.776C139.436 92.524 139.052 92.398 138.524 92.398ZM152.175 93.262C152.175 94.246 152.067 95.176 151.851 96.052C151.647 96.916 151.371 97.714 151.023 98.446C150.675 99.166 150.267 99.814 149.799 100.39C149.343 100.954 148.863 101.44 148.359 101.848C147.855 102.244 147.345 102.55 146.829 102.766C146.313 102.97 145.821 103.072 145.353 103.072C144.957 103.072 144.597 103 144.273 102.856C143.949 102.7 143.667 102.478 143.427 102.19C143.187 101.89 142.995 101.512 142.851 101.056C142.719 100.588 142.653 100.03 142.653 99.382C142.653 98.71 142.737 98.002 142.905 97.258C143.073 96.514 143.301 95.776 143.589 95.044C143.877 94.312 144.231 93.616 144.651 92.956C145.071 92.296 145.533 91.714 146.037 91.21C146.541 90.694 147.081 90.286 147.657 89.986C148.233 89.686 148.833 89.536 149.457 89.536C149.997 89.536 150.441 89.65 150.789 89.878C151.149 90.094 151.425 90.382 151.617 90.742C151.821 91.09 151.965 91.486 152.049 91.93C152.133 92.374 152.175 92.818 152.175 93.262ZM145.335 98.914C145.335 99.046 145.359 99.184 145.407 99.328C145.455 99.472 145.521 99.598 145.605 99.706C145.689 99.814 145.791 99.91 145.911 99.994C146.043 100.066 146.181 100.102 146.325 100.102C146.865 100.102 147.345 99.916 147.765 99.544C148.185 99.172 148.533 98.716 148.809 98.176C149.085 97.636 149.295 97.06 149.439 96.448C149.595 95.836 149.673 95.278 149.673 94.774C149.673 94.63 149.661 94.474 149.637 94.306C149.625 94.138 149.589 93.982 149.529 93.838C149.481 93.694 149.397 93.574 149.277 93.478C149.169 93.37 149.019 93.316 148.827 93.316C148.443 93.316 148.089 93.412 147.765 93.604C147.441 93.796 147.147 94.054 146.883 94.378C146.631 94.69 146.409 95.05 146.217 95.458C146.025 95.854 145.857 96.262 145.713 96.682C145.581 97.09 145.485 97.492 145.425 97.888C145.365 98.284 145.335 98.626 145.335 98.914ZM151.602 103.09C151.962 101.362 152.304 99.688 152.628 98.068C152.748 97.372 152.874 96.652 153.006 95.908C153.15 95.164 153.282 94.432 153.402 93.712C153.522 92.98 153.63 92.284 153.726 91.624C153.822 90.952 153.894 90.346 153.942 89.806C154.098 89.818 154.23 89.824 154.338 89.824C154.446 89.824 154.572 89.824 154.716 89.824C154.884 89.824 155.088 89.824 155.328 89.824C155.568 89.812 155.808 89.8 156.048 89.788C156.288 89.776 156.546 89.764 156.822 89.752C156.99 90.592 157.14 91.402 157.272 92.182C157.404 92.866 157.536 93.568 157.668 94.288C157.812 95.008 157.938 95.62 158.046 96.124C158.094 95.884 158.148 95.608 158.208 95.296C158.268 94.972 158.334 94.636 158.406 94.288C158.478 93.94 158.544 93.592 158.604 93.244C158.676 92.884 158.748 92.53 158.82 92.182C158.988 91.402 159.162 90.598 159.342 89.77L161.538 89.5C161.13 91.336 160.77 93.076 160.458 94.72C160.314 95.428 160.17 96.148 160.026 96.88C159.894 97.6 159.768 98.296 159.648 98.968C159.528 99.628 159.426 100.246 159.342 100.822C159.258 101.386 159.192 101.86 159.144 102.244C159.108 102.244 158.964 102.274 158.712 102.334C158.472 102.382 158.19 102.442 157.866 102.514C157.554 102.586 157.236 102.658 156.912 102.73C156.6 102.802 156.366 102.868 156.21 102.928C156.138 101.968 156.06 101.056 155.976 100.192C155.94 99.82 155.898 99.442 155.85 99.058C155.814 98.662 155.772 98.284 155.724 97.924C155.676 97.564 155.628 97.228 155.58 96.916C155.532 96.604 155.484 96.334 155.436 96.106C155.4 96.334 155.352 96.598 155.292 96.898C155.232 97.198 155.172 97.516 155.112 97.852C155.052 98.188 154.992 98.542 154.932 98.914C154.872 99.274 154.806 99.622 154.734 99.958C154.578 100.762 154.41 101.602 154.23 102.478L151.602 103.09ZM161.811 103.018C162.087 101.698 162.351 100.396 162.603 99.112C162.711 98.572 162.819 98.008 162.927 97.42C163.035 96.832 163.137 96.256 163.233 95.692C163.341 95.116 163.431 94.564 163.503 94.036C163.587 93.496 163.659 93.004 163.719 92.56C163.443 92.524 163.161 92.512 162.873 92.524C162.597 92.536 162.321 92.5 162.045 92.416C162.057 92.224 162.063 92.002 162.063 91.75C162.063 91.498 162.069 91.246 162.081 90.994C162.093 90.718 162.105 90.424 162.117 90.112C162.429 90.136 162.741 90.154 163.053 90.166C163.365 90.178 163.677 90.184 163.989 90.184C164.601 90.184 165.189 90.172 165.753 90.148C166.329 90.112 166.857 90.076 167.337 90.04C167.829 89.992 168.309 89.938 168.777 89.878L168.579 90.85C168.519 91.126 168.459 91.408 168.399 91.696C168.351 91.984 168.303 92.23 168.255 92.434C167.991 92.506 167.721 92.56 167.445 92.596C167.181 92.62 166.917 92.656 166.653 92.704C166.569 93.112 166.479 93.568 166.383 94.072C166.287 94.564 166.191 95.08 166.095 95.62C166.011 96.148 165.927 96.688 165.843 97.24C165.759 97.792 165.675 98.32 165.591 98.824C165.399 100.012 165.219 101.242 165.051 102.514L161.811 103.018ZM179.444 98.482C179.444 98.974 179.342 99.43 179.138 99.85C178.934 100.27 178.658 100.654 178.31 101.002C177.962 101.338 177.554 101.638 177.086 101.902C176.63 102.154 176.144 102.37 175.628 102.55C175.124 102.718 174.602 102.85 174.062 102.946C173.534 103.03 173.024 103.072 172.532 103.072C172.088 103.072 171.674 103.036 171.29 102.964C171.866 100.864 172.322 98.752 172.658 96.628C173.006 94.492 173.336 92.344 173.648 90.184C174.272 90.052 174.92 89.938 175.592 89.842C176.264 89.734 176.96 89.68 177.68 89.68C177.98 89.68 178.298 89.716 178.634 89.788C178.97 89.86 179.276 89.992 179.552 90.184C179.828 90.376 180.056 90.628 180.236 90.94C180.428 91.252 180.524 91.648 180.524 92.128C180.524 92.584 180.446 93.01 180.29 93.406C180.146 93.802 179.954 94.162 179.714 94.486C179.486 94.81 179.222 95.092 178.922 95.332C178.622 95.56 178.316 95.734 178.004 95.854C178.16 95.938 178.322 96.058 178.49 96.214C178.658 96.37 178.814 96.556 178.958 96.772C179.102 96.976 179.216 97.222 179.3 97.51C179.396 97.798 179.444 98.122 179.444 98.482ZM175.322 96.61C175.274 96.898 175.226 97.156 175.178 97.384C175.142 97.6 175.106 97.81 175.07 98.014C175.034 98.218 174.992 98.434 174.944 98.662C174.908 98.878 174.866 99.136 174.818 99.436C175.046 99.412 175.304 99.37 175.592 99.31C175.88 99.25 176.156 99.16 176.42 99.04C176.684 98.908 176.906 98.74 177.086 98.536C177.266 98.32 177.356 98.062 177.356 97.762C177.356 97.546 177.296 97.366 177.176 97.222C177.068 97.078 176.924 96.958 176.744 96.862C176.576 96.766 176.39 96.7 176.186 96.664C175.982 96.616 175.79 96.592 175.61 96.592C175.55 96.592 175.496 96.592 175.448 96.592C175.412 96.592 175.37 96.598 175.322 96.61ZM176.132 92.254C176.108 92.386 176.078 92.542 176.042 92.722C176.018 92.902 175.988 93.094 175.952 93.298C175.916 93.49 175.874 93.682 175.826 93.874C175.79 94.066 175.76 94.234 175.736 94.378C176 94.33 176.264 94.264 176.528 94.18C176.792 94.096 177.026 94.006 177.23 93.91C177.446 93.802 177.614 93.688 177.734 93.568C177.866 93.448 177.932 93.316 177.932 93.172C177.932 92.992 177.878 92.848 177.77 92.74C177.662 92.62 177.518 92.524 177.338 92.452C177.17 92.38 176.99 92.332 176.798 92.308C176.618 92.272 176.456 92.254 176.312 92.254H176.132ZM179.691 103.018L182.049 90.22L187.737 89.734C187.653 89.998 187.581 90.268 187.521 90.544C187.461 90.772 187.401 91.012 187.341 91.264C187.293 91.504 187.251 91.72 187.215 91.912C187.095 91.924 186.921 91.936 186.693 91.948C186.477 91.948 186.243 91.954 185.991 91.966C185.739 91.966 185.481 91.966 185.217 91.966C184.965 91.966 184.743 91.966 184.551 91.966L183.921 95.188C184.293 95.164 184.641 95.146 184.965 95.134C185.229 95.122 185.499 95.116 185.775 95.116C186.051 95.116 186.255 95.11 186.387 95.098C186.339 95.434 186.291 95.764 186.243 96.088C186.207 96.412 186.159 96.742 186.099 97.078C185.979 97.09 185.781 97.102 185.505 97.114C185.241 97.114 184.971 97.12 184.695 97.132C184.383 97.144 184.041 97.156 183.669 97.168L183.057 100.48L185.685 100.066L185.505 102.118L179.691 103.018ZM198.251 98.554C198.251 99.226 198.119 99.838 197.855 100.39C197.603 100.93 197.255 101.398 196.811 101.794C196.379 102.19 195.863 102.496 195.263 102.712C194.675 102.928 194.039 103.036 193.355 103.036C192.875 103.036 192.395 102.91 191.915 102.658C191.435 102.394 190.973 101.98 190.529 101.416L191.861 98.806C191.945 98.962 192.071 99.124 192.239 99.292C192.407 99.448 192.593 99.586 192.797 99.706C193.013 99.826 193.223 99.928 193.427 100.012C193.643 100.084 193.835 100.12 194.003 100.12C194.147 100.12 194.297 100.096 194.453 100.048C194.609 100 194.753 99.928 194.885 99.832C195.017 99.736 195.119 99.628 195.191 99.508C195.275 99.376 195.317 99.226 195.317 99.058C195.317 98.77 195.221 98.506 195.029 98.266C194.849 98.014 194.621 97.78 194.345 97.564C194.069 97.336 193.769 97.108 193.445 96.88C193.121 96.652 192.821 96.412 192.545 96.16C192.281 95.908 192.053 95.626 191.861 95.314C191.669 95.002 191.573 94.654 191.573 94.27C191.573 93.646 191.759 93.064 192.131 92.524C192.503 91.984 192.965 91.522 193.517 91.138C194.081 90.742 194.693 90.43 195.353 90.202C196.013 89.974 196.637 89.86 197.225 89.86C197.549 89.86 197.855 89.902 198.143 89.986C198.431 90.058 198.677 90.184 198.881 90.364C199.097 90.532 199.265 90.748 199.385 91.012C199.517 91.276 199.583 91.606 199.583 92.002C199.583 92.17 199.565 92.338 199.529 92.506C199.505 92.674 199.481 92.854 199.457 93.046L196.847 93.802C196.871 93.706 196.889 93.61 196.901 93.514C196.925 93.418 196.937 93.322 196.937 93.226C196.937 92.866 196.871 92.608 196.739 92.452C196.619 92.284 196.457 92.2 196.253 92.2C196.157 92.2 196.037 92.236 195.893 92.308C195.761 92.38 195.623 92.476 195.479 92.596C195.347 92.704 195.233 92.836 195.137 92.992C195.041 93.148 194.993 93.316 194.993 93.496C194.993 93.784 195.071 94.024 195.227 94.216C195.395 94.408 195.599 94.588 195.839 94.756C196.079 94.924 196.337 95.098 196.613 95.278C196.901 95.446 197.165 95.668 197.405 95.944C197.645 96.22 197.843 96.568 197.999 96.988C198.167 97.396 198.251 97.918 198.251 98.554ZM198.696 103.036C199.032 101.356 199.356 99.718 199.668 98.122C199.788 97.438 199.914 96.73 200.046 95.998C200.178 95.254 200.298 94.522 200.406 93.802C200.526 93.082 200.634 92.386 200.73 91.714C200.838 91.03 200.922 90.412 200.982 89.86C201.258 89.872 201.51 89.89 201.738 89.914C201.978 89.926 202.212 89.938 202.44 89.95C202.668 89.962 202.896 89.974 203.124 89.986C203.364 89.986 203.622 89.986 203.898 89.986C203.694 90.838 203.49 91.69 203.286 92.542C203.094 93.394 202.914 94.252 202.746 95.116L204.528 94.918C204.696 94.066 204.846 93.244 204.978 92.452C205.11 91.648 205.284 90.82 205.5 89.968C205.776 89.92 206.082 89.884 206.418 89.86C206.754 89.824 207.066 89.794 207.354 89.77C207.642 89.746 207.882 89.728 208.074 89.716C208.278 89.692 208.38 89.68 208.38 89.68C208.212 90.22 208.05 90.814 207.894 91.462C207.75 92.098 207.606 92.764 207.462 93.46C207.318 94.144 207.18 94.84 207.048 95.548C206.916 96.256 206.796 96.928 206.688 97.564C206.424 99.088 206.178 100.648 205.95 102.244L203.142 102.568C203.298 101.848 203.436 101.146 203.556 100.462C203.676 99.886 203.796 99.286 203.916 98.662C204.048 98.038 204.15 97.504 204.222 97.06L202.476 97.222C202.392 97.678 202.29 98.206 202.17 98.806C202.062 99.406 201.96 99.976 201.864 100.516C201.732 101.164 201.6 101.812 201.468 102.46L198.696 103.036ZM208.423 102.73L209.251 99.112C209.251 98.596 209.239 98.038 209.215 97.438C209.203 96.826 209.179 96.214 209.143 95.602C209.107 94.99 209.071 94.402 209.035 93.838C208.999 93.262 208.969 92.758 208.945 92.326C208.921 91.882 208.897 91.528 208.873 91.264C208.849 91 208.837 90.868 208.837 90.868L211.771 89.752V91.948C211.771 92.248 211.771 92.554 211.771 92.866C211.771 93.178 211.765 93.484 211.753 93.784C211.753 94.084 211.753 94.366 211.753 94.63C211.753 94.894 211.753 95.116 211.753 95.296C211.909 94.888 212.095 94.384 212.311 93.784C212.539 93.184 212.749 92.602 212.941 92.038C213.169 91.378 213.403 90.682 213.643 89.95L216.433 90.58C215.917 91.612 215.413 92.638 214.921 93.658C214.717 94.102 214.501 94.564 214.273 95.044C214.045 95.512 213.817 95.986 213.589 96.466C213.361 96.934 213.139 97.39 212.923 97.834C212.707 98.278 212.509 98.692 212.329 99.076C212.269 99.388 212.191 99.73 212.095 100.102C212.011 100.474 211.927 100.828 211.843 101.164C211.735 101.56 211.621 101.956 211.501 102.352L208.423 102.73ZM218.229 101.56C218.229 101.788 218.175 102.016 218.067 102.244C217.971 102.472 217.827 102.676 217.635 102.856C217.443 103.024 217.203 103.156 216.915 103.252C216.627 103.36 216.297 103.414 215.925 103.414C215.673 103.414 215.445 103.366 215.241 103.27C215.037 103.174 214.869 103.048 214.737 102.892C214.617 102.724 214.521 102.538 214.449 102.334C214.377 102.13 214.341 101.926 214.341 101.722C214.341 101.494 214.377 101.278 214.449 101.074C214.521 100.858 214.629 100.672 214.773 100.516C214.929 100.348 215.115 100.21 215.331 100.102C215.559 99.994 215.829 99.94 216.141 99.94C216.837 99.94 217.359 100.108 217.707 100.444C218.055 100.768 218.229 101.14 218.229 101.56ZM222.531 101.56C222.531 101.788 222.477 102.016 222.369 102.244C222.273 102.472 222.129 102.676 221.937 102.856C221.745 103.024 221.505 103.156 221.217 103.252C220.929 103.36 220.599 103.414 220.227 103.414C219.975 103.414 219.747 103.366 219.543 103.27C219.339 103.174 219.171 103.048 219.039 102.892C218.919 102.724 218.823 102.538 218.751 102.334C218.679 102.13 218.643 101.926 218.643 101.722C218.643 101.494 218.679 101.278 218.751 101.074C218.823 100.858 218.931 100.672 219.075 100.516C219.231 100.348 219.417 100.21 219.633 100.102C219.861 99.994 220.131 99.94 220.443 99.94C221.139 99.94 221.661 100.108 222.009 100.444C222.357 100.768 222.531 101.14 222.531 101.56ZM226.833 101.56C226.833 101.788 226.779 102.016 226.671 102.244C226.575 102.472 226.431 102.676 226.239 102.856C226.047 103.024 225.807 103.156 225.519 103.252C225.231 103.36 224.901 103.414 224.529 103.414C224.277 103.414 224.049 103.366 223.845 103.27C223.641 103.174 223.473 103.048 223.341 102.892C223.221 102.724 223.125 102.538 223.053 102.334C222.981 102.13 222.945 101.926 222.945 101.722C222.945 101.494 222.981 101.278 223.053 101.074C223.125 100.858 223.233 100.672 223.377 100.516C223.533 100.348 223.719 100.21 223.935 100.102C224.163 99.994 224.433 99.94 224.745 99.94C225.441 99.94 225.963 100.108 226.311 100.444C226.659 100.768 226.833 101.14 226.833 101.56ZM120.956 122.072L122.324 109.292C122.888 109.268 123.416 109.214 123.908 109.13C124.412 109.034 124.91 108.968 125.402 108.932C125.402 108.944 125.384 109.07 125.348 109.31C125.312 109.538 125.264 109.844 125.204 110.228C125.144 110.6 125.078 111.026 125.006 111.506C124.934 111.974 124.826 112.622 124.682 113.45C124.55 114.278 124.37 115.424 124.142 116.888H124.412C124.724 115.784 124.982 114.884 125.186 114.188C125.39 113.48 125.552 112.91 125.672 112.478C125.804 112.034 125.924 111.608 126.032 111.2C126.152 110.792 126.26 110.414 126.356 110.066C126.464 109.718 126.548 109.424 126.608 109.184H126.77C126.986 109.184 127.202 109.172 127.418 109.148C127.646 109.124 127.856 109.1 128.048 109.076C128.252 109.04 128.462 108.998 128.678 108.95C128.654 109.058 128.624 109.28 128.588 109.616C128.564 109.952 128.528 110.36 128.48 110.84C128.432 111.308 128.384 111.83 128.336 112.406C128.288 112.97 128.24 113.528 128.192 114.08C128.144 114.62 128.096 115.136 128.048 115.628C128.012 116.12 127.976 116.54 127.94 116.888H128.264L129.974 109.148C130.382 109.088 130.784 109.034 131.18 108.986C131.528 108.938 131.888 108.89 132.26 108.842C132.632 108.794 132.962 108.74 133.25 108.68C133.07 109.184 132.89 109.748 132.71 110.372C132.53 110.984 132.344 111.632 132.152 112.316C131.96 113 131.774 113.69 131.594 114.386C131.426 115.082 131.258 115.754 131.09 116.402C130.706 117.938 130.334 119.516 129.974 121.136L125.906 121.82L126.698 114.872H126.482L124.7 121.406L120.956 122.072ZM131.64 122.018C131.964 120.422 132.276 118.862 132.576 117.338C132.684 116.69 132.804 116.018 132.936 115.322C133.068 114.614 133.188 113.918 133.296 113.234C133.416 112.538 133.524 111.872 133.62 111.236C133.728 110.588 133.812 110 133.872 109.472C134.556 109.256 135.294 109.1 136.086 109.004C136.878 108.896 137.664 108.842 138.444 108.842C138.912 108.842 139.296 108.896 139.596 109.004C139.908 109.112 140.148 109.268 140.316 109.472C140.496 109.664 140.622 109.892 140.694 110.156C140.766 110.42 140.802 110.714 140.802 111.038C140.802 111.518 140.718 111.992 140.55 112.46C140.382 112.916 140.154 113.354 139.866 113.774C139.59 114.182 139.266 114.56 138.894 114.908C138.534 115.244 138.144 115.52 137.724 115.736C137.94 116.216 138.168 116.744 138.408 117.32C138.66 117.884 138.894 118.424 139.11 118.94C139.35 119.54 139.596 120.14 139.848 120.74L137.058 121.712C136.818 120.944 136.602 120.224 136.41 119.552C136.326 119.276 136.242 118.994 136.158 118.706C136.074 118.406 135.996 118.124 135.924 117.86C135.852 117.596 135.792 117.362 135.744 117.158C135.696 116.942 135.666 116.768 135.654 116.636L135.42 116.708C135.348 117.092 135.258 117.542 135.15 118.058C135.054 118.574 134.964 119.072 134.88 119.552C134.772 120.116 134.664 120.686 134.556 121.262L131.64 122.018ZM135.87 114.206C136.098 114.182 136.374 114.086 136.698 113.918C137.034 113.75 137.352 113.552 137.652 113.324C137.952 113.084 138.21 112.838 138.426 112.586C138.642 112.334 138.75 112.112 138.75 111.92C138.75 111.788 138.708 111.686 138.624 111.614C138.54 111.53 138.42 111.47 138.264 111.434C138.12 111.386 137.958 111.356 137.778 111.344C137.598 111.332 137.412 111.326 137.22 111.326C137.088 111.326 136.95 111.332 136.806 111.344C136.674 111.344 136.554 111.344 136.446 111.344L135.87 114.206ZM143.166 121.64C143.058 121.64 142.842 121.658 142.518 121.694C142.206 121.718 141.882 121.754 141.546 121.802C141.21 121.838 140.904 121.874 140.628 121.91C140.364 121.946 140.22 121.97 140.196 121.982C140.316 121.466 140.436 120.896 140.556 120.272C140.688 119.636 140.82 118.976 140.952 118.292C141.084 117.596 141.21 116.894 141.33 116.186C141.45 115.478 141.564 114.794 141.672 114.134C141.924 112.598 142.176 111.02 142.428 109.4L145.236 108.95C144.96 110.558 144.69 112.136 144.426 113.684C144.318 114.344 144.204 115.028 144.084 115.736C143.976 116.444 143.862 117.146 143.742 117.842C143.634 118.538 143.532 119.216 143.436 119.876C143.34 120.524 143.25 121.112 143.166 121.64ZM145.905 122.018C146.181 120.698 146.445 119.396 146.697 118.112C146.805 117.572 146.913 117.008 147.021 116.42C147.129 115.832 147.231 115.256 147.327 114.692C147.435 114.116 147.525 113.564 147.597 113.036C147.681 112.496 147.753 112.004 147.813 111.56C147.537 111.524 147.255 111.512 146.967 111.524C146.691 111.536 146.415 111.5 146.139 111.416C146.151 111.224 146.157 111.002 146.157 110.75C146.157 110.498 146.163 110.246 146.175 109.994C146.187 109.718 146.199 109.424 146.211 109.112C146.523 109.136 146.835 109.154 147.147 109.166C147.459 109.178 147.771 109.184 148.083 109.184C148.695 109.184 149.283 109.172 149.847 109.148C150.423 109.112 150.951 109.076 151.431 109.04C151.923 108.992 152.403 108.938 152.871 108.878L152.673 109.85C152.613 110.126 152.553 110.408 152.493 110.696C152.445 110.984 152.397 111.23 152.349 111.434C152.085 111.506 151.815 111.56 151.539 111.596C151.275 111.62 151.011 111.656 150.747 111.704C150.663 112.112 150.573 112.568 150.477 113.072C150.381 113.564 150.285 114.08 150.189 114.62C150.105 115.148 150.021 115.688 149.937 116.24C149.853 116.792 149.769 117.32 149.685 117.824C149.493 119.012 149.313 120.242 149.145 121.514L145.905 122.018ZM151.49 122.018L153.848 109.22L159.536 108.734C159.452 108.998 159.38 109.268 159.32 109.544C159.26 109.772 159.2 110.012 159.14 110.264C159.092 110.504 159.05 110.72 159.014 110.912C158.894 110.924 158.72 110.936 158.492 110.948C158.276 110.948 158.042 110.954 157.79 110.966C157.538 110.966 157.28 110.966 157.016 110.966C156.764 110.966 156.542 110.966 156.35 110.966L155.72 114.188C156.092 114.164 156.44 114.146 156.764 114.134C157.028 114.122 157.298 114.116 157.574 114.116C157.85 114.116 158.054 114.11 158.186 114.098C158.138 114.434 158.09 114.764 158.042 115.088C158.006 115.412 157.958 115.742 157.898 116.078C157.778 116.09 157.58 116.102 157.304 116.114C157.04 116.114 156.77 116.12 156.494 116.132C156.182 116.144 155.84 116.156 155.468 116.168L154.856 119.48L157.484 119.066L157.304 121.118L151.49 122.018ZM170.051 117.554C170.051 118.226 169.919 118.838 169.655 119.39C169.403 119.93 169.055 120.398 168.611 120.794C168.179 121.19 167.663 121.496 167.063 121.712C166.475 121.928 165.839 122.036 165.155 122.036C164.675 122.036 164.195 121.91 163.715 121.658C163.235 121.394 162.773 120.98 162.329 120.416L163.661 117.806C163.745 117.962 163.871 118.124 164.039 118.292C164.207 118.448 164.393 118.586 164.597 118.706C164.813 118.826 165.023 118.928 165.227 119.012C165.443 119.084 165.635 119.12 165.803 119.12C165.947 119.12 166.097 119.096 166.253 119.048C166.409 119 166.553 118.928 166.685 118.832C166.817 118.736 166.919 118.628 166.991 118.508C167.075 118.376 167.117 118.226 167.117 118.058C167.117 117.77 167.021 117.506 166.829 117.266C166.649 117.014 166.421 116.78 166.145 116.564C165.869 116.336 165.569 116.108 165.245 115.88C164.921 115.652 164.621 115.412 164.345 115.16C164.081 114.908 163.853 114.626 163.661 114.314C163.469 114.002 163.373 113.654 163.373 113.27C163.373 112.646 163.559 112.064 163.931 111.524C164.303 110.984 164.765 110.522 165.317 110.138C165.881 109.742 166.493 109.43 167.153 109.202C167.813 108.974 168.437 108.86 169.025 108.86C169.349 108.86 169.655 108.902 169.943 108.986C170.231 109.058 170.477 109.184 170.681 109.364C170.897 109.532 171.065 109.748 171.185 110.012C171.317 110.276 171.383 110.606 171.383 111.002C171.383 111.17 171.365 111.338 171.329 111.506C171.305 111.674 171.281 111.854 171.257 112.046L168.647 112.802C168.671 112.706 168.689 112.61 168.701 112.514C168.725 112.418 168.737 112.322 168.737 112.226C168.737 111.866 168.671 111.608 168.539 111.452C168.419 111.284 168.257 111.2 168.053 111.2C167.957 111.2 167.837 111.236 167.693 111.308C167.561 111.38 167.423 111.476 167.279 111.596C167.147 111.704 167.033 111.836 166.937 111.992C166.841 112.148 166.793 112.316 166.793 112.496C166.793 112.784 166.871 113.024 167.027 113.216C167.195 113.408 167.399 113.588 167.639 113.756C167.879 113.924 168.137 114.098 168.413 114.278C168.701 114.446 168.965 114.668 169.205 114.944C169.445 115.22 169.643 115.568 169.799 115.988C169.967 116.396 170.051 116.918 170.051 117.554ZM180.431 112.262C180.431 113.246 180.323 114.176 180.107 115.052C179.903 115.916 179.627 116.714 179.279 117.446C178.931 118.166 178.523 118.814 178.055 119.39C177.599 119.954 177.119 120.44 176.615 120.848C176.111 121.244 175.601 121.55 175.085 121.766C174.569 121.97 174.077 122.072 173.609 122.072C173.213 122.072 172.853 122 172.529 121.856C172.205 121.7 171.923 121.478 171.683 121.19C171.443 120.89 171.251 120.512 171.107 120.056C170.975 119.588 170.909 119.03 170.909 118.382C170.909 117.71 170.993 117.002 171.161 116.258C171.329 115.514 171.557 114.776 171.845 114.044C172.133 113.312 172.487 112.616 172.907 111.956C173.327 111.296 173.789 110.714 174.293 110.21C174.797 109.694 175.337 109.286 175.913 108.986C176.489 108.686 177.089 108.536 177.713 108.536C178.253 108.536 178.697 108.65 179.045 108.878C179.405 109.094 179.681 109.382 179.873 109.742C180.077 110.09 180.221 110.486 180.305 110.93C180.389 111.374 180.431 111.818 180.431 112.262ZM173.591 117.914C173.591 118.046 173.615 118.184 173.663 118.328C173.711 118.472 173.777 118.598 173.861 118.706C173.945 118.814 174.047 118.91 174.167 118.994C174.299 119.066 174.437 119.102 174.581 119.102C175.121 119.102 175.601 118.916 176.021 118.544C176.441 118.172 176.789 117.716 177.065 117.176C177.341 116.636 177.551 116.06 177.695 115.448C177.851 114.836 177.929 114.278 177.929 113.774C177.929 113.63 177.917 113.474 177.893 113.306C177.881 113.138 177.845 112.982 177.785 112.838C177.737 112.694 177.653 112.574 177.533 112.478C177.425 112.37 177.275 112.316 177.083 112.316C176.699 112.316 176.345 112.412 176.021 112.604C175.697 112.796 175.403 113.054 175.139 113.378C174.887 113.69 174.665 114.05 174.473 114.458C174.281 114.854 174.113 115.262 173.969 115.682C173.837 116.09 173.741 116.492 173.681 116.888C173.621 117.284 173.591 117.626 173.591 117.914ZM179.228 121.892C179.756 120.296 180.26 118.73 180.74 117.194C180.944 116.546 181.154 115.868 181.37 115.16C181.586 114.452 181.802 113.75 182.018 113.054C182.234 112.358 182.432 111.686 182.612 111.038C182.804 110.39 182.972 109.79 183.116 109.238C183.776 109.238 184.4 109.202 184.988 109.13C185.576 109.058 186.212 108.992 186.896 108.932C186.86 109.196 186.818 109.496 186.77 109.832C186.734 110.156 186.686 110.498 186.626 110.858C186.578 111.218 186.524 111.59 186.464 111.974C186.404 112.358 186.332 112.85 186.248 113.45C186.164 114.05 186.05 114.8 185.906 115.7H186.14C186.488 114.788 186.776 114.032 187.004 113.432C187.232 112.82 187.418 112.322 187.562 111.938C187.706 111.554 187.85 111.182 187.994 110.822C188.15 110.45 188.294 110.102 188.426 109.778C188.57 109.442 188.702 109.148 188.822 108.896C189.122 108.872 189.404 108.842 189.668 108.806C189.932 108.77 190.196 108.734 190.46 108.698C190.724 108.65 190.988 108.608 191.252 108.572C191.528 108.524 191.828 108.47 192.152 108.41C192.032 109.106 191.918 109.82 191.81 110.552C191.702 111.284 191.606 112.016 191.522 112.748C191.438 113.468 191.354 114.182 191.27 114.89C191.198 115.598 191.132 116.27 191.072 116.906C190.928 118.394 190.802 119.846 190.694 121.262L187.562 121.82C187.562 121.76 187.568 121.598 187.58 121.334C187.604 121.07 187.628 120.746 187.652 120.362C187.688 119.978 187.73 119.552 187.778 119.084C187.838 118.616 187.892 118.148 187.94 117.68C188 117.212 188.06 116.762 188.12 116.33C188.18 115.886 188.24 115.508 188.3 115.196H188.138C187.97 115.7 187.784 116.234 187.58 116.798C187.376 117.35 187.166 117.914 186.95 118.49C186.746 119.066 186.542 119.63 186.338 120.182C186.134 120.734 185.954 121.262 185.798 121.766C185.378 121.778 185.018 121.796 184.718 121.82C184.418 121.832 184.07 121.85 183.674 121.874L184.25 115.196H183.98C183.956 115.352 183.896 115.616 183.8 115.988C183.704 116.348 183.59 116.768 183.458 117.248C183.338 117.716 183.206 118.208 183.062 118.724C182.918 119.228 182.78 119.702 182.648 120.146C182.528 120.578 182.426 120.938 182.342 121.226C182.258 121.502 182.21 121.658 182.198 121.694L179.228 121.892ZM191.597 122.018L193.955 109.22L199.643 108.734C199.559 108.998 199.487 109.268 199.427 109.544C199.367 109.772 199.307 110.012 199.247 110.264C199.199 110.504 199.157 110.72 199.121 110.912C199.001 110.924 198.827 110.936 198.599 110.948C198.383 110.948 198.149 110.954 197.897 110.966C197.645 110.966 197.387 110.966 197.123 110.966C196.871 110.966 196.649 110.966 196.457 110.966L195.827 114.188C196.199 114.164 196.547 114.146 196.871 114.134C197.135 114.122 197.405 114.116 197.681 114.116C197.957 114.116 198.161 114.11 198.293 114.098C198.245 114.434 198.197 114.764 198.149 115.088C198.113 115.412 198.065 115.742 198.005 116.078C197.885 116.09 197.687 116.102 197.411 116.114C197.147 116.114 196.877 116.12 196.601 116.132C196.289 116.144 195.947 116.156 195.575 116.168L194.963 119.48L197.591 119.066L197.411 121.118L191.597 122.018ZM199.747 122.018C200.023 120.698 200.287 119.396 200.539 118.112C200.647 117.572 200.755 117.008 200.863 116.42C200.971 115.832 201.073 115.256 201.169 114.692C201.277 114.116 201.367 113.564 201.439 113.036C201.523 112.496 201.595 112.004 201.655 111.56C201.379 111.524 201.097 111.512 200.809 111.524C200.533 111.536 200.257 111.5 199.981 111.416C199.993 111.224 199.999 111.002 199.999 110.75C199.999 110.498 200.005 110.246 200.017 109.994C200.029 109.718 200.041 109.424 200.053 109.112C200.365 109.136 200.677 109.154 200.989 109.166C201.301 109.178 201.613 109.184 201.925 109.184C202.537 109.184 203.125 109.172 203.689 109.148C204.265 109.112 204.793 109.076 205.273 109.04C205.765 108.992 206.245 108.938 206.713 108.878L206.515 109.85C206.455 110.126 206.395 110.408 206.335 110.696C206.287 110.984 206.239 111.23 206.191 111.434C205.927 111.506 205.657 111.56 205.381 111.596C205.117 111.62 204.853 111.656 204.589 111.704C204.505 112.112 204.415 112.568 204.319 113.072C204.223 113.564 204.127 114.08 204.031 114.62C203.947 115.148 203.863 115.688 203.779 116.24C203.695 116.792 203.611 117.32 203.527 117.824C203.335 119.012 203.155 120.242 202.987 121.514L199.747 122.018ZM205.333 122.036C205.669 120.356 205.993 118.718 206.305 117.122C206.425 116.438 206.551 115.73 206.683 114.998C206.815 114.254 206.935 113.522 207.043 112.802C207.163 112.082 207.271 111.386 207.367 110.714C207.475 110.03 207.559 109.412 207.619 108.86C207.895 108.872 208.147 108.89 208.375 108.914C208.615 108.926 208.849 108.938 209.077 108.95C209.305 108.962 209.533 108.974 209.761 108.986C210.001 108.986 210.259 108.986 210.535 108.986C210.331 109.838 210.127 110.69 209.923 111.542C209.731 112.394 209.551 113.252 209.383 114.116L211.165 113.918C211.333 113.066 211.483 112.244 211.615 111.452C211.747 110.648 211.921 109.82 212.137 108.968C212.413 108.92 212.719 108.884 213.055 108.86C213.391 108.824 213.703 108.794 213.991 108.77C214.279 108.746 214.519 108.728 214.711 108.716C214.915 108.692 215.017 108.68 215.017 108.68C214.849 109.22 214.687 109.814 214.531 110.462C214.387 111.098 214.243 111.764 214.099 112.46C213.955 113.144 213.817 113.84 213.685 114.548C213.553 115.256 213.433 115.928 213.325 116.564C213.061 118.088 212.815 119.648 212.587 121.244L209.779 121.568C209.935 120.848 210.073 120.146 210.193 119.462C210.313 118.886 210.433 118.286 210.553 117.662C210.685 117.038 210.787 116.504 210.859 116.06L209.113 116.222C209.029 116.678 208.927 117.206 208.807 117.806C208.699 118.406 208.597 118.976 208.501 119.516C208.369 120.164 208.237 120.812 208.105 121.46L205.333 122.036ZM216.734 121.64C216.626 121.64 216.41 121.658 216.086 121.694C215.774 121.718 215.45 121.754 215.114 121.802C214.778 121.838 214.472 121.874 214.196 121.91C213.932 121.946 213.788 121.97 213.764 121.982C213.884 121.466 214.004 120.896 214.124 120.272C214.256 119.636 214.388 118.976 214.52 118.292C214.652 117.596 214.778 116.894 214.898 116.186C215.018 115.478 215.132 114.794 215.24 114.134C215.492 112.598 215.744 111.02 215.996 109.4L218.804 108.95C218.528 110.558 218.258 112.136 217.994 113.684C217.886 114.344 217.772 115.028 217.652 115.736C217.544 116.444 217.43 117.146 217.31 117.842C217.202 118.538 217.1 119.216 217.004 119.876C216.908 120.524 216.818 121.112 216.734 121.64ZM217.943 122.09C218.303 120.362 218.645 118.688 218.969 117.068C219.089 116.372 219.215 115.652 219.347 114.908C219.491 114.164 219.623 113.432 219.743 112.712C219.863 111.98 219.971 111.284 220.067 110.624C220.163 109.952 220.235 109.346 220.283 108.806C220.439 108.818 220.571 108.824 220.679 108.824C220.787 108.824 220.913 108.824 221.057 108.824C221.225 108.824 221.429 108.824 221.669 108.824C221.909 108.812 222.149 108.8 222.389 108.788C222.629 108.776 222.887 108.764 223.163 108.752C223.331 109.592 223.481 110.402 223.613 111.182C223.745 111.866 223.877 112.568 224.009 113.288C224.153 114.008 224.279 114.62 224.387 115.124C224.435 114.884 224.489 114.608 224.549 114.296C224.609 113.972 224.675 113.636 224.747 113.288C224.819 112.94 224.885 112.592 224.945 112.244C225.017 111.884 225.089 111.53 225.161 111.182C225.329 110.402 225.503 109.598 225.683 108.77L227.879 108.5C227.471 110.336 227.111 112.076 226.799 113.72C226.655 114.428 226.511 115.148 226.367 115.88C226.235 116.6 226.109 117.296 225.989 117.968C225.869 118.628 225.767 119.246 225.683 119.822C225.599 120.386 225.533 120.86 225.485 121.244C225.449 121.244 225.305 121.274 225.053 121.334C224.813 121.382 224.531 121.442 224.207 121.514C223.895 121.586 223.577 121.658 223.253 121.73C222.941 121.802 222.707 121.868 222.551 121.928C222.479 120.968 222.401 120.056 222.317 119.192C222.281 118.82 222.239 118.442 222.191 118.058C222.155 117.662 222.113 117.284 222.065 116.924C222.017 116.564 221.969 116.228 221.921 115.916C221.873 115.604 221.825 115.334 221.777 115.106C221.741 115.334 221.693 115.598 221.633 115.898C221.573 116.198 221.513 116.516 221.453 116.852C221.393 117.188 221.333 117.542 221.273 117.914C221.213 118.274 221.147 118.622 221.075 118.958C220.919 119.762 220.751 120.602 220.571 121.478L217.943 122.09ZM236.323 115.142C236.239 116.366 235.999 117.434 235.603 118.346C235.207 119.246 234.727 120.002 234.163 120.614C233.611 121.226 233.011 121.682 232.363 121.982C231.727 122.282 231.121 122.432 230.545 122.432C230.101 122.432 229.675 122.336 229.267 122.144C228.871 121.952 228.523 121.664 228.223 121.28C227.935 120.884 227.707 120.392 227.539 119.804C227.371 119.216 227.287 118.526 227.287 117.734C227.287 116.186 227.509 114.836 227.953 113.684C228.397 112.532 228.955 111.572 229.627 110.804C230.311 110.036 231.037 109.466 231.805 109.094C232.585 108.722 233.311 108.536 233.983 108.536C234.463 108.536 234.877 108.62 235.225 108.788C235.585 108.956 235.879 109.184 236.107 109.472C236.335 109.748 236.497 110.078 236.593 110.462C236.701 110.834 236.755 111.23 236.755 111.65L234.289 112.118C234.181 111.638 234.037 111.296 233.857 111.092C233.677 110.888 233.473 110.786 233.245 110.786C232.945 110.786 232.615 111.002 232.255 111.434C231.895 111.854 231.559 112.4 231.247 113.072C230.935 113.744 230.671 114.482 230.455 115.286C230.239 116.09 230.119 116.882 230.095 117.662C230.095 118.406 230.203 118.94 230.419 119.264C230.647 119.576 230.935 119.732 231.283 119.732C231.523 119.732 231.769 119.672 232.021 119.552C232.285 119.432 232.519 119.264 232.723 119.048C232.927 118.82 233.095 118.562 233.227 118.274C233.371 117.974 233.449 117.65 233.461 117.302L231.535 117.59L231.877 115.808C232.441 115.736 232.993 115.664 233.533 115.592C233.989 115.532 234.469 115.46 234.973 115.376C235.489 115.292 235.939 115.214 236.323 115.142ZM239.69 117.734C239.342 117.734 238.994 117.746 238.646 117.77C238.298 117.794 237.95 117.818 237.602 117.842C237.974 116.366 238.334 114.896 238.682 113.432C239.042 111.968 239.414 110.498 239.798 109.022C240.026 108.986 240.284 108.95 240.572 108.914C240.872 108.878 241.172 108.836 241.472 108.788C241.772 108.74 242.06 108.698 242.336 108.662C242.624 108.626 242.864 108.59 243.056 108.554C242.408 110.066 241.814 111.59 241.274 113.126C240.746 114.65 240.218 116.186 239.69 117.734ZM239.87 120.56C239.87 120.788 239.816 121.016 239.708 121.244C239.612 121.472 239.468 121.676 239.276 121.856C239.084 122.024 238.844 122.156 238.556 122.252C238.268 122.36 237.938 122.414 237.566 122.414C237.314 122.414 237.086 122.366 236.882 122.27C236.678 122.174 236.51 122.048 236.378 121.892C236.258 121.724 236.162 121.538 236.09 121.334C236.018 121.13 235.982 120.926 235.982 120.722C235.982 120.494 236.018 120.278 236.09 120.074C236.162 119.858 236.27 119.672 236.414 119.516C236.57 119.348 236.756 119.21 236.972 119.102C237.2 118.994 237.47 118.94 237.782 118.94C238.478 118.94 239 119.108 239.348 119.444C239.696 119.768 239.87 120.14 239.87 120.56Z" fill="#444444"/>
</g>
<defs>
<filter id="filter0_d" x="0" y="0.000244141" width="352" height="222" filterUnits="userSpaceOnUse" color-interpolation-filters="sRGB">
<feFlood flood-opacity="0" result="BackgroundImageFix"/>
<feColorMatrix in="SourceAlpha" type="matrix" values="0 0 0 0 0 0 0 0 0 0 0 0 0 0 0 0 0 0 127 0" result="hardAlpha"/>
<feOffset dx="-10" dy="10"/>
<feComposite in2="hardAlpha" operator="out"/>
<feColorMatrix type="matrix" values="0 0 0 0 0.266667 0 0 0 0 0.266667 0 0 0 0 0.266667 0 0 0 1 0"/>
<feBlend mode="normal" in2="BackgroundImageFix" result="effect1_dropShadow"/>
<feBlend mode="normal" in="SourceGraphic" in2="effect1_dropShadow" result="shape"/>
</filter>
</defs>
</svg>
