<svg width="352" height="222" viewBox="0 0 352 222" fill="none" xmlns="http://www.w3.org/2000/svg">
<g filter="url(#filter0_d)">
<path d="M183.83 209.925C183.087 209.82 180.876 209.519 178.916 209.255C169.34 207.962 158.404 203.359 149.36 196.815C143.854 192.83 133.139 181.81 133.139 180.132C133.139 179.873 134.108 178.462 135.292 176.997C139.602 171.668 143.515 163.333 144.163 158.103C144.382 156.337 144.252 156.535 143.124 159.674C140.222 167.762 136.592 173.633 131.163 179.018C121.99 188.118 111.175 192.47 97.9926 192.368C92.9967 192.329 91.1361 192.115 87.5818 191.171C79.0984 188.917 72.3002 185.062 66.2686 179.085C57.5524 170.448 52.7651 159.467 52.4457 147.377L52.3465 143.612L56.9193 142.121C60.8958 140.825 65.5503 138.641 65.5503 138.072C65.5503 137.969 64.7901 138.216 63.8606 138.619C54.2078 142.813 45.1086 143.333 36.0189 140.211C24.2763 136.178 16.1669 127.328 12.9867 115.077C11.9934 111.252 11.8848 110.084 12.081 105.342C12.247 101.325 12.5853 99.0754 13.41 96.5047C16.5196 86.8098 23.3451 78.9206 32.3532 74.6091C35.4691 73.1177 40.5599 71.44 41.9691 71.44C42.1869 71.44 42.6175 72.7685 42.9268 74.3925C43.236 76.0166 44.003 78.2898 44.6318 79.4443C45.2602 80.5985 45.6481 81.1389 45.4935 80.645C42.8165 72.1034 43.6553 63.7464 47.8738 56.9337C52.1018 50.1056 61.3412 44.9626 69.3803 44.9626C75.006 44.9626 82.3249 47.9168 86.6999 51.9532C90.2112 55.1927 92.3698 58.5133 94.2225 63.5246C95.2744 66.3704 95.6591 67.0741 95.4814 65.8269C94.6816 60.2133 92.6475 55.9654 88.4252 51.0906L86.1621 48.4779L86.3937 42.5589C86.5763 37.9327 86.8894 35.7575 87.8323 32.5988C94.5441 10.1163 117.039 -2.41048 140.216 3.42773C153.688 6.82125 165.29 16.5531 171.442 29.6195C172.27 31.3781 173.025 32.7398 173.119 32.6455C173.454 32.3125 170.519 25.3304 168.962 22.7537C168.094 21.3171 167.384 19.9917 167.384 19.8083C167.384 19.2531 171.478 15.6345 174.65 13.3862C178.773 10.4644 187.079 6.61145 191.941 5.3659C197.561 3.92602 207.334 3.92644 212.642 5.3659C232.011 10.6212 242.406 28.932 236.237 46.9274C235.721 48.4308 234.913 50.4691 234.44 51.457C233.757 52.8853 233.733 53.0691 234.324 52.3552C235.827 50.5422 238.145 45.1041 238.892 41.6373C239.66 38.0779 239.663 38.0729 242.354 36.0986C248.255 31.7699 254.692 28.9726 261.84 27.6313C266.654 26.7277 275.645 26.9506 279.755 28.0754C287.074 30.079 293.873 33.8062 299.128 38.6968C303.528 42.7916 306.271 46.4444 308.71 51.457C314.466 63.283 314.774 75.7779 309.624 88.4804C308.978 90.0735 308.519 91.4457 308.603 91.5297C308.899 91.8252 312.443 84.2082 313.013 82.0493L313.591 79.8624L318.101 80.0979C323.619 80.3864 326.888 81.2238 331.743 83.5923C340.445 87.8373 346.816 95.7625 349.226 105.34C350.25 109.409 350.259 116.411 349.247 120.608C347.097 129.509 340.846 137.442 332.565 141.779C327.843 144.252 324.606 145.107 318.868 145.398C311.913 145.751 307.573 144.829 301.352 141.679C298.796 140.385 296.706 139.379 296.706 139.444C296.706 139.797 302.388 143.456 304.127 144.222C305.25 144.717 306.168 145.293 306.168 145.502C306.168 146.644 304.055 152.498 302.56 155.496C296.857 166.937 287.231 174.736 274.554 178.185C270.91 179.177 260.414 179.27 256.152 178.349C251.153 177.268 241.734 173.442 241.734 172.492C241.734 172.266 242.059 170.603 242.457 168.796C243.278 165.07 243.459 154.615 242.759 151.367C242.4 149.697 242.318 150.439 242.292 155.633C242.255 162.911 241.774 166.643 240.156 172.205C233.814 194.015 214.096 209.028 190.634 209.91C187.637 210.023 184.576 210.029 183.833 209.931L183.83 209.925ZM144.676 154.632C144.526 154.483 144.42 154.747 144.439 155.221C144.46 155.745 144.567 155.851 144.712 155.493C144.841 155.169 144.825 154.781 144.675 154.632L144.676 154.632Z" fill="white" stroke="#444444" stroke-width="4" stroke-linecap="round" stroke-linejoin="round"/>
<path d="M124.34 102.64C124.232 102.64 124.016 102.658 123.692 102.694C123.38 102.718 123.056 102.754 122.72 102.802C122.384 102.838 122.078 102.874 121.802 102.91C121.538 102.946 121.394 102.97 121.37 102.982C121.49 102.466 121.61 101.896 121.73 101.272C121.862 100.636 121.994 99.976 122.126 99.292C122.258 98.596 122.384 97.894 122.504 97.186C122.624 96.478 122.738 95.794 122.846 95.134C123.098 93.598 123.35 92.02 123.602 90.4L126.41 89.95C126.134 91.558 125.864 93.136 125.6 94.684C125.492 95.344 125.378 96.028 125.258 96.736C125.15 97.444 125.036 98.146 124.916 98.842C124.808 99.538 124.706 100.216 124.61 100.876C124.514 101.524 124.424 102.112 124.34 102.64ZM131.134 103.018C131.41 101.698 131.674 100.396 131.926 99.112C132.034 98.572 132.142 98.008 132.25 97.42C132.358 96.832 132.46 96.256 132.556 95.692C132.664 95.116 132.754 94.564 132.826 94.036C132.91 93.496 132.982 93.004 133.042 92.56C132.766 92.524 132.484 92.512 132.196 92.524C131.92 92.536 131.644 92.5 131.368 92.416C131.38 92.224 131.386 92.002 131.386 91.75C131.386 91.498 131.392 91.246 131.404 90.994C131.416 90.718 131.428 90.424 131.44 90.112C131.752 90.136 132.064 90.154 132.376 90.166C132.688 90.178 133 90.184 133.312 90.184C133.924 90.184 134.512 90.172 135.076 90.148C135.652 90.112 136.18 90.076 136.66 90.04C137.152 89.992 137.632 89.938 138.1 89.878L137.902 90.85C137.842 91.126 137.782 91.408 137.722 91.696C137.674 91.984 137.626 92.23 137.578 92.434C137.314 92.506 137.044 92.56 136.768 92.596C136.504 92.62 136.24 92.656 135.976 92.704C135.892 93.112 135.802 93.568 135.706 94.072C135.61 94.564 135.514 95.08 135.418 95.62C135.334 96.148 135.25 96.688 135.166 97.24C135.082 97.792 134.998 98.32 134.914 98.824C134.722 100.012 134.542 101.242 134.374 102.514L131.134 103.018ZM136.719 103.036C137.055 101.356 137.379 99.718 137.691 98.122C137.811 97.438 137.937 96.73 138.069 95.998C138.201 95.254 138.321 94.522 138.429 93.802C138.549 93.082 138.657 92.386 138.753 91.714C138.861 91.03 138.945 90.412 139.005 89.86C139.281 89.872 139.533 89.89 139.761 89.914C140.001 89.926 140.235 89.938 140.463 89.95C140.691 89.962 140.919 89.974 141.147 89.986C141.387 89.986 141.645 89.986 141.921 89.986C141.717 90.838 141.513 91.69 141.309 92.542C141.117 93.394 140.937 94.252 140.769 95.116L142.551 94.918C142.719 94.066 142.869 93.244 143.001 92.452C143.133 91.648 143.307 90.82 143.523 89.968C143.799 89.92 144.105 89.884 144.441 89.86C144.777 89.824 145.089 89.794 145.377 89.77C145.665 89.746 145.905 89.728 146.097 89.716C146.301 89.692 146.403 89.68 146.403 89.68C146.235 90.22 146.073 90.814 145.917 91.462C145.773 92.098 145.629 92.764 145.485 93.46C145.341 94.144 145.203 94.84 145.071 95.548C144.939 96.256 144.819 96.928 144.711 97.564C144.447 99.088 144.201 100.648 143.973 102.244L141.165 102.568C141.321 101.848 141.459 101.146 141.579 100.462C141.699 99.886 141.819 99.286 141.939 98.662C142.071 98.038 142.173 97.504 142.245 97.06L140.499 97.222C140.415 97.678 140.313 98.206 140.193 98.806C140.085 99.406 139.983 99.976 139.887 100.516C139.755 101.164 139.623 101.812 139.491 102.46L136.719 103.036ZM148.121 102.64C148.013 102.64 147.797 102.658 147.473 102.694C147.161 102.718 146.837 102.754 146.501 102.802C146.165 102.838 145.859 102.874 145.583 102.91C145.319 102.946 145.175 102.97 145.151 102.982C145.271 102.466 145.391 101.896 145.511 101.272C145.643 100.636 145.775 99.976 145.907 99.292C146.039 98.596 146.165 97.894 146.285 97.186C146.405 96.478 146.519 95.794 146.627 95.134C146.879 93.598 147.131 92.02 147.383 90.4L150.191 89.95C149.915 91.558 149.645 93.136 149.381 94.684C149.273 95.344 149.159 96.028 149.039 96.736C148.931 97.444 148.817 98.146 148.697 98.842C148.589 99.538 148.487 100.216 148.391 100.876C148.295 101.524 148.205 102.112 148.121 102.64ZM149.329 103.09C149.689 101.362 150.031 99.688 150.355 98.068C150.475 97.372 150.601 96.652 150.733 95.908C150.877 95.164 151.009 94.432 151.129 93.712C151.249 92.98 151.357 92.284 151.453 91.624C151.549 90.952 151.621 90.346 151.669 89.806C151.825 89.818 151.957 89.824 152.065 89.824C152.173 89.824 152.299 89.824 152.443 89.824C152.611 89.824 152.815 89.824 153.055 89.824C153.295 89.812 153.535 89.8 153.775 89.788C154.015 89.776 154.273 89.764 154.549 89.752C154.717 90.592 154.867 91.402 154.999 92.182C155.131 92.866 155.263 93.568 155.395 94.288C155.539 95.008 155.665 95.62 155.773 96.124C155.821 95.884 155.875 95.608 155.935 95.296C155.995 94.972 156.061 94.636 156.133 94.288C156.205 93.94 156.271 93.592 156.331 93.244C156.403 92.884 156.475 92.53 156.547 92.182C156.715 91.402 156.889 90.598 157.069 89.77L159.265 89.5C158.857 91.336 158.497 93.076 158.185 94.72C158.041 95.428 157.897 96.148 157.753 96.88C157.621 97.6 157.495 98.296 157.375 98.968C157.255 99.628 157.153 100.246 157.069 100.822C156.985 101.386 156.919 101.86 156.871 102.244C156.835 102.244 156.691 102.274 156.439 102.334C156.199 102.382 155.917 102.442 155.593 102.514C155.281 102.586 154.963 102.658 154.639 102.73C154.327 102.802 154.093 102.868 153.937 102.928C153.865 101.968 153.787 101.056 153.703 100.192C153.667 99.82 153.625 99.442 153.577 99.058C153.541 98.662 153.499 98.284 153.451 97.924C153.403 97.564 153.355 97.228 153.307 96.916C153.259 96.604 153.211 96.334 153.163 96.106C153.127 96.334 153.079 96.598 153.019 96.898C152.959 97.198 152.899 97.516 152.839 97.852C152.779 98.188 152.719 98.542 152.659 98.914C152.599 99.274 152.533 99.622 152.461 99.958C152.305 100.762 152.137 101.602 151.957 102.478L149.329 103.09ZM158.044 103.018C158.404 101.338 158.74 99.706 159.052 98.122C159.172 97.438 159.298 96.73 159.43 95.998C159.562 95.266 159.682 94.54 159.79 93.82C159.91 93.1 160.012 92.404 160.096 91.732C160.192 91.048 160.264 90.43 160.312 89.878C160.588 89.902 160.9 89.926 161.248 89.95C161.596 89.962 161.92 89.98 162.22 90.004C162.58 90.028 162.94 90.04 163.3 90.04C163.288 90.088 163.27 90.178 163.246 90.31C163.222 90.442 163.192 90.604 163.156 90.796C163.12 90.976 163.078 91.18 163.03 91.408C162.994 91.636 162.952 91.864 162.904 92.092C162.808 92.62 162.7 93.214 162.58 93.874L162.688 93.856C162.808 93.664 162.976 93.4 163.192 93.064C163.42 92.716 163.654 92.35 163.894 91.966C164.134 91.582 164.368 91.216 164.596 90.868C164.824 90.508 165.016 90.202 165.172 89.95C165.772 89.902 166.372 89.848 166.972 89.788C167.572 89.728 168.172 89.65 168.772 89.554C168.208 90.31 167.662 91.054 167.134 91.786C166.906 92.098 166.672 92.422 166.432 92.758C166.204 93.094 165.976 93.424 165.748 93.748C165.52 94.072 165.304 94.384 165.1 94.684C164.908 94.984 164.734 95.26 164.578 95.512C164.842 96.724 165.154 97.894 165.514 99.022C165.874 100.15 166.24 101.302 166.612 102.478C166.336 102.466 166.054 102.46 165.766 102.46C165.478 102.448 165.196 102.442 164.92 102.442C164.572 102.442 164.236 102.448 163.912 102.46C163.588 102.46 163.252 102.466 162.904 102.478C162.796 101.698 162.676 100.882 162.544 100.03C162.424 99.166 162.31 98.344 162.202 97.564L161.878 97.942C161.794 98.302 161.698 98.746 161.59 99.274C161.494 99.802 161.398 100.312 161.302 100.804C161.194 101.38 161.08 101.974 160.96 102.586L158.044 103.018ZM172.448 103.018C172.724 101.698 172.988 100.396 173.24 99.112C173.348 98.572 173.456 98.008 173.564 97.42C173.672 96.832 173.774 96.256 173.87 95.692C173.978 95.116 174.068 94.564 174.14 94.036C174.224 93.496 174.296 93.004 174.356 92.56C174.08 92.524 173.798 92.512 173.51 92.524C173.234 92.536 172.958 92.5 172.682 92.416C172.694 92.224 172.7 92.002 172.7 91.75C172.7 91.498 172.706 91.246 172.718 90.994C172.73 90.718 172.742 90.424 172.754 90.112C173.066 90.136 173.378 90.154 173.69 90.166C174.002 90.178 174.314 90.184 174.626 90.184C175.238 90.184 175.826 90.172 176.39 90.148C176.966 90.112 177.494 90.076 177.974 90.04C178.466 89.992 178.946 89.938 179.414 89.878L179.216 90.85C179.156 91.126 179.096 91.408 179.036 91.696C178.988 91.984 178.94 92.23 178.892 92.434C178.628 92.506 178.358 92.56 178.082 92.596C177.818 92.62 177.554 92.656 177.29 92.704C177.206 93.112 177.116 93.568 177.02 94.072C176.924 94.564 176.828 95.08 176.732 95.62C176.648 96.148 176.564 96.688 176.48 97.24C176.396 97.792 176.312 98.32 176.228 98.824C176.036 100.012 175.856 101.242 175.688 102.514L172.448 103.018ZM178.034 103.036C178.37 101.356 178.694 99.718 179.006 98.122C179.126 97.438 179.252 96.73 179.384 95.998C179.516 95.254 179.636 94.522 179.744 93.802C179.864 93.082 179.972 92.386 180.068 91.714C180.176 91.03 180.26 90.412 180.32 89.86C180.596 89.872 180.848 89.89 181.076 89.914C181.316 89.926 181.55 89.938 181.778 89.95C182.006 89.962 182.234 89.974 182.462 89.986C182.702 89.986 182.96 89.986 183.236 89.986C183.032 90.838 182.828 91.69 182.624 92.542C182.432 93.394 182.252 94.252 182.084 95.116L183.866 94.918C184.034 94.066 184.184 93.244 184.316 92.452C184.448 91.648 184.622 90.82 184.838 89.968C185.114 89.92 185.42 89.884 185.756 89.86C186.092 89.824 186.404 89.794 186.692 89.77C186.98 89.746 187.22 89.728 187.412 89.716C187.616 89.692 187.718 89.68 187.718 89.68C187.55 90.22 187.388 90.814 187.232 91.462C187.088 92.098 186.944 92.764 186.8 93.46C186.656 94.144 186.518 94.84 186.386 95.548C186.254 96.256 186.134 96.928 186.026 97.564C185.762 99.088 185.516 100.648 185.288 102.244L182.48 102.568C182.636 101.848 182.774 101.146 182.894 100.462C183.014 99.886 183.134 99.286 183.254 98.662C183.386 98.038 183.488 97.504 183.56 97.06L181.814 97.222C181.73 97.678 181.628 98.206 181.508 98.806C181.4 99.406 181.298 99.976 181.202 100.516C181.07 101.164 180.938 101.812 180.806 102.46L178.034 103.036ZM189.435 102.64C189.327 102.64 189.111 102.658 188.787 102.694C188.475 102.718 188.151 102.754 187.815 102.802C187.479 102.838 187.173 102.874 186.897 102.91C186.633 102.946 186.489 102.97 186.465 102.982C186.585 102.466 186.705 101.896 186.825 101.272C186.957 100.636 187.089 99.976 187.221 99.292C187.353 98.596 187.479 97.894 187.599 97.186C187.719 96.478 187.833 95.794 187.941 95.134C188.193 93.598 188.445 92.02 188.697 90.4L191.505 89.95C191.229 91.558 190.959 93.136 190.695 94.684C190.587 95.344 190.473 96.028 190.353 96.736C190.245 97.444 190.131 98.146 190.011 98.842C189.903 99.538 189.801 100.216 189.705 100.876C189.609 101.524 189.519 102.112 189.435 102.64ZM198.528 98.554C198.528 99.226 198.396 99.838 198.132 100.39C197.88 100.93 197.532 101.398 197.088 101.794C196.656 102.19 196.14 102.496 195.54 102.712C194.952 102.928 194.316 103.036 193.632 103.036C193.152 103.036 192.672 102.91 192.192 102.658C191.712 102.394 191.25 101.98 190.806 101.416L192.138 98.806C192.222 98.962 192.348 99.124 192.516 99.292C192.684 99.448 192.87 99.586 193.074 99.706C193.29 99.826 193.5 99.928 193.704 100.012C193.92 100.084 194.112 100.12 194.28 100.12C194.424 100.12 194.574 100.096 194.73 100.048C194.886 100 195.03 99.928 195.162 99.832C195.294 99.736 195.396 99.628 195.468 99.508C195.552 99.376 195.594 99.226 195.594 99.058C195.594 98.77 195.498 98.506 195.306 98.266C195.126 98.014 194.898 97.78 194.622 97.564C194.346 97.336 194.046 97.108 193.722 96.88C193.398 96.652 193.098 96.412 192.822 96.16C192.558 95.908 192.33 95.626 192.138 95.314C191.946 95.002 191.85 94.654 191.85 94.27C191.85 93.646 192.036 93.064 192.408 92.524C192.78 91.984 193.242 91.522 193.794 91.138C194.358 90.742 194.97 90.43 195.63 90.202C196.29 89.974 196.914 89.86 197.502 89.86C197.826 89.86 198.132 89.902 198.42 89.986C198.708 90.058 198.954 90.184 199.158 90.364C199.374 90.532 199.542 90.748 199.662 91.012C199.794 91.276 199.86 91.606 199.86 92.002C199.86 92.17 199.842 92.338 199.806 92.506C199.782 92.674 199.758 92.854 199.734 93.046L197.124 93.802C197.148 93.706 197.166 93.61 197.178 93.514C197.202 93.418 197.214 93.322 197.214 93.226C197.214 92.866 197.148 92.608 197.016 92.452C196.896 92.284 196.734 92.2 196.53 92.2C196.434 92.2 196.314 92.236 196.17 92.308C196.038 92.38 195.9 92.476 195.756 92.596C195.624 92.704 195.51 92.836 195.414 92.992C195.318 93.148 195.27 93.316 195.27 93.496C195.27 93.784 195.348 94.024 195.504 94.216C195.672 94.408 195.876 94.588 196.116 94.756C196.356 94.924 196.614 95.098 196.89 95.278C197.178 95.446 197.442 95.668 197.682 95.944C197.922 96.22 198.12 96.568 198.276 96.988C198.444 97.396 198.528 97.918 198.528 98.554ZM203.028 103.018L205.386 90.22L211.074 89.734C210.99 89.998 210.918 90.268 210.858 90.544C210.798 90.772 210.738 91.012 210.678 91.264C210.63 91.504 210.588 91.72 210.552 91.912C210.432 91.924 210.258 91.936 210.03 91.948C209.814 91.948 209.58 91.954 209.328 91.966C209.076 91.966 208.818 91.966 208.554 91.966C208.302 91.966 208.08 91.966 207.888 91.966L207.258 95.188C207.63 95.164 207.978 95.146 208.302 95.134C208.566 95.122 208.836 95.116 209.112 95.116C209.388 95.116 209.592 95.11 209.724 95.098C209.676 95.434 209.628 95.764 209.58 96.088C209.544 96.412 209.496 96.742 209.436 97.078C209.316 97.09 209.118 97.102 208.842 97.114C208.578 97.114 208.308 97.12 208.032 97.132C207.72 97.144 207.378 97.156 207.006 97.168L206.394 100.48L209.022 100.066L208.842 102.118L203.028 103.018ZM209.018 102.892C209.546 101.296 210.05 99.73 210.53 98.194C210.734 97.546 210.944 96.868 211.16 96.16C211.376 95.452 211.592 94.75 211.808 94.054C212.024 93.358 212.222 92.686 212.402 92.038C212.594 91.39 212.762 90.79 212.906 90.238C213.566 90.238 214.19 90.202 214.778 90.13C215.366 90.058 216.002 89.992 216.686 89.932C216.65 90.196 216.608 90.496 216.56 90.832C216.524 91.156 216.476 91.498 216.416 91.858C216.368 92.218 216.314 92.59 216.254 92.974C216.194 93.358 216.122 93.85 216.038 94.45C215.954 95.05 215.84 95.8 215.696 96.7H215.93C216.278 95.788 216.566 95.032 216.794 94.432C217.022 93.82 217.208 93.322 217.352 92.938C217.496 92.554 217.64 92.182 217.784 91.822C217.94 91.45 218.084 91.102 218.216 90.778C218.36 90.442 218.492 90.148 218.612 89.896C218.912 89.872 219.194 89.842 219.458 89.806C219.722 89.77 219.986 89.734 220.25 89.698C220.514 89.65 220.778 89.608 221.042 89.572C221.318 89.524 221.618 89.47 221.942 89.41C221.822 90.106 221.708 90.82 221.6 91.552C221.492 92.284 221.396 93.016 221.312 93.748C221.228 94.468 221.144 95.182 221.06 95.89C220.988 96.598 220.922 97.27 220.862 97.906C220.718 99.394 220.592 100.846 220.484 102.262L217.352 102.82C217.352 102.76 217.358 102.598 217.37 102.334C217.394 102.07 217.418 101.746 217.442 101.362C217.478 100.978 217.52 100.552 217.568 100.084C217.628 99.616 217.682 99.148 217.73 98.68C217.79 98.212 217.85 97.762 217.91 97.33C217.97 96.886 218.03 96.508 218.09 96.196H217.928C217.76 96.7 217.574 97.234 217.37 97.798C217.166 98.35 216.956 98.914 216.74 99.49C216.536 100.066 216.332 100.63 216.128 101.182C215.924 101.734 215.744 102.262 215.588 102.766C215.168 102.778 214.808 102.796 214.508 102.82C214.208 102.832 213.86 102.85 213.464 102.874L214.04 96.196H213.77C213.746 96.352 213.686 96.616 213.59 96.988C213.494 97.348 213.38 97.768 213.248 98.248C213.128 98.716 212.996 99.208 212.852 99.724C212.708 100.228 212.57 100.702 212.438 101.146C212.318 101.578 212.216 101.938 212.132 102.226C212.048 102.502 212 102.658 211.988 102.694L209.018 102.892ZM227.867 102.64C227.567 102.688 227.237 102.742 226.877 102.802C226.517 102.862 226.193 102.916 225.905 102.964C225.953 102.568 226.001 102.178 226.049 101.794C226.085 101.458 226.115 101.122 226.139 100.786C226.175 100.45 226.205 100.162 226.229 99.922H224.663L223.943 102.514C223.679 102.55 223.367 102.592 223.007 102.64C222.647 102.676 222.311 102.712 221.999 102.748C221.615 102.796 221.237 102.844 220.865 102.892C221.345 101.296 221.819 99.724 222.287 98.176C222.479 97.528 222.677 96.85 222.881 96.142C223.097 95.434 223.307 94.732 223.511 94.036C223.727 93.328 223.931 92.65 224.123 92.002C224.315 91.354 224.483 90.76 224.627 90.22C225.443 90.16 226.271 90.088 227.111 90.004C227.963 89.92 228.791 89.806 229.595 89.662C229.559 90.046 229.517 90.526 229.469 91.102C229.433 91.666 229.397 92.284 229.361 92.956C229.325 93.628 229.289 94.33 229.253 95.062C229.217 95.794 229.181 96.514 229.145 97.222C229.085 98.878 229.019 100.636 228.947 102.496C228.587 102.556 228.227 102.604 227.867 102.64ZM225.095 98.122C225.143 98.122 225.227 98.122 225.347 98.122C225.479 98.11 225.611 98.104 225.743 98.104C225.887 98.092 226.019 98.086 226.139 98.086C226.259 98.074 226.343 98.062 226.391 98.05C226.391 97.978 226.397 97.858 226.409 97.69C226.433 97.51 226.451 97.312 226.463 97.096C226.487 96.868 226.511 96.622 226.535 96.358C226.559 96.094 226.583 95.836 226.607 95.584C226.655 94.972 226.715 94.312 226.787 93.604L226.895 92.038L226.625 92.056L226.211 93.604L225.095 98.122ZM232.63 102.64C232.522 102.64 232.306 102.658 231.982 102.694C231.67 102.718 231.346 102.754 231.01 102.802C230.674 102.838 230.368 102.874 230.092 102.91C229.828 102.946 229.684 102.97 229.66 102.982C229.78 102.466 229.9 101.896 230.02 101.272C230.152 100.636 230.284 99.976 230.416 99.292C230.548 98.596 230.674 97.894 230.794 97.186C230.914 96.478 231.028 95.794 231.136 95.134C231.388 93.598 231.64 92.02 231.892 90.4L234.7 89.95C234.424 91.558 234.154 93.136 233.89 94.684C233.782 95.344 233.668 96.028 233.548 96.736C233.44 97.444 233.326 98.146 233.206 98.842C233.098 99.538 232.996 100.216 232.9 100.876C232.804 101.524 232.714 102.112 232.63 102.64ZM238.717 102.424C238.345 102.424 237.949 102.436 237.529 102.46C237.121 102.484 236.707 102.52 236.287 102.568C235.867 102.616 235.453 102.682 235.045 102.766C234.649 102.838 234.289 102.928 233.965 103.036C234.037 102.496 234.121 101.896 234.217 101.236C234.313 100.576 234.421 99.892 234.541 99.184C234.673 98.476 234.799 97.762 234.919 97.042C235.051 96.322 235.183 95.632 235.315 94.972C235.615 93.4 235.933 91.798 236.269 90.166L239.419 89.752C239.095 91.144 238.783 92.5 238.483 93.82C238.351 94.384 238.219 94.972 238.087 95.584C237.955 96.184 237.829 96.772 237.709 97.348C237.589 97.924 237.481 98.482 237.385 99.022C237.289 99.562 237.211 100.042 237.151 100.462C237.451 100.438 237.769 100.426 238.105 100.426C238.453 100.414 238.759 100.408 239.023 100.408C239.035 100.636 239.053 100.864 239.077 101.092C239.101 101.308 239.125 101.506 239.149 101.686C239.185 101.866 239.209 102.028 239.221 102.172C239.245 102.304 239.263 102.394 239.275 102.442C239.179 102.442 239.083 102.442 238.987 102.442C238.903 102.43 238.813 102.424 238.717 102.424ZM145.37 121.64C145.262 121.64 145.046 121.658 144.722 121.694C144.41 121.718 144.086 121.754 143.75 121.802C143.414 121.838 143.108 121.874 142.832 121.91C142.568 121.946 142.424 121.97 142.4 121.982C142.52 121.466 142.64 120.896 142.76 120.272C142.892 119.636 143.024 118.976 143.156 118.292C143.288 117.596 143.414 116.894 143.534 116.186C143.654 115.478 143.768 114.794 143.876 114.134C144.128 112.598 144.38 111.02 144.632 109.4L147.44 108.95C147.164 110.558 146.894 112.136 146.63 113.684C146.522 114.344 146.408 115.028 146.288 115.736C146.18 116.444 146.066 117.146 145.946 117.842C145.838 118.538 145.736 119.216 145.64 119.876C145.544 120.524 145.454 121.112 145.37 121.64ZM154.462 117.554C154.462 118.226 154.33 118.838 154.066 119.39C153.814 119.93 153.466 120.398 153.022 120.794C152.59 121.19 152.074 121.496 151.474 121.712C150.886 121.928 150.25 122.036 149.566 122.036C149.086 122.036 148.606 121.91 148.126 121.658C147.646 121.394 147.184 120.98 146.74 120.416L148.072 117.806C148.156 117.962 148.282 118.124 148.45 118.292C148.618 118.448 148.804 118.586 149.008 118.706C149.224 118.826 149.434 118.928 149.638 119.012C149.854 119.084 150.046 119.12 150.214 119.12C150.358 119.12 150.508 119.096 150.664 119.048C150.82 119 150.964 118.928 151.096 118.832C151.228 118.736 151.33 118.628 151.402 118.508C151.486 118.376 151.528 118.226 151.528 118.058C151.528 117.77 151.432 117.506 151.24 117.266C151.06 117.014 150.832 116.78 150.556 116.564C150.28 116.336 149.98 116.108 149.656 115.88C149.332 115.652 149.032 115.412 148.756 115.16C148.492 114.908 148.264 114.626 148.072 114.314C147.88 114.002 147.784 113.654 147.784 113.27C147.784 112.646 147.97 112.064 148.342 111.524C148.714 110.984 149.176 110.522 149.728 110.138C150.292 109.742 150.904 109.43 151.564 109.202C152.224 108.974 152.848 108.86 153.436 108.86C153.76 108.86 154.066 108.902 154.354 108.986C154.642 109.058 154.888 109.184 155.092 109.364C155.308 109.532 155.476 109.748 155.596 110.012C155.728 110.276 155.794 110.606 155.794 111.002C155.794 111.17 155.776 111.338 155.74 111.506C155.716 111.674 155.692 111.854 155.668 112.046L153.058 112.802C153.082 112.706 153.1 112.61 153.112 112.514C153.136 112.418 153.148 112.322 153.148 112.226C153.148 111.866 153.082 111.608 152.95 111.452C152.83 111.284 152.668 111.2 152.464 111.2C152.368 111.2 152.248 111.236 152.104 111.308C151.972 111.38 151.834 111.476 151.69 111.596C151.558 111.704 151.444 111.836 151.348 111.992C151.252 112.148 151.204 112.316 151.204 112.496C151.204 112.784 151.282 113.024 151.438 113.216C151.606 113.408 151.81 113.588 152.05 113.756C152.29 113.924 152.548 114.098 152.824 114.278C153.112 114.446 153.376 114.668 153.616 114.944C153.856 115.22 154.054 115.568 154.21 115.988C154.378 116.396 154.462 116.918 154.462 117.554ZM159.556 122.072L160.924 109.292C161.488 109.268 162.016 109.214 162.508 109.13C163.012 109.034 163.51 108.968 164.002 108.932C164.002 108.944 163.984 109.07 163.948 109.31C163.912 109.538 163.864 109.844 163.804 110.228C163.744 110.6 163.678 111.026 163.606 111.506C163.534 111.974 163.426 112.622 163.282 113.45C163.15 114.278 162.97 115.424 162.742 116.888H163.012C163.324 115.784 163.582 114.884 163.786 114.188C163.99 113.48 164.152 112.91 164.272 112.478C164.404 112.034 164.524 111.608 164.632 111.2C164.752 110.792 164.86 110.414 164.956 110.066C165.064 109.718 165.148 109.424 165.208 109.184H165.37C165.586 109.184 165.802 109.172 166.018 109.148C166.246 109.124 166.456 109.1 166.648 109.076C166.852 109.04 167.062 108.998 167.278 108.95C167.254 109.058 167.224 109.28 167.188 109.616C167.164 109.952 167.128 110.36 167.08 110.84C167.032 111.308 166.984 111.83 166.936 112.406C166.888 112.97 166.84 113.528 166.792 114.08C166.744 114.62 166.696 115.136 166.648 115.628C166.612 116.12 166.576 116.54 166.54 116.888H166.864L168.574 109.148C168.982 109.088 169.384 109.034 169.78 108.986C170.128 108.938 170.488 108.89 170.86 108.842C171.232 108.794 171.562 108.74 171.85 108.68C171.67 109.184 171.49 109.748 171.31 110.372C171.13 110.984 170.944 111.632 170.752 112.316C170.56 113 170.374 113.69 170.194 114.386C170.026 115.082 169.858 115.754 169.69 116.402C169.306 117.938 168.934 119.516 168.574 121.136L164.506 121.82L165.298 114.872H165.082L163.3 121.406L159.556 122.072ZM170.241 122.018C170.565 120.422 170.877 118.862 171.177 117.338C171.285 116.69 171.405 116.018 171.537 115.322C171.669 114.614 171.789 113.918 171.897 113.234C172.017 112.538 172.125 111.872 172.221 111.236C172.329 110.588 172.413 110 172.473 109.472C173.157 109.256 173.895 109.1 174.687 109.004C175.479 108.896 176.265 108.842 177.045 108.842C177.513 108.842 177.897 108.896 178.197 109.004C178.509 109.112 178.749 109.268 178.917 109.472C179.097 109.664 179.223 109.892 179.295 110.156C179.367 110.42 179.403 110.714 179.403 111.038C179.403 111.518 179.319 111.992 179.151 112.46C178.983 112.916 178.755 113.354 178.467 113.774C178.191 114.182 177.867 114.56 177.495 114.908C177.135 115.244 176.745 115.52 176.325 115.736C176.541 116.216 176.769 116.744 177.009 117.32C177.261 117.884 177.495 118.424 177.711 118.94C177.951 119.54 178.197 120.14 178.449 120.74L175.659 121.712C175.419 120.944 175.203 120.224 175.011 119.552C174.927 119.276 174.843 118.994 174.759 118.706C174.675 118.406 174.597 118.124 174.525 117.86C174.453 117.596 174.393 117.362 174.345 117.158C174.297 116.942 174.267 116.768 174.255 116.636L174.021 116.708C173.949 117.092 173.859 117.542 173.751 118.058C173.655 118.574 173.565 119.072 173.481 119.552C173.373 120.116 173.265 120.686 173.157 121.262L170.241 122.018ZM174.471 114.206C174.699 114.182 174.975 114.086 175.299 113.918C175.635 113.75 175.953 113.552 176.253 113.324C176.553 113.084 176.811 112.838 177.027 112.586C177.243 112.334 177.351 112.112 177.351 111.92C177.351 111.788 177.309 111.686 177.225 111.614C177.141 111.53 177.021 111.47 176.865 111.434C176.721 111.386 176.559 111.356 176.379 111.344C176.199 111.332 176.013 111.326 175.821 111.326C175.689 111.326 175.551 111.332 175.407 111.344C175.275 111.344 175.155 111.344 175.047 111.344L174.471 114.206ZM188.787 112.262C188.787 113.246 188.679 114.176 188.463 115.052C188.259 115.916 187.983 116.714 187.635 117.446C187.287 118.166 186.879 118.814 186.411 119.39C185.955 119.954 185.475 120.44 184.971 120.848C184.467 121.244 183.957 121.55 183.441 121.766C182.925 121.97 182.433 122.072 181.965 122.072C181.569 122.072 181.209 122 180.885 121.856C180.561 121.7 180.279 121.478 180.039 121.19C179.799 120.89 179.607 120.512 179.463 120.056C179.331 119.588 179.265 119.03 179.265 118.382C179.265 117.71 179.349 117.002 179.517 116.258C179.685 115.514 179.913 114.776 180.201 114.044C180.489 113.312 180.843 112.616 181.263 111.956C181.683 111.296 182.145 110.714 182.649 110.21C183.153 109.694 183.693 109.286 184.269 108.986C184.845 108.686 185.445 108.536 186.069 108.536C186.609 108.536 187.053 108.65 187.401 108.878C187.761 109.094 188.037 109.382 188.229 109.742C188.433 110.09 188.577 110.486 188.661 110.93C188.745 111.374 188.787 111.818 188.787 112.262ZM181.947 117.914C181.947 118.046 181.971 118.184 182.019 118.328C182.067 118.472 182.133 118.598 182.217 118.706C182.301 118.814 182.403 118.91 182.523 118.994C182.655 119.066 182.793 119.102 182.937 119.102C183.477 119.102 183.957 118.916 184.377 118.544C184.797 118.172 185.145 117.716 185.421 117.176C185.697 116.636 185.907 116.06 186.051 115.448C186.207 114.836 186.285 114.278 186.285 113.774C186.285 113.63 186.273 113.474 186.249 113.306C186.237 113.138 186.201 112.982 186.141 112.838C186.093 112.694 186.009 112.574 185.889 112.478C185.781 112.37 185.631 112.316 185.439 112.316C185.055 112.316 184.701 112.412 184.377 112.604C184.053 112.796 183.759 113.054 183.495 113.378C183.243 113.69 183.021 114.05 182.829 114.458C182.637 114.854 182.469 115.262 182.325 115.682C182.193 116.09 182.097 116.492 182.037 116.888C181.977 117.284 181.947 117.626 181.947 117.914ZM188.214 122.09C188.574 120.362 188.916 118.688 189.24 117.068C189.36 116.372 189.486 115.652 189.618 114.908C189.762 114.164 189.894 113.432 190.014 112.712C190.134 111.98 190.242 111.284 190.338 110.624C190.434 109.952 190.506 109.346 190.554 108.806C190.71 108.818 190.842 108.824 190.95 108.824C191.058 108.824 191.184 108.824 191.328 108.824C191.496 108.824 191.7 108.824 191.94 108.824C192.18 108.812 192.42 108.8 192.66 108.788C192.9 108.776 193.158 108.764 193.434 108.752C193.602 109.592 193.752 110.402 193.884 111.182C194.016 111.866 194.148 112.568 194.28 113.288C194.424 114.008 194.55 114.62 194.658 115.124C194.706 114.884 194.76 114.608 194.82 114.296C194.88 113.972 194.946 113.636 195.018 113.288C195.09 112.94 195.156 112.592 195.216 112.244C195.288 111.884 195.36 111.53 195.432 111.182C195.6 110.402 195.774 109.598 195.954 108.77L198.15 108.5C197.742 110.336 197.382 112.076 197.07 113.72C196.926 114.428 196.782 115.148 196.638 115.88C196.506 116.6 196.38 117.296 196.26 117.968C196.14 118.628 196.038 119.246 195.954 119.822C195.87 120.386 195.804 120.86 195.756 121.244C195.72 121.244 195.576 121.274 195.324 121.334C195.084 121.382 194.802 121.442 194.478 121.514C194.166 121.586 193.848 121.658 193.524 121.73C193.212 121.802 192.978 121.868 192.822 121.928C192.75 120.968 192.672 120.056 192.588 119.192C192.552 118.82 192.51 118.442 192.462 118.058C192.426 117.662 192.384 117.284 192.336 116.924C192.288 116.564 192.24 116.228 192.192 115.916C192.144 115.604 192.096 115.334 192.048 115.106C192.012 115.334 191.964 115.598 191.904 115.898C191.844 116.198 191.784 116.516 191.724 116.852C191.664 117.188 191.604 117.542 191.544 117.914C191.484 118.274 191.418 118.622 191.346 118.958C191.19 119.762 191.022 120.602 190.842 121.478L188.214 122.09ZM206.595 115.142C206.511 116.366 206.271 117.434 205.875 118.346C205.479 119.246 204.999 120.002 204.435 120.614C203.883 121.226 203.283 121.682 202.635 121.982C201.999 122.282 201.393 122.432 200.817 122.432C200.373 122.432 199.947 122.336 199.539 122.144C199.143 121.952 198.795 121.664 198.495 121.28C198.207 120.884 197.979 120.392 197.811 119.804C197.643 119.216 197.559 118.526 197.559 117.734C197.559 116.186 197.781 114.836 198.225 113.684C198.669 112.532 199.227 111.572 199.899 110.804C200.583 110.036 201.309 109.466 202.077 109.094C202.857 108.722 203.583 108.536 204.255 108.536C204.735 108.536 205.149 108.62 205.497 108.788C205.857 108.956 206.151 109.184 206.379 109.472C206.607 109.748 206.769 110.078 206.865 110.462C206.973 110.834 207.027 111.23 207.027 111.65L204.561 112.118C204.453 111.638 204.309 111.296 204.129 111.092C203.949 110.888 203.745 110.786 203.517 110.786C203.217 110.786 202.887 111.002 202.527 111.434C202.167 111.854 201.831 112.4 201.519 113.072C201.207 113.744 200.943 114.482 200.727 115.286C200.511 116.09 200.391 116.882 200.367 117.662C200.367 118.406 200.475 118.94 200.691 119.264C200.919 119.576 201.207 119.732 201.555 119.732C201.795 119.732 202.041 119.672 202.293 119.552C202.557 119.432 202.791 119.264 202.995 119.048C203.199 118.82 203.367 118.562 203.499 118.274C203.643 117.974 203.721 117.65 203.733 117.302L201.807 117.59L202.149 115.808C202.713 115.736 203.265 115.664 203.805 115.592C204.261 115.532 204.741 115.46 205.245 115.376C205.761 115.292 206.211 115.214 206.595 115.142ZM210.069 120.56C210.069 120.788 210.015 121.016 209.907 121.244C209.811 121.472 209.667 121.676 209.475 121.856C209.283 122.024 209.043 122.156 208.755 122.252C208.467 122.36 208.137 122.414 207.765 122.414C207.513 122.414 207.285 122.366 207.081 122.27C206.877 122.174 206.709 122.048 206.577 121.892C206.457 121.724 206.361 121.538 206.289 121.334C206.217 121.13 206.181 120.926 206.181 120.722C206.181 120.494 206.217 120.278 206.289 120.074C206.361 119.858 206.469 119.672 206.613 119.516C206.769 119.348 206.955 119.21 207.171 119.102C207.399 118.994 207.669 118.94 207.981 118.94C208.677 118.94 209.199 119.108 209.547 119.444C209.895 119.768 210.069 120.14 210.069 120.56ZM214.371 120.56C214.371 120.788 214.317 121.016 214.209 121.244C214.113 121.472 213.969 121.676 213.777 121.856C213.585 122.024 213.345 122.156 213.057 122.252C212.769 122.36 212.439 122.414 212.067 122.414C211.815 122.414 211.587 122.366 211.383 122.27C211.179 122.174 211.011 122.048 210.879 121.892C210.759 121.724 210.663 121.538 210.591 121.334C210.519 121.13 210.483 120.926 210.483 120.722C210.483 120.494 210.519 120.278 210.591 120.074C210.663 119.858 210.771 119.672 210.915 119.516C211.071 119.348 211.257 119.21 211.473 119.102C211.701 118.994 211.971 118.94 212.283 118.94C212.979 118.94 213.501 119.108 213.849 119.444C214.197 119.768 214.371 120.14 214.371 120.56ZM218.673 120.56C218.673 120.788 218.619 121.016 218.511 121.244C218.415 121.472 218.271 121.676 218.079 121.856C217.887 122.024 217.647 122.156 217.359 122.252C217.071 122.36 216.741 122.414 216.369 122.414C216.117 122.414 215.889 122.366 215.685 122.27C215.481 122.174 215.313 122.048 215.181 121.892C215.061 121.724 214.965 121.538 214.893 121.334C214.821 121.13 214.785 120.926 214.785 120.722C214.785 120.494 214.821 120.278 214.893 120.074C214.965 119.858 215.073 119.672 215.217 119.516C215.373 119.348 215.559 119.21 215.775 119.102C216.003 118.994 216.273 118.94 216.585 118.94C217.281 118.94 217.803 119.108 218.151 119.444C218.499 119.768 218.673 120.14 218.673 120.56Z" fill="#444444"/>
</g>
<defs>
<filter id="filter0_d" x="0" y="0.000244141" width="352" height="222" filterUnits="userSpaceOnUse" color-interpolation-filters="sRGB">
<feFlood flood-opacity="0" result="BackgroundImageFix"/>
<feColorMatrix in="SourceAlpha" type="matrix" values="0 0 0 0 0 0 0 0 0 0 0 0 0 0 0 0 0 0 127 0" result="hardAlpha"/>
<feOffset dx="-10" dy="10"/>
<feComposite in2="hardAlpha" operator="out"/>
<feColorMatrix type="matrix" values="0 0 0 0 0.266667 0 0 0 0 0.266667 0 0 0 0 0.266667 0 0 0 1 0"/>
<feBlend mode="normal" in2="BackgroundImageFix" result="effect1_dropShadow"/>
<feBlend mode="normal" in="SourceGraphic" in2="effect1_dropShadow" result="shape"/>
</filter>
</defs>
</svg>
