<svg width="385" height="211" viewBox="0 0 385 211" fill="none" xmlns="http://www.w3.org/2000/svg">
<path d="M18.6025 210.267L77.2982 179.839L67.2803 169.686L126.052 132.223L57.1905 167.644L68.1104 178.831L18.6025 210.267Z" fill="black"/>
<path d="M179.844 47.3649L201.712 1.24851L206.777 49.2161L240.567 15.9776L229.156 55.3185L285.945 36.6795L262.164 72.0514L333.235 63.3834L278.135 94.8502L343.643 123.519L269.59 117.112L288.543 159.728L235.967 134.562L237.266 188.973L200.319 137.566L181.15 196.62L170.855 135.442L116.149 177.489L135.543 125.837L67.7341 151.718L120.078 103.093L45.0117 82.3504L121.987 75.8998L61.7055 17.761L141.722 59.06L126.363 0.338867L179.844 47.3649Z" fill="black"/>
<path d="M181.393 53.5674L200.758 13.7112L205.409 55.246L235.438 26.5704L225.376 60.5913L275.95 44.6179L254.849 75.1683L318.183 67.8663L269.151 94.948L327.632 119.949L261.597 114.194L278.613 151.135L231.672 129.203L232.983 176.304L199.901 131.703L182.979 182.765L173.629 129.781L124.978 166.022L142.121 121.367L81.7444 143.578L128.271 101.636L61.292 83.4696L129.896 78.1037L75.9916 27.6089L147.441 63.5829L133.584 12.7109L181.393 53.5674Z" fill="#FF0000"/>
<path d="M182.018 59.0859L198.827 24.4915L202.864 60.5431L228.929 35.653L220.196 65.1827L264.093 51.318L245.778 77.8354L300.751 71.4973L258.192 95.0039L308.952 116.704L251.635 111.709L266.405 143.774L225.66 124.737L226.798 165.62L198.083 126.907L183.396 171.228L175.279 125.238L133.051 156.695L147.932 117.936L95.525 137.214L135.909 100.809L77.7725 85.0408L137.32 80.3831L90.5317 36.5544L152.549 67.7794L140.521 23.623L182.018 59.0859Z" fill="#FFFF00"/>
<path d="M269.017 69.0221L330.672 45.1543L321.817 33.9727L384.312 3.11963L312.009 30.8465L321.648 43.1542L269.017 69.0221Z" fill="black"/>
<path d="M0 0L48.9071 44.4876L54.9522 31.5688L110.483 73.6856L53.3653 21.3974L46.6632 35.5211L0 0Z" fill="black"/>
<path d="M273.65 121.239L318.903 169.439L325.946 157.037L377.989 203.396L325.165 146.772L317.372 160.324L273.65 121.239Z" fill="black"/>
<path d="M151.61 100.072L152.978 87.292C153.542 87.268 154.07 87.214 154.562 87.13C155.066 87.034 155.564 86.968 156.056 86.932C156.056 86.944 156.038 87.07 156.002 87.31C155.966 87.538 155.918 87.844 155.858 88.228C155.798 88.6 155.732 89.026 155.66 89.506C155.588 89.974 155.48 90.622 155.336 91.45C155.204 92.278 155.024 93.424 154.796 94.888H155.066C155.378 93.784 155.636 92.884 155.84 92.188C156.044 91.48 156.206 90.91 156.326 90.478C156.458 90.034 156.578 89.608 156.686 89.2C156.806 88.792 156.914 88.414 157.01 88.066C157.118 87.718 157.202 87.424 157.262 87.184H157.424C157.64 87.184 157.856 87.172 158.072 87.148C158.3 87.124 158.51 87.1 158.702 87.076C158.906 87.04 159.116 86.998 159.332 86.95C159.308 87.058 159.278 87.28 159.242 87.616C159.218 87.952 159.182 88.36 159.134 88.84C159.086 89.308 159.038 89.83 158.99 90.406C158.942 90.97 158.894 91.528 158.846 92.08C158.798 92.62 158.75 93.136 158.702 93.628C158.666 94.12 158.63 94.54 158.594 94.888H158.918L160.628 87.148C161.036 87.088 161.438 87.034 161.834 86.986C162.182 86.938 162.542 86.89 162.914 86.842C163.286 86.794 163.616 86.74 163.904 86.68C163.724 87.184 163.544 87.748 163.364 88.372C163.184 88.984 162.998 89.632 162.806 90.316C162.614 91 162.428 91.69 162.248 92.386C162.08 93.082 161.912 93.754 161.744 94.402C161.36 95.938 160.988 97.516 160.628 99.136L156.56 99.82L157.352 92.872H157.136L155.354 99.406L151.61 100.072ZM162.295 100.018C162.619 98.422 162.931 96.862 163.231 95.338C163.339 94.69 163.459 94.018 163.591 93.322C163.723 92.614 163.843 91.918 163.951 91.234C164.071 90.538 164.179 89.872 164.275 89.236C164.383 88.588 164.467 88 164.527 87.472C165.211 87.256 165.949 87.1 166.741 87.004C167.533 86.896 168.319 86.842 169.099 86.842C169.567 86.842 169.951 86.896 170.251 87.004C170.563 87.112 170.803 87.268 170.971 87.472C171.151 87.664 171.277 87.892 171.349 88.156C171.421 88.42 171.457 88.714 171.457 89.038C171.457 89.518 171.373 89.992 171.205 90.46C171.037 90.916 170.809 91.354 170.521 91.774C170.245 92.182 169.921 92.56 169.549 92.908C169.189 93.244 168.799 93.52 168.379 93.736C168.595 94.216 168.823 94.744 169.063 95.32C169.315 95.884 169.549 96.424 169.765 96.94C170.005 97.54 170.251 98.14 170.503 98.74L167.713 99.712C167.473 98.944 167.257 98.224 167.065 97.552C166.981 97.276 166.897 96.994 166.813 96.706C166.729 96.406 166.651 96.124 166.579 95.86C166.507 95.596 166.447 95.362 166.399 95.158C166.351 94.942 166.321 94.768 166.309 94.636L166.075 94.708C166.003 95.092 165.913 95.542 165.805 96.058C165.709 96.574 165.619 97.072 165.535 97.552C165.427 98.116 165.319 98.686 165.211 99.262L162.295 100.018ZM166.525 92.206C166.753 92.182 167.029 92.086 167.353 91.918C167.689 91.75 168.007 91.552 168.307 91.324C168.607 91.084 168.865 90.838 169.081 90.586C169.297 90.334 169.405 90.112 169.405 89.92C169.405 89.788 169.363 89.686 169.279 89.614C169.195 89.53 169.075 89.47 168.919 89.434C168.775 89.386 168.613 89.356 168.433 89.344C168.253 89.332 168.067 89.326 167.875 89.326C167.743 89.326 167.605 89.332 167.461 89.344C167.329 89.344 167.209 89.344 167.101 89.344L166.525 92.206ZM180.841 90.262C180.841 91.246 180.733 92.176 180.517 93.052C180.313 93.916 180.037 94.714 179.689 95.446C179.341 96.166 178.933 96.814 178.465 97.39C178.009 97.954 177.529 98.44 177.025 98.848C176.521 99.244 176.011 99.55 175.495 99.766C174.979 99.97 174.487 100.072 174.019 100.072C173.623 100.072 173.263 100 172.939 99.856C172.615 99.7 172.333 99.478 172.093 99.19C171.853 98.89 171.661 98.512 171.517 98.056C171.385 97.588 171.319 97.03 171.319 96.382C171.319 95.71 171.403 95.002 171.571 94.258C171.739 93.514 171.967 92.776 172.255 92.044C172.543 91.312 172.897 90.616 173.317 89.956C173.737 89.296 174.199 88.714 174.703 88.21C175.207 87.694 175.747 87.286 176.323 86.986C176.899 86.686 177.499 86.536 178.123 86.536C178.663 86.536 179.107 86.65 179.455 86.878C179.815 87.094 180.091 87.382 180.283 87.742C180.487 88.09 180.631 88.486 180.715 88.93C180.799 89.374 180.841 89.818 180.841 90.262ZM174.001 95.914C174.001 96.046 174.025 96.184 174.073 96.328C174.121 96.472 174.187 96.598 174.271 96.706C174.355 96.814 174.457 96.91 174.577 96.994C174.709 97.066 174.847 97.102 174.991 97.102C175.531 97.102 176.011 96.916 176.431 96.544C176.851 96.172 177.199 95.716 177.475 95.176C177.751 94.636 177.961 94.06 178.105 93.448C178.261 92.836 178.339 92.278 178.339 91.774C178.339 91.63 178.327 91.474 178.303 91.306C178.291 91.138 178.255 90.982 178.195 90.838C178.147 90.694 178.063 90.574 177.943 90.478C177.835 90.37 177.685 90.316 177.493 90.316C177.109 90.316 176.755 90.412 176.431 90.604C176.107 90.796 175.813 91.054 175.549 91.378C175.297 91.69 175.075 92.05 174.883 92.458C174.691 92.854 174.523 93.262 174.379 93.682C174.247 94.09 174.151 94.492 174.091 94.888C174.031 95.284 174.001 95.626 174.001 95.914ZM180.268 100.09C180.628 98.362 180.97 96.688 181.294 95.068C181.414 94.372 181.54 93.652 181.672 92.908C181.816 92.164 181.948 91.432 182.068 90.712C182.188 89.98 182.296 89.284 182.392 88.624C182.488 87.952 182.56 87.346 182.608 86.806C182.764 86.818 182.896 86.824 183.004 86.824C183.112 86.824 183.238 86.824 183.382 86.824C183.55 86.824 183.754 86.824 183.994 86.824C184.234 86.812 184.474 86.8 184.714 86.788C184.954 86.776 185.212 86.764 185.488 86.752C185.656 87.592 185.806 88.402 185.938 89.182C186.07 89.866 186.202 90.568 186.334 91.288C186.478 92.008 186.604 92.62 186.712 93.124C186.76 92.884 186.814 92.608 186.874 92.296C186.934 91.972 187 91.636 187.072 91.288C187.144 90.94 187.21 90.592 187.27 90.244C187.342 89.884 187.414 89.53 187.486 89.182C187.654 88.402 187.828 87.598 188.008 86.77L190.204 86.5C189.796 88.336 189.436 90.076 189.124 91.72C188.98 92.428 188.836 93.148 188.692 93.88C188.56 94.6 188.434 95.296 188.314 95.968C188.194 96.628 188.092 97.246 188.008 97.822C187.924 98.386 187.858 98.86 187.81 99.244C187.774 99.244 187.63 99.274 187.378 99.334C187.138 99.382 186.856 99.442 186.532 99.514C186.22 99.586 185.902 99.658 185.578 99.73C185.266 99.802 185.032 99.868 184.876 99.928C184.804 98.968 184.726 98.056 184.642 97.192C184.606 96.82 184.564 96.442 184.516 96.058C184.48 95.662 184.438 95.284 184.39 94.924C184.342 94.564 184.294 94.228 184.246 93.916C184.198 93.604 184.15 93.334 184.102 93.106C184.066 93.334 184.018 93.598 183.958 93.898C183.898 94.198 183.838 94.516 183.778 94.852C183.718 95.188 183.658 95.542 183.598 95.914C183.538 96.274 183.472 96.622 183.4 96.958C183.244 97.762 183.076 98.602 182.896 99.478L180.268 100.09ZM198.649 93.142C198.565 94.366 198.325 95.434 197.929 96.346C197.533 97.246 197.053 98.002 196.489 98.614C195.937 99.226 195.337 99.682 194.689 99.982C194.053 100.282 193.447 100.432 192.871 100.432C192.427 100.432 192.001 100.336 191.593 100.144C191.197 99.952 190.849 99.664 190.549 99.28C190.261 98.884 190.033 98.392 189.865 97.804C189.697 97.216 189.613 96.526 189.613 95.734C189.613 94.186 189.835 92.836 190.279 91.684C190.723 90.532 191.281 89.572 191.953 88.804C192.637 88.036 193.363 87.466 194.131 87.094C194.911 86.722 195.637 86.536 196.309 86.536C196.789 86.536 197.203 86.62 197.551 86.788C197.911 86.956 198.205 87.184 198.433 87.472C198.661 87.748 198.823 88.078 198.919 88.462C199.027 88.834 199.081 89.23 199.081 89.65L196.615 90.118C196.507 89.638 196.363 89.296 196.183 89.092C196.003 88.888 195.799 88.786 195.571 88.786C195.271 88.786 194.941 89.002 194.581 89.434C194.221 89.854 193.885 90.4 193.573 91.072C193.261 91.744 192.997 92.482 192.781 93.286C192.565 94.09 192.445 94.882 192.421 95.662C192.421 96.406 192.529 96.94 192.745 97.264C192.973 97.576 193.261 97.732 193.609 97.732C193.849 97.732 194.095 97.672 194.347 97.552C194.611 97.432 194.845 97.264 195.049 97.048C195.253 96.82 195.421 96.562 195.553 96.274C195.697 95.974 195.775 95.65 195.787 95.302L193.861 95.59L194.203 93.808C194.767 93.736 195.319 93.664 195.859 93.592C196.315 93.532 196.795 93.46 197.299 93.376C197.815 93.292 198.265 93.214 198.649 93.142ZM202.579 100.018L204.937 87.22L210.625 86.734C210.541 86.998 210.469 87.268 210.409 87.544C210.349 87.772 210.289 88.012 210.229 88.264C210.181 88.504 210.139 88.72 210.103 88.912C209.983 88.924 209.809 88.936 209.581 88.948C209.365 88.948 209.131 88.954 208.879 88.966C208.627 88.966 208.369 88.966 208.105 88.966C207.853 88.966 207.631 88.966 207.439 88.966L206.809 92.188C207.181 92.164 207.529 92.146 207.853 92.134C208.117 92.122 208.387 92.116 208.663 92.116C208.939 92.116 209.143 92.11 209.275 92.098C209.227 92.434 209.179 92.764 209.131 93.088C209.095 93.412 209.047 93.742 208.987 94.078C208.867 94.09 208.669 94.102 208.393 94.114C208.129 94.114 207.859 94.12 207.583 94.132C207.271 94.144 206.929 94.156 206.557 94.168L205.945 97.48L208.573 97.066L208.393 99.118L202.579 100.018ZM208.57 99.892C209.098 98.296 209.602 96.73 210.082 95.194C210.286 94.546 210.496 93.868 210.712 93.16C210.928 92.452 211.144 91.75 211.36 91.054C211.576 90.358 211.774 89.686 211.954 89.038C212.146 88.39 212.314 87.79 212.458 87.238C213.118 87.238 213.742 87.202 214.33 87.13C214.918 87.058 215.554 86.992 216.238 86.932C216.202 87.196 216.16 87.496 216.112 87.832C216.076 88.156 216.028 88.498 215.968 88.858C215.92 89.218 215.866 89.59 215.806 89.974C215.746 90.358 215.674 90.85 215.59 91.45C215.506 92.05 215.392 92.8 215.248 93.7H215.482C215.83 92.788 216.118 92.032 216.346 91.432C216.574 90.82 216.76 90.322 216.904 89.938C217.048 89.554 217.192 89.182 217.336 88.822C217.492 88.45 217.636 88.102 217.768 87.778C217.912 87.442 218.044 87.148 218.164 86.896C218.464 86.872 218.746 86.842 219.01 86.806C219.274 86.77 219.538 86.734 219.802 86.698C220.066 86.65 220.33 86.608 220.594 86.572C220.87 86.524 221.17 86.47 221.494 86.41C221.374 87.106 221.26 87.82 221.152 88.552C221.044 89.284 220.948 90.016 220.864 90.748C220.78 91.468 220.696 92.182 220.612 92.89C220.54 93.598 220.474 94.27 220.414 94.906C220.27 96.394 220.144 97.846 220.036 99.262L216.904 99.82C216.904 99.76 216.91 99.598 216.922 99.334C216.946 99.07 216.97 98.746 216.994 98.362C217.03 97.978 217.072 97.552 217.12 97.084C217.18 96.616 217.234 96.148 217.282 95.68C217.342 95.212 217.402 94.762 217.462 94.33C217.522 93.886 217.582 93.508 217.642 93.196H217.48C217.312 93.7 217.126 94.234 216.922 94.798C216.718 95.35 216.508 95.914 216.292 96.49C216.088 97.066 215.884 97.63 215.68 98.182C215.476 98.734 215.296 99.262 215.14 99.766C214.72 99.778 214.36 99.796 214.06 99.82C213.76 99.832 213.412 99.85 213.016 99.874L213.592 93.196H213.322C213.298 93.352 213.238 93.616 213.142 93.988C213.046 94.348 212.932 94.768 212.8 95.248C212.68 95.716 212.548 96.208 212.404 96.724C212.26 97.228 212.122 97.702 211.99 98.146C211.87 98.578 211.768 98.938 211.684 99.226C211.6 99.502 211.552 99.658 211.54 99.694L208.57 99.892ZM227.418 99.64C227.118 99.688 226.788 99.742 226.428 99.802C226.068 99.862 225.744 99.916 225.456 99.964C225.504 99.568 225.552 99.178 225.6 98.794C225.636 98.458 225.666 98.122 225.69 97.786C225.726 97.45 225.756 97.162 225.78 96.922H224.214L223.494 99.514C223.23 99.55 222.918 99.592 222.558 99.64C222.198 99.676 221.862 99.712 221.55 99.748C221.166 99.796 220.788 99.844 220.416 99.892C220.896 98.296 221.37 96.724 221.838 95.176C222.03 94.528 222.228 93.85 222.432 93.142C222.648 92.434 222.858 91.732 223.062 91.036C223.278 90.328 223.482 89.65 223.674 89.002C223.866 88.354 224.034 87.76 224.178 87.22C224.994 87.16 225.822 87.088 226.662 87.004C227.514 86.92 228.342 86.806 229.146 86.662C229.11 87.046 229.068 87.526 229.02 88.102C228.984 88.666 228.948 89.284 228.912 89.956C228.876 90.628 228.84 91.33 228.804 92.062C228.768 92.794 228.732 93.514 228.696 94.222C228.636 95.878 228.57 97.636 228.498 99.496C228.138 99.556 227.778 99.604 227.418 99.64ZM224.646 95.122C224.694 95.122 224.778 95.122 224.898 95.122C225.03 95.11 225.162 95.104 225.294 95.104C225.438 95.092 225.57 95.086 225.69 95.086C225.81 95.074 225.894 95.062 225.942 95.05C225.942 94.978 225.948 94.858 225.96 94.69C225.984 94.51 226.002 94.312 226.014 94.096C226.038 93.868 226.062 93.622 226.086 93.358C226.11 93.094 226.134 92.836 226.158 92.584C226.206 91.972 226.266 91.312 226.338 90.604L226.446 89.038L226.176 89.056L225.762 90.604L224.646 95.122ZM232.181 99.64C232.073 99.64 231.857 99.658 231.533 99.694C231.221 99.718 230.897 99.754 230.561 99.802C230.225 99.838 229.919 99.874 229.643 99.91C229.379 99.946 229.235 99.97 229.211 99.982C229.331 99.466 229.451 98.896 229.571 98.272C229.703 97.636 229.835 96.976 229.967 96.292C230.099 95.596 230.225 94.894 230.345 94.186C230.465 93.478 230.579 92.794 230.687 92.134C230.939 90.598 231.191 89.02 231.443 87.4L234.251 86.95C233.975 88.558 233.705 90.136 233.441 91.684C233.333 92.344 233.219 93.028 233.099 93.736C232.991 94.444 232.877 95.146 232.757 95.842C232.649 96.538 232.547 97.216 232.451 97.876C232.355 98.524 232.265 99.112 232.181 99.64ZM238.268 99.424C237.896 99.424 237.5 99.436 237.08 99.46C236.672 99.484 236.258 99.52 235.838 99.568C235.418 99.616 235.004 99.682 234.596 99.766C234.2 99.838 233.84 99.928 233.516 100.036C233.588 99.496 233.672 98.896 233.768 98.236C233.864 97.576 233.972 96.892 234.092 96.184C234.224 95.476 234.35 94.762 234.47 94.042C234.602 93.322 234.734 92.632 234.866 91.972C235.166 90.4 235.484 88.798 235.82 87.166L238.97 86.752C238.646 88.144 238.334 89.5 238.034 90.82C237.902 91.384 237.77 91.972 237.638 92.584C237.506 93.184 237.38 93.772 237.26 94.348C237.14 94.924 237.032 95.482 236.936 96.022C236.84 96.562 236.762 97.042 236.702 97.462C237.002 97.438 237.32 97.426 237.656 97.426C238.004 97.414 238.31 97.408 238.574 97.408C238.586 97.636 238.604 97.864 238.628 98.092C238.652 98.308 238.676 98.506 238.7 98.686C238.736 98.866 238.76 99.028 238.772 99.172C238.796 99.304 238.814 99.394 238.826 99.442C238.73 99.442 238.634 99.442 238.538 99.442C238.454 99.43 238.364 99.424 238.268 99.424ZM242.907 95.734C242.559 95.734 242.211 95.746 241.863 95.77C241.515 95.794 241.167 95.818 240.819 95.842C241.191 94.366 241.551 92.896 241.899 91.432C242.259 89.968 242.631 88.498 243.015 87.022C243.243 86.986 243.501 86.95 243.789 86.914C244.089 86.878 244.389 86.836 244.689 86.788C244.989 86.74 245.277 86.698 245.553 86.662C245.841 86.626 246.081 86.59 246.273 86.554C245.625 88.066 245.031 89.59 244.491 91.126C243.963 92.65 243.435 94.186 242.907 95.734ZM243.087 98.56C243.087 98.788 243.033 99.016 242.925 99.244C242.829 99.472 242.685 99.676 242.493 99.856C242.301 100.024 242.061 100.156 241.773 100.252C241.485 100.36 241.155 100.414 240.783 100.414C240.531 100.414 240.303 100.366 240.099 100.27C239.895 100.174 239.727 100.048 239.595 99.892C239.475 99.724 239.379 99.538 239.307 99.334C239.235 99.13 239.199 98.926 239.199 98.722C239.199 98.494 239.235 98.278 239.307 98.074C239.379 97.858 239.487 97.672 239.631 97.516C239.787 97.348 239.973 97.21 240.189 97.102C240.417 96.994 240.687 96.94 240.999 96.94C241.695 96.94 242.217 97.108 242.565 97.444C242.913 97.768 243.087 98.14 243.087 98.56Z" fill="#444444"/>
</svg>
