<svg width="298" height="283" viewBox="0 0 298 283" fill="none" xmlns="http://www.w3.org/2000/svg">
<path d="M134.319 71.9436C152.072 73.5966 157.434 5.72136 157.434 5.72136C157.434 5.72136 152.955 70.354 159.933 74.4425C166.911 78.531 189.608 42.4247 189.608 42.4247C189.608 42.4247 179.429 66.8718 183.985 71.3188C188.541 75.7657 248.021 39.4572 248.021 39.4572C248.021 39.4572 187.371 77.6209 190.545 84.4383C193.719 91.2558 298 60.6983 298 60.6983C298 60.6983 196.755 89.0869 199.291 98.1825C201.828 107.278 235.526 93.3408 235.526 93.3408C235.526 93.3408 219.467 107.944 223.188 112.708C226.908 117.471 291.597 91.1542 291.597 91.1542C291.597 91.1542 236.964 114.36 236.776 127.545C236.588 140.73 291.128 158.782 291.128 158.782C291.128 158.782 250.18 153.352 245.522 169.403C240.864 185.454 283.006 207.512 283.006 207.512C283.006 207.512 236.731 194.304 231.153 198.765C225.575 203.227 241.774 225.629 241.774 225.629C241.774 225.629 216.818 199.772 209.287 203.139C201.757 206.506 224.906 254.367 224.906 254.367C224.906 254.367 204.43 217.352 199.135 218.757C193.841 220.162 214.129 282.48 214.129 282.48C214.129 282.48 193.718 217.04 181.486 218.601C169.255 220.162 178.05 256.866 178.05 256.866C178.05 256.866 160.929 230.296 154.935 233.751C148.941 237.206 158.683 280.606 158.683 280.606C158.683 280.606 134.757 232.62 126.822 233.751C118.886 234.882 113.39 268.424 113.39 268.424C113.39 268.424 117.412 235.806 111.047 230.783C104.682 225.76 73.0943 262.489 73.0943 262.489C73.0943 262.489 103.276 216.896 90.587 208.136C77.898 199.376 28.1133 269.361 28.1133 269.361C28.1133 269.361 63.7177 212.396 60.5996 207.512C57.4815 202.628 0 212.51 0 212.51C0 212.51 43.8482 192.878 42.1698 188.145C40.4915 183.412 0.624784 190.644 0.624784 190.644C0.624784 190.644 56.9893 177.882 57.1635 175.494C57.338 173.106 5.62272 170.652 5.62272 170.652C5.62272 170.652 49.6283 173.473 50.9161 165.967C52.2041 158.46 3.74837 155.034 3.74837 155.034C3.74837 155.034 50.6852 157.936 51.2286 155.034C51.7719 152.132 10.9329 132.387 10.9329 132.387C10.9329 132.387 53.996 151.506 57.476 145.038C60.9558 138.57 27.4884 108.178 27.4884 108.178C27.4884 108.178 49.4925 122.992 56.2265 116.3C62.9603 109.608 25.6143 65.0713 25.6143 65.0713C25.6143 65.0713 75.0442 106.885 80.5911 100.681C86.1383 94.4783 37.7507 42.9989 37.7507 42.9989C37.7507 42.9989 77.9829 87.2491 81.4502 83.5793C84.9175 79.9094 49.3543 28.8366 49.3543 28.8366C49.3543 28.8366 87.047 79.1222 88.7128 77.5661C90.3786 76.0101 57.476 5.72136 57.476 5.72136C57.476 5.72136 89.9234 74.5874 94.3354 71.3188C98.7475 68.0503 77.4676 5.09657 77.4676 5.09657C77.4676 5.09657 98.8574 63.4535 108.08 63.1972C117.302 62.9409 119.95 0.0986328 119.95 0.0986328C119.95 0.0986328 116.566 70.2904 134.319 71.9436V71.9436Z" fill="#D40000"/>
<path d="M137.317 81.0601C153.888 82.5596 158.893 20.9966 158.893 20.9966C158.893 20.9966 154.713 79.6184 161.226 83.3268C167.739 87.0349 188.925 54.2866 188.925 54.2866C188.925 54.2866 179.424 76.46 183.677 80.4935C187.929 84.5269 243.449 51.5949 243.449 51.5949C243.449 51.5949 186.837 86.2095 189.8 92.3928C192.763 98.5763 290.1 70.8607 290.1 70.8607C290.1 70.8607 195.596 96.6092 197.964 104.859C200.331 113.109 231.786 100.467 231.786 100.467C231.786 100.467 216.796 113.713 220.269 118.033C223.741 122.354 284.123 98.4843 284.123 98.4843C284.123 98.4843 233.128 119.532 232.952 131.491C232.777 143.45 283.685 159.823 283.685 159.823C283.685 159.823 245.464 154.897 241.116 169.456C236.768 184.014 276.105 204.02 276.105 204.02C276.105 204.02 232.911 192.041 227.704 196.088C222.497 200.134 237.617 220.453 237.617 220.453C237.617 220.453 214.323 197 207.294 200.054C200.265 203.108 221.872 246.518 221.872 246.518C221.872 246.518 202.76 212.945 197.818 214.22C192.876 215.495 211.813 272.017 211.813 272.017C211.813 272.017 192.762 212.662 181.344 214.078C169.927 215.494 178.137 248.785 178.137 248.785C178.137 248.785 162.156 224.685 156.561 227.819C150.966 230.953 160.06 270.317 160.06 270.317C160.06 270.317 137.727 226.793 130.319 227.819C122.912 228.845 117.782 259.268 117.782 259.268C117.782 259.268 121.536 229.683 115.595 225.128C109.654 220.572 80.1694 253.885 80.1694 253.885C80.1694 253.885 108.341 212.532 96.4973 204.587C84.6533 196.642 38.1832 260.118 38.1832 260.118C38.1832 260.118 71.4171 208.45 68.5066 204.02C65.5961 199.591 11.9419 208.554 11.9419 208.554C11.9419 208.554 52.8705 190.748 51.304 186.455C49.7374 182.162 12.5251 188.721 12.5251 188.721C12.5251 188.721 65.1366 177.146 65.2993 174.98C65.462 172.815 17.1902 170.589 17.1902 170.589C17.1902 170.589 58.2656 173.148 59.4679 166.339C60.67 159.53 15.4409 156.423 15.4409 156.423C15.4409 156.423 59.2523 159.055 59.7594 156.423C60.2666 153.791 22.1468 135.882 22.1468 135.882C22.1468 135.882 62.3428 153.223 65.5909 147.357C68.8389 141.49 37.6001 113.925 37.6001 113.925C37.6001 113.925 58.139 127.361 64.4246 121.291C70.71 115.222 35.8507 74.8271 35.8507 74.8271C35.8507 74.8271 81.9894 112.752 87.1671 107.126C92.3447 101.499 47.179 54.8072 47.179 54.8072C47.179 54.8072 84.7323 94.9423 87.9689 91.6138C91.2053 88.2852 58.0099 41.9621 58.0099 41.9621C58.0099 41.9621 93.1929 87.5712 94.7478 86.1598C96.3027 84.7485 65.5909 20.9966 65.5909 20.9966C65.5909 20.9966 95.8778 83.458 99.9962 80.4935C104.114 77.529 84.2514 20.4299 84.2514 20.4299C84.2514 20.4299 104.217 73.3597 112.825 73.1272C121.434 72.8947 123.905 15.8967 123.905 15.8967C123.905 15.8967 120.746 79.5608 137.317 81.0601V81.0601Z" fill="#FF0000"/>
<path d="M137.636 98.3497C150.806 99.5412 154.783 50.6163 154.783 50.6163C154.783 50.6163 151.461 97.2039 156.637 100.151C161.813 103.098 178.65 77.0723 178.65 77.0723C178.65 77.0723 171.1 94.6939 174.479 97.8994C177.859 101.105 221.981 74.9334 221.981 74.9334C221.981 74.9334 176.991 102.442 179.345 107.356C181.7 112.27 259.055 90.244 259.055 90.244C259.055 90.244 183.952 110.707 185.833 117.263C187.715 123.819 212.712 113.773 212.712 113.773C212.712 113.773 200.8 124.299 203.559 127.733C206.319 131.166 254.305 112.197 254.305 112.197C254.305 112.197 213.779 128.924 213.639 138.428C213.5 147.932 253.957 160.944 253.957 160.944C253.957 160.944 223.582 157.029 220.127 168.599C216.672 180.169 247.933 196.068 247.933 196.068C247.933 196.068 213.606 186.548 209.468 189.764C205.33 192.979 217.346 209.127 217.346 209.127C217.346 209.127 198.834 190.489 193.248 192.916C187.662 195.343 204.834 229.842 204.834 229.842C204.834 229.842 189.645 203.161 185.717 204.174C181.79 205.187 196.84 250.106 196.84 250.106C196.84 250.106 181.699 202.936 172.625 204.061C163.552 205.186 170.077 231.643 170.077 231.643C170.077 231.643 157.376 212.491 152.93 214.981C148.483 217.472 155.71 248.755 155.71 248.755C155.71 248.755 137.962 214.166 132.075 214.981C126.189 215.797 122.112 239.974 122.112 239.974C122.112 239.974 125.095 216.463 120.374 212.842C115.652 209.222 92.2203 235.696 92.2203 235.696C92.2203 235.696 114.609 202.833 105.196 196.518C95.7837 190.204 58.8533 240.649 58.8533 240.649C58.8533 240.649 85.2648 199.589 82.9517 196.068C80.6387 192.547 37.999 199.671 37.999 199.671C37.999 199.671 70.5254 185.52 69.2805 182.108C68.0355 178.697 38.4623 183.91 38.4623 183.91C38.4623 183.91 80.2734 174.71 80.4029 172.989C80.5324 171.268 42.1697 169.5 42.1697 169.5C42.1697 169.5 74.8131 171.533 75.7686 166.122C76.7239 160.711 40.7795 158.242 40.7795 158.242C40.7795 158.242 75.5972 160.333 76.0003 158.242C76.4034 156.15 46.109 141.918 46.109 141.918C46.109 141.918 78.0532 155.699 80.6345 151.037C83.2159 146.375 58.3899 124.468 58.3899 124.468C58.3899 124.468 74.7125 135.146 79.7077 130.322C84.7029 125.498 56.9997 93.3963 56.9997 93.3963C56.9997 93.3963 93.6667 123.535 97.7814 119.064C101.896 114.593 66.0024 77.4862 66.0024 77.4862C66.0024 77.4862 95.8467 109.382 98.4187 106.737C100.991 104.092 74.61 67.2779 74.61 67.2779C74.61 67.2779 102.57 103.524 103.806 102.403C105.042 101.281 80.6345 50.6163 80.6345 50.6163C80.6345 50.6163 104.704 100.255 107.977 97.8994C111.25 95.5435 95.4643 50.1659 95.4643 50.1659C95.4643 50.1659 111.331 92.23 118.173 92.0453C125.014 91.8605 126.978 46.5635 126.978 46.5635C126.978 46.5635 124.467 97.1581 137.636 98.3497V98.3497Z" fill="#FF2A2A"/>
<path d="M137.097 96.3585C150.266 97.5502 154.243 48.6251 154.243 48.6251C154.243 48.6251 150.921 95.2129 156.097 98.1599C161.273 101.107 178.11 75.0811 178.11 75.0811C178.11 75.0811 170.56 92.7028 173.939 95.9082C177.319 99.1135 221.441 72.9421 221.441 72.9421C221.441 72.9421 176.451 100.451 178.805 105.365C181.16 110.279 258.515 88.2529 258.515 88.2529C258.515 88.2529 183.412 108.716 185.293 115.272C187.175 121.828 212.172 111.782 212.172 111.782C212.172 111.782 200.26 122.308 203.02 125.742C205.779 129.175 253.765 110.206 253.765 110.206C253.765 110.206 213.238 126.933 213.099 136.437C212.96 145.941 253.418 158.952 253.418 158.952C253.418 158.952 223.042 155.038 219.587 166.608C216.132 178.178 247.393 194.077 247.393 194.077C247.393 194.077 213.066 184.557 208.928 187.772C204.79 190.988 216.806 207.136 216.806 207.136C216.806 207.136 198.294 188.498 192.708 190.925C187.122 193.352 204.294 227.851 204.294 227.851C204.294 227.851 189.105 201.169 185.177 202.183C181.25 203.196 196.3 248.115 196.3 248.115C196.3 248.115 181.159 200.945 172.085 202.07C163.012 203.195 169.537 229.652 169.537 229.652C169.537 229.652 156.836 210.5 152.39 212.99C147.943 215.481 155.17 246.764 155.17 246.764C155.17 246.764 137.422 212.175 131.535 212.99C125.649 213.805 121.572 237.983 121.572 237.983C121.572 237.983 124.555 214.472 119.834 210.851C115.112 207.231 91.6803 233.705 91.6803 233.705C91.6803 233.705 114.069 200.842 104.656 194.527C95.2436 188.213 58.3133 238.658 58.3133 238.658C58.3133 238.658 84.7247 197.598 82.4118 194.077C80.0988 190.556 37.459 197.679 37.459 197.679C37.459 197.679 69.9855 183.529 68.7405 180.117C67.4956 176.706 37.9225 181.918 37.9225 181.918C37.9225 181.918 79.7335 172.719 79.8628 170.998C79.9924 169.277 41.6299 167.508 41.6299 167.508C41.6299 167.508 74.2732 169.542 75.2285 164.131C76.184 158.72 40.2396 156.25 40.2396 156.25C40.2396 156.25 75.0572 158.342 75.4602 156.25C75.8633 154.159 45.5691 139.927 45.5691 139.927C45.5691 139.927 77.5133 153.707 80.0947 149.045C82.6759 144.383 57.8499 122.477 57.8499 122.477C57.8499 122.477 74.1725 133.154 79.1677 128.331C84.1628 123.507 56.4596 91.4051 56.4596 91.4051C56.4596 91.4051 93.1266 121.544 97.2415 117.073C101.356 112.602 65.4624 75.495 65.4624 75.495C65.4624 75.495 95.3066 107.391 97.8787 104.746C100.451 102.1 74.07 65.2868 74.07 65.2868C74.07 65.2868 102.03 101.533 103.266 100.411C104.502 99.2899 80.0947 48.6251 80.0947 48.6251C80.0947 48.6251 104.164 98.2642 107.437 95.9082C110.71 93.5522 94.9243 48.1749 94.9243 48.1749C94.9243 48.1749 110.791 90.2389 117.632 90.0541C124.474 89.8693 126.438 44.5723 126.438 44.5723C126.438 44.5723 123.927 95.1669 137.097 96.3585V96.3585Z" fill="#FFFF00"/>
<path d="M91.0149 160.072L92.3829 147.292C92.9469 147.268 93.4749 147.214 93.9669 147.13C94.4709 147.034 94.9689 146.968 95.4609 146.932C95.4609 146.944 95.4429 147.07 95.4069 147.31C95.3709 147.538 95.3229 147.844 95.2629 148.228C95.2029 148.6 95.1369 149.026 95.0649 149.506C94.9929 149.974 94.8849 150.622 94.7409 151.45C94.6089 152.278 94.4289 153.424 94.2009 154.888H94.4709C94.7829 153.784 95.0409 152.884 95.2449 152.188C95.4489 151.48 95.6109 150.91 95.7309 150.478C95.8629 150.034 95.9829 149.608 96.0909 149.2C96.2109 148.792 96.3189 148.414 96.4149 148.066C96.5229 147.718 96.6069 147.424 96.6669 147.184H96.8289C97.0449 147.184 97.2609 147.172 97.4769 147.148C97.7049 147.124 97.9149 147.1 98.1069 147.076C98.3109 147.04 98.5209 146.998 98.7369 146.95C98.7129 147.058 98.6829 147.28 98.6469 147.616C98.6229 147.952 98.5869 148.36 98.5389 148.84C98.4909 149.308 98.4429 149.83 98.3949 150.406C98.3469 150.97 98.2989 151.528 98.2509 152.08C98.2029 152.62 98.1549 153.136 98.1069 153.628C98.0709 154.12 98.0349 154.54 97.9989 154.888H98.3229L100.033 147.148C100.441 147.088 100.843 147.034 101.239 146.986C101.587 146.938 101.947 146.89 102.319 146.842C102.691 146.794 103.021 146.74 103.309 146.68C103.129 147.184 102.949 147.748 102.769 148.372C102.589 148.984 102.403 149.632 102.211 150.316C102.019 151 101.833 151.69 101.653 152.386C101.485 153.082 101.317 153.754 101.149 154.402C100.765 155.938 100.393 157.516 100.033 159.136L95.9649 159.82L96.7569 152.872H96.5409L94.7589 159.406L91.0149 160.072ZM101.699 160.018C102.023 158.422 102.335 156.862 102.635 155.338C102.743 154.69 102.863 154.018 102.995 153.322C103.127 152.614 103.247 151.918 103.355 151.234C103.475 150.538 103.583 149.872 103.679 149.236C103.787 148.588 103.871 148 103.931 147.472C104.615 147.256 105.353 147.1 106.145 147.004C106.937 146.896 107.723 146.842 108.503 146.842C108.971 146.842 109.355 146.896 109.655 147.004C109.967 147.112 110.207 147.268 110.375 147.472C110.555 147.664 110.681 147.892 110.753 148.156C110.825 148.42 110.861 148.714 110.861 149.038C110.861 149.518 110.777 149.992 110.609 150.46C110.441 150.916 110.213 151.354 109.925 151.774C109.649 152.182 109.325 152.56 108.953 152.908C108.593 153.244 108.203 153.52 107.783 153.736C107.999 154.216 108.227 154.744 108.467 155.32C108.719 155.884 108.953 156.424 109.169 156.94C109.409 157.54 109.655 158.14 109.907 158.74L107.117 159.712C106.877 158.944 106.661 158.224 106.469 157.552C106.385 157.276 106.301 156.994 106.217 156.706C106.133 156.406 106.055 156.124 105.983 155.86C105.911 155.596 105.851 155.362 105.803 155.158C105.755 154.942 105.725 154.768 105.713 154.636L105.479 154.708C105.407 155.092 105.317 155.542 105.209 156.058C105.113 156.574 105.023 157.072 104.939 157.552C104.831 158.116 104.723 158.686 104.615 159.262L101.699 160.018ZM105.929 152.206C106.157 152.182 106.433 152.086 106.757 151.918C107.093 151.75 107.411 151.552 107.711 151.324C108.011 151.084 108.269 150.838 108.485 150.586C108.701 150.334 108.809 150.112 108.809 149.92C108.809 149.788 108.767 149.686 108.683 149.614C108.599 149.53 108.479 149.47 108.323 149.434C108.179 149.386 108.017 149.356 107.837 149.344C107.657 149.332 107.471 149.326 107.279 149.326C107.147 149.326 107.009 149.332 106.865 149.344C106.733 149.344 106.613 149.344 106.505 149.344L105.929 152.206ZM120.245 150.262C120.245 151.246 120.137 152.176 119.921 153.052C119.717 153.916 119.441 154.714 119.093 155.446C118.745 156.166 118.337 156.814 117.869 157.39C117.413 157.954 116.933 158.44 116.429 158.848C115.925 159.244 115.415 159.55 114.899 159.766C114.383 159.97 113.891 160.072 113.423 160.072C113.027 160.072 112.667 160 112.343 159.856C112.019 159.7 111.737 159.478 111.497 159.19C111.257 158.89 111.065 158.512 110.921 158.056C110.789 157.588 110.723 157.03 110.723 156.382C110.723 155.71 110.807 155.002 110.975 154.258C111.143 153.514 111.371 152.776 111.659 152.044C111.947 151.312 112.301 150.616 112.721 149.956C113.141 149.296 113.603 148.714 114.107 148.21C114.611 147.694 115.151 147.286 115.727 146.986C116.303 146.686 116.903 146.536 117.527 146.536C118.067 146.536 118.511 146.65 118.859 146.878C119.219 147.094 119.495 147.382 119.687 147.742C119.891 148.09 120.035 148.486 120.119 148.93C120.203 149.374 120.245 149.818 120.245 150.262ZM113.405 155.914C113.405 156.046 113.429 156.184 113.477 156.328C113.525 156.472 113.591 156.598 113.675 156.706C113.759 156.814 113.861 156.91 113.981 156.994C114.113 157.066 114.251 157.102 114.395 157.102C114.935 157.102 115.415 156.916 115.835 156.544C116.255 156.172 116.603 155.716 116.879 155.176C117.155 154.636 117.365 154.06 117.509 153.448C117.665 152.836 117.743 152.278 117.743 151.774C117.743 151.63 117.731 151.474 117.707 151.306C117.695 151.138 117.659 150.982 117.599 150.838C117.551 150.694 117.467 150.574 117.347 150.478C117.239 150.37 117.089 150.316 116.897 150.316C116.513 150.316 116.159 150.412 115.835 150.604C115.511 150.796 115.217 151.054 114.953 151.378C114.701 151.69 114.479 152.05 114.287 152.458C114.095 152.854 113.927 153.262 113.783 153.682C113.651 154.09 113.555 154.492 113.495 154.888C113.435 155.284 113.405 155.626 113.405 155.914ZM119.672 160.09C120.032 158.362 120.374 156.688 120.698 155.068C120.818 154.372 120.944 153.652 121.076 152.908C121.22 152.164 121.352 151.432 121.472 150.712C121.592 149.98 121.7 149.284 121.796 148.624C121.892 147.952 121.964 147.346 122.012 146.806C122.168 146.818 122.3 146.824 122.408 146.824C122.516 146.824 122.642 146.824 122.786 146.824C122.954 146.824 123.158 146.824 123.398 146.824C123.638 146.812 123.878 146.8 124.118 146.788C124.358 146.776 124.616 146.764 124.892 146.752C125.06 147.592 125.21 148.402 125.342 149.182C125.474 149.866 125.606 150.568 125.738 151.288C125.882 152.008 126.008 152.62 126.116 153.124C126.164 152.884 126.218 152.608 126.278 152.296C126.338 151.972 126.404 151.636 126.476 151.288C126.548 150.94 126.614 150.592 126.674 150.244C126.746 149.884 126.818 149.53 126.89 149.182C127.058 148.402 127.232 147.598 127.412 146.77L129.608 146.5C129.2 148.336 128.84 150.076 128.528 151.72C128.384 152.428 128.24 153.148 128.096 153.88C127.964 154.6 127.838 155.296 127.718 155.968C127.598 156.628 127.496 157.246 127.412 157.822C127.328 158.386 127.262 158.86 127.214 159.244C127.178 159.244 127.034 159.274 126.782 159.334C126.542 159.382 126.26 159.442 125.936 159.514C125.624 159.586 125.306 159.658 124.982 159.73C124.67 159.802 124.436 159.868 124.28 159.928C124.208 158.968 124.13 158.056 124.046 157.192C124.01 156.82 123.968 156.442 123.92 156.058C123.884 155.662 123.842 155.284 123.794 154.924C123.746 154.564 123.698 154.228 123.65 153.916C123.602 153.604 123.554 153.334 123.506 153.106C123.47 153.334 123.422 153.598 123.362 153.898C123.302 154.198 123.242 154.516 123.182 154.852C123.122 155.188 123.062 155.542 123.002 155.914C122.942 156.274 122.876 156.622 122.804 156.958C122.648 157.762 122.48 158.602 122.3 159.478L119.672 160.09ZM138.053 153.142C137.969 154.366 137.729 155.434 137.333 156.346C136.937 157.246 136.457 158.002 135.893 158.614C135.341 159.226 134.741 159.682 134.093 159.982C133.457 160.282 132.851 160.432 132.275 160.432C131.831 160.432 131.405 160.336 130.997 160.144C130.601 159.952 130.253 159.664 129.953 159.28C129.665 158.884 129.437 158.392 129.269 157.804C129.101 157.216 129.017 156.526 129.017 155.734C129.017 154.186 129.239 152.836 129.683 151.684C130.127 150.532 130.685 149.572 131.357 148.804C132.041 148.036 132.767 147.466 133.535 147.094C134.315 146.722 135.041 146.536 135.713 146.536C136.193 146.536 136.607 146.62 136.955 146.788C137.315 146.956 137.609 147.184 137.837 147.472C138.065 147.748 138.227 148.078 138.323 148.462C138.431 148.834 138.485 149.23 138.485 149.65L136.019 150.118C135.911 149.638 135.767 149.296 135.587 149.092C135.407 148.888 135.203 148.786 134.975 148.786C134.675 148.786 134.345 149.002 133.985 149.434C133.625 149.854 133.289 150.4 132.977 151.072C132.665 151.744 132.401 152.482 132.185 153.286C131.969 154.09 131.849 154.882 131.825 155.662C131.825 156.406 131.933 156.94 132.149 157.264C132.377 157.576 132.665 157.732 133.013 157.732C133.253 157.732 133.499 157.672 133.751 157.552C134.015 157.432 134.249 157.264 134.453 157.048C134.657 156.82 134.825 156.562 134.957 156.274C135.101 155.974 135.179 155.65 135.191 155.302L133.265 155.59L133.607 153.808C134.171 153.736 134.723 153.664 135.263 153.592C135.719 153.532 136.199 153.46 136.703 153.376C137.219 153.292 137.669 153.214 138.053 153.142ZM141.299 159.892C141.827 158.296 142.331 156.73 142.811 155.194C143.015 154.546 143.225 153.868 143.441 153.16C143.657 152.452 143.873 151.75 144.089 151.054C144.305 150.358 144.503 149.686 144.683 149.038C144.875 148.39 145.043 147.79 145.187 147.238C145.847 147.238 146.471 147.202 147.059 147.13C147.647 147.058 148.283 146.992 148.967 146.932C148.931 147.196 148.889 147.496 148.841 147.832C148.805 148.156 148.757 148.498 148.697 148.858C148.649 149.218 148.595 149.59 148.535 149.974C148.475 150.358 148.403 150.85 148.319 151.45C148.235 152.05 148.121 152.8 147.977 153.7H148.211C148.559 152.788 148.847 152.032 149.075 151.432C149.303 150.82 149.489 150.322 149.633 149.938C149.777 149.554 149.921 149.182 150.065 148.822C150.221 148.45 150.365 148.102 150.497 147.778C150.641 147.442 150.773 147.148 150.893 146.896C151.193 146.872 151.475 146.842 151.739 146.806C152.003 146.77 152.267 146.734 152.531 146.698C152.795 146.65 153.059 146.608 153.323 146.572C153.599 146.524 153.899 146.47 154.223 146.41C154.103 147.106 153.989 147.82 153.881 148.552C153.773 149.284 153.677 150.016 153.593 150.748C153.509 151.468 153.425 152.182 153.341 152.89C153.269 153.598 153.203 154.27 153.143 154.906C152.999 156.394 152.873 157.846 152.765 159.262L149.633 159.82C149.633 159.76 149.639 159.598 149.651 159.334C149.675 159.07 149.699 158.746 149.723 158.362C149.759 157.978 149.801 157.552 149.849 157.084C149.909 156.616 149.963 156.148 150.011 155.68C150.071 155.212 150.131 154.762 150.191 154.33C150.251 153.886 150.311 153.508 150.371 153.196H150.209C150.041 153.7 149.855 154.234 149.651 154.798C149.447 155.35 149.237 155.914 149.021 156.49C148.817 157.066 148.613 157.63 148.409 158.182C148.205 158.734 148.025 159.262 147.869 159.766C147.449 159.778 147.089 159.796 146.789 159.82C146.489 159.832 146.141 159.85 145.745 159.874L146.321 153.196H146.051C146.027 153.352 145.967 153.616 145.871 153.988C145.775 154.348 145.661 154.768 145.529 155.248C145.409 155.716 145.277 156.208 145.133 156.724C144.989 157.228 144.851 157.702 144.719 158.146C144.599 158.578 144.497 158.938 144.413 159.226C144.329 159.502 144.281 159.658 144.269 159.694L141.299 159.892ZM153.668 160.018L156.026 147.22L161.714 146.734C161.63 146.998 161.558 147.268 161.498 147.544C161.438 147.772 161.378 148.012 161.318 148.264C161.27 148.504 161.228 148.72 161.192 148.912C161.072 148.924 160.898 148.936 160.67 148.948C160.454 148.948 160.22 148.954 159.968 148.966C159.716 148.966 159.458 148.966 159.194 148.966C158.942 148.966 158.72 148.966 158.528 148.966L157.898 152.188C158.27 152.164 158.618 152.146 158.942 152.134C159.206 152.122 159.476 152.116 159.752 152.116C160.028 152.116 160.232 152.11 160.364 152.098C160.316 152.434 160.268 152.764 160.22 153.088C160.184 153.412 160.136 153.742 160.076 154.078C159.956 154.09 159.758 154.102 159.482 154.114C159.218 154.114 158.948 154.12 158.672 154.132C158.36 154.144 158.018 154.156 157.646 154.168L157.034 157.48L159.662 157.066L159.482 159.118L153.668 160.018ZM168.172 155.554C168.172 156.226 168.04 156.838 167.776 157.39C167.524 157.93 167.176 158.398 166.732 158.794C166.3 159.19 165.784 159.496 165.184 159.712C164.596 159.928 163.96 160.036 163.276 160.036C162.796 160.036 162.316 159.91 161.836 159.658C161.356 159.394 160.894 158.98 160.45 158.416L161.782 155.806C161.866 155.962 161.992 156.124 162.16 156.292C162.328 156.448 162.514 156.586 162.718 156.706C162.934 156.826 163.144 156.928 163.348 157.012C163.564 157.084 163.756 157.12 163.924 157.12C164.068 157.12 164.218 157.096 164.374 157.048C164.53 157 164.674 156.928 164.806 156.832C164.938 156.736 165.04 156.628 165.112 156.508C165.196 156.376 165.238 156.226 165.238 156.058C165.238 155.77 165.142 155.506 164.95 155.266C164.77 155.014 164.542 154.78 164.266 154.564C163.99 154.336 163.69 154.108 163.366 153.88C163.042 153.652 162.742 153.412 162.466 153.16C162.202 152.908 161.974 152.626 161.782 152.314C161.59 152.002 161.494 151.654 161.494 151.27C161.494 150.646 161.68 150.064 162.052 149.524C162.424 148.984 162.886 148.522 163.438 148.138C164.002 147.742 164.614 147.43 165.274 147.202C165.934 146.974 166.558 146.86 167.146 146.86C167.47 146.86 167.776 146.902 168.064 146.986C168.352 147.058 168.598 147.184 168.802 147.364C169.018 147.532 169.186 147.748 169.306 148.012C169.438 148.276 169.504 148.606 169.504 149.002C169.504 149.17 169.486 149.338 169.45 149.506C169.426 149.674 169.402 149.854 169.378 150.046L166.768 150.802C166.792 150.706 166.81 150.61 166.822 150.514C166.846 150.418 166.858 150.322 166.858 150.226C166.858 149.866 166.792 149.608 166.66 149.452C166.54 149.284 166.378 149.2 166.174 149.2C166.078 149.2 165.958 149.236 165.814 149.308C165.682 149.38 165.544 149.476 165.4 149.596C165.268 149.704 165.154 149.836 165.058 149.992C164.962 150.148 164.914 150.316 164.914 150.496C164.914 150.784 164.992 151.024 165.148 151.216C165.316 151.408 165.52 151.588 165.76 151.756C166 151.924 166.258 152.098 166.534 152.278C166.822 152.446 167.086 152.668 167.326 152.944C167.566 153.22 167.764 153.568 167.92 153.988C168.088 154.396 168.172 154.918 168.172 155.554ZM176.447 155.554C176.447 156.226 176.315 156.838 176.051 157.39C175.799 157.93 175.451 158.398 175.007 158.794C174.575 159.19 174.059 159.496 173.459 159.712C172.871 159.928 172.235 160.036 171.551 160.036C171.071 160.036 170.591 159.91 170.111 159.658C169.631 159.394 169.169 158.98 168.725 158.416L170.057 155.806C170.141 155.962 170.267 156.124 170.435 156.292C170.603 156.448 170.789 156.586 170.993 156.706C171.209 156.826 171.419 156.928 171.623 157.012C171.839 157.084 172.031 157.12 172.199 157.12C172.343 157.12 172.493 157.096 172.649 157.048C172.805 157 172.949 156.928 173.081 156.832C173.213 156.736 173.315 156.628 173.387 156.508C173.471 156.376 173.513 156.226 173.513 156.058C173.513 155.77 173.417 155.506 173.225 155.266C173.045 155.014 172.817 154.78 172.541 154.564C172.265 154.336 171.965 154.108 171.641 153.88C171.317 153.652 171.017 153.412 170.741 153.16C170.477 152.908 170.249 152.626 170.057 152.314C169.865 152.002 169.769 151.654 169.769 151.27C169.769 150.646 169.955 150.064 170.327 149.524C170.699 148.984 171.161 148.522 171.713 148.138C172.277 147.742 172.889 147.43 173.549 147.202C174.209 146.974 174.833 146.86 175.421 146.86C175.745 146.86 176.051 146.902 176.339 146.986C176.627 147.058 176.873 147.184 177.077 147.364C177.293 147.532 177.461 147.748 177.581 148.012C177.713 148.276 177.779 148.606 177.779 149.002C177.779 149.17 177.761 149.338 177.725 149.506C177.701 149.674 177.677 149.854 177.653 150.046L175.043 150.802C175.067 150.706 175.085 150.61 175.097 150.514C175.121 150.418 175.133 150.322 175.133 150.226C175.133 149.866 175.067 149.608 174.935 149.452C174.815 149.284 174.653 149.2 174.449 149.2C174.353 149.2 174.233 149.236 174.089 149.308C173.957 149.38 173.819 149.476 173.675 149.596C173.543 149.704 173.429 149.836 173.333 149.992C173.237 150.148 173.189 150.316 173.189 150.496C173.189 150.784 173.267 151.024 173.423 151.216C173.591 151.408 173.795 151.588 174.035 151.756C174.275 151.924 174.533 152.098 174.809 152.278C175.097 152.446 175.361 152.668 175.601 152.944C175.841 153.22 176.039 153.568 176.195 153.988C176.363 154.396 176.447 154.918 176.447 155.554ZM183.371 159.64C183.071 159.688 182.741 159.742 182.381 159.802C182.021 159.862 181.697 159.916 181.409 159.964C181.457 159.568 181.505 159.178 181.553 158.794C181.589 158.458 181.619 158.122 181.643 157.786C181.679 157.45 181.709 157.162 181.733 156.922H180.167L179.447 159.514C179.183 159.55 178.871 159.592 178.511 159.64C178.151 159.676 177.815 159.712 177.503 159.748C177.119 159.796 176.741 159.844 176.369 159.892C176.849 158.296 177.323 156.724 177.791 155.176C177.983 154.528 178.181 153.85 178.385 153.142C178.601 152.434 178.811 151.732 179.015 151.036C179.231 150.328 179.435 149.65 179.627 149.002C179.819 148.354 179.987 147.76 180.131 147.22C180.947 147.16 181.775 147.088 182.615 147.004C183.467 146.92 184.295 146.806 185.099 146.662C185.063 147.046 185.021 147.526 184.973 148.102C184.937 148.666 184.901 149.284 184.865 149.956C184.829 150.628 184.793 151.33 184.757 152.062C184.721 152.794 184.685 153.514 184.649 154.222C184.589 155.878 184.523 157.636 184.451 159.496C184.091 159.556 183.731 159.604 183.371 159.64ZM180.599 155.122C180.647 155.122 180.731 155.122 180.851 155.122C180.983 155.11 181.115 155.104 181.247 155.104C181.391 155.092 181.523 155.086 181.643 155.086C181.763 155.074 181.847 155.062 181.895 155.05C181.895 154.978 181.901 154.858 181.913 154.69C181.937 154.51 181.955 154.312 181.967 154.096C181.991 153.868 182.015 153.622 182.039 153.358C182.063 153.094 182.087 152.836 182.111 152.584C182.159 151.972 182.219 151.312 182.291 150.604L182.399 149.038L182.129 149.056L181.715 150.604L180.599 155.122ZM194.866 153.142C194.782 154.366 194.542 155.434 194.146 156.346C193.75 157.246 193.27 158.002 192.706 158.614C192.154 159.226 191.554 159.682 190.906 159.982C190.27 160.282 189.664 160.432 189.088 160.432C188.644 160.432 188.218 160.336 187.81 160.144C187.414 159.952 187.066 159.664 186.766 159.28C186.478 158.884 186.25 158.392 186.082 157.804C185.914 157.216 185.83 156.526 185.83 155.734C185.83 154.186 186.052 152.836 186.496 151.684C186.94 150.532 187.498 149.572 188.17 148.804C188.854 148.036 189.58 147.466 190.348 147.094C191.128 146.722 191.854 146.536 192.526 146.536C193.006 146.536 193.42 146.62 193.768 146.788C194.128 146.956 194.422 147.184 194.65 147.472C194.878 147.748 195.04 148.078 195.136 148.462C195.244 148.834 195.298 149.23 195.298 149.65L192.832 150.118C192.724 149.638 192.58 149.296 192.4 149.092C192.22 148.888 192.016 148.786 191.788 148.786C191.488 148.786 191.158 149.002 190.798 149.434C190.438 149.854 190.102 150.4 189.79 151.072C189.478 151.744 189.214 152.482 188.998 153.286C188.782 154.09 188.662 154.882 188.638 155.662C188.638 156.406 188.746 156.94 188.962 157.264C189.19 157.576 189.478 157.732 189.826 157.732C190.066 157.732 190.312 157.672 190.564 157.552C190.828 157.432 191.062 157.264 191.266 157.048C191.47 156.82 191.638 156.562 191.77 156.274C191.914 155.974 191.992 155.65 192.004 155.302L190.078 155.59L190.42 153.808C190.984 153.736 191.536 153.664 192.076 153.592C192.532 153.532 193.012 153.46 193.516 153.376C194.032 153.292 194.482 153.214 194.866 153.142ZM194.741 160.018L197.099 147.22L202.787 146.734C202.703 146.998 202.631 147.268 202.571 147.544C202.511 147.772 202.451 148.012 202.391 148.264C202.343 148.504 202.301 148.72 202.265 148.912C202.145 148.924 201.971 148.936 201.743 148.948C201.527 148.948 201.293 148.954 201.041 148.966C200.789 148.966 200.531 148.966 200.267 148.966C200.015 148.966 199.793 148.966 199.601 148.966L198.971 152.188C199.343 152.164 199.691 152.146 200.015 152.134C200.279 152.122 200.549 152.116 200.825 152.116C201.101 152.116 201.305 152.11 201.437 152.098C201.389 152.434 201.341 152.764 201.293 153.088C201.257 153.412 201.209 153.742 201.149 154.078C201.029 154.09 200.831 154.102 200.555 154.114C200.291 154.114 200.021 154.12 199.745 154.132C199.433 154.144 199.091 154.156 198.719 154.168L198.107 157.48L200.735 157.066L200.555 159.118L194.741 160.018ZM204.907 155.734C204.559 155.734 204.211 155.746 203.863 155.77C203.515 155.794 203.167 155.818 202.819 155.842C203.191 154.366 203.551 152.896 203.899 151.432C204.259 149.968 204.631 148.498 205.015 147.022C205.243 146.986 205.501 146.95 205.789 146.914C206.089 146.878 206.389 146.836 206.689 146.788C206.989 146.74 207.277 146.698 207.553 146.662C207.841 146.626 208.081 146.59 208.273 146.554C207.625 148.066 207.031 149.59 206.491 151.126C205.963 152.65 205.435 154.186 204.907 155.734ZM205.087 158.56C205.087 158.788 205.033 159.016 204.925 159.244C204.829 159.472 204.685 159.676 204.493 159.856C204.301 160.024 204.061 160.156 203.773 160.252C203.485 160.36 203.155 160.414 202.783 160.414C202.531 160.414 202.303 160.366 202.099 160.27C201.895 160.174 201.727 160.048 201.595 159.892C201.475 159.724 201.379 159.538 201.307 159.334C201.235 159.13 201.199 158.926 201.199 158.722C201.199 158.494 201.235 158.278 201.307 158.074C201.379 157.858 201.487 157.672 201.631 157.516C201.787 157.348 201.973 157.21 202.189 157.102C202.417 156.994 202.687 156.94 202.999 156.94C203.695 156.94 204.217 157.108 204.565 157.444C204.913 157.768 205.087 158.14 205.087 158.56Z" fill="#444444"/>
</svg>
