<svg width="340" height="210" viewBox="0 0 340 210" fill="none" xmlns="http://www.w3.org/2000/svg">
<path d="M172.83 208.925C172.087 208.82 169.876 208.519 167.916 208.255C158.34 206.962 147.404 202.359 138.36 195.815C132.854 191.83 122.139 180.81 122.139 179.132C122.139 178.873 123.108 177.462 124.292 175.997C128.602 170.668 132.515 162.333 133.163 157.103C133.382 155.337 133.252 155.535 132.124 158.674C129.222 166.762 125.592 172.633 120.163 178.018C110.99 187.118 100.175 191.47 86.9926 191.368C81.9967 191.329 80.1361 191.115 76.5818 190.171C68.0984 187.917 61.3002 184.062 55.2686 178.085C46.5524 169.448 41.7651 158.467 41.4457 146.377L41.3465 142.612L45.9193 141.121C49.8958 139.825 54.5503 137.641 54.5503 137.072C54.5503 136.969 53.7901 137.216 52.8606 137.619C43.2078 141.813 34.1086 142.333 25.0189 139.211C13.2763 135.178 5.16692 126.328 1.98674 114.077C0.99344 110.252 0.884837 109.084 1.08103 104.342C1.24704 100.325 1.58529 98.0754 2.40997 95.5047C5.51959 85.8098 12.3451 77.9206 21.3532 73.6091C24.4691 72.1177 29.5599 70.44 30.9691 70.44C31.1869 70.44 31.6175 71.7685 31.9268 73.3925C32.236 75.0166 33.003 77.2898 33.6318 78.4443C34.2602 79.5985 34.6481 80.1389 34.4935 79.645C31.8165 71.1034 32.6553 62.7464 36.8738 55.9337C41.1018 49.1056 50.3412 43.9626 58.3803 43.9626C64.006 43.9626 71.3249 46.9168 75.6999 50.9532C79.2112 54.1927 81.3698 57.5133 83.2225 62.5246C84.2744 65.3704 84.6591 66.0741 84.4814 64.8269C83.6816 59.2133 81.6475 54.9654 77.4252 50.0906L75.1621 47.4779L75.3937 41.5589C75.5763 36.9327 75.8894 34.7575 76.8323 31.5988C83.5441 9.11628 106.039 -3.41048 129.216 2.42773C142.688 5.82125 154.29 15.5531 160.442 28.6195C161.27 30.3781 162.025 31.7398 162.119 31.6455C162.454 31.3125 159.519 24.3304 157.962 21.7537C157.094 20.3171 156.384 18.9917 156.384 18.8083C156.384 18.2531 160.478 14.6345 163.65 12.3862C167.773 9.46444 176.079 5.61145 180.941 4.3659C186.561 2.92602 196.334 2.92644 201.642 4.3659C221.011 9.62122 231.406 27.932 225.237 45.9274C224.721 47.4308 223.913 49.4691 223.44 50.457C222.757 51.8853 222.733 52.0691 223.324 51.3552C224.827 49.5422 227.145 44.1041 227.892 40.6373C228.66 37.0779 228.663 37.0729 231.354 35.0986C237.255 30.7699 243.692 27.9726 250.84 26.6313C255.654 25.7277 264.645 25.9506 268.755 27.0754C276.074 29.079 282.873 32.8062 288.128 37.6968C292.528 41.7916 295.271 45.4444 297.71 50.457C303.466 62.283 303.774 74.7779 298.624 87.4804C297.978 89.0735 297.519 90.4457 297.603 90.5297C297.899 90.8252 301.443 83.2082 302.013 81.0493L302.591 78.8624L307.101 79.0979C312.619 79.3864 315.888 80.2238 320.743 82.5923C329.445 86.8373 335.816 94.7625 338.226 104.34C339.25 108.409 339.259 115.411 338.247 119.608C336.097 128.509 329.846 136.442 321.565 140.779C316.843 143.252 313.606 144.107 307.868 144.398C300.913 144.751 296.573 143.829 290.352 140.679C287.796 139.385 285.706 138.379 285.706 138.444C285.706 138.797 291.388 142.456 293.127 143.222C294.25 143.717 295.168 144.293 295.168 144.502C295.168 145.644 293.055 151.498 291.56 154.496C285.857 165.937 276.231 173.736 263.554 177.185C259.91 178.177 249.414 178.27 245.152 177.349C240.153 176.268 230.734 172.442 230.734 171.492C230.734 171.266 231.059 169.603 231.457 167.796C232.278 164.07 232.459 153.615 231.759 150.367C231.4 148.697 231.318 149.439 231.292 154.633C231.255 161.911 230.774 165.643 229.156 171.205C222.814 193.015 203.096 208.028 179.634 208.91C176.637 209.023 173.576 209.029 172.833 208.931L172.83 208.925ZM133.676 153.632C133.526 153.483 133.42 153.747 133.439 154.221C133.46 154.745 133.567 154.851 133.712 154.493C133.841 154.169 133.825 153.781 133.675 153.632L133.676 153.632Z" fill="#F0F0F0" stroke="#444444" stroke-linecap="round" stroke-linejoin="round"/>
<path d="M131.772 92.802C131.772 93.426 131.682 94.092 131.502 94.8C131.322 95.496 131.07 96.192 130.746 96.888C130.422 97.572 130.02 98.232 129.54 98.868C129.072 99.492 128.538 100.044 127.938 100.524C127.338 100.992 126.678 101.37 125.958 101.658C125.25 101.946 124.494 102.09 123.69 102.09C123.522 102.09 123.354 102.078 123.186 102.054C123.018 102.042 122.85 102.024 122.682 102C123.006 100.344 123.324 98.73 123.636 97.158C123.756 96.498 123.882 95.814 124.014 95.106C124.146 94.386 124.272 93.678 124.392 92.982C124.512 92.286 124.626 91.62 124.734 90.984C124.854 90.348 124.95 89.772 125.022 89.256C125.538 89.16 126.06 89.07 126.588 88.986C127.116 88.902 127.656 88.86 128.208 88.86C128.856 88.86 129.402 88.962 129.846 89.166C130.302 89.37 130.668 89.652 130.944 90.012C131.232 90.372 131.442 90.792 131.574 91.272C131.706 91.752 131.772 92.262 131.772 92.802ZM127.524 91.398C127.392 92.106 127.254 92.784 127.11 93.432C126.966 94.08 126.822 94.734 126.678 95.394C126.534 96.054 126.39 96.744 126.246 97.464C126.102 98.184 125.964 98.97 125.832 99.822C126.12 99.63 126.396 99.372 126.66 99.048C126.936 98.712 127.194 98.328 127.434 97.896C127.674 97.464 127.89 97.008 128.082 96.528C128.286 96.048 128.46 95.58 128.604 95.124C128.748 94.668 128.856 94.242 128.928 93.846C129.012 93.45 129.054 93.108 129.054 92.82C129.054 92.376 128.928 92.028 128.676 91.776C128.436 91.524 128.052 91.398 127.524 91.398ZM141.175 92.262C141.175 93.246 141.067 94.176 140.851 95.052C140.647 95.916 140.371 96.714 140.023 97.446C139.675 98.166 139.267 98.814 138.799 99.39C138.343 99.954 137.863 100.44 137.359 100.848C136.855 101.244 136.345 101.55 135.829 101.766C135.313 101.97 134.821 102.072 134.353 102.072C133.957 102.072 133.597 102 133.273 101.856C132.949 101.7 132.667 101.478 132.427 101.19C132.187 100.89 131.995 100.512 131.851 100.056C131.719 99.588 131.653 99.03 131.653 98.382C131.653 97.71 131.737 97.002 131.905 96.258C132.073 95.514 132.301 94.776 132.589 94.044C132.877 93.312 133.231 92.616 133.651 91.956C134.071 91.296 134.533 90.714 135.037 90.21C135.541 89.694 136.081 89.286 136.657 88.986C137.233 88.686 137.833 88.536 138.457 88.536C138.997 88.536 139.441 88.65 139.789 88.878C140.149 89.094 140.425 89.382 140.617 89.742C140.821 90.09 140.965 90.486 141.049 90.93C141.133 91.374 141.175 91.818 141.175 92.262ZM134.335 97.914C134.335 98.046 134.359 98.184 134.407 98.328C134.455 98.472 134.521 98.598 134.605 98.706C134.689 98.814 134.791 98.91 134.911 98.994C135.043 99.066 135.181 99.102 135.325 99.102C135.865 99.102 136.345 98.916 136.765 98.544C137.185 98.172 137.533 97.716 137.809 97.176C138.085 96.636 138.295 96.06 138.439 95.448C138.595 94.836 138.673 94.278 138.673 93.774C138.673 93.63 138.661 93.474 138.637 93.306C138.625 93.138 138.589 92.982 138.529 92.838C138.481 92.694 138.397 92.574 138.277 92.478C138.169 92.37 138.019 92.316 137.827 92.316C137.443 92.316 137.089 92.412 136.765 92.604C136.441 92.796 136.147 93.054 135.883 93.378C135.631 93.69 135.409 94.05 135.217 94.458C135.025 94.854 134.857 95.262 134.713 95.682C134.581 96.09 134.485 96.492 134.425 96.888C134.365 97.284 134.335 97.626 134.335 97.914ZM140.602 102.09C140.962 100.362 141.304 98.688 141.628 97.068C141.748 96.372 141.874 95.652 142.006 94.908C142.15 94.164 142.282 93.432 142.402 92.712C142.522 91.98 142.63 91.284 142.726 90.624C142.822 89.952 142.894 89.346 142.942 88.806C143.098 88.818 143.23 88.824 143.338 88.824C143.446 88.824 143.572 88.824 143.716 88.824C143.884 88.824 144.088 88.824 144.328 88.824C144.568 88.812 144.808 88.8 145.048 88.788C145.288 88.776 145.546 88.764 145.822 88.752C145.99 89.592 146.14 90.402 146.272 91.182C146.404 91.866 146.536 92.568 146.668 93.288C146.812 94.008 146.938 94.62 147.046 95.124C147.094 94.884 147.148 94.608 147.208 94.296C147.268 93.972 147.334 93.636 147.406 93.288C147.478 92.94 147.544 92.592 147.604 92.244C147.676 91.884 147.748 91.53 147.82 91.182C147.988 90.402 148.162 89.598 148.342 88.77L150.538 88.5C150.13 90.336 149.77 92.076 149.458 93.72C149.314 94.428 149.17 95.148 149.026 95.88C148.894 96.6 148.768 97.296 148.648 97.968C148.528 98.628 148.426 99.246 148.342 99.822C148.258 100.386 148.192 100.86 148.144 101.244C148.108 101.244 147.964 101.274 147.712 101.334C147.472 101.382 147.19 101.442 146.866 101.514C146.554 101.586 146.236 101.658 145.912 101.73C145.6 101.802 145.366 101.868 145.21 101.928C145.138 100.968 145.06 100.056 144.976 99.192C144.94 98.82 144.898 98.442 144.85 98.058C144.814 97.662 144.772 97.284 144.724 96.924C144.676 96.564 144.628 96.228 144.58 95.916C144.532 95.604 144.484 95.334 144.436 95.106C144.4 95.334 144.352 95.598 144.292 95.898C144.232 96.198 144.172 96.516 144.112 96.852C144.052 97.188 143.992 97.542 143.932 97.914C143.872 98.274 143.806 98.622 143.734 98.958C143.578 99.762 143.41 100.602 143.23 101.478L140.602 102.09ZM150.811 102.018C151.087 100.698 151.351 99.396 151.603 98.112C151.711 97.572 151.819 97.008 151.927 96.42C152.035 95.832 152.137 95.256 152.233 94.692C152.341 94.116 152.431 93.564 152.503 93.036C152.587 92.496 152.659 92.004 152.719 91.56C152.443 91.524 152.161 91.512 151.873 91.524C151.597 91.536 151.321 91.5 151.045 91.416C151.057 91.224 151.063 91.002 151.063 90.75C151.063 90.498 151.069 90.246 151.081 89.994C151.093 89.718 151.105 89.424 151.117 89.112C151.429 89.136 151.741 89.154 152.053 89.166C152.365 89.178 152.677 89.184 152.989 89.184C153.601 89.184 154.189 89.172 154.753 89.148C155.329 89.112 155.857 89.076 156.337 89.04C156.829 88.992 157.309 88.938 157.777 88.878L157.579 89.85C157.519 90.126 157.459 90.408 157.399 90.696C157.351 90.984 157.303 91.23 157.255 91.434C156.991 91.506 156.721 91.56 156.445 91.596C156.181 91.62 155.917 91.656 155.653 91.704C155.569 92.112 155.479 92.568 155.383 93.072C155.287 93.564 155.191 94.08 155.095 94.62C155.011 95.148 154.927 95.688 154.843 96.24C154.759 96.792 154.675 97.32 154.591 97.824C154.399 99.012 154.219 100.242 154.051 101.514L150.811 102.018ZM168.444 97.482C168.444 97.974 168.342 98.43 168.138 98.85C167.934 99.27 167.658 99.654 167.31 100.002C166.962 100.338 166.554 100.638 166.086 100.902C165.63 101.154 165.144 101.37 164.628 101.55C164.124 101.718 163.602 101.85 163.062 101.946C162.534 102.03 162.024 102.072 161.532 102.072C161.088 102.072 160.674 102.036 160.29 101.964C160.866 99.864 161.322 97.752 161.658 95.628C162.006 93.492 162.336 91.344 162.648 89.184C163.272 89.052 163.92 88.938 164.592 88.842C165.264 88.734 165.96 88.68 166.68 88.68C166.98 88.68 167.298 88.716 167.634 88.788C167.97 88.86 168.276 88.992 168.552 89.184C168.828 89.376 169.056 89.628 169.236 89.94C169.428 90.252 169.524 90.648 169.524 91.128C169.524 91.584 169.446 92.01 169.29 92.406C169.146 92.802 168.954 93.162 168.714 93.486C168.486 93.81 168.222 94.092 167.922 94.332C167.622 94.56 167.316 94.734 167.004 94.854C167.16 94.938 167.322 95.058 167.49 95.214C167.658 95.37 167.814 95.556 167.958 95.772C168.102 95.976 168.216 96.222 168.3 96.51C168.396 96.798 168.444 97.122 168.444 97.482ZM164.322 95.61C164.274 95.898 164.226 96.156 164.178 96.384C164.142 96.6 164.106 96.81 164.07 97.014C164.034 97.218 163.992 97.434 163.944 97.662C163.908 97.878 163.866 98.136 163.818 98.436C164.046 98.412 164.304 98.37 164.592 98.31C164.88 98.25 165.156 98.16 165.42 98.04C165.684 97.908 165.906 97.74 166.086 97.536C166.266 97.32 166.356 97.062 166.356 96.762C166.356 96.546 166.296 96.366 166.176 96.222C166.068 96.078 165.924 95.958 165.744 95.862C165.576 95.766 165.39 95.7 165.186 95.664C164.982 95.616 164.79 95.592 164.61 95.592C164.55 95.592 164.496 95.592 164.448 95.592C164.412 95.592 164.37 95.598 164.322 95.61ZM165.132 91.254C165.108 91.386 165.078 91.542 165.042 91.722C165.018 91.902 164.988 92.094 164.952 92.298C164.916 92.49 164.874 92.682 164.826 92.874C164.79 93.066 164.76 93.234 164.736 93.378C165 93.33 165.264 93.264 165.528 93.18C165.792 93.096 166.026 93.006 166.23 92.91C166.446 92.802 166.614 92.688 166.734 92.568C166.866 92.448 166.932 92.316 166.932 92.172C166.932 91.992 166.878 91.848 166.77 91.74C166.662 91.62 166.518 91.524 166.338 91.452C166.17 91.38 165.99 91.332 165.798 91.308C165.618 91.272 165.456 91.254 165.312 91.254H165.132ZM168.691 102.018L171.049 89.22L176.737 88.734C176.653 88.998 176.581 89.268 176.521 89.544C176.461 89.772 176.401 90.012 176.341 90.264C176.293 90.504 176.251 90.72 176.215 90.912C176.095 90.924 175.921 90.936 175.693 90.948C175.477 90.948 175.243 90.954 174.991 90.966C174.739 90.966 174.481 90.966 174.217 90.966C173.965 90.966 173.743 90.966 173.551 90.966L172.921 94.188C173.293 94.164 173.641 94.146 173.965 94.134C174.229 94.122 174.499 94.116 174.775 94.116C175.051 94.116 175.255 94.11 175.387 94.098C175.339 94.434 175.291 94.764 175.243 95.088C175.207 95.412 175.159 95.742 175.099 96.078C174.979 96.09 174.781 96.102 174.505 96.114C174.241 96.114 173.971 96.12 173.695 96.132C173.383 96.144 173.041 96.156 172.669 96.168L172.057 99.48L174.685 99.066L174.505 101.118L168.691 102.018ZM187.251 97.554C187.251 98.226 187.119 98.838 186.855 99.39C186.603 99.93 186.255 100.398 185.811 100.794C185.379 101.19 184.863 101.496 184.263 101.712C183.675 101.928 183.039 102.036 182.355 102.036C181.875 102.036 181.395 101.91 180.915 101.658C180.435 101.394 179.973 100.98 179.529 100.416L180.861 97.806C180.945 97.962 181.071 98.124 181.239 98.292C181.407 98.448 181.593 98.586 181.797 98.706C182.013 98.826 182.223 98.928 182.427 99.012C182.643 99.084 182.835 99.12 183.003 99.12C183.147 99.12 183.297 99.096 183.453 99.048C183.609 99 183.753 98.928 183.885 98.832C184.017 98.736 184.119 98.628 184.191 98.508C184.275 98.376 184.317 98.226 184.317 98.058C184.317 97.77 184.221 97.506 184.029 97.266C183.849 97.014 183.621 96.78 183.345 96.564C183.069 96.336 182.769 96.108 182.445 95.88C182.121 95.652 181.821 95.412 181.545 95.16C181.281 94.908 181.053 94.626 180.861 94.314C180.669 94.002 180.573 93.654 180.573 93.27C180.573 92.646 180.759 92.064 181.131 91.524C181.503 90.984 181.965 90.522 182.517 90.138C183.081 89.742 183.693 89.43 184.353 89.202C185.013 88.974 185.637 88.86 186.225 88.86C186.549 88.86 186.855 88.902 187.143 88.986C187.431 89.058 187.677 89.184 187.881 89.364C188.097 89.532 188.265 89.748 188.385 90.012C188.517 90.276 188.583 90.606 188.583 91.002C188.583 91.17 188.565 91.338 188.529 91.506C188.505 91.674 188.481 91.854 188.457 92.046L185.847 92.802C185.871 92.706 185.889 92.61 185.901 92.514C185.925 92.418 185.937 92.322 185.937 92.226C185.937 91.866 185.871 91.608 185.739 91.452C185.619 91.284 185.457 91.2 185.253 91.2C185.157 91.2 185.037 91.236 184.893 91.308C184.761 91.38 184.623 91.476 184.479 91.596C184.347 91.704 184.233 91.836 184.137 91.992C184.041 92.148 183.993 92.316 183.993 92.496C183.993 92.784 184.071 93.024 184.227 93.216C184.395 93.408 184.599 93.588 184.839 93.756C185.079 93.924 185.337 94.098 185.613 94.278C185.901 94.446 186.165 94.668 186.405 94.944C186.645 95.22 186.843 95.568 186.999 95.988C187.167 96.396 187.251 96.918 187.251 97.554ZM187.696 102.036C188.032 100.356 188.356 98.718 188.668 97.122C188.788 96.438 188.914 95.73 189.046 94.998C189.178 94.254 189.298 93.522 189.406 92.802C189.526 92.082 189.634 91.386 189.73 90.714C189.838 90.03 189.922 89.412 189.982 88.86C190.258 88.872 190.51 88.89 190.738 88.914C190.978 88.926 191.212 88.938 191.44 88.95C191.668 88.962 191.896 88.974 192.124 88.986C192.364 88.986 192.622 88.986 192.898 88.986C192.694 89.838 192.49 90.69 192.286 91.542C192.094 92.394 191.914 93.252 191.746 94.116L193.528 93.918C193.696 93.066 193.846 92.244 193.978 91.452C194.11 90.648 194.284 89.82 194.5 88.968C194.776 88.92 195.082 88.884 195.418 88.86C195.754 88.824 196.066 88.794 196.354 88.77C196.642 88.746 196.882 88.728 197.074 88.716C197.278 88.692 197.38 88.68 197.38 88.68C197.212 89.22 197.05 89.814 196.894 90.462C196.75 91.098 196.606 91.764 196.462 92.46C196.318 93.144 196.18 93.84 196.048 94.548C195.916 95.256 195.796 95.928 195.688 96.564C195.424 98.088 195.178 99.648 194.95 101.244L192.142 101.568C192.298 100.848 192.436 100.146 192.556 99.462C192.676 98.886 192.796 98.286 192.916 97.662C193.048 97.038 193.15 96.504 193.222 96.06L191.476 96.222C191.392 96.678 191.29 97.206 191.17 97.806C191.062 98.406 190.96 98.976 190.864 99.516C190.732 100.164 190.6 100.812 190.468 101.46L187.696 102.036ZM197.423 101.73L198.251 98.112C198.251 97.596 198.239 97.038 198.215 96.438C198.203 95.826 198.179 95.214 198.143 94.602C198.107 93.99 198.071 93.402 198.035 92.838C197.999 92.262 197.969 91.758 197.945 91.326C197.921 90.882 197.897 90.528 197.873 90.264C197.849 90 197.837 89.868 197.837 89.868L200.771 88.752V90.948C200.771 91.248 200.771 91.554 200.771 91.866C200.771 92.178 200.765 92.484 200.753 92.784C200.753 93.084 200.753 93.366 200.753 93.63C200.753 93.894 200.753 94.116 200.753 94.296C200.909 93.888 201.095 93.384 201.311 92.784C201.539 92.184 201.749 91.602 201.941 91.038C202.169 90.378 202.403 89.682 202.643 88.95L205.433 89.58C204.917 90.612 204.413 91.638 203.921 92.658C203.717 93.102 203.501 93.564 203.273 94.044C203.045 94.512 202.817 94.986 202.589 95.466C202.361 95.934 202.139 96.39 201.923 96.834C201.707 97.278 201.509 97.692 201.329 98.076C201.269 98.388 201.191 98.73 201.095 99.102C201.011 99.474 200.927 99.828 200.843 100.164C200.735 100.56 200.621 100.956 200.501 101.352L197.423 101.73ZM207.229 100.56C207.229 100.788 207.175 101.016 207.067 101.244C206.971 101.472 206.827 101.676 206.635 101.856C206.443 102.024 206.203 102.156 205.915 102.252C205.627 102.36 205.297 102.414 204.925 102.414C204.673 102.414 204.445 102.366 204.241 102.27C204.037 102.174 203.869 102.048 203.737 101.892C203.617 101.724 203.521 101.538 203.449 101.334C203.377 101.13 203.341 100.926 203.341 100.722C203.341 100.494 203.377 100.278 203.449 100.074C203.521 99.858 203.629 99.672 203.773 99.516C203.929 99.348 204.115 99.21 204.331 99.102C204.559 98.994 204.829 98.94 205.141 98.94C205.837 98.94 206.359 99.108 206.707 99.444C207.055 99.768 207.229 100.14 207.229 100.56ZM211.531 100.56C211.531 100.788 211.477 101.016 211.369 101.244C211.273 101.472 211.129 101.676 210.937 101.856C210.745 102.024 210.505 102.156 210.217 102.252C209.929 102.36 209.599 102.414 209.227 102.414C208.975 102.414 208.747 102.366 208.543 102.27C208.339 102.174 208.171 102.048 208.039 101.892C207.919 101.724 207.823 101.538 207.751 101.334C207.679 101.13 207.643 100.926 207.643 100.722C207.643 100.494 207.679 100.278 207.751 100.074C207.823 99.858 207.931 99.672 208.075 99.516C208.231 99.348 208.417 99.21 208.633 99.102C208.861 98.994 209.131 98.94 209.443 98.94C210.139 98.94 210.661 99.108 211.009 99.444C211.357 99.768 211.531 100.14 211.531 100.56ZM215.833 100.56C215.833 100.788 215.779 101.016 215.671 101.244C215.575 101.472 215.431 101.676 215.239 101.856C215.047 102.024 214.807 102.156 214.519 102.252C214.231 102.36 213.901 102.414 213.529 102.414C213.277 102.414 213.049 102.366 212.845 102.27C212.641 102.174 212.473 102.048 212.341 101.892C212.221 101.724 212.125 101.538 212.053 101.334C211.981 101.13 211.945 100.926 211.945 100.722C211.945 100.494 211.981 100.278 212.053 100.074C212.125 99.858 212.233 99.672 212.377 99.516C212.533 99.348 212.719 99.21 212.935 99.102C213.163 98.994 213.433 98.94 213.745 98.94C214.441 98.94 214.963 99.108 215.311 99.444C215.659 99.768 215.833 100.14 215.833 100.56ZM109.956 121.072L111.324 108.292C111.888 108.268 112.416 108.214 112.908 108.13C113.412 108.034 113.91 107.968 114.402 107.932C114.402 107.944 114.384 108.07 114.348 108.31C114.312 108.538 114.264 108.844 114.204 109.228C114.144 109.6 114.078 110.026 114.006 110.506C113.934 110.974 113.826 111.622 113.682 112.45C113.55 113.278 113.37 114.424 113.142 115.888H113.412C113.724 114.784 113.982 113.884 114.186 113.188C114.39 112.48 114.552 111.91 114.672 111.478C114.804 111.034 114.924 110.608 115.032 110.2C115.152 109.792 115.26 109.414 115.356 109.066C115.464 108.718 115.548 108.424 115.608 108.184H115.77C115.986 108.184 116.202 108.172 116.418 108.148C116.646 108.124 116.856 108.1 117.048 108.076C117.252 108.04 117.462 107.998 117.678 107.95C117.654 108.058 117.624 108.28 117.588 108.616C117.564 108.952 117.528 109.36 117.48 109.84C117.432 110.308 117.384 110.83 117.336 111.406C117.288 111.97 117.24 112.528 117.192 113.08C117.144 113.62 117.096 114.136 117.048 114.628C117.012 115.12 116.976 115.54 116.94 115.888H117.264L118.974 108.148C119.382 108.088 119.784 108.034 120.18 107.986C120.528 107.938 120.888 107.89 121.26 107.842C121.632 107.794 121.962 107.74 122.25 107.68C122.07 108.184 121.89 108.748 121.71 109.372C121.53 109.984 121.344 110.632 121.152 111.316C120.96 112 120.774 112.69 120.594 113.386C120.426 114.082 120.258 114.754 120.09 115.402C119.706 116.938 119.334 118.516 118.974 120.136L114.906 120.82L115.698 113.872H115.482L113.7 120.406L109.956 121.072ZM120.64 121.018C120.964 119.422 121.276 117.862 121.576 116.338C121.684 115.69 121.804 115.018 121.936 114.322C122.068 113.614 122.188 112.918 122.296 112.234C122.416 111.538 122.524 110.872 122.62 110.236C122.728 109.588 122.812 109 122.872 108.472C123.556 108.256 124.294 108.1 125.086 108.004C125.878 107.896 126.664 107.842 127.444 107.842C127.912 107.842 128.296 107.896 128.596 108.004C128.908 108.112 129.148 108.268 129.316 108.472C129.496 108.664 129.622 108.892 129.694 109.156C129.766 109.42 129.802 109.714 129.802 110.038C129.802 110.518 129.718 110.992 129.55 111.46C129.382 111.916 129.154 112.354 128.866 112.774C128.59 113.182 128.266 113.56 127.894 113.908C127.534 114.244 127.144 114.52 126.724 114.736C126.94 115.216 127.168 115.744 127.408 116.32C127.66 116.884 127.894 117.424 128.11 117.94C128.35 118.54 128.596 119.14 128.848 119.74L126.058 120.712C125.818 119.944 125.602 119.224 125.41 118.552C125.326 118.276 125.242 117.994 125.158 117.706C125.074 117.406 124.996 117.124 124.924 116.86C124.852 116.596 124.792 116.362 124.744 116.158C124.696 115.942 124.666 115.768 124.654 115.636L124.42 115.708C124.348 116.092 124.258 116.542 124.15 117.058C124.054 117.574 123.964 118.072 123.88 118.552C123.772 119.116 123.664 119.686 123.556 120.262L120.64 121.018ZM124.87 113.206C125.098 113.182 125.374 113.086 125.698 112.918C126.034 112.75 126.352 112.552 126.652 112.324C126.952 112.084 127.21 111.838 127.426 111.586C127.642 111.334 127.75 111.112 127.75 110.92C127.75 110.788 127.708 110.686 127.624 110.614C127.54 110.53 127.42 110.47 127.264 110.434C127.12 110.386 126.958 110.356 126.778 110.344C126.598 110.332 126.412 110.326 126.22 110.326C126.088 110.326 125.95 110.332 125.806 110.344C125.674 110.344 125.554 110.344 125.446 110.344L124.87 113.206ZM132.166 120.64C132.058 120.64 131.842 120.658 131.518 120.694C131.206 120.718 130.882 120.754 130.546 120.802C130.21 120.838 129.904 120.874 129.628 120.91C129.364 120.946 129.22 120.97 129.196 120.982C129.316 120.466 129.436 119.896 129.556 119.272C129.688 118.636 129.82 117.976 129.952 117.292C130.084 116.596 130.21 115.894 130.33 115.186C130.45 114.478 130.564 113.794 130.672 113.134C130.924 111.598 131.176 110.02 131.428 108.4L134.236 107.95C133.96 109.558 133.69 111.136 133.426 112.684C133.318 113.344 133.204 114.028 133.084 114.736C132.976 115.444 132.862 116.146 132.742 116.842C132.634 117.538 132.532 118.216 132.436 118.876C132.34 119.524 132.25 120.112 132.166 120.64ZM134.905 121.018C135.181 119.698 135.445 118.396 135.697 117.112C135.805 116.572 135.913 116.008 136.021 115.42C136.129 114.832 136.231 114.256 136.327 113.692C136.435 113.116 136.525 112.564 136.597 112.036C136.681 111.496 136.753 111.004 136.813 110.56C136.537 110.524 136.255 110.512 135.967 110.524C135.691 110.536 135.415 110.5 135.139 110.416C135.151 110.224 135.157 110.002 135.157 109.75C135.157 109.498 135.163 109.246 135.175 108.994C135.187 108.718 135.199 108.424 135.211 108.112C135.523 108.136 135.835 108.154 136.147 108.166C136.459 108.178 136.771 108.184 137.083 108.184C137.695 108.184 138.283 108.172 138.847 108.148C139.423 108.112 139.951 108.076 140.431 108.04C140.923 107.992 141.403 107.938 141.871 107.878L141.673 108.85C141.613 109.126 141.553 109.408 141.493 109.696C141.445 109.984 141.397 110.23 141.349 110.434C141.085 110.506 140.815 110.56 140.539 110.596C140.275 110.62 140.011 110.656 139.747 110.704C139.663 111.112 139.573 111.568 139.477 112.072C139.381 112.564 139.285 113.08 139.189 113.62C139.105 114.148 139.021 114.688 138.937 115.24C138.853 115.792 138.769 116.32 138.685 116.824C138.493 118.012 138.313 119.242 138.145 120.514L134.905 121.018ZM140.49 121.018L142.848 108.22L148.536 107.734C148.452 107.998 148.38 108.268 148.32 108.544C148.26 108.772 148.2 109.012 148.14 109.264C148.092 109.504 148.05 109.72 148.014 109.912C147.894 109.924 147.72 109.936 147.492 109.948C147.276 109.948 147.042 109.954 146.79 109.966C146.538 109.966 146.28 109.966 146.016 109.966C145.764 109.966 145.542 109.966 145.35 109.966L144.72 113.188C145.092 113.164 145.44 113.146 145.764 113.134C146.028 113.122 146.298 113.116 146.574 113.116C146.85 113.116 147.054 113.11 147.186 113.098C147.138 113.434 147.09 113.764 147.042 114.088C147.006 114.412 146.958 114.742 146.898 115.078C146.778 115.09 146.58 115.102 146.304 115.114C146.04 115.114 145.77 115.12 145.494 115.132C145.182 115.144 144.84 115.156 144.468 115.168L143.856 118.48L146.484 118.066L146.304 120.118L140.49 121.018ZM159.051 116.554C159.051 117.226 158.919 117.838 158.655 118.39C158.403 118.93 158.055 119.398 157.611 119.794C157.179 120.19 156.663 120.496 156.063 120.712C155.475 120.928 154.839 121.036 154.155 121.036C153.675 121.036 153.195 120.91 152.715 120.658C152.235 120.394 151.773 119.98 151.329 119.416L152.661 116.806C152.745 116.962 152.871 117.124 153.039 117.292C153.207 117.448 153.393 117.586 153.597 117.706C153.813 117.826 154.023 117.928 154.227 118.012C154.443 118.084 154.635 118.12 154.803 118.12C154.947 118.12 155.097 118.096 155.253 118.048C155.409 118 155.553 117.928 155.685 117.832C155.817 117.736 155.919 117.628 155.991 117.508C156.075 117.376 156.117 117.226 156.117 117.058C156.117 116.77 156.021 116.506 155.829 116.266C155.649 116.014 155.421 115.78 155.145 115.564C154.869 115.336 154.569 115.108 154.245 114.88C153.921 114.652 153.621 114.412 153.345 114.16C153.081 113.908 152.853 113.626 152.661 113.314C152.469 113.002 152.373 112.654 152.373 112.27C152.373 111.646 152.559 111.064 152.931 110.524C153.303 109.984 153.765 109.522 154.317 109.138C154.881 108.742 155.493 108.43 156.153 108.202C156.813 107.974 157.437 107.86 158.025 107.86C158.349 107.86 158.655 107.902 158.943 107.986C159.231 108.058 159.477 108.184 159.681 108.364C159.897 108.532 160.065 108.748 160.185 109.012C160.317 109.276 160.383 109.606 160.383 110.002C160.383 110.17 160.365 110.338 160.329 110.506C160.305 110.674 160.281 110.854 160.257 111.046L157.647 111.802C157.671 111.706 157.689 111.61 157.701 111.514C157.725 111.418 157.737 111.322 157.737 111.226C157.737 110.866 157.671 110.608 157.539 110.452C157.419 110.284 157.257 110.2 157.053 110.2C156.957 110.2 156.837 110.236 156.693 110.308C156.561 110.38 156.423 110.476 156.279 110.596C156.147 110.704 156.033 110.836 155.937 110.992C155.841 111.148 155.793 111.316 155.793 111.496C155.793 111.784 155.871 112.024 156.027 112.216C156.195 112.408 156.399 112.588 156.639 112.756C156.879 112.924 157.137 113.098 157.413 113.278C157.701 113.446 157.965 113.668 158.205 113.944C158.445 114.22 158.643 114.568 158.799 114.988C158.967 115.396 159.051 115.918 159.051 116.554ZM169.431 111.262C169.431 112.246 169.323 113.176 169.107 114.052C168.903 114.916 168.627 115.714 168.279 116.446C167.931 117.166 167.523 117.814 167.055 118.39C166.599 118.954 166.119 119.44 165.615 119.848C165.111 120.244 164.601 120.55 164.085 120.766C163.569 120.97 163.077 121.072 162.609 121.072C162.213 121.072 161.853 121 161.529 120.856C161.205 120.7 160.923 120.478 160.683 120.19C160.443 119.89 160.251 119.512 160.107 119.056C159.975 118.588 159.909 118.03 159.909 117.382C159.909 116.71 159.993 116.002 160.161 115.258C160.329 114.514 160.557 113.776 160.845 113.044C161.133 112.312 161.487 111.616 161.907 110.956C162.327 110.296 162.789 109.714 163.293 109.21C163.797 108.694 164.337 108.286 164.913 107.986C165.489 107.686 166.089 107.536 166.713 107.536C167.253 107.536 167.697 107.65 168.045 107.878C168.405 108.094 168.681 108.382 168.873 108.742C169.077 109.09 169.221 109.486 169.305 109.93C169.389 110.374 169.431 110.818 169.431 111.262ZM162.591 116.914C162.591 117.046 162.615 117.184 162.663 117.328C162.711 117.472 162.777 117.598 162.861 117.706C162.945 117.814 163.047 117.91 163.167 117.994C163.299 118.066 163.437 118.102 163.581 118.102C164.121 118.102 164.601 117.916 165.021 117.544C165.441 117.172 165.789 116.716 166.065 116.176C166.341 115.636 166.551 115.06 166.695 114.448C166.851 113.836 166.929 113.278 166.929 112.774C166.929 112.63 166.917 112.474 166.893 112.306C166.881 112.138 166.845 111.982 166.785 111.838C166.737 111.694 166.653 111.574 166.533 111.478C166.425 111.37 166.275 111.316 166.083 111.316C165.699 111.316 165.345 111.412 165.021 111.604C164.697 111.796 164.403 112.054 164.139 112.378C163.887 112.69 163.665 113.05 163.473 113.458C163.281 113.854 163.113 114.262 162.969 114.682C162.837 115.09 162.741 115.492 162.681 115.888C162.621 116.284 162.591 116.626 162.591 116.914ZM168.228 120.892C168.756 119.296 169.26 117.73 169.74 116.194C169.944 115.546 170.154 114.868 170.37 114.16C170.586 113.452 170.802 112.75 171.018 112.054C171.234 111.358 171.432 110.686 171.612 110.038C171.804 109.39 171.972 108.79 172.116 108.238C172.776 108.238 173.4 108.202 173.988 108.13C174.576 108.058 175.212 107.992 175.896 107.932C175.86 108.196 175.818 108.496 175.77 108.832C175.734 109.156 175.686 109.498 175.626 109.858C175.578 110.218 175.524 110.59 175.464 110.974C175.404 111.358 175.332 111.85 175.248 112.45C175.164 113.05 175.05 113.8 174.906 114.7H175.14C175.488 113.788 175.776 113.032 176.004 112.432C176.232 111.82 176.418 111.322 176.562 110.938C176.706 110.554 176.85 110.182 176.994 109.822C177.15 109.45 177.294 109.102 177.426 108.778C177.57 108.442 177.702 108.148 177.822 107.896C178.122 107.872 178.404 107.842 178.668 107.806C178.932 107.77 179.196 107.734 179.46 107.698C179.724 107.65 179.988 107.608 180.252 107.572C180.528 107.524 180.828 107.47 181.152 107.41C181.032 108.106 180.918 108.82 180.81 109.552C180.702 110.284 180.606 111.016 180.522 111.748C180.438 112.468 180.354 113.182 180.27 113.89C180.198 114.598 180.132 115.27 180.072 115.906C179.928 117.394 179.802 118.846 179.694 120.262L176.562 120.82C176.562 120.76 176.568 120.598 176.58 120.334C176.604 120.07 176.628 119.746 176.652 119.362C176.688 118.978 176.73 118.552 176.778 118.084C176.838 117.616 176.892 117.148 176.94 116.68C177 116.212 177.06 115.762 177.12 115.33C177.18 114.886 177.24 114.508 177.3 114.196H177.138C176.97 114.7 176.784 115.234 176.58 115.798C176.376 116.35 176.166 116.914 175.95 117.49C175.746 118.066 175.542 118.63 175.338 119.182C175.134 119.734 174.954 120.262 174.798 120.766C174.378 120.778 174.018 120.796 173.718 120.82C173.418 120.832 173.07 120.85 172.674 120.874L173.25 114.196H172.98C172.956 114.352 172.896 114.616 172.8 114.988C172.704 115.348 172.59 115.768 172.458 116.248C172.338 116.716 172.206 117.208 172.062 117.724C171.918 118.228 171.78 118.702 171.648 119.146C171.528 119.578 171.426 119.938 171.342 120.226C171.258 120.502 171.21 120.658 171.198 120.694L168.228 120.892ZM180.597 121.018L182.955 108.22L188.643 107.734C188.559 107.998 188.487 108.268 188.427 108.544C188.367 108.772 188.307 109.012 188.247 109.264C188.199 109.504 188.157 109.72 188.121 109.912C188.001 109.924 187.827 109.936 187.599 109.948C187.383 109.948 187.149 109.954 186.897 109.966C186.645 109.966 186.387 109.966 186.123 109.966C185.871 109.966 185.649 109.966 185.457 109.966L184.827 113.188C185.199 113.164 185.547 113.146 185.871 113.134C186.135 113.122 186.405 113.116 186.681 113.116C186.957 113.116 187.161 113.11 187.293 113.098C187.245 113.434 187.197 113.764 187.149 114.088C187.113 114.412 187.065 114.742 187.005 115.078C186.885 115.09 186.687 115.102 186.411 115.114C186.147 115.114 185.877 115.12 185.601 115.132C185.289 115.144 184.947 115.156 184.575 115.168L183.963 118.48L186.591 118.066L186.411 120.118L180.597 121.018ZM188.747 121.018C189.023 119.698 189.287 118.396 189.539 117.112C189.647 116.572 189.755 116.008 189.863 115.42C189.971 114.832 190.073 114.256 190.169 113.692C190.277 113.116 190.367 112.564 190.439 112.036C190.523 111.496 190.595 111.004 190.655 110.56C190.379 110.524 190.097 110.512 189.809 110.524C189.533 110.536 189.257 110.5 188.981 110.416C188.993 110.224 188.999 110.002 188.999 109.75C188.999 109.498 189.005 109.246 189.017 108.994C189.029 108.718 189.041 108.424 189.053 108.112C189.365 108.136 189.677 108.154 189.989 108.166C190.301 108.178 190.613 108.184 190.925 108.184C191.537 108.184 192.125 108.172 192.689 108.148C193.265 108.112 193.793 108.076 194.273 108.04C194.765 107.992 195.245 107.938 195.713 107.878L195.515 108.85C195.455 109.126 195.395 109.408 195.335 109.696C195.287 109.984 195.239 110.23 195.191 110.434C194.927 110.506 194.657 110.56 194.381 110.596C194.117 110.62 193.853 110.656 193.589 110.704C193.505 111.112 193.415 111.568 193.319 112.072C193.223 112.564 193.127 113.08 193.031 113.62C192.947 114.148 192.863 114.688 192.779 115.24C192.695 115.792 192.611 116.32 192.527 116.824C192.335 118.012 192.155 119.242 191.987 120.514L188.747 121.018ZM194.333 121.036C194.669 119.356 194.993 117.718 195.305 116.122C195.425 115.438 195.551 114.73 195.683 113.998C195.815 113.254 195.935 112.522 196.043 111.802C196.163 111.082 196.271 110.386 196.367 109.714C196.475 109.03 196.559 108.412 196.619 107.86C196.895 107.872 197.147 107.89 197.375 107.914C197.615 107.926 197.849 107.938 198.077 107.95C198.305 107.962 198.533 107.974 198.761 107.986C199.001 107.986 199.259 107.986 199.535 107.986C199.331 108.838 199.127 109.69 198.923 110.542C198.731 111.394 198.551 112.252 198.383 113.116L200.165 112.918C200.333 112.066 200.483 111.244 200.615 110.452C200.747 109.648 200.921 108.82 201.137 107.968C201.413 107.92 201.719 107.884 202.055 107.86C202.391 107.824 202.703 107.794 202.991 107.77C203.279 107.746 203.519 107.728 203.711 107.716C203.915 107.692 204.017 107.68 204.017 107.68C203.849 108.22 203.687 108.814 203.531 109.462C203.387 110.098 203.243 110.764 203.099 111.46C202.955 112.144 202.817 112.84 202.685 113.548C202.553 114.256 202.433 114.928 202.325 115.564C202.061 117.088 201.815 118.648 201.587 120.244L198.779 120.568C198.935 119.848 199.073 119.146 199.193 118.462C199.313 117.886 199.433 117.286 199.553 116.662C199.685 116.038 199.787 115.504 199.859 115.06L198.113 115.222C198.029 115.678 197.927 116.206 197.807 116.806C197.699 117.406 197.597 117.976 197.501 118.516C197.369 119.164 197.237 119.812 197.105 120.46L194.333 121.036ZM205.734 120.64C205.626 120.64 205.41 120.658 205.086 120.694C204.774 120.718 204.45 120.754 204.114 120.802C203.778 120.838 203.472 120.874 203.196 120.91C202.932 120.946 202.788 120.97 202.764 120.982C202.884 120.466 203.004 119.896 203.124 119.272C203.256 118.636 203.388 117.976 203.52 117.292C203.652 116.596 203.778 115.894 203.898 115.186C204.018 114.478 204.132 113.794 204.24 113.134C204.492 111.598 204.744 110.02 204.996 108.4L207.804 107.95C207.528 109.558 207.258 111.136 206.994 112.684C206.886 113.344 206.772 114.028 206.652 114.736C206.544 115.444 206.43 116.146 206.31 116.842C206.202 117.538 206.1 118.216 206.004 118.876C205.908 119.524 205.818 120.112 205.734 120.64ZM206.943 121.09C207.303 119.362 207.645 117.688 207.969 116.068C208.089 115.372 208.215 114.652 208.347 113.908C208.491 113.164 208.623 112.432 208.743 111.712C208.863 110.98 208.971 110.284 209.067 109.624C209.163 108.952 209.235 108.346 209.283 107.806C209.439 107.818 209.571 107.824 209.679 107.824C209.787 107.824 209.913 107.824 210.057 107.824C210.225 107.824 210.429 107.824 210.669 107.824C210.909 107.812 211.149 107.8 211.389 107.788C211.629 107.776 211.887 107.764 212.163 107.752C212.331 108.592 212.481 109.402 212.613 110.182C212.745 110.866 212.877 111.568 213.009 112.288C213.153 113.008 213.279 113.62 213.387 114.124C213.435 113.884 213.489 113.608 213.549 113.296C213.609 112.972 213.675 112.636 213.747 112.288C213.819 111.94 213.885 111.592 213.945 111.244C214.017 110.884 214.089 110.53 214.161 110.182C214.329 109.402 214.503 108.598 214.683 107.77L216.879 107.5C216.471 109.336 216.111 111.076 215.799 112.72C215.655 113.428 215.511 114.148 215.367 114.88C215.235 115.6 215.109 116.296 214.989 116.968C214.869 117.628 214.767 118.246 214.683 118.822C214.599 119.386 214.533 119.86 214.485 120.244C214.449 120.244 214.305 120.274 214.053 120.334C213.813 120.382 213.531 120.442 213.207 120.514C212.895 120.586 212.577 120.658 212.253 120.73C211.941 120.802 211.707 120.868 211.551 120.928C211.479 119.968 211.401 119.056 211.317 118.192C211.281 117.82 211.239 117.442 211.191 117.058C211.155 116.662 211.113 116.284 211.065 115.924C211.017 115.564 210.969 115.228 210.921 114.916C210.873 114.604 210.825 114.334 210.777 114.106C210.741 114.334 210.693 114.598 210.633 114.898C210.573 115.198 210.513 115.516 210.453 115.852C210.393 116.188 210.333 116.542 210.273 116.914C210.213 117.274 210.147 117.622 210.075 117.958C209.919 118.762 209.751 119.602 209.571 120.478L206.943 121.09ZM225.323 114.142C225.239 115.366 224.999 116.434 224.603 117.346C224.207 118.246 223.727 119.002 223.163 119.614C222.611 120.226 222.011 120.682 221.363 120.982C220.727 121.282 220.121 121.432 219.545 121.432C219.101 121.432 218.675 121.336 218.267 121.144C217.871 120.952 217.523 120.664 217.223 120.28C216.935 119.884 216.707 119.392 216.539 118.804C216.371 118.216 216.287 117.526 216.287 116.734C216.287 115.186 216.509 113.836 216.953 112.684C217.397 111.532 217.955 110.572 218.627 109.804C219.311 109.036 220.037 108.466 220.805 108.094C221.585 107.722 222.311 107.536 222.983 107.536C223.463 107.536 223.877 107.62 224.225 107.788C224.585 107.956 224.879 108.184 225.107 108.472C225.335 108.748 225.497 109.078 225.593 109.462C225.701 109.834 225.755 110.23 225.755 110.65L223.289 111.118C223.181 110.638 223.037 110.296 222.857 110.092C222.677 109.888 222.473 109.786 222.245 109.786C221.945 109.786 221.615 110.002 221.255 110.434C220.895 110.854 220.559 111.4 220.247 112.072C219.935 112.744 219.671 113.482 219.455 114.286C219.239 115.09 219.119 115.882 219.095 116.662C219.095 117.406 219.203 117.94 219.419 118.264C219.647 118.576 219.935 118.732 220.283 118.732C220.523 118.732 220.769 118.672 221.021 118.552C221.285 118.432 221.519 118.264 221.723 118.048C221.927 117.82 222.095 117.562 222.227 117.274C222.371 116.974 222.449 116.65 222.461 116.302L220.535 116.59L220.877 114.808C221.441 114.736 221.993 114.664 222.533 114.592C222.989 114.532 223.469 114.46 223.973 114.376C224.489 114.292 224.939 114.214 225.323 114.142ZM228.69 116.734C228.342 116.734 227.994 116.746 227.646 116.77C227.298 116.794 226.95 116.818 226.602 116.842C226.974 115.366 227.334 113.896 227.682 112.432C228.042 110.968 228.414 109.498 228.798 108.022C229.026 107.986 229.284 107.95 229.572 107.914C229.872 107.878 230.172 107.836 230.472 107.788C230.772 107.74 231.06 107.698 231.336 107.662C231.624 107.626 231.864 107.59 232.056 107.554C231.408 109.066 230.814 110.59 230.274 112.126C229.746 113.65 229.218 115.186 228.69 116.734ZM228.87 119.56C228.87 119.788 228.816 120.016 228.708 120.244C228.612 120.472 228.468 120.676 228.276 120.856C228.084 121.024 227.844 121.156 227.556 121.252C227.268 121.36 226.938 121.414 226.566 121.414C226.314 121.414 226.086 121.366 225.882 121.27C225.678 121.174 225.51 121.048 225.378 120.892C225.258 120.724 225.162 120.538 225.09 120.334C225.018 120.13 224.982 119.926 224.982 119.722C224.982 119.494 225.018 119.278 225.09 119.074C225.162 118.858 225.27 118.672 225.414 118.516C225.57 118.348 225.756 118.21 225.972 118.102C226.2 117.994 226.47 117.94 226.782 117.94C227.478 117.94 228 118.108 228.348 118.444C228.696 118.768 228.87 119.14 228.87 119.56Z" fill="#444444"/>
</svg>
