<svg width="340" height="210" viewBox="0 0 340 210" fill="none" xmlns="http://www.w3.org/2000/svg">
<path d="M172.83 208.925C172.087 208.82 169.876 208.519 167.916 208.255C158.34 206.962 147.404 202.359 138.36 195.815C132.854 191.83 122.139 180.81 122.139 179.132C122.139 178.873 123.108 177.462 124.292 175.997C128.602 170.668 132.515 162.333 133.163 157.103C133.382 155.337 133.252 155.535 132.124 158.674C129.222 166.762 125.592 172.633 120.163 178.018C110.99 187.118 100.175 191.47 86.9926 191.368C81.9967 191.329 80.1361 191.115 76.5818 190.171C68.0984 187.917 61.3002 184.062 55.2686 178.085C46.5524 169.448 41.7651 158.467 41.4457 146.377L41.3465 142.612L45.9193 141.121C49.8958 139.825 54.5503 137.641 54.5503 137.072C54.5503 136.969 53.7901 137.216 52.8606 137.619C43.2078 141.813 34.1086 142.333 25.0189 139.211C13.2763 135.178 5.16692 126.328 1.98674 114.077C0.99344 110.252 0.884837 109.084 1.08103 104.342C1.24704 100.325 1.58529 98.0754 2.40997 95.5047C5.51959 85.8098 12.3451 77.9206 21.3532 73.6091C24.4691 72.1177 29.5599 70.44 30.9691 70.44C31.1869 70.44 31.6175 71.7685 31.9268 73.3925C32.236 75.0166 33.003 77.2898 33.6318 78.4443C34.2602 79.5985 34.6481 80.1389 34.4935 79.645C31.8165 71.1034 32.6553 62.7464 36.8738 55.9337C41.1018 49.1056 50.3412 43.9626 58.3803 43.9626C64.006 43.9626 71.3249 46.9168 75.6999 50.9532C79.2112 54.1927 81.3698 57.5133 83.2225 62.5246C84.2744 65.3704 84.6591 66.0741 84.4814 64.8269C83.6816 59.2133 81.6475 54.9654 77.4252 50.0906L75.1621 47.4779L75.3937 41.5589C75.5763 36.9327 75.8894 34.7575 76.8323 31.5988C83.5441 9.11628 106.039 -3.41048 129.216 2.42773C142.688 5.82125 154.29 15.5531 160.442 28.6195C161.27 30.3781 162.025 31.7398 162.119 31.6455C162.454 31.3125 159.519 24.3304 157.962 21.7537C157.094 20.3171 156.384 18.9917 156.384 18.8083C156.384 18.2531 160.478 14.6345 163.65 12.3862C167.773 9.46444 176.079 5.61145 180.941 4.3659C186.561 2.92602 196.334 2.92644 201.642 4.3659C221.011 9.62122 231.406 27.932 225.237 45.9274C224.721 47.4308 223.913 49.4691 223.44 50.457C222.757 51.8853 222.733 52.0691 223.324 51.3552C224.827 49.5422 227.145 44.1041 227.892 40.6373C228.66 37.0779 228.663 37.0729 231.354 35.0986C237.255 30.7699 243.692 27.9726 250.84 26.6313C255.654 25.7277 264.645 25.9506 268.755 27.0754C276.074 29.079 282.873 32.8062 288.128 37.6968C292.528 41.7916 295.271 45.4444 297.71 50.457C303.466 62.283 303.774 74.7779 298.624 87.4804C297.978 89.0735 297.519 90.4457 297.603 90.5297C297.899 90.8252 301.443 83.2082 302.013 81.0493L302.591 78.8624L307.101 79.0979C312.619 79.3864 315.888 80.2238 320.743 82.5923C329.445 86.8373 335.816 94.7625 338.226 104.34C339.25 108.409 339.259 115.411 338.247 119.608C336.097 128.509 329.846 136.442 321.565 140.779C316.843 143.252 313.606 144.107 307.868 144.398C300.913 144.751 296.573 143.829 290.352 140.679C287.796 139.385 285.706 138.379 285.706 138.444C285.706 138.797 291.388 142.456 293.127 143.222C294.25 143.717 295.168 144.293 295.168 144.502C295.168 145.644 293.055 151.498 291.56 154.496C285.857 165.937 276.231 173.736 263.554 177.185C259.91 178.177 249.414 178.27 245.152 177.349C240.153 176.268 230.734 172.442 230.734 171.492C230.734 171.266 231.059 169.603 231.457 167.796C232.278 164.07 232.459 153.615 231.759 150.367C231.4 148.697 231.318 149.439 231.292 154.633C231.255 161.911 230.774 165.643 229.156 171.205C222.814 193.015 203.096 208.028 179.634 208.91C176.637 209.023 173.576 209.029 172.833 208.931L172.83 208.925ZM133.676 153.632C133.526 153.483 133.42 153.747 133.439 154.221C133.46 154.745 133.567 154.851 133.712 154.493C133.841 154.169 133.825 153.781 133.675 153.632L133.676 153.632Z" fill="#F0F0F0" stroke="#444444" stroke-linecap="round" stroke-linejoin="round"/>
<path d="M113.34 101.64C113.232 101.64 113.016 101.658 112.692 101.694C112.38 101.718 112.056 101.754 111.72 101.802C111.384 101.838 111.078 101.874 110.802 101.91C110.538 101.946 110.394 101.97 110.37 101.982C110.49 101.466 110.61 100.896 110.73 100.272C110.862 99.636 110.994 98.976 111.126 98.292C111.258 97.596 111.384 96.894 111.504 96.186C111.624 95.478 111.738 94.794 111.846 94.134C112.098 92.598 112.35 91.02 112.602 89.4L115.41 88.95C115.134 90.558 114.864 92.136 114.6 93.684C114.492 94.344 114.378 95.028 114.258 95.736C114.15 96.444 114.036 97.146 113.916 97.842C113.808 98.538 113.706 99.216 113.61 99.876C113.514 100.524 113.424 101.112 113.34 101.64ZM120.134 102.018C120.41 100.698 120.674 99.396 120.926 98.112C121.034 97.572 121.142 97.008 121.25 96.42C121.358 95.832 121.46 95.256 121.556 94.692C121.664 94.116 121.754 93.564 121.826 93.036C121.91 92.496 121.982 92.004 122.042 91.56C121.766 91.524 121.484 91.512 121.196 91.524C120.92 91.536 120.644 91.5 120.368 91.416C120.38 91.224 120.386 91.002 120.386 90.75C120.386 90.498 120.392 90.246 120.404 89.994C120.416 89.718 120.428 89.424 120.44 89.112C120.752 89.136 121.064 89.154 121.376 89.166C121.688 89.178 122 89.184 122.312 89.184C122.924 89.184 123.512 89.172 124.076 89.148C124.652 89.112 125.18 89.076 125.66 89.04C126.152 88.992 126.632 88.938 127.1 88.878L126.902 89.85C126.842 90.126 126.782 90.408 126.722 90.696C126.674 90.984 126.626 91.23 126.578 91.434C126.314 91.506 126.044 91.56 125.768 91.596C125.504 91.62 125.24 91.656 124.976 91.704C124.892 92.112 124.802 92.568 124.706 93.072C124.61 93.564 124.514 94.08 124.418 94.62C124.334 95.148 124.25 95.688 124.166 96.24C124.082 96.792 123.998 97.32 123.914 97.824C123.722 99.012 123.542 100.242 123.374 101.514L120.134 102.018ZM125.719 102.036C126.055 100.356 126.379 98.718 126.691 97.122C126.811 96.438 126.937 95.73 127.069 94.998C127.201 94.254 127.321 93.522 127.429 92.802C127.549 92.082 127.657 91.386 127.753 90.714C127.861 90.03 127.945 89.412 128.005 88.86C128.281 88.872 128.533 88.89 128.761 88.914C129.001 88.926 129.235 88.938 129.463 88.95C129.691 88.962 129.919 88.974 130.147 88.986C130.387 88.986 130.645 88.986 130.921 88.986C130.717 89.838 130.513 90.69 130.309 91.542C130.117 92.394 129.937 93.252 129.769 94.116L131.551 93.918C131.719 93.066 131.869 92.244 132.001 91.452C132.133 90.648 132.307 89.82 132.523 88.968C132.799 88.92 133.105 88.884 133.441 88.86C133.777 88.824 134.089 88.794 134.377 88.77C134.665 88.746 134.905 88.728 135.097 88.716C135.301 88.692 135.403 88.68 135.403 88.68C135.235 89.22 135.073 89.814 134.917 90.462C134.773 91.098 134.629 91.764 134.485 92.46C134.341 93.144 134.203 93.84 134.071 94.548C133.939 95.256 133.819 95.928 133.711 96.564C133.447 98.088 133.201 99.648 132.973 101.244L130.165 101.568C130.321 100.848 130.459 100.146 130.579 99.462C130.699 98.886 130.819 98.286 130.939 97.662C131.071 97.038 131.173 96.504 131.245 96.06L129.499 96.222C129.415 96.678 129.313 97.206 129.193 97.806C129.085 98.406 128.983 98.976 128.887 99.516C128.755 100.164 128.623 100.812 128.491 101.46L125.719 102.036ZM137.121 101.64C137.013 101.64 136.797 101.658 136.473 101.694C136.161 101.718 135.837 101.754 135.501 101.802C135.165 101.838 134.859 101.874 134.583 101.91C134.319 101.946 134.175 101.97 134.151 101.982C134.271 101.466 134.391 100.896 134.511 100.272C134.643 99.636 134.775 98.976 134.907 98.292C135.039 97.596 135.165 96.894 135.285 96.186C135.405 95.478 135.519 94.794 135.627 94.134C135.879 92.598 136.131 91.02 136.383 89.4L139.191 88.95C138.915 90.558 138.645 92.136 138.381 93.684C138.273 94.344 138.159 95.028 138.039 95.736C137.931 96.444 137.817 97.146 137.697 97.842C137.589 98.538 137.487 99.216 137.391 99.876C137.295 100.524 137.205 101.112 137.121 101.64ZM138.329 102.09C138.689 100.362 139.031 98.688 139.355 97.068C139.475 96.372 139.601 95.652 139.733 94.908C139.877 94.164 140.009 93.432 140.129 92.712C140.249 91.98 140.357 91.284 140.453 90.624C140.549 89.952 140.621 89.346 140.669 88.806C140.825 88.818 140.957 88.824 141.065 88.824C141.173 88.824 141.299 88.824 141.443 88.824C141.611 88.824 141.815 88.824 142.055 88.824C142.295 88.812 142.535 88.8 142.775 88.788C143.015 88.776 143.273 88.764 143.549 88.752C143.717 89.592 143.867 90.402 143.999 91.182C144.131 91.866 144.263 92.568 144.395 93.288C144.539 94.008 144.665 94.62 144.773 95.124C144.821 94.884 144.875 94.608 144.935 94.296C144.995 93.972 145.061 93.636 145.133 93.288C145.205 92.94 145.271 92.592 145.331 92.244C145.403 91.884 145.475 91.53 145.547 91.182C145.715 90.402 145.889 89.598 146.069 88.77L148.265 88.5C147.857 90.336 147.497 92.076 147.185 93.72C147.041 94.428 146.897 95.148 146.753 95.88C146.621 96.6 146.495 97.296 146.375 97.968C146.255 98.628 146.153 99.246 146.069 99.822C145.985 100.386 145.919 100.86 145.871 101.244C145.835 101.244 145.691 101.274 145.439 101.334C145.199 101.382 144.917 101.442 144.593 101.514C144.281 101.586 143.963 101.658 143.639 101.73C143.327 101.802 143.093 101.868 142.937 101.928C142.865 100.968 142.787 100.056 142.703 99.192C142.667 98.82 142.625 98.442 142.577 98.058C142.541 97.662 142.499 97.284 142.451 96.924C142.403 96.564 142.355 96.228 142.307 95.916C142.259 95.604 142.211 95.334 142.163 95.106C142.127 95.334 142.079 95.598 142.019 95.898C141.959 96.198 141.899 96.516 141.839 96.852C141.779 97.188 141.719 97.542 141.659 97.914C141.599 98.274 141.533 98.622 141.461 98.958C141.305 99.762 141.137 100.602 140.957 101.478L138.329 102.09ZM147.044 102.018C147.404 100.338 147.74 98.706 148.052 97.122C148.172 96.438 148.298 95.73 148.43 94.998C148.562 94.266 148.682 93.54 148.79 92.82C148.91 92.1 149.012 91.404 149.096 90.732C149.192 90.048 149.264 89.43 149.312 88.878C149.588 88.902 149.9 88.926 150.248 88.95C150.596 88.962 150.92 88.98 151.22 89.004C151.58 89.028 151.94 89.04 152.3 89.04C152.288 89.088 152.27 89.178 152.246 89.31C152.222 89.442 152.192 89.604 152.156 89.796C152.12 89.976 152.078 90.18 152.03 90.408C151.994 90.636 151.952 90.864 151.904 91.092C151.808 91.62 151.7 92.214 151.58 92.874L151.688 92.856C151.808 92.664 151.976 92.4 152.192 92.064C152.42 91.716 152.654 91.35 152.894 90.966C153.134 90.582 153.368 90.216 153.596 89.868C153.824 89.508 154.016 89.202 154.172 88.95C154.772 88.902 155.372 88.848 155.972 88.788C156.572 88.728 157.172 88.65 157.772 88.554C157.208 89.31 156.662 90.054 156.134 90.786C155.906 91.098 155.672 91.422 155.432 91.758C155.204 92.094 154.976 92.424 154.748 92.748C154.52 93.072 154.304 93.384 154.1 93.684C153.908 93.984 153.734 94.26 153.578 94.512C153.842 95.724 154.154 96.894 154.514 98.022C154.874 99.15 155.24 100.302 155.612 101.478C155.336 101.466 155.054 101.46 154.766 101.46C154.478 101.448 154.196 101.442 153.92 101.442C153.572 101.442 153.236 101.448 152.912 101.46C152.588 101.46 152.252 101.466 151.904 101.478C151.796 100.698 151.676 99.882 151.544 99.03C151.424 98.166 151.31 97.344 151.202 96.564L150.878 96.942C150.794 97.302 150.698 97.746 150.59 98.274C150.494 98.802 150.398 99.312 150.302 99.804C150.194 100.38 150.08 100.974 149.96 101.586L147.044 102.018ZM161.448 102.018C161.724 100.698 161.988 99.396 162.24 98.112C162.348 97.572 162.456 97.008 162.564 96.42C162.672 95.832 162.774 95.256 162.87 94.692C162.978 94.116 163.068 93.564 163.14 93.036C163.224 92.496 163.296 92.004 163.356 91.56C163.08 91.524 162.798 91.512 162.51 91.524C162.234 91.536 161.958 91.5 161.682 91.416C161.694 91.224 161.7 91.002 161.7 90.75C161.7 90.498 161.706 90.246 161.718 89.994C161.73 89.718 161.742 89.424 161.754 89.112C162.066 89.136 162.378 89.154 162.69 89.166C163.002 89.178 163.314 89.184 163.626 89.184C164.238 89.184 164.826 89.172 165.39 89.148C165.966 89.112 166.494 89.076 166.974 89.04C167.466 88.992 167.946 88.938 168.414 88.878L168.216 89.85C168.156 90.126 168.096 90.408 168.036 90.696C167.988 90.984 167.94 91.23 167.892 91.434C167.628 91.506 167.358 91.56 167.082 91.596C166.818 91.62 166.554 91.656 166.29 91.704C166.206 92.112 166.116 92.568 166.02 93.072C165.924 93.564 165.828 94.08 165.732 94.62C165.648 95.148 165.564 95.688 165.48 96.24C165.396 96.792 165.312 97.32 165.228 97.824C165.036 99.012 164.856 100.242 164.688 101.514L161.448 102.018ZM167.034 102.036C167.37 100.356 167.694 98.718 168.006 97.122C168.126 96.438 168.252 95.73 168.384 94.998C168.516 94.254 168.636 93.522 168.744 92.802C168.864 92.082 168.972 91.386 169.068 90.714C169.176 90.03 169.26 89.412 169.32 88.86C169.596 88.872 169.848 88.89 170.076 88.914C170.316 88.926 170.55 88.938 170.778 88.95C171.006 88.962 171.234 88.974 171.462 88.986C171.702 88.986 171.96 88.986 172.236 88.986C172.032 89.838 171.828 90.69 171.624 91.542C171.432 92.394 171.252 93.252 171.084 94.116L172.866 93.918C173.034 93.066 173.184 92.244 173.316 91.452C173.448 90.648 173.622 89.82 173.838 88.968C174.114 88.92 174.42 88.884 174.756 88.86C175.092 88.824 175.404 88.794 175.692 88.77C175.98 88.746 176.22 88.728 176.412 88.716C176.616 88.692 176.718 88.68 176.718 88.68C176.55 89.22 176.388 89.814 176.232 90.462C176.088 91.098 175.944 91.764 175.8 92.46C175.656 93.144 175.518 93.84 175.386 94.548C175.254 95.256 175.134 95.928 175.026 96.564C174.762 98.088 174.516 99.648 174.288 101.244L171.48 101.568C171.636 100.848 171.774 100.146 171.894 99.462C172.014 98.886 172.134 98.286 172.254 97.662C172.386 97.038 172.488 96.504 172.56 96.06L170.814 96.222C170.73 96.678 170.628 97.206 170.508 97.806C170.4 98.406 170.298 98.976 170.202 99.516C170.07 100.164 169.938 100.812 169.806 101.46L167.034 102.036ZM178.435 101.64C178.327 101.64 178.111 101.658 177.787 101.694C177.475 101.718 177.151 101.754 176.815 101.802C176.479 101.838 176.173 101.874 175.897 101.91C175.633 101.946 175.489 101.97 175.465 101.982C175.585 101.466 175.705 100.896 175.825 100.272C175.957 99.636 176.089 98.976 176.221 98.292C176.353 97.596 176.479 96.894 176.599 96.186C176.719 95.478 176.833 94.794 176.941 94.134C177.193 92.598 177.445 91.02 177.697 89.4L180.505 88.95C180.229 90.558 179.959 92.136 179.695 93.684C179.587 94.344 179.473 95.028 179.353 95.736C179.245 96.444 179.131 97.146 179.011 97.842C178.903 98.538 178.801 99.216 178.705 99.876C178.609 100.524 178.519 101.112 178.435 101.64ZM187.528 97.554C187.528 98.226 187.396 98.838 187.132 99.39C186.88 99.93 186.532 100.398 186.088 100.794C185.656 101.19 185.14 101.496 184.54 101.712C183.952 101.928 183.316 102.036 182.632 102.036C182.152 102.036 181.672 101.91 181.192 101.658C180.712 101.394 180.25 100.98 179.806 100.416L181.138 97.806C181.222 97.962 181.348 98.124 181.516 98.292C181.684 98.448 181.87 98.586 182.074 98.706C182.29 98.826 182.5 98.928 182.704 99.012C182.92 99.084 183.112 99.12 183.28 99.12C183.424 99.12 183.574 99.096 183.73 99.048C183.886 99 184.03 98.928 184.162 98.832C184.294 98.736 184.396 98.628 184.468 98.508C184.552 98.376 184.594 98.226 184.594 98.058C184.594 97.77 184.498 97.506 184.306 97.266C184.126 97.014 183.898 96.78 183.622 96.564C183.346 96.336 183.046 96.108 182.722 95.88C182.398 95.652 182.098 95.412 181.822 95.16C181.558 94.908 181.33 94.626 181.138 94.314C180.946 94.002 180.85 93.654 180.85 93.27C180.85 92.646 181.036 92.064 181.408 91.524C181.78 90.984 182.242 90.522 182.794 90.138C183.358 89.742 183.97 89.43 184.63 89.202C185.29 88.974 185.914 88.86 186.502 88.86C186.826 88.86 187.132 88.902 187.42 88.986C187.708 89.058 187.954 89.184 188.158 89.364C188.374 89.532 188.542 89.748 188.662 90.012C188.794 90.276 188.86 90.606 188.86 91.002C188.86 91.17 188.842 91.338 188.806 91.506C188.782 91.674 188.758 91.854 188.734 92.046L186.124 92.802C186.148 92.706 186.166 92.61 186.178 92.514C186.202 92.418 186.214 92.322 186.214 92.226C186.214 91.866 186.148 91.608 186.016 91.452C185.896 91.284 185.734 91.2 185.53 91.2C185.434 91.2 185.314 91.236 185.17 91.308C185.038 91.38 184.9 91.476 184.756 91.596C184.624 91.704 184.51 91.836 184.414 91.992C184.318 92.148 184.27 92.316 184.27 92.496C184.27 92.784 184.348 93.024 184.504 93.216C184.672 93.408 184.876 93.588 185.116 93.756C185.356 93.924 185.614 94.098 185.89 94.278C186.178 94.446 186.442 94.668 186.682 94.944C186.922 95.22 187.12 95.568 187.276 95.988C187.444 96.396 187.528 96.918 187.528 97.554ZM192.028 102.018L194.386 89.22L200.074 88.734C199.99 88.998 199.918 89.268 199.858 89.544C199.798 89.772 199.738 90.012 199.678 90.264C199.63 90.504 199.588 90.72 199.552 90.912C199.432 90.924 199.258 90.936 199.03 90.948C198.814 90.948 198.58 90.954 198.328 90.966C198.076 90.966 197.818 90.966 197.554 90.966C197.302 90.966 197.08 90.966 196.888 90.966L196.258 94.188C196.63 94.164 196.978 94.146 197.302 94.134C197.566 94.122 197.836 94.116 198.112 94.116C198.388 94.116 198.592 94.11 198.724 94.098C198.676 94.434 198.628 94.764 198.58 95.088C198.544 95.412 198.496 95.742 198.436 96.078C198.316 96.09 198.118 96.102 197.842 96.114C197.578 96.114 197.308 96.12 197.032 96.132C196.72 96.144 196.378 96.156 196.006 96.168L195.394 99.48L198.022 99.066L197.842 101.118L192.028 102.018ZM198.018 101.892C198.546 100.296 199.05 98.73 199.53 97.194C199.734 96.546 199.944 95.868 200.16 95.16C200.376 94.452 200.592 93.75 200.808 93.054C201.024 92.358 201.222 91.686 201.402 91.038C201.594 90.39 201.762 89.79 201.906 89.238C202.566 89.238 203.19 89.202 203.778 89.13C204.366 89.058 205.002 88.992 205.686 88.932C205.65 89.196 205.608 89.496 205.56 89.832C205.524 90.156 205.476 90.498 205.416 90.858C205.368 91.218 205.314 91.59 205.254 91.974C205.194 92.358 205.122 92.85 205.038 93.45C204.954 94.05 204.84 94.8 204.696 95.7H204.93C205.278 94.788 205.566 94.032 205.794 93.432C206.022 92.82 206.208 92.322 206.352 91.938C206.496 91.554 206.64 91.182 206.784 90.822C206.94 90.45 207.084 90.102 207.216 89.778C207.36 89.442 207.492 89.148 207.612 88.896C207.912 88.872 208.194 88.842 208.458 88.806C208.722 88.77 208.986 88.734 209.25 88.698C209.514 88.65 209.778 88.608 210.042 88.572C210.318 88.524 210.618 88.47 210.942 88.41C210.822 89.106 210.708 89.82 210.6 90.552C210.492 91.284 210.396 92.016 210.312 92.748C210.228 93.468 210.144 94.182 210.06 94.89C209.988 95.598 209.922 96.27 209.862 96.906C209.718 98.394 209.592 99.846 209.484 101.262L206.352 101.82C206.352 101.76 206.358 101.598 206.37 101.334C206.394 101.07 206.418 100.746 206.442 100.362C206.478 99.978 206.52 99.552 206.568 99.084C206.628 98.616 206.682 98.148 206.73 97.68C206.79 97.212 206.85 96.762 206.91 96.33C206.97 95.886 207.03 95.508 207.09 95.196H206.928C206.76 95.7 206.574 96.234 206.37 96.798C206.166 97.35 205.956 97.914 205.74 98.49C205.536 99.066 205.332 99.63 205.128 100.182C204.924 100.734 204.744 101.262 204.588 101.766C204.168 101.778 203.808 101.796 203.508 101.82C203.208 101.832 202.86 101.85 202.464 101.874L203.04 95.196H202.77C202.746 95.352 202.686 95.616 202.59 95.988C202.494 96.348 202.38 96.768 202.248 97.248C202.128 97.716 201.996 98.208 201.852 98.724C201.708 99.228 201.57 99.702 201.438 100.146C201.318 100.578 201.216 100.938 201.132 101.226C201.048 101.502 201 101.658 200.988 101.694L198.018 101.892ZM216.867 101.64C216.567 101.688 216.237 101.742 215.877 101.802C215.517 101.862 215.193 101.916 214.905 101.964C214.953 101.568 215.001 101.178 215.049 100.794C215.085 100.458 215.115 100.122 215.139 99.786C215.175 99.45 215.205 99.162 215.229 98.922H213.663L212.943 101.514C212.679 101.55 212.367 101.592 212.007 101.64C211.647 101.676 211.311 101.712 210.999 101.748C210.615 101.796 210.237 101.844 209.865 101.892C210.345 100.296 210.819 98.724 211.287 97.176C211.479 96.528 211.677 95.85 211.881 95.142C212.097 94.434 212.307 93.732 212.511 93.036C212.727 92.328 212.931 91.65 213.123 91.002C213.315 90.354 213.483 89.76 213.627 89.22C214.443 89.16 215.271 89.088 216.111 89.004C216.963 88.92 217.791 88.806 218.595 88.662C218.559 89.046 218.517 89.526 218.469 90.102C218.433 90.666 218.397 91.284 218.361 91.956C218.325 92.628 218.289 93.33 218.253 94.062C218.217 94.794 218.181 95.514 218.145 96.222C218.085 97.878 218.019 99.636 217.947 101.496C217.587 101.556 217.227 101.604 216.867 101.64ZM214.095 97.122C214.143 97.122 214.227 97.122 214.347 97.122C214.479 97.11 214.611 97.104 214.743 97.104C214.887 97.092 215.019 97.086 215.139 97.086C215.259 97.074 215.343 97.062 215.391 97.05C215.391 96.978 215.397 96.858 215.409 96.69C215.433 96.51 215.451 96.312 215.463 96.096C215.487 95.868 215.511 95.622 215.535 95.358C215.559 95.094 215.583 94.836 215.607 94.584C215.655 93.972 215.715 93.312 215.787 92.604L215.895 91.038L215.625 91.056L215.211 92.604L214.095 97.122ZM221.63 101.64C221.522 101.64 221.306 101.658 220.982 101.694C220.67 101.718 220.346 101.754 220.01 101.802C219.674 101.838 219.368 101.874 219.092 101.91C218.828 101.946 218.684 101.97 218.66 101.982C218.78 101.466 218.9 100.896 219.02 100.272C219.152 99.636 219.284 98.976 219.416 98.292C219.548 97.596 219.674 96.894 219.794 96.186C219.914 95.478 220.028 94.794 220.136 94.134C220.388 92.598 220.64 91.02 220.892 89.4L223.7 88.95C223.424 90.558 223.154 92.136 222.89 93.684C222.782 94.344 222.668 95.028 222.548 95.736C222.44 96.444 222.326 97.146 222.206 97.842C222.098 98.538 221.996 99.216 221.9 99.876C221.804 100.524 221.714 101.112 221.63 101.64ZM227.717 101.424C227.345 101.424 226.949 101.436 226.529 101.46C226.121 101.484 225.707 101.52 225.287 101.568C224.867 101.616 224.453 101.682 224.045 101.766C223.649 101.838 223.289 101.928 222.965 102.036C223.037 101.496 223.121 100.896 223.217 100.236C223.313 99.576 223.421 98.892 223.541 98.184C223.673 97.476 223.799 96.762 223.919 96.042C224.051 95.322 224.183 94.632 224.315 93.972C224.615 92.4 224.933 90.798 225.269 89.166L228.419 88.752C228.095 90.144 227.783 91.5 227.483 92.82C227.351 93.384 227.219 93.972 227.087 94.584C226.955 95.184 226.829 95.772 226.709 96.348C226.589 96.924 226.481 97.482 226.385 98.022C226.289 98.562 226.211 99.042 226.151 99.462C226.451 99.438 226.769 99.426 227.105 99.426C227.453 99.414 227.759 99.408 228.023 99.408C228.035 99.636 228.053 99.864 228.077 100.092C228.101 100.308 228.125 100.506 228.149 100.686C228.185 100.866 228.209 101.028 228.221 101.172C228.245 101.304 228.263 101.394 228.275 101.442C228.179 101.442 228.083 101.442 227.987 101.442C227.903 101.43 227.813 101.424 227.717 101.424ZM134.37 120.64C134.262 120.64 134.046 120.658 133.722 120.694C133.41 120.718 133.086 120.754 132.75 120.802C132.414 120.838 132.108 120.874 131.832 120.91C131.568 120.946 131.424 120.97 131.4 120.982C131.52 120.466 131.64 119.896 131.76 119.272C131.892 118.636 132.024 117.976 132.156 117.292C132.288 116.596 132.414 115.894 132.534 115.186C132.654 114.478 132.768 113.794 132.876 113.134C133.128 111.598 133.38 110.02 133.632 108.4L136.44 107.95C136.164 109.558 135.894 111.136 135.63 112.684C135.522 113.344 135.408 114.028 135.288 114.736C135.18 115.444 135.066 116.146 134.946 116.842C134.838 117.538 134.736 118.216 134.64 118.876C134.544 119.524 134.454 120.112 134.37 120.64ZM143.462 116.554C143.462 117.226 143.33 117.838 143.066 118.39C142.814 118.93 142.466 119.398 142.022 119.794C141.59 120.19 141.074 120.496 140.474 120.712C139.886 120.928 139.25 121.036 138.566 121.036C138.086 121.036 137.606 120.91 137.126 120.658C136.646 120.394 136.184 119.98 135.74 119.416L137.072 116.806C137.156 116.962 137.282 117.124 137.45 117.292C137.618 117.448 137.804 117.586 138.008 117.706C138.224 117.826 138.434 117.928 138.638 118.012C138.854 118.084 139.046 118.12 139.214 118.12C139.358 118.12 139.508 118.096 139.664 118.048C139.82 118 139.964 117.928 140.096 117.832C140.228 117.736 140.33 117.628 140.402 117.508C140.486 117.376 140.528 117.226 140.528 117.058C140.528 116.77 140.432 116.506 140.24 116.266C140.06 116.014 139.832 115.78 139.556 115.564C139.28 115.336 138.98 115.108 138.656 114.88C138.332 114.652 138.032 114.412 137.756 114.16C137.492 113.908 137.264 113.626 137.072 113.314C136.88 113.002 136.784 112.654 136.784 112.27C136.784 111.646 136.97 111.064 137.342 110.524C137.714 109.984 138.176 109.522 138.728 109.138C139.292 108.742 139.904 108.43 140.564 108.202C141.224 107.974 141.848 107.86 142.436 107.86C142.76 107.86 143.066 107.902 143.354 107.986C143.642 108.058 143.888 108.184 144.092 108.364C144.308 108.532 144.476 108.748 144.596 109.012C144.728 109.276 144.794 109.606 144.794 110.002C144.794 110.17 144.776 110.338 144.74 110.506C144.716 110.674 144.692 110.854 144.668 111.046L142.058 111.802C142.082 111.706 142.1 111.61 142.112 111.514C142.136 111.418 142.148 111.322 142.148 111.226C142.148 110.866 142.082 110.608 141.95 110.452C141.83 110.284 141.668 110.2 141.464 110.2C141.368 110.2 141.248 110.236 141.104 110.308C140.972 110.38 140.834 110.476 140.69 110.596C140.558 110.704 140.444 110.836 140.348 110.992C140.252 111.148 140.204 111.316 140.204 111.496C140.204 111.784 140.282 112.024 140.438 112.216C140.606 112.408 140.81 112.588 141.05 112.756C141.29 112.924 141.548 113.098 141.824 113.278C142.112 113.446 142.376 113.668 142.616 113.944C142.856 114.22 143.054 114.568 143.21 114.988C143.378 115.396 143.462 115.918 143.462 116.554ZM148.556 121.072L149.924 108.292C150.488 108.268 151.016 108.214 151.508 108.13C152.012 108.034 152.51 107.968 153.002 107.932C153.002 107.944 152.984 108.07 152.948 108.31C152.912 108.538 152.864 108.844 152.804 109.228C152.744 109.6 152.678 110.026 152.606 110.506C152.534 110.974 152.426 111.622 152.282 112.45C152.15 113.278 151.97 114.424 151.742 115.888H152.012C152.324 114.784 152.582 113.884 152.786 113.188C152.99 112.48 153.152 111.91 153.272 111.478C153.404 111.034 153.524 110.608 153.632 110.2C153.752 109.792 153.86 109.414 153.956 109.066C154.064 108.718 154.148 108.424 154.208 108.184H154.37C154.586 108.184 154.802 108.172 155.018 108.148C155.246 108.124 155.456 108.1 155.648 108.076C155.852 108.04 156.062 107.998 156.278 107.95C156.254 108.058 156.224 108.28 156.188 108.616C156.164 108.952 156.128 109.36 156.08 109.84C156.032 110.308 155.984 110.83 155.936 111.406C155.888 111.97 155.84 112.528 155.792 113.08C155.744 113.62 155.696 114.136 155.648 114.628C155.612 115.12 155.576 115.54 155.54 115.888H155.864L157.574 108.148C157.982 108.088 158.384 108.034 158.78 107.986C159.128 107.938 159.488 107.89 159.86 107.842C160.232 107.794 160.562 107.74 160.85 107.68C160.67 108.184 160.49 108.748 160.31 109.372C160.13 109.984 159.944 110.632 159.752 111.316C159.56 112 159.374 112.69 159.194 113.386C159.026 114.082 158.858 114.754 158.69 115.402C158.306 116.938 157.934 118.516 157.574 120.136L153.506 120.82L154.298 113.872H154.082L152.3 120.406L148.556 121.072ZM159.241 121.018C159.565 119.422 159.877 117.862 160.177 116.338C160.285 115.69 160.405 115.018 160.537 114.322C160.669 113.614 160.789 112.918 160.897 112.234C161.017 111.538 161.125 110.872 161.221 110.236C161.329 109.588 161.413 109 161.473 108.472C162.157 108.256 162.895 108.1 163.687 108.004C164.479 107.896 165.265 107.842 166.045 107.842C166.513 107.842 166.897 107.896 167.197 108.004C167.509 108.112 167.749 108.268 167.917 108.472C168.097 108.664 168.223 108.892 168.295 109.156C168.367 109.42 168.403 109.714 168.403 110.038C168.403 110.518 168.319 110.992 168.151 111.46C167.983 111.916 167.755 112.354 167.467 112.774C167.191 113.182 166.867 113.56 166.495 113.908C166.135 114.244 165.745 114.52 165.325 114.736C165.541 115.216 165.769 115.744 166.009 116.32C166.261 116.884 166.495 117.424 166.711 117.94C166.951 118.54 167.197 119.14 167.449 119.74L164.659 120.712C164.419 119.944 164.203 119.224 164.011 118.552C163.927 118.276 163.843 117.994 163.759 117.706C163.675 117.406 163.597 117.124 163.525 116.86C163.453 116.596 163.393 116.362 163.345 116.158C163.297 115.942 163.267 115.768 163.255 115.636L163.021 115.708C162.949 116.092 162.859 116.542 162.751 117.058C162.655 117.574 162.565 118.072 162.481 118.552C162.373 119.116 162.265 119.686 162.157 120.262L159.241 121.018ZM163.471 113.206C163.699 113.182 163.975 113.086 164.299 112.918C164.635 112.75 164.953 112.552 165.253 112.324C165.553 112.084 165.811 111.838 166.027 111.586C166.243 111.334 166.351 111.112 166.351 110.92C166.351 110.788 166.309 110.686 166.225 110.614C166.141 110.53 166.021 110.47 165.865 110.434C165.721 110.386 165.559 110.356 165.379 110.344C165.199 110.332 165.013 110.326 164.821 110.326C164.689 110.326 164.551 110.332 164.407 110.344C164.275 110.344 164.155 110.344 164.047 110.344L163.471 113.206ZM177.787 111.262C177.787 112.246 177.679 113.176 177.463 114.052C177.259 114.916 176.983 115.714 176.635 116.446C176.287 117.166 175.879 117.814 175.411 118.39C174.955 118.954 174.475 119.44 173.971 119.848C173.467 120.244 172.957 120.55 172.441 120.766C171.925 120.97 171.433 121.072 170.965 121.072C170.569 121.072 170.209 121 169.885 120.856C169.561 120.7 169.279 120.478 169.039 120.19C168.799 119.89 168.607 119.512 168.463 119.056C168.331 118.588 168.265 118.03 168.265 117.382C168.265 116.71 168.349 116.002 168.517 115.258C168.685 114.514 168.913 113.776 169.201 113.044C169.489 112.312 169.843 111.616 170.263 110.956C170.683 110.296 171.145 109.714 171.649 109.21C172.153 108.694 172.693 108.286 173.269 107.986C173.845 107.686 174.445 107.536 175.069 107.536C175.609 107.536 176.053 107.65 176.401 107.878C176.761 108.094 177.037 108.382 177.229 108.742C177.433 109.09 177.577 109.486 177.661 109.93C177.745 110.374 177.787 110.818 177.787 111.262ZM170.947 116.914C170.947 117.046 170.971 117.184 171.019 117.328C171.067 117.472 171.133 117.598 171.217 117.706C171.301 117.814 171.403 117.91 171.523 117.994C171.655 118.066 171.793 118.102 171.937 118.102C172.477 118.102 172.957 117.916 173.377 117.544C173.797 117.172 174.145 116.716 174.421 116.176C174.697 115.636 174.907 115.06 175.051 114.448C175.207 113.836 175.285 113.278 175.285 112.774C175.285 112.63 175.273 112.474 175.249 112.306C175.237 112.138 175.201 111.982 175.141 111.838C175.093 111.694 175.009 111.574 174.889 111.478C174.781 111.37 174.631 111.316 174.439 111.316C174.055 111.316 173.701 111.412 173.377 111.604C173.053 111.796 172.759 112.054 172.495 112.378C172.243 112.69 172.021 113.05 171.829 113.458C171.637 113.854 171.469 114.262 171.325 114.682C171.193 115.09 171.097 115.492 171.037 115.888C170.977 116.284 170.947 116.626 170.947 116.914ZM177.214 121.09C177.574 119.362 177.916 117.688 178.24 116.068C178.36 115.372 178.486 114.652 178.618 113.908C178.762 113.164 178.894 112.432 179.014 111.712C179.134 110.98 179.242 110.284 179.338 109.624C179.434 108.952 179.506 108.346 179.554 107.806C179.71 107.818 179.842 107.824 179.95 107.824C180.058 107.824 180.184 107.824 180.328 107.824C180.496 107.824 180.7 107.824 180.94 107.824C181.18 107.812 181.42 107.8 181.66 107.788C181.9 107.776 182.158 107.764 182.434 107.752C182.602 108.592 182.752 109.402 182.884 110.182C183.016 110.866 183.148 111.568 183.28 112.288C183.424 113.008 183.55 113.62 183.658 114.124C183.706 113.884 183.76 113.608 183.82 113.296C183.88 112.972 183.946 112.636 184.018 112.288C184.09 111.94 184.156 111.592 184.216 111.244C184.288 110.884 184.36 110.53 184.432 110.182C184.6 109.402 184.774 108.598 184.954 107.77L187.15 107.5C186.742 109.336 186.382 111.076 186.07 112.72C185.926 113.428 185.782 114.148 185.638 114.88C185.506 115.6 185.38 116.296 185.26 116.968C185.14 117.628 185.038 118.246 184.954 118.822C184.87 119.386 184.804 119.86 184.756 120.244C184.72 120.244 184.576 120.274 184.324 120.334C184.084 120.382 183.802 120.442 183.478 120.514C183.166 120.586 182.848 120.658 182.524 120.73C182.212 120.802 181.978 120.868 181.822 120.928C181.75 119.968 181.672 119.056 181.588 118.192C181.552 117.82 181.51 117.442 181.462 117.058C181.426 116.662 181.384 116.284 181.336 115.924C181.288 115.564 181.24 115.228 181.192 114.916C181.144 114.604 181.096 114.334 181.048 114.106C181.012 114.334 180.964 114.598 180.904 114.898C180.844 115.198 180.784 115.516 180.724 115.852C180.664 116.188 180.604 116.542 180.544 116.914C180.484 117.274 180.418 117.622 180.346 117.958C180.19 118.762 180.022 119.602 179.842 120.478L177.214 121.09ZM195.595 114.142C195.511 115.366 195.271 116.434 194.875 117.346C194.479 118.246 193.999 119.002 193.435 119.614C192.883 120.226 192.283 120.682 191.635 120.982C190.999 121.282 190.393 121.432 189.817 121.432C189.373 121.432 188.947 121.336 188.539 121.144C188.143 120.952 187.795 120.664 187.495 120.28C187.207 119.884 186.979 119.392 186.811 118.804C186.643 118.216 186.559 117.526 186.559 116.734C186.559 115.186 186.781 113.836 187.225 112.684C187.669 111.532 188.227 110.572 188.899 109.804C189.583 109.036 190.309 108.466 191.077 108.094C191.857 107.722 192.583 107.536 193.255 107.536C193.735 107.536 194.149 107.62 194.497 107.788C194.857 107.956 195.151 108.184 195.379 108.472C195.607 108.748 195.769 109.078 195.865 109.462C195.973 109.834 196.027 110.23 196.027 110.65L193.561 111.118C193.453 110.638 193.309 110.296 193.129 110.092C192.949 109.888 192.745 109.786 192.517 109.786C192.217 109.786 191.887 110.002 191.527 110.434C191.167 110.854 190.831 111.4 190.519 112.072C190.207 112.744 189.943 113.482 189.727 114.286C189.511 115.09 189.391 115.882 189.367 116.662C189.367 117.406 189.475 117.94 189.691 118.264C189.919 118.576 190.207 118.732 190.555 118.732C190.795 118.732 191.041 118.672 191.293 118.552C191.557 118.432 191.791 118.264 191.995 118.048C192.199 117.82 192.367 117.562 192.499 117.274C192.643 116.974 192.721 116.65 192.733 116.302L190.807 116.59L191.149 114.808C191.713 114.736 192.265 114.664 192.805 114.592C193.261 114.532 193.741 114.46 194.245 114.376C194.761 114.292 195.211 114.214 195.595 114.142ZM199.069 119.56C199.069 119.788 199.015 120.016 198.907 120.244C198.811 120.472 198.667 120.676 198.475 120.856C198.283 121.024 198.043 121.156 197.755 121.252C197.467 121.36 197.137 121.414 196.765 121.414C196.513 121.414 196.285 121.366 196.081 121.27C195.877 121.174 195.709 121.048 195.577 120.892C195.457 120.724 195.361 120.538 195.289 120.334C195.217 120.13 195.181 119.926 195.181 119.722C195.181 119.494 195.217 119.278 195.289 119.074C195.361 118.858 195.469 118.672 195.613 118.516C195.769 118.348 195.955 118.21 196.171 118.102C196.399 117.994 196.669 117.94 196.981 117.94C197.677 117.94 198.199 118.108 198.547 118.444C198.895 118.768 199.069 119.14 199.069 119.56ZM203.371 119.56C203.371 119.788 203.317 120.016 203.209 120.244C203.113 120.472 202.969 120.676 202.777 120.856C202.585 121.024 202.345 121.156 202.057 121.252C201.769 121.36 201.439 121.414 201.067 121.414C200.815 121.414 200.587 121.366 200.383 121.27C200.179 121.174 200.011 121.048 199.879 120.892C199.759 120.724 199.663 120.538 199.591 120.334C199.519 120.13 199.483 119.926 199.483 119.722C199.483 119.494 199.519 119.278 199.591 119.074C199.663 118.858 199.771 118.672 199.915 118.516C200.071 118.348 200.257 118.21 200.473 118.102C200.701 117.994 200.971 117.94 201.283 117.94C201.979 117.94 202.501 118.108 202.849 118.444C203.197 118.768 203.371 119.14 203.371 119.56ZM207.673 119.56C207.673 119.788 207.619 120.016 207.511 120.244C207.415 120.472 207.271 120.676 207.079 120.856C206.887 121.024 206.647 121.156 206.359 121.252C206.071 121.36 205.741 121.414 205.369 121.414C205.117 121.414 204.889 121.366 204.685 121.27C204.481 121.174 204.313 121.048 204.181 120.892C204.061 120.724 203.965 120.538 203.893 120.334C203.821 120.13 203.785 119.926 203.785 119.722C203.785 119.494 203.821 119.278 203.893 119.074C203.965 118.858 204.073 118.672 204.217 118.516C204.373 118.348 204.559 118.21 204.775 118.102C205.003 117.994 205.273 117.94 205.585 117.94C206.281 117.94 206.803 118.108 207.151 118.444C207.499 118.768 207.673 119.14 207.673 119.56Z" fill="#444444"/>
</svg>
